G04 #@! TF.GenerationSoftware,KiCad,Pcbnew,(5.1.5)-3*
G04 #@! TF.CreationDate,2020-06-22T20:22:27+02:00*
G04 #@! TF.ProjectId,Mupi,4d757069-2e6b-4696-9361-645f70636258,rev?*
G04 #@! TF.SameCoordinates,Original*
G04 #@! TF.FileFunction,Legend,Top*
G04 #@! TF.FilePolarity,Positive*
%FSLAX46Y46*%
G04 Gerber Fmt 4.6, Leading zero omitted, Abs format (unit mm)*
G04 Created by KiCad (PCBNEW (5.1.5)-3) date 2020-06-22 20:22:27*
%MOMM*%
%LPD*%
G04 APERTURE LIST*
%ADD10C,0.300000*%
%ADD11C,0.120000*%
%ADD12C,0.150000*%
G04 APERTURE END LIST*
D10*
X69428571Y-150107142D02*
X70571428Y-150107142D01*
X49428571Y-150107142D02*
X50571428Y-150107142D01*
X50000000Y-150678571D02*
X50000000Y-149535714D01*
X62964285Y-139892857D02*
X63464285Y-139892857D01*
X63678571Y-140678571D02*
X62964285Y-140678571D01*
X62964285Y-139178571D01*
X63678571Y-139178571D01*
X65107142Y-140678571D02*
X64250000Y-140678571D01*
X64678571Y-140678571D02*
X64678571Y-139178571D01*
X64535714Y-139392857D01*
X64392857Y-139535714D01*
X64250000Y-139607142D01*
X54964285Y-139892857D02*
X55464285Y-139892857D01*
X55678571Y-140678571D02*
X54964285Y-140678571D01*
X54964285Y-139178571D01*
X55678571Y-139178571D01*
X56607142Y-139178571D02*
X56750000Y-139178571D01*
X56892857Y-139250000D01*
X56964285Y-139321428D01*
X57035714Y-139464285D01*
X57107142Y-139750000D01*
X57107142Y-140107142D01*
X57035714Y-140392857D01*
X56964285Y-140535714D01*
X56892857Y-140607142D01*
X56750000Y-140678571D01*
X56607142Y-140678571D01*
X56464285Y-140607142D01*
X56392857Y-140535714D01*
X56321428Y-140392857D01*
X56250000Y-140107142D01*
X56250000Y-139750000D01*
X56321428Y-139464285D01*
X56392857Y-139321428D01*
X56464285Y-139250000D01*
X56607142Y-139178571D01*
X64500000Y-119892857D02*
X64000000Y-119892857D01*
X64000000Y-120678571D02*
X64000000Y-119178571D01*
X64714285Y-119178571D01*
X65928571Y-120678571D02*
X65928571Y-119892857D01*
X65857142Y-119750000D01*
X65714285Y-119678571D01*
X65428571Y-119678571D01*
X65285714Y-119750000D01*
X65928571Y-120607142D02*
X65785714Y-120678571D01*
X65428571Y-120678571D01*
X65285714Y-120607142D01*
X65214285Y-120464285D01*
X65214285Y-120321428D01*
X65285714Y-120178571D01*
X65428571Y-120107142D01*
X65785714Y-120107142D01*
X65928571Y-120035714D01*
X66571428Y-120607142D02*
X66714285Y-120678571D01*
X67000000Y-120678571D01*
X67142857Y-120607142D01*
X67214285Y-120464285D01*
X67214285Y-120392857D01*
X67142857Y-120250000D01*
X67000000Y-120178571D01*
X66785714Y-120178571D01*
X66642857Y-120107142D01*
X66571428Y-119964285D01*
X66571428Y-119892857D01*
X66642857Y-119750000D01*
X66785714Y-119678571D01*
X67000000Y-119678571D01*
X67142857Y-119750000D01*
X67642857Y-119678571D02*
X68214285Y-119678571D01*
X67857142Y-119178571D02*
X67857142Y-120464285D01*
X67928571Y-120607142D01*
X68071428Y-120678571D01*
X68214285Y-120678571D01*
X52714285Y-120607142D02*
X52928571Y-120678571D01*
X53285714Y-120678571D01*
X53428571Y-120607142D01*
X53500000Y-120535714D01*
X53571428Y-120392857D01*
X53571428Y-120250000D01*
X53500000Y-120107142D01*
X53428571Y-120035714D01*
X53285714Y-119964285D01*
X53000000Y-119892857D01*
X52857142Y-119821428D01*
X52785714Y-119750000D01*
X52714285Y-119607142D01*
X52714285Y-119464285D01*
X52785714Y-119321428D01*
X52857142Y-119250000D01*
X53000000Y-119178571D01*
X53357142Y-119178571D01*
X53571428Y-119250000D01*
X54428571Y-120678571D02*
X54285714Y-120607142D01*
X54214285Y-120464285D01*
X54214285Y-119178571D01*
X55214285Y-120678571D02*
X55071428Y-120607142D01*
X55000000Y-120535714D01*
X54928571Y-120392857D01*
X54928571Y-119964285D01*
X55000000Y-119821428D01*
X55071428Y-119750000D01*
X55214285Y-119678571D01*
X55428571Y-119678571D01*
X55571428Y-119750000D01*
X55642857Y-119821428D01*
X55714285Y-119964285D01*
X55714285Y-120392857D01*
X55642857Y-120535714D01*
X55571428Y-120607142D01*
X55428571Y-120678571D01*
X55214285Y-120678571D01*
X56214285Y-119678571D02*
X56500000Y-120678571D01*
X56785714Y-119964285D01*
X57071428Y-120678571D01*
X57357142Y-119678571D01*
X72785714Y-56207142D02*
X73000000Y-56278571D01*
X73357142Y-56278571D01*
X73500000Y-56207142D01*
X73571428Y-56135714D01*
X73642857Y-55992857D01*
X73642857Y-55850000D01*
X73571428Y-55707142D01*
X73500000Y-55635714D01*
X73357142Y-55564285D01*
X73071428Y-55492857D01*
X72928571Y-55421428D01*
X72857142Y-55350000D01*
X72785714Y-55207142D01*
X72785714Y-55064285D01*
X72857142Y-54921428D01*
X72928571Y-54850000D01*
X73071428Y-54778571D01*
X73428571Y-54778571D01*
X73642857Y-54850000D01*
X74071428Y-55278571D02*
X74642857Y-55278571D01*
X74285714Y-54778571D02*
X74285714Y-56064285D01*
X74357142Y-56207142D01*
X74500000Y-56278571D01*
X74642857Y-56278571D01*
X75357142Y-56278571D02*
X75214285Y-56207142D01*
X75142857Y-56135714D01*
X75071428Y-55992857D01*
X75071428Y-55564285D01*
X75142857Y-55421428D01*
X75214285Y-55350000D01*
X75357142Y-55278571D01*
X75571428Y-55278571D01*
X75714285Y-55350000D01*
X75785714Y-55421428D01*
X75857142Y-55564285D01*
X75857142Y-55992857D01*
X75785714Y-56135714D01*
X75714285Y-56207142D01*
X75571428Y-56278571D01*
X75357142Y-56278571D01*
X76500000Y-55278571D02*
X76500000Y-56778571D01*
X76500000Y-55350000D02*
X76642857Y-55278571D01*
X76928571Y-55278571D01*
X77071428Y-55350000D01*
X77142857Y-55421428D01*
X77214285Y-55564285D01*
X77214285Y-55992857D01*
X77142857Y-56135714D01*
X77071428Y-56207142D01*
X76928571Y-56278571D01*
X76642857Y-56278571D01*
X76500000Y-56207142D01*
X57000000Y-56278571D02*
X57000000Y-54778571D01*
X57571428Y-54778571D01*
X57714285Y-54850000D01*
X57785714Y-54921428D01*
X57857142Y-55064285D01*
X57857142Y-55278571D01*
X57785714Y-55421428D01*
X57714285Y-55492857D01*
X57571428Y-55564285D01*
X57000000Y-55564285D01*
X59142857Y-56278571D02*
X59142857Y-55492857D01*
X59071428Y-55350000D01*
X58928571Y-55278571D01*
X58642857Y-55278571D01*
X58500000Y-55350000D01*
X59142857Y-56207142D02*
X59000000Y-56278571D01*
X58642857Y-56278571D01*
X58500000Y-56207142D01*
X58428571Y-56064285D01*
X58428571Y-55921428D01*
X58500000Y-55778571D01*
X58642857Y-55707142D01*
X59000000Y-55707142D01*
X59142857Y-55635714D01*
X60500000Y-55278571D02*
X60500000Y-56278571D01*
X59857142Y-55278571D02*
X59857142Y-56064285D01*
X59928571Y-56207142D01*
X60071428Y-56278571D01*
X60285714Y-56278571D01*
X60428571Y-56207142D01*
X60500000Y-56135714D01*
X61142857Y-56207142D02*
X61285714Y-56278571D01*
X61571428Y-56278571D01*
X61714285Y-56207142D01*
X61785714Y-56064285D01*
X61785714Y-55992857D01*
X61714285Y-55850000D01*
X61571428Y-55778571D01*
X61357142Y-55778571D01*
X61214285Y-55707142D01*
X61142857Y-55564285D01*
X61142857Y-55492857D01*
X61214285Y-55350000D01*
X61357142Y-55278571D01*
X61571428Y-55278571D01*
X61714285Y-55350000D01*
X63000000Y-56207142D02*
X62857142Y-56278571D01*
X62571428Y-56278571D01*
X62428571Y-56207142D01*
X62357142Y-56064285D01*
X62357142Y-55492857D01*
X62428571Y-55350000D01*
X62571428Y-55278571D01*
X62857142Y-55278571D01*
X63000000Y-55350000D01*
X63071428Y-55492857D01*
X63071428Y-55635714D01*
X62357142Y-55778571D01*
X42571428Y-56207142D02*
X42785714Y-56278571D01*
X43142857Y-56278571D01*
X43285714Y-56207142D01*
X43357142Y-56135714D01*
X43428571Y-55992857D01*
X43428571Y-55850000D01*
X43357142Y-55707142D01*
X43285714Y-55635714D01*
X43142857Y-55564285D01*
X42857142Y-55492857D01*
X42714285Y-55421428D01*
X42642857Y-55350000D01*
X42571428Y-55207142D01*
X42571428Y-55064285D01*
X42642857Y-54921428D01*
X42714285Y-54850000D01*
X42857142Y-54778571D01*
X43214285Y-54778571D01*
X43428571Y-54850000D01*
X43857142Y-55278571D02*
X44428571Y-55278571D01*
X44071428Y-54778571D02*
X44071428Y-56064285D01*
X44142857Y-56207142D01*
X44285714Y-56278571D01*
X44428571Y-56278571D01*
X45571428Y-56278571D02*
X45571428Y-55492857D01*
X45500000Y-55350000D01*
X45357142Y-55278571D01*
X45071428Y-55278571D01*
X44928571Y-55350000D01*
X45571428Y-56207142D02*
X45428571Y-56278571D01*
X45071428Y-56278571D01*
X44928571Y-56207142D01*
X44857142Y-56064285D01*
X44857142Y-55921428D01*
X44928571Y-55778571D01*
X45071428Y-55707142D01*
X45428571Y-55707142D01*
X45571428Y-55635714D01*
X46285714Y-56278571D02*
X46285714Y-55278571D01*
X46285714Y-55564285D02*
X46357142Y-55421428D01*
X46428571Y-55350000D01*
X46571428Y-55278571D01*
X46714285Y-55278571D01*
X47000000Y-55278571D02*
X47571428Y-55278571D01*
X47214285Y-54778571D02*
X47214285Y-56064285D01*
X47285714Y-56207142D01*
X47428571Y-56278571D01*
X47571428Y-56278571D01*
X74500000Y-105178571D02*
X75500000Y-105178571D01*
X74500000Y-106678571D01*
X75500000Y-106678571D01*
X60000000Y-105964285D02*
X60000000Y-106678571D01*
X59500000Y-105178571D02*
X60000000Y-105964285D01*
X60500000Y-105178571D01*
X44500000Y-105178571D02*
X45500000Y-106678571D01*
X45500000Y-105178571D02*
X44500000Y-106678571D01*
X67857142Y-41050000D02*
X68571428Y-41050000D01*
X67714285Y-41478571D02*
X68214285Y-39978571D01*
X68714285Y-41478571D01*
X69857142Y-40478571D02*
X69857142Y-41478571D01*
X69214285Y-40478571D02*
X69214285Y-41264285D01*
X69285714Y-41407142D01*
X69428571Y-41478571D01*
X69642857Y-41478571D01*
X69785714Y-41407142D01*
X69857142Y-41335714D01*
X70357142Y-40478571D02*
X70928571Y-40478571D01*
X70571428Y-39978571D02*
X70571428Y-41264285D01*
X70642857Y-41407142D01*
X70785714Y-41478571D01*
X70928571Y-41478571D01*
X71642857Y-41478571D02*
X71500000Y-41407142D01*
X71428571Y-41335714D01*
X71357142Y-41192857D01*
X71357142Y-40764285D01*
X71428571Y-40621428D01*
X71500000Y-40550000D01*
X71642857Y-40478571D01*
X71857142Y-40478571D01*
X72000000Y-40550000D01*
X72071428Y-40621428D01*
X72142857Y-40764285D01*
X72142857Y-41192857D01*
X72071428Y-41335714D01*
X72000000Y-41407142D01*
X71857142Y-41478571D01*
X71642857Y-41478571D01*
X46592857Y-41478571D02*
X46592857Y-39978571D01*
X47092857Y-41050000D01*
X47592857Y-39978571D01*
X47592857Y-41478571D01*
X48950000Y-41478571D02*
X48950000Y-40692857D01*
X48878571Y-40550000D01*
X48735714Y-40478571D01*
X48450000Y-40478571D01*
X48307142Y-40550000D01*
X48950000Y-41407142D02*
X48807142Y-41478571D01*
X48450000Y-41478571D01*
X48307142Y-41407142D01*
X48235714Y-41264285D01*
X48235714Y-41121428D01*
X48307142Y-40978571D01*
X48450000Y-40907142D01*
X48807142Y-40907142D01*
X48950000Y-40835714D01*
X49664285Y-40478571D02*
X49664285Y-41478571D01*
X49664285Y-40621428D02*
X49735714Y-40550000D01*
X49878571Y-40478571D01*
X50092857Y-40478571D01*
X50235714Y-40550000D01*
X50307142Y-40692857D01*
X50307142Y-41478571D01*
X51664285Y-40478571D02*
X51664285Y-41478571D01*
X51021428Y-40478571D02*
X51021428Y-41264285D01*
X51092857Y-41407142D01*
X51235714Y-41478571D01*
X51450000Y-41478571D01*
X51592857Y-41407142D01*
X51664285Y-41335714D01*
X53021428Y-41478571D02*
X53021428Y-40692857D01*
X52950000Y-40550000D01*
X52807142Y-40478571D01*
X52521428Y-40478571D01*
X52378571Y-40550000D01*
X53021428Y-41407142D02*
X52878571Y-41478571D01*
X52521428Y-41478571D01*
X52378571Y-41407142D01*
X52307142Y-41264285D01*
X52307142Y-41121428D01*
X52378571Y-40978571D01*
X52521428Y-40907142D01*
X52878571Y-40907142D01*
X53021428Y-40835714D01*
X53950000Y-41478571D02*
X53807142Y-41407142D01*
X53735714Y-41264285D01*
X53735714Y-39978571D01*
X57066666Y-38704761D02*
X57066666Y-36704761D01*
X57733333Y-38133333D01*
X58400000Y-36704761D01*
X58400000Y-38704761D01*
X59638095Y-38704761D02*
X59447619Y-38609523D01*
X59352380Y-38514285D01*
X59257142Y-38323809D01*
X59257142Y-37752380D01*
X59352380Y-37561904D01*
X59447619Y-37466666D01*
X59638095Y-37371428D01*
X59923809Y-37371428D01*
X60114285Y-37466666D01*
X60209523Y-37561904D01*
X60304761Y-37752380D01*
X60304761Y-38323809D01*
X60209523Y-38514285D01*
X60114285Y-38609523D01*
X59923809Y-38704761D01*
X59638095Y-38704761D01*
X62019047Y-38704761D02*
X62019047Y-36704761D01*
X62019047Y-38609523D02*
X61828571Y-38704761D01*
X61447619Y-38704761D01*
X61257142Y-38609523D01*
X61161904Y-38514285D01*
X61066666Y-38323809D01*
X61066666Y-37752380D01*
X61161904Y-37561904D01*
X61257142Y-37466666D01*
X61447619Y-37371428D01*
X61828571Y-37371428D01*
X62019047Y-37466666D01*
X63733333Y-38609523D02*
X63542857Y-38704761D01*
X63161904Y-38704761D01*
X62971428Y-38609523D01*
X62876190Y-38419047D01*
X62876190Y-37657142D01*
X62971428Y-37466666D01*
X63161904Y-37371428D01*
X63542857Y-37371428D01*
X63733333Y-37466666D01*
X63828571Y-37657142D01*
X63828571Y-37847619D01*
X62876190Y-38038095D01*
X39904761Y-62095238D02*
X37904761Y-62095238D01*
X37904761Y-61333333D01*
X38000000Y-61142857D01*
X38095238Y-61047619D01*
X38285714Y-60952380D01*
X38571428Y-60952380D01*
X38761904Y-61047619D01*
X38857142Y-61142857D01*
X38952380Y-61333333D01*
X38952380Y-62095238D01*
X39904761Y-60095238D02*
X38571428Y-60095238D01*
X38952380Y-60095238D02*
X38761904Y-60000000D01*
X38666666Y-59904761D01*
X38571428Y-59714285D01*
X38571428Y-59523809D01*
X39904761Y-58857142D02*
X38571428Y-58857142D01*
X37904761Y-58857142D02*
X38000000Y-58952380D01*
X38095238Y-58857142D01*
X38000000Y-58761904D01*
X37904761Y-58857142D01*
X38095238Y-58857142D01*
X38571428Y-57904761D02*
X39904761Y-57904761D01*
X38761904Y-57904761D02*
X38666666Y-57809523D01*
X38571428Y-57619047D01*
X38571428Y-57333333D01*
X38666666Y-57142857D01*
X38857142Y-57047619D01*
X39904761Y-57047619D01*
X38571428Y-56380952D02*
X38571428Y-55619047D01*
X37904761Y-56095238D02*
X39619047Y-56095238D01*
X39809523Y-56000000D01*
X39904761Y-55809523D01*
X39904761Y-55619047D01*
X46638095Y-162657142D02*
X47304761Y-162657142D01*
X47590476Y-163704761D02*
X46638095Y-163704761D01*
X46638095Y-161704761D01*
X47590476Y-161704761D01*
X48257142Y-163704761D02*
X49304761Y-162371428D01*
X48257142Y-162371428D02*
X49304761Y-163704761D01*
X49780952Y-162371428D02*
X50542857Y-162371428D01*
X50066666Y-161704761D02*
X50066666Y-163419047D01*
X50161904Y-163609523D01*
X50352380Y-163704761D01*
X50542857Y-163704761D01*
X51209523Y-163704761D02*
X51209523Y-162371428D01*
X51209523Y-162752380D02*
X51304761Y-162561904D01*
X51400000Y-162466666D01*
X51590476Y-162371428D01*
X51780952Y-162371428D01*
X53304761Y-162371428D02*
X53304761Y-163704761D01*
X52447619Y-162371428D02*
X52447619Y-163419047D01*
X52542857Y-163609523D01*
X52733333Y-163704761D01*
X53019047Y-163704761D01*
X53209523Y-163609523D01*
X53304761Y-163514285D01*
X55114285Y-163704761D02*
X55114285Y-161704761D01*
X55114285Y-163609523D02*
X54923809Y-163704761D01*
X54542857Y-163704761D01*
X54352380Y-163609523D01*
X54257142Y-163514285D01*
X54161904Y-163323809D01*
X54161904Y-162752380D01*
X54257142Y-162561904D01*
X54352380Y-162466666D01*
X54542857Y-162371428D01*
X54923809Y-162371428D01*
X55114285Y-162466666D01*
X56828571Y-163609523D02*
X56638095Y-163704761D01*
X56257142Y-163704761D01*
X56066666Y-163609523D01*
X55971428Y-163419047D01*
X55971428Y-162657142D01*
X56066666Y-162466666D01*
X56257142Y-162371428D01*
X56638095Y-162371428D01*
X56828571Y-162466666D01*
X56923809Y-162657142D01*
X56923809Y-162847619D01*
X55971428Y-163038095D01*
X57780952Y-163704761D02*
X57780952Y-162371428D01*
X57780952Y-162752380D02*
X57876190Y-162561904D01*
X57971428Y-162466666D01*
X58161904Y-162371428D01*
X58352380Y-162371428D01*
X61685714Y-163514285D02*
X61590476Y-163609523D01*
X61304761Y-163704761D01*
X61114285Y-163704761D01*
X60828571Y-163609523D01*
X60638095Y-163419047D01*
X60542857Y-163228571D01*
X60447619Y-162847619D01*
X60447619Y-162561904D01*
X60542857Y-162180952D01*
X60638095Y-161990476D01*
X60828571Y-161800000D01*
X61114285Y-161704761D01*
X61304761Y-161704761D01*
X61590476Y-161800000D01*
X61685714Y-161895238D01*
X62828571Y-163704761D02*
X62638095Y-163609523D01*
X62542857Y-163514285D01*
X62447619Y-163323809D01*
X62447619Y-162752380D01*
X62542857Y-162561904D01*
X62638095Y-162466666D01*
X62828571Y-162371428D01*
X63114285Y-162371428D01*
X63304761Y-162466666D01*
X63400000Y-162561904D01*
X63495238Y-162752380D01*
X63495238Y-163323809D01*
X63400000Y-163514285D01*
X63304761Y-163609523D01*
X63114285Y-163704761D01*
X62828571Y-163704761D01*
X64352380Y-163704761D02*
X64352380Y-162371428D01*
X64352380Y-162561904D02*
X64447619Y-162466666D01*
X64638095Y-162371428D01*
X64923809Y-162371428D01*
X65114285Y-162466666D01*
X65209523Y-162657142D01*
X65209523Y-163704761D01*
X65209523Y-162657142D02*
X65304761Y-162466666D01*
X65495238Y-162371428D01*
X65780952Y-162371428D01*
X65971428Y-162466666D01*
X66066666Y-162657142D01*
X66066666Y-163704761D01*
X67019047Y-163704761D02*
X67019047Y-162371428D01*
X67019047Y-162561904D02*
X67114285Y-162466666D01*
X67304761Y-162371428D01*
X67590476Y-162371428D01*
X67780952Y-162466666D01*
X67876190Y-162657142D01*
X67876190Y-163704761D01*
X67876190Y-162657142D02*
X67971428Y-162466666D01*
X68161904Y-162371428D01*
X68447619Y-162371428D01*
X68638095Y-162466666D01*
X68733333Y-162657142D01*
X68733333Y-163704761D01*
X70542857Y-163704761D02*
X70542857Y-162657142D01*
X70447619Y-162466666D01*
X70257142Y-162371428D01*
X69876190Y-162371428D01*
X69685714Y-162466666D01*
X70542857Y-163609523D02*
X70352380Y-163704761D01*
X69876190Y-163704761D01*
X69685714Y-163609523D01*
X69590476Y-163419047D01*
X69590476Y-163228571D01*
X69685714Y-163038095D01*
X69876190Y-162942857D01*
X70352380Y-162942857D01*
X70542857Y-162847619D01*
X71495238Y-162371428D02*
X71495238Y-163704761D01*
X71495238Y-162561904D02*
X71590476Y-162466666D01*
X71780952Y-162371428D01*
X72066666Y-162371428D01*
X72257142Y-162466666D01*
X72352380Y-162657142D01*
X72352380Y-163704761D01*
X74161904Y-163704761D02*
X74161904Y-161704761D01*
X74161904Y-163609523D02*
X73971428Y-163704761D01*
X73590476Y-163704761D01*
X73400000Y-163609523D01*
X73304761Y-163514285D01*
X73209523Y-163323809D01*
X73209523Y-162752380D01*
X73304761Y-162561904D01*
X73400000Y-162466666D01*
X73590476Y-162371428D01*
X73971428Y-162371428D01*
X74161904Y-162466666D01*
X54285714Y-135657142D02*
X54952380Y-135657142D01*
X55238095Y-136704761D02*
X54285714Y-136704761D01*
X54285714Y-134704761D01*
X55238095Y-134704761D01*
X55904761Y-136704761D02*
X56952380Y-135371428D01*
X55904761Y-135371428D02*
X56952380Y-136704761D01*
X57428571Y-135371428D02*
X58190476Y-135371428D01*
X57714285Y-134704761D02*
X57714285Y-136419047D01*
X57809523Y-136609523D01*
X58000000Y-136704761D01*
X58190476Y-136704761D01*
X58857142Y-136704761D02*
X58857142Y-135371428D01*
X58857142Y-135752380D02*
X58952380Y-135561904D01*
X59047619Y-135466666D01*
X59238095Y-135371428D01*
X59428571Y-135371428D01*
X60952380Y-135371428D02*
X60952380Y-136704761D01*
X60095238Y-135371428D02*
X60095238Y-136419047D01*
X60190476Y-136609523D01*
X60380952Y-136704761D01*
X60666666Y-136704761D01*
X60857142Y-136609523D01*
X60952380Y-136514285D01*
X62761904Y-136704761D02*
X62761904Y-134704761D01*
X62761904Y-136609523D02*
X62571428Y-136704761D01*
X62190476Y-136704761D01*
X62000000Y-136609523D01*
X61904761Y-136514285D01*
X61809523Y-136323809D01*
X61809523Y-135752380D01*
X61904761Y-135561904D01*
X62000000Y-135466666D01*
X62190476Y-135371428D01*
X62571428Y-135371428D01*
X62761904Y-135466666D01*
X64476190Y-136609523D02*
X64285714Y-136704761D01*
X63904761Y-136704761D01*
X63714285Y-136609523D01*
X63619047Y-136419047D01*
X63619047Y-135657142D01*
X63714285Y-135466666D01*
X63904761Y-135371428D01*
X64285714Y-135371428D01*
X64476190Y-135466666D01*
X64571428Y-135657142D01*
X64571428Y-135847619D01*
X63619047Y-136038095D01*
X65428571Y-136704761D02*
X65428571Y-135371428D01*
X65428571Y-135752380D02*
X65523809Y-135561904D01*
X65619047Y-135466666D01*
X65809523Y-135371428D01*
X66000000Y-135371428D01*
X38809523Y-122695238D02*
X38904761Y-122409523D01*
X38904761Y-121933333D01*
X38809523Y-121742857D01*
X38714285Y-121647619D01*
X38523809Y-121552380D01*
X38333333Y-121552380D01*
X38142857Y-121647619D01*
X38047619Y-121742857D01*
X37952380Y-121933333D01*
X37857142Y-122314285D01*
X37761904Y-122504761D01*
X37666666Y-122600000D01*
X37476190Y-122695238D01*
X37285714Y-122695238D01*
X37095238Y-122600000D01*
X37000000Y-122504761D01*
X36904761Y-122314285D01*
X36904761Y-121838095D01*
X37000000Y-121552380D01*
X37571428Y-120695238D02*
X39571428Y-120695238D01*
X37666666Y-120695238D02*
X37571428Y-120504761D01*
X37571428Y-120123809D01*
X37666666Y-119933333D01*
X37761904Y-119838095D01*
X37952380Y-119742857D01*
X38523809Y-119742857D01*
X38714285Y-119838095D01*
X38809523Y-119933333D01*
X38904761Y-120123809D01*
X38904761Y-120504761D01*
X38809523Y-120695238D01*
X38809523Y-118123809D02*
X38904761Y-118314285D01*
X38904761Y-118695238D01*
X38809523Y-118885714D01*
X38619047Y-118980952D01*
X37857142Y-118980952D01*
X37666666Y-118885714D01*
X37571428Y-118695238D01*
X37571428Y-118314285D01*
X37666666Y-118123809D01*
X37857142Y-118028571D01*
X38047619Y-118028571D01*
X38238095Y-118980952D01*
X38809523Y-116409523D02*
X38904761Y-116600000D01*
X38904761Y-116980952D01*
X38809523Y-117171428D01*
X38619047Y-117266666D01*
X37857142Y-117266666D01*
X37666666Y-117171428D01*
X37571428Y-116980952D01*
X37571428Y-116600000D01*
X37666666Y-116409523D01*
X37857142Y-116314285D01*
X38047619Y-116314285D01*
X38238095Y-117266666D01*
X38904761Y-114600000D02*
X36904761Y-114600000D01*
X38809523Y-114600000D02*
X38904761Y-114790476D01*
X38904761Y-115171428D01*
X38809523Y-115361904D01*
X38714285Y-115457142D01*
X38523809Y-115552380D01*
X37952380Y-115552380D01*
X37761904Y-115457142D01*
X37666666Y-115361904D01*
X37571428Y-115171428D01*
X37571428Y-114790476D01*
X37666666Y-114600000D01*
X38333333Y-103971428D02*
X38333333Y-103019047D01*
X38904761Y-104161904D02*
X36904761Y-103495238D01*
X38904761Y-102828571D01*
X38904761Y-102352380D02*
X37571428Y-101304761D01*
X37571428Y-102352380D02*
X38904761Y-101304761D01*
X38904761Y-100542857D02*
X37571428Y-100542857D01*
X36904761Y-100542857D02*
X37000000Y-100638095D01*
X37095238Y-100542857D01*
X37000000Y-100447619D01*
X36904761Y-100542857D01*
X37095238Y-100542857D01*
X38809523Y-99685714D02*
X38904761Y-99495238D01*
X38904761Y-99114285D01*
X38809523Y-98923809D01*
X38619047Y-98828571D01*
X38523809Y-98828571D01*
X38333333Y-98923809D01*
X38238095Y-99114285D01*
X38238095Y-99400000D01*
X38142857Y-99590476D01*
X37952380Y-99685714D01*
X37857142Y-99685714D01*
X37666666Y-99590476D01*
X37571428Y-99400000D01*
X37571428Y-99114285D01*
X37666666Y-98923809D01*
D11*
X36000000Y-155000000D02*
X36000000Y-148000000D01*
X45000000Y-155000000D02*
X36000000Y-155000000D01*
X45000000Y-164000000D02*
X45000000Y-155000000D01*
X75000000Y-164000000D02*
X45000000Y-164000000D01*
X75000000Y-155000000D02*
X75000000Y-164000000D01*
X84000000Y-155000000D02*
X75000000Y-155000000D01*
X84000000Y-148000000D02*
X84000000Y-155000000D01*
X36000000Y-148000000D02*
X36000000Y-134000000D01*
X84000000Y-148000000D02*
X36000000Y-148000000D01*
X84000000Y-134000000D02*
X84000000Y-148000000D01*
X84000000Y-134000000D02*
X84000000Y-114000000D01*
X36000000Y-134000000D02*
X84000000Y-134000000D01*
X36000000Y-114000000D02*
X36000000Y-134000000D01*
X84000000Y-44000000D02*
X84000000Y-55000000D01*
X75000000Y-44000000D02*
X84000000Y-44000000D01*
X75000000Y-36000000D02*
X75000000Y-44000000D01*
X45000000Y-36000000D02*
X75000000Y-36000000D01*
X45000000Y-45000000D02*
X45000000Y-36000000D01*
X37000000Y-45000000D02*
X45000000Y-45000000D01*
X37000000Y-55000000D02*
X37000000Y-45000000D01*
X37000000Y-73000000D02*
X37000000Y-55000000D01*
X84000000Y-73000000D02*
X37000000Y-73000000D01*
X84000000Y-55000000D02*
X84000000Y-73000000D01*
X37000000Y-54200000D02*
X84000000Y-54200000D01*
X84000000Y-98000000D02*
X82000000Y-98000000D01*
X84000000Y-114000000D02*
X84000000Y-98000000D01*
X36000000Y-114000000D02*
X84000000Y-114000000D01*
X36000000Y-98000000D02*
X36000000Y-114000000D01*
X82000000Y-98000000D02*
X36000000Y-98000000D01*
X72261252Y-119290000D02*
X71738748Y-119290000D01*
X72261252Y-120710000D02*
X71738748Y-120710000D01*
X49739252Y-120710000D02*
X49216748Y-120710000D01*
X49739252Y-119290000D02*
X49216748Y-119290000D01*
X52290000Y-95261252D02*
X52290000Y-94738748D01*
X53710000Y-95261252D02*
X53710000Y-94738748D01*
X60261252Y-154710000D02*
X59738748Y-154710000D01*
X60261252Y-153290000D02*
X59738748Y-153290000D01*
X63710000Y-95261252D02*
X63710000Y-94738748D01*
X62290000Y-95261252D02*
X62290000Y-94738748D01*
X43710000Y-66738748D02*
X43710000Y-67261252D01*
X42290000Y-66738748D02*
X42290000Y-67261252D01*
X51290000Y-51738748D02*
X51290000Y-52261252D01*
X52710000Y-51738748D02*
X52710000Y-52261252D01*
X39710000Y-124738748D02*
X39710000Y-125261252D01*
X38290000Y-124738748D02*
X38290000Y-125261252D01*
X53710000Y-145738748D02*
X53710000Y-146261252D01*
X52290000Y-145738748D02*
X52290000Y-146261252D01*
X39710000Y-152236252D02*
X39710000Y-151713748D01*
X38290000Y-152236252D02*
X38290000Y-151713748D01*
X62710000Y-66738748D02*
X62710000Y-67261252D01*
X61290000Y-66738748D02*
X61290000Y-67261252D01*
X58290000Y-124738748D02*
X58290000Y-125261252D01*
X59710000Y-124738748D02*
X59710000Y-125261252D01*
X67290000Y-145738748D02*
X67290000Y-146261252D01*
X68710000Y-145738748D02*
X68710000Y-146261252D01*
X76710000Y-152261252D02*
X76710000Y-151738748D01*
X75290000Y-152261252D02*
X75290000Y-151738748D01*
X68710000Y-51738748D02*
X68710000Y-52261252D01*
X67290000Y-51738748D02*
X67290000Y-52261252D01*
X72290000Y-66738748D02*
X72290000Y-67261252D01*
X73710000Y-66738748D02*
X73710000Y-67261252D01*
X77200000Y-96735000D02*
X79485000Y-96735000D01*
X79485000Y-96735000D02*
X79485000Y-95265000D01*
X79485000Y-95265000D02*
X77200000Y-95265000D01*
X38921392Y-47057665D02*
G75*
G03X38764484Y-50290000I1078608J-1672335D01*
G01*
X41078608Y-47057665D02*
G75*
G02X41235516Y-50290000I-1078608J-1672335D01*
G01*
X38920163Y-47688870D02*
G75*
G03X38920000Y-49770961I1079837J-1041130D01*
G01*
X41079837Y-47688870D02*
G75*
G02X41080000Y-49770961I-1079837J-1041130D01*
G01*
X38764000Y-50290000D02*
X38920000Y-50290000D01*
X41080000Y-50290000D02*
X41236000Y-50290000D01*
X78921392Y-47057665D02*
G75*
G03X78764484Y-50290000I1078608J-1672335D01*
G01*
X81078608Y-47057665D02*
G75*
G02X81235516Y-50290000I-1078608J-1672335D01*
G01*
X78920163Y-47688870D02*
G75*
G03X78920000Y-49770961I1079837J-1041130D01*
G01*
X81079837Y-47688870D02*
G75*
G02X81080000Y-49770961I-1079837J-1041130D01*
G01*
X78764000Y-50290000D02*
X78920000Y-50290000D01*
X81080000Y-50290000D02*
X81236000Y-50290000D01*
X46080000Y-102830000D02*
X46236000Y-102830000D01*
X43764000Y-102830000D02*
X43920000Y-102830000D01*
X46079837Y-100228870D02*
G75*
G02X46080000Y-102310961I-1079837J-1041130D01*
G01*
X43920163Y-100228870D02*
G75*
G03X43920000Y-102310961I1079837J-1041130D01*
G01*
X46078608Y-99597665D02*
G75*
G02X46235516Y-102830000I-1078608J-1672335D01*
G01*
X43921392Y-99597665D02*
G75*
G03X43764484Y-102830000I1078608J-1672335D01*
G01*
X61080000Y-102790000D02*
X61236000Y-102790000D01*
X58764000Y-102790000D02*
X58920000Y-102790000D01*
X61079837Y-100188870D02*
G75*
G02X61080000Y-102270961I-1079837J-1041130D01*
G01*
X58920163Y-100188870D02*
G75*
G03X58920000Y-102270961I1079837J-1041130D01*
G01*
X61078608Y-99557665D02*
G75*
G02X61235516Y-102790000I-1078608J-1672335D01*
G01*
X58921392Y-99557665D02*
G75*
G03X58764484Y-102790000I1078608J-1672335D01*
G01*
X73921392Y-99557665D02*
G75*
G03X73764484Y-102790000I1078608J-1672335D01*
G01*
X76078608Y-99557665D02*
G75*
G02X76235516Y-102790000I-1078608J-1672335D01*
G01*
X73920163Y-100188870D02*
G75*
G03X73920000Y-102270961I1079837J-1041130D01*
G01*
X76079837Y-100188870D02*
G75*
G02X76080000Y-102270961I-1079837J-1041130D01*
G01*
X73764000Y-102790000D02*
X73920000Y-102790000D01*
X76080000Y-102790000D02*
X76236000Y-102790000D01*
X41080000Y-140290000D02*
X41236000Y-140290000D01*
X38764000Y-140290000D02*
X38920000Y-140290000D01*
X41079837Y-137688870D02*
G75*
G02X41080000Y-139770961I-1079837J-1041130D01*
G01*
X38920163Y-137688870D02*
G75*
G03X38920000Y-139770961I1079837J-1041130D01*
G01*
X41078608Y-137057665D02*
G75*
G02X41235516Y-140290000I-1078608J-1672335D01*
G01*
X38921392Y-137057665D02*
G75*
G03X38764484Y-140290000I1078608J-1672335D01*
G01*
X78921392Y-137057665D02*
G75*
G03X78764484Y-140290000I1078608J-1672335D01*
G01*
X81078608Y-137057665D02*
G75*
G02X81235516Y-140290000I-1078608J-1672335D01*
G01*
X78920163Y-137688870D02*
G75*
G03X78920000Y-139770961I1079837J-1041130D01*
G01*
X81079837Y-137688870D02*
G75*
G02X81080000Y-139770961I-1079837J-1041130D01*
G01*
X78764000Y-140290000D02*
X78920000Y-140290000D01*
X81080000Y-140290000D02*
X81236000Y-140290000D01*
X63710000Y-152741422D02*
X63710000Y-153258578D01*
X62290000Y-152741422D02*
X62290000Y-153258578D01*
X55710000Y-94738748D02*
X55710000Y-95261252D01*
X54290000Y-94738748D02*
X54290000Y-95261252D01*
X57710000Y-95261252D02*
X57710000Y-94738748D01*
X56290000Y-95261252D02*
X56290000Y-94738748D01*
X58290000Y-95261252D02*
X58290000Y-94738748D01*
X59710000Y-95261252D02*
X59710000Y-94738748D01*
X60290000Y-95261252D02*
X60290000Y-94738748D01*
X61710000Y-95261252D02*
X61710000Y-94738748D01*
X44290000Y-66738748D02*
X44290000Y-67261252D01*
X45710000Y-66738748D02*
X45710000Y-67261252D01*
X47710000Y-67261252D02*
X47710000Y-66738748D01*
X46290000Y-67261252D02*
X46290000Y-66738748D01*
X49290000Y-51738748D02*
X49290000Y-52261252D01*
X50710000Y-51738748D02*
X50710000Y-52261252D01*
X40290000Y-124738748D02*
X40290000Y-125261252D01*
X41710000Y-124738748D02*
X41710000Y-125261252D01*
X51710000Y-145738748D02*
X51710000Y-146261252D01*
X50290000Y-145738748D02*
X50290000Y-146261252D01*
X40290000Y-152261252D02*
X40290000Y-151738748D01*
X41710000Y-152261252D02*
X41710000Y-151738748D01*
X47290000Y-52261252D02*
X47290000Y-51738748D01*
X48710000Y-52261252D02*
X48710000Y-51738748D01*
X42290000Y-125261252D02*
X42290000Y-124738748D01*
X43710000Y-125261252D02*
X43710000Y-124738748D01*
X49710000Y-146261252D02*
X49710000Y-145738748D01*
X48290000Y-146261252D02*
X48290000Y-145738748D01*
X42290000Y-151738748D02*
X42290000Y-152261252D01*
X43710000Y-151738748D02*
X43710000Y-152261252D01*
X60710000Y-66738748D02*
X60710000Y-67261252D01*
X59290000Y-66738748D02*
X59290000Y-67261252D01*
X57290000Y-67261252D02*
X57290000Y-66738748D01*
X58710000Y-67261252D02*
X58710000Y-66738748D01*
X67738748Y-112710000D02*
X68261252Y-112710000D01*
X67738748Y-111290000D02*
X68261252Y-111290000D01*
X68261252Y-110710000D02*
X67738748Y-110710000D01*
X68261252Y-109290000D02*
X67738748Y-109290000D01*
X67738748Y-108710000D02*
X68261252Y-108710000D01*
X67738748Y-107290000D02*
X68261252Y-107290000D01*
X60290000Y-124738748D02*
X60290000Y-125261252D01*
X61710000Y-124738748D02*
X61710000Y-125261252D01*
X70710000Y-145738748D02*
X70710000Y-146261252D01*
X69290000Y-145738748D02*
X69290000Y-146261252D01*
X77290000Y-152261252D02*
X77290000Y-151738748D01*
X78710000Y-152261252D02*
X78710000Y-151738748D01*
X70710000Y-51738748D02*
X70710000Y-52261252D01*
X69290000Y-51738748D02*
X69290000Y-52261252D01*
X62290000Y-125261252D02*
X62290000Y-124738748D01*
X63710000Y-125261252D02*
X63710000Y-124738748D01*
X72710000Y-146261252D02*
X72710000Y-145738748D01*
X71290000Y-146261252D02*
X71290000Y-145738748D01*
X79290000Y-151738748D02*
X79290000Y-152261252D01*
X80710000Y-151738748D02*
X80710000Y-152261252D01*
X72710000Y-52261252D02*
X72710000Y-51738748D01*
X71290000Y-52261252D02*
X71290000Y-51738748D01*
X74290000Y-66738748D02*
X74290000Y-67261252D01*
X75710000Y-66738748D02*
X75710000Y-67261252D01*
X76290000Y-67261252D02*
X76290000Y-66738748D01*
X77710000Y-67261252D02*
X77710000Y-66738748D01*
X73738748Y-96710000D02*
X74261252Y-96710000D01*
X73738748Y-95290000D02*
X74261252Y-95290000D01*
X43290000Y-49261252D02*
X43290000Y-48738748D01*
X44710000Y-49261252D02*
X44710000Y-48738748D01*
X76710000Y-49261252D02*
X76710000Y-48738748D01*
X75290000Y-49261252D02*
X75290000Y-48738748D01*
X49710000Y-100713748D02*
X49710000Y-101236252D01*
X48290000Y-100713748D02*
X48290000Y-101236252D01*
X63290000Y-100738748D02*
X63290000Y-101261252D01*
X64710000Y-100738748D02*
X64710000Y-101261252D01*
X71710000Y-100738748D02*
X71710000Y-101261252D01*
X70290000Y-100738748D02*
X70290000Y-101261252D01*
X44710000Y-138261252D02*
X44710000Y-137738748D01*
X43290000Y-138261252D02*
X43290000Y-137738748D01*
X76710000Y-136738748D02*
X76710000Y-137261252D01*
X75290000Y-136738748D02*
X75290000Y-137261252D01*
X60000000Y-83000000D02*
X60000000Y-82000000D01*
X59500000Y-82500000D02*
X60500000Y-82500000D01*
X55900000Y-89700000D02*
X56200000Y-90000000D01*
X55900000Y-90300000D02*
X55900000Y-89700000D01*
X56200000Y-90000000D02*
X55900000Y-90300000D01*
X53700000Y-89200000D02*
X56200000Y-89200000D01*
X53700000Y-84400000D02*
X53700000Y-89200000D01*
X66300000Y-89200000D02*
X63500000Y-89200000D01*
X66300000Y-84300000D02*
X66300000Y-89200000D01*
X66300000Y-75800000D02*
X66300000Y-80700000D01*
X53700000Y-75800000D02*
X66300000Y-75800000D01*
X53700000Y-80700000D02*
X53700000Y-75800000D01*
X63000000Y-82500000D02*
G75*
G03X63000000Y-82500000I-3000000J0D01*
G01*
X43300000Y-62300000D02*
X43750000Y-62750000D01*
X46700000Y-62300000D02*
X46250000Y-62750000D01*
X46700000Y-57700000D02*
X46250000Y-57250000D01*
X43300000Y-57700000D02*
X43750000Y-57250000D01*
X47750000Y-59000000D02*
X47750000Y-61000000D01*
X43750000Y-62750000D02*
X46250000Y-62750000D01*
X42250000Y-59000000D02*
X42250000Y-61000000D01*
X43750000Y-57250000D02*
X46250000Y-57250000D01*
X48750000Y-42250000D02*
X51250000Y-42250000D01*
X47250000Y-44000000D02*
X47250000Y-46000000D01*
X48750000Y-47750000D02*
X51250000Y-47750000D01*
X52750000Y-44000000D02*
X52750000Y-46000000D01*
X48300000Y-42700000D02*
X48750000Y-42250000D01*
X51700000Y-42700000D02*
X51250000Y-42250000D01*
X51700000Y-47300000D02*
X51250000Y-47750000D01*
X48300000Y-47300000D02*
X48750000Y-47750000D01*
X48750000Y-122250000D02*
X51250000Y-122250000D01*
X47250000Y-124000000D02*
X47250000Y-126000000D01*
X48750000Y-127750000D02*
X51250000Y-127750000D01*
X52750000Y-124000000D02*
X52750000Y-126000000D01*
X48300000Y-122700000D02*
X48750000Y-122250000D01*
X51700000Y-122700000D02*
X51250000Y-122250000D01*
X51700000Y-127300000D02*
X51250000Y-127750000D01*
X48300000Y-127300000D02*
X48750000Y-127750000D01*
X48750000Y-137250000D02*
X51250000Y-137250000D01*
X47250000Y-139000000D02*
X47250000Y-141000000D01*
X48750000Y-142750000D02*
X51250000Y-142750000D01*
X52750000Y-139000000D02*
X52750000Y-141000000D01*
X48300000Y-137700000D02*
X48750000Y-137250000D01*
X51700000Y-137700000D02*
X51250000Y-137250000D01*
X51700000Y-142300000D02*
X51250000Y-142750000D01*
X48300000Y-142300000D02*
X48750000Y-142750000D01*
X48750000Y-152250000D02*
X51250000Y-152250000D01*
X47250000Y-154000000D02*
X47250000Y-156000000D01*
X48750000Y-157750000D02*
X51250000Y-157750000D01*
X52750000Y-154000000D02*
X52750000Y-156000000D01*
X48300000Y-152700000D02*
X48750000Y-152250000D01*
X51700000Y-152700000D02*
X51250000Y-152250000D01*
X51700000Y-157300000D02*
X51250000Y-157750000D01*
X48300000Y-157300000D02*
X48750000Y-157750000D01*
X43750000Y-107250000D02*
X46250000Y-107250000D01*
X42250000Y-109000000D02*
X42250000Y-111000000D01*
X43750000Y-112750000D02*
X46250000Y-112750000D01*
X47750000Y-109000000D02*
X47750000Y-111000000D01*
X43300000Y-107700000D02*
X43750000Y-107250000D01*
X46700000Y-107700000D02*
X46250000Y-107250000D01*
X46700000Y-112300000D02*
X46250000Y-112750000D01*
X43300000Y-112300000D02*
X43750000Y-112750000D01*
X58300000Y-112300000D02*
X58750000Y-112750000D01*
X61700000Y-112300000D02*
X61250000Y-112750000D01*
X61700000Y-107700000D02*
X61250000Y-107250000D01*
X58300000Y-107700000D02*
X58750000Y-107250000D01*
X62750000Y-109000000D02*
X62750000Y-111000000D01*
X58750000Y-112750000D02*
X61250000Y-112750000D01*
X57250000Y-109000000D02*
X57250000Y-111000000D01*
X58750000Y-107250000D02*
X61250000Y-107250000D01*
X73750000Y-107250000D02*
X76250000Y-107250000D01*
X72250000Y-109000000D02*
X72250000Y-111000000D01*
X73750000Y-112750000D02*
X76250000Y-112750000D01*
X77750000Y-109000000D02*
X77750000Y-111000000D01*
X73300000Y-107700000D02*
X73750000Y-107250000D01*
X76700000Y-107700000D02*
X76250000Y-107250000D01*
X76700000Y-112300000D02*
X76250000Y-112750000D01*
X73300000Y-112300000D02*
X73750000Y-112750000D01*
X58300000Y-62300000D02*
X58750000Y-62750000D01*
X61700000Y-62300000D02*
X61250000Y-62750000D01*
X61700000Y-57700000D02*
X61250000Y-57250000D01*
X58300000Y-57700000D02*
X58750000Y-57250000D01*
X62750000Y-59000000D02*
X62750000Y-61000000D01*
X58750000Y-62750000D02*
X61250000Y-62750000D01*
X57250000Y-59000000D02*
X57250000Y-61000000D01*
X58750000Y-57250000D02*
X61250000Y-57250000D01*
X68300000Y-127300000D02*
X68750000Y-127750000D01*
X71700000Y-127300000D02*
X71250000Y-127750000D01*
X71700000Y-122700000D02*
X71250000Y-122250000D01*
X68300000Y-122700000D02*
X68750000Y-122250000D01*
X72750000Y-124000000D02*
X72750000Y-126000000D01*
X68750000Y-127750000D02*
X71250000Y-127750000D01*
X67250000Y-124000000D02*
X67250000Y-126000000D01*
X68750000Y-122250000D02*
X71250000Y-122250000D01*
X68300000Y-142300000D02*
X68750000Y-142750000D01*
X71700000Y-142300000D02*
X71250000Y-142750000D01*
X71700000Y-137700000D02*
X71250000Y-137250000D01*
X68300000Y-137700000D02*
X68750000Y-137250000D01*
X72750000Y-139000000D02*
X72750000Y-141000000D01*
X68750000Y-142750000D02*
X71250000Y-142750000D01*
X67250000Y-139000000D02*
X67250000Y-141000000D01*
X68750000Y-137250000D02*
X71250000Y-137250000D01*
X68300000Y-157300000D02*
X68750000Y-157750000D01*
X71700000Y-157300000D02*
X71250000Y-157750000D01*
X71700000Y-152700000D02*
X71250000Y-152250000D01*
X68300000Y-152700000D02*
X68750000Y-152250000D01*
X72750000Y-154000000D02*
X72750000Y-156000000D01*
X68750000Y-157750000D02*
X71250000Y-157750000D01*
X67250000Y-154000000D02*
X67250000Y-156000000D01*
X68750000Y-152250000D02*
X71250000Y-152250000D01*
X68300000Y-47300000D02*
X68750000Y-47750000D01*
X71700000Y-47300000D02*
X71250000Y-47750000D01*
X71700000Y-42700000D02*
X71250000Y-42250000D01*
X68300000Y-42700000D02*
X68750000Y-42250000D01*
X72750000Y-44000000D02*
X72750000Y-46000000D01*
X68750000Y-47750000D02*
X71250000Y-47750000D01*
X67250000Y-44000000D02*
X67250000Y-46000000D01*
X68750000Y-42250000D02*
X71250000Y-42250000D01*
X73750000Y-57250000D02*
X76250000Y-57250000D01*
X72250000Y-59000000D02*
X72250000Y-61000000D01*
X73750000Y-62750000D02*
X76250000Y-62750000D01*
X77750000Y-59000000D02*
X77750000Y-61000000D01*
X73300000Y-57700000D02*
X73750000Y-57250000D01*
X76700000Y-57700000D02*
X76250000Y-57250000D01*
X76700000Y-62300000D02*
X76250000Y-62750000D01*
X73300000Y-62300000D02*
X73750000Y-62750000D01*
X76000000Y-94060000D02*
X77950000Y-94060000D01*
X76000000Y-94060000D02*
X74050000Y-94060000D01*
X76000000Y-83940000D02*
X77950000Y-83940000D01*
X76000000Y-83940000D02*
X72550000Y-83940000D01*
D12*
X74880952Y-120357142D02*
X74833333Y-120404761D01*
X74690476Y-120452380D01*
X74595238Y-120452380D01*
X74452380Y-120404761D01*
X74357142Y-120309523D01*
X74309523Y-120214285D01*
X74261904Y-120023809D01*
X74261904Y-119880952D01*
X74309523Y-119690476D01*
X74357142Y-119595238D01*
X74452380Y-119500000D01*
X74595238Y-119452380D01*
X74690476Y-119452380D01*
X74833333Y-119500000D01*
X74880952Y-119547619D01*
X75833333Y-120452380D02*
X75261904Y-120452380D01*
X75547619Y-120452380D02*
X75547619Y-119452380D01*
X75452380Y-119595238D01*
X75357142Y-119690476D01*
X75261904Y-119738095D01*
X76452380Y-119452380D02*
X76547619Y-119452380D01*
X76642857Y-119500000D01*
X76690476Y-119547619D01*
X76738095Y-119642857D01*
X76785714Y-119833333D01*
X76785714Y-120071428D01*
X76738095Y-120261904D01*
X76690476Y-120357142D01*
X76642857Y-120404761D01*
X76547619Y-120452380D01*
X76452380Y-120452380D01*
X76357142Y-120404761D01*
X76309523Y-120357142D01*
X76261904Y-120261904D01*
X76214285Y-120071428D01*
X76214285Y-119833333D01*
X76261904Y-119642857D01*
X76309523Y-119547619D01*
X76357142Y-119500000D01*
X76452380Y-119452380D01*
X77738095Y-120452380D02*
X77166666Y-120452380D01*
X77452380Y-120452380D02*
X77452380Y-119452380D01*
X77357142Y-119595238D01*
X77261904Y-119690476D01*
X77166666Y-119738095D01*
X48728571Y-118814285D02*
X48700000Y-118842857D01*
X48614285Y-118871428D01*
X48557142Y-118871428D01*
X48471428Y-118842857D01*
X48414285Y-118785714D01*
X48385714Y-118728571D01*
X48357142Y-118614285D01*
X48357142Y-118528571D01*
X48385714Y-118414285D01*
X48414285Y-118357142D01*
X48471428Y-118300000D01*
X48557142Y-118271428D01*
X48614285Y-118271428D01*
X48700000Y-118300000D01*
X48728571Y-118328571D01*
X49300000Y-118871428D02*
X48957142Y-118871428D01*
X49128571Y-118871428D02*
X49128571Y-118271428D01*
X49071428Y-118357142D01*
X49014285Y-118414285D01*
X48957142Y-118442857D01*
X49671428Y-118271428D02*
X49728571Y-118271428D01*
X49785714Y-118300000D01*
X49814285Y-118328571D01*
X49842857Y-118385714D01*
X49871428Y-118500000D01*
X49871428Y-118642857D01*
X49842857Y-118757142D01*
X49814285Y-118814285D01*
X49785714Y-118842857D01*
X49728571Y-118871428D01*
X49671428Y-118871428D01*
X49614285Y-118842857D01*
X49585714Y-118814285D01*
X49557142Y-118757142D01*
X49528571Y-118642857D01*
X49528571Y-118500000D01*
X49557142Y-118385714D01*
X49585714Y-118328571D01*
X49614285Y-118300000D01*
X49671428Y-118271428D01*
X50100000Y-118328571D02*
X50128571Y-118300000D01*
X50185714Y-118271428D01*
X50328571Y-118271428D01*
X50385714Y-118300000D01*
X50414285Y-118328571D01*
X50442857Y-118385714D01*
X50442857Y-118442857D01*
X50414285Y-118528571D01*
X50071428Y-118871428D01*
X50442857Y-118871428D01*
X46014285Y-95471428D02*
X46042857Y-95500000D01*
X46071428Y-95585714D01*
X46071428Y-95642857D01*
X46042857Y-95728571D01*
X45985714Y-95785714D01*
X45928571Y-95814285D01*
X45814285Y-95842857D01*
X45728571Y-95842857D01*
X45614285Y-95814285D01*
X45557142Y-95785714D01*
X45500000Y-95728571D01*
X45471428Y-95642857D01*
X45471428Y-95585714D01*
X45500000Y-95500000D01*
X45528571Y-95471428D01*
X46071428Y-94900000D02*
X46071428Y-95242857D01*
X46071428Y-95071428D02*
X45471428Y-95071428D01*
X45557142Y-95128571D01*
X45614285Y-95185714D01*
X45642857Y-95242857D01*
X45471428Y-94528571D02*
X45471428Y-94471428D01*
X45500000Y-94414285D01*
X45528571Y-94385714D01*
X45585714Y-94357142D01*
X45700000Y-94328571D01*
X45842857Y-94328571D01*
X45957142Y-94357142D01*
X46014285Y-94385714D01*
X46042857Y-94414285D01*
X46071428Y-94471428D01*
X46071428Y-94528571D01*
X46042857Y-94585714D01*
X46014285Y-94614285D01*
X45957142Y-94642857D01*
X45842857Y-94671428D01*
X45700000Y-94671428D01*
X45585714Y-94642857D01*
X45528571Y-94614285D01*
X45500000Y-94585714D01*
X45471428Y-94528571D01*
X45471428Y-94128571D02*
X45471428Y-93757142D01*
X45700000Y-93957142D01*
X45700000Y-93871428D01*
X45728571Y-93814285D01*
X45757142Y-93785714D01*
X45814285Y-93757142D01*
X45957142Y-93757142D01*
X46014285Y-93785714D01*
X46042857Y-93814285D01*
X46071428Y-93871428D01*
X46071428Y-94042857D01*
X46042857Y-94100000D01*
X46014285Y-94128571D01*
X58880952Y-156007142D02*
X58833333Y-156054761D01*
X58690476Y-156102380D01*
X58595238Y-156102380D01*
X58452380Y-156054761D01*
X58357142Y-155959523D01*
X58309523Y-155864285D01*
X58261904Y-155673809D01*
X58261904Y-155530952D01*
X58309523Y-155340476D01*
X58357142Y-155245238D01*
X58452380Y-155150000D01*
X58595238Y-155102380D01*
X58690476Y-155102380D01*
X58833333Y-155150000D01*
X58880952Y-155197619D01*
X59833333Y-156102380D02*
X59261904Y-156102380D01*
X59547619Y-156102380D02*
X59547619Y-155102380D01*
X59452380Y-155245238D01*
X59357142Y-155340476D01*
X59261904Y-155388095D01*
X60452380Y-155102380D02*
X60547619Y-155102380D01*
X60642857Y-155150000D01*
X60690476Y-155197619D01*
X60738095Y-155292857D01*
X60785714Y-155483333D01*
X60785714Y-155721428D01*
X60738095Y-155911904D01*
X60690476Y-156007142D01*
X60642857Y-156054761D01*
X60547619Y-156102380D01*
X60452380Y-156102380D01*
X60357142Y-156054761D01*
X60309523Y-156007142D01*
X60261904Y-155911904D01*
X60214285Y-155721428D01*
X60214285Y-155483333D01*
X60261904Y-155292857D01*
X60309523Y-155197619D01*
X60357142Y-155150000D01*
X60452380Y-155102380D01*
X61642857Y-155435714D02*
X61642857Y-156102380D01*
X61404761Y-155054761D02*
X61166666Y-155769047D01*
X61785714Y-155769047D01*
X51014285Y-95471428D02*
X51042857Y-95500000D01*
X51071428Y-95585714D01*
X51071428Y-95642857D01*
X51042857Y-95728571D01*
X50985714Y-95785714D01*
X50928571Y-95814285D01*
X50814285Y-95842857D01*
X50728571Y-95842857D01*
X50614285Y-95814285D01*
X50557142Y-95785714D01*
X50500000Y-95728571D01*
X50471428Y-95642857D01*
X50471428Y-95585714D01*
X50500000Y-95500000D01*
X50528571Y-95471428D01*
X51071428Y-94900000D02*
X51071428Y-95242857D01*
X51071428Y-95071428D02*
X50471428Y-95071428D01*
X50557142Y-95128571D01*
X50614285Y-95185714D01*
X50642857Y-95242857D01*
X50471428Y-94528571D02*
X50471428Y-94471428D01*
X50500000Y-94414285D01*
X50528571Y-94385714D01*
X50585714Y-94357142D01*
X50700000Y-94328571D01*
X50842857Y-94328571D01*
X50957142Y-94357142D01*
X51014285Y-94385714D01*
X51042857Y-94414285D01*
X51071428Y-94471428D01*
X51071428Y-94528571D01*
X51042857Y-94585714D01*
X51014285Y-94614285D01*
X50957142Y-94642857D01*
X50842857Y-94671428D01*
X50700000Y-94671428D01*
X50585714Y-94642857D01*
X50528571Y-94614285D01*
X50500000Y-94585714D01*
X50471428Y-94528571D01*
X50471428Y-93785714D02*
X50471428Y-94071428D01*
X50757142Y-94100000D01*
X50728571Y-94071428D01*
X50700000Y-94014285D01*
X50700000Y-93871428D01*
X50728571Y-93814285D01*
X50757142Y-93785714D01*
X50814285Y-93757142D01*
X50957142Y-93757142D01*
X51014285Y-93785714D01*
X51042857Y-93814285D01*
X51071428Y-93871428D01*
X51071428Y-94014285D01*
X51042857Y-94071428D01*
X51014285Y-94100000D01*
X43357142Y-71919047D02*
X43404761Y-71966666D01*
X43452380Y-72109523D01*
X43452380Y-72204761D01*
X43404761Y-72347619D01*
X43309523Y-72442857D01*
X43214285Y-72490476D01*
X43023809Y-72538095D01*
X42880952Y-72538095D01*
X42690476Y-72490476D01*
X42595238Y-72442857D01*
X42500000Y-72347619D01*
X42452380Y-72204761D01*
X42452380Y-72109523D01*
X42500000Y-71966666D01*
X42547619Y-71919047D01*
X42547619Y-71538095D02*
X42500000Y-71490476D01*
X42452380Y-71395238D01*
X42452380Y-71157142D01*
X42500000Y-71061904D01*
X42547619Y-71014285D01*
X42642857Y-70966666D01*
X42738095Y-70966666D01*
X42880952Y-71014285D01*
X43452380Y-71585714D01*
X43452380Y-70966666D01*
X42452380Y-70347619D02*
X42452380Y-70252380D01*
X42500000Y-70157142D01*
X42547619Y-70109523D01*
X42642857Y-70061904D01*
X42833333Y-70014285D01*
X43071428Y-70014285D01*
X43261904Y-70061904D01*
X43357142Y-70109523D01*
X43404761Y-70157142D01*
X43452380Y-70252380D01*
X43452380Y-70347619D01*
X43404761Y-70442857D01*
X43357142Y-70490476D01*
X43261904Y-70538095D01*
X43071428Y-70585714D01*
X42833333Y-70585714D01*
X42642857Y-70538095D01*
X42547619Y-70490476D01*
X42500000Y-70442857D01*
X42452380Y-70347619D01*
X43452380Y-69061904D02*
X43452380Y-69633333D01*
X43452380Y-69347619D02*
X42452380Y-69347619D01*
X42595238Y-69442857D01*
X42690476Y-69538095D01*
X42738095Y-69633333D01*
X53864285Y-52671428D02*
X53892857Y-52700000D01*
X53921428Y-52785714D01*
X53921428Y-52842857D01*
X53892857Y-52928571D01*
X53835714Y-52985714D01*
X53778571Y-53014285D01*
X53664285Y-53042857D01*
X53578571Y-53042857D01*
X53464285Y-53014285D01*
X53407142Y-52985714D01*
X53350000Y-52928571D01*
X53321428Y-52842857D01*
X53321428Y-52785714D01*
X53350000Y-52700000D01*
X53378571Y-52671428D01*
X53378571Y-52442857D02*
X53350000Y-52414285D01*
X53321428Y-52357142D01*
X53321428Y-52214285D01*
X53350000Y-52157142D01*
X53378571Y-52128571D01*
X53435714Y-52100000D01*
X53492857Y-52100000D01*
X53578571Y-52128571D01*
X53921428Y-52471428D01*
X53921428Y-52100000D01*
X53321428Y-51728571D02*
X53321428Y-51671428D01*
X53350000Y-51614285D01*
X53378571Y-51585714D01*
X53435714Y-51557142D01*
X53550000Y-51528571D01*
X53692857Y-51528571D01*
X53807142Y-51557142D01*
X53864285Y-51585714D01*
X53892857Y-51614285D01*
X53921428Y-51671428D01*
X53921428Y-51728571D01*
X53892857Y-51785714D01*
X53864285Y-51814285D01*
X53807142Y-51842857D01*
X53692857Y-51871428D01*
X53550000Y-51871428D01*
X53435714Y-51842857D01*
X53378571Y-51814285D01*
X53350000Y-51785714D01*
X53321428Y-51728571D01*
X53378571Y-51300000D02*
X53350000Y-51271428D01*
X53321428Y-51214285D01*
X53321428Y-51071428D01*
X53350000Y-51014285D01*
X53378571Y-50985714D01*
X53435714Y-50957142D01*
X53492857Y-50957142D01*
X53578571Y-50985714D01*
X53921428Y-51328571D01*
X53921428Y-50957142D01*
X37557142Y-126119047D02*
X37604761Y-126166666D01*
X37652380Y-126309523D01*
X37652380Y-126404761D01*
X37604761Y-126547619D01*
X37509523Y-126642857D01*
X37414285Y-126690476D01*
X37223809Y-126738095D01*
X37080952Y-126738095D01*
X36890476Y-126690476D01*
X36795238Y-126642857D01*
X36700000Y-126547619D01*
X36652380Y-126404761D01*
X36652380Y-126309523D01*
X36700000Y-126166666D01*
X36747619Y-126119047D01*
X36747619Y-125738095D02*
X36700000Y-125690476D01*
X36652380Y-125595238D01*
X36652380Y-125357142D01*
X36700000Y-125261904D01*
X36747619Y-125214285D01*
X36842857Y-125166666D01*
X36938095Y-125166666D01*
X37080952Y-125214285D01*
X37652380Y-125785714D01*
X37652380Y-125166666D01*
X36652380Y-124547619D02*
X36652380Y-124452380D01*
X36700000Y-124357142D01*
X36747619Y-124309523D01*
X36842857Y-124261904D01*
X37033333Y-124214285D01*
X37271428Y-124214285D01*
X37461904Y-124261904D01*
X37557142Y-124309523D01*
X37604761Y-124357142D01*
X37652380Y-124452380D01*
X37652380Y-124547619D01*
X37604761Y-124642857D01*
X37557142Y-124690476D01*
X37461904Y-124738095D01*
X37271428Y-124785714D01*
X37033333Y-124785714D01*
X36842857Y-124738095D01*
X36747619Y-124690476D01*
X36700000Y-124642857D01*
X36652380Y-124547619D01*
X36652380Y-123880952D02*
X36652380Y-123261904D01*
X37033333Y-123595238D01*
X37033333Y-123452380D01*
X37080952Y-123357142D01*
X37128571Y-123309523D01*
X37223809Y-123261904D01*
X37461904Y-123261904D01*
X37557142Y-123309523D01*
X37604761Y-123357142D01*
X37652380Y-123452380D01*
X37652380Y-123738095D01*
X37604761Y-123833333D01*
X37557142Y-123880952D01*
X54814285Y-145871428D02*
X54842857Y-145900000D01*
X54871428Y-145985714D01*
X54871428Y-146042857D01*
X54842857Y-146128571D01*
X54785714Y-146185714D01*
X54728571Y-146214285D01*
X54614285Y-146242857D01*
X54528571Y-146242857D01*
X54414285Y-146214285D01*
X54357142Y-146185714D01*
X54300000Y-146128571D01*
X54271428Y-146042857D01*
X54271428Y-145985714D01*
X54300000Y-145900000D01*
X54328571Y-145871428D01*
X54328571Y-145642857D02*
X54300000Y-145614285D01*
X54271428Y-145557142D01*
X54271428Y-145414285D01*
X54300000Y-145357142D01*
X54328571Y-145328571D01*
X54385714Y-145300000D01*
X54442857Y-145300000D01*
X54528571Y-145328571D01*
X54871428Y-145671428D01*
X54871428Y-145300000D01*
X54271428Y-144928571D02*
X54271428Y-144871428D01*
X54300000Y-144814285D01*
X54328571Y-144785714D01*
X54385714Y-144757142D01*
X54500000Y-144728571D01*
X54642857Y-144728571D01*
X54757142Y-144757142D01*
X54814285Y-144785714D01*
X54842857Y-144814285D01*
X54871428Y-144871428D01*
X54871428Y-144928571D01*
X54842857Y-144985714D01*
X54814285Y-145014285D01*
X54757142Y-145042857D01*
X54642857Y-145071428D01*
X54500000Y-145071428D01*
X54385714Y-145042857D01*
X54328571Y-145014285D01*
X54300000Y-144985714D01*
X54271428Y-144928571D01*
X54471428Y-144214285D02*
X54871428Y-144214285D01*
X54242857Y-144357142D02*
X54671428Y-144500000D01*
X54671428Y-144128571D01*
X37564285Y-152646428D02*
X37592857Y-152675000D01*
X37621428Y-152760714D01*
X37621428Y-152817857D01*
X37592857Y-152903571D01*
X37535714Y-152960714D01*
X37478571Y-152989285D01*
X37364285Y-153017857D01*
X37278571Y-153017857D01*
X37164285Y-152989285D01*
X37107142Y-152960714D01*
X37050000Y-152903571D01*
X37021428Y-152817857D01*
X37021428Y-152760714D01*
X37050000Y-152675000D01*
X37078571Y-152646428D01*
X37078571Y-152417857D02*
X37050000Y-152389285D01*
X37021428Y-152332142D01*
X37021428Y-152189285D01*
X37050000Y-152132142D01*
X37078571Y-152103571D01*
X37135714Y-152075000D01*
X37192857Y-152075000D01*
X37278571Y-152103571D01*
X37621428Y-152446428D01*
X37621428Y-152075000D01*
X37021428Y-151703571D02*
X37021428Y-151646428D01*
X37050000Y-151589285D01*
X37078571Y-151560714D01*
X37135714Y-151532142D01*
X37250000Y-151503571D01*
X37392857Y-151503571D01*
X37507142Y-151532142D01*
X37564285Y-151560714D01*
X37592857Y-151589285D01*
X37621428Y-151646428D01*
X37621428Y-151703571D01*
X37592857Y-151760714D01*
X37564285Y-151789285D01*
X37507142Y-151817857D01*
X37392857Y-151846428D01*
X37250000Y-151846428D01*
X37135714Y-151817857D01*
X37078571Y-151789285D01*
X37050000Y-151760714D01*
X37021428Y-151703571D01*
X37021428Y-150960714D02*
X37021428Y-151246428D01*
X37307142Y-151275000D01*
X37278571Y-151246428D01*
X37250000Y-151189285D01*
X37250000Y-151046428D01*
X37278571Y-150989285D01*
X37307142Y-150960714D01*
X37364285Y-150932142D01*
X37507142Y-150932142D01*
X37564285Y-150960714D01*
X37592857Y-150989285D01*
X37621428Y-151046428D01*
X37621428Y-151189285D01*
X37592857Y-151246428D01*
X37564285Y-151275000D01*
X62357142Y-72119047D02*
X62404761Y-72166666D01*
X62452380Y-72309523D01*
X62452380Y-72404761D01*
X62404761Y-72547619D01*
X62309523Y-72642857D01*
X62214285Y-72690476D01*
X62023809Y-72738095D01*
X61880952Y-72738095D01*
X61690476Y-72690476D01*
X61595238Y-72642857D01*
X61500000Y-72547619D01*
X61452380Y-72404761D01*
X61452380Y-72309523D01*
X61500000Y-72166666D01*
X61547619Y-72119047D01*
X61547619Y-71738095D02*
X61500000Y-71690476D01*
X61452380Y-71595238D01*
X61452380Y-71357142D01*
X61500000Y-71261904D01*
X61547619Y-71214285D01*
X61642857Y-71166666D01*
X61738095Y-71166666D01*
X61880952Y-71214285D01*
X62452380Y-71785714D01*
X62452380Y-71166666D01*
X61452380Y-70547619D02*
X61452380Y-70452380D01*
X61500000Y-70357142D01*
X61547619Y-70309523D01*
X61642857Y-70261904D01*
X61833333Y-70214285D01*
X62071428Y-70214285D01*
X62261904Y-70261904D01*
X62357142Y-70309523D01*
X62404761Y-70357142D01*
X62452380Y-70452380D01*
X62452380Y-70547619D01*
X62404761Y-70642857D01*
X62357142Y-70690476D01*
X62261904Y-70738095D01*
X62071428Y-70785714D01*
X61833333Y-70785714D01*
X61642857Y-70738095D01*
X61547619Y-70690476D01*
X61500000Y-70642857D01*
X61452380Y-70547619D01*
X61452380Y-69357142D02*
X61452380Y-69547619D01*
X61500000Y-69642857D01*
X61547619Y-69690476D01*
X61690476Y-69785714D01*
X61880952Y-69833333D01*
X62261904Y-69833333D01*
X62357142Y-69785714D01*
X62404761Y-69738095D01*
X62452380Y-69642857D01*
X62452380Y-69452380D01*
X62404761Y-69357142D01*
X62357142Y-69309523D01*
X62261904Y-69261904D01*
X62023809Y-69261904D01*
X61928571Y-69309523D01*
X61880952Y-69357142D01*
X61833333Y-69452380D01*
X61833333Y-69642857D01*
X61880952Y-69738095D01*
X61928571Y-69785714D01*
X62023809Y-69833333D01*
X57414285Y-125671428D02*
X57442857Y-125700000D01*
X57471428Y-125785714D01*
X57471428Y-125842857D01*
X57442857Y-125928571D01*
X57385714Y-125985714D01*
X57328571Y-126014285D01*
X57214285Y-126042857D01*
X57128571Y-126042857D01*
X57014285Y-126014285D01*
X56957142Y-125985714D01*
X56900000Y-125928571D01*
X56871428Y-125842857D01*
X56871428Y-125785714D01*
X56900000Y-125700000D01*
X56928571Y-125671428D01*
X56928571Y-125442857D02*
X56900000Y-125414285D01*
X56871428Y-125357142D01*
X56871428Y-125214285D01*
X56900000Y-125157142D01*
X56928571Y-125128571D01*
X56985714Y-125100000D01*
X57042857Y-125100000D01*
X57128571Y-125128571D01*
X57471428Y-125471428D01*
X57471428Y-125100000D01*
X56871428Y-124728571D02*
X56871428Y-124671428D01*
X56900000Y-124614285D01*
X56928571Y-124585714D01*
X56985714Y-124557142D01*
X57100000Y-124528571D01*
X57242857Y-124528571D01*
X57357142Y-124557142D01*
X57414285Y-124585714D01*
X57442857Y-124614285D01*
X57471428Y-124671428D01*
X57471428Y-124728571D01*
X57442857Y-124785714D01*
X57414285Y-124814285D01*
X57357142Y-124842857D01*
X57242857Y-124871428D01*
X57100000Y-124871428D01*
X56985714Y-124842857D01*
X56928571Y-124814285D01*
X56900000Y-124785714D01*
X56871428Y-124728571D01*
X56871428Y-124328571D02*
X56871428Y-123928571D01*
X57471428Y-124185714D01*
X66614285Y-145871428D02*
X66642857Y-145900000D01*
X66671428Y-145985714D01*
X66671428Y-146042857D01*
X66642857Y-146128571D01*
X66585714Y-146185714D01*
X66528571Y-146214285D01*
X66414285Y-146242857D01*
X66328571Y-146242857D01*
X66214285Y-146214285D01*
X66157142Y-146185714D01*
X66100000Y-146128571D01*
X66071428Y-146042857D01*
X66071428Y-145985714D01*
X66100000Y-145900000D01*
X66128571Y-145871428D01*
X66128571Y-145642857D02*
X66100000Y-145614285D01*
X66071428Y-145557142D01*
X66071428Y-145414285D01*
X66100000Y-145357142D01*
X66128571Y-145328571D01*
X66185714Y-145300000D01*
X66242857Y-145300000D01*
X66328571Y-145328571D01*
X66671428Y-145671428D01*
X66671428Y-145300000D01*
X66071428Y-144928571D02*
X66071428Y-144871428D01*
X66100000Y-144814285D01*
X66128571Y-144785714D01*
X66185714Y-144757142D01*
X66300000Y-144728571D01*
X66442857Y-144728571D01*
X66557142Y-144757142D01*
X66614285Y-144785714D01*
X66642857Y-144814285D01*
X66671428Y-144871428D01*
X66671428Y-144928571D01*
X66642857Y-144985714D01*
X66614285Y-145014285D01*
X66557142Y-145042857D01*
X66442857Y-145071428D01*
X66300000Y-145071428D01*
X66185714Y-145042857D01*
X66128571Y-145014285D01*
X66100000Y-144985714D01*
X66071428Y-144928571D01*
X66328571Y-144385714D02*
X66300000Y-144442857D01*
X66271428Y-144471428D01*
X66214285Y-144500000D01*
X66185714Y-144500000D01*
X66128571Y-144471428D01*
X66100000Y-144442857D01*
X66071428Y-144385714D01*
X66071428Y-144271428D01*
X66100000Y-144214285D01*
X66128571Y-144185714D01*
X66185714Y-144157142D01*
X66214285Y-144157142D01*
X66271428Y-144185714D01*
X66300000Y-144214285D01*
X66328571Y-144271428D01*
X66328571Y-144385714D01*
X66357142Y-144442857D01*
X66385714Y-144471428D01*
X66442857Y-144500000D01*
X66557142Y-144500000D01*
X66614285Y-144471428D01*
X66642857Y-144442857D01*
X66671428Y-144385714D01*
X66671428Y-144271428D01*
X66642857Y-144214285D01*
X66614285Y-144185714D01*
X66557142Y-144157142D01*
X66442857Y-144157142D01*
X66385714Y-144185714D01*
X66357142Y-144214285D01*
X66328571Y-144271428D01*
X74728571Y-149814285D02*
X74700000Y-149842857D01*
X74614285Y-149871428D01*
X74557142Y-149871428D01*
X74471428Y-149842857D01*
X74414285Y-149785714D01*
X74385714Y-149728571D01*
X74357142Y-149614285D01*
X74357142Y-149528571D01*
X74385714Y-149414285D01*
X74414285Y-149357142D01*
X74471428Y-149300000D01*
X74557142Y-149271428D01*
X74614285Y-149271428D01*
X74700000Y-149300000D01*
X74728571Y-149328571D01*
X74957142Y-149328571D02*
X74985714Y-149300000D01*
X75042857Y-149271428D01*
X75185714Y-149271428D01*
X75242857Y-149300000D01*
X75271428Y-149328571D01*
X75300000Y-149385714D01*
X75300000Y-149442857D01*
X75271428Y-149528571D01*
X74928571Y-149871428D01*
X75300000Y-149871428D01*
X75671428Y-149271428D02*
X75728571Y-149271428D01*
X75785714Y-149300000D01*
X75814285Y-149328571D01*
X75842857Y-149385714D01*
X75871428Y-149500000D01*
X75871428Y-149642857D01*
X75842857Y-149757142D01*
X75814285Y-149814285D01*
X75785714Y-149842857D01*
X75728571Y-149871428D01*
X75671428Y-149871428D01*
X75614285Y-149842857D01*
X75585714Y-149814285D01*
X75557142Y-149757142D01*
X75528571Y-149642857D01*
X75528571Y-149500000D01*
X75557142Y-149385714D01*
X75585714Y-149328571D01*
X75614285Y-149300000D01*
X75671428Y-149271428D01*
X76157142Y-149871428D02*
X76271428Y-149871428D01*
X76328571Y-149842857D01*
X76357142Y-149814285D01*
X76414285Y-149728571D01*
X76442857Y-149614285D01*
X76442857Y-149385714D01*
X76414285Y-149328571D01*
X76385714Y-149300000D01*
X76328571Y-149271428D01*
X76214285Y-149271428D01*
X76157142Y-149300000D01*
X76128571Y-149328571D01*
X76100000Y-149385714D01*
X76100000Y-149528571D01*
X76128571Y-149585714D01*
X76157142Y-149614285D01*
X76214285Y-149642857D01*
X76328571Y-149642857D01*
X76385714Y-149614285D01*
X76414285Y-149585714D01*
X76442857Y-149528571D01*
X66414285Y-52671428D02*
X66442857Y-52700000D01*
X66471428Y-52785714D01*
X66471428Y-52842857D01*
X66442857Y-52928571D01*
X66385714Y-52985714D01*
X66328571Y-53014285D01*
X66214285Y-53042857D01*
X66128571Y-53042857D01*
X66014285Y-53014285D01*
X65957142Y-52985714D01*
X65900000Y-52928571D01*
X65871428Y-52842857D01*
X65871428Y-52785714D01*
X65900000Y-52700000D01*
X65928571Y-52671428D01*
X65928571Y-52442857D02*
X65900000Y-52414285D01*
X65871428Y-52357142D01*
X65871428Y-52214285D01*
X65900000Y-52157142D01*
X65928571Y-52128571D01*
X65985714Y-52100000D01*
X66042857Y-52100000D01*
X66128571Y-52128571D01*
X66471428Y-52471428D01*
X66471428Y-52100000D01*
X66471428Y-51528571D02*
X66471428Y-51871428D01*
X66471428Y-51700000D02*
X65871428Y-51700000D01*
X65957142Y-51757142D01*
X66014285Y-51814285D01*
X66042857Y-51871428D01*
X65871428Y-51157142D02*
X65871428Y-51100000D01*
X65900000Y-51042857D01*
X65928571Y-51014285D01*
X65985714Y-50985714D01*
X66100000Y-50957142D01*
X66242857Y-50957142D01*
X66357142Y-50985714D01*
X66414285Y-51014285D01*
X66442857Y-51042857D01*
X66471428Y-51100000D01*
X66471428Y-51157142D01*
X66442857Y-51214285D01*
X66414285Y-51242857D01*
X66357142Y-51271428D01*
X66242857Y-51300000D01*
X66100000Y-51300000D01*
X65985714Y-51271428D01*
X65928571Y-51242857D01*
X65900000Y-51214285D01*
X65871428Y-51157142D01*
X73357142Y-71919047D02*
X73404761Y-71966666D01*
X73452380Y-72109523D01*
X73452380Y-72204761D01*
X73404761Y-72347619D01*
X73309523Y-72442857D01*
X73214285Y-72490476D01*
X73023809Y-72538095D01*
X72880952Y-72538095D01*
X72690476Y-72490476D01*
X72595238Y-72442857D01*
X72500000Y-72347619D01*
X72452380Y-72204761D01*
X72452380Y-72109523D01*
X72500000Y-71966666D01*
X72547619Y-71919047D01*
X72547619Y-71538095D02*
X72500000Y-71490476D01*
X72452380Y-71395238D01*
X72452380Y-71157142D01*
X72500000Y-71061904D01*
X72547619Y-71014285D01*
X72642857Y-70966666D01*
X72738095Y-70966666D01*
X72880952Y-71014285D01*
X73452380Y-71585714D01*
X73452380Y-70966666D01*
X73452380Y-70014285D02*
X73452380Y-70585714D01*
X73452380Y-70300000D02*
X72452380Y-70300000D01*
X72595238Y-70395238D01*
X72690476Y-70490476D01*
X72738095Y-70585714D01*
X73452380Y-69061904D02*
X73452380Y-69633333D01*
X73452380Y-69347619D02*
X72452380Y-69347619D01*
X72595238Y-69442857D01*
X72690476Y-69538095D01*
X72738095Y-69633333D01*
X80109523Y-96252380D02*
X80109523Y-95252380D01*
X80347619Y-95252380D01*
X80490476Y-95300000D01*
X80585714Y-95395238D01*
X80633333Y-95490476D01*
X80680952Y-95680952D01*
X80680952Y-95823809D01*
X80633333Y-96014285D01*
X80585714Y-96109523D01*
X80490476Y-96204761D01*
X80347619Y-96252380D01*
X80109523Y-96252380D01*
X81014285Y-95252380D02*
X81633333Y-95252380D01*
X81300000Y-95633333D01*
X81442857Y-95633333D01*
X81538095Y-95680952D01*
X81585714Y-95728571D01*
X81633333Y-95823809D01*
X81633333Y-96061904D01*
X81585714Y-96157142D01*
X81538095Y-96204761D01*
X81442857Y-96252380D01*
X81157142Y-96252380D01*
X81061904Y-96204761D01*
X81014285Y-96157142D01*
X82252380Y-95252380D02*
X82347619Y-95252380D01*
X82442857Y-95300000D01*
X82490476Y-95347619D01*
X82538095Y-95442857D01*
X82585714Y-95633333D01*
X82585714Y-95871428D01*
X82538095Y-96061904D01*
X82490476Y-96157142D01*
X82442857Y-96204761D01*
X82347619Y-96252380D01*
X82252380Y-96252380D01*
X82157142Y-96204761D01*
X82109523Y-96157142D01*
X82061904Y-96061904D01*
X82014285Y-95871428D01*
X82014285Y-95633333D01*
X82061904Y-95442857D01*
X82109523Y-95347619D01*
X82157142Y-95300000D01*
X82252380Y-95252380D01*
X83538095Y-96252380D02*
X82966666Y-96252380D01*
X83252380Y-96252380D02*
X83252380Y-95252380D01*
X83157142Y-95395238D01*
X83061904Y-95490476D01*
X82966666Y-95538095D01*
X38985714Y-52271428D02*
X38985714Y-51671428D01*
X39128571Y-51671428D01*
X39214285Y-51700000D01*
X39271428Y-51757142D01*
X39300000Y-51814285D01*
X39328571Y-51928571D01*
X39328571Y-52014285D01*
X39300000Y-52128571D01*
X39271428Y-52185714D01*
X39214285Y-52242857D01*
X39128571Y-52271428D01*
X38985714Y-52271428D01*
X39528571Y-51671428D02*
X39900000Y-51671428D01*
X39700000Y-51900000D01*
X39785714Y-51900000D01*
X39842857Y-51928571D01*
X39871428Y-51957142D01*
X39900000Y-52014285D01*
X39900000Y-52157142D01*
X39871428Y-52214285D01*
X39842857Y-52242857D01*
X39785714Y-52271428D01*
X39614285Y-52271428D01*
X39557142Y-52242857D01*
X39528571Y-52214285D01*
X40271428Y-51671428D02*
X40328571Y-51671428D01*
X40385714Y-51700000D01*
X40414285Y-51728571D01*
X40442857Y-51785714D01*
X40471428Y-51900000D01*
X40471428Y-52042857D01*
X40442857Y-52157142D01*
X40414285Y-52214285D01*
X40385714Y-52242857D01*
X40328571Y-52271428D01*
X40271428Y-52271428D01*
X40214285Y-52242857D01*
X40185714Y-52214285D01*
X40157142Y-52157142D01*
X40128571Y-52042857D01*
X40128571Y-51900000D01*
X40157142Y-51785714D01*
X40185714Y-51728571D01*
X40214285Y-51700000D01*
X40271428Y-51671428D01*
X40700000Y-51728571D02*
X40728571Y-51700000D01*
X40785714Y-51671428D01*
X40928571Y-51671428D01*
X40985714Y-51700000D01*
X41014285Y-51728571D01*
X41042857Y-51785714D01*
X41042857Y-51842857D01*
X41014285Y-51928571D01*
X40671428Y-52271428D01*
X41042857Y-52271428D01*
X83471428Y-49814285D02*
X82871428Y-49814285D01*
X82871428Y-49671428D01*
X82900000Y-49585714D01*
X82957142Y-49528571D01*
X83014285Y-49500000D01*
X83128571Y-49471428D01*
X83214285Y-49471428D01*
X83328571Y-49500000D01*
X83385714Y-49528571D01*
X83442857Y-49585714D01*
X83471428Y-49671428D01*
X83471428Y-49814285D01*
X82871428Y-49271428D02*
X82871428Y-48900000D01*
X83100000Y-49100000D01*
X83100000Y-49014285D01*
X83128571Y-48957142D01*
X83157142Y-48928571D01*
X83214285Y-48900000D01*
X83357142Y-48900000D01*
X83414285Y-48928571D01*
X83442857Y-48957142D01*
X83471428Y-49014285D01*
X83471428Y-49185714D01*
X83442857Y-49242857D01*
X83414285Y-49271428D01*
X82871428Y-48528571D02*
X82871428Y-48471428D01*
X82900000Y-48414285D01*
X82928571Y-48385714D01*
X82985714Y-48357142D01*
X83100000Y-48328571D01*
X83242857Y-48328571D01*
X83357142Y-48357142D01*
X83414285Y-48385714D01*
X83442857Y-48414285D01*
X83471428Y-48471428D01*
X83471428Y-48528571D01*
X83442857Y-48585714D01*
X83414285Y-48614285D01*
X83357142Y-48642857D01*
X83242857Y-48671428D01*
X83100000Y-48671428D01*
X82985714Y-48642857D01*
X82928571Y-48614285D01*
X82900000Y-48585714D01*
X82871428Y-48528571D01*
X82871428Y-48128571D02*
X82871428Y-47757142D01*
X83100000Y-47957142D01*
X83100000Y-47871428D01*
X83128571Y-47814285D01*
X83157142Y-47785714D01*
X83214285Y-47757142D01*
X83357142Y-47757142D01*
X83414285Y-47785714D01*
X83442857Y-47814285D01*
X83471428Y-47871428D01*
X83471428Y-48042857D01*
X83442857Y-48100000D01*
X83414285Y-48128571D01*
X42492380Y-102960476D02*
X41492380Y-102960476D01*
X41492380Y-102722380D01*
X41540000Y-102579523D01*
X41635238Y-102484285D01*
X41730476Y-102436666D01*
X41920952Y-102389047D01*
X42063809Y-102389047D01*
X42254285Y-102436666D01*
X42349523Y-102484285D01*
X42444761Y-102579523D01*
X42492380Y-102722380D01*
X42492380Y-102960476D01*
X41492380Y-102055714D02*
X41492380Y-101436666D01*
X41873333Y-101770000D01*
X41873333Y-101627142D01*
X41920952Y-101531904D01*
X41968571Y-101484285D01*
X42063809Y-101436666D01*
X42301904Y-101436666D01*
X42397142Y-101484285D01*
X42444761Y-101531904D01*
X42492380Y-101627142D01*
X42492380Y-101912857D01*
X42444761Y-102008095D01*
X42397142Y-102055714D01*
X41492380Y-100817619D02*
X41492380Y-100722380D01*
X41540000Y-100627142D01*
X41587619Y-100579523D01*
X41682857Y-100531904D01*
X41873333Y-100484285D01*
X42111428Y-100484285D01*
X42301904Y-100531904D01*
X42397142Y-100579523D01*
X42444761Y-100627142D01*
X42492380Y-100722380D01*
X42492380Y-100817619D01*
X42444761Y-100912857D01*
X42397142Y-100960476D01*
X42301904Y-101008095D01*
X42111428Y-101055714D01*
X41873333Y-101055714D01*
X41682857Y-101008095D01*
X41587619Y-100960476D01*
X41540000Y-100912857D01*
X41492380Y-100817619D01*
X41825714Y-99627142D02*
X42492380Y-99627142D01*
X41444761Y-99865238D02*
X42159047Y-100103333D01*
X42159047Y-99484285D01*
X57492380Y-102920476D02*
X56492380Y-102920476D01*
X56492380Y-102682380D01*
X56540000Y-102539523D01*
X56635238Y-102444285D01*
X56730476Y-102396666D01*
X56920952Y-102349047D01*
X57063809Y-102349047D01*
X57254285Y-102396666D01*
X57349523Y-102444285D01*
X57444761Y-102539523D01*
X57492380Y-102682380D01*
X57492380Y-102920476D01*
X56492380Y-102015714D02*
X56492380Y-101396666D01*
X56873333Y-101730000D01*
X56873333Y-101587142D01*
X56920952Y-101491904D01*
X56968571Y-101444285D01*
X57063809Y-101396666D01*
X57301904Y-101396666D01*
X57397142Y-101444285D01*
X57444761Y-101491904D01*
X57492380Y-101587142D01*
X57492380Y-101872857D01*
X57444761Y-101968095D01*
X57397142Y-102015714D01*
X56492380Y-100777619D02*
X56492380Y-100682380D01*
X56540000Y-100587142D01*
X56587619Y-100539523D01*
X56682857Y-100491904D01*
X56873333Y-100444285D01*
X57111428Y-100444285D01*
X57301904Y-100491904D01*
X57397142Y-100539523D01*
X57444761Y-100587142D01*
X57492380Y-100682380D01*
X57492380Y-100777619D01*
X57444761Y-100872857D01*
X57397142Y-100920476D01*
X57301904Y-100968095D01*
X57111428Y-101015714D01*
X56873333Y-101015714D01*
X56682857Y-100968095D01*
X56587619Y-100920476D01*
X56540000Y-100872857D01*
X56492380Y-100777619D01*
X56492380Y-99539523D02*
X56492380Y-100015714D01*
X56968571Y-100063333D01*
X56920952Y-100015714D01*
X56873333Y-99920476D01*
X56873333Y-99682380D01*
X56920952Y-99587142D01*
X56968571Y-99539523D01*
X57063809Y-99491904D01*
X57301904Y-99491904D01*
X57397142Y-99539523D01*
X57444761Y-99587142D01*
X57492380Y-99682380D01*
X57492380Y-99920476D01*
X57444761Y-100015714D01*
X57397142Y-100063333D01*
X78652380Y-102890476D02*
X77652380Y-102890476D01*
X77652380Y-102652380D01*
X77700000Y-102509523D01*
X77795238Y-102414285D01*
X77890476Y-102366666D01*
X78080952Y-102319047D01*
X78223809Y-102319047D01*
X78414285Y-102366666D01*
X78509523Y-102414285D01*
X78604761Y-102509523D01*
X78652380Y-102652380D01*
X78652380Y-102890476D01*
X77652380Y-101985714D02*
X77652380Y-101366666D01*
X78033333Y-101700000D01*
X78033333Y-101557142D01*
X78080952Y-101461904D01*
X78128571Y-101414285D01*
X78223809Y-101366666D01*
X78461904Y-101366666D01*
X78557142Y-101414285D01*
X78604761Y-101461904D01*
X78652380Y-101557142D01*
X78652380Y-101842857D01*
X78604761Y-101938095D01*
X78557142Y-101985714D01*
X77652380Y-100747619D02*
X77652380Y-100652380D01*
X77700000Y-100557142D01*
X77747619Y-100509523D01*
X77842857Y-100461904D01*
X78033333Y-100414285D01*
X78271428Y-100414285D01*
X78461904Y-100461904D01*
X78557142Y-100509523D01*
X78604761Y-100557142D01*
X78652380Y-100652380D01*
X78652380Y-100747619D01*
X78604761Y-100842857D01*
X78557142Y-100890476D01*
X78461904Y-100938095D01*
X78271428Y-100985714D01*
X78033333Y-100985714D01*
X77842857Y-100938095D01*
X77747619Y-100890476D01*
X77700000Y-100842857D01*
X77652380Y-100747619D01*
X77652380Y-99557142D02*
X77652380Y-99747619D01*
X77700000Y-99842857D01*
X77747619Y-99890476D01*
X77890476Y-99985714D01*
X78080952Y-100033333D01*
X78461904Y-100033333D01*
X78557142Y-99985714D01*
X78604761Y-99938095D01*
X78652380Y-99842857D01*
X78652380Y-99652380D01*
X78604761Y-99557142D01*
X78557142Y-99509523D01*
X78461904Y-99461904D01*
X78223809Y-99461904D01*
X78128571Y-99509523D01*
X78080952Y-99557142D01*
X78033333Y-99652380D01*
X78033333Y-99842857D01*
X78080952Y-99938095D01*
X78128571Y-99985714D01*
X78223809Y-100033333D01*
X37492380Y-140420476D02*
X36492380Y-140420476D01*
X36492380Y-140182380D01*
X36540000Y-140039523D01*
X36635238Y-139944285D01*
X36730476Y-139896666D01*
X36920952Y-139849047D01*
X37063809Y-139849047D01*
X37254285Y-139896666D01*
X37349523Y-139944285D01*
X37444761Y-140039523D01*
X37492380Y-140182380D01*
X37492380Y-140420476D01*
X36492380Y-139515714D02*
X36492380Y-138896666D01*
X36873333Y-139230000D01*
X36873333Y-139087142D01*
X36920952Y-138991904D01*
X36968571Y-138944285D01*
X37063809Y-138896666D01*
X37301904Y-138896666D01*
X37397142Y-138944285D01*
X37444761Y-138991904D01*
X37492380Y-139087142D01*
X37492380Y-139372857D01*
X37444761Y-139468095D01*
X37397142Y-139515714D01*
X36492380Y-138277619D02*
X36492380Y-138182380D01*
X36540000Y-138087142D01*
X36587619Y-138039523D01*
X36682857Y-137991904D01*
X36873333Y-137944285D01*
X37111428Y-137944285D01*
X37301904Y-137991904D01*
X37397142Y-138039523D01*
X37444761Y-138087142D01*
X37492380Y-138182380D01*
X37492380Y-138277619D01*
X37444761Y-138372857D01*
X37397142Y-138420476D01*
X37301904Y-138468095D01*
X37111428Y-138515714D01*
X36873333Y-138515714D01*
X36682857Y-138468095D01*
X36587619Y-138420476D01*
X36540000Y-138372857D01*
X36492380Y-138277619D01*
X36492380Y-137610952D02*
X36492380Y-136944285D01*
X37492380Y-137372857D01*
X83452380Y-140290476D02*
X82452380Y-140290476D01*
X82452380Y-140052380D01*
X82500000Y-139909523D01*
X82595238Y-139814285D01*
X82690476Y-139766666D01*
X82880952Y-139719047D01*
X83023809Y-139719047D01*
X83214285Y-139766666D01*
X83309523Y-139814285D01*
X83404761Y-139909523D01*
X83452380Y-140052380D01*
X83452380Y-140290476D01*
X82452380Y-139385714D02*
X82452380Y-138766666D01*
X82833333Y-139100000D01*
X82833333Y-138957142D01*
X82880952Y-138861904D01*
X82928571Y-138814285D01*
X83023809Y-138766666D01*
X83261904Y-138766666D01*
X83357142Y-138814285D01*
X83404761Y-138861904D01*
X83452380Y-138957142D01*
X83452380Y-139242857D01*
X83404761Y-139338095D01*
X83357142Y-139385714D01*
X82452380Y-138147619D02*
X82452380Y-138052380D01*
X82500000Y-137957142D01*
X82547619Y-137909523D01*
X82642857Y-137861904D01*
X82833333Y-137814285D01*
X83071428Y-137814285D01*
X83261904Y-137861904D01*
X83357142Y-137909523D01*
X83404761Y-137957142D01*
X83452380Y-138052380D01*
X83452380Y-138147619D01*
X83404761Y-138242857D01*
X83357142Y-138290476D01*
X83261904Y-138338095D01*
X83071428Y-138385714D01*
X82833333Y-138385714D01*
X82642857Y-138338095D01*
X82547619Y-138290476D01*
X82500000Y-138242857D01*
X82452380Y-138147619D01*
X82880952Y-137242857D02*
X82833333Y-137338095D01*
X82785714Y-137385714D01*
X82690476Y-137433333D01*
X82642857Y-137433333D01*
X82547619Y-137385714D01*
X82500000Y-137338095D01*
X82452380Y-137242857D01*
X82452380Y-137052380D01*
X82500000Y-136957142D01*
X82547619Y-136909523D01*
X82642857Y-136861904D01*
X82690476Y-136861904D01*
X82785714Y-136909523D01*
X82833333Y-136957142D01*
X82880952Y-137052380D01*
X82880952Y-137242857D01*
X82928571Y-137338095D01*
X82976190Y-137385714D01*
X83071428Y-137433333D01*
X83261904Y-137433333D01*
X83357142Y-137385714D01*
X83404761Y-137338095D01*
X83452380Y-137242857D01*
X83452380Y-137052380D01*
X83404761Y-136957142D01*
X83357142Y-136909523D01*
X83261904Y-136861904D01*
X83071428Y-136861904D01*
X82976190Y-136909523D01*
X82928571Y-136957142D01*
X82880952Y-137052380D01*
X64578571Y-154785714D02*
X64578571Y-155119047D01*
X65102380Y-155119047D02*
X64102380Y-155119047D01*
X64102380Y-154642857D01*
X64578571Y-153928571D02*
X64626190Y-153785714D01*
X64673809Y-153738095D01*
X64769047Y-153690476D01*
X64911904Y-153690476D01*
X65007142Y-153738095D01*
X65054761Y-153785714D01*
X65102380Y-153880952D01*
X65102380Y-154261904D01*
X64102380Y-154261904D01*
X64102380Y-153928571D01*
X64150000Y-153833333D01*
X64197619Y-153785714D01*
X64292857Y-153738095D01*
X64388095Y-153738095D01*
X64483333Y-153785714D01*
X64530952Y-153833333D01*
X64578571Y-153928571D01*
X64578571Y-154261904D01*
X65102380Y-152738095D02*
X65102380Y-153309523D01*
X65102380Y-153023809D02*
X64102380Y-153023809D01*
X64245238Y-153119047D01*
X64340476Y-153214285D01*
X64388095Y-153309523D01*
X64102380Y-152119047D02*
X64102380Y-152023809D01*
X64150000Y-151928571D01*
X64197619Y-151880952D01*
X64292857Y-151833333D01*
X64483333Y-151785714D01*
X64721428Y-151785714D01*
X64911904Y-151833333D01*
X65007142Y-151880952D01*
X65054761Y-151928571D01*
X65102380Y-152023809D01*
X65102380Y-152119047D01*
X65054761Y-152214285D01*
X65007142Y-152261904D01*
X64911904Y-152309523D01*
X64721428Y-152357142D01*
X64483333Y-152357142D01*
X64292857Y-152309523D01*
X64197619Y-152261904D01*
X64150000Y-152214285D01*
X64102380Y-152119047D01*
X65102380Y-150833333D02*
X65102380Y-151404761D01*
X65102380Y-151119047D02*
X64102380Y-151119047D01*
X64245238Y-151214285D01*
X64340476Y-151309523D01*
X64388095Y-151404761D01*
X47071428Y-95471428D02*
X46785714Y-95671428D01*
X47071428Y-95814285D02*
X46471428Y-95814285D01*
X46471428Y-95585714D01*
X46500000Y-95528571D01*
X46528571Y-95500000D01*
X46585714Y-95471428D01*
X46671428Y-95471428D01*
X46728571Y-95500000D01*
X46757142Y-95528571D01*
X46785714Y-95585714D01*
X46785714Y-95814285D01*
X47071428Y-94900000D02*
X47071428Y-95242857D01*
X47071428Y-95071428D02*
X46471428Y-95071428D01*
X46557142Y-95128571D01*
X46614285Y-95185714D01*
X46642857Y-95242857D01*
X46471428Y-94528571D02*
X46471428Y-94471428D01*
X46500000Y-94414285D01*
X46528571Y-94385714D01*
X46585714Y-94357142D01*
X46700000Y-94328571D01*
X46842857Y-94328571D01*
X46957142Y-94357142D01*
X47014285Y-94385714D01*
X47042857Y-94414285D01*
X47071428Y-94471428D01*
X47071428Y-94528571D01*
X47042857Y-94585714D01*
X47014285Y-94614285D01*
X46957142Y-94642857D01*
X46842857Y-94671428D01*
X46700000Y-94671428D01*
X46585714Y-94642857D01*
X46528571Y-94614285D01*
X46500000Y-94585714D01*
X46471428Y-94528571D01*
X47071428Y-93757142D02*
X47071428Y-94100000D01*
X47071428Y-93928571D02*
X46471428Y-93928571D01*
X46557142Y-93985714D01*
X46614285Y-94042857D01*
X46642857Y-94100000D01*
X48071428Y-95471428D02*
X47785714Y-95671428D01*
X48071428Y-95814285D02*
X47471428Y-95814285D01*
X47471428Y-95585714D01*
X47500000Y-95528571D01*
X47528571Y-95500000D01*
X47585714Y-95471428D01*
X47671428Y-95471428D01*
X47728571Y-95500000D01*
X47757142Y-95528571D01*
X47785714Y-95585714D01*
X47785714Y-95814285D01*
X48071428Y-94900000D02*
X48071428Y-95242857D01*
X48071428Y-95071428D02*
X47471428Y-95071428D01*
X47557142Y-95128571D01*
X47614285Y-95185714D01*
X47642857Y-95242857D01*
X47471428Y-94528571D02*
X47471428Y-94471428D01*
X47500000Y-94414285D01*
X47528571Y-94385714D01*
X47585714Y-94357142D01*
X47700000Y-94328571D01*
X47842857Y-94328571D01*
X47957142Y-94357142D01*
X48014285Y-94385714D01*
X48042857Y-94414285D01*
X48071428Y-94471428D01*
X48071428Y-94528571D01*
X48042857Y-94585714D01*
X48014285Y-94614285D01*
X47957142Y-94642857D01*
X47842857Y-94671428D01*
X47700000Y-94671428D01*
X47585714Y-94642857D01*
X47528571Y-94614285D01*
X47500000Y-94585714D01*
X47471428Y-94528571D01*
X47528571Y-94100000D02*
X47500000Y-94071428D01*
X47471428Y-94014285D01*
X47471428Y-93871428D01*
X47500000Y-93814285D01*
X47528571Y-93785714D01*
X47585714Y-93757142D01*
X47642857Y-93757142D01*
X47728571Y-93785714D01*
X48071428Y-94128571D01*
X48071428Y-93757142D01*
X49071428Y-95471428D02*
X48785714Y-95671428D01*
X49071428Y-95814285D02*
X48471428Y-95814285D01*
X48471428Y-95585714D01*
X48500000Y-95528571D01*
X48528571Y-95500000D01*
X48585714Y-95471428D01*
X48671428Y-95471428D01*
X48728571Y-95500000D01*
X48757142Y-95528571D01*
X48785714Y-95585714D01*
X48785714Y-95814285D01*
X49071428Y-94900000D02*
X49071428Y-95242857D01*
X49071428Y-95071428D02*
X48471428Y-95071428D01*
X48557142Y-95128571D01*
X48614285Y-95185714D01*
X48642857Y-95242857D01*
X48471428Y-94528571D02*
X48471428Y-94471428D01*
X48500000Y-94414285D01*
X48528571Y-94385714D01*
X48585714Y-94357142D01*
X48700000Y-94328571D01*
X48842857Y-94328571D01*
X48957142Y-94357142D01*
X49014285Y-94385714D01*
X49042857Y-94414285D01*
X49071428Y-94471428D01*
X49071428Y-94528571D01*
X49042857Y-94585714D01*
X49014285Y-94614285D01*
X48957142Y-94642857D01*
X48842857Y-94671428D01*
X48700000Y-94671428D01*
X48585714Y-94642857D01*
X48528571Y-94614285D01*
X48500000Y-94585714D01*
X48471428Y-94528571D01*
X48471428Y-94128571D02*
X48471428Y-93757142D01*
X48700000Y-93957142D01*
X48700000Y-93871428D01*
X48728571Y-93814285D01*
X48757142Y-93785714D01*
X48814285Y-93757142D01*
X48957142Y-93757142D01*
X49014285Y-93785714D01*
X49042857Y-93814285D01*
X49071428Y-93871428D01*
X49071428Y-94042857D01*
X49042857Y-94100000D01*
X49014285Y-94128571D01*
X50071428Y-95471428D02*
X49785714Y-95671428D01*
X50071428Y-95814285D02*
X49471428Y-95814285D01*
X49471428Y-95585714D01*
X49500000Y-95528571D01*
X49528571Y-95500000D01*
X49585714Y-95471428D01*
X49671428Y-95471428D01*
X49728571Y-95500000D01*
X49757142Y-95528571D01*
X49785714Y-95585714D01*
X49785714Y-95814285D01*
X50071428Y-94900000D02*
X50071428Y-95242857D01*
X50071428Y-95071428D02*
X49471428Y-95071428D01*
X49557142Y-95128571D01*
X49614285Y-95185714D01*
X49642857Y-95242857D01*
X49471428Y-94528571D02*
X49471428Y-94471428D01*
X49500000Y-94414285D01*
X49528571Y-94385714D01*
X49585714Y-94357142D01*
X49700000Y-94328571D01*
X49842857Y-94328571D01*
X49957142Y-94357142D01*
X50014285Y-94385714D01*
X50042857Y-94414285D01*
X50071428Y-94471428D01*
X50071428Y-94528571D01*
X50042857Y-94585714D01*
X50014285Y-94614285D01*
X49957142Y-94642857D01*
X49842857Y-94671428D01*
X49700000Y-94671428D01*
X49585714Y-94642857D01*
X49528571Y-94614285D01*
X49500000Y-94585714D01*
X49471428Y-94528571D01*
X49671428Y-93814285D02*
X50071428Y-93814285D01*
X49442857Y-93957142D02*
X49871428Y-94100000D01*
X49871428Y-93728571D01*
X45452380Y-71919047D02*
X44976190Y-72252380D01*
X45452380Y-72490476D02*
X44452380Y-72490476D01*
X44452380Y-72109523D01*
X44500000Y-72014285D01*
X44547619Y-71966666D01*
X44642857Y-71919047D01*
X44785714Y-71919047D01*
X44880952Y-71966666D01*
X44928571Y-72014285D01*
X44976190Y-72109523D01*
X44976190Y-72490476D01*
X44547619Y-71538095D02*
X44500000Y-71490476D01*
X44452380Y-71395238D01*
X44452380Y-71157142D01*
X44500000Y-71061904D01*
X44547619Y-71014285D01*
X44642857Y-70966666D01*
X44738095Y-70966666D01*
X44880952Y-71014285D01*
X45452380Y-71585714D01*
X45452380Y-70966666D01*
X44452380Y-70347619D02*
X44452380Y-70252380D01*
X44500000Y-70157142D01*
X44547619Y-70109523D01*
X44642857Y-70061904D01*
X44833333Y-70014285D01*
X45071428Y-70014285D01*
X45261904Y-70061904D01*
X45357142Y-70109523D01*
X45404761Y-70157142D01*
X45452380Y-70252380D01*
X45452380Y-70347619D01*
X45404761Y-70442857D01*
X45357142Y-70490476D01*
X45261904Y-70538095D01*
X45071428Y-70585714D01*
X44833333Y-70585714D01*
X44642857Y-70538095D01*
X44547619Y-70490476D01*
X44500000Y-70442857D01*
X44452380Y-70347619D01*
X45452380Y-69061904D02*
X45452380Y-69633333D01*
X45452380Y-69347619D02*
X44452380Y-69347619D01*
X44595238Y-69442857D01*
X44690476Y-69538095D01*
X44738095Y-69633333D01*
X47452380Y-71919047D02*
X46976190Y-72252380D01*
X47452380Y-72490476D02*
X46452380Y-72490476D01*
X46452380Y-72109523D01*
X46500000Y-72014285D01*
X46547619Y-71966666D01*
X46642857Y-71919047D01*
X46785714Y-71919047D01*
X46880952Y-71966666D01*
X46928571Y-72014285D01*
X46976190Y-72109523D01*
X46976190Y-72490476D01*
X46547619Y-71538095D02*
X46500000Y-71490476D01*
X46452380Y-71395238D01*
X46452380Y-71157142D01*
X46500000Y-71061904D01*
X46547619Y-71014285D01*
X46642857Y-70966666D01*
X46738095Y-70966666D01*
X46880952Y-71014285D01*
X47452380Y-71585714D01*
X47452380Y-70966666D01*
X46452380Y-70347619D02*
X46452380Y-70252380D01*
X46500000Y-70157142D01*
X46547619Y-70109523D01*
X46642857Y-70061904D01*
X46833333Y-70014285D01*
X47071428Y-70014285D01*
X47261904Y-70061904D01*
X47357142Y-70109523D01*
X47404761Y-70157142D01*
X47452380Y-70252380D01*
X47452380Y-70347619D01*
X47404761Y-70442857D01*
X47357142Y-70490476D01*
X47261904Y-70538095D01*
X47071428Y-70585714D01*
X46833333Y-70585714D01*
X46642857Y-70538095D01*
X46547619Y-70490476D01*
X46500000Y-70442857D01*
X46452380Y-70347619D01*
X46547619Y-69633333D02*
X46500000Y-69585714D01*
X46452380Y-69490476D01*
X46452380Y-69252380D01*
X46500000Y-69157142D01*
X46547619Y-69109523D01*
X46642857Y-69061904D01*
X46738095Y-69061904D01*
X46880952Y-69109523D01*
X47452380Y-69680952D01*
X47452380Y-69061904D01*
X49328571Y-49871428D02*
X49128571Y-49585714D01*
X48985714Y-49871428D02*
X48985714Y-49271428D01*
X49214285Y-49271428D01*
X49271428Y-49300000D01*
X49300000Y-49328571D01*
X49328571Y-49385714D01*
X49328571Y-49471428D01*
X49300000Y-49528571D01*
X49271428Y-49557142D01*
X49214285Y-49585714D01*
X48985714Y-49585714D01*
X49557142Y-49328571D02*
X49585714Y-49300000D01*
X49642857Y-49271428D01*
X49785714Y-49271428D01*
X49842857Y-49300000D01*
X49871428Y-49328571D01*
X49900000Y-49385714D01*
X49900000Y-49442857D01*
X49871428Y-49528571D01*
X49528571Y-49871428D01*
X49900000Y-49871428D01*
X50271428Y-49271428D02*
X50328571Y-49271428D01*
X50385714Y-49300000D01*
X50414285Y-49328571D01*
X50442857Y-49385714D01*
X50471428Y-49500000D01*
X50471428Y-49642857D01*
X50442857Y-49757142D01*
X50414285Y-49814285D01*
X50385714Y-49842857D01*
X50328571Y-49871428D01*
X50271428Y-49871428D01*
X50214285Y-49842857D01*
X50185714Y-49814285D01*
X50157142Y-49757142D01*
X50128571Y-49642857D01*
X50128571Y-49500000D01*
X50157142Y-49385714D01*
X50185714Y-49328571D01*
X50214285Y-49300000D01*
X50271428Y-49271428D01*
X50671428Y-49271428D02*
X51042857Y-49271428D01*
X50842857Y-49500000D01*
X50928571Y-49500000D01*
X50985714Y-49528571D01*
X51014285Y-49557142D01*
X51042857Y-49614285D01*
X51042857Y-49757142D01*
X51014285Y-49814285D01*
X50985714Y-49842857D01*
X50928571Y-49871428D01*
X50757142Y-49871428D01*
X50700000Y-49842857D01*
X50671428Y-49814285D01*
X41452380Y-130119047D02*
X40976190Y-130452380D01*
X41452380Y-130690476D02*
X40452380Y-130690476D01*
X40452380Y-130309523D01*
X40500000Y-130214285D01*
X40547619Y-130166666D01*
X40642857Y-130119047D01*
X40785714Y-130119047D01*
X40880952Y-130166666D01*
X40928571Y-130214285D01*
X40976190Y-130309523D01*
X40976190Y-130690476D01*
X40547619Y-129738095D02*
X40500000Y-129690476D01*
X40452380Y-129595238D01*
X40452380Y-129357142D01*
X40500000Y-129261904D01*
X40547619Y-129214285D01*
X40642857Y-129166666D01*
X40738095Y-129166666D01*
X40880952Y-129214285D01*
X41452380Y-129785714D01*
X41452380Y-129166666D01*
X40452380Y-128547619D02*
X40452380Y-128452380D01*
X40500000Y-128357142D01*
X40547619Y-128309523D01*
X40642857Y-128261904D01*
X40833333Y-128214285D01*
X41071428Y-128214285D01*
X41261904Y-128261904D01*
X41357142Y-128309523D01*
X41404761Y-128357142D01*
X41452380Y-128452380D01*
X41452380Y-128547619D01*
X41404761Y-128642857D01*
X41357142Y-128690476D01*
X41261904Y-128738095D01*
X41071428Y-128785714D01*
X40833333Y-128785714D01*
X40642857Y-128738095D01*
X40547619Y-128690476D01*
X40500000Y-128642857D01*
X40452380Y-128547619D01*
X40785714Y-127357142D02*
X41452380Y-127357142D01*
X40404761Y-127595238D02*
X41119047Y-127833333D01*
X41119047Y-127214285D01*
X50328571Y-143871428D02*
X50128571Y-143585714D01*
X49985714Y-143871428D02*
X49985714Y-143271428D01*
X50214285Y-143271428D01*
X50271428Y-143300000D01*
X50300000Y-143328571D01*
X50328571Y-143385714D01*
X50328571Y-143471428D01*
X50300000Y-143528571D01*
X50271428Y-143557142D01*
X50214285Y-143585714D01*
X49985714Y-143585714D01*
X50557142Y-143328571D02*
X50585714Y-143300000D01*
X50642857Y-143271428D01*
X50785714Y-143271428D01*
X50842857Y-143300000D01*
X50871428Y-143328571D01*
X50900000Y-143385714D01*
X50900000Y-143442857D01*
X50871428Y-143528571D01*
X50528571Y-143871428D01*
X50900000Y-143871428D01*
X51271428Y-143271428D02*
X51328571Y-143271428D01*
X51385714Y-143300000D01*
X51414285Y-143328571D01*
X51442857Y-143385714D01*
X51471428Y-143500000D01*
X51471428Y-143642857D01*
X51442857Y-143757142D01*
X51414285Y-143814285D01*
X51385714Y-143842857D01*
X51328571Y-143871428D01*
X51271428Y-143871428D01*
X51214285Y-143842857D01*
X51185714Y-143814285D01*
X51157142Y-143757142D01*
X51128571Y-143642857D01*
X51128571Y-143500000D01*
X51157142Y-143385714D01*
X51185714Y-143328571D01*
X51214285Y-143300000D01*
X51271428Y-143271428D01*
X52014285Y-143271428D02*
X51728571Y-143271428D01*
X51700000Y-143557142D01*
X51728571Y-143528571D01*
X51785714Y-143500000D01*
X51928571Y-143500000D01*
X51985714Y-143528571D01*
X52014285Y-143557142D01*
X52042857Y-143614285D01*
X52042857Y-143757142D01*
X52014285Y-143814285D01*
X51985714Y-143842857D01*
X51928571Y-143871428D01*
X51785714Y-143871428D01*
X51728571Y-143842857D01*
X51700000Y-143814285D01*
X40328571Y-149871428D02*
X40128571Y-149585714D01*
X39985714Y-149871428D02*
X39985714Y-149271428D01*
X40214285Y-149271428D01*
X40271428Y-149300000D01*
X40300000Y-149328571D01*
X40328571Y-149385714D01*
X40328571Y-149471428D01*
X40300000Y-149528571D01*
X40271428Y-149557142D01*
X40214285Y-149585714D01*
X39985714Y-149585714D01*
X40557142Y-149328571D02*
X40585714Y-149300000D01*
X40642857Y-149271428D01*
X40785714Y-149271428D01*
X40842857Y-149300000D01*
X40871428Y-149328571D01*
X40900000Y-149385714D01*
X40900000Y-149442857D01*
X40871428Y-149528571D01*
X40528571Y-149871428D01*
X40900000Y-149871428D01*
X41271428Y-149271428D02*
X41328571Y-149271428D01*
X41385714Y-149300000D01*
X41414285Y-149328571D01*
X41442857Y-149385714D01*
X41471428Y-149500000D01*
X41471428Y-149642857D01*
X41442857Y-149757142D01*
X41414285Y-149814285D01*
X41385714Y-149842857D01*
X41328571Y-149871428D01*
X41271428Y-149871428D01*
X41214285Y-149842857D01*
X41185714Y-149814285D01*
X41157142Y-149757142D01*
X41128571Y-149642857D01*
X41128571Y-149500000D01*
X41157142Y-149385714D01*
X41185714Y-149328571D01*
X41214285Y-149300000D01*
X41271428Y-149271428D01*
X41985714Y-149271428D02*
X41871428Y-149271428D01*
X41814285Y-149300000D01*
X41785714Y-149328571D01*
X41728571Y-149414285D01*
X41700000Y-149528571D01*
X41700000Y-149757142D01*
X41728571Y-149814285D01*
X41757142Y-149842857D01*
X41814285Y-149871428D01*
X41928571Y-149871428D01*
X41985714Y-149842857D01*
X42014285Y-149814285D01*
X42042857Y-149757142D01*
X42042857Y-149614285D01*
X42014285Y-149557142D01*
X41985714Y-149528571D01*
X41928571Y-149500000D01*
X41814285Y-149500000D01*
X41757142Y-149528571D01*
X41728571Y-149557142D01*
X41700000Y-149614285D01*
X46471428Y-52671428D02*
X46185714Y-52871428D01*
X46471428Y-53014285D02*
X45871428Y-53014285D01*
X45871428Y-52785714D01*
X45900000Y-52728571D01*
X45928571Y-52700000D01*
X45985714Y-52671428D01*
X46071428Y-52671428D01*
X46128571Y-52700000D01*
X46157142Y-52728571D01*
X46185714Y-52785714D01*
X46185714Y-53014285D01*
X45928571Y-52442857D02*
X45900000Y-52414285D01*
X45871428Y-52357142D01*
X45871428Y-52214285D01*
X45900000Y-52157142D01*
X45928571Y-52128571D01*
X45985714Y-52100000D01*
X46042857Y-52100000D01*
X46128571Y-52128571D01*
X46471428Y-52471428D01*
X46471428Y-52100000D01*
X45871428Y-51728571D02*
X45871428Y-51671428D01*
X45900000Y-51614285D01*
X45928571Y-51585714D01*
X45985714Y-51557142D01*
X46100000Y-51528571D01*
X46242857Y-51528571D01*
X46357142Y-51557142D01*
X46414285Y-51585714D01*
X46442857Y-51614285D01*
X46471428Y-51671428D01*
X46471428Y-51728571D01*
X46442857Y-51785714D01*
X46414285Y-51814285D01*
X46357142Y-51842857D01*
X46242857Y-51871428D01*
X46100000Y-51871428D01*
X45985714Y-51842857D01*
X45928571Y-51814285D01*
X45900000Y-51785714D01*
X45871428Y-51728571D01*
X45871428Y-51328571D02*
X45871428Y-50928571D01*
X46471428Y-51185714D01*
X45252380Y-126119047D02*
X44776190Y-126452380D01*
X45252380Y-126690476D02*
X44252380Y-126690476D01*
X44252380Y-126309523D01*
X44300000Y-126214285D01*
X44347619Y-126166666D01*
X44442857Y-126119047D01*
X44585714Y-126119047D01*
X44680952Y-126166666D01*
X44728571Y-126214285D01*
X44776190Y-126309523D01*
X44776190Y-126690476D01*
X44347619Y-125738095D02*
X44300000Y-125690476D01*
X44252380Y-125595238D01*
X44252380Y-125357142D01*
X44300000Y-125261904D01*
X44347619Y-125214285D01*
X44442857Y-125166666D01*
X44538095Y-125166666D01*
X44680952Y-125214285D01*
X45252380Y-125785714D01*
X45252380Y-125166666D01*
X44252380Y-124547619D02*
X44252380Y-124452380D01*
X44300000Y-124357142D01*
X44347619Y-124309523D01*
X44442857Y-124261904D01*
X44633333Y-124214285D01*
X44871428Y-124214285D01*
X45061904Y-124261904D01*
X45157142Y-124309523D01*
X45204761Y-124357142D01*
X45252380Y-124452380D01*
X45252380Y-124547619D01*
X45204761Y-124642857D01*
X45157142Y-124690476D01*
X45061904Y-124738095D01*
X44871428Y-124785714D01*
X44633333Y-124785714D01*
X44442857Y-124738095D01*
X44347619Y-124690476D01*
X44300000Y-124642857D01*
X44252380Y-124547619D01*
X44680952Y-123642857D02*
X44633333Y-123738095D01*
X44585714Y-123785714D01*
X44490476Y-123833333D01*
X44442857Y-123833333D01*
X44347619Y-123785714D01*
X44300000Y-123738095D01*
X44252380Y-123642857D01*
X44252380Y-123452380D01*
X44300000Y-123357142D01*
X44347619Y-123309523D01*
X44442857Y-123261904D01*
X44490476Y-123261904D01*
X44585714Y-123309523D01*
X44633333Y-123357142D01*
X44680952Y-123452380D01*
X44680952Y-123642857D01*
X44728571Y-123738095D01*
X44776190Y-123785714D01*
X44871428Y-123833333D01*
X45061904Y-123833333D01*
X45157142Y-123785714D01*
X45204761Y-123738095D01*
X45252380Y-123642857D01*
X45252380Y-123452380D01*
X45204761Y-123357142D01*
X45157142Y-123309523D01*
X45061904Y-123261904D01*
X44871428Y-123261904D01*
X44776190Y-123309523D01*
X44728571Y-123357142D01*
X44680952Y-123452380D01*
X47671428Y-145871428D02*
X47385714Y-146071428D01*
X47671428Y-146214285D02*
X47071428Y-146214285D01*
X47071428Y-145985714D01*
X47100000Y-145928571D01*
X47128571Y-145900000D01*
X47185714Y-145871428D01*
X47271428Y-145871428D01*
X47328571Y-145900000D01*
X47357142Y-145928571D01*
X47385714Y-145985714D01*
X47385714Y-146214285D01*
X47128571Y-145642857D02*
X47100000Y-145614285D01*
X47071428Y-145557142D01*
X47071428Y-145414285D01*
X47100000Y-145357142D01*
X47128571Y-145328571D01*
X47185714Y-145300000D01*
X47242857Y-145300000D01*
X47328571Y-145328571D01*
X47671428Y-145671428D01*
X47671428Y-145300000D01*
X47071428Y-144928571D02*
X47071428Y-144871428D01*
X47100000Y-144814285D01*
X47128571Y-144785714D01*
X47185714Y-144757142D01*
X47300000Y-144728571D01*
X47442857Y-144728571D01*
X47557142Y-144757142D01*
X47614285Y-144785714D01*
X47642857Y-144814285D01*
X47671428Y-144871428D01*
X47671428Y-144928571D01*
X47642857Y-144985714D01*
X47614285Y-145014285D01*
X47557142Y-145042857D01*
X47442857Y-145071428D01*
X47300000Y-145071428D01*
X47185714Y-145042857D01*
X47128571Y-145014285D01*
X47100000Y-144985714D01*
X47071428Y-144928571D01*
X47671428Y-144442857D02*
X47671428Y-144328571D01*
X47642857Y-144271428D01*
X47614285Y-144242857D01*
X47528571Y-144185714D01*
X47414285Y-144157142D01*
X47185714Y-144157142D01*
X47128571Y-144185714D01*
X47100000Y-144214285D01*
X47071428Y-144271428D01*
X47071428Y-144385714D01*
X47100000Y-144442857D01*
X47128571Y-144471428D01*
X47185714Y-144500000D01*
X47328571Y-144500000D01*
X47385714Y-144471428D01*
X47414285Y-144442857D01*
X47442857Y-144385714D01*
X47442857Y-144271428D01*
X47414285Y-144214285D01*
X47385714Y-144185714D01*
X47328571Y-144157142D01*
X44921428Y-152671428D02*
X44635714Y-152871428D01*
X44921428Y-153014285D02*
X44321428Y-153014285D01*
X44321428Y-152785714D01*
X44350000Y-152728571D01*
X44378571Y-152700000D01*
X44435714Y-152671428D01*
X44521428Y-152671428D01*
X44578571Y-152700000D01*
X44607142Y-152728571D01*
X44635714Y-152785714D01*
X44635714Y-153014285D01*
X44378571Y-152442857D02*
X44350000Y-152414285D01*
X44321428Y-152357142D01*
X44321428Y-152214285D01*
X44350000Y-152157142D01*
X44378571Y-152128571D01*
X44435714Y-152100000D01*
X44492857Y-152100000D01*
X44578571Y-152128571D01*
X44921428Y-152471428D01*
X44921428Y-152100000D01*
X44921428Y-151528571D02*
X44921428Y-151871428D01*
X44921428Y-151700000D02*
X44321428Y-151700000D01*
X44407142Y-151757142D01*
X44464285Y-151814285D01*
X44492857Y-151871428D01*
X44321428Y-151157142D02*
X44321428Y-151100000D01*
X44350000Y-151042857D01*
X44378571Y-151014285D01*
X44435714Y-150985714D01*
X44550000Y-150957142D01*
X44692857Y-150957142D01*
X44807142Y-150985714D01*
X44864285Y-151014285D01*
X44892857Y-151042857D01*
X44921428Y-151100000D01*
X44921428Y-151157142D01*
X44892857Y-151214285D01*
X44864285Y-151242857D01*
X44807142Y-151271428D01*
X44692857Y-151300000D01*
X44550000Y-151300000D01*
X44435714Y-151271428D01*
X44378571Y-151242857D01*
X44350000Y-151214285D01*
X44321428Y-151157142D01*
X60452380Y-72119047D02*
X59976190Y-72452380D01*
X60452380Y-72690476D02*
X59452380Y-72690476D01*
X59452380Y-72309523D01*
X59500000Y-72214285D01*
X59547619Y-72166666D01*
X59642857Y-72119047D01*
X59785714Y-72119047D01*
X59880952Y-72166666D01*
X59928571Y-72214285D01*
X59976190Y-72309523D01*
X59976190Y-72690476D01*
X59547619Y-71738095D02*
X59500000Y-71690476D01*
X59452380Y-71595238D01*
X59452380Y-71357142D01*
X59500000Y-71261904D01*
X59547619Y-71214285D01*
X59642857Y-71166666D01*
X59738095Y-71166666D01*
X59880952Y-71214285D01*
X60452380Y-71785714D01*
X60452380Y-71166666D01*
X60452380Y-70214285D02*
X60452380Y-70785714D01*
X60452380Y-70500000D02*
X59452380Y-70500000D01*
X59595238Y-70595238D01*
X59690476Y-70690476D01*
X59738095Y-70785714D01*
X60452380Y-69261904D02*
X60452380Y-69833333D01*
X60452380Y-69547619D02*
X59452380Y-69547619D01*
X59595238Y-69642857D01*
X59690476Y-69738095D01*
X59738095Y-69833333D01*
X58452380Y-72119047D02*
X57976190Y-72452380D01*
X58452380Y-72690476D02*
X57452380Y-72690476D01*
X57452380Y-72309523D01*
X57500000Y-72214285D01*
X57547619Y-72166666D01*
X57642857Y-72119047D01*
X57785714Y-72119047D01*
X57880952Y-72166666D01*
X57928571Y-72214285D01*
X57976190Y-72309523D01*
X57976190Y-72690476D01*
X57547619Y-71738095D02*
X57500000Y-71690476D01*
X57452380Y-71595238D01*
X57452380Y-71357142D01*
X57500000Y-71261904D01*
X57547619Y-71214285D01*
X57642857Y-71166666D01*
X57738095Y-71166666D01*
X57880952Y-71214285D01*
X58452380Y-71785714D01*
X58452380Y-71166666D01*
X58452380Y-70214285D02*
X58452380Y-70785714D01*
X58452380Y-70500000D02*
X57452380Y-70500000D01*
X57595238Y-70595238D01*
X57690476Y-70690476D01*
X57738095Y-70785714D01*
X57547619Y-69833333D02*
X57500000Y-69785714D01*
X57452380Y-69690476D01*
X57452380Y-69452380D01*
X57500000Y-69357142D01*
X57547619Y-69309523D01*
X57642857Y-69261904D01*
X57738095Y-69261904D01*
X57880952Y-69309523D01*
X58452380Y-69880952D01*
X58452380Y-69261904D01*
X65271428Y-112671428D02*
X64985714Y-112871428D01*
X65271428Y-113014285D02*
X64671428Y-113014285D01*
X64671428Y-112785714D01*
X64700000Y-112728571D01*
X64728571Y-112700000D01*
X64785714Y-112671428D01*
X64871428Y-112671428D01*
X64928571Y-112700000D01*
X64957142Y-112728571D01*
X64985714Y-112785714D01*
X64985714Y-113014285D01*
X64728571Y-112442857D02*
X64700000Y-112414285D01*
X64671428Y-112357142D01*
X64671428Y-112214285D01*
X64700000Y-112157142D01*
X64728571Y-112128571D01*
X64785714Y-112100000D01*
X64842857Y-112100000D01*
X64928571Y-112128571D01*
X65271428Y-112471428D01*
X65271428Y-112100000D01*
X65271428Y-111528571D02*
X65271428Y-111871428D01*
X65271428Y-111700000D02*
X64671428Y-111700000D01*
X64757142Y-111757142D01*
X64814285Y-111814285D01*
X64842857Y-111871428D01*
X64671428Y-111328571D02*
X64671428Y-110957142D01*
X64900000Y-111157142D01*
X64900000Y-111071428D01*
X64928571Y-111014285D01*
X64957142Y-110985714D01*
X65014285Y-110957142D01*
X65157142Y-110957142D01*
X65214285Y-110985714D01*
X65242857Y-111014285D01*
X65271428Y-111071428D01*
X65271428Y-111242857D01*
X65242857Y-111300000D01*
X65214285Y-111328571D01*
X65471428Y-109671428D02*
X65185714Y-109871428D01*
X65471428Y-110014285D02*
X64871428Y-110014285D01*
X64871428Y-109785714D01*
X64900000Y-109728571D01*
X64928571Y-109700000D01*
X64985714Y-109671428D01*
X65071428Y-109671428D01*
X65128571Y-109700000D01*
X65157142Y-109728571D01*
X65185714Y-109785714D01*
X65185714Y-110014285D01*
X64928571Y-109442857D02*
X64900000Y-109414285D01*
X64871428Y-109357142D01*
X64871428Y-109214285D01*
X64900000Y-109157142D01*
X64928571Y-109128571D01*
X64985714Y-109100000D01*
X65042857Y-109100000D01*
X65128571Y-109128571D01*
X65471428Y-109471428D01*
X65471428Y-109100000D01*
X65471428Y-108528571D02*
X65471428Y-108871428D01*
X65471428Y-108700000D02*
X64871428Y-108700000D01*
X64957142Y-108757142D01*
X65014285Y-108814285D01*
X65042857Y-108871428D01*
X65071428Y-108014285D02*
X65471428Y-108014285D01*
X64842857Y-108157142D02*
X65271428Y-108300000D01*
X65271428Y-107928571D01*
X67328571Y-106621428D02*
X67128571Y-106335714D01*
X66985714Y-106621428D02*
X66985714Y-106021428D01*
X67214285Y-106021428D01*
X67271428Y-106050000D01*
X67300000Y-106078571D01*
X67328571Y-106135714D01*
X67328571Y-106221428D01*
X67300000Y-106278571D01*
X67271428Y-106307142D01*
X67214285Y-106335714D01*
X66985714Y-106335714D01*
X67557142Y-106078571D02*
X67585714Y-106050000D01*
X67642857Y-106021428D01*
X67785714Y-106021428D01*
X67842857Y-106050000D01*
X67871428Y-106078571D01*
X67900000Y-106135714D01*
X67900000Y-106192857D01*
X67871428Y-106278571D01*
X67528571Y-106621428D01*
X67900000Y-106621428D01*
X68471428Y-106621428D02*
X68128571Y-106621428D01*
X68300000Y-106621428D02*
X68300000Y-106021428D01*
X68242857Y-106107142D01*
X68185714Y-106164285D01*
X68128571Y-106192857D01*
X69014285Y-106021428D02*
X68728571Y-106021428D01*
X68700000Y-106307142D01*
X68728571Y-106278571D01*
X68785714Y-106250000D01*
X68928571Y-106250000D01*
X68985714Y-106278571D01*
X69014285Y-106307142D01*
X69042857Y-106364285D01*
X69042857Y-106507142D01*
X69014285Y-106564285D01*
X68985714Y-106592857D01*
X68928571Y-106621428D01*
X68785714Y-106621428D01*
X68728571Y-106592857D01*
X68700000Y-106564285D01*
X61271428Y-122471428D02*
X60985714Y-122671428D01*
X61271428Y-122814285D02*
X60671428Y-122814285D01*
X60671428Y-122585714D01*
X60700000Y-122528571D01*
X60728571Y-122500000D01*
X60785714Y-122471428D01*
X60871428Y-122471428D01*
X60928571Y-122500000D01*
X60957142Y-122528571D01*
X60985714Y-122585714D01*
X60985714Y-122814285D01*
X60728571Y-122242857D02*
X60700000Y-122214285D01*
X60671428Y-122157142D01*
X60671428Y-122014285D01*
X60700000Y-121957142D01*
X60728571Y-121928571D01*
X60785714Y-121900000D01*
X60842857Y-121900000D01*
X60928571Y-121928571D01*
X61271428Y-122271428D01*
X61271428Y-121900000D01*
X61271428Y-121328571D02*
X61271428Y-121671428D01*
X61271428Y-121500000D02*
X60671428Y-121500000D01*
X60757142Y-121557142D01*
X60814285Y-121614285D01*
X60842857Y-121671428D01*
X60671428Y-120814285D02*
X60671428Y-120928571D01*
X60700000Y-120985714D01*
X60728571Y-121014285D01*
X60814285Y-121071428D01*
X60928571Y-121100000D01*
X61157142Y-121100000D01*
X61214285Y-121071428D01*
X61242857Y-121042857D01*
X61271428Y-120985714D01*
X61271428Y-120871428D01*
X61242857Y-120814285D01*
X61214285Y-120785714D01*
X61157142Y-120757142D01*
X61014285Y-120757142D01*
X60957142Y-120785714D01*
X60928571Y-120814285D01*
X60900000Y-120871428D01*
X60900000Y-120985714D01*
X60928571Y-121042857D01*
X60957142Y-121071428D01*
X61014285Y-121100000D01*
X69328571Y-143871428D02*
X69128571Y-143585714D01*
X68985714Y-143871428D02*
X68985714Y-143271428D01*
X69214285Y-143271428D01*
X69271428Y-143300000D01*
X69300000Y-143328571D01*
X69328571Y-143385714D01*
X69328571Y-143471428D01*
X69300000Y-143528571D01*
X69271428Y-143557142D01*
X69214285Y-143585714D01*
X68985714Y-143585714D01*
X69557142Y-143328571D02*
X69585714Y-143300000D01*
X69642857Y-143271428D01*
X69785714Y-143271428D01*
X69842857Y-143300000D01*
X69871428Y-143328571D01*
X69900000Y-143385714D01*
X69900000Y-143442857D01*
X69871428Y-143528571D01*
X69528571Y-143871428D01*
X69900000Y-143871428D01*
X70471428Y-143871428D02*
X70128571Y-143871428D01*
X70300000Y-143871428D02*
X70300000Y-143271428D01*
X70242857Y-143357142D01*
X70185714Y-143414285D01*
X70128571Y-143442857D01*
X70671428Y-143271428D02*
X71071428Y-143271428D01*
X70814285Y-143871428D01*
X77528571Y-149871428D02*
X77328571Y-149585714D01*
X77185714Y-149871428D02*
X77185714Y-149271428D01*
X77414285Y-149271428D01*
X77471428Y-149300000D01*
X77500000Y-149328571D01*
X77528571Y-149385714D01*
X77528571Y-149471428D01*
X77500000Y-149528571D01*
X77471428Y-149557142D01*
X77414285Y-149585714D01*
X77185714Y-149585714D01*
X77757142Y-149328571D02*
X77785714Y-149300000D01*
X77842857Y-149271428D01*
X77985714Y-149271428D01*
X78042857Y-149300000D01*
X78071428Y-149328571D01*
X78100000Y-149385714D01*
X78100000Y-149442857D01*
X78071428Y-149528571D01*
X77728571Y-149871428D01*
X78100000Y-149871428D01*
X78671428Y-149871428D02*
X78328571Y-149871428D01*
X78500000Y-149871428D02*
X78500000Y-149271428D01*
X78442857Y-149357142D01*
X78385714Y-149414285D01*
X78328571Y-149442857D01*
X79014285Y-149528571D02*
X78957142Y-149500000D01*
X78928571Y-149471428D01*
X78900000Y-149414285D01*
X78900000Y-149385714D01*
X78928571Y-149328571D01*
X78957142Y-149300000D01*
X79014285Y-149271428D01*
X79128571Y-149271428D01*
X79185714Y-149300000D01*
X79214285Y-149328571D01*
X79242857Y-149385714D01*
X79242857Y-149414285D01*
X79214285Y-149471428D01*
X79185714Y-149500000D01*
X79128571Y-149528571D01*
X79014285Y-149528571D01*
X78957142Y-149557142D01*
X78928571Y-149585714D01*
X78900000Y-149642857D01*
X78900000Y-149757142D01*
X78928571Y-149814285D01*
X78957142Y-149842857D01*
X79014285Y-149871428D01*
X79128571Y-149871428D01*
X79185714Y-149842857D01*
X79214285Y-149814285D01*
X79242857Y-149757142D01*
X79242857Y-149642857D01*
X79214285Y-149585714D01*
X79185714Y-149557142D01*
X79128571Y-149528571D01*
X69328571Y-49871428D02*
X69128571Y-49585714D01*
X68985714Y-49871428D02*
X68985714Y-49271428D01*
X69214285Y-49271428D01*
X69271428Y-49300000D01*
X69300000Y-49328571D01*
X69328571Y-49385714D01*
X69328571Y-49471428D01*
X69300000Y-49528571D01*
X69271428Y-49557142D01*
X69214285Y-49585714D01*
X68985714Y-49585714D01*
X69557142Y-49328571D02*
X69585714Y-49300000D01*
X69642857Y-49271428D01*
X69785714Y-49271428D01*
X69842857Y-49300000D01*
X69871428Y-49328571D01*
X69900000Y-49385714D01*
X69900000Y-49442857D01*
X69871428Y-49528571D01*
X69528571Y-49871428D01*
X69900000Y-49871428D01*
X70471428Y-49871428D02*
X70128571Y-49871428D01*
X70300000Y-49871428D02*
X70300000Y-49271428D01*
X70242857Y-49357142D01*
X70185714Y-49414285D01*
X70128571Y-49442857D01*
X70757142Y-49871428D02*
X70871428Y-49871428D01*
X70928571Y-49842857D01*
X70957142Y-49814285D01*
X71014285Y-49728571D01*
X71042857Y-49614285D01*
X71042857Y-49385714D01*
X71014285Y-49328571D01*
X70985714Y-49300000D01*
X70928571Y-49271428D01*
X70814285Y-49271428D01*
X70757142Y-49300000D01*
X70728571Y-49328571D01*
X70700000Y-49385714D01*
X70700000Y-49528571D01*
X70728571Y-49585714D01*
X70757142Y-49614285D01*
X70814285Y-49642857D01*
X70928571Y-49642857D01*
X70985714Y-49614285D01*
X71014285Y-49585714D01*
X71042857Y-49528571D01*
X65071428Y-125671428D02*
X64785714Y-125871428D01*
X65071428Y-126014285D02*
X64471428Y-126014285D01*
X64471428Y-125785714D01*
X64500000Y-125728571D01*
X64528571Y-125700000D01*
X64585714Y-125671428D01*
X64671428Y-125671428D01*
X64728571Y-125700000D01*
X64757142Y-125728571D01*
X64785714Y-125785714D01*
X64785714Y-126014285D01*
X64528571Y-125442857D02*
X64500000Y-125414285D01*
X64471428Y-125357142D01*
X64471428Y-125214285D01*
X64500000Y-125157142D01*
X64528571Y-125128571D01*
X64585714Y-125100000D01*
X64642857Y-125100000D01*
X64728571Y-125128571D01*
X65071428Y-125471428D01*
X65071428Y-125100000D01*
X64528571Y-124871428D02*
X64500000Y-124842857D01*
X64471428Y-124785714D01*
X64471428Y-124642857D01*
X64500000Y-124585714D01*
X64528571Y-124557142D01*
X64585714Y-124528571D01*
X64642857Y-124528571D01*
X64728571Y-124557142D01*
X65071428Y-124900000D01*
X65071428Y-124528571D01*
X64471428Y-124157142D02*
X64471428Y-124100000D01*
X64500000Y-124042857D01*
X64528571Y-124014285D01*
X64585714Y-123985714D01*
X64700000Y-123957142D01*
X64842857Y-123957142D01*
X64957142Y-123985714D01*
X65014285Y-124014285D01*
X65042857Y-124042857D01*
X65071428Y-124100000D01*
X65071428Y-124157142D01*
X65042857Y-124214285D01*
X65014285Y-124242857D01*
X64957142Y-124271428D01*
X64842857Y-124300000D01*
X64700000Y-124300000D01*
X64585714Y-124271428D01*
X64528571Y-124242857D01*
X64500000Y-124214285D01*
X64471428Y-124157142D01*
X73871428Y-145871428D02*
X73585714Y-146071428D01*
X73871428Y-146214285D02*
X73271428Y-146214285D01*
X73271428Y-145985714D01*
X73300000Y-145928571D01*
X73328571Y-145900000D01*
X73385714Y-145871428D01*
X73471428Y-145871428D01*
X73528571Y-145900000D01*
X73557142Y-145928571D01*
X73585714Y-145985714D01*
X73585714Y-146214285D01*
X73328571Y-145642857D02*
X73300000Y-145614285D01*
X73271428Y-145557142D01*
X73271428Y-145414285D01*
X73300000Y-145357142D01*
X73328571Y-145328571D01*
X73385714Y-145300000D01*
X73442857Y-145300000D01*
X73528571Y-145328571D01*
X73871428Y-145671428D01*
X73871428Y-145300000D01*
X73328571Y-145071428D02*
X73300000Y-145042857D01*
X73271428Y-144985714D01*
X73271428Y-144842857D01*
X73300000Y-144785714D01*
X73328571Y-144757142D01*
X73385714Y-144728571D01*
X73442857Y-144728571D01*
X73528571Y-144757142D01*
X73871428Y-145100000D01*
X73871428Y-144728571D01*
X73871428Y-144157142D02*
X73871428Y-144500000D01*
X73871428Y-144328571D02*
X73271428Y-144328571D01*
X73357142Y-144385714D01*
X73414285Y-144442857D01*
X73442857Y-144500000D01*
X82271428Y-152671428D02*
X81985714Y-152871428D01*
X82271428Y-153014285D02*
X81671428Y-153014285D01*
X81671428Y-152785714D01*
X81700000Y-152728571D01*
X81728571Y-152700000D01*
X81785714Y-152671428D01*
X81871428Y-152671428D01*
X81928571Y-152700000D01*
X81957142Y-152728571D01*
X81985714Y-152785714D01*
X81985714Y-153014285D01*
X81728571Y-152442857D02*
X81700000Y-152414285D01*
X81671428Y-152357142D01*
X81671428Y-152214285D01*
X81700000Y-152157142D01*
X81728571Y-152128571D01*
X81785714Y-152100000D01*
X81842857Y-152100000D01*
X81928571Y-152128571D01*
X82271428Y-152471428D01*
X82271428Y-152100000D01*
X81728571Y-151871428D02*
X81700000Y-151842857D01*
X81671428Y-151785714D01*
X81671428Y-151642857D01*
X81700000Y-151585714D01*
X81728571Y-151557142D01*
X81785714Y-151528571D01*
X81842857Y-151528571D01*
X81928571Y-151557142D01*
X82271428Y-151900000D01*
X82271428Y-151528571D01*
X81728571Y-151300000D02*
X81700000Y-151271428D01*
X81671428Y-151214285D01*
X81671428Y-151071428D01*
X81700000Y-151014285D01*
X81728571Y-150985714D01*
X81785714Y-150957142D01*
X81842857Y-150957142D01*
X81928571Y-150985714D01*
X82271428Y-151328571D01*
X82271428Y-150957142D01*
X73871428Y-52671428D02*
X73585714Y-52871428D01*
X73871428Y-53014285D02*
X73271428Y-53014285D01*
X73271428Y-52785714D01*
X73300000Y-52728571D01*
X73328571Y-52700000D01*
X73385714Y-52671428D01*
X73471428Y-52671428D01*
X73528571Y-52700000D01*
X73557142Y-52728571D01*
X73585714Y-52785714D01*
X73585714Y-53014285D01*
X73328571Y-52442857D02*
X73300000Y-52414285D01*
X73271428Y-52357142D01*
X73271428Y-52214285D01*
X73300000Y-52157142D01*
X73328571Y-52128571D01*
X73385714Y-52100000D01*
X73442857Y-52100000D01*
X73528571Y-52128571D01*
X73871428Y-52471428D01*
X73871428Y-52100000D01*
X73328571Y-51871428D02*
X73300000Y-51842857D01*
X73271428Y-51785714D01*
X73271428Y-51642857D01*
X73300000Y-51585714D01*
X73328571Y-51557142D01*
X73385714Y-51528571D01*
X73442857Y-51528571D01*
X73528571Y-51557142D01*
X73871428Y-51900000D01*
X73871428Y-51528571D01*
X73271428Y-51328571D02*
X73271428Y-50957142D01*
X73500000Y-51157142D01*
X73500000Y-51071428D01*
X73528571Y-51014285D01*
X73557142Y-50985714D01*
X73614285Y-50957142D01*
X73757142Y-50957142D01*
X73814285Y-50985714D01*
X73842857Y-51014285D01*
X73871428Y-51071428D01*
X73871428Y-51242857D01*
X73842857Y-51300000D01*
X73814285Y-51328571D01*
X75452380Y-71919047D02*
X74976190Y-72252380D01*
X75452380Y-72490476D02*
X74452380Y-72490476D01*
X74452380Y-72109523D01*
X74500000Y-72014285D01*
X74547619Y-71966666D01*
X74642857Y-71919047D01*
X74785714Y-71919047D01*
X74880952Y-71966666D01*
X74928571Y-72014285D01*
X74976190Y-72109523D01*
X74976190Y-72490476D01*
X74547619Y-71538095D02*
X74500000Y-71490476D01*
X74452380Y-71395238D01*
X74452380Y-71157142D01*
X74500000Y-71061904D01*
X74547619Y-71014285D01*
X74642857Y-70966666D01*
X74738095Y-70966666D01*
X74880952Y-71014285D01*
X75452380Y-71585714D01*
X75452380Y-70966666D01*
X74547619Y-70585714D02*
X74500000Y-70538095D01*
X74452380Y-70442857D01*
X74452380Y-70204761D01*
X74500000Y-70109523D01*
X74547619Y-70061904D01*
X74642857Y-70014285D01*
X74738095Y-70014285D01*
X74880952Y-70061904D01*
X75452380Y-70633333D01*
X75452380Y-70014285D01*
X74785714Y-69157142D02*
X75452380Y-69157142D01*
X74404761Y-69395238D02*
X75119047Y-69633333D01*
X75119047Y-69014285D01*
X77452380Y-71919047D02*
X76976190Y-72252380D01*
X77452380Y-72490476D02*
X76452380Y-72490476D01*
X76452380Y-72109523D01*
X76500000Y-72014285D01*
X76547619Y-71966666D01*
X76642857Y-71919047D01*
X76785714Y-71919047D01*
X76880952Y-71966666D01*
X76928571Y-72014285D01*
X76976190Y-72109523D01*
X76976190Y-72490476D01*
X76547619Y-71538095D02*
X76500000Y-71490476D01*
X76452380Y-71395238D01*
X76452380Y-71157142D01*
X76500000Y-71061904D01*
X76547619Y-71014285D01*
X76642857Y-70966666D01*
X76738095Y-70966666D01*
X76880952Y-71014285D01*
X77452380Y-71585714D01*
X77452380Y-70966666D01*
X76547619Y-70585714D02*
X76500000Y-70538095D01*
X76452380Y-70442857D01*
X76452380Y-70204761D01*
X76500000Y-70109523D01*
X76547619Y-70061904D01*
X76642857Y-70014285D01*
X76738095Y-70014285D01*
X76880952Y-70061904D01*
X77452380Y-70633333D01*
X77452380Y-70014285D01*
X76452380Y-69109523D02*
X76452380Y-69585714D01*
X76928571Y-69633333D01*
X76880952Y-69585714D01*
X76833333Y-69490476D01*
X76833333Y-69252380D01*
X76880952Y-69157142D01*
X76928571Y-69109523D01*
X77023809Y-69061904D01*
X77261904Y-69061904D01*
X77357142Y-69109523D01*
X77404761Y-69157142D01*
X77452380Y-69252380D01*
X77452380Y-69490476D01*
X77404761Y-69585714D01*
X77357142Y-69633333D01*
X68880952Y-96252380D02*
X68547619Y-95776190D01*
X68309523Y-96252380D02*
X68309523Y-95252380D01*
X68690476Y-95252380D01*
X68785714Y-95300000D01*
X68833333Y-95347619D01*
X68880952Y-95442857D01*
X68880952Y-95585714D01*
X68833333Y-95680952D01*
X68785714Y-95728571D01*
X68690476Y-95776190D01*
X68309523Y-95776190D01*
X69214285Y-95252380D02*
X69833333Y-95252380D01*
X69500000Y-95633333D01*
X69642857Y-95633333D01*
X69738095Y-95680952D01*
X69785714Y-95728571D01*
X69833333Y-95823809D01*
X69833333Y-96061904D01*
X69785714Y-96157142D01*
X69738095Y-96204761D01*
X69642857Y-96252380D01*
X69357142Y-96252380D01*
X69261904Y-96204761D01*
X69214285Y-96157142D01*
X70452380Y-95252380D02*
X70547619Y-95252380D01*
X70642857Y-95300000D01*
X70690476Y-95347619D01*
X70738095Y-95442857D01*
X70785714Y-95633333D01*
X70785714Y-95871428D01*
X70738095Y-96061904D01*
X70690476Y-96157142D01*
X70642857Y-96204761D01*
X70547619Y-96252380D01*
X70452380Y-96252380D01*
X70357142Y-96204761D01*
X70309523Y-96157142D01*
X70261904Y-96061904D01*
X70214285Y-95871428D01*
X70214285Y-95633333D01*
X70261904Y-95442857D01*
X70309523Y-95347619D01*
X70357142Y-95300000D01*
X70452380Y-95252380D01*
X71738095Y-96252380D02*
X71166666Y-96252380D01*
X71452380Y-96252380D02*
X71452380Y-95252380D01*
X71357142Y-95395238D01*
X71261904Y-95490476D01*
X71166666Y-95538095D01*
X44271428Y-52871428D02*
X43985714Y-53071428D01*
X44271428Y-53214285D02*
X43671428Y-53214285D01*
X43671428Y-52985714D01*
X43700000Y-52928571D01*
X43728571Y-52900000D01*
X43785714Y-52871428D01*
X43871428Y-52871428D01*
X43928571Y-52900000D01*
X43957142Y-52928571D01*
X43985714Y-52985714D01*
X43985714Y-53214285D01*
X43671428Y-52671428D02*
X43671428Y-52300000D01*
X43900000Y-52500000D01*
X43900000Y-52414285D01*
X43928571Y-52357142D01*
X43957142Y-52328571D01*
X44014285Y-52300000D01*
X44157142Y-52300000D01*
X44214285Y-52328571D01*
X44242857Y-52357142D01*
X44271428Y-52414285D01*
X44271428Y-52585714D01*
X44242857Y-52642857D01*
X44214285Y-52671428D01*
X43671428Y-51928571D02*
X43671428Y-51871428D01*
X43700000Y-51814285D01*
X43728571Y-51785714D01*
X43785714Y-51757142D01*
X43900000Y-51728571D01*
X44042857Y-51728571D01*
X44157142Y-51757142D01*
X44214285Y-51785714D01*
X44242857Y-51814285D01*
X44271428Y-51871428D01*
X44271428Y-51928571D01*
X44242857Y-51985714D01*
X44214285Y-52014285D01*
X44157142Y-52042857D01*
X44042857Y-52071428D01*
X43900000Y-52071428D01*
X43785714Y-52042857D01*
X43728571Y-52014285D01*
X43700000Y-51985714D01*
X43671428Y-51928571D01*
X43728571Y-51500000D02*
X43700000Y-51471428D01*
X43671428Y-51414285D01*
X43671428Y-51271428D01*
X43700000Y-51214285D01*
X43728571Y-51185714D01*
X43785714Y-51157142D01*
X43842857Y-51157142D01*
X43928571Y-51185714D01*
X44271428Y-51528571D01*
X44271428Y-51157142D01*
X76271428Y-53071428D02*
X75985714Y-53271428D01*
X76271428Y-53414285D02*
X75671428Y-53414285D01*
X75671428Y-53185714D01*
X75700000Y-53128571D01*
X75728571Y-53100000D01*
X75785714Y-53071428D01*
X75871428Y-53071428D01*
X75928571Y-53100000D01*
X75957142Y-53128571D01*
X75985714Y-53185714D01*
X75985714Y-53414285D01*
X75671428Y-52871428D02*
X75671428Y-52500000D01*
X75900000Y-52700000D01*
X75900000Y-52614285D01*
X75928571Y-52557142D01*
X75957142Y-52528571D01*
X76014285Y-52500000D01*
X76157142Y-52500000D01*
X76214285Y-52528571D01*
X76242857Y-52557142D01*
X76271428Y-52614285D01*
X76271428Y-52785714D01*
X76242857Y-52842857D01*
X76214285Y-52871428D01*
X75671428Y-52128571D02*
X75671428Y-52071428D01*
X75700000Y-52014285D01*
X75728571Y-51985714D01*
X75785714Y-51957142D01*
X75900000Y-51928571D01*
X76042857Y-51928571D01*
X76157142Y-51957142D01*
X76214285Y-51985714D01*
X76242857Y-52014285D01*
X76271428Y-52071428D01*
X76271428Y-52128571D01*
X76242857Y-52185714D01*
X76214285Y-52214285D01*
X76157142Y-52242857D01*
X76042857Y-52271428D01*
X75900000Y-52271428D01*
X75785714Y-52242857D01*
X75728571Y-52214285D01*
X75700000Y-52185714D01*
X75671428Y-52128571D01*
X75671428Y-51728571D02*
X75671428Y-51357142D01*
X75900000Y-51557142D01*
X75900000Y-51471428D01*
X75928571Y-51414285D01*
X75957142Y-51385714D01*
X76014285Y-51357142D01*
X76157142Y-51357142D01*
X76214285Y-51385714D01*
X76242857Y-51414285D01*
X76271428Y-51471428D01*
X76271428Y-51642857D01*
X76242857Y-51700000D01*
X76214285Y-51728571D01*
X50921428Y-101646428D02*
X50635714Y-101846428D01*
X50921428Y-101989285D02*
X50321428Y-101989285D01*
X50321428Y-101760714D01*
X50350000Y-101703571D01*
X50378571Y-101675000D01*
X50435714Y-101646428D01*
X50521428Y-101646428D01*
X50578571Y-101675000D01*
X50607142Y-101703571D01*
X50635714Y-101760714D01*
X50635714Y-101989285D01*
X50321428Y-101446428D02*
X50321428Y-101075000D01*
X50550000Y-101275000D01*
X50550000Y-101189285D01*
X50578571Y-101132142D01*
X50607142Y-101103571D01*
X50664285Y-101075000D01*
X50807142Y-101075000D01*
X50864285Y-101103571D01*
X50892857Y-101132142D01*
X50921428Y-101189285D01*
X50921428Y-101360714D01*
X50892857Y-101417857D01*
X50864285Y-101446428D01*
X50321428Y-100703571D02*
X50321428Y-100646428D01*
X50350000Y-100589285D01*
X50378571Y-100560714D01*
X50435714Y-100532142D01*
X50550000Y-100503571D01*
X50692857Y-100503571D01*
X50807142Y-100532142D01*
X50864285Y-100560714D01*
X50892857Y-100589285D01*
X50921428Y-100646428D01*
X50921428Y-100703571D01*
X50892857Y-100760714D01*
X50864285Y-100789285D01*
X50807142Y-100817857D01*
X50692857Y-100846428D01*
X50550000Y-100846428D01*
X50435714Y-100817857D01*
X50378571Y-100789285D01*
X50350000Y-100760714D01*
X50321428Y-100703571D01*
X50521428Y-99989285D02*
X50921428Y-99989285D01*
X50292857Y-100132142D02*
X50721428Y-100275000D01*
X50721428Y-99903571D01*
X65921428Y-101671428D02*
X65635714Y-101871428D01*
X65921428Y-102014285D02*
X65321428Y-102014285D01*
X65321428Y-101785714D01*
X65350000Y-101728571D01*
X65378571Y-101700000D01*
X65435714Y-101671428D01*
X65521428Y-101671428D01*
X65578571Y-101700000D01*
X65607142Y-101728571D01*
X65635714Y-101785714D01*
X65635714Y-102014285D01*
X65321428Y-101471428D02*
X65321428Y-101100000D01*
X65550000Y-101300000D01*
X65550000Y-101214285D01*
X65578571Y-101157142D01*
X65607142Y-101128571D01*
X65664285Y-101100000D01*
X65807142Y-101100000D01*
X65864285Y-101128571D01*
X65892857Y-101157142D01*
X65921428Y-101214285D01*
X65921428Y-101385714D01*
X65892857Y-101442857D01*
X65864285Y-101471428D01*
X65321428Y-100728571D02*
X65321428Y-100671428D01*
X65350000Y-100614285D01*
X65378571Y-100585714D01*
X65435714Y-100557142D01*
X65550000Y-100528571D01*
X65692857Y-100528571D01*
X65807142Y-100557142D01*
X65864285Y-100585714D01*
X65892857Y-100614285D01*
X65921428Y-100671428D01*
X65921428Y-100728571D01*
X65892857Y-100785714D01*
X65864285Y-100814285D01*
X65807142Y-100842857D01*
X65692857Y-100871428D01*
X65550000Y-100871428D01*
X65435714Y-100842857D01*
X65378571Y-100814285D01*
X65350000Y-100785714D01*
X65321428Y-100728571D01*
X65321428Y-99985714D02*
X65321428Y-100271428D01*
X65607142Y-100300000D01*
X65578571Y-100271428D01*
X65550000Y-100214285D01*
X65550000Y-100071428D01*
X65578571Y-100014285D01*
X65607142Y-99985714D01*
X65664285Y-99957142D01*
X65807142Y-99957142D01*
X65864285Y-99985714D01*
X65892857Y-100014285D01*
X65921428Y-100071428D01*
X65921428Y-100214285D01*
X65892857Y-100271428D01*
X65864285Y-100300000D01*
X69471428Y-101671428D02*
X69185714Y-101871428D01*
X69471428Y-102014285D02*
X68871428Y-102014285D01*
X68871428Y-101785714D01*
X68900000Y-101728571D01*
X68928571Y-101700000D01*
X68985714Y-101671428D01*
X69071428Y-101671428D01*
X69128571Y-101700000D01*
X69157142Y-101728571D01*
X69185714Y-101785714D01*
X69185714Y-102014285D01*
X68871428Y-101471428D02*
X68871428Y-101100000D01*
X69100000Y-101300000D01*
X69100000Y-101214285D01*
X69128571Y-101157142D01*
X69157142Y-101128571D01*
X69214285Y-101100000D01*
X69357142Y-101100000D01*
X69414285Y-101128571D01*
X69442857Y-101157142D01*
X69471428Y-101214285D01*
X69471428Y-101385714D01*
X69442857Y-101442857D01*
X69414285Y-101471428D01*
X68871428Y-100728571D02*
X68871428Y-100671428D01*
X68900000Y-100614285D01*
X68928571Y-100585714D01*
X68985714Y-100557142D01*
X69100000Y-100528571D01*
X69242857Y-100528571D01*
X69357142Y-100557142D01*
X69414285Y-100585714D01*
X69442857Y-100614285D01*
X69471428Y-100671428D01*
X69471428Y-100728571D01*
X69442857Y-100785714D01*
X69414285Y-100814285D01*
X69357142Y-100842857D01*
X69242857Y-100871428D01*
X69100000Y-100871428D01*
X68985714Y-100842857D01*
X68928571Y-100814285D01*
X68900000Y-100785714D01*
X68871428Y-100728571D01*
X68871428Y-100014285D02*
X68871428Y-100128571D01*
X68900000Y-100185714D01*
X68928571Y-100214285D01*
X69014285Y-100271428D01*
X69128571Y-100300000D01*
X69357142Y-100300000D01*
X69414285Y-100271428D01*
X69442857Y-100242857D01*
X69471428Y-100185714D01*
X69471428Y-100071428D01*
X69442857Y-100014285D01*
X69414285Y-99985714D01*
X69357142Y-99957142D01*
X69214285Y-99957142D01*
X69157142Y-99985714D01*
X69128571Y-100014285D01*
X69100000Y-100071428D01*
X69100000Y-100185714D01*
X69128571Y-100242857D01*
X69157142Y-100271428D01*
X69214285Y-100300000D01*
X44271428Y-141871428D02*
X43985714Y-142071428D01*
X44271428Y-142214285D02*
X43671428Y-142214285D01*
X43671428Y-141985714D01*
X43700000Y-141928571D01*
X43728571Y-141900000D01*
X43785714Y-141871428D01*
X43871428Y-141871428D01*
X43928571Y-141900000D01*
X43957142Y-141928571D01*
X43985714Y-141985714D01*
X43985714Y-142214285D01*
X43671428Y-141671428D02*
X43671428Y-141300000D01*
X43900000Y-141500000D01*
X43900000Y-141414285D01*
X43928571Y-141357142D01*
X43957142Y-141328571D01*
X44014285Y-141300000D01*
X44157142Y-141300000D01*
X44214285Y-141328571D01*
X44242857Y-141357142D01*
X44271428Y-141414285D01*
X44271428Y-141585714D01*
X44242857Y-141642857D01*
X44214285Y-141671428D01*
X43671428Y-140928571D02*
X43671428Y-140871428D01*
X43700000Y-140814285D01*
X43728571Y-140785714D01*
X43785714Y-140757142D01*
X43900000Y-140728571D01*
X44042857Y-140728571D01*
X44157142Y-140757142D01*
X44214285Y-140785714D01*
X44242857Y-140814285D01*
X44271428Y-140871428D01*
X44271428Y-140928571D01*
X44242857Y-140985714D01*
X44214285Y-141014285D01*
X44157142Y-141042857D01*
X44042857Y-141071428D01*
X43900000Y-141071428D01*
X43785714Y-141042857D01*
X43728571Y-141014285D01*
X43700000Y-140985714D01*
X43671428Y-140928571D01*
X43671428Y-140528571D02*
X43671428Y-140128571D01*
X44271428Y-140385714D01*
X76271428Y-140871428D02*
X75985714Y-141071428D01*
X76271428Y-141214285D02*
X75671428Y-141214285D01*
X75671428Y-140985714D01*
X75700000Y-140928571D01*
X75728571Y-140900000D01*
X75785714Y-140871428D01*
X75871428Y-140871428D01*
X75928571Y-140900000D01*
X75957142Y-140928571D01*
X75985714Y-140985714D01*
X75985714Y-141214285D01*
X75671428Y-140671428D02*
X75671428Y-140300000D01*
X75900000Y-140500000D01*
X75900000Y-140414285D01*
X75928571Y-140357142D01*
X75957142Y-140328571D01*
X76014285Y-140300000D01*
X76157142Y-140300000D01*
X76214285Y-140328571D01*
X76242857Y-140357142D01*
X76271428Y-140414285D01*
X76271428Y-140585714D01*
X76242857Y-140642857D01*
X76214285Y-140671428D01*
X75671428Y-139928571D02*
X75671428Y-139871428D01*
X75700000Y-139814285D01*
X75728571Y-139785714D01*
X75785714Y-139757142D01*
X75900000Y-139728571D01*
X76042857Y-139728571D01*
X76157142Y-139757142D01*
X76214285Y-139785714D01*
X76242857Y-139814285D01*
X76271428Y-139871428D01*
X76271428Y-139928571D01*
X76242857Y-139985714D01*
X76214285Y-140014285D01*
X76157142Y-140042857D01*
X76042857Y-140071428D01*
X75900000Y-140071428D01*
X75785714Y-140042857D01*
X75728571Y-140014285D01*
X75700000Y-139985714D01*
X75671428Y-139928571D01*
X75928571Y-139385714D02*
X75900000Y-139442857D01*
X75871428Y-139471428D01*
X75814285Y-139500000D01*
X75785714Y-139500000D01*
X75728571Y-139471428D01*
X75700000Y-139442857D01*
X75671428Y-139385714D01*
X75671428Y-139271428D01*
X75700000Y-139214285D01*
X75728571Y-139185714D01*
X75785714Y-139157142D01*
X75814285Y-139157142D01*
X75871428Y-139185714D01*
X75900000Y-139214285D01*
X75928571Y-139271428D01*
X75928571Y-139385714D01*
X75957142Y-139442857D01*
X75985714Y-139471428D01*
X76042857Y-139500000D01*
X76157142Y-139500000D01*
X76214285Y-139471428D01*
X76242857Y-139442857D01*
X76271428Y-139385714D01*
X76271428Y-139271428D01*
X76242857Y-139214285D01*
X76214285Y-139185714D01*
X76157142Y-139157142D01*
X76042857Y-139157142D01*
X75985714Y-139185714D01*
X75957142Y-139214285D01*
X75928571Y-139271428D01*
X53204761Y-89485714D02*
X53252380Y-89342857D01*
X53252380Y-89104761D01*
X53204761Y-89009523D01*
X53157142Y-88961904D01*
X53061904Y-88914285D01*
X52966666Y-88914285D01*
X52871428Y-88961904D01*
X52823809Y-89009523D01*
X52776190Y-89104761D01*
X52728571Y-89295238D01*
X52680952Y-89390476D01*
X52633333Y-89438095D01*
X52538095Y-89485714D01*
X52442857Y-89485714D01*
X52347619Y-89438095D01*
X52300000Y-89390476D01*
X52252380Y-89295238D01*
X52252380Y-89057142D01*
X52300000Y-88914285D01*
X52252380Y-88580952D02*
X53252380Y-88342857D01*
X52538095Y-88152380D01*
X53252380Y-87961904D01*
X52252380Y-87723809D01*
X53252380Y-86819047D02*
X53252380Y-87390476D01*
X53252380Y-87104761D02*
X52252380Y-87104761D01*
X52395238Y-87200000D01*
X52490476Y-87295238D01*
X52538095Y-87390476D01*
X52252380Y-86200000D02*
X52252380Y-86104761D01*
X52300000Y-86009523D01*
X52347619Y-85961904D01*
X52442857Y-85914285D01*
X52633333Y-85866666D01*
X52871428Y-85866666D01*
X53061904Y-85914285D01*
X53157142Y-85961904D01*
X53204761Y-86009523D01*
X53252380Y-86104761D01*
X53252380Y-86200000D01*
X53204761Y-86295238D01*
X53157142Y-86342857D01*
X53061904Y-86390476D01*
X52871428Y-86438095D01*
X52633333Y-86438095D01*
X52442857Y-86390476D01*
X52347619Y-86342857D01*
X52300000Y-86295238D01*
X52252380Y-86200000D01*
X53252380Y-84914285D02*
X53252380Y-85485714D01*
X53252380Y-85200000D02*
X52252380Y-85200000D01*
X52395238Y-85295238D01*
X52490476Y-85390476D01*
X52538095Y-85485714D01*
X50804761Y-62085714D02*
X50852380Y-61942857D01*
X50852380Y-61704761D01*
X50804761Y-61609523D01*
X50757142Y-61561904D01*
X50661904Y-61514285D01*
X50566666Y-61514285D01*
X50471428Y-61561904D01*
X50423809Y-61609523D01*
X50376190Y-61704761D01*
X50328571Y-61895238D01*
X50280952Y-61990476D01*
X50233333Y-62038095D01*
X50138095Y-62085714D01*
X50042857Y-62085714D01*
X49947619Y-62038095D01*
X49900000Y-61990476D01*
X49852380Y-61895238D01*
X49852380Y-61657142D01*
X49900000Y-61514285D01*
X49852380Y-61180952D02*
X50852380Y-60942857D01*
X50138095Y-60752380D01*
X50852380Y-60561904D01*
X49852380Y-60323809D01*
X49947619Y-59990476D02*
X49900000Y-59942857D01*
X49852380Y-59847619D01*
X49852380Y-59609523D01*
X49900000Y-59514285D01*
X49947619Y-59466666D01*
X50042857Y-59419047D01*
X50138095Y-59419047D01*
X50280952Y-59466666D01*
X50852380Y-60038095D01*
X50852380Y-59419047D01*
X49852380Y-58800000D02*
X49852380Y-58704761D01*
X49900000Y-58609523D01*
X49947619Y-58561904D01*
X50042857Y-58514285D01*
X50233333Y-58466666D01*
X50471428Y-58466666D01*
X50661904Y-58514285D01*
X50757142Y-58561904D01*
X50804761Y-58609523D01*
X50852380Y-58704761D01*
X50852380Y-58800000D01*
X50804761Y-58895238D01*
X50757142Y-58942857D01*
X50661904Y-58990476D01*
X50471428Y-59038095D01*
X50233333Y-59038095D01*
X50042857Y-58990476D01*
X49947619Y-58942857D01*
X49900000Y-58895238D01*
X49852380Y-58800000D01*
X50852380Y-57514285D02*
X50852380Y-58085714D01*
X50852380Y-57800000D02*
X49852380Y-57800000D01*
X49995238Y-57895238D01*
X50090476Y-57990476D01*
X50138095Y-58085714D01*
X55604761Y-47285714D02*
X55652380Y-47142857D01*
X55652380Y-46904761D01*
X55604761Y-46809523D01*
X55557142Y-46761904D01*
X55461904Y-46714285D01*
X55366666Y-46714285D01*
X55271428Y-46761904D01*
X55223809Y-46809523D01*
X55176190Y-46904761D01*
X55128571Y-47095238D01*
X55080952Y-47190476D01*
X55033333Y-47238095D01*
X54938095Y-47285714D01*
X54842857Y-47285714D01*
X54747619Y-47238095D01*
X54700000Y-47190476D01*
X54652380Y-47095238D01*
X54652380Y-46857142D01*
X54700000Y-46714285D01*
X54652380Y-46380952D02*
X55652380Y-46142857D01*
X54938095Y-45952380D01*
X55652380Y-45761904D01*
X54652380Y-45523809D01*
X54747619Y-45190476D02*
X54700000Y-45142857D01*
X54652380Y-45047619D01*
X54652380Y-44809523D01*
X54700000Y-44714285D01*
X54747619Y-44666666D01*
X54842857Y-44619047D01*
X54938095Y-44619047D01*
X55080952Y-44666666D01*
X55652380Y-45238095D01*
X55652380Y-44619047D01*
X54652380Y-44000000D02*
X54652380Y-43904761D01*
X54700000Y-43809523D01*
X54747619Y-43761904D01*
X54842857Y-43714285D01*
X55033333Y-43666666D01*
X55271428Y-43666666D01*
X55461904Y-43714285D01*
X55557142Y-43761904D01*
X55604761Y-43809523D01*
X55652380Y-43904761D01*
X55652380Y-44000000D01*
X55604761Y-44095238D01*
X55557142Y-44142857D01*
X55461904Y-44190476D01*
X55271428Y-44238095D01*
X55033333Y-44238095D01*
X54842857Y-44190476D01*
X54747619Y-44142857D01*
X54700000Y-44095238D01*
X54652380Y-44000000D01*
X54747619Y-43285714D02*
X54700000Y-43238095D01*
X54652380Y-43142857D01*
X54652380Y-42904761D01*
X54700000Y-42809523D01*
X54747619Y-42761904D01*
X54842857Y-42714285D01*
X54938095Y-42714285D01*
X55080952Y-42761904D01*
X55652380Y-43333333D01*
X55652380Y-42714285D01*
X47714285Y-129204761D02*
X47857142Y-129252380D01*
X48095238Y-129252380D01*
X48190476Y-129204761D01*
X48238095Y-129157142D01*
X48285714Y-129061904D01*
X48285714Y-128966666D01*
X48238095Y-128871428D01*
X48190476Y-128823809D01*
X48095238Y-128776190D01*
X47904761Y-128728571D01*
X47809523Y-128680952D01*
X47761904Y-128633333D01*
X47714285Y-128538095D01*
X47714285Y-128442857D01*
X47761904Y-128347619D01*
X47809523Y-128300000D01*
X47904761Y-128252380D01*
X48142857Y-128252380D01*
X48285714Y-128300000D01*
X48619047Y-128252380D02*
X48857142Y-129252380D01*
X49047619Y-128538095D01*
X49238095Y-129252380D01*
X49476190Y-128252380D01*
X49809523Y-128347619D02*
X49857142Y-128300000D01*
X49952380Y-128252380D01*
X50190476Y-128252380D01*
X50285714Y-128300000D01*
X50333333Y-128347619D01*
X50380952Y-128442857D01*
X50380952Y-128538095D01*
X50333333Y-128680952D01*
X49761904Y-129252380D01*
X50380952Y-129252380D01*
X51000000Y-128252380D02*
X51095238Y-128252380D01*
X51190476Y-128300000D01*
X51238095Y-128347619D01*
X51285714Y-128442857D01*
X51333333Y-128633333D01*
X51333333Y-128871428D01*
X51285714Y-129061904D01*
X51238095Y-129157142D01*
X51190476Y-129204761D01*
X51095238Y-129252380D01*
X51000000Y-129252380D01*
X50904761Y-129204761D01*
X50857142Y-129157142D01*
X50809523Y-129061904D01*
X50761904Y-128871428D01*
X50761904Y-128633333D01*
X50809523Y-128442857D01*
X50857142Y-128347619D01*
X50904761Y-128300000D01*
X51000000Y-128252380D01*
X51666666Y-128252380D02*
X52285714Y-128252380D01*
X51952380Y-128633333D01*
X52095238Y-128633333D01*
X52190476Y-128680952D01*
X52238095Y-128728571D01*
X52285714Y-128823809D01*
X52285714Y-129061904D01*
X52238095Y-129157142D01*
X52190476Y-129204761D01*
X52095238Y-129252380D01*
X51809523Y-129252380D01*
X51714285Y-129204761D01*
X51666666Y-129157142D01*
X47714285Y-136804761D02*
X47857142Y-136852380D01*
X48095238Y-136852380D01*
X48190476Y-136804761D01*
X48238095Y-136757142D01*
X48285714Y-136661904D01*
X48285714Y-136566666D01*
X48238095Y-136471428D01*
X48190476Y-136423809D01*
X48095238Y-136376190D01*
X47904761Y-136328571D01*
X47809523Y-136280952D01*
X47761904Y-136233333D01*
X47714285Y-136138095D01*
X47714285Y-136042857D01*
X47761904Y-135947619D01*
X47809523Y-135900000D01*
X47904761Y-135852380D01*
X48142857Y-135852380D01*
X48285714Y-135900000D01*
X48619047Y-135852380D02*
X48857142Y-136852380D01*
X49047619Y-136138095D01*
X49238095Y-136852380D01*
X49476190Y-135852380D01*
X49809523Y-135947619D02*
X49857142Y-135900000D01*
X49952380Y-135852380D01*
X50190476Y-135852380D01*
X50285714Y-135900000D01*
X50333333Y-135947619D01*
X50380952Y-136042857D01*
X50380952Y-136138095D01*
X50333333Y-136280952D01*
X49761904Y-136852380D01*
X50380952Y-136852380D01*
X51000000Y-135852380D02*
X51095238Y-135852380D01*
X51190476Y-135900000D01*
X51238095Y-135947619D01*
X51285714Y-136042857D01*
X51333333Y-136233333D01*
X51333333Y-136471428D01*
X51285714Y-136661904D01*
X51238095Y-136757142D01*
X51190476Y-136804761D01*
X51095238Y-136852380D01*
X51000000Y-136852380D01*
X50904761Y-136804761D01*
X50857142Y-136757142D01*
X50809523Y-136661904D01*
X50761904Y-136471428D01*
X50761904Y-136233333D01*
X50809523Y-136042857D01*
X50857142Y-135947619D01*
X50904761Y-135900000D01*
X51000000Y-135852380D01*
X52190476Y-136185714D02*
X52190476Y-136852380D01*
X51952380Y-135804761D02*
X51714285Y-136519047D01*
X52333333Y-136519047D01*
X55404761Y-157285714D02*
X55452380Y-157142857D01*
X55452380Y-156904761D01*
X55404761Y-156809523D01*
X55357142Y-156761904D01*
X55261904Y-156714285D01*
X55166666Y-156714285D01*
X55071428Y-156761904D01*
X55023809Y-156809523D01*
X54976190Y-156904761D01*
X54928571Y-157095238D01*
X54880952Y-157190476D01*
X54833333Y-157238095D01*
X54738095Y-157285714D01*
X54642857Y-157285714D01*
X54547619Y-157238095D01*
X54500000Y-157190476D01*
X54452380Y-157095238D01*
X54452380Y-156857142D01*
X54500000Y-156714285D01*
X54452380Y-156380952D02*
X55452380Y-156142857D01*
X54738095Y-155952380D01*
X55452380Y-155761904D01*
X54452380Y-155523809D01*
X54547619Y-155190476D02*
X54500000Y-155142857D01*
X54452380Y-155047619D01*
X54452380Y-154809523D01*
X54500000Y-154714285D01*
X54547619Y-154666666D01*
X54642857Y-154619047D01*
X54738095Y-154619047D01*
X54880952Y-154666666D01*
X55452380Y-155238095D01*
X55452380Y-154619047D01*
X54452380Y-154000000D02*
X54452380Y-153904761D01*
X54500000Y-153809523D01*
X54547619Y-153761904D01*
X54642857Y-153714285D01*
X54833333Y-153666666D01*
X55071428Y-153666666D01*
X55261904Y-153714285D01*
X55357142Y-153761904D01*
X55404761Y-153809523D01*
X55452380Y-153904761D01*
X55452380Y-154000000D01*
X55404761Y-154095238D01*
X55357142Y-154142857D01*
X55261904Y-154190476D01*
X55071428Y-154238095D01*
X54833333Y-154238095D01*
X54642857Y-154190476D01*
X54547619Y-154142857D01*
X54500000Y-154095238D01*
X54452380Y-154000000D01*
X54452380Y-152761904D02*
X54452380Y-153238095D01*
X54928571Y-153285714D01*
X54880952Y-153238095D01*
X54833333Y-153142857D01*
X54833333Y-152904761D01*
X54880952Y-152809523D01*
X54928571Y-152761904D01*
X55023809Y-152714285D01*
X55261904Y-152714285D01*
X55357142Y-152761904D01*
X55404761Y-152809523D01*
X55452380Y-152904761D01*
X55452380Y-153142857D01*
X55404761Y-153238095D01*
X55357142Y-153285714D01*
X51404761Y-112285714D02*
X51452380Y-112142857D01*
X51452380Y-111904761D01*
X51404761Y-111809523D01*
X51357142Y-111761904D01*
X51261904Y-111714285D01*
X51166666Y-111714285D01*
X51071428Y-111761904D01*
X51023809Y-111809523D01*
X50976190Y-111904761D01*
X50928571Y-112095238D01*
X50880952Y-112190476D01*
X50833333Y-112238095D01*
X50738095Y-112285714D01*
X50642857Y-112285714D01*
X50547619Y-112238095D01*
X50500000Y-112190476D01*
X50452380Y-112095238D01*
X50452380Y-111857142D01*
X50500000Y-111714285D01*
X50452380Y-111380952D02*
X51452380Y-111142857D01*
X50738095Y-110952380D01*
X51452380Y-110761904D01*
X50452380Y-110523809D01*
X50547619Y-110190476D02*
X50500000Y-110142857D01*
X50452380Y-110047619D01*
X50452380Y-109809523D01*
X50500000Y-109714285D01*
X50547619Y-109666666D01*
X50642857Y-109619047D01*
X50738095Y-109619047D01*
X50880952Y-109666666D01*
X51452380Y-110238095D01*
X51452380Y-109619047D01*
X50452380Y-109000000D02*
X50452380Y-108904761D01*
X50500000Y-108809523D01*
X50547619Y-108761904D01*
X50642857Y-108714285D01*
X50833333Y-108666666D01*
X51071428Y-108666666D01*
X51261904Y-108714285D01*
X51357142Y-108761904D01*
X51404761Y-108809523D01*
X51452380Y-108904761D01*
X51452380Y-109000000D01*
X51404761Y-109095238D01*
X51357142Y-109142857D01*
X51261904Y-109190476D01*
X51071428Y-109238095D01*
X50833333Y-109238095D01*
X50642857Y-109190476D01*
X50547619Y-109142857D01*
X50500000Y-109095238D01*
X50452380Y-109000000D01*
X50452380Y-107809523D02*
X50452380Y-108000000D01*
X50500000Y-108095238D01*
X50547619Y-108142857D01*
X50690476Y-108238095D01*
X50880952Y-108285714D01*
X51261904Y-108285714D01*
X51357142Y-108238095D01*
X51404761Y-108190476D01*
X51452380Y-108095238D01*
X51452380Y-107904761D01*
X51404761Y-107809523D01*
X51357142Y-107761904D01*
X51261904Y-107714285D01*
X51023809Y-107714285D01*
X50928571Y-107761904D01*
X50880952Y-107809523D01*
X50833333Y-107904761D01*
X50833333Y-108095238D01*
X50880952Y-108190476D01*
X50928571Y-108238095D01*
X51023809Y-108285714D01*
X55404761Y-112285714D02*
X55452380Y-112142857D01*
X55452380Y-111904761D01*
X55404761Y-111809523D01*
X55357142Y-111761904D01*
X55261904Y-111714285D01*
X55166666Y-111714285D01*
X55071428Y-111761904D01*
X55023809Y-111809523D01*
X54976190Y-111904761D01*
X54928571Y-112095238D01*
X54880952Y-112190476D01*
X54833333Y-112238095D01*
X54738095Y-112285714D01*
X54642857Y-112285714D01*
X54547619Y-112238095D01*
X54500000Y-112190476D01*
X54452380Y-112095238D01*
X54452380Y-111857142D01*
X54500000Y-111714285D01*
X54452380Y-111380952D02*
X55452380Y-111142857D01*
X54738095Y-110952380D01*
X55452380Y-110761904D01*
X54452380Y-110523809D01*
X54547619Y-110190476D02*
X54500000Y-110142857D01*
X54452380Y-110047619D01*
X54452380Y-109809523D01*
X54500000Y-109714285D01*
X54547619Y-109666666D01*
X54642857Y-109619047D01*
X54738095Y-109619047D01*
X54880952Y-109666666D01*
X55452380Y-110238095D01*
X55452380Y-109619047D01*
X54452380Y-109000000D02*
X54452380Y-108904761D01*
X54500000Y-108809523D01*
X54547619Y-108761904D01*
X54642857Y-108714285D01*
X54833333Y-108666666D01*
X55071428Y-108666666D01*
X55261904Y-108714285D01*
X55357142Y-108761904D01*
X55404761Y-108809523D01*
X55452380Y-108904761D01*
X55452380Y-109000000D01*
X55404761Y-109095238D01*
X55357142Y-109142857D01*
X55261904Y-109190476D01*
X55071428Y-109238095D01*
X54833333Y-109238095D01*
X54642857Y-109190476D01*
X54547619Y-109142857D01*
X54500000Y-109095238D01*
X54452380Y-109000000D01*
X54452380Y-108333333D02*
X54452380Y-107666666D01*
X55452380Y-108095238D01*
X80404761Y-112285714D02*
X80452380Y-112142857D01*
X80452380Y-111904761D01*
X80404761Y-111809523D01*
X80357142Y-111761904D01*
X80261904Y-111714285D01*
X80166666Y-111714285D01*
X80071428Y-111761904D01*
X80023809Y-111809523D01*
X79976190Y-111904761D01*
X79928571Y-112095238D01*
X79880952Y-112190476D01*
X79833333Y-112238095D01*
X79738095Y-112285714D01*
X79642857Y-112285714D01*
X79547619Y-112238095D01*
X79500000Y-112190476D01*
X79452380Y-112095238D01*
X79452380Y-111857142D01*
X79500000Y-111714285D01*
X79452380Y-111380952D02*
X80452380Y-111142857D01*
X79738095Y-110952380D01*
X80452380Y-110761904D01*
X79452380Y-110523809D01*
X79547619Y-110190476D02*
X79500000Y-110142857D01*
X79452380Y-110047619D01*
X79452380Y-109809523D01*
X79500000Y-109714285D01*
X79547619Y-109666666D01*
X79642857Y-109619047D01*
X79738095Y-109619047D01*
X79880952Y-109666666D01*
X80452380Y-110238095D01*
X80452380Y-109619047D01*
X79452380Y-109000000D02*
X79452380Y-108904761D01*
X79500000Y-108809523D01*
X79547619Y-108761904D01*
X79642857Y-108714285D01*
X79833333Y-108666666D01*
X80071428Y-108666666D01*
X80261904Y-108714285D01*
X80357142Y-108761904D01*
X80404761Y-108809523D01*
X80452380Y-108904761D01*
X80452380Y-109000000D01*
X80404761Y-109095238D01*
X80357142Y-109142857D01*
X80261904Y-109190476D01*
X80071428Y-109238095D01*
X79833333Y-109238095D01*
X79642857Y-109190476D01*
X79547619Y-109142857D01*
X79500000Y-109095238D01*
X79452380Y-109000000D01*
X79880952Y-108095238D02*
X79833333Y-108190476D01*
X79785714Y-108238095D01*
X79690476Y-108285714D01*
X79642857Y-108285714D01*
X79547619Y-108238095D01*
X79500000Y-108190476D01*
X79452380Y-108095238D01*
X79452380Y-107904761D01*
X79500000Y-107809523D01*
X79547619Y-107761904D01*
X79642857Y-107714285D01*
X79690476Y-107714285D01*
X79785714Y-107761904D01*
X79833333Y-107809523D01*
X79880952Y-107904761D01*
X79880952Y-108095238D01*
X79928571Y-108190476D01*
X79976190Y-108238095D01*
X80071428Y-108285714D01*
X80261904Y-108285714D01*
X80357142Y-108238095D01*
X80404761Y-108190476D01*
X80452380Y-108095238D01*
X80452380Y-107904761D01*
X80404761Y-107809523D01*
X80357142Y-107761904D01*
X80261904Y-107714285D01*
X80071428Y-107714285D01*
X79976190Y-107761904D01*
X79928571Y-107809523D01*
X79880952Y-107904761D01*
X65604761Y-62085714D02*
X65652380Y-61942857D01*
X65652380Y-61704761D01*
X65604761Y-61609523D01*
X65557142Y-61561904D01*
X65461904Y-61514285D01*
X65366666Y-61514285D01*
X65271428Y-61561904D01*
X65223809Y-61609523D01*
X65176190Y-61704761D01*
X65128571Y-61895238D01*
X65080952Y-61990476D01*
X65033333Y-62038095D01*
X64938095Y-62085714D01*
X64842857Y-62085714D01*
X64747619Y-62038095D01*
X64700000Y-61990476D01*
X64652380Y-61895238D01*
X64652380Y-61657142D01*
X64700000Y-61514285D01*
X64652380Y-61180952D02*
X65652380Y-60942857D01*
X64938095Y-60752380D01*
X65652380Y-60561904D01*
X64652380Y-60323809D01*
X64747619Y-59990476D02*
X64700000Y-59942857D01*
X64652380Y-59847619D01*
X64652380Y-59609523D01*
X64700000Y-59514285D01*
X64747619Y-59466666D01*
X64842857Y-59419047D01*
X64938095Y-59419047D01*
X65080952Y-59466666D01*
X65652380Y-60038095D01*
X65652380Y-59419047D01*
X64652380Y-58800000D02*
X64652380Y-58704761D01*
X64700000Y-58609523D01*
X64747619Y-58561904D01*
X64842857Y-58514285D01*
X65033333Y-58466666D01*
X65271428Y-58466666D01*
X65461904Y-58514285D01*
X65557142Y-58561904D01*
X65604761Y-58609523D01*
X65652380Y-58704761D01*
X65652380Y-58800000D01*
X65604761Y-58895238D01*
X65557142Y-58942857D01*
X65461904Y-58990476D01*
X65271428Y-59038095D01*
X65033333Y-59038095D01*
X64842857Y-58990476D01*
X64747619Y-58942857D01*
X64700000Y-58895238D01*
X64652380Y-58800000D01*
X65652380Y-57990476D02*
X65652380Y-57800000D01*
X65604761Y-57704761D01*
X65557142Y-57657142D01*
X65414285Y-57561904D01*
X65223809Y-57514285D01*
X64842857Y-57514285D01*
X64747619Y-57561904D01*
X64700000Y-57609523D01*
X64652380Y-57704761D01*
X64652380Y-57895238D01*
X64700000Y-57990476D01*
X64747619Y-58038095D01*
X64842857Y-58085714D01*
X65080952Y-58085714D01*
X65176190Y-58038095D01*
X65223809Y-57990476D01*
X65271428Y-57895238D01*
X65271428Y-57704761D01*
X65223809Y-57609523D01*
X65176190Y-57561904D01*
X65080952Y-57514285D01*
X67514285Y-129204761D02*
X67657142Y-129252380D01*
X67895238Y-129252380D01*
X67990476Y-129204761D01*
X68038095Y-129157142D01*
X68085714Y-129061904D01*
X68085714Y-128966666D01*
X68038095Y-128871428D01*
X67990476Y-128823809D01*
X67895238Y-128776190D01*
X67704761Y-128728571D01*
X67609523Y-128680952D01*
X67561904Y-128633333D01*
X67514285Y-128538095D01*
X67514285Y-128442857D01*
X67561904Y-128347619D01*
X67609523Y-128300000D01*
X67704761Y-128252380D01*
X67942857Y-128252380D01*
X68085714Y-128300000D01*
X68419047Y-128252380D02*
X68657142Y-129252380D01*
X68847619Y-128538095D01*
X69038095Y-129252380D01*
X69276190Y-128252380D01*
X69609523Y-128347619D02*
X69657142Y-128300000D01*
X69752380Y-128252380D01*
X69990476Y-128252380D01*
X70085714Y-128300000D01*
X70133333Y-128347619D01*
X70180952Y-128442857D01*
X70180952Y-128538095D01*
X70133333Y-128680952D01*
X69561904Y-129252380D01*
X70180952Y-129252380D01*
X71133333Y-129252380D02*
X70561904Y-129252380D01*
X70847619Y-129252380D02*
X70847619Y-128252380D01*
X70752380Y-128395238D01*
X70657142Y-128490476D01*
X70561904Y-128538095D01*
X71752380Y-128252380D02*
X71847619Y-128252380D01*
X71942857Y-128300000D01*
X71990476Y-128347619D01*
X72038095Y-128442857D01*
X72085714Y-128633333D01*
X72085714Y-128871428D01*
X72038095Y-129061904D01*
X71990476Y-129157142D01*
X71942857Y-129204761D01*
X71847619Y-129252380D01*
X71752380Y-129252380D01*
X71657142Y-129204761D01*
X71609523Y-129157142D01*
X71561904Y-129061904D01*
X71514285Y-128871428D01*
X71514285Y-128633333D01*
X71561904Y-128442857D01*
X71609523Y-128347619D01*
X71657142Y-128300000D01*
X71752380Y-128252380D01*
X67714285Y-136654761D02*
X67857142Y-136702380D01*
X68095238Y-136702380D01*
X68190476Y-136654761D01*
X68238095Y-136607142D01*
X68285714Y-136511904D01*
X68285714Y-136416666D01*
X68238095Y-136321428D01*
X68190476Y-136273809D01*
X68095238Y-136226190D01*
X67904761Y-136178571D01*
X67809523Y-136130952D01*
X67761904Y-136083333D01*
X67714285Y-135988095D01*
X67714285Y-135892857D01*
X67761904Y-135797619D01*
X67809523Y-135750000D01*
X67904761Y-135702380D01*
X68142857Y-135702380D01*
X68285714Y-135750000D01*
X68619047Y-135702380D02*
X68857142Y-136702380D01*
X69047619Y-135988095D01*
X69238095Y-136702380D01*
X69476190Y-135702380D01*
X69809523Y-135797619D02*
X69857142Y-135750000D01*
X69952380Y-135702380D01*
X70190476Y-135702380D01*
X70285714Y-135750000D01*
X70333333Y-135797619D01*
X70380952Y-135892857D01*
X70380952Y-135988095D01*
X70333333Y-136130952D01*
X69761904Y-136702380D01*
X70380952Y-136702380D01*
X71333333Y-136702380D02*
X70761904Y-136702380D01*
X71047619Y-136702380D02*
X71047619Y-135702380D01*
X70952380Y-135845238D01*
X70857142Y-135940476D01*
X70761904Y-135988095D01*
X72285714Y-136702380D02*
X71714285Y-136702380D01*
X72000000Y-136702380D02*
X72000000Y-135702380D01*
X71904761Y-135845238D01*
X71809523Y-135940476D01*
X71714285Y-135988095D01*
X69714285Y-159404761D02*
X69857142Y-159452380D01*
X70095238Y-159452380D01*
X70190476Y-159404761D01*
X70238095Y-159357142D01*
X70285714Y-159261904D01*
X70285714Y-159166666D01*
X70238095Y-159071428D01*
X70190476Y-159023809D01*
X70095238Y-158976190D01*
X69904761Y-158928571D01*
X69809523Y-158880952D01*
X69761904Y-158833333D01*
X69714285Y-158738095D01*
X69714285Y-158642857D01*
X69761904Y-158547619D01*
X69809523Y-158500000D01*
X69904761Y-158452380D01*
X70142857Y-158452380D01*
X70285714Y-158500000D01*
X70619047Y-158452380D02*
X70857142Y-159452380D01*
X71047619Y-158738095D01*
X71238095Y-159452380D01*
X71476190Y-158452380D01*
X71809523Y-158547619D02*
X71857142Y-158500000D01*
X71952380Y-158452380D01*
X72190476Y-158452380D01*
X72285714Y-158500000D01*
X72333333Y-158547619D01*
X72380952Y-158642857D01*
X72380952Y-158738095D01*
X72333333Y-158880952D01*
X71761904Y-159452380D01*
X72380952Y-159452380D01*
X73333333Y-159452380D02*
X72761904Y-159452380D01*
X73047619Y-159452380D02*
X73047619Y-158452380D01*
X72952380Y-158595238D01*
X72857142Y-158690476D01*
X72761904Y-158738095D01*
X73714285Y-158547619D02*
X73761904Y-158500000D01*
X73857142Y-158452380D01*
X74095238Y-158452380D01*
X74190476Y-158500000D01*
X74238095Y-158547619D01*
X74285714Y-158642857D01*
X74285714Y-158738095D01*
X74238095Y-158880952D01*
X73666666Y-159452380D01*
X74285714Y-159452380D01*
X65204761Y-47085714D02*
X65252380Y-46942857D01*
X65252380Y-46704761D01*
X65204761Y-46609523D01*
X65157142Y-46561904D01*
X65061904Y-46514285D01*
X64966666Y-46514285D01*
X64871428Y-46561904D01*
X64823809Y-46609523D01*
X64776190Y-46704761D01*
X64728571Y-46895238D01*
X64680952Y-46990476D01*
X64633333Y-47038095D01*
X64538095Y-47085714D01*
X64442857Y-47085714D01*
X64347619Y-47038095D01*
X64300000Y-46990476D01*
X64252380Y-46895238D01*
X64252380Y-46657142D01*
X64300000Y-46514285D01*
X64252380Y-46180952D02*
X65252380Y-45942857D01*
X64538095Y-45752380D01*
X65252380Y-45561904D01*
X64252380Y-45323809D01*
X64347619Y-44990476D02*
X64300000Y-44942857D01*
X64252380Y-44847619D01*
X64252380Y-44609523D01*
X64300000Y-44514285D01*
X64347619Y-44466666D01*
X64442857Y-44419047D01*
X64538095Y-44419047D01*
X64680952Y-44466666D01*
X65252380Y-45038095D01*
X65252380Y-44419047D01*
X65252380Y-43466666D02*
X65252380Y-44038095D01*
X65252380Y-43752380D02*
X64252380Y-43752380D01*
X64395238Y-43847619D01*
X64490476Y-43942857D01*
X64538095Y-44038095D01*
X64252380Y-43133333D02*
X64252380Y-42514285D01*
X64633333Y-42847619D01*
X64633333Y-42704761D01*
X64680952Y-42609523D01*
X64728571Y-42561904D01*
X64823809Y-42514285D01*
X65061904Y-42514285D01*
X65157142Y-42561904D01*
X65204761Y-42609523D01*
X65252380Y-42704761D01*
X65252380Y-42990476D01*
X65204761Y-43085714D01*
X65157142Y-43133333D01*
X80804761Y-62085714D02*
X80852380Y-61942857D01*
X80852380Y-61704761D01*
X80804761Y-61609523D01*
X80757142Y-61561904D01*
X80661904Y-61514285D01*
X80566666Y-61514285D01*
X80471428Y-61561904D01*
X80423809Y-61609523D01*
X80376190Y-61704761D01*
X80328571Y-61895238D01*
X80280952Y-61990476D01*
X80233333Y-62038095D01*
X80138095Y-62085714D01*
X80042857Y-62085714D01*
X79947619Y-62038095D01*
X79900000Y-61990476D01*
X79852380Y-61895238D01*
X79852380Y-61657142D01*
X79900000Y-61514285D01*
X79852380Y-61180952D02*
X80852380Y-60942857D01*
X80138095Y-60752380D01*
X80852380Y-60561904D01*
X79852380Y-60323809D01*
X79947619Y-59990476D02*
X79900000Y-59942857D01*
X79852380Y-59847619D01*
X79852380Y-59609523D01*
X79900000Y-59514285D01*
X79947619Y-59466666D01*
X80042857Y-59419047D01*
X80138095Y-59419047D01*
X80280952Y-59466666D01*
X80852380Y-60038095D01*
X80852380Y-59419047D01*
X80852380Y-58466666D02*
X80852380Y-59038095D01*
X80852380Y-58752380D02*
X79852380Y-58752380D01*
X79995238Y-58847619D01*
X80090476Y-58942857D01*
X80138095Y-59038095D01*
X80185714Y-57609523D02*
X80852380Y-57609523D01*
X79804761Y-57847619D02*
X80519047Y-58085714D01*
X80519047Y-57466666D01*
X74285714Y-82552380D02*
X74285714Y-83361904D01*
X74333333Y-83457142D01*
X74380952Y-83504761D01*
X74476190Y-83552380D01*
X74666666Y-83552380D01*
X74761904Y-83504761D01*
X74809523Y-83457142D01*
X74857142Y-83361904D01*
X74857142Y-82552380D01*
X75238095Y-82552380D02*
X75857142Y-82552380D01*
X75523809Y-82933333D01*
X75666666Y-82933333D01*
X75761904Y-82980952D01*
X75809523Y-83028571D01*
X75857142Y-83123809D01*
X75857142Y-83361904D01*
X75809523Y-83457142D01*
X75761904Y-83504761D01*
X75666666Y-83552380D01*
X75380952Y-83552380D01*
X75285714Y-83504761D01*
X75238095Y-83457142D01*
X76476190Y-82552380D02*
X76571428Y-82552380D01*
X76666666Y-82600000D01*
X76714285Y-82647619D01*
X76761904Y-82742857D01*
X76809523Y-82933333D01*
X76809523Y-83171428D01*
X76761904Y-83361904D01*
X76714285Y-83457142D01*
X76666666Y-83504761D01*
X76571428Y-83552380D01*
X76476190Y-83552380D01*
X76380952Y-83504761D01*
X76333333Y-83457142D01*
X76285714Y-83361904D01*
X76238095Y-83171428D01*
X76238095Y-82933333D01*
X76285714Y-82742857D01*
X76333333Y-82647619D01*
X76380952Y-82600000D01*
X76476190Y-82552380D01*
X77761904Y-83552380D02*
X77190476Y-83552380D01*
X77476190Y-83552380D02*
X77476190Y-82552380D01*
X77380952Y-82695238D01*
X77285714Y-82790476D01*
X77190476Y-82838095D01*
X38285714Y-36252380D02*
X38285714Y-35252380D01*
X38285714Y-35728571D02*
X38857142Y-35728571D01*
X38857142Y-36252380D02*
X38857142Y-35252380D01*
X39857142Y-36252380D02*
X39285714Y-36252380D01*
X39571428Y-36252380D02*
X39571428Y-35252380D01*
X39476190Y-35395238D01*
X39380952Y-35490476D01*
X39285714Y-35538095D01*
X40476190Y-35252380D02*
X40571428Y-35252380D01*
X40666666Y-35300000D01*
X40714285Y-35347619D01*
X40761904Y-35442857D01*
X40809523Y-35633333D01*
X40809523Y-35871428D01*
X40761904Y-36061904D01*
X40714285Y-36157142D01*
X40666666Y-36204761D01*
X40571428Y-36252380D01*
X40476190Y-36252380D01*
X40380952Y-36204761D01*
X40333333Y-36157142D01*
X40285714Y-36061904D01*
X40238095Y-35871428D01*
X40238095Y-35633333D01*
X40285714Y-35442857D01*
X40333333Y-35347619D01*
X40380952Y-35300000D01*
X40476190Y-35252380D01*
X41761904Y-36252380D02*
X41190476Y-36252380D01*
X41476190Y-36252380D02*
X41476190Y-35252380D01*
X41380952Y-35395238D01*
X41285714Y-35490476D01*
X41190476Y-35538095D01*
X78285714Y-36252380D02*
X78285714Y-35252380D01*
X78285714Y-35728571D02*
X78857142Y-35728571D01*
X78857142Y-36252380D02*
X78857142Y-35252380D01*
X79857142Y-36252380D02*
X79285714Y-36252380D01*
X79571428Y-36252380D02*
X79571428Y-35252380D01*
X79476190Y-35395238D01*
X79380952Y-35490476D01*
X79285714Y-35538095D01*
X80476190Y-35252380D02*
X80571428Y-35252380D01*
X80666666Y-35300000D01*
X80714285Y-35347619D01*
X80761904Y-35442857D01*
X80809523Y-35633333D01*
X80809523Y-35871428D01*
X80761904Y-36061904D01*
X80714285Y-36157142D01*
X80666666Y-36204761D01*
X80571428Y-36252380D01*
X80476190Y-36252380D01*
X80380952Y-36204761D01*
X80333333Y-36157142D01*
X80285714Y-36061904D01*
X80238095Y-35871428D01*
X80238095Y-35633333D01*
X80285714Y-35442857D01*
X80333333Y-35347619D01*
X80380952Y-35300000D01*
X80476190Y-35252380D01*
X81190476Y-35347619D02*
X81238095Y-35300000D01*
X81333333Y-35252380D01*
X81571428Y-35252380D01*
X81666666Y-35300000D01*
X81714285Y-35347619D01*
X81761904Y-35442857D01*
X81761904Y-35538095D01*
X81714285Y-35680952D01*
X81142857Y-36252380D01*
X81761904Y-36252380D01*
X38285714Y-156252380D02*
X38285714Y-155252380D01*
X38285714Y-155728571D02*
X38857142Y-155728571D01*
X38857142Y-156252380D02*
X38857142Y-155252380D01*
X39857142Y-156252380D02*
X39285714Y-156252380D01*
X39571428Y-156252380D02*
X39571428Y-155252380D01*
X39476190Y-155395238D01*
X39380952Y-155490476D01*
X39285714Y-155538095D01*
X40476190Y-155252380D02*
X40571428Y-155252380D01*
X40666666Y-155300000D01*
X40714285Y-155347619D01*
X40761904Y-155442857D01*
X40809523Y-155633333D01*
X40809523Y-155871428D01*
X40761904Y-156061904D01*
X40714285Y-156157142D01*
X40666666Y-156204761D01*
X40571428Y-156252380D01*
X40476190Y-156252380D01*
X40380952Y-156204761D01*
X40333333Y-156157142D01*
X40285714Y-156061904D01*
X40238095Y-155871428D01*
X40238095Y-155633333D01*
X40285714Y-155442857D01*
X40333333Y-155347619D01*
X40380952Y-155300000D01*
X40476190Y-155252380D01*
X41142857Y-155252380D02*
X41761904Y-155252380D01*
X41428571Y-155633333D01*
X41571428Y-155633333D01*
X41666666Y-155680952D01*
X41714285Y-155728571D01*
X41761904Y-155823809D01*
X41761904Y-156061904D01*
X41714285Y-156157142D01*
X41666666Y-156204761D01*
X41571428Y-156252380D01*
X41285714Y-156252380D01*
X41190476Y-156204761D01*
X41142857Y-156157142D01*
X78285714Y-156252380D02*
X78285714Y-155252380D01*
X78285714Y-155728571D02*
X78857142Y-155728571D01*
X78857142Y-156252380D02*
X78857142Y-155252380D01*
X79857142Y-156252380D02*
X79285714Y-156252380D01*
X79571428Y-156252380D02*
X79571428Y-155252380D01*
X79476190Y-155395238D01*
X79380952Y-155490476D01*
X79285714Y-155538095D01*
X80476190Y-155252380D02*
X80571428Y-155252380D01*
X80666666Y-155300000D01*
X80714285Y-155347619D01*
X80761904Y-155442857D01*
X80809523Y-155633333D01*
X80809523Y-155871428D01*
X80761904Y-156061904D01*
X80714285Y-156157142D01*
X80666666Y-156204761D01*
X80571428Y-156252380D01*
X80476190Y-156252380D01*
X80380952Y-156204761D01*
X80333333Y-156157142D01*
X80285714Y-156061904D01*
X80238095Y-155871428D01*
X80238095Y-155633333D01*
X80285714Y-155442857D01*
X80333333Y-155347619D01*
X80380952Y-155300000D01*
X80476190Y-155252380D01*
X81666666Y-155585714D02*
X81666666Y-156252380D01*
X81428571Y-155204761D02*
X81190476Y-155919047D01*
X81809523Y-155919047D01*
M02*
