G04 #@! TF.GenerationSoftware,KiCad,Pcbnew,(5.1.5)-3*
G04 #@! TF.CreationDate,2020-06-22T20:22:27+02:00*
G04 #@! TF.ProjectId,Mupi,4d757069-2e6b-4696-9361-645f70636258,rev?*
G04 #@! TF.SameCoordinates,Original*
G04 #@! TF.FileFunction,Copper,L2,Bot*
G04 #@! TF.FilePolarity,Positive*
%FSLAX46Y46*%
G04 Gerber Fmt 4.6, Leading zero omitted, Abs format (unit mm)*
G04 Created by KiCad (PCBNEW (5.1.5)-3) date 2020-06-22 20:22:27*
%MOMM*%
%LPD*%
G04 APERTURE LIST*
%ADD10R,1.600000X1.600000*%
%ADD11O,1.600000X1.600000*%
%ADD12R,1.800000X1.800000*%
%ADD13C,1.800000*%
%ADD14R,2.200000X2.200000*%
%ADD15C,2.200000*%
%ADD16R,2.500000X3.000000*%
%ADD17C,2.000000*%
%ADD18R,2.000000X2.000000*%
%ADD19C,0.800000*%
%ADD20C,6.400000*%
%ADD21C,0.300000*%
%ADD22C,0.600000*%
%ADD23C,0.254000*%
G04 APERTURE END LIST*
D10*
X78688000Y-131774000D03*
D11*
X45668000Y-116534000D03*
X76148000Y-131774000D03*
X48208000Y-116534000D03*
X73608000Y-131774000D03*
X50748000Y-116534000D03*
X71068000Y-131774000D03*
X53288000Y-116534000D03*
X68528000Y-131774000D03*
X55828000Y-116534000D03*
X65988000Y-131774000D03*
X58368000Y-116534000D03*
X63448000Y-131774000D03*
X60908000Y-116534000D03*
X60908000Y-131774000D03*
X63448000Y-116534000D03*
X58368000Y-131774000D03*
X65988000Y-116534000D03*
X55828000Y-131774000D03*
X68528000Y-116534000D03*
X53288000Y-131774000D03*
X71068000Y-116534000D03*
X50748000Y-131774000D03*
X73608000Y-116534000D03*
X48208000Y-131774000D03*
X76148000Y-116534000D03*
X45668000Y-131774000D03*
X78688000Y-116534000D03*
X43128000Y-131774000D03*
X43128000Y-116534000D03*
D12*
X40000000Y-50000000D03*
D13*
X40000000Y-47460000D03*
D12*
X80000000Y-50000000D03*
D13*
X80000000Y-47460000D03*
X45000000Y-100000000D03*
D12*
X45000000Y-102540000D03*
D13*
X60000000Y-99960000D03*
D12*
X60000000Y-102500000D03*
X75000000Y-102500000D03*
D13*
X75000000Y-99960000D03*
X40000000Y-137460000D03*
D12*
X40000000Y-140000000D03*
X80000000Y-140000000D03*
D13*
X80000000Y-137460000D03*
D14*
X67500000Y-160000000D03*
D15*
X64960000Y-160000000D03*
X62420000Y-160000000D03*
X59880000Y-160000000D03*
X57340000Y-160000000D03*
X54800000Y-160000000D03*
D16*
X65600000Y-82500000D03*
X54400000Y-82500000D03*
D17*
X62500000Y-90000000D03*
X60000000Y-90000000D03*
D18*
X57500000Y-90000000D03*
D19*
X41697056Y-38302944D03*
X40000000Y-37600000D03*
X38302944Y-38302944D03*
X37600000Y-40000000D03*
X38302944Y-41697056D03*
X40000000Y-42400000D03*
X41697056Y-41697056D03*
X42400000Y-40000000D03*
D20*
X40000000Y-40000000D03*
X80000000Y-40000000D03*
D19*
X82400000Y-40000000D03*
X81697056Y-41697056D03*
X80000000Y-42400000D03*
X78302944Y-41697056D03*
X77600000Y-40000000D03*
X78302944Y-38302944D03*
X80000000Y-37600000D03*
X81697056Y-38302944D03*
X41697056Y-158302944D03*
X40000000Y-157600000D03*
X38302944Y-158302944D03*
X37600000Y-160000000D03*
X38302944Y-161697056D03*
X40000000Y-162400000D03*
X41697056Y-161697056D03*
X42400000Y-160000000D03*
D20*
X40000000Y-160000000D03*
X80000000Y-160000000D03*
D19*
X82400000Y-160000000D03*
X81697056Y-161697056D03*
X80000000Y-162400000D03*
X78302944Y-161697056D03*
X77600000Y-160000000D03*
X78302944Y-158302944D03*
X80000000Y-157600000D03*
X81697056Y-158302944D03*
X55828000Y-121614000D03*
X55828000Y-125678000D03*
X58368000Y-134568000D03*
X41000000Y-53000000D03*
X72000000Y-55000000D03*
X49000000Y-68000000D03*
X58000000Y-70000000D03*
X77000000Y-70000000D03*
X58114000Y-95960000D03*
X41604000Y-76910000D03*
X41604000Y-78434000D03*
X41604000Y-80212000D03*
X54812000Y-76910000D03*
X54812000Y-78434000D03*
X54812000Y-79958000D03*
X78434000Y-83514000D03*
X41350000Y-120090000D03*
X67004000Y-112978000D03*
X62940000Y-150824000D03*
X64718000Y-149046000D03*
X45668000Y-148284000D03*
X45668000Y-148284000D03*
X45668000Y-151586000D03*
X45668000Y-150424003D03*
X76910002Y-92150000D03*
X42786635Y-127120260D03*
X48000000Y-64000000D03*
X63000000Y-121000000D03*
X51000000Y-125000000D03*
X48000000Y-125000000D03*
X51256000Y-139648000D03*
X81228000Y-129234000D03*
X75894000Y-93674000D03*
X77164000Y-120598000D03*
X75386000Y-112216000D03*
X57000000Y-48000000D03*
X57000000Y-52000000D03*
X60000000Y-57000000D03*
X80000000Y-79000000D03*
X69000000Y-75000000D03*
X55000000Y-145000000D03*
X55188001Y-128726000D03*
X66496000Y-147014000D03*
X53034000Y-97230000D03*
X69543996Y-122884000D03*
X49986000Y-70052000D03*
X54304000Y-97496000D03*
X68274000Y-121868000D03*
X52018000Y-70814000D03*
X56336000Y-119836000D03*
X81735996Y-89610000D03*
X52850051Y-71564000D03*
X80974000Y-88848000D03*
X52018002Y-55574000D03*
X78688000Y-124154000D03*
X80212000Y-90880000D03*
X50748000Y-55574000D03*
X76148000Y-124916000D03*
X48716000Y-139140000D03*
X65000000Y-154000000D03*
X45414000Y-49986000D03*
X76402000Y-80720000D03*
X76148000Y-51764000D03*
X73608000Y-81736000D03*
X76148000Y-87832000D03*
X60400000Y-140664006D03*
X77418000Y-123392000D03*
X75132000Y-90880000D03*
D21*
X55828000Y-121454002D02*
X55828000Y-121614000D01*
X58368000Y-116534000D02*
X58368000Y-118914002D01*
X58368000Y-118914002D02*
X55828000Y-121454002D01*
X56978001Y-133178001D02*
X58368000Y-134568000D01*
X55828000Y-125678000D02*
X56978001Y-126828001D01*
X56978001Y-126828001D02*
X56978001Y-133178001D01*
D22*
X72000000Y-55000000D02*
X54000000Y-55000000D01*
X54000000Y-55000000D02*
X53000000Y-54000000D01*
X53000000Y-54000000D02*
X41000000Y-54000000D01*
X41000000Y-54000000D02*
X41000000Y-53000000D01*
X49000000Y-68000000D02*
X49000000Y-69000000D01*
X49000000Y-69000000D02*
X48000000Y-70000000D01*
X48000000Y-70000000D02*
X41000000Y-70000000D01*
X58000000Y-70000000D02*
X77000000Y-70000000D01*
X58513999Y-95560001D02*
X68673999Y-95560001D01*
X58114000Y-95960000D02*
X58513999Y-95560001D01*
X78434000Y-83514000D02*
X73100000Y-83514000D01*
X67004000Y-112978000D02*
X71068000Y-112978000D01*
X71068000Y-116534000D02*
X71068000Y-112978000D01*
X71068000Y-112978000D02*
X71068000Y-105612000D01*
X62940000Y-150824000D02*
X64718000Y-149046000D01*
X73000000Y-92000000D02*
X73150000Y-92150000D01*
X76344317Y-92150000D02*
X76910002Y-92150000D01*
X73150000Y-92150000D02*
X76344317Y-92150000D01*
X42786635Y-127120260D02*
X41120260Y-127120260D01*
D21*
X60908000Y-147014000D02*
X66496000Y-147014000D01*
X59638000Y-145744000D02*
X60908000Y-147014000D01*
X54677999Y-129236002D02*
X54677999Y-134488879D01*
X54677999Y-134488879D02*
X59649999Y-139460879D01*
X59638000Y-142973998D02*
X59638000Y-145744000D01*
X55188001Y-128726000D02*
X54677999Y-129236002D01*
X59649999Y-139460879D02*
X59649999Y-142961999D01*
X59649999Y-142961999D02*
X59638000Y-142973998D01*
X53034000Y-97230000D02*
X53034000Y-97795685D01*
X53034000Y-97795685D02*
X52780000Y-98049685D01*
X65734000Y-122884000D02*
X68978311Y-122884000D01*
X68978311Y-122884000D02*
X69543996Y-122884000D01*
X55480220Y-114263980D02*
X63717980Y-114263980D01*
X64598001Y-121748001D02*
X65734000Y-122884000D01*
X63717980Y-114263980D02*
X64598001Y-115144001D01*
X64598001Y-115144001D02*
X64598001Y-121748001D01*
X52780000Y-111563760D02*
X55480220Y-114263980D01*
X52780000Y-98049685D02*
X52780000Y-111563760D01*
X50748000Y-129742000D02*
X50748000Y-131774000D01*
X49597999Y-128591999D02*
X50748000Y-129742000D01*
X49986000Y-71568010D02*
X50247990Y-71830000D01*
X49986000Y-70052000D02*
X49986000Y-71568010D01*
X50247990Y-71830000D02*
X50247990Y-111954010D01*
X50247990Y-111954010D02*
X49597999Y-112604001D01*
X49597999Y-112604001D02*
X49597999Y-128591999D01*
X67258000Y-116101998D02*
X67258000Y-120598000D01*
X53280010Y-98519990D02*
X53280010Y-111356650D01*
X55663360Y-113740000D02*
X64896002Y-113740000D01*
X54304000Y-97496000D02*
X53280010Y-98519990D01*
X53280010Y-111356650D02*
X55663360Y-113740000D01*
X64896002Y-113740000D02*
X67258000Y-116101998D01*
X67258000Y-120598000D02*
X67258000Y-120852000D01*
X67258000Y-120852000D02*
X68274000Y-121868000D01*
X51764000Y-111184020D02*
X51748020Y-111200000D01*
X51764000Y-71633685D02*
X51764000Y-111184020D01*
X52018000Y-70814000D02*
X52018000Y-71379685D01*
X52018000Y-71379685D02*
X51764000Y-71633685D01*
X51764000Y-111962000D02*
X55066000Y-115264000D01*
X51764000Y-111184020D02*
X51764000Y-111962000D01*
X56260002Y-115264000D02*
X56978001Y-115981999D01*
X55066000Y-115264000D02*
X56260002Y-115264000D01*
X56978001Y-115981999D02*
X56978001Y-117086001D01*
X56336000Y-119270315D02*
X56336000Y-119836000D01*
X56336000Y-117818002D02*
X56336000Y-119270315D01*
X56978001Y-117176001D02*
X56336000Y-117818002D01*
X63448000Y-131774000D02*
X63448000Y-130642630D01*
X63448000Y-130642630D02*
X63448000Y-128726000D01*
X63448000Y-128726000D02*
X63448000Y-127710000D01*
X63448000Y-127710000D02*
X64464000Y-126694000D01*
X64464000Y-126694000D02*
X80720000Y-126694000D01*
X80720000Y-126694000D02*
X81736000Y-125678000D01*
X81736000Y-125678000D02*
X81736000Y-89610000D01*
X52264010Y-72150041D02*
X52264010Y-111754890D01*
X63448000Y-115518000D02*
X63448000Y-116534000D01*
X52850051Y-71564000D02*
X52264010Y-72150041D01*
X55273110Y-114763990D02*
X62947990Y-114763990D01*
X63448000Y-115264000D02*
X63448000Y-115518000D01*
X52264010Y-111754890D02*
X55273110Y-114763990D01*
X62947990Y-114763990D02*
X63448000Y-115264000D01*
X81235990Y-90379990D02*
X80974000Y-90118000D01*
X80974000Y-89413685D02*
X80974000Y-88848000D01*
X80466000Y-126186000D02*
X81235990Y-125416010D01*
X60908000Y-131774000D02*
X60908000Y-127456000D01*
X81235990Y-125416010D02*
X81235990Y-90379990D01*
X80974000Y-90118000D02*
X80974000Y-89413685D01*
X60908000Y-127456000D02*
X62178000Y-126186000D01*
X62178000Y-126186000D02*
X80466000Y-126186000D01*
X52018002Y-55574000D02*
X51248010Y-56343992D01*
X51248010Y-56343992D02*
X51248010Y-112407132D01*
X51248010Y-112407132D02*
X54558000Y-115717122D01*
X54558000Y-122724002D02*
X55987998Y-124154000D01*
X55987998Y-124154000D02*
X78122315Y-124154000D01*
X54558000Y-115717122D02*
X54558000Y-122724002D01*
X78122315Y-124154000D02*
X78688000Y-124154000D01*
X80735980Y-91403980D02*
X80212000Y-90880000D01*
X58368000Y-127456000D02*
X60146000Y-125678000D01*
X58368000Y-131774000D02*
X58368000Y-127456000D01*
X60146000Y-125678000D02*
X80212000Y-125678000D01*
X80212000Y-125678000D02*
X80735980Y-125154020D01*
X80735980Y-125154020D02*
X80735980Y-91403980D01*
X50748000Y-55574000D02*
X50748000Y-114502000D01*
X52137999Y-115891999D02*
X52137999Y-122495999D01*
X50748000Y-114502000D02*
X52137999Y-115891999D01*
X52137999Y-122495999D02*
X54558000Y-124916000D01*
X54558000Y-124916000D02*
X76148000Y-124916000D01*
X57606000Y-140791000D02*
X55447000Y-138632000D01*
X49224000Y-138632000D02*
X48716000Y-139140000D01*
X55447000Y-138632000D02*
X49224000Y-138632000D01*
X57340000Y-160000000D02*
X57606000Y-159734000D01*
X57606000Y-159734000D02*
X57606000Y-140791000D01*
X45668000Y-135668000D02*
X45668000Y-132312000D01*
X55713560Y-137000000D02*
X47000000Y-137000000D01*
X62420000Y-158444366D02*
X61000000Y-157024366D01*
X58622000Y-139908440D02*
X55713560Y-137000000D01*
X61000000Y-157024366D02*
X61000000Y-157000000D01*
X47000000Y-137000000D02*
X45668000Y-135668000D01*
X61000000Y-157000000D02*
X58622000Y-154622000D01*
X62420000Y-160000000D02*
X62420000Y-158444366D01*
X58622000Y-154622000D02*
X58622000Y-139908440D01*
X43128000Y-134128000D02*
X43128000Y-132312000D01*
X47000000Y-138000000D02*
X43128000Y-134128000D01*
X59880000Y-157880000D02*
X58114000Y-156114000D01*
X58114000Y-140406880D02*
X55707120Y-138000000D01*
X59880000Y-160000000D02*
X59880000Y-157880000D01*
X58114000Y-156114000D02*
X58114000Y-140406880D01*
X55707120Y-138000000D02*
X47000000Y-138000000D01*
X43440000Y-126752000D02*
X43440000Y-116760000D01*
X46938000Y-130250000D02*
X43440000Y-126752000D01*
X46938000Y-135330000D02*
X46938000Y-130250000D01*
X64960000Y-157924000D02*
X59130000Y-152094000D01*
X47954000Y-136346000D02*
X46938000Y-135330000D01*
X55828000Y-136346000D02*
X47954000Y-136346000D01*
X59130000Y-152094000D02*
X59130000Y-139648000D01*
X64960000Y-160000000D02*
X64960000Y-157924000D01*
X59130000Y-139648000D02*
X55828000Y-136346000D01*
D22*
X67500000Y-160000000D02*
X67500000Y-156500000D01*
X67500000Y-156500000D02*
X65000000Y-154000000D01*
D21*
X73100000Y-49986000D02*
X45414000Y-49986000D01*
X75640000Y-52526000D02*
X73100000Y-49986000D01*
X81482000Y-80720000D02*
X82244000Y-79958000D01*
X76402000Y-80720000D02*
X81482000Y-80720000D01*
X82244000Y-79958000D02*
X82244000Y-53288000D01*
X82244000Y-53288000D02*
X81482000Y-52526000D01*
X81482000Y-52526000D02*
X75640000Y-52526000D01*
X76148000Y-51764000D02*
X81736000Y-51764000D01*
X81736000Y-51764000D02*
X82752000Y-52780000D01*
X82752000Y-52780000D02*
X82752000Y-80974000D01*
X82752000Y-80974000D02*
X81990000Y-81736000D01*
X81990000Y-81736000D02*
X73608000Y-81736000D01*
X65480000Y-127202000D02*
X64598001Y-128083999D01*
X81736000Y-87832000D02*
X82752000Y-88848000D01*
X82752000Y-88848000D02*
X82752000Y-125369120D01*
X60799999Y-140264007D02*
X60400000Y-140664006D01*
X76148000Y-87832000D02*
X81736000Y-87832000D01*
X64598001Y-128083999D02*
X64598001Y-136466005D01*
X82752000Y-125369120D02*
X80919120Y-127202000D01*
X80919120Y-127202000D02*
X65480000Y-127202000D01*
X64598001Y-136466005D02*
X60799999Y-140264007D01*
X75697685Y-90880000D02*
X75132000Y-90880000D01*
X80235970Y-92681970D02*
X78434000Y-90880000D01*
X77418000Y-123392000D02*
X80235970Y-120574030D01*
X80235970Y-120574030D02*
X80235970Y-92681970D01*
X78434000Y-90880000D02*
X75697685Y-90880000D01*
D23*
G36*
X83873000Y-163873000D02*
G01*
X36127000Y-163873000D01*
X36127000Y-162700881D01*
X37478724Y-162700881D01*
X37838912Y-163190548D01*
X38502882Y-163550849D01*
X39224385Y-163774694D01*
X39975695Y-163853480D01*
X40727938Y-163784178D01*
X41452208Y-163569452D01*
X42120670Y-163217555D01*
X42161088Y-163190548D01*
X42521276Y-162700881D01*
X77478724Y-162700881D01*
X77838912Y-163190548D01*
X78502882Y-163550849D01*
X79224385Y-163774694D01*
X79975695Y-163853480D01*
X80727938Y-163784178D01*
X81452208Y-163569452D01*
X82120670Y-163217555D01*
X82161088Y-163190548D01*
X82521276Y-162700881D01*
X80000000Y-160179605D01*
X77478724Y-162700881D01*
X42521276Y-162700881D01*
X40000000Y-160179605D01*
X37478724Y-162700881D01*
X36127000Y-162700881D01*
X36127000Y-159975695D01*
X36146520Y-159975695D01*
X36215822Y-160727938D01*
X36430548Y-161452208D01*
X36782445Y-162120670D01*
X36809452Y-162161088D01*
X37299119Y-162521276D01*
X39820395Y-160000000D01*
X40179605Y-160000000D01*
X42700881Y-162521276D01*
X43190548Y-162161088D01*
X43550849Y-161497118D01*
X43640946Y-161206712D01*
X53772893Y-161206712D01*
X53880726Y-161481338D01*
X54187384Y-161632216D01*
X54517585Y-161720369D01*
X54858639Y-161742409D01*
X55197439Y-161697489D01*
X55520966Y-161587336D01*
X55719274Y-161481338D01*
X55827107Y-161206712D01*
X54800000Y-160179605D01*
X53772893Y-161206712D01*
X43640946Y-161206712D01*
X43774694Y-160775615D01*
X43849879Y-160058639D01*
X53057591Y-160058639D01*
X53102511Y-160397439D01*
X53212664Y-160720966D01*
X53318662Y-160919274D01*
X53593288Y-161027107D01*
X54620395Y-160000000D01*
X53593288Y-158972893D01*
X53318662Y-159080726D01*
X53167784Y-159387384D01*
X53079631Y-159717585D01*
X53057591Y-160058639D01*
X43849879Y-160058639D01*
X43853480Y-160024305D01*
X43784178Y-159272062D01*
X43642235Y-158793288D01*
X53772893Y-158793288D01*
X54800000Y-159820395D01*
X55827107Y-158793288D01*
X55719274Y-158518662D01*
X55412616Y-158367784D01*
X55082415Y-158279631D01*
X54741361Y-158257591D01*
X54402561Y-158302511D01*
X54079034Y-158412664D01*
X53880726Y-158518662D01*
X53772893Y-158793288D01*
X43642235Y-158793288D01*
X43569452Y-158547792D01*
X43217555Y-157879330D01*
X43190548Y-157838912D01*
X42700881Y-157478724D01*
X40179605Y-160000000D01*
X39820395Y-160000000D01*
X37299119Y-157478724D01*
X36809452Y-157838912D01*
X36449151Y-158502882D01*
X36225306Y-159224385D01*
X36146520Y-159975695D01*
X36127000Y-159975695D01*
X36127000Y-157299119D01*
X37478724Y-157299119D01*
X40000000Y-159820395D01*
X42521276Y-157299119D01*
X42161088Y-156809452D01*
X41497118Y-156449151D01*
X40775615Y-156225306D01*
X40024305Y-156146520D01*
X39272062Y-156215822D01*
X38547792Y-156430548D01*
X37879330Y-156782445D01*
X37838912Y-156809452D01*
X37478724Y-157299119D01*
X36127000Y-157299119D01*
X36127000Y-52000000D01*
X36365000Y-52000000D01*
X36365000Y-155000000D01*
X36377201Y-155123882D01*
X36413336Y-155243004D01*
X36472017Y-155352787D01*
X36550987Y-155449013D01*
X36647213Y-155527983D01*
X36756996Y-155586664D01*
X36876118Y-155622799D01*
X37000000Y-155635000D01*
X46430000Y-155635000D01*
X46553882Y-155622799D01*
X46673004Y-155586664D01*
X46782787Y-155527983D01*
X46879013Y-155449013D01*
X46957983Y-155352787D01*
X47016664Y-155243004D01*
X47052799Y-155123882D01*
X47065000Y-155000000D01*
X47065000Y-147776000D01*
X47038251Y-147593640D01*
X43422131Y-135532288D01*
X46417658Y-138527816D01*
X46442236Y-138557764D01*
X46472184Y-138582342D01*
X46472187Y-138582345D01*
X46501559Y-138606450D01*
X46561767Y-138655862D01*
X46698140Y-138728754D01*
X46846113Y-138773642D01*
X46921026Y-138781020D01*
X46961439Y-138785000D01*
X46961444Y-138785000D01*
X47000000Y-138788797D01*
X47038556Y-138785000D01*
X47742770Y-138785000D01*
X47720774Y-138838102D01*
X47681000Y-139038061D01*
X47681000Y-139241939D01*
X47720774Y-139441898D01*
X47798795Y-139630256D01*
X47912063Y-139799774D01*
X48056226Y-139943937D01*
X48225744Y-140057205D01*
X48414102Y-140135226D01*
X48614061Y-140175000D01*
X48817939Y-140175000D01*
X49017898Y-140135226D01*
X49206256Y-140057205D01*
X49375774Y-139943937D01*
X49519937Y-139799774D01*
X49633205Y-139630256D01*
X49711226Y-139441898D01*
X49716178Y-139417000D01*
X55121843Y-139417000D01*
X56821001Y-141116159D01*
X56821000Y-158337026D01*
X56518169Y-158462463D01*
X56234002Y-158652337D01*
X55992337Y-158894002D01*
X55804531Y-159175074D01*
X54979605Y-160000000D01*
X55804531Y-160824926D01*
X55992337Y-161105998D01*
X56234002Y-161347663D01*
X56518169Y-161537537D01*
X56833919Y-161668325D01*
X57169117Y-161735000D01*
X57510883Y-161735000D01*
X57846081Y-161668325D01*
X58161831Y-161537537D01*
X58445998Y-161347663D01*
X58610000Y-161183661D01*
X58774002Y-161347663D01*
X59058169Y-161537537D01*
X59373919Y-161668325D01*
X59709117Y-161735000D01*
X60050883Y-161735000D01*
X60386081Y-161668325D01*
X60701831Y-161537537D01*
X60985998Y-161347663D01*
X61150000Y-161183661D01*
X61314002Y-161347663D01*
X61598169Y-161537537D01*
X61913919Y-161668325D01*
X62249117Y-161735000D01*
X62590883Y-161735000D01*
X62926081Y-161668325D01*
X63241831Y-161537537D01*
X63525998Y-161347663D01*
X63690000Y-161183661D01*
X63854002Y-161347663D01*
X64138169Y-161537537D01*
X64453919Y-161668325D01*
X64789117Y-161735000D01*
X65130883Y-161735000D01*
X65466081Y-161668325D01*
X65781831Y-161537537D01*
X65882443Y-161470310D01*
X65948815Y-161551185D01*
X66045506Y-161630537D01*
X66155820Y-161689502D01*
X66275518Y-161725812D01*
X66400000Y-161738072D01*
X68600000Y-161738072D01*
X68724482Y-161725812D01*
X68844180Y-161689502D01*
X68954494Y-161630537D01*
X69051185Y-161551185D01*
X69130537Y-161454494D01*
X69189502Y-161344180D01*
X69225812Y-161224482D01*
X69238072Y-161100000D01*
X69238072Y-159975695D01*
X76146520Y-159975695D01*
X76215822Y-160727938D01*
X76430548Y-161452208D01*
X76782445Y-162120670D01*
X76809452Y-162161088D01*
X77299119Y-162521276D01*
X79820395Y-160000000D01*
X80179605Y-160000000D01*
X82700881Y-162521276D01*
X83190548Y-162161088D01*
X83550849Y-161497118D01*
X83774694Y-160775615D01*
X83853480Y-160024305D01*
X83784178Y-159272062D01*
X83569452Y-158547792D01*
X83217555Y-157879330D01*
X83190548Y-157838912D01*
X82700881Y-157478724D01*
X80179605Y-160000000D01*
X79820395Y-160000000D01*
X77299119Y-157478724D01*
X76809452Y-157838912D01*
X76449151Y-158502882D01*
X76225306Y-159224385D01*
X76146520Y-159975695D01*
X69238072Y-159975695D01*
X69238072Y-158900000D01*
X69225812Y-158775518D01*
X69189502Y-158655820D01*
X69130537Y-158545506D01*
X69051185Y-158448815D01*
X68954494Y-158369463D01*
X68844180Y-158310498D01*
X68724482Y-158274188D01*
X68600000Y-158261928D01*
X68435000Y-158261928D01*
X68435000Y-157299119D01*
X77478724Y-157299119D01*
X80000000Y-159820395D01*
X82521276Y-157299119D01*
X82161088Y-156809452D01*
X81497118Y-156449151D01*
X80775615Y-156225306D01*
X80024305Y-156146520D01*
X79272062Y-156215822D01*
X78547792Y-156430548D01*
X77879330Y-156782445D01*
X77838912Y-156809452D01*
X77478724Y-157299119D01*
X68435000Y-157299119D01*
X68435000Y-156545932D01*
X68439524Y-156500000D01*
X68421471Y-156316708D01*
X68394064Y-156226359D01*
X68368007Y-156140460D01*
X68281186Y-155978028D01*
X68164344Y-155835656D01*
X68128659Y-155806370D01*
X65977431Y-153655142D01*
X65917205Y-153509744D01*
X65803937Y-153340226D01*
X65659774Y-153196063D01*
X65490256Y-153082795D01*
X65301898Y-153004774D01*
X65101939Y-152965000D01*
X64898061Y-152965000D01*
X64698102Y-153004774D01*
X64509744Y-153082795D01*
X64340226Y-153196063D01*
X64196063Y-153340226D01*
X64082795Y-153509744D01*
X64004774Y-153698102D01*
X63965000Y-153898061D01*
X63965000Y-154101939D01*
X64004774Y-154301898D01*
X64082795Y-154490256D01*
X64196063Y-154659774D01*
X64340226Y-154803937D01*
X64509744Y-154917205D01*
X64655142Y-154977431D01*
X66565001Y-156887290D01*
X66565000Y-158261928D01*
X66400000Y-158261928D01*
X66275518Y-158274188D01*
X66155820Y-158310498D01*
X66045506Y-158369463D01*
X65948815Y-158448815D01*
X65882443Y-158529690D01*
X65781831Y-158462463D01*
X65745000Y-158447207D01*
X65745000Y-157962552D01*
X65748797Y-157923999D01*
X65745000Y-157885446D01*
X65745000Y-157885439D01*
X65733641Y-157770113D01*
X65688754Y-157622140D01*
X65615862Y-157485767D01*
X65517764Y-157366236D01*
X65487816Y-157341658D01*
X59915000Y-151768843D01*
X59915000Y-150722061D01*
X61905000Y-150722061D01*
X61905000Y-150925939D01*
X61944774Y-151125898D01*
X62022795Y-151314256D01*
X62136063Y-151483774D01*
X62280226Y-151627937D01*
X62449744Y-151741205D01*
X62638102Y-151819226D01*
X62838061Y-151859000D01*
X63041939Y-151859000D01*
X63241898Y-151819226D01*
X63430256Y-151741205D01*
X63599774Y-151627937D01*
X63743937Y-151483774D01*
X63857205Y-151314256D01*
X63917431Y-151168858D01*
X65062858Y-150023431D01*
X65208256Y-149963205D01*
X65377774Y-149849937D01*
X65521937Y-149705774D01*
X65635205Y-149536256D01*
X65713226Y-149347898D01*
X65753000Y-149147939D01*
X65753000Y-148944061D01*
X65713226Y-148744102D01*
X65635205Y-148555744D01*
X65521937Y-148386226D01*
X65377774Y-148242063D01*
X65208256Y-148128795D01*
X65019898Y-148050774D01*
X64819939Y-148011000D01*
X64616061Y-148011000D01*
X64416102Y-148050774D01*
X64227744Y-148128795D01*
X64058226Y-148242063D01*
X63914063Y-148386226D01*
X63800795Y-148555744D01*
X63740569Y-148701142D01*
X62595142Y-149846569D01*
X62449744Y-149906795D01*
X62280226Y-150020063D01*
X62136063Y-150164226D01*
X62022795Y-150333744D01*
X61944774Y-150522102D01*
X61905000Y-150722061D01*
X59915000Y-150722061D01*
X59915000Y-147131158D01*
X60325658Y-147541815D01*
X60350236Y-147571764D01*
X60380184Y-147596342D01*
X60380187Y-147596345D01*
X60409559Y-147620450D01*
X60469767Y-147669862D01*
X60606140Y-147742754D01*
X60715738Y-147776000D01*
X60754112Y-147787641D01*
X60768490Y-147789057D01*
X60869439Y-147799000D01*
X60869446Y-147799000D01*
X60907999Y-147802797D01*
X60946552Y-147799000D01*
X65817289Y-147799000D01*
X65836226Y-147817937D01*
X66005744Y-147931205D01*
X66194102Y-148009226D01*
X66394061Y-148049000D01*
X66597939Y-148049000D01*
X66797898Y-148009226D01*
X66986256Y-147931205D01*
X67155774Y-147817937D01*
X67299937Y-147673774D01*
X67413205Y-147504256D01*
X67491226Y-147315898D01*
X67531000Y-147115939D01*
X67531000Y-146912061D01*
X67491226Y-146712102D01*
X67413205Y-146523744D01*
X67299937Y-146354226D01*
X67155774Y-146210063D01*
X66986256Y-146096795D01*
X66797898Y-146018774D01*
X66597939Y-145979000D01*
X66394061Y-145979000D01*
X66194102Y-146018774D01*
X66005744Y-146096795D01*
X65836226Y-146210063D01*
X65817289Y-146229000D01*
X61233158Y-146229000D01*
X60423000Y-145418843D01*
X60423000Y-143117996D01*
X60423640Y-143115886D01*
X60434999Y-143000560D01*
X60434999Y-143000553D01*
X60438796Y-142962000D01*
X60434999Y-142923447D01*
X60434999Y-141699006D01*
X60501939Y-141699006D01*
X60701898Y-141659232D01*
X60890256Y-141581211D01*
X61059774Y-141467943D01*
X61203937Y-141323780D01*
X61317205Y-141154262D01*
X61395226Y-140965904D01*
X61408335Y-140900000D01*
X78461928Y-140900000D01*
X78474188Y-141024482D01*
X78510498Y-141144180D01*
X78569463Y-141254494D01*
X78648815Y-141351185D01*
X78745506Y-141430537D01*
X78855820Y-141489502D01*
X78975518Y-141525812D01*
X79100000Y-141538072D01*
X79714250Y-141535000D01*
X79873000Y-141376250D01*
X79873000Y-140127000D01*
X80127000Y-140127000D01*
X80127000Y-141376250D01*
X80285750Y-141535000D01*
X80900000Y-141538072D01*
X81024482Y-141525812D01*
X81144180Y-141489502D01*
X81254494Y-141430537D01*
X81351185Y-141351185D01*
X81430537Y-141254494D01*
X81489502Y-141144180D01*
X81525812Y-141024482D01*
X81538072Y-140900000D01*
X81535000Y-140285750D01*
X81376250Y-140127000D01*
X80127000Y-140127000D01*
X79873000Y-140127000D01*
X78623750Y-140127000D01*
X78465000Y-140285750D01*
X78461928Y-140900000D01*
X61408335Y-140900000D01*
X61435000Y-140765945D01*
X61435000Y-140739163D01*
X63074163Y-139100000D01*
X78461928Y-139100000D01*
X78465000Y-139714250D01*
X78623750Y-139873000D01*
X79873000Y-139873000D01*
X79873000Y-139853000D01*
X80127000Y-139853000D01*
X80127000Y-139873000D01*
X81376250Y-139873000D01*
X81535000Y-139714250D01*
X81538072Y-139100000D01*
X81525812Y-138975518D01*
X81489502Y-138855820D01*
X81430537Y-138745506D01*
X81351185Y-138648815D01*
X81254494Y-138569463D01*
X81144180Y-138510498D01*
X81125873Y-138504944D01*
X81192312Y-138438505D01*
X81360299Y-138187095D01*
X81476011Y-137907743D01*
X81535000Y-137611184D01*
X81535000Y-137308816D01*
X81476011Y-137012257D01*
X81360299Y-136732905D01*
X81192312Y-136481495D01*
X80978505Y-136267688D01*
X80727095Y-136099701D01*
X80447743Y-135983989D01*
X80151184Y-135925000D01*
X79848816Y-135925000D01*
X79552257Y-135983989D01*
X79272905Y-136099701D01*
X79021495Y-136267688D01*
X78807688Y-136481495D01*
X78639701Y-136732905D01*
X78523989Y-137012257D01*
X78465000Y-137308816D01*
X78465000Y-137611184D01*
X78523989Y-137907743D01*
X78639701Y-138187095D01*
X78807688Y-138438505D01*
X78874127Y-138504944D01*
X78855820Y-138510498D01*
X78745506Y-138569463D01*
X78648815Y-138648815D01*
X78569463Y-138745506D01*
X78510498Y-138855820D01*
X78474188Y-138975518D01*
X78461928Y-139100000D01*
X63074163Y-139100000D01*
X65125817Y-137048347D01*
X65155765Y-137023769D01*
X65253863Y-136904238D01*
X65326755Y-136767865D01*
X65337360Y-136732905D01*
X65371643Y-136619892D01*
X65379021Y-136544979D01*
X65383001Y-136504566D01*
X65383001Y-136504561D01*
X65386798Y-136466005D01*
X65383001Y-136427450D01*
X65383001Y-133076633D01*
X65569426Y-133153853D01*
X65846665Y-133209000D01*
X66129335Y-133209000D01*
X66406574Y-133153853D01*
X66667727Y-133045680D01*
X66902759Y-132888637D01*
X67102637Y-132688759D01*
X67258000Y-132456241D01*
X67413363Y-132688759D01*
X67613241Y-132888637D01*
X67848273Y-133045680D01*
X68109426Y-133153853D01*
X68386665Y-133209000D01*
X68669335Y-133209000D01*
X68946574Y-133153853D01*
X69207727Y-133045680D01*
X69442759Y-132888637D01*
X69642637Y-132688759D01*
X69799680Y-132453727D01*
X69804067Y-132443135D01*
X69915615Y-132629131D01*
X70104586Y-132837519D01*
X70330580Y-133005037D01*
X70584913Y-133125246D01*
X70718961Y-133165904D01*
X70941000Y-133043915D01*
X70941000Y-131901000D01*
X70921000Y-131901000D01*
X70921000Y-131647000D01*
X70941000Y-131647000D01*
X70941000Y-130504085D01*
X71195000Y-130504085D01*
X71195000Y-131647000D01*
X71215000Y-131647000D01*
X71215000Y-131901000D01*
X71195000Y-131901000D01*
X71195000Y-133043915D01*
X71417039Y-133165904D01*
X71551087Y-133125246D01*
X71805420Y-133005037D01*
X72031414Y-132837519D01*
X72220385Y-132629131D01*
X72331933Y-132443135D01*
X72336320Y-132453727D01*
X72493363Y-132688759D01*
X72693241Y-132888637D01*
X72928273Y-133045680D01*
X73189426Y-133153853D01*
X73466665Y-133209000D01*
X73749335Y-133209000D01*
X74026574Y-133153853D01*
X74287727Y-133045680D01*
X74522759Y-132888637D01*
X74722637Y-132688759D01*
X74878000Y-132456241D01*
X75033363Y-132688759D01*
X75233241Y-132888637D01*
X75468273Y-133045680D01*
X75729426Y-133153853D01*
X76006665Y-133209000D01*
X76289335Y-133209000D01*
X76566574Y-133153853D01*
X76827727Y-133045680D01*
X77062759Y-132888637D01*
X77261357Y-132690039D01*
X77262188Y-132698482D01*
X77298498Y-132818180D01*
X77357463Y-132928494D01*
X77436815Y-133025185D01*
X77533506Y-133104537D01*
X77643820Y-133163502D01*
X77763518Y-133199812D01*
X77888000Y-133212072D01*
X79488000Y-133212072D01*
X79612482Y-133199812D01*
X79732180Y-133163502D01*
X79842494Y-133104537D01*
X79939185Y-133025185D01*
X80018537Y-132928494D01*
X80077502Y-132818180D01*
X80113812Y-132698482D01*
X80126072Y-132574000D01*
X80126072Y-130974000D01*
X80113812Y-130849518D01*
X80077502Y-130729820D01*
X80018537Y-130619506D01*
X79939185Y-130522815D01*
X79842494Y-130443463D01*
X79732180Y-130384498D01*
X79612482Y-130348188D01*
X79488000Y-130335928D01*
X77888000Y-130335928D01*
X77763518Y-130348188D01*
X77643820Y-130384498D01*
X77533506Y-130443463D01*
X77436815Y-130522815D01*
X77357463Y-130619506D01*
X77298498Y-130729820D01*
X77262188Y-130849518D01*
X77261357Y-130857961D01*
X77062759Y-130659363D01*
X76827727Y-130502320D01*
X76566574Y-130394147D01*
X76289335Y-130339000D01*
X76006665Y-130339000D01*
X75729426Y-130394147D01*
X75468273Y-130502320D01*
X75233241Y-130659363D01*
X75033363Y-130859241D01*
X74878000Y-131091759D01*
X74722637Y-130859241D01*
X74522759Y-130659363D01*
X74287727Y-130502320D01*
X74026574Y-130394147D01*
X73749335Y-130339000D01*
X73466665Y-130339000D01*
X73189426Y-130394147D01*
X72928273Y-130502320D01*
X72693241Y-130659363D01*
X72493363Y-130859241D01*
X72336320Y-131094273D01*
X72331933Y-131104865D01*
X72220385Y-130918869D01*
X72031414Y-130710481D01*
X71805420Y-130542963D01*
X71551087Y-130422754D01*
X71417039Y-130382096D01*
X71195000Y-130504085D01*
X70941000Y-130504085D01*
X70718961Y-130382096D01*
X70584913Y-130422754D01*
X70330580Y-130542963D01*
X70104586Y-130710481D01*
X69915615Y-130918869D01*
X69804067Y-131104865D01*
X69799680Y-131094273D01*
X69642637Y-130859241D01*
X69442759Y-130659363D01*
X69207727Y-130502320D01*
X68946574Y-130394147D01*
X68669335Y-130339000D01*
X68386665Y-130339000D01*
X68109426Y-130394147D01*
X67848273Y-130502320D01*
X67613241Y-130659363D01*
X67413363Y-130859241D01*
X67258000Y-131091759D01*
X67102637Y-130859241D01*
X66902759Y-130659363D01*
X66667727Y-130502320D01*
X66406574Y-130394147D01*
X66129335Y-130339000D01*
X65846665Y-130339000D01*
X65569426Y-130394147D01*
X65383001Y-130471367D01*
X65383001Y-128409156D01*
X65805158Y-127987000D01*
X80880567Y-127987000D01*
X80919120Y-127990797D01*
X80957673Y-127987000D01*
X80957681Y-127987000D01*
X81073007Y-127975641D01*
X81220980Y-127930754D01*
X81357353Y-127857862D01*
X81476884Y-127759764D01*
X81501467Y-127729810D01*
X83279810Y-125951467D01*
X83309764Y-125926884D01*
X83407862Y-125807353D01*
X83480754Y-125670980D01*
X83488710Y-125644753D01*
X83525642Y-125523007D01*
X83533020Y-125448094D01*
X83537000Y-125407681D01*
X83537000Y-125407676D01*
X83540797Y-125369120D01*
X83537000Y-125330564D01*
X83537000Y-88886555D01*
X83540797Y-88848000D01*
X83537000Y-88809440D01*
X83537000Y-88809439D01*
X83531719Y-88755820D01*
X83525642Y-88694113D01*
X83480754Y-88546140D01*
X83449604Y-88487862D01*
X83407862Y-88409767D01*
X83309764Y-88290236D01*
X83279817Y-88265659D01*
X82318347Y-87304190D01*
X82293764Y-87274236D01*
X82174233Y-87176138D01*
X82037860Y-87103246D01*
X81889887Y-87058359D01*
X81774561Y-87047000D01*
X81774553Y-87047000D01*
X81736000Y-87043203D01*
X81697447Y-87047000D01*
X76826711Y-87047000D01*
X76807774Y-87028063D01*
X76638256Y-86914795D01*
X76449898Y-86836774D01*
X76249939Y-86797000D01*
X76046061Y-86797000D01*
X75846102Y-86836774D01*
X75657744Y-86914795D01*
X75488226Y-87028063D01*
X75344063Y-87172226D01*
X75230795Y-87341744D01*
X75152774Y-87530102D01*
X75113000Y-87730061D01*
X75113000Y-87933939D01*
X75152774Y-88133898D01*
X75230795Y-88322256D01*
X75344063Y-88491774D01*
X75488226Y-88635937D01*
X75657744Y-88749205D01*
X75846102Y-88827226D01*
X76046061Y-88867000D01*
X76249939Y-88867000D01*
X76449898Y-88827226D01*
X76638256Y-88749205D01*
X76807774Y-88635937D01*
X76826711Y-88617000D01*
X79964672Y-88617000D01*
X79939000Y-88746061D01*
X79939000Y-88949939D01*
X79978774Y-89149898D01*
X80056795Y-89338256D01*
X80170063Y-89507774D01*
X80189000Y-89526711D01*
X80189000Y-89845000D01*
X80110061Y-89845000D01*
X79910102Y-89884774D01*
X79721744Y-89962795D01*
X79552226Y-90076063D01*
X79408063Y-90220226D01*
X79294795Y-90389744D01*
X79224238Y-90560081D01*
X79016347Y-90352190D01*
X78991764Y-90322236D01*
X78872233Y-90224138D01*
X78735860Y-90151246D01*
X78587887Y-90106359D01*
X78472561Y-90095000D01*
X78472553Y-90095000D01*
X78434000Y-90091203D01*
X78395447Y-90095000D01*
X75810711Y-90095000D01*
X75791774Y-90076063D01*
X75622256Y-89962795D01*
X75433898Y-89884774D01*
X75233939Y-89845000D01*
X75030061Y-89845000D01*
X74830102Y-89884774D01*
X74641744Y-89962795D01*
X74497000Y-90059510D01*
X74497000Y-84449000D01*
X77986705Y-84449000D01*
X78132102Y-84509226D01*
X78332061Y-84549000D01*
X78535939Y-84549000D01*
X78735898Y-84509226D01*
X78924256Y-84431205D01*
X79093774Y-84317937D01*
X79237937Y-84173774D01*
X79351205Y-84004256D01*
X79429226Y-83815898D01*
X79469000Y-83615939D01*
X79469000Y-83412061D01*
X79429226Y-83212102D01*
X79351205Y-83023744D01*
X79237937Y-82854226D01*
X79093774Y-82710063D01*
X78924256Y-82596795D01*
X78741272Y-82521000D01*
X81951447Y-82521000D01*
X81990000Y-82524797D01*
X82028553Y-82521000D01*
X82028561Y-82521000D01*
X82143887Y-82509641D01*
X82291860Y-82464754D01*
X82428233Y-82391862D01*
X82547764Y-82293764D01*
X82572347Y-82263810D01*
X83279810Y-81556347D01*
X83309764Y-81531764D01*
X83407862Y-81412233D01*
X83480754Y-81275860D01*
X83525642Y-81127887D01*
X83536667Y-81015937D01*
X83537000Y-81012561D01*
X83537000Y-81012556D01*
X83540797Y-80974000D01*
X83537000Y-80935444D01*
X83537000Y-52818555D01*
X83540797Y-52780000D01*
X83537000Y-52741440D01*
X83537000Y-52741439D01*
X83532732Y-52698102D01*
X83525642Y-52626113D01*
X83480754Y-52478140D01*
X83449604Y-52419862D01*
X83407862Y-52341767D01*
X83309764Y-52222236D01*
X83279817Y-52197659D01*
X82318347Y-51236190D01*
X82293764Y-51206236D01*
X82174233Y-51108138D01*
X82037860Y-51035246D01*
X81889887Y-50990359D01*
X81774561Y-50979000D01*
X81774553Y-50979000D01*
X81736000Y-50975203D01*
X81697447Y-50979000D01*
X81530291Y-50979000D01*
X81538072Y-50900000D01*
X81535000Y-50285750D01*
X81376250Y-50127000D01*
X80127000Y-50127000D01*
X80127000Y-50147000D01*
X79873000Y-50147000D01*
X79873000Y-50127000D01*
X78623750Y-50127000D01*
X78465000Y-50285750D01*
X78461928Y-50900000D01*
X78469709Y-50979000D01*
X76826711Y-50979000D01*
X76807774Y-50960063D01*
X76638256Y-50846795D01*
X76449898Y-50768774D01*
X76249939Y-50729000D01*
X76046061Y-50729000D01*
X75846102Y-50768774D01*
X75657744Y-50846795D01*
X75488226Y-50960063D01*
X75344063Y-51104226D01*
X75337783Y-51113625D01*
X73682347Y-49458190D01*
X73657764Y-49428236D01*
X73538233Y-49330138D01*
X73401860Y-49257246D01*
X73253887Y-49212359D01*
X73138561Y-49201000D01*
X73138553Y-49201000D01*
X73100000Y-49197203D01*
X73061447Y-49201000D01*
X46092711Y-49201000D01*
X46073774Y-49182063D01*
X45950958Y-49100000D01*
X78461928Y-49100000D01*
X78465000Y-49714250D01*
X78623750Y-49873000D01*
X79873000Y-49873000D01*
X79873000Y-49853000D01*
X80127000Y-49853000D01*
X80127000Y-49873000D01*
X81376250Y-49873000D01*
X81535000Y-49714250D01*
X81538072Y-49100000D01*
X81525812Y-48975518D01*
X81489502Y-48855820D01*
X81430537Y-48745506D01*
X81351185Y-48648815D01*
X81254494Y-48569463D01*
X81144180Y-48510498D01*
X81125873Y-48504944D01*
X81192312Y-48438505D01*
X81360299Y-48187095D01*
X81476011Y-47907743D01*
X81535000Y-47611184D01*
X81535000Y-47308816D01*
X81476011Y-47012257D01*
X81360299Y-46732905D01*
X81192312Y-46481495D01*
X80978505Y-46267688D01*
X80727095Y-46099701D01*
X80447743Y-45983989D01*
X80151184Y-45925000D01*
X79848816Y-45925000D01*
X79552257Y-45983989D01*
X79272905Y-46099701D01*
X79021495Y-46267688D01*
X78807688Y-46481495D01*
X78639701Y-46732905D01*
X78523989Y-47012257D01*
X78465000Y-47308816D01*
X78465000Y-47611184D01*
X78523989Y-47907743D01*
X78639701Y-48187095D01*
X78807688Y-48438505D01*
X78874127Y-48504944D01*
X78855820Y-48510498D01*
X78745506Y-48569463D01*
X78648815Y-48648815D01*
X78569463Y-48745506D01*
X78510498Y-48855820D01*
X78474188Y-48975518D01*
X78461928Y-49100000D01*
X45950958Y-49100000D01*
X45904256Y-49068795D01*
X45715898Y-48990774D01*
X45515939Y-48951000D01*
X45312061Y-48951000D01*
X45112102Y-48990774D01*
X44923744Y-49068795D01*
X44754226Y-49182063D01*
X44610063Y-49326226D01*
X44496795Y-49495744D01*
X44418774Y-49684102D01*
X44379000Y-49884061D01*
X44379000Y-50087939D01*
X44418774Y-50287898D01*
X44496795Y-50476256D01*
X44610063Y-50645774D01*
X44754226Y-50789937D01*
X44923744Y-50903205D01*
X45112102Y-50981226D01*
X45312061Y-51021000D01*
X45515939Y-51021000D01*
X45715898Y-50981226D01*
X45904256Y-50903205D01*
X46073774Y-50789937D01*
X46092711Y-50771000D01*
X72774843Y-50771000D01*
X75057658Y-53053816D01*
X75082236Y-53083764D01*
X75112184Y-53108342D01*
X75112187Y-53108345D01*
X75141002Y-53131993D01*
X75201767Y-53181862D01*
X75338140Y-53254754D01*
X75447738Y-53288000D01*
X75486112Y-53299641D01*
X75500490Y-53301057D01*
X75601439Y-53311000D01*
X75601446Y-53311000D01*
X75639999Y-53314797D01*
X75678552Y-53311000D01*
X81156843Y-53311000D01*
X81459001Y-53613158D01*
X81459000Y-79632843D01*
X81156843Y-79935000D01*
X77080711Y-79935000D01*
X77061774Y-79916063D01*
X76892256Y-79802795D01*
X76703898Y-79724774D01*
X76503939Y-79685000D01*
X76300061Y-79685000D01*
X76100102Y-79724774D01*
X75911744Y-79802795D01*
X75742226Y-79916063D01*
X75598063Y-80060226D01*
X75484795Y-80229744D01*
X75406774Y-80418102D01*
X75367000Y-80618061D01*
X75367000Y-80821939D01*
X75392672Y-80951000D01*
X74497000Y-80951000D01*
X74497000Y-77672000D01*
X74472568Y-77497552D01*
X74426803Y-77381788D01*
X74359333Y-77277177D01*
X74272750Y-77187739D01*
X74170383Y-77116910D01*
X71884383Y-75846910D01*
X71819004Y-75815336D01*
X71699882Y-75779201D01*
X71576000Y-75767000D01*
X53796000Y-75767000D01*
X53672118Y-75779201D01*
X53552996Y-75815336D01*
X53443213Y-75874017D01*
X53346987Y-75952987D01*
X53268017Y-76049213D01*
X53209336Y-76158996D01*
X53173201Y-76278118D01*
X53161000Y-76402000D01*
X53161000Y-80361928D01*
X53150000Y-80361928D01*
X53049010Y-80371874D01*
X53049010Y-72579702D01*
X53151949Y-72559226D01*
X53340307Y-72481205D01*
X53509825Y-72367937D01*
X53653988Y-72223774D01*
X53767256Y-72054256D01*
X53845277Y-71865898D01*
X53885051Y-71665939D01*
X53885051Y-71462061D01*
X53845277Y-71262102D01*
X53767256Y-71073744D01*
X53653988Y-70904226D01*
X53509825Y-70760063D01*
X53340307Y-70646795D01*
X53151949Y-70568774D01*
X53019248Y-70542378D01*
X53013226Y-70512102D01*
X52935205Y-70323744D01*
X52821937Y-70154226D01*
X52677774Y-70010063D01*
X52510151Y-69898061D01*
X56965000Y-69898061D01*
X56965000Y-70101939D01*
X57004774Y-70301898D01*
X57082795Y-70490256D01*
X57196063Y-70659774D01*
X57340226Y-70803937D01*
X57509744Y-70917205D01*
X57698102Y-70995226D01*
X57898061Y-71035000D01*
X58101939Y-71035000D01*
X58301898Y-70995226D01*
X58447295Y-70935000D01*
X76552705Y-70935000D01*
X76698102Y-70995226D01*
X76898061Y-71035000D01*
X77101939Y-71035000D01*
X77301898Y-70995226D01*
X77490256Y-70917205D01*
X77659774Y-70803937D01*
X77803937Y-70659774D01*
X77917205Y-70490256D01*
X77995226Y-70301898D01*
X78035000Y-70101939D01*
X78035000Y-69898061D01*
X77995226Y-69698102D01*
X77917205Y-69509744D01*
X77803937Y-69340226D01*
X77659774Y-69196063D01*
X77490256Y-69082795D01*
X77301898Y-69004774D01*
X77101939Y-68965000D01*
X76898061Y-68965000D01*
X76698102Y-69004774D01*
X76552705Y-69065000D01*
X58447295Y-69065000D01*
X58301898Y-69004774D01*
X58101939Y-68965000D01*
X57898061Y-68965000D01*
X57698102Y-69004774D01*
X57509744Y-69082795D01*
X57340226Y-69196063D01*
X57196063Y-69340226D01*
X57082795Y-69509744D01*
X57004774Y-69698102D01*
X56965000Y-69898061D01*
X52510151Y-69898061D01*
X52508256Y-69896795D01*
X52319898Y-69818774D01*
X52119939Y-69779000D01*
X52033010Y-69779000D01*
X52033010Y-56669149D01*
X52093159Y-56609000D01*
X52119941Y-56609000D01*
X52319900Y-56569226D01*
X52508258Y-56491205D01*
X52677776Y-56377937D01*
X52821939Y-56233774D01*
X52935207Y-56064256D01*
X53013228Y-55875898D01*
X53053002Y-55675939D01*
X53053002Y-55472061D01*
X53028974Y-55351263D01*
X53306370Y-55628659D01*
X53335656Y-55664344D01*
X53478028Y-55781186D01*
X53543498Y-55816180D01*
X53640459Y-55868007D01*
X53816708Y-55921472D01*
X54000000Y-55939524D01*
X54045935Y-55935000D01*
X71552705Y-55935000D01*
X71698102Y-55995226D01*
X71898061Y-56035000D01*
X72101939Y-56035000D01*
X72301898Y-55995226D01*
X72490256Y-55917205D01*
X72659774Y-55803937D01*
X72803937Y-55659774D01*
X72917205Y-55490256D01*
X72995226Y-55301898D01*
X73035000Y-55101939D01*
X73035000Y-54898061D01*
X72995226Y-54698102D01*
X72917205Y-54509744D01*
X72803937Y-54340226D01*
X72659774Y-54196063D01*
X72490256Y-54082795D01*
X72301898Y-54004774D01*
X72101939Y-53965000D01*
X71898061Y-53965000D01*
X71698102Y-54004774D01*
X71552705Y-54065000D01*
X54387289Y-54065000D01*
X53693630Y-53371341D01*
X53664344Y-53335656D01*
X53521972Y-53218814D01*
X53359540Y-53131993D01*
X53183292Y-53078529D01*
X53045932Y-53065000D01*
X53000000Y-53060476D01*
X52954068Y-53065000D01*
X42635000Y-53065000D01*
X42635000Y-52000000D01*
X42622799Y-51876118D01*
X42586664Y-51756996D01*
X42527983Y-51647213D01*
X42449013Y-51550987D01*
X42352787Y-51472017D01*
X42243004Y-51413336D01*
X42123882Y-51377201D01*
X42000000Y-51365000D01*
X41334351Y-51365000D01*
X41351185Y-51351185D01*
X41430537Y-51254494D01*
X41489502Y-51144180D01*
X41525812Y-51024482D01*
X41538072Y-50900000D01*
X41535000Y-50285750D01*
X41376250Y-50127000D01*
X40127000Y-50127000D01*
X40127000Y-50147000D01*
X39873000Y-50147000D01*
X39873000Y-50127000D01*
X38623750Y-50127000D01*
X38465000Y-50285750D01*
X38461928Y-50900000D01*
X38474188Y-51024482D01*
X38510498Y-51144180D01*
X38569463Y-51254494D01*
X38648815Y-51351185D01*
X38665649Y-51365000D01*
X37000000Y-51365000D01*
X36876118Y-51377201D01*
X36756996Y-51413336D01*
X36647213Y-51472017D01*
X36550987Y-51550987D01*
X36472017Y-51647213D01*
X36413336Y-51756996D01*
X36377201Y-51876118D01*
X36365000Y-52000000D01*
X36127000Y-52000000D01*
X36127000Y-49100000D01*
X38461928Y-49100000D01*
X38465000Y-49714250D01*
X38623750Y-49873000D01*
X39873000Y-49873000D01*
X39873000Y-49853000D01*
X40127000Y-49853000D01*
X40127000Y-49873000D01*
X41376250Y-49873000D01*
X41535000Y-49714250D01*
X41538072Y-49100000D01*
X41525812Y-48975518D01*
X41489502Y-48855820D01*
X41430537Y-48745506D01*
X41351185Y-48648815D01*
X41254494Y-48569463D01*
X41144180Y-48510498D01*
X41125873Y-48504944D01*
X41192312Y-48438505D01*
X41360299Y-48187095D01*
X41476011Y-47907743D01*
X41535000Y-47611184D01*
X41535000Y-47308816D01*
X41476011Y-47012257D01*
X41360299Y-46732905D01*
X41192312Y-46481495D01*
X40978505Y-46267688D01*
X40727095Y-46099701D01*
X40447743Y-45983989D01*
X40151184Y-45925000D01*
X39848816Y-45925000D01*
X39552257Y-45983989D01*
X39272905Y-46099701D01*
X39021495Y-46267688D01*
X38807688Y-46481495D01*
X38639701Y-46732905D01*
X38523989Y-47012257D01*
X38465000Y-47308816D01*
X38465000Y-47611184D01*
X38523989Y-47907743D01*
X38639701Y-48187095D01*
X38807688Y-48438505D01*
X38874127Y-48504944D01*
X38855820Y-48510498D01*
X38745506Y-48569463D01*
X38648815Y-48648815D01*
X38569463Y-48745506D01*
X38510498Y-48855820D01*
X38474188Y-48975518D01*
X38461928Y-49100000D01*
X36127000Y-49100000D01*
X36127000Y-42700881D01*
X37478724Y-42700881D01*
X37838912Y-43190548D01*
X38502882Y-43550849D01*
X39224385Y-43774694D01*
X39975695Y-43853480D01*
X40727938Y-43784178D01*
X41452208Y-43569452D01*
X42120670Y-43217555D01*
X42161088Y-43190548D01*
X42521276Y-42700881D01*
X77478724Y-42700881D01*
X77838912Y-43190548D01*
X78502882Y-43550849D01*
X79224385Y-43774694D01*
X79975695Y-43853480D01*
X80727938Y-43784178D01*
X81452208Y-43569452D01*
X82120670Y-43217555D01*
X82161088Y-43190548D01*
X82521276Y-42700881D01*
X80000000Y-40179605D01*
X77478724Y-42700881D01*
X42521276Y-42700881D01*
X40000000Y-40179605D01*
X37478724Y-42700881D01*
X36127000Y-42700881D01*
X36127000Y-39975695D01*
X36146520Y-39975695D01*
X36215822Y-40727938D01*
X36430548Y-41452208D01*
X36782445Y-42120670D01*
X36809452Y-42161088D01*
X37299119Y-42521276D01*
X39820395Y-40000000D01*
X40179605Y-40000000D01*
X42700881Y-42521276D01*
X43190548Y-42161088D01*
X43550849Y-41497118D01*
X43774694Y-40775615D01*
X43853480Y-40024305D01*
X43849002Y-39975695D01*
X76146520Y-39975695D01*
X76215822Y-40727938D01*
X76430548Y-41452208D01*
X76782445Y-42120670D01*
X76809452Y-42161088D01*
X77299119Y-42521276D01*
X79820395Y-40000000D01*
X80179605Y-40000000D01*
X82700881Y-42521276D01*
X83190548Y-42161088D01*
X83550849Y-41497118D01*
X83774694Y-40775615D01*
X83853480Y-40024305D01*
X83784178Y-39272062D01*
X83569452Y-38547792D01*
X83217555Y-37879330D01*
X83190548Y-37838912D01*
X82700881Y-37478724D01*
X80179605Y-40000000D01*
X79820395Y-40000000D01*
X77299119Y-37478724D01*
X76809452Y-37838912D01*
X76449151Y-38502882D01*
X76225306Y-39224385D01*
X76146520Y-39975695D01*
X43849002Y-39975695D01*
X43784178Y-39272062D01*
X43569452Y-38547792D01*
X43217555Y-37879330D01*
X43190548Y-37838912D01*
X42700881Y-37478724D01*
X40179605Y-40000000D01*
X39820395Y-40000000D01*
X37299119Y-37478724D01*
X36809452Y-37838912D01*
X36449151Y-38502882D01*
X36225306Y-39224385D01*
X36146520Y-39975695D01*
X36127000Y-39975695D01*
X36127000Y-37299119D01*
X37478724Y-37299119D01*
X40000000Y-39820395D01*
X42521276Y-37299119D01*
X77478724Y-37299119D01*
X80000000Y-39820395D01*
X82521276Y-37299119D01*
X82161088Y-36809452D01*
X81497118Y-36449151D01*
X80775615Y-36225306D01*
X80024305Y-36146520D01*
X79272062Y-36215822D01*
X78547792Y-36430548D01*
X77879330Y-36782445D01*
X77838912Y-36809452D01*
X77478724Y-37299119D01*
X42521276Y-37299119D01*
X42161088Y-36809452D01*
X41497118Y-36449151D01*
X40775615Y-36225306D01*
X40024305Y-36146520D01*
X39272062Y-36215822D01*
X38547792Y-36430548D01*
X37879330Y-36782445D01*
X37838912Y-36809452D01*
X37478724Y-37299119D01*
X36127000Y-37299119D01*
X36127000Y-36127000D01*
X83873000Y-36127000D01*
X83873000Y-163873000D01*
G37*
X83873000Y-163873000D02*
X36127000Y-163873000D01*
X36127000Y-162700881D01*
X37478724Y-162700881D01*
X37838912Y-163190548D01*
X38502882Y-163550849D01*
X39224385Y-163774694D01*
X39975695Y-163853480D01*
X40727938Y-163784178D01*
X41452208Y-163569452D01*
X42120670Y-163217555D01*
X42161088Y-163190548D01*
X42521276Y-162700881D01*
X77478724Y-162700881D01*
X77838912Y-163190548D01*
X78502882Y-163550849D01*
X79224385Y-163774694D01*
X79975695Y-163853480D01*
X80727938Y-163784178D01*
X81452208Y-163569452D01*
X82120670Y-163217555D01*
X82161088Y-163190548D01*
X82521276Y-162700881D01*
X80000000Y-160179605D01*
X77478724Y-162700881D01*
X42521276Y-162700881D01*
X40000000Y-160179605D01*
X37478724Y-162700881D01*
X36127000Y-162700881D01*
X36127000Y-159975695D01*
X36146520Y-159975695D01*
X36215822Y-160727938D01*
X36430548Y-161452208D01*
X36782445Y-162120670D01*
X36809452Y-162161088D01*
X37299119Y-162521276D01*
X39820395Y-160000000D01*
X40179605Y-160000000D01*
X42700881Y-162521276D01*
X43190548Y-162161088D01*
X43550849Y-161497118D01*
X43640946Y-161206712D01*
X53772893Y-161206712D01*
X53880726Y-161481338D01*
X54187384Y-161632216D01*
X54517585Y-161720369D01*
X54858639Y-161742409D01*
X55197439Y-161697489D01*
X55520966Y-161587336D01*
X55719274Y-161481338D01*
X55827107Y-161206712D01*
X54800000Y-160179605D01*
X53772893Y-161206712D01*
X43640946Y-161206712D01*
X43774694Y-160775615D01*
X43849879Y-160058639D01*
X53057591Y-160058639D01*
X53102511Y-160397439D01*
X53212664Y-160720966D01*
X53318662Y-160919274D01*
X53593288Y-161027107D01*
X54620395Y-160000000D01*
X53593288Y-158972893D01*
X53318662Y-159080726D01*
X53167784Y-159387384D01*
X53079631Y-159717585D01*
X53057591Y-160058639D01*
X43849879Y-160058639D01*
X43853480Y-160024305D01*
X43784178Y-159272062D01*
X43642235Y-158793288D01*
X53772893Y-158793288D01*
X54800000Y-159820395D01*
X55827107Y-158793288D01*
X55719274Y-158518662D01*
X55412616Y-158367784D01*
X55082415Y-158279631D01*
X54741361Y-158257591D01*
X54402561Y-158302511D01*
X54079034Y-158412664D01*
X53880726Y-158518662D01*
X53772893Y-158793288D01*
X43642235Y-158793288D01*
X43569452Y-158547792D01*
X43217555Y-157879330D01*
X43190548Y-157838912D01*
X42700881Y-157478724D01*
X40179605Y-160000000D01*
X39820395Y-160000000D01*
X37299119Y-157478724D01*
X36809452Y-157838912D01*
X36449151Y-158502882D01*
X36225306Y-159224385D01*
X36146520Y-159975695D01*
X36127000Y-159975695D01*
X36127000Y-157299119D01*
X37478724Y-157299119D01*
X40000000Y-159820395D01*
X42521276Y-157299119D01*
X42161088Y-156809452D01*
X41497118Y-156449151D01*
X40775615Y-156225306D01*
X40024305Y-156146520D01*
X39272062Y-156215822D01*
X38547792Y-156430548D01*
X37879330Y-156782445D01*
X37838912Y-156809452D01*
X37478724Y-157299119D01*
X36127000Y-157299119D01*
X36127000Y-52000000D01*
X36365000Y-52000000D01*
X36365000Y-155000000D01*
X36377201Y-155123882D01*
X36413336Y-155243004D01*
X36472017Y-155352787D01*
X36550987Y-155449013D01*
X36647213Y-155527983D01*
X36756996Y-155586664D01*
X36876118Y-155622799D01*
X37000000Y-155635000D01*
X46430000Y-155635000D01*
X46553882Y-155622799D01*
X46673004Y-155586664D01*
X46782787Y-155527983D01*
X46879013Y-155449013D01*
X46957983Y-155352787D01*
X47016664Y-155243004D01*
X47052799Y-155123882D01*
X47065000Y-155000000D01*
X47065000Y-147776000D01*
X47038251Y-147593640D01*
X43422131Y-135532288D01*
X46417658Y-138527816D01*
X46442236Y-138557764D01*
X46472184Y-138582342D01*
X46472187Y-138582345D01*
X46501559Y-138606450D01*
X46561767Y-138655862D01*
X46698140Y-138728754D01*
X46846113Y-138773642D01*
X46921026Y-138781020D01*
X46961439Y-138785000D01*
X46961444Y-138785000D01*
X47000000Y-138788797D01*
X47038556Y-138785000D01*
X47742770Y-138785000D01*
X47720774Y-138838102D01*
X47681000Y-139038061D01*
X47681000Y-139241939D01*
X47720774Y-139441898D01*
X47798795Y-139630256D01*
X47912063Y-139799774D01*
X48056226Y-139943937D01*
X48225744Y-140057205D01*
X48414102Y-140135226D01*
X48614061Y-140175000D01*
X48817939Y-140175000D01*
X49017898Y-140135226D01*
X49206256Y-140057205D01*
X49375774Y-139943937D01*
X49519937Y-139799774D01*
X49633205Y-139630256D01*
X49711226Y-139441898D01*
X49716178Y-139417000D01*
X55121843Y-139417000D01*
X56821001Y-141116159D01*
X56821000Y-158337026D01*
X56518169Y-158462463D01*
X56234002Y-158652337D01*
X55992337Y-158894002D01*
X55804531Y-159175074D01*
X54979605Y-160000000D01*
X55804531Y-160824926D01*
X55992337Y-161105998D01*
X56234002Y-161347663D01*
X56518169Y-161537537D01*
X56833919Y-161668325D01*
X57169117Y-161735000D01*
X57510883Y-161735000D01*
X57846081Y-161668325D01*
X58161831Y-161537537D01*
X58445998Y-161347663D01*
X58610000Y-161183661D01*
X58774002Y-161347663D01*
X59058169Y-161537537D01*
X59373919Y-161668325D01*
X59709117Y-161735000D01*
X60050883Y-161735000D01*
X60386081Y-161668325D01*
X60701831Y-161537537D01*
X60985998Y-161347663D01*
X61150000Y-161183661D01*
X61314002Y-161347663D01*
X61598169Y-161537537D01*
X61913919Y-161668325D01*
X62249117Y-161735000D01*
X62590883Y-161735000D01*
X62926081Y-161668325D01*
X63241831Y-161537537D01*
X63525998Y-161347663D01*
X63690000Y-161183661D01*
X63854002Y-161347663D01*
X64138169Y-161537537D01*
X64453919Y-161668325D01*
X64789117Y-161735000D01*
X65130883Y-161735000D01*
X65466081Y-161668325D01*
X65781831Y-161537537D01*
X65882443Y-161470310D01*
X65948815Y-161551185D01*
X66045506Y-161630537D01*
X66155820Y-161689502D01*
X66275518Y-161725812D01*
X66400000Y-161738072D01*
X68600000Y-161738072D01*
X68724482Y-161725812D01*
X68844180Y-161689502D01*
X68954494Y-161630537D01*
X69051185Y-161551185D01*
X69130537Y-161454494D01*
X69189502Y-161344180D01*
X69225812Y-161224482D01*
X69238072Y-161100000D01*
X69238072Y-159975695D01*
X76146520Y-159975695D01*
X76215822Y-160727938D01*
X76430548Y-161452208D01*
X76782445Y-162120670D01*
X76809452Y-162161088D01*
X77299119Y-162521276D01*
X79820395Y-160000000D01*
X80179605Y-160000000D01*
X82700881Y-162521276D01*
X83190548Y-162161088D01*
X83550849Y-161497118D01*
X83774694Y-160775615D01*
X83853480Y-160024305D01*
X83784178Y-159272062D01*
X83569452Y-158547792D01*
X83217555Y-157879330D01*
X83190548Y-157838912D01*
X82700881Y-157478724D01*
X80179605Y-160000000D01*
X79820395Y-160000000D01*
X77299119Y-157478724D01*
X76809452Y-157838912D01*
X76449151Y-158502882D01*
X76225306Y-159224385D01*
X76146520Y-159975695D01*
X69238072Y-159975695D01*
X69238072Y-158900000D01*
X69225812Y-158775518D01*
X69189502Y-158655820D01*
X69130537Y-158545506D01*
X69051185Y-158448815D01*
X68954494Y-158369463D01*
X68844180Y-158310498D01*
X68724482Y-158274188D01*
X68600000Y-158261928D01*
X68435000Y-158261928D01*
X68435000Y-157299119D01*
X77478724Y-157299119D01*
X80000000Y-159820395D01*
X82521276Y-157299119D01*
X82161088Y-156809452D01*
X81497118Y-156449151D01*
X80775615Y-156225306D01*
X80024305Y-156146520D01*
X79272062Y-156215822D01*
X78547792Y-156430548D01*
X77879330Y-156782445D01*
X77838912Y-156809452D01*
X77478724Y-157299119D01*
X68435000Y-157299119D01*
X68435000Y-156545932D01*
X68439524Y-156500000D01*
X68421471Y-156316708D01*
X68394064Y-156226359D01*
X68368007Y-156140460D01*
X68281186Y-155978028D01*
X68164344Y-155835656D01*
X68128659Y-155806370D01*
X65977431Y-153655142D01*
X65917205Y-153509744D01*
X65803937Y-153340226D01*
X65659774Y-153196063D01*
X65490256Y-153082795D01*
X65301898Y-153004774D01*
X65101939Y-152965000D01*
X64898061Y-152965000D01*
X64698102Y-153004774D01*
X64509744Y-153082795D01*
X64340226Y-153196063D01*
X64196063Y-153340226D01*
X64082795Y-153509744D01*
X64004774Y-153698102D01*
X63965000Y-153898061D01*
X63965000Y-154101939D01*
X64004774Y-154301898D01*
X64082795Y-154490256D01*
X64196063Y-154659774D01*
X64340226Y-154803937D01*
X64509744Y-154917205D01*
X64655142Y-154977431D01*
X66565001Y-156887290D01*
X66565000Y-158261928D01*
X66400000Y-158261928D01*
X66275518Y-158274188D01*
X66155820Y-158310498D01*
X66045506Y-158369463D01*
X65948815Y-158448815D01*
X65882443Y-158529690D01*
X65781831Y-158462463D01*
X65745000Y-158447207D01*
X65745000Y-157962552D01*
X65748797Y-157923999D01*
X65745000Y-157885446D01*
X65745000Y-157885439D01*
X65733641Y-157770113D01*
X65688754Y-157622140D01*
X65615862Y-157485767D01*
X65517764Y-157366236D01*
X65487816Y-157341658D01*
X59915000Y-151768843D01*
X59915000Y-150722061D01*
X61905000Y-150722061D01*
X61905000Y-150925939D01*
X61944774Y-151125898D01*
X62022795Y-151314256D01*
X62136063Y-151483774D01*
X62280226Y-151627937D01*
X62449744Y-151741205D01*
X62638102Y-151819226D01*
X62838061Y-151859000D01*
X63041939Y-151859000D01*
X63241898Y-151819226D01*
X63430256Y-151741205D01*
X63599774Y-151627937D01*
X63743937Y-151483774D01*
X63857205Y-151314256D01*
X63917431Y-151168858D01*
X65062858Y-150023431D01*
X65208256Y-149963205D01*
X65377774Y-149849937D01*
X65521937Y-149705774D01*
X65635205Y-149536256D01*
X65713226Y-149347898D01*
X65753000Y-149147939D01*
X65753000Y-148944061D01*
X65713226Y-148744102D01*
X65635205Y-148555744D01*
X65521937Y-148386226D01*
X65377774Y-148242063D01*
X65208256Y-148128795D01*
X65019898Y-148050774D01*
X64819939Y-148011000D01*
X64616061Y-148011000D01*
X64416102Y-148050774D01*
X64227744Y-148128795D01*
X64058226Y-148242063D01*
X63914063Y-148386226D01*
X63800795Y-148555744D01*
X63740569Y-148701142D01*
X62595142Y-149846569D01*
X62449744Y-149906795D01*
X62280226Y-150020063D01*
X62136063Y-150164226D01*
X62022795Y-150333744D01*
X61944774Y-150522102D01*
X61905000Y-150722061D01*
X59915000Y-150722061D01*
X59915000Y-147131158D01*
X60325658Y-147541815D01*
X60350236Y-147571764D01*
X60380184Y-147596342D01*
X60380187Y-147596345D01*
X60409559Y-147620450D01*
X60469767Y-147669862D01*
X60606140Y-147742754D01*
X60715738Y-147776000D01*
X60754112Y-147787641D01*
X60768490Y-147789057D01*
X60869439Y-147799000D01*
X60869446Y-147799000D01*
X60907999Y-147802797D01*
X60946552Y-147799000D01*
X65817289Y-147799000D01*
X65836226Y-147817937D01*
X66005744Y-147931205D01*
X66194102Y-148009226D01*
X66394061Y-148049000D01*
X66597939Y-148049000D01*
X66797898Y-148009226D01*
X66986256Y-147931205D01*
X67155774Y-147817937D01*
X67299937Y-147673774D01*
X67413205Y-147504256D01*
X67491226Y-147315898D01*
X67531000Y-147115939D01*
X67531000Y-146912061D01*
X67491226Y-146712102D01*
X67413205Y-146523744D01*
X67299937Y-146354226D01*
X67155774Y-146210063D01*
X66986256Y-146096795D01*
X66797898Y-146018774D01*
X66597939Y-145979000D01*
X66394061Y-145979000D01*
X66194102Y-146018774D01*
X66005744Y-146096795D01*
X65836226Y-146210063D01*
X65817289Y-146229000D01*
X61233158Y-146229000D01*
X60423000Y-145418843D01*
X60423000Y-143117996D01*
X60423640Y-143115886D01*
X60434999Y-143000560D01*
X60434999Y-143000553D01*
X60438796Y-142962000D01*
X60434999Y-142923447D01*
X60434999Y-141699006D01*
X60501939Y-141699006D01*
X60701898Y-141659232D01*
X60890256Y-141581211D01*
X61059774Y-141467943D01*
X61203937Y-141323780D01*
X61317205Y-141154262D01*
X61395226Y-140965904D01*
X61408335Y-140900000D01*
X78461928Y-140900000D01*
X78474188Y-141024482D01*
X78510498Y-141144180D01*
X78569463Y-141254494D01*
X78648815Y-141351185D01*
X78745506Y-141430537D01*
X78855820Y-141489502D01*
X78975518Y-141525812D01*
X79100000Y-141538072D01*
X79714250Y-141535000D01*
X79873000Y-141376250D01*
X79873000Y-140127000D01*
X80127000Y-140127000D01*
X80127000Y-141376250D01*
X80285750Y-141535000D01*
X80900000Y-141538072D01*
X81024482Y-141525812D01*
X81144180Y-141489502D01*
X81254494Y-141430537D01*
X81351185Y-141351185D01*
X81430537Y-141254494D01*
X81489502Y-141144180D01*
X81525812Y-141024482D01*
X81538072Y-140900000D01*
X81535000Y-140285750D01*
X81376250Y-140127000D01*
X80127000Y-140127000D01*
X79873000Y-140127000D01*
X78623750Y-140127000D01*
X78465000Y-140285750D01*
X78461928Y-140900000D01*
X61408335Y-140900000D01*
X61435000Y-140765945D01*
X61435000Y-140739163D01*
X63074163Y-139100000D01*
X78461928Y-139100000D01*
X78465000Y-139714250D01*
X78623750Y-139873000D01*
X79873000Y-139873000D01*
X79873000Y-139853000D01*
X80127000Y-139853000D01*
X80127000Y-139873000D01*
X81376250Y-139873000D01*
X81535000Y-139714250D01*
X81538072Y-139100000D01*
X81525812Y-138975518D01*
X81489502Y-138855820D01*
X81430537Y-138745506D01*
X81351185Y-138648815D01*
X81254494Y-138569463D01*
X81144180Y-138510498D01*
X81125873Y-138504944D01*
X81192312Y-138438505D01*
X81360299Y-138187095D01*
X81476011Y-137907743D01*
X81535000Y-137611184D01*
X81535000Y-137308816D01*
X81476011Y-137012257D01*
X81360299Y-136732905D01*
X81192312Y-136481495D01*
X80978505Y-136267688D01*
X80727095Y-136099701D01*
X80447743Y-135983989D01*
X80151184Y-135925000D01*
X79848816Y-135925000D01*
X79552257Y-135983989D01*
X79272905Y-136099701D01*
X79021495Y-136267688D01*
X78807688Y-136481495D01*
X78639701Y-136732905D01*
X78523989Y-137012257D01*
X78465000Y-137308816D01*
X78465000Y-137611184D01*
X78523989Y-137907743D01*
X78639701Y-138187095D01*
X78807688Y-138438505D01*
X78874127Y-138504944D01*
X78855820Y-138510498D01*
X78745506Y-138569463D01*
X78648815Y-138648815D01*
X78569463Y-138745506D01*
X78510498Y-138855820D01*
X78474188Y-138975518D01*
X78461928Y-139100000D01*
X63074163Y-139100000D01*
X65125817Y-137048347D01*
X65155765Y-137023769D01*
X65253863Y-136904238D01*
X65326755Y-136767865D01*
X65337360Y-136732905D01*
X65371643Y-136619892D01*
X65379021Y-136544979D01*
X65383001Y-136504566D01*
X65383001Y-136504561D01*
X65386798Y-136466005D01*
X65383001Y-136427450D01*
X65383001Y-133076633D01*
X65569426Y-133153853D01*
X65846665Y-133209000D01*
X66129335Y-133209000D01*
X66406574Y-133153853D01*
X66667727Y-133045680D01*
X66902759Y-132888637D01*
X67102637Y-132688759D01*
X67258000Y-132456241D01*
X67413363Y-132688759D01*
X67613241Y-132888637D01*
X67848273Y-133045680D01*
X68109426Y-133153853D01*
X68386665Y-133209000D01*
X68669335Y-133209000D01*
X68946574Y-133153853D01*
X69207727Y-133045680D01*
X69442759Y-132888637D01*
X69642637Y-132688759D01*
X69799680Y-132453727D01*
X69804067Y-132443135D01*
X69915615Y-132629131D01*
X70104586Y-132837519D01*
X70330580Y-133005037D01*
X70584913Y-133125246D01*
X70718961Y-133165904D01*
X70941000Y-133043915D01*
X70941000Y-131901000D01*
X70921000Y-131901000D01*
X70921000Y-131647000D01*
X70941000Y-131647000D01*
X70941000Y-130504085D01*
X71195000Y-130504085D01*
X71195000Y-131647000D01*
X71215000Y-131647000D01*
X71215000Y-131901000D01*
X71195000Y-131901000D01*
X71195000Y-133043915D01*
X71417039Y-133165904D01*
X71551087Y-133125246D01*
X71805420Y-133005037D01*
X72031414Y-132837519D01*
X72220385Y-132629131D01*
X72331933Y-132443135D01*
X72336320Y-132453727D01*
X72493363Y-132688759D01*
X72693241Y-132888637D01*
X72928273Y-133045680D01*
X73189426Y-133153853D01*
X73466665Y-133209000D01*
X73749335Y-133209000D01*
X74026574Y-133153853D01*
X74287727Y-133045680D01*
X74522759Y-132888637D01*
X74722637Y-132688759D01*
X74878000Y-132456241D01*
X75033363Y-132688759D01*
X75233241Y-132888637D01*
X75468273Y-133045680D01*
X75729426Y-133153853D01*
X76006665Y-133209000D01*
X76289335Y-133209000D01*
X76566574Y-133153853D01*
X76827727Y-133045680D01*
X77062759Y-132888637D01*
X77261357Y-132690039D01*
X77262188Y-132698482D01*
X77298498Y-132818180D01*
X77357463Y-132928494D01*
X77436815Y-133025185D01*
X77533506Y-133104537D01*
X77643820Y-133163502D01*
X77763518Y-133199812D01*
X77888000Y-133212072D01*
X79488000Y-133212072D01*
X79612482Y-133199812D01*
X79732180Y-133163502D01*
X79842494Y-133104537D01*
X79939185Y-133025185D01*
X80018537Y-132928494D01*
X80077502Y-132818180D01*
X80113812Y-132698482D01*
X80126072Y-132574000D01*
X80126072Y-130974000D01*
X80113812Y-130849518D01*
X80077502Y-130729820D01*
X80018537Y-130619506D01*
X79939185Y-130522815D01*
X79842494Y-130443463D01*
X79732180Y-130384498D01*
X79612482Y-130348188D01*
X79488000Y-130335928D01*
X77888000Y-130335928D01*
X77763518Y-130348188D01*
X77643820Y-130384498D01*
X77533506Y-130443463D01*
X77436815Y-130522815D01*
X77357463Y-130619506D01*
X77298498Y-130729820D01*
X77262188Y-130849518D01*
X77261357Y-130857961D01*
X77062759Y-130659363D01*
X76827727Y-130502320D01*
X76566574Y-130394147D01*
X76289335Y-130339000D01*
X76006665Y-130339000D01*
X75729426Y-130394147D01*
X75468273Y-130502320D01*
X75233241Y-130659363D01*
X75033363Y-130859241D01*
X74878000Y-131091759D01*
X74722637Y-130859241D01*
X74522759Y-130659363D01*
X74287727Y-130502320D01*
X74026574Y-130394147D01*
X73749335Y-130339000D01*
X73466665Y-130339000D01*
X73189426Y-130394147D01*
X72928273Y-130502320D01*
X72693241Y-130659363D01*
X72493363Y-130859241D01*
X72336320Y-131094273D01*
X72331933Y-131104865D01*
X72220385Y-130918869D01*
X72031414Y-130710481D01*
X71805420Y-130542963D01*
X71551087Y-130422754D01*
X71417039Y-130382096D01*
X71195000Y-130504085D01*
X70941000Y-130504085D01*
X70718961Y-130382096D01*
X70584913Y-130422754D01*
X70330580Y-130542963D01*
X70104586Y-130710481D01*
X69915615Y-130918869D01*
X69804067Y-131104865D01*
X69799680Y-131094273D01*
X69642637Y-130859241D01*
X69442759Y-130659363D01*
X69207727Y-130502320D01*
X68946574Y-130394147D01*
X68669335Y-130339000D01*
X68386665Y-130339000D01*
X68109426Y-130394147D01*
X67848273Y-130502320D01*
X67613241Y-130659363D01*
X67413363Y-130859241D01*
X67258000Y-131091759D01*
X67102637Y-130859241D01*
X66902759Y-130659363D01*
X66667727Y-130502320D01*
X66406574Y-130394147D01*
X66129335Y-130339000D01*
X65846665Y-130339000D01*
X65569426Y-130394147D01*
X65383001Y-130471367D01*
X65383001Y-128409156D01*
X65805158Y-127987000D01*
X80880567Y-127987000D01*
X80919120Y-127990797D01*
X80957673Y-127987000D01*
X80957681Y-127987000D01*
X81073007Y-127975641D01*
X81220980Y-127930754D01*
X81357353Y-127857862D01*
X81476884Y-127759764D01*
X81501467Y-127729810D01*
X83279810Y-125951467D01*
X83309764Y-125926884D01*
X83407862Y-125807353D01*
X83480754Y-125670980D01*
X83488710Y-125644753D01*
X83525642Y-125523007D01*
X83533020Y-125448094D01*
X83537000Y-125407681D01*
X83537000Y-125407676D01*
X83540797Y-125369120D01*
X83537000Y-125330564D01*
X83537000Y-88886555D01*
X83540797Y-88848000D01*
X83537000Y-88809440D01*
X83537000Y-88809439D01*
X83531719Y-88755820D01*
X83525642Y-88694113D01*
X83480754Y-88546140D01*
X83449604Y-88487862D01*
X83407862Y-88409767D01*
X83309764Y-88290236D01*
X83279817Y-88265659D01*
X82318347Y-87304190D01*
X82293764Y-87274236D01*
X82174233Y-87176138D01*
X82037860Y-87103246D01*
X81889887Y-87058359D01*
X81774561Y-87047000D01*
X81774553Y-87047000D01*
X81736000Y-87043203D01*
X81697447Y-87047000D01*
X76826711Y-87047000D01*
X76807774Y-87028063D01*
X76638256Y-86914795D01*
X76449898Y-86836774D01*
X76249939Y-86797000D01*
X76046061Y-86797000D01*
X75846102Y-86836774D01*
X75657744Y-86914795D01*
X75488226Y-87028063D01*
X75344063Y-87172226D01*
X75230795Y-87341744D01*
X75152774Y-87530102D01*
X75113000Y-87730061D01*
X75113000Y-87933939D01*
X75152774Y-88133898D01*
X75230795Y-88322256D01*
X75344063Y-88491774D01*
X75488226Y-88635937D01*
X75657744Y-88749205D01*
X75846102Y-88827226D01*
X76046061Y-88867000D01*
X76249939Y-88867000D01*
X76449898Y-88827226D01*
X76638256Y-88749205D01*
X76807774Y-88635937D01*
X76826711Y-88617000D01*
X79964672Y-88617000D01*
X79939000Y-88746061D01*
X79939000Y-88949939D01*
X79978774Y-89149898D01*
X80056795Y-89338256D01*
X80170063Y-89507774D01*
X80189000Y-89526711D01*
X80189000Y-89845000D01*
X80110061Y-89845000D01*
X79910102Y-89884774D01*
X79721744Y-89962795D01*
X79552226Y-90076063D01*
X79408063Y-90220226D01*
X79294795Y-90389744D01*
X79224238Y-90560081D01*
X79016347Y-90352190D01*
X78991764Y-90322236D01*
X78872233Y-90224138D01*
X78735860Y-90151246D01*
X78587887Y-90106359D01*
X78472561Y-90095000D01*
X78472553Y-90095000D01*
X78434000Y-90091203D01*
X78395447Y-90095000D01*
X75810711Y-90095000D01*
X75791774Y-90076063D01*
X75622256Y-89962795D01*
X75433898Y-89884774D01*
X75233939Y-89845000D01*
X75030061Y-89845000D01*
X74830102Y-89884774D01*
X74641744Y-89962795D01*
X74497000Y-90059510D01*
X74497000Y-84449000D01*
X77986705Y-84449000D01*
X78132102Y-84509226D01*
X78332061Y-84549000D01*
X78535939Y-84549000D01*
X78735898Y-84509226D01*
X78924256Y-84431205D01*
X79093774Y-84317937D01*
X79237937Y-84173774D01*
X79351205Y-84004256D01*
X79429226Y-83815898D01*
X79469000Y-83615939D01*
X79469000Y-83412061D01*
X79429226Y-83212102D01*
X79351205Y-83023744D01*
X79237937Y-82854226D01*
X79093774Y-82710063D01*
X78924256Y-82596795D01*
X78741272Y-82521000D01*
X81951447Y-82521000D01*
X81990000Y-82524797D01*
X82028553Y-82521000D01*
X82028561Y-82521000D01*
X82143887Y-82509641D01*
X82291860Y-82464754D01*
X82428233Y-82391862D01*
X82547764Y-82293764D01*
X82572347Y-82263810D01*
X83279810Y-81556347D01*
X83309764Y-81531764D01*
X83407862Y-81412233D01*
X83480754Y-81275860D01*
X83525642Y-81127887D01*
X83536667Y-81015937D01*
X83537000Y-81012561D01*
X83537000Y-81012556D01*
X83540797Y-80974000D01*
X83537000Y-80935444D01*
X83537000Y-52818555D01*
X83540797Y-52780000D01*
X83537000Y-52741440D01*
X83537000Y-52741439D01*
X83532732Y-52698102D01*
X83525642Y-52626113D01*
X83480754Y-52478140D01*
X83449604Y-52419862D01*
X83407862Y-52341767D01*
X83309764Y-52222236D01*
X83279817Y-52197659D01*
X82318347Y-51236190D01*
X82293764Y-51206236D01*
X82174233Y-51108138D01*
X82037860Y-51035246D01*
X81889887Y-50990359D01*
X81774561Y-50979000D01*
X81774553Y-50979000D01*
X81736000Y-50975203D01*
X81697447Y-50979000D01*
X81530291Y-50979000D01*
X81538072Y-50900000D01*
X81535000Y-50285750D01*
X81376250Y-50127000D01*
X80127000Y-50127000D01*
X80127000Y-50147000D01*
X79873000Y-50147000D01*
X79873000Y-50127000D01*
X78623750Y-50127000D01*
X78465000Y-50285750D01*
X78461928Y-50900000D01*
X78469709Y-50979000D01*
X76826711Y-50979000D01*
X76807774Y-50960063D01*
X76638256Y-50846795D01*
X76449898Y-50768774D01*
X76249939Y-50729000D01*
X76046061Y-50729000D01*
X75846102Y-50768774D01*
X75657744Y-50846795D01*
X75488226Y-50960063D01*
X75344063Y-51104226D01*
X75337783Y-51113625D01*
X73682347Y-49458190D01*
X73657764Y-49428236D01*
X73538233Y-49330138D01*
X73401860Y-49257246D01*
X73253887Y-49212359D01*
X73138561Y-49201000D01*
X73138553Y-49201000D01*
X73100000Y-49197203D01*
X73061447Y-49201000D01*
X46092711Y-49201000D01*
X46073774Y-49182063D01*
X45950958Y-49100000D01*
X78461928Y-49100000D01*
X78465000Y-49714250D01*
X78623750Y-49873000D01*
X79873000Y-49873000D01*
X79873000Y-49853000D01*
X80127000Y-49853000D01*
X80127000Y-49873000D01*
X81376250Y-49873000D01*
X81535000Y-49714250D01*
X81538072Y-49100000D01*
X81525812Y-48975518D01*
X81489502Y-48855820D01*
X81430537Y-48745506D01*
X81351185Y-48648815D01*
X81254494Y-48569463D01*
X81144180Y-48510498D01*
X81125873Y-48504944D01*
X81192312Y-48438505D01*
X81360299Y-48187095D01*
X81476011Y-47907743D01*
X81535000Y-47611184D01*
X81535000Y-47308816D01*
X81476011Y-47012257D01*
X81360299Y-46732905D01*
X81192312Y-46481495D01*
X80978505Y-46267688D01*
X80727095Y-46099701D01*
X80447743Y-45983989D01*
X80151184Y-45925000D01*
X79848816Y-45925000D01*
X79552257Y-45983989D01*
X79272905Y-46099701D01*
X79021495Y-46267688D01*
X78807688Y-46481495D01*
X78639701Y-46732905D01*
X78523989Y-47012257D01*
X78465000Y-47308816D01*
X78465000Y-47611184D01*
X78523989Y-47907743D01*
X78639701Y-48187095D01*
X78807688Y-48438505D01*
X78874127Y-48504944D01*
X78855820Y-48510498D01*
X78745506Y-48569463D01*
X78648815Y-48648815D01*
X78569463Y-48745506D01*
X78510498Y-48855820D01*
X78474188Y-48975518D01*
X78461928Y-49100000D01*
X45950958Y-49100000D01*
X45904256Y-49068795D01*
X45715898Y-48990774D01*
X45515939Y-48951000D01*
X45312061Y-48951000D01*
X45112102Y-48990774D01*
X44923744Y-49068795D01*
X44754226Y-49182063D01*
X44610063Y-49326226D01*
X44496795Y-49495744D01*
X44418774Y-49684102D01*
X44379000Y-49884061D01*
X44379000Y-50087939D01*
X44418774Y-50287898D01*
X44496795Y-50476256D01*
X44610063Y-50645774D01*
X44754226Y-50789937D01*
X44923744Y-50903205D01*
X45112102Y-50981226D01*
X45312061Y-51021000D01*
X45515939Y-51021000D01*
X45715898Y-50981226D01*
X45904256Y-50903205D01*
X46073774Y-50789937D01*
X46092711Y-50771000D01*
X72774843Y-50771000D01*
X75057658Y-53053816D01*
X75082236Y-53083764D01*
X75112184Y-53108342D01*
X75112187Y-53108345D01*
X75141002Y-53131993D01*
X75201767Y-53181862D01*
X75338140Y-53254754D01*
X75447738Y-53288000D01*
X75486112Y-53299641D01*
X75500490Y-53301057D01*
X75601439Y-53311000D01*
X75601446Y-53311000D01*
X75639999Y-53314797D01*
X75678552Y-53311000D01*
X81156843Y-53311000D01*
X81459001Y-53613158D01*
X81459000Y-79632843D01*
X81156843Y-79935000D01*
X77080711Y-79935000D01*
X77061774Y-79916063D01*
X76892256Y-79802795D01*
X76703898Y-79724774D01*
X76503939Y-79685000D01*
X76300061Y-79685000D01*
X76100102Y-79724774D01*
X75911744Y-79802795D01*
X75742226Y-79916063D01*
X75598063Y-80060226D01*
X75484795Y-80229744D01*
X75406774Y-80418102D01*
X75367000Y-80618061D01*
X75367000Y-80821939D01*
X75392672Y-80951000D01*
X74497000Y-80951000D01*
X74497000Y-77672000D01*
X74472568Y-77497552D01*
X74426803Y-77381788D01*
X74359333Y-77277177D01*
X74272750Y-77187739D01*
X74170383Y-77116910D01*
X71884383Y-75846910D01*
X71819004Y-75815336D01*
X71699882Y-75779201D01*
X71576000Y-75767000D01*
X53796000Y-75767000D01*
X53672118Y-75779201D01*
X53552996Y-75815336D01*
X53443213Y-75874017D01*
X53346987Y-75952987D01*
X53268017Y-76049213D01*
X53209336Y-76158996D01*
X53173201Y-76278118D01*
X53161000Y-76402000D01*
X53161000Y-80361928D01*
X53150000Y-80361928D01*
X53049010Y-80371874D01*
X53049010Y-72579702D01*
X53151949Y-72559226D01*
X53340307Y-72481205D01*
X53509825Y-72367937D01*
X53653988Y-72223774D01*
X53767256Y-72054256D01*
X53845277Y-71865898D01*
X53885051Y-71665939D01*
X53885051Y-71462061D01*
X53845277Y-71262102D01*
X53767256Y-71073744D01*
X53653988Y-70904226D01*
X53509825Y-70760063D01*
X53340307Y-70646795D01*
X53151949Y-70568774D01*
X53019248Y-70542378D01*
X53013226Y-70512102D01*
X52935205Y-70323744D01*
X52821937Y-70154226D01*
X52677774Y-70010063D01*
X52510151Y-69898061D01*
X56965000Y-69898061D01*
X56965000Y-70101939D01*
X57004774Y-70301898D01*
X57082795Y-70490256D01*
X57196063Y-70659774D01*
X57340226Y-70803937D01*
X57509744Y-70917205D01*
X57698102Y-70995226D01*
X57898061Y-71035000D01*
X58101939Y-71035000D01*
X58301898Y-70995226D01*
X58447295Y-70935000D01*
X76552705Y-70935000D01*
X76698102Y-70995226D01*
X76898061Y-71035000D01*
X77101939Y-71035000D01*
X77301898Y-70995226D01*
X77490256Y-70917205D01*
X77659774Y-70803937D01*
X77803937Y-70659774D01*
X77917205Y-70490256D01*
X77995226Y-70301898D01*
X78035000Y-70101939D01*
X78035000Y-69898061D01*
X77995226Y-69698102D01*
X77917205Y-69509744D01*
X77803937Y-69340226D01*
X77659774Y-69196063D01*
X77490256Y-69082795D01*
X77301898Y-69004774D01*
X77101939Y-68965000D01*
X76898061Y-68965000D01*
X76698102Y-69004774D01*
X76552705Y-69065000D01*
X58447295Y-69065000D01*
X58301898Y-69004774D01*
X58101939Y-68965000D01*
X57898061Y-68965000D01*
X57698102Y-69004774D01*
X57509744Y-69082795D01*
X57340226Y-69196063D01*
X57196063Y-69340226D01*
X57082795Y-69509744D01*
X57004774Y-69698102D01*
X56965000Y-69898061D01*
X52510151Y-69898061D01*
X52508256Y-69896795D01*
X52319898Y-69818774D01*
X52119939Y-69779000D01*
X52033010Y-69779000D01*
X52033010Y-56669149D01*
X52093159Y-56609000D01*
X52119941Y-56609000D01*
X52319900Y-56569226D01*
X52508258Y-56491205D01*
X52677776Y-56377937D01*
X52821939Y-56233774D01*
X52935207Y-56064256D01*
X53013228Y-55875898D01*
X53053002Y-55675939D01*
X53053002Y-55472061D01*
X53028974Y-55351263D01*
X53306370Y-55628659D01*
X53335656Y-55664344D01*
X53478028Y-55781186D01*
X53543498Y-55816180D01*
X53640459Y-55868007D01*
X53816708Y-55921472D01*
X54000000Y-55939524D01*
X54045935Y-55935000D01*
X71552705Y-55935000D01*
X71698102Y-55995226D01*
X71898061Y-56035000D01*
X72101939Y-56035000D01*
X72301898Y-55995226D01*
X72490256Y-55917205D01*
X72659774Y-55803937D01*
X72803937Y-55659774D01*
X72917205Y-55490256D01*
X72995226Y-55301898D01*
X73035000Y-55101939D01*
X73035000Y-54898061D01*
X72995226Y-54698102D01*
X72917205Y-54509744D01*
X72803937Y-54340226D01*
X72659774Y-54196063D01*
X72490256Y-54082795D01*
X72301898Y-54004774D01*
X72101939Y-53965000D01*
X71898061Y-53965000D01*
X71698102Y-54004774D01*
X71552705Y-54065000D01*
X54387289Y-54065000D01*
X53693630Y-53371341D01*
X53664344Y-53335656D01*
X53521972Y-53218814D01*
X53359540Y-53131993D01*
X53183292Y-53078529D01*
X53045932Y-53065000D01*
X53000000Y-53060476D01*
X52954068Y-53065000D01*
X42635000Y-53065000D01*
X42635000Y-52000000D01*
X42622799Y-51876118D01*
X42586664Y-51756996D01*
X42527983Y-51647213D01*
X42449013Y-51550987D01*
X42352787Y-51472017D01*
X42243004Y-51413336D01*
X42123882Y-51377201D01*
X42000000Y-51365000D01*
X41334351Y-51365000D01*
X41351185Y-51351185D01*
X41430537Y-51254494D01*
X41489502Y-51144180D01*
X41525812Y-51024482D01*
X41538072Y-50900000D01*
X41535000Y-50285750D01*
X41376250Y-50127000D01*
X40127000Y-50127000D01*
X40127000Y-50147000D01*
X39873000Y-50147000D01*
X39873000Y-50127000D01*
X38623750Y-50127000D01*
X38465000Y-50285750D01*
X38461928Y-50900000D01*
X38474188Y-51024482D01*
X38510498Y-51144180D01*
X38569463Y-51254494D01*
X38648815Y-51351185D01*
X38665649Y-51365000D01*
X37000000Y-51365000D01*
X36876118Y-51377201D01*
X36756996Y-51413336D01*
X36647213Y-51472017D01*
X36550987Y-51550987D01*
X36472017Y-51647213D01*
X36413336Y-51756996D01*
X36377201Y-51876118D01*
X36365000Y-52000000D01*
X36127000Y-52000000D01*
X36127000Y-49100000D01*
X38461928Y-49100000D01*
X38465000Y-49714250D01*
X38623750Y-49873000D01*
X39873000Y-49873000D01*
X39873000Y-49853000D01*
X40127000Y-49853000D01*
X40127000Y-49873000D01*
X41376250Y-49873000D01*
X41535000Y-49714250D01*
X41538072Y-49100000D01*
X41525812Y-48975518D01*
X41489502Y-48855820D01*
X41430537Y-48745506D01*
X41351185Y-48648815D01*
X41254494Y-48569463D01*
X41144180Y-48510498D01*
X41125873Y-48504944D01*
X41192312Y-48438505D01*
X41360299Y-48187095D01*
X41476011Y-47907743D01*
X41535000Y-47611184D01*
X41535000Y-47308816D01*
X41476011Y-47012257D01*
X41360299Y-46732905D01*
X41192312Y-46481495D01*
X40978505Y-46267688D01*
X40727095Y-46099701D01*
X40447743Y-45983989D01*
X40151184Y-45925000D01*
X39848816Y-45925000D01*
X39552257Y-45983989D01*
X39272905Y-46099701D01*
X39021495Y-46267688D01*
X38807688Y-46481495D01*
X38639701Y-46732905D01*
X38523989Y-47012257D01*
X38465000Y-47308816D01*
X38465000Y-47611184D01*
X38523989Y-47907743D01*
X38639701Y-48187095D01*
X38807688Y-48438505D01*
X38874127Y-48504944D01*
X38855820Y-48510498D01*
X38745506Y-48569463D01*
X38648815Y-48648815D01*
X38569463Y-48745506D01*
X38510498Y-48855820D01*
X38474188Y-48975518D01*
X38461928Y-49100000D01*
X36127000Y-49100000D01*
X36127000Y-42700881D01*
X37478724Y-42700881D01*
X37838912Y-43190548D01*
X38502882Y-43550849D01*
X39224385Y-43774694D01*
X39975695Y-43853480D01*
X40727938Y-43784178D01*
X41452208Y-43569452D01*
X42120670Y-43217555D01*
X42161088Y-43190548D01*
X42521276Y-42700881D01*
X77478724Y-42700881D01*
X77838912Y-43190548D01*
X78502882Y-43550849D01*
X79224385Y-43774694D01*
X79975695Y-43853480D01*
X80727938Y-43784178D01*
X81452208Y-43569452D01*
X82120670Y-43217555D01*
X82161088Y-43190548D01*
X82521276Y-42700881D01*
X80000000Y-40179605D01*
X77478724Y-42700881D01*
X42521276Y-42700881D01*
X40000000Y-40179605D01*
X37478724Y-42700881D01*
X36127000Y-42700881D01*
X36127000Y-39975695D01*
X36146520Y-39975695D01*
X36215822Y-40727938D01*
X36430548Y-41452208D01*
X36782445Y-42120670D01*
X36809452Y-42161088D01*
X37299119Y-42521276D01*
X39820395Y-40000000D01*
X40179605Y-40000000D01*
X42700881Y-42521276D01*
X43190548Y-42161088D01*
X43550849Y-41497118D01*
X43774694Y-40775615D01*
X43853480Y-40024305D01*
X43849002Y-39975695D01*
X76146520Y-39975695D01*
X76215822Y-40727938D01*
X76430548Y-41452208D01*
X76782445Y-42120670D01*
X76809452Y-42161088D01*
X77299119Y-42521276D01*
X79820395Y-40000000D01*
X80179605Y-40000000D01*
X82700881Y-42521276D01*
X83190548Y-42161088D01*
X83550849Y-41497118D01*
X83774694Y-40775615D01*
X83853480Y-40024305D01*
X83784178Y-39272062D01*
X83569452Y-38547792D01*
X83217555Y-37879330D01*
X83190548Y-37838912D01*
X82700881Y-37478724D01*
X80179605Y-40000000D01*
X79820395Y-40000000D01*
X77299119Y-37478724D01*
X76809452Y-37838912D01*
X76449151Y-38502882D01*
X76225306Y-39224385D01*
X76146520Y-39975695D01*
X43849002Y-39975695D01*
X43784178Y-39272062D01*
X43569452Y-38547792D01*
X43217555Y-37879330D01*
X43190548Y-37838912D01*
X42700881Y-37478724D01*
X40179605Y-40000000D01*
X39820395Y-40000000D01*
X37299119Y-37478724D01*
X36809452Y-37838912D01*
X36449151Y-38502882D01*
X36225306Y-39224385D01*
X36146520Y-39975695D01*
X36127000Y-39975695D01*
X36127000Y-37299119D01*
X37478724Y-37299119D01*
X40000000Y-39820395D01*
X42521276Y-37299119D01*
X77478724Y-37299119D01*
X80000000Y-39820395D01*
X82521276Y-37299119D01*
X82161088Y-36809452D01*
X81497118Y-36449151D01*
X80775615Y-36225306D01*
X80024305Y-36146520D01*
X79272062Y-36215822D01*
X78547792Y-36430548D01*
X77879330Y-36782445D01*
X77838912Y-36809452D01*
X77478724Y-37299119D01*
X42521276Y-37299119D01*
X42161088Y-36809452D01*
X41497118Y-36449151D01*
X40775615Y-36225306D01*
X40024305Y-36146520D01*
X39272062Y-36215822D01*
X38547792Y-36430548D01*
X37879330Y-36782445D01*
X37838912Y-36809452D01*
X37478724Y-37299119D01*
X36127000Y-37299119D01*
X36127000Y-36127000D01*
X83873000Y-36127000D01*
X83873000Y-163873000D01*
G36*
X47093363Y-117448759D02*
G01*
X47293241Y-117648637D01*
X47528273Y-117805680D01*
X47789426Y-117913853D01*
X48066665Y-117969000D01*
X48349335Y-117969000D01*
X48626574Y-117913853D01*
X48812999Y-117836633D01*
X48813000Y-128553436D01*
X48809202Y-128591999D01*
X48824358Y-128745885D01*
X48869245Y-128893858D01*
X48869246Y-128893859D01*
X48942138Y-129030232D01*
X48982689Y-129079643D01*
X49015654Y-129119811D01*
X49015658Y-129119815D01*
X49040236Y-129149763D01*
X49070184Y-129174341D01*
X49963000Y-130067158D01*
X49963000Y-130572661D01*
X49833241Y-130659363D01*
X49633363Y-130859241D01*
X49478000Y-131091759D01*
X49322637Y-130859241D01*
X49122759Y-130659363D01*
X48887727Y-130502320D01*
X48626574Y-130394147D01*
X48349335Y-130339000D01*
X48066665Y-130339000D01*
X47789426Y-130394147D01*
X47723000Y-130421662D01*
X47723000Y-130288552D01*
X47726797Y-130249999D01*
X47723000Y-130211446D01*
X47723000Y-130211439D01*
X47711641Y-130096113D01*
X47666754Y-129948140D01*
X47593862Y-129811767D01*
X47495764Y-129692236D01*
X47465816Y-129667658D01*
X44225000Y-126426843D01*
X44225000Y-117466396D01*
X44242637Y-117448759D01*
X44398000Y-117216241D01*
X44553363Y-117448759D01*
X44753241Y-117648637D01*
X44988273Y-117805680D01*
X45249426Y-117913853D01*
X45526665Y-117969000D01*
X45809335Y-117969000D01*
X46086574Y-117913853D01*
X46347727Y-117805680D01*
X46582759Y-117648637D01*
X46782637Y-117448759D01*
X46938000Y-117216241D01*
X47093363Y-117448759D01*
G37*
X47093363Y-117448759D02*
X47293241Y-117648637D01*
X47528273Y-117805680D01*
X47789426Y-117913853D01*
X48066665Y-117969000D01*
X48349335Y-117969000D01*
X48626574Y-117913853D01*
X48812999Y-117836633D01*
X48813000Y-128553436D01*
X48809202Y-128591999D01*
X48824358Y-128745885D01*
X48869245Y-128893858D01*
X48869246Y-128893859D01*
X48942138Y-129030232D01*
X48982689Y-129079643D01*
X49015654Y-129119811D01*
X49015658Y-129119815D01*
X49040236Y-129149763D01*
X49070184Y-129174341D01*
X49963000Y-130067158D01*
X49963000Y-130572661D01*
X49833241Y-130659363D01*
X49633363Y-130859241D01*
X49478000Y-131091759D01*
X49322637Y-130859241D01*
X49122759Y-130659363D01*
X48887727Y-130502320D01*
X48626574Y-130394147D01*
X48349335Y-130339000D01*
X48066665Y-130339000D01*
X47789426Y-130394147D01*
X47723000Y-130421662D01*
X47723000Y-130288552D01*
X47726797Y-130249999D01*
X47723000Y-130211446D01*
X47723000Y-130211439D01*
X47711641Y-130096113D01*
X47666754Y-129948140D01*
X47593862Y-129811767D01*
X47495764Y-129692236D01*
X47465816Y-129667658D01*
X44225000Y-126426843D01*
X44225000Y-117466396D01*
X44242637Y-117448759D01*
X44398000Y-117216241D01*
X44553363Y-117448759D01*
X44753241Y-117648637D01*
X44988273Y-117805680D01*
X45249426Y-117913853D01*
X45526665Y-117969000D01*
X45809335Y-117969000D01*
X46086574Y-117913853D01*
X46347727Y-117805680D01*
X46582759Y-117648637D01*
X46782637Y-117448759D01*
X46938000Y-117216241D01*
X47093363Y-117448759D01*
G36*
X51353000Y-122457436D02*
G01*
X51349202Y-122495999D01*
X51364358Y-122649885D01*
X51409245Y-122797858D01*
X51409246Y-122797859D01*
X51482138Y-122934232D01*
X51522689Y-122983643D01*
X51555654Y-123023811D01*
X51555658Y-123023815D01*
X51580236Y-123053763D01*
X51610184Y-123078341D01*
X53975658Y-125443816D01*
X54000236Y-125473764D01*
X54030184Y-125498342D01*
X54030187Y-125498345D01*
X54059559Y-125522450D01*
X54119767Y-125571862D01*
X54256140Y-125644754D01*
X54365738Y-125678000D01*
X54404112Y-125689641D01*
X54418490Y-125691057D01*
X54519439Y-125701000D01*
X54519446Y-125701000D01*
X54557999Y-125704797D01*
X54596552Y-125701000D01*
X54793000Y-125701000D01*
X54793000Y-125779939D01*
X54832774Y-125979898D01*
X54910795Y-126168256D01*
X55024063Y-126337774D01*
X55168226Y-126481937D01*
X55337744Y-126595205D01*
X55526102Y-126673226D01*
X55726061Y-126713000D01*
X55752843Y-126713000D01*
X56193001Y-127153159D01*
X56193001Y-128473241D01*
X56183227Y-128424102D01*
X56105206Y-128235744D01*
X55991938Y-128066226D01*
X55847775Y-127922063D01*
X55678257Y-127808795D01*
X55489899Y-127730774D01*
X55289940Y-127691000D01*
X55086062Y-127691000D01*
X54886103Y-127730774D01*
X54697745Y-127808795D01*
X54528227Y-127922063D01*
X54384064Y-128066226D01*
X54270796Y-128235744D01*
X54192775Y-128424102D01*
X54153001Y-128624061D01*
X54153001Y-128650843D01*
X54150189Y-128653655D01*
X54120235Y-128678238D01*
X54022137Y-128797770D01*
X53949245Y-128934143D01*
X53904358Y-129082116D01*
X53892999Y-129197442D01*
X53892999Y-129197449D01*
X53889202Y-129236002D01*
X53892999Y-129274555D01*
X53892999Y-130471367D01*
X53706574Y-130394147D01*
X53429335Y-130339000D01*
X53146665Y-130339000D01*
X52869426Y-130394147D01*
X52608273Y-130502320D01*
X52373241Y-130659363D01*
X52173363Y-130859241D01*
X52018000Y-131091759D01*
X51862637Y-130859241D01*
X51662759Y-130659363D01*
X51533000Y-130572661D01*
X51533000Y-129780552D01*
X51536797Y-129741999D01*
X51533000Y-129703446D01*
X51533000Y-129703439D01*
X51521641Y-129588113D01*
X51476754Y-129440140D01*
X51403862Y-129303767D01*
X51305764Y-129184236D01*
X51275817Y-129159659D01*
X50382999Y-128266842D01*
X50382999Y-117924509D01*
X50606665Y-117969000D01*
X50889335Y-117969000D01*
X51166574Y-117913853D01*
X51352999Y-117836633D01*
X51353000Y-122457436D01*
G37*
X51353000Y-122457436D02*
X51349202Y-122495999D01*
X51364358Y-122649885D01*
X51409245Y-122797858D01*
X51409246Y-122797859D01*
X51482138Y-122934232D01*
X51522689Y-122983643D01*
X51555654Y-123023811D01*
X51555658Y-123023815D01*
X51580236Y-123053763D01*
X51610184Y-123078341D01*
X53975658Y-125443816D01*
X54000236Y-125473764D01*
X54030184Y-125498342D01*
X54030187Y-125498345D01*
X54059559Y-125522450D01*
X54119767Y-125571862D01*
X54256140Y-125644754D01*
X54365738Y-125678000D01*
X54404112Y-125689641D01*
X54418490Y-125691057D01*
X54519439Y-125701000D01*
X54519446Y-125701000D01*
X54557999Y-125704797D01*
X54596552Y-125701000D01*
X54793000Y-125701000D01*
X54793000Y-125779939D01*
X54832774Y-125979898D01*
X54910795Y-126168256D01*
X55024063Y-126337774D01*
X55168226Y-126481937D01*
X55337744Y-126595205D01*
X55526102Y-126673226D01*
X55726061Y-126713000D01*
X55752843Y-126713000D01*
X56193001Y-127153159D01*
X56193001Y-128473241D01*
X56183227Y-128424102D01*
X56105206Y-128235744D01*
X55991938Y-128066226D01*
X55847775Y-127922063D01*
X55678257Y-127808795D01*
X55489899Y-127730774D01*
X55289940Y-127691000D01*
X55086062Y-127691000D01*
X54886103Y-127730774D01*
X54697745Y-127808795D01*
X54528227Y-127922063D01*
X54384064Y-128066226D01*
X54270796Y-128235744D01*
X54192775Y-128424102D01*
X54153001Y-128624061D01*
X54153001Y-128650843D01*
X54150189Y-128653655D01*
X54120235Y-128678238D01*
X54022137Y-128797770D01*
X53949245Y-128934143D01*
X53904358Y-129082116D01*
X53892999Y-129197442D01*
X53892999Y-129197449D01*
X53889202Y-129236002D01*
X53892999Y-129274555D01*
X53892999Y-130471367D01*
X53706574Y-130394147D01*
X53429335Y-130339000D01*
X53146665Y-130339000D01*
X52869426Y-130394147D01*
X52608273Y-130502320D01*
X52373241Y-130659363D01*
X52173363Y-130859241D01*
X52018000Y-131091759D01*
X51862637Y-130859241D01*
X51662759Y-130659363D01*
X51533000Y-130572661D01*
X51533000Y-129780552D01*
X51536797Y-129741999D01*
X51533000Y-129703446D01*
X51533000Y-129703439D01*
X51521641Y-129588113D01*
X51476754Y-129440140D01*
X51403862Y-129303767D01*
X51305764Y-129184236D01*
X51275817Y-129159659D01*
X50382999Y-128266842D01*
X50382999Y-117924509D01*
X50606665Y-117969000D01*
X50889335Y-117969000D01*
X51166574Y-117913853D01*
X51352999Y-117836633D01*
X51353000Y-122457436D01*
G36*
X79450971Y-93007129D02*
G01*
X79450970Y-115317941D01*
X79367727Y-115262320D01*
X79106574Y-115154147D01*
X78829335Y-115099000D01*
X78546665Y-115099000D01*
X78269426Y-115154147D01*
X78008273Y-115262320D01*
X77773241Y-115419363D01*
X77573363Y-115619241D01*
X77416320Y-115854273D01*
X77411933Y-115864865D01*
X77300385Y-115678869D01*
X77111414Y-115470481D01*
X76885420Y-115302963D01*
X76631087Y-115182754D01*
X76497039Y-115142096D01*
X76275000Y-115264085D01*
X76275000Y-116407000D01*
X76295000Y-116407000D01*
X76295000Y-116661000D01*
X76275000Y-116661000D01*
X76275000Y-117803915D01*
X76497039Y-117925904D01*
X76631087Y-117885246D01*
X76885420Y-117765037D01*
X77111414Y-117597519D01*
X77300385Y-117389131D01*
X77411933Y-117203135D01*
X77416320Y-117213727D01*
X77573363Y-117448759D01*
X77773241Y-117648637D01*
X78008273Y-117805680D01*
X78269426Y-117913853D01*
X78546665Y-117969000D01*
X78829335Y-117969000D01*
X79106574Y-117913853D01*
X79367727Y-117805680D01*
X79450970Y-117750059D01*
X79450970Y-120248872D01*
X77342843Y-122357000D01*
X77316061Y-122357000D01*
X77116102Y-122396774D01*
X76927744Y-122474795D01*
X76758226Y-122588063D01*
X76614063Y-122732226D01*
X76500795Y-122901744D01*
X76422774Y-123090102D01*
X76383000Y-123290061D01*
X76383000Y-123369000D01*
X70463378Y-123369000D01*
X70539222Y-123185898D01*
X70578996Y-122985939D01*
X70578996Y-122782061D01*
X70539222Y-122582102D01*
X70461201Y-122393744D01*
X70347933Y-122224226D01*
X70203770Y-122080063D01*
X70034252Y-121966795D01*
X69845894Y-121888774D01*
X69645935Y-121849000D01*
X69442057Y-121849000D01*
X69309000Y-121875466D01*
X69309000Y-121766061D01*
X69269226Y-121566102D01*
X69191205Y-121377744D01*
X69077937Y-121208226D01*
X68933774Y-121064063D01*
X68764256Y-120950795D01*
X68575898Y-120872774D01*
X68375939Y-120833000D01*
X68349158Y-120833000D01*
X68043000Y-120526843D01*
X68043000Y-117886338D01*
X68109426Y-117913853D01*
X68386665Y-117969000D01*
X68669335Y-117969000D01*
X68946574Y-117913853D01*
X69207727Y-117805680D01*
X69442759Y-117648637D01*
X69642637Y-117448759D01*
X69798000Y-117216241D01*
X69953363Y-117448759D01*
X70153241Y-117648637D01*
X70388273Y-117805680D01*
X70649426Y-117913853D01*
X70926665Y-117969000D01*
X71209335Y-117969000D01*
X71486574Y-117913853D01*
X71747727Y-117805680D01*
X71982759Y-117648637D01*
X72182637Y-117448759D01*
X72338000Y-117216241D01*
X72493363Y-117448759D01*
X72693241Y-117648637D01*
X72928273Y-117805680D01*
X73189426Y-117913853D01*
X73466665Y-117969000D01*
X73749335Y-117969000D01*
X74026574Y-117913853D01*
X74287727Y-117805680D01*
X74522759Y-117648637D01*
X74722637Y-117448759D01*
X74879680Y-117213727D01*
X74884067Y-117203135D01*
X74995615Y-117389131D01*
X75184586Y-117597519D01*
X75410580Y-117765037D01*
X75664913Y-117885246D01*
X75798961Y-117925904D01*
X76021000Y-117803915D01*
X76021000Y-116661000D01*
X76001000Y-116661000D01*
X76001000Y-116407000D01*
X76021000Y-116407000D01*
X76021000Y-115264085D01*
X75798961Y-115142096D01*
X75664913Y-115182754D01*
X75410580Y-115302963D01*
X75184586Y-115470481D01*
X74995615Y-115678869D01*
X74884067Y-115864865D01*
X74879680Y-115854273D01*
X74722637Y-115619241D01*
X74522759Y-115419363D01*
X74287727Y-115262320D01*
X74026574Y-115154147D01*
X73749335Y-115099000D01*
X73466665Y-115099000D01*
X73189426Y-115154147D01*
X72928273Y-115262320D01*
X72693241Y-115419363D01*
X72493363Y-115619241D01*
X72338000Y-115851759D01*
X72182637Y-115619241D01*
X72003000Y-115439604D01*
X72003000Y-113023931D01*
X72007524Y-112978000D01*
X72003000Y-112932068D01*
X72003000Y-107009000D01*
X73862000Y-107009000D01*
X73985882Y-106996799D01*
X74105004Y-106960664D01*
X74214787Y-106901983D01*
X74311013Y-106823013D01*
X74389983Y-106726787D01*
X74448664Y-106617004D01*
X74484799Y-106497882D01*
X74497000Y-106374000D01*
X74497000Y-104036087D01*
X74714250Y-104035000D01*
X74873000Y-103876250D01*
X74873000Y-102627000D01*
X75127000Y-102627000D01*
X75127000Y-103876250D01*
X75285750Y-104035000D01*
X75900000Y-104038072D01*
X76024482Y-104025812D01*
X76144180Y-103989502D01*
X76254494Y-103930537D01*
X76351185Y-103851185D01*
X76430537Y-103754494D01*
X76489502Y-103644180D01*
X76525812Y-103524482D01*
X76538072Y-103400000D01*
X76535000Y-102785750D01*
X76376250Y-102627000D01*
X75127000Y-102627000D01*
X74873000Y-102627000D01*
X74853000Y-102627000D01*
X74853000Y-102373000D01*
X74873000Y-102373000D01*
X74873000Y-102353000D01*
X75127000Y-102353000D01*
X75127000Y-102373000D01*
X76376250Y-102373000D01*
X76535000Y-102214250D01*
X76538072Y-101600000D01*
X76525812Y-101475518D01*
X76489502Y-101355820D01*
X76430537Y-101245506D01*
X76351185Y-101148815D01*
X76254494Y-101069463D01*
X76144180Y-101010498D01*
X76125873Y-101004944D01*
X76192312Y-100938505D01*
X76360299Y-100687095D01*
X76476011Y-100407743D01*
X76535000Y-100111184D01*
X76535000Y-99808816D01*
X76476011Y-99512257D01*
X76360299Y-99232905D01*
X76192312Y-98981495D01*
X75978505Y-98767688D01*
X75727095Y-98599701D01*
X75447743Y-98483989D01*
X75151184Y-98425000D01*
X74848816Y-98425000D01*
X74552257Y-98483989D01*
X74497000Y-98506877D01*
X74497000Y-93085000D01*
X76462707Y-93085000D01*
X76608104Y-93145226D01*
X76808063Y-93185000D01*
X77011941Y-93185000D01*
X77211900Y-93145226D01*
X77400258Y-93067205D01*
X77569776Y-92953937D01*
X77713939Y-92809774D01*
X77827207Y-92640256D01*
X77905228Y-92451898D01*
X77945002Y-92251939D01*
X77945002Y-92048061D01*
X77905228Y-91848102D01*
X77829384Y-91665000D01*
X78108843Y-91665000D01*
X79450971Y-93007129D01*
G37*
X79450971Y-93007129D02*
X79450970Y-115317941D01*
X79367727Y-115262320D01*
X79106574Y-115154147D01*
X78829335Y-115099000D01*
X78546665Y-115099000D01*
X78269426Y-115154147D01*
X78008273Y-115262320D01*
X77773241Y-115419363D01*
X77573363Y-115619241D01*
X77416320Y-115854273D01*
X77411933Y-115864865D01*
X77300385Y-115678869D01*
X77111414Y-115470481D01*
X76885420Y-115302963D01*
X76631087Y-115182754D01*
X76497039Y-115142096D01*
X76275000Y-115264085D01*
X76275000Y-116407000D01*
X76295000Y-116407000D01*
X76295000Y-116661000D01*
X76275000Y-116661000D01*
X76275000Y-117803915D01*
X76497039Y-117925904D01*
X76631087Y-117885246D01*
X76885420Y-117765037D01*
X77111414Y-117597519D01*
X77300385Y-117389131D01*
X77411933Y-117203135D01*
X77416320Y-117213727D01*
X77573363Y-117448759D01*
X77773241Y-117648637D01*
X78008273Y-117805680D01*
X78269426Y-117913853D01*
X78546665Y-117969000D01*
X78829335Y-117969000D01*
X79106574Y-117913853D01*
X79367727Y-117805680D01*
X79450970Y-117750059D01*
X79450970Y-120248872D01*
X77342843Y-122357000D01*
X77316061Y-122357000D01*
X77116102Y-122396774D01*
X76927744Y-122474795D01*
X76758226Y-122588063D01*
X76614063Y-122732226D01*
X76500795Y-122901744D01*
X76422774Y-123090102D01*
X76383000Y-123290061D01*
X76383000Y-123369000D01*
X70463378Y-123369000D01*
X70539222Y-123185898D01*
X70578996Y-122985939D01*
X70578996Y-122782061D01*
X70539222Y-122582102D01*
X70461201Y-122393744D01*
X70347933Y-122224226D01*
X70203770Y-122080063D01*
X70034252Y-121966795D01*
X69845894Y-121888774D01*
X69645935Y-121849000D01*
X69442057Y-121849000D01*
X69309000Y-121875466D01*
X69309000Y-121766061D01*
X69269226Y-121566102D01*
X69191205Y-121377744D01*
X69077937Y-121208226D01*
X68933774Y-121064063D01*
X68764256Y-120950795D01*
X68575898Y-120872774D01*
X68375939Y-120833000D01*
X68349158Y-120833000D01*
X68043000Y-120526843D01*
X68043000Y-117886338D01*
X68109426Y-117913853D01*
X68386665Y-117969000D01*
X68669335Y-117969000D01*
X68946574Y-117913853D01*
X69207727Y-117805680D01*
X69442759Y-117648637D01*
X69642637Y-117448759D01*
X69798000Y-117216241D01*
X69953363Y-117448759D01*
X70153241Y-117648637D01*
X70388273Y-117805680D01*
X70649426Y-117913853D01*
X70926665Y-117969000D01*
X71209335Y-117969000D01*
X71486574Y-117913853D01*
X71747727Y-117805680D01*
X71982759Y-117648637D01*
X72182637Y-117448759D01*
X72338000Y-117216241D01*
X72493363Y-117448759D01*
X72693241Y-117648637D01*
X72928273Y-117805680D01*
X73189426Y-117913853D01*
X73466665Y-117969000D01*
X73749335Y-117969000D01*
X74026574Y-117913853D01*
X74287727Y-117805680D01*
X74522759Y-117648637D01*
X74722637Y-117448759D01*
X74879680Y-117213727D01*
X74884067Y-117203135D01*
X74995615Y-117389131D01*
X75184586Y-117597519D01*
X75410580Y-117765037D01*
X75664913Y-117885246D01*
X75798961Y-117925904D01*
X76021000Y-117803915D01*
X76021000Y-116661000D01*
X76001000Y-116661000D01*
X76001000Y-116407000D01*
X76021000Y-116407000D01*
X76021000Y-115264085D01*
X75798961Y-115142096D01*
X75664913Y-115182754D01*
X75410580Y-115302963D01*
X75184586Y-115470481D01*
X74995615Y-115678869D01*
X74884067Y-115864865D01*
X74879680Y-115854273D01*
X74722637Y-115619241D01*
X74522759Y-115419363D01*
X74287727Y-115262320D01*
X74026574Y-115154147D01*
X73749335Y-115099000D01*
X73466665Y-115099000D01*
X73189426Y-115154147D01*
X72928273Y-115262320D01*
X72693241Y-115419363D01*
X72493363Y-115619241D01*
X72338000Y-115851759D01*
X72182637Y-115619241D01*
X72003000Y-115439604D01*
X72003000Y-113023931D01*
X72007524Y-112978000D01*
X72003000Y-112932068D01*
X72003000Y-107009000D01*
X73862000Y-107009000D01*
X73985882Y-106996799D01*
X74105004Y-106960664D01*
X74214787Y-106901983D01*
X74311013Y-106823013D01*
X74389983Y-106726787D01*
X74448664Y-106617004D01*
X74484799Y-106497882D01*
X74497000Y-106374000D01*
X74497000Y-104036087D01*
X74714250Y-104035000D01*
X74873000Y-103876250D01*
X74873000Y-102627000D01*
X75127000Y-102627000D01*
X75127000Y-103876250D01*
X75285750Y-104035000D01*
X75900000Y-104038072D01*
X76024482Y-104025812D01*
X76144180Y-103989502D01*
X76254494Y-103930537D01*
X76351185Y-103851185D01*
X76430537Y-103754494D01*
X76489502Y-103644180D01*
X76525812Y-103524482D01*
X76538072Y-103400000D01*
X76535000Y-102785750D01*
X76376250Y-102627000D01*
X75127000Y-102627000D01*
X74873000Y-102627000D01*
X74853000Y-102627000D01*
X74853000Y-102373000D01*
X74873000Y-102373000D01*
X74873000Y-102353000D01*
X75127000Y-102353000D01*
X75127000Y-102373000D01*
X76376250Y-102373000D01*
X76535000Y-102214250D01*
X76538072Y-101600000D01*
X76525812Y-101475518D01*
X76489502Y-101355820D01*
X76430537Y-101245506D01*
X76351185Y-101148815D01*
X76254494Y-101069463D01*
X76144180Y-101010498D01*
X76125873Y-101004944D01*
X76192312Y-100938505D01*
X76360299Y-100687095D01*
X76476011Y-100407743D01*
X76535000Y-100111184D01*
X76535000Y-99808816D01*
X76476011Y-99512257D01*
X76360299Y-99232905D01*
X76192312Y-98981495D01*
X75978505Y-98767688D01*
X75727095Y-98599701D01*
X75447743Y-98483989D01*
X75151184Y-98425000D01*
X74848816Y-98425000D01*
X74552257Y-98483989D01*
X74497000Y-98506877D01*
X74497000Y-93085000D01*
X76462707Y-93085000D01*
X76608104Y-93145226D01*
X76808063Y-93185000D01*
X77011941Y-93185000D01*
X77211900Y-93145226D01*
X77400258Y-93067205D01*
X77569776Y-92953937D01*
X77713939Y-92809774D01*
X77827207Y-92640256D01*
X77905228Y-92451898D01*
X77945002Y-92251939D01*
X77945002Y-92048061D01*
X77905228Y-91848102D01*
X77829384Y-91665000D01*
X78108843Y-91665000D01*
X79450971Y-93007129D01*
G36*
X62333363Y-117448759D02*
G01*
X62533241Y-117648637D01*
X62768273Y-117805680D01*
X63029426Y-117913853D01*
X63306665Y-117969000D01*
X63589335Y-117969000D01*
X63813001Y-117924509D01*
X63813002Y-121709438D01*
X63809204Y-121748001D01*
X63824360Y-121901887D01*
X63869247Y-122049860D01*
X63885391Y-122080063D01*
X63942140Y-122186234D01*
X63973320Y-122224226D01*
X64015656Y-122275813D01*
X64015660Y-122275817D01*
X64040238Y-122305765D01*
X64070186Y-122330343D01*
X65108842Y-123369000D01*
X56313155Y-123369000D01*
X55560154Y-122615999D01*
X55726061Y-122649000D01*
X55929939Y-122649000D01*
X56129898Y-122609226D01*
X56318256Y-122531205D01*
X56487774Y-122417937D01*
X56631937Y-122273774D01*
X56745205Y-122104256D01*
X56823226Y-121915898D01*
X56863000Y-121715939D01*
X56863000Y-121529159D01*
X58895816Y-119496344D01*
X58925764Y-119471766D01*
X58959856Y-119430226D01*
X58974450Y-119412443D01*
X59023862Y-119352235D01*
X59096754Y-119215862D01*
X59141641Y-119067889D01*
X59142911Y-119055000D01*
X59145170Y-119032063D01*
X59153000Y-118952563D01*
X59153000Y-118952556D01*
X59156797Y-118914003D01*
X59153000Y-118875450D01*
X59153000Y-117735339D01*
X59282759Y-117648637D01*
X59482637Y-117448759D01*
X59638000Y-117216241D01*
X59793363Y-117448759D01*
X59993241Y-117648637D01*
X60228273Y-117805680D01*
X60489426Y-117913853D01*
X60766665Y-117969000D01*
X61049335Y-117969000D01*
X61326574Y-117913853D01*
X61587727Y-117805680D01*
X61822759Y-117648637D01*
X62022637Y-117448759D01*
X62178000Y-117216241D01*
X62333363Y-117448759D01*
G37*
X62333363Y-117448759D02*
X62533241Y-117648637D01*
X62768273Y-117805680D01*
X63029426Y-117913853D01*
X63306665Y-117969000D01*
X63589335Y-117969000D01*
X63813001Y-117924509D01*
X63813002Y-121709438D01*
X63809204Y-121748001D01*
X63824360Y-121901887D01*
X63869247Y-122049860D01*
X63885391Y-122080063D01*
X63942140Y-122186234D01*
X63973320Y-122224226D01*
X64015656Y-122275813D01*
X64015660Y-122275817D01*
X64040238Y-122305765D01*
X64070186Y-122330343D01*
X65108842Y-123369000D01*
X56313155Y-123369000D01*
X55560154Y-122615999D01*
X55726061Y-122649000D01*
X55929939Y-122649000D01*
X56129898Y-122609226D01*
X56318256Y-122531205D01*
X56487774Y-122417937D01*
X56631937Y-122273774D01*
X56745205Y-122104256D01*
X56823226Y-121915898D01*
X56863000Y-121715939D01*
X56863000Y-121529159D01*
X58895816Y-119496344D01*
X58925764Y-119471766D01*
X58959856Y-119430226D01*
X58974450Y-119412443D01*
X59023862Y-119352235D01*
X59096754Y-119215862D01*
X59141641Y-119067889D01*
X59142911Y-119055000D01*
X59145170Y-119032063D01*
X59153000Y-118952563D01*
X59153000Y-118952556D01*
X59156797Y-118914003D01*
X59153000Y-118875450D01*
X59153000Y-117735339D01*
X59282759Y-117648637D01*
X59482637Y-117448759D01*
X59638000Y-117216241D01*
X59793363Y-117448759D01*
X59993241Y-117648637D01*
X60228273Y-117805680D01*
X60489426Y-117913853D01*
X60766665Y-117969000D01*
X61049335Y-117969000D01*
X61326574Y-117913853D01*
X61587727Y-117805680D01*
X61822759Y-117648637D01*
X62022637Y-117448759D01*
X62178000Y-117216241D01*
X62333363Y-117448759D01*
G36*
X48990774Y-70353898D02*
G01*
X49068795Y-70542256D01*
X49182063Y-70711774D01*
X49201000Y-70730711D01*
X49201001Y-71529448D01*
X49197203Y-71568010D01*
X49212359Y-71721896D01*
X49257246Y-71869869D01*
X49257247Y-71869870D01*
X49330139Y-72006243D01*
X49354189Y-72035547D01*
X49403655Y-72095822D01*
X49403659Y-72095826D01*
X49428237Y-72125774D01*
X49458186Y-72150353D01*
X49462990Y-72155157D01*
X49462991Y-111628851D01*
X49070188Y-112021654D01*
X49040235Y-112046237D01*
X48942137Y-112165769D01*
X48869245Y-112302142D01*
X48824358Y-112450115D01*
X48812999Y-112565441D01*
X48812999Y-112565448D01*
X48809202Y-112604001D01*
X48812999Y-112642554D01*
X48812999Y-115231367D01*
X48626574Y-115154147D01*
X48349335Y-115099000D01*
X48066665Y-115099000D01*
X47789426Y-115154147D01*
X47528273Y-115262320D01*
X47293241Y-115419363D01*
X47093363Y-115619241D01*
X46938000Y-115851759D01*
X46782637Y-115619241D01*
X46582759Y-115419363D01*
X46347727Y-115262320D01*
X46086574Y-115154147D01*
X45809335Y-115099000D01*
X45526665Y-115099000D01*
X45249426Y-115154147D01*
X44988273Y-115262320D01*
X44753241Y-115419363D01*
X44553363Y-115619241D01*
X44398000Y-115851759D01*
X44242637Y-115619241D01*
X44042759Y-115419363D01*
X43807727Y-115262320D01*
X43546574Y-115154147D01*
X43269335Y-115099000D01*
X42986665Y-115099000D01*
X42709426Y-115154147D01*
X42635000Y-115184975D01*
X42635000Y-103440000D01*
X43461928Y-103440000D01*
X43474188Y-103564482D01*
X43510498Y-103684180D01*
X43569463Y-103794494D01*
X43648815Y-103891185D01*
X43745506Y-103970537D01*
X43855820Y-104029502D01*
X43975518Y-104065812D01*
X44100000Y-104078072D01*
X44714250Y-104075000D01*
X44873000Y-103916250D01*
X44873000Y-102667000D01*
X45127000Y-102667000D01*
X45127000Y-103916250D01*
X45285750Y-104075000D01*
X45900000Y-104078072D01*
X46024482Y-104065812D01*
X46144180Y-104029502D01*
X46254494Y-103970537D01*
X46351185Y-103891185D01*
X46430537Y-103794494D01*
X46489502Y-103684180D01*
X46525812Y-103564482D01*
X46538072Y-103440000D01*
X46535000Y-102825750D01*
X46376250Y-102667000D01*
X45127000Y-102667000D01*
X44873000Y-102667000D01*
X43623750Y-102667000D01*
X43465000Y-102825750D01*
X43461928Y-103440000D01*
X42635000Y-103440000D01*
X42635000Y-101640000D01*
X43461928Y-101640000D01*
X43465000Y-102254250D01*
X43623750Y-102413000D01*
X44873000Y-102413000D01*
X44873000Y-102393000D01*
X45127000Y-102393000D01*
X45127000Y-102413000D01*
X46376250Y-102413000D01*
X46535000Y-102254250D01*
X46538072Y-101640000D01*
X46525812Y-101515518D01*
X46489502Y-101395820D01*
X46430537Y-101285506D01*
X46351185Y-101188815D01*
X46254494Y-101109463D01*
X46144180Y-101050498D01*
X46125873Y-101044944D01*
X46192312Y-100978505D01*
X46360299Y-100727095D01*
X46476011Y-100447743D01*
X46535000Y-100151184D01*
X46535000Y-99848816D01*
X46476011Y-99552257D01*
X46360299Y-99272905D01*
X46192312Y-99021495D01*
X45978505Y-98807688D01*
X45727095Y-98639701D01*
X45447743Y-98523989D01*
X45151184Y-98465000D01*
X44848816Y-98465000D01*
X44552257Y-98523989D01*
X44272905Y-98639701D01*
X44021495Y-98807688D01*
X43807688Y-99021495D01*
X43639701Y-99272905D01*
X43523989Y-99552257D01*
X43465000Y-99848816D01*
X43465000Y-100151184D01*
X43523989Y-100447743D01*
X43639701Y-100727095D01*
X43807688Y-100978505D01*
X43874127Y-101044944D01*
X43855820Y-101050498D01*
X43745506Y-101109463D01*
X43648815Y-101188815D01*
X43569463Y-101285506D01*
X43510498Y-101395820D01*
X43474188Y-101515518D01*
X43461928Y-101640000D01*
X42635000Y-101640000D01*
X42635000Y-80334049D01*
X42639000Y-80313939D01*
X42639000Y-80110061D01*
X42635000Y-80089951D01*
X42635000Y-78556049D01*
X42639000Y-78535939D01*
X42639000Y-78332061D01*
X42635000Y-78311951D01*
X42635000Y-77032049D01*
X42639000Y-77011939D01*
X42639000Y-76808061D01*
X42635000Y-76787951D01*
X42635000Y-70935000D01*
X47954068Y-70935000D01*
X48000000Y-70939524D01*
X48045932Y-70935000D01*
X48183292Y-70921471D01*
X48359540Y-70868007D01*
X48521972Y-70781186D01*
X48664344Y-70664344D01*
X48693630Y-70628659D01*
X48987060Y-70335229D01*
X48990774Y-70353898D01*
G37*
X48990774Y-70353898D02*
X49068795Y-70542256D01*
X49182063Y-70711774D01*
X49201000Y-70730711D01*
X49201001Y-71529448D01*
X49197203Y-71568010D01*
X49212359Y-71721896D01*
X49257246Y-71869869D01*
X49257247Y-71869870D01*
X49330139Y-72006243D01*
X49354189Y-72035547D01*
X49403655Y-72095822D01*
X49403659Y-72095826D01*
X49428237Y-72125774D01*
X49458186Y-72150353D01*
X49462990Y-72155157D01*
X49462991Y-111628851D01*
X49070188Y-112021654D01*
X49040235Y-112046237D01*
X48942137Y-112165769D01*
X48869245Y-112302142D01*
X48824358Y-112450115D01*
X48812999Y-112565441D01*
X48812999Y-112565448D01*
X48809202Y-112604001D01*
X48812999Y-112642554D01*
X48812999Y-115231367D01*
X48626574Y-115154147D01*
X48349335Y-115099000D01*
X48066665Y-115099000D01*
X47789426Y-115154147D01*
X47528273Y-115262320D01*
X47293241Y-115419363D01*
X47093363Y-115619241D01*
X46938000Y-115851759D01*
X46782637Y-115619241D01*
X46582759Y-115419363D01*
X46347727Y-115262320D01*
X46086574Y-115154147D01*
X45809335Y-115099000D01*
X45526665Y-115099000D01*
X45249426Y-115154147D01*
X44988273Y-115262320D01*
X44753241Y-115419363D01*
X44553363Y-115619241D01*
X44398000Y-115851759D01*
X44242637Y-115619241D01*
X44042759Y-115419363D01*
X43807727Y-115262320D01*
X43546574Y-115154147D01*
X43269335Y-115099000D01*
X42986665Y-115099000D01*
X42709426Y-115154147D01*
X42635000Y-115184975D01*
X42635000Y-103440000D01*
X43461928Y-103440000D01*
X43474188Y-103564482D01*
X43510498Y-103684180D01*
X43569463Y-103794494D01*
X43648815Y-103891185D01*
X43745506Y-103970537D01*
X43855820Y-104029502D01*
X43975518Y-104065812D01*
X44100000Y-104078072D01*
X44714250Y-104075000D01*
X44873000Y-103916250D01*
X44873000Y-102667000D01*
X45127000Y-102667000D01*
X45127000Y-103916250D01*
X45285750Y-104075000D01*
X45900000Y-104078072D01*
X46024482Y-104065812D01*
X46144180Y-104029502D01*
X46254494Y-103970537D01*
X46351185Y-103891185D01*
X46430537Y-103794494D01*
X46489502Y-103684180D01*
X46525812Y-103564482D01*
X46538072Y-103440000D01*
X46535000Y-102825750D01*
X46376250Y-102667000D01*
X45127000Y-102667000D01*
X44873000Y-102667000D01*
X43623750Y-102667000D01*
X43465000Y-102825750D01*
X43461928Y-103440000D01*
X42635000Y-103440000D01*
X42635000Y-101640000D01*
X43461928Y-101640000D01*
X43465000Y-102254250D01*
X43623750Y-102413000D01*
X44873000Y-102413000D01*
X44873000Y-102393000D01*
X45127000Y-102393000D01*
X45127000Y-102413000D01*
X46376250Y-102413000D01*
X46535000Y-102254250D01*
X46538072Y-101640000D01*
X46525812Y-101515518D01*
X46489502Y-101395820D01*
X46430537Y-101285506D01*
X46351185Y-101188815D01*
X46254494Y-101109463D01*
X46144180Y-101050498D01*
X46125873Y-101044944D01*
X46192312Y-100978505D01*
X46360299Y-100727095D01*
X46476011Y-100447743D01*
X46535000Y-100151184D01*
X46535000Y-99848816D01*
X46476011Y-99552257D01*
X46360299Y-99272905D01*
X46192312Y-99021495D01*
X45978505Y-98807688D01*
X45727095Y-98639701D01*
X45447743Y-98523989D01*
X45151184Y-98465000D01*
X44848816Y-98465000D01*
X44552257Y-98523989D01*
X44272905Y-98639701D01*
X44021495Y-98807688D01*
X43807688Y-99021495D01*
X43639701Y-99272905D01*
X43523989Y-99552257D01*
X43465000Y-99848816D01*
X43465000Y-100151184D01*
X43523989Y-100447743D01*
X43639701Y-100727095D01*
X43807688Y-100978505D01*
X43874127Y-101044944D01*
X43855820Y-101050498D01*
X43745506Y-101109463D01*
X43648815Y-101188815D01*
X43569463Y-101285506D01*
X43510498Y-101395820D01*
X43474188Y-101515518D01*
X43461928Y-101640000D01*
X42635000Y-101640000D01*
X42635000Y-80334049D01*
X42639000Y-80313939D01*
X42639000Y-80110061D01*
X42635000Y-80089951D01*
X42635000Y-78556049D01*
X42639000Y-78535939D01*
X42639000Y-78332061D01*
X42635000Y-78311951D01*
X42635000Y-77032049D01*
X42639000Y-77011939D01*
X42639000Y-76808061D01*
X42635000Y-76787951D01*
X42635000Y-70935000D01*
X47954068Y-70935000D01*
X48000000Y-70939524D01*
X48045932Y-70935000D01*
X48183292Y-70921471D01*
X48359540Y-70868007D01*
X48521972Y-70781186D01*
X48664344Y-70664344D01*
X48693630Y-70628659D01*
X48987060Y-70335229D01*
X48990774Y-70353898D01*
G36*
X63711928Y-84000000D02*
G01*
X63724188Y-84124482D01*
X63760498Y-84244180D01*
X63819463Y-84354494D01*
X63898815Y-84451185D01*
X63995506Y-84530537D01*
X64105820Y-84589502D01*
X64225518Y-84625812D01*
X64350000Y-84638072D01*
X66850000Y-84638072D01*
X66909112Y-84632250D01*
X67011079Y-94625001D01*
X58559930Y-94625001D01*
X58513998Y-94620477D01*
X58330707Y-94638530D01*
X58154459Y-94691994D01*
X57992027Y-94778815D01*
X57849655Y-94895657D01*
X57820369Y-94931342D01*
X57769142Y-94982569D01*
X57623744Y-95042795D01*
X57454226Y-95156063D01*
X57310063Y-95300226D01*
X57196795Y-95469744D01*
X57118774Y-95658102D01*
X57079000Y-95858061D01*
X57079000Y-96061939D01*
X57118774Y-96261898D01*
X57196795Y-96450256D01*
X57310063Y-96619774D01*
X57454226Y-96763937D01*
X57623744Y-96877205D01*
X57812102Y-96955226D01*
X58012061Y-96995000D01*
X58215939Y-96995000D01*
X58415898Y-96955226D01*
X58604256Y-96877205D01*
X58773774Y-96763937D01*
X58917937Y-96619774D01*
X59001307Y-96495001D01*
X67030161Y-96495001D01*
X67131033Y-106380479D01*
X67143201Y-106497882D01*
X67179336Y-106617004D01*
X67238017Y-106726787D01*
X67316987Y-106823013D01*
X67413213Y-106901983D01*
X67522996Y-106960664D01*
X67642118Y-106996799D01*
X67766000Y-107009000D01*
X70133001Y-107009000D01*
X70133000Y-112043000D01*
X67451295Y-112043000D01*
X67305898Y-111982774D01*
X67105939Y-111943000D01*
X66902061Y-111943000D01*
X66702102Y-111982774D01*
X66513744Y-112060795D01*
X66344226Y-112174063D01*
X66200063Y-112318226D01*
X66086795Y-112487744D01*
X66008774Y-112676102D01*
X65969000Y-112876061D01*
X65969000Y-113079939D01*
X66008774Y-113279898D01*
X66086795Y-113468256D01*
X66200063Y-113637774D01*
X66344226Y-113781937D01*
X66513744Y-113895205D01*
X66702102Y-113973226D01*
X66902061Y-114013000D01*
X67105939Y-114013000D01*
X67305898Y-113973226D01*
X67451295Y-113913000D01*
X70133001Y-113913000D01*
X70133000Y-115439604D01*
X69953363Y-115619241D01*
X69798000Y-115851759D01*
X69642637Y-115619241D01*
X69442759Y-115419363D01*
X69207727Y-115262320D01*
X68946574Y-115154147D01*
X68669335Y-115099000D01*
X68386665Y-115099000D01*
X68109426Y-115154147D01*
X67848273Y-115262320D01*
X67656570Y-115390411D01*
X65478349Y-113212190D01*
X65453766Y-113182236D01*
X65334235Y-113084138D01*
X65197862Y-113011246D01*
X65049889Y-112966359D01*
X64934563Y-112955000D01*
X64934555Y-112955000D01*
X64896002Y-112951203D01*
X64857449Y-112955000D01*
X55988518Y-112955000D01*
X54065010Y-111031493D01*
X54065010Y-103400000D01*
X58461928Y-103400000D01*
X58474188Y-103524482D01*
X58510498Y-103644180D01*
X58569463Y-103754494D01*
X58648815Y-103851185D01*
X58745506Y-103930537D01*
X58855820Y-103989502D01*
X58975518Y-104025812D01*
X59100000Y-104038072D01*
X59714250Y-104035000D01*
X59873000Y-103876250D01*
X59873000Y-102627000D01*
X60127000Y-102627000D01*
X60127000Y-103876250D01*
X60285750Y-104035000D01*
X60900000Y-104038072D01*
X61024482Y-104025812D01*
X61144180Y-103989502D01*
X61254494Y-103930537D01*
X61351185Y-103851185D01*
X61430537Y-103754494D01*
X61489502Y-103644180D01*
X61525812Y-103524482D01*
X61538072Y-103400000D01*
X61535000Y-102785750D01*
X61376250Y-102627000D01*
X60127000Y-102627000D01*
X59873000Y-102627000D01*
X58623750Y-102627000D01*
X58465000Y-102785750D01*
X58461928Y-103400000D01*
X54065010Y-103400000D01*
X54065010Y-101600000D01*
X58461928Y-101600000D01*
X58465000Y-102214250D01*
X58623750Y-102373000D01*
X59873000Y-102373000D01*
X59873000Y-102353000D01*
X60127000Y-102353000D01*
X60127000Y-102373000D01*
X61376250Y-102373000D01*
X61535000Y-102214250D01*
X61538072Y-101600000D01*
X61525812Y-101475518D01*
X61489502Y-101355820D01*
X61430537Y-101245506D01*
X61351185Y-101148815D01*
X61254494Y-101069463D01*
X61144180Y-101010498D01*
X61125873Y-101004944D01*
X61192312Y-100938505D01*
X61360299Y-100687095D01*
X61476011Y-100407743D01*
X61535000Y-100111184D01*
X61535000Y-99808816D01*
X61476011Y-99512257D01*
X61360299Y-99232905D01*
X61192312Y-98981495D01*
X60978505Y-98767688D01*
X60727095Y-98599701D01*
X60447743Y-98483989D01*
X60151184Y-98425000D01*
X59848816Y-98425000D01*
X59552257Y-98483989D01*
X59272905Y-98599701D01*
X59021495Y-98767688D01*
X58807688Y-98981495D01*
X58639701Y-99232905D01*
X58523989Y-99512257D01*
X58465000Y-99808816D01*
X58465000Y-100111184D01*
X58523989Y-100407743D01*
X58639701Y-100687095D01*
X58807688Y-100938505D01*
X58874127Y-101004944D01*
X58855820Y-101010498D01*
X58745506Y-101069463D01*
X58648815Y-101148815D01*
X58569463Y-101245506D01*
X58510498Y-101355820D01*
X58474188Y-101475518D01*
X58461928Y-101600000D01*
X54065010Y-101600000D01*
X54065010Y-98845147D01*
X54379157Y-98531000D01*
X54405939Y-98531000D01*
X54605898Y-98491226D01*
X54794256Y-98413205D01*
X54963774Y-98299937D01*
X55107937Y-98155774D01*
X55221205Y-97986256D01*
X55299226Y-97797898D01*
X55339000Y-97597939D01*
X55339000Y-97394061D01*
X55299226Y-97194102D01*
X55221205Y-97005744D01*
X55107937Y-96836226D01*
X54963774Y-96692063D01*
X54794256Y-96578795D01*
X54605898Y-96500774D01*
X54405939Y-96461000D01*
X54202061Y-96461000D01*
X54002102Y-96500774D01*
X53836910Y-96569199D01*
X53693774Y-96426063D01*
X53524256Y-96312795D01*
X53335898Y-96234774D01*
X53135939Y-96195000D01*
X53049010Y-96195000D01*
X53049010Y-89000000D01*
X55861928Y-89000000D01*
X55861928Y-91000000D01*
X55874188Y-91124482D01*
X55910498Y-91244180D01*
X55969463Y-91354494D01*
X56048815Y-91451185D01*
X56145506Y-91530537D01*
X56255820Y-91589502D01*
X56375518Y-91625812D01*
X56500000Y-91638072D01*
X58500000Y-91638072D01*
X58624482Y-91625812D01*
X58744180Y-91589502D01*
X58854494Y-91530537D01*
X58951185Y-91451185D01*
X59030537Y-91354494D01*
X59085976Y-91250777D01*
X59139956Y-91399814D01*
X59429571Y-91540704D01*
X59741108Y-91622384D01*
X60062595Y-91641718D01*
X60381675Y-91597961D01*
X60686088Y-91492795D01*
X60860044Y-91399814D01*
X60955808Y-91135413D01*
X60000000Y-90179605D01*
X59985858Y-90193748D01*
X59806253Y-90014143D01*
X59820395Y-90000000D01*
X60179605Y-90000000D01*
X61135413Y-90955808D01*
X61165075Y-90945065D01*
X61230013Y-91042252D01*
X61457748Y-91269987D01*
X61725537Y-91448918D01*
X62023088Y-91572168D01*
X62338967Y-91635000D01*
X62661033Y-91635000D01*
X62976912Y-91572168D01*
X63274463Y-91448918D01*
X63542252Y-91269987D01*
X63769987Y-91042252D01*
X63948918Y-90774463D01*
X64072168Y-90476912D01*
X64135000Y-90161033D01*
X64135000Y-89838967D01*
X64072168Y-89523088D01*
X63948918Y-89225537D01*
X63769987Y-88957748D01*
X63542252Y-88730013D01*
X63274463Y-88551082D01*
X62976912Y-88427832D01*
X62661033Y-88365000D01*
X62338967Y-88365000D01*
X62023088Y-88427832D01*
X61725537Y-88551082D01*
X61457748Y-88730013D01*
X61230013Y-88957748D01*
X61165075Y-89054935D01*
X61135413Y-89044192D01*
X60179605Y-90000000D01*
X59820395Y-90000000D01*
X59806253Y-89985858D01*
X59985858Y-89806253D01*
X60000000Y-89820395D01*
X60955808Y-88864587D01*
X60860044Y-88600186D01*
X60570429Y-88459296D01*
X60258892Y-88377616D01*
X59937405Y-88358282D01*
X59618325Y-88402039D01*
X59313912Y-88507205D01*
X59139956Y-88600186D01*
X59085976Y-88749223D01*
X59030537Y-88645506D01*
X58951185Y-88548815D01*
X58854494Y-88469463D01*
X58744180Y-88410498D01*
X58624482Y-88374188D01*
X58500000Y-88361928D01*
X56500000Y-88361928D01*
X56375518Y-88374188D01*
X56255820Y-88410498D01*
X56145506Y-88469463D01*
X56048815Y-88548815D01*
X55969463Y-88645506D01*
X55910498Y-88755820D01*
X55874188Y-88875518D01*
X55861928Y-89000000D01*
X53049010Y-89000000D01*
X53049010Y-84628126D01*
X53150000Y-84638072D01*
X55650000Y-84638072D01*
X55774482Y-84625812D01*
X55894180Y-84589502D01*
X56004494Y-84530537D01*
X56101185Y-84451185D01*
X56180537Y-84354494D01*
X56239502Y-84244180D01*
X56275812Y-84124482D01*
X56288072Y-84000000D01*
X56288072Y-81355000D01*
X63711928Y-81355000D01*
X63711928Y-84000000D01*
G37*
X63711928Y-84000000D02*
X63724188Y-84124482D01*
X63760498Y-84244180D01*
X63819463Y-84354494D01*
X63898815Y-84451185D01*
X63995506Y-84530537D01*
X64105820Y-84589502D01*
X64225518Y-84625812D01*
X64350000Y-84638072D01*
X66850000Y-84638072D01*
X66909112Y-84632250D01*
X67011079Y-94625001D01*
X58559930Y-94625001D01*
X58513998Y-94620477D01*
X58330707Y-94638530D01*
X58154459Y-94691994D01*
X57992027Y-94778815D01*
X57849655Y-94895657D01*
X57820369Y-94931342D01*
X57769142Y-94982569D01*
X57623744Y-95042795D01*
X57454226Y-95156063D01*
X57310063Y-95300226D01*
X57196795Y-95469744D01*
X57118774Y-95658102D01*
X57079000Y-95858061D01*
X57079000Y-96061939D01*
X57118774Y-96261898D01*
X57196795Y-96450256D01*
X57310063Y-96619774D01*
X57454226Y-96763937D01*
X57623744Y-96877205D01*
X57812102Y-96955226D01*
X58012061Y-96995000D01*
X58215939Y-96995000D01*
X58415898Y-96955226D01*
X58604256Y-96877205D01*
X58773774Y-96763937D01*
X58917937Y-96619774D01*
X59001307Y-96495001D01*
X67030161Y-96495001D01*
X67131033Y-106380479D01*
X67143201Y-106497882D01*
X67179336Y-106617004D01*
X67238017Y-106726787D01*
X67316987Y-106823013D01*
X67413213Y-106901983D01*
X67522996Y-106960664D01*
X67642118Y-106996799D01*
X67766000Y-107009000D01*
X70133001Y-107009000D01*
X70133000Y-112043000D01*
X67451295Y-112043000D01*
X67305898Y-111982774D01*
X67105939Y-111943000D01*
X66902061Y-111943000D01*
X66702102Y-111982774D01*
X66513744Y-112060795D01*
X66344226Y-112174063D01*
X66200063Y-112318226D01*
X66086795Y-112487744D01*
X66008774Y-112676102D01*
X65969000Y-112876061D01*
X65969000Y-113079939D01*
X66008774Y-113279898D01*
X66086795Y-113468256D01*
X66200063Y-113637774D01*
X66344226Y-113781937D01*
X66513744Y-113895205D01*
X66702102Y-113973226D01*
X66902061Y-114013000D01*
X67105939Y-114013000D01*
X67305898Y-113973226D01*
X67451295Y-113913000D01*
X70133001Y-113913000D01*
X70133000Y-115439604D01*
X69953363Y-115619241D01*
X69798000Y-115851759D01*
X69642637Y-115619241D01*
X69442759Y-115419363D01*
X69207727Y-115262320D01*
X68946574Y-115154147D01*
X68669335Y-115099000D01*
X68386665Y-115099000D01*
X68109426Y-115154147D01*
X67848273Y-115262320D01*
X67656570Y-115390411D01*
X65478349Y-113212190D01*
X65453766Y-113182236D01*
X65334235Y-113084138D01*
X65197862Y-113011246D01*
X65049889Y-112966359D01*
X64934563Y-112955000D01*
X64934555Y-112955000D01*
X64896002Y-112951203D01*
X64857449Y-112955000D01*
X55988518Y-112955000D01*
X54065010Y-111031493D01*
X54065010Y-103400000D01*
X58461928Y-103400000D01*
X58474188Y-103524482D01*
X58510498Y-103644180D01*
X58569463Y-103754494D01*
X58648815Y-103851185D01*
X58745506Y-103930537D01*
X58855820Y-103989502D01*
X58975518Y-104025812D01*
X59100000Y-104038072D01*
X59714250Y-104035000D01*
X59873000Y-103876250D01*
X59873000Y-102627000D01*
X60127000Y-102627000D01*
X60127000Y-103876250D01*
X60285750Y-104035000D01*
X60900000Y-104038072D01*
X61024482Y-104025812D01*
X61144180Y-103989502D01*
X61254494Y-103930537D01*
X61351185Y-103851185D01*
X61430537Y-103754494D01*
X61489502Y-103644180D01*
X61525812Y-103524482D01*
X61538072Y-103400000D01*
X61535000Y-102785750D01*
X61376250Y-102627000D01*
X60127000Y-102627000D01*
X59873000Y-102627000D01*
X58623750Y-102627000D01*
X58465000Y-102785750D01*
X58461928Y-103400000D01*
X54065010Y-103400000D01*
X54065010Y-101600000D01*
X58461928Y-101600000D01*
X58465000Y-102214250D01*
X58623750Y-102373000D01*
X59873000Y-102373000D01*
X59873000Y-102353000D01*
X60127000Y-102353000D01*
X60127000Y-102373000D01*
X61376250Y-102373000D01*
X61535000Y-102214250D01*
X61538072Y-101600000D01*
X61525812Y-101475518D01*
X61489502Y-101355820D01*
X61430537Y-101245506D01*
X61351185Y-101148815D01*
X61254494Y-101069463D01*
X61144180Y-101010498D01*
X61125873Y-101004944D01*
X61192312Y-100938505D01*
X61360299Y-100687095D01*
X61476011Y-100407743D01*
X61535000Y-100111184D01*
X61535000Y-99808816D01*
X61476011Y-99512257D01*
X61360299Y-99232905D01*
X61192312Y-98981495D01*
X60978505Y-98767688D01*
X60727095Y-98599701D01*
X60447743Y-98483989D01*
X60151184Y-98425000D01*
X59848816Y-98425000D01*
X59552257Y-98483989D01*
X59272905Y-98599701D01*
X59021495Y-98767688D01*
X58807688Y-98981495D01*
X58639701Y-99232905D01*
X58523989Y-99512257D01*
X58465000Y-99808816D01*
X58465000Y-100111184D01*
X58523989Y-100407743D01*
X58639701Y-100687095D01*
X58807688Y-100938505D01*
X58874127Y-101004944D01*
X58855820Y-101010498D01*
X58745506Y-101069463D01*
X58648815Y-101148815D01*
X58569463Y-101245506D01*
X58510498Y-101355820D01*
X58474188Y-101475518D01*
X58461928Y-101600000D01*
X54065010Y-101600000D01*
X54065010Y-98845147D01*
X54379157Y-98531000D01*
X54405939Y-98531000D01*
X54605898Y-98491226D01*
X54794256Y-98413205D01*
X54963774Y-98299937D01*
X55107937Y-98155774D01*
X55221205Y-97986256D01*
X55299226Y-97797898D01*
X55339000Y-97597939D01*
X55339000Y-97394061D01*
X55299226Y-97194102D01*
X55221205Y-97005744D01*
X55107937Y-96836226D01*
X54963774Y-96692063D01*
X54794256Y-96578795D01*
X54605898Y-96500774D01*
X54405939Y-96461000D01*
X54202061Y-96461000D01*
X54002102Y-96500774D01*
X53836910Y-96569199D01*
X53693774Y-96426063D01*
X53524256Y-96312795D01*
X53335898Y-96234774D01*
X53135939Y-96195000D01*
X53049010Y-96195000D01*
X53049010Y-89000000D01*
X55861928Y-89000000D01*
X55861928Y-91000000D01*
X55874188Y-91124482D01*
X55910498Y-91244180D01*
X55969463Y-91354494D01*
X56048815Y-91451185D01*
X56145506Y-91530537D01*
X56255820Y-91589502D01*
X56375518Y-91625812D01*
X56500000Y-91638072D01*
X58500000Y-91638072D01*
X58624482Y-91625812D01*
X58744180Y-91589502D01*
X58854494Y-91530537D01*
X58951185Y-91451185D01*
X59030537Y-91354494D01*
X59085976Y-91250777D01*
X59139956Y-91399814D01*
X59429571Y-91540704D01*
X59741108Y-91622384D01*
X60062595Y-91641718D01*
X60381675Y-91597961D01*
X60686088Y-91492795D01*
X60860044Y-91399814D01*
X60955808Y-91135413D01*
X60000000Y-90179605D01*
X59985858Y-90193748D01*
X59806253Y-90014143D01*
X59820395Y-90000000D01*
X60179605Y-90000000D01*
X61135413Y-90955808D01*
X61165075Y-90945065D01*
X61230013Y-91042252D01*
X61457748Y-91269987D01*
X61725537Y-91448918D01*
X62023088Y-91572168D01*
X62338967Y-91635000D01*
X62661033Y-91635000D01*
X62976912Y-91572168D01*
X63274463Y-91448918D01*
X63542252Y-91269987D01*
X63769987Y-91042252D01*
X63948918Y-90774463D01*
X64072168Y-90476912D01*
X64135000Y-90161033D01*
X64135000Y-89838967D01*
X64072168Y-89523088D01*
X63948918Y-89225537D01*
X63769987Y-88957748D01*
X63542252Y-88730013D01*
X63274463Y-88551082D01*
X62976912Y-88427832D01*
X62661033Y-88365000D01*
X62338967Y-88365000D01*
X62023088Y-88427832D01*
X61725537Y-88551082D01*
X61457748Y-88730013D01*
X61230013Y-88957748D01*
X61165075Y-89054935D01*
X61135413Y-89044192D01*
X60179605Y-90000000D01*
X59820395Y-90000000D01*
X59806253Y-89985858D01*
X59985858Y-89806253D01*
X60000000Y-89820395D01*
X60955808Y-88864587D01*
X60860044Y-88600186D01*
X60570429Y-88459296D01*
X60258892Y-88377616D01*
X59937405Y-88358282D01*
X59618325Y-88402039D01*
X59313912Y-88507205D01*
X59139956Y-88600186D01*
X59085976Y-88749223D01*
X59030537Y-88645506D01*
X58951185Y-88548815D01*
X58854494Y-88469463D01*
X58744180Y-88410498D01*
X58624482Y-88374188D01*
X58500000Y-88361928D01*
X56500000Y-88361928D01*
X56375518Y-88374188D01*
X56255820Y-88410498D01*
X56145506Y-88469463D01*
X56048815Y-88548815D01*
X55969463Y-88645506D01*
X55910498Y-88755820D01*
X55874188Y-88875518D01*
X55861928Y-89000000D01*
X53049010Y-89000000D01*
X53049010Y-84628126D01*
X53150000Y-84638072D01*
X55650000Y-84638072D01*
X55774482Y-84625812D01*
X55894180Y-84589502D01*
X56004494Y-84530537D01*
X56101185Y-84451185D01*
X56180537Y-84354494D01*
X56239502Y-84244180D01*
X56275812Y-84124482D01*
X56288072Y-84000000D01*
X56288072Y-81355000D01*
X63711928Y-81355000D01*
X63711928Y-84000000D01*
G36*
X49830795Y-55083744D02*
G01*
X49752774Y-55272102D01*
X49713000Y-55472061D01*
X49713000Y-55675939D01*
X49752774Y-55875898D01*
X49830795Y-56064256D01*
X49944063Y-56233774D01*
X49963000Y-56252711D01*
X49963000Y-67620303D01*
X49917205Y-67509744D01*
X49803937Y-67340226D01*
X49659774Y-67196063D01*
X49490256Y-67082795D01*
X49301898Y-67004774D01*
X49101939Y-66965000D01*
X48898061Y-66965000D01*
X48698102Y-67004774D01*
X48509744Y-67082795D01*
X48340226Y-67196063D01*
X48196063Y-67340226D01*
X48082795Y-67509744D01*
X48004774Y-67698102D01*
X47965000Y-67898061D01*
X47965000Y-68101939D01*
X48004774Y-68301898D01*
X48065000Y-68447296D01*
X48065001Y-68612710D01*
X47612711Y-69065000D01*
X42635000Y-69065000D01*
X42635000Y-54935000D01*
X49930182Y-54935000D01*
X49830795Y-55083744D01*
G37*
X49830795Y-55083744D02*
X49752774Y-55272102D01*
X49713000Y-55472061D01*
X49713000Y-55675939D01*
X49752774Y-55875898D01*
X49830795Y-56064256D01*
X49944063Y-56233774D01*
X49963000Y-56252711D01*
X49963000Y-67620303D01*
X49917205Y-67509744D01*
X49803937Y-67340226D01*
X49659774Y-67196063D01*
X49490256Y-67082795D01*
X49301898Y-67004774D01*
X49101939Y-66965000D01*
X48898061Y-66965000D01*
X48698102Y-67004774D01*
X48509744Y-67082795D01*
X48340226Y-67196063D01*
X48196063Y-67340226D01*
X48082795Y-67509744D01*
X48004774Y-67698102D01*
X47965000Y-67898061D01*
X47965000Y-68101939D01*
X48004774Y-68301898D01*
X48065000Y-68447296D01*
X48065001Y-68612710D01*
X47612711Y-69065000D01*
X42635000Y-69065000D01*
X42635000Y-54935000D01*
X49930182Y-54935000D01*
X49830795Y-55083744D01*
G36*
X41873000Y-115829310D02*
G01*
X41856320Y-115854273D01*
X41748147Y-116115426D01*
X41693000Y-116392665D01*
X41693000Y-116675335D01*
X41748147Y-116952574D01*
X41856320Y-117213727D01*
X41873000Y-117238690D01*
X41873000Y-131069310D01*
X41856320Y-131094273D01*
X41748147Y-131355426D01*
X41693000Y-131632665D01*
X41693000Y-131915335D01*
X41748147Y-132192574D01*
X41856320Y-132453727D01*
X41873000Y-132478690D01*
X41873000Y-133000000D01*
X41878350Y-133036472D01*
X46303000Y-147794627D01*
X46303000Y-154873000D01*
X37127000Y-154873000D01*
X37127000Y-139100000D01*
X38461928Y-139100000D01*
X38461928Y-140900000D01*
X38474188Y-141024482D01*
X38510498Y-141144180D01*
X38569463Y-141254494D01*
X38648815Y-141351185D01*
X38745506Y-141430537D01*
X38855820Y-141489502D01*
X38975518Y-141525812D01*
X39100000Y-141538072D01*
X40900000Y-141538072D01*
X41024482Y-141525812D01*
X41144180Y-141489502D01*
X41254494Y-141430537D01*
X41351185Y-141351185D01*
X41430537Y-141254494D01*
X41489502Y-141144180D01*
X41525812Y-141024482D01*
X41538072Y-140900000D01*
X41538072Y-139100000D01*
X41525812Y-138975518D01*
X41489502Y-138855820D01*
X41430537Y-138745506D01*
X41351185Y-138648815D01*
X41254494Y-138569463D01*
X41144180Y-138510498D01*
X41125873Y-138504944D01*
X41192312Y-138438505D01*
X41360299Y-138187095D01*
X41476011Y-137907743D01*
X41535000Y-137611184D01*
X41535000Y-137308816D01*
X41476011Y-137012257D01*
X41360299Y-136732905D01*
X41192312Y-136481495D01*
X40978505Y-136267688D01*
X40727095Y-136099701D01*
X40447743Y-135983989D01*
X40151184Y-135925000D01*
X39848816Y-135925000D01*
X39552257Y-135983989D01*
X39272905Y-136099701D01*
X39021495Y-136267688D01*
X38807688Y-136481495D01*
X38639701Y-136732905D01*
X38523989Y-137012257D01*
X38465000Y-137308816D01*
X38465000Y-137611184D01*
X38523989Y-137907743D01*
X38639701Y-138187095D01*
X38807688Y-138438505D01*
X38874127Y-138504944D01*
X38855820Y-138510498D01*
X38745506Y-138569463D01*
X38648815Y-138648815D01*
X38569463Y-138745506D01*
X38510498Y-138855820D01*
X38474188Y-138975518D01*
X38461928Y-139100000D01*
X37127000Y-139100000D01*
X37127000Y-52127000D01*
X41873000Y-52127000D01*
X41873000Y-115829310D01*
G37*
X41873000Y-115829310D02*
X41856320Y-115854273D01*
X41748147Y-116115426D01*
X41693000Y-116392665D01*
X41693000Y-116675335D01*
X41748147Y-116952574D01*
X41856320Y-117213727D01*
X41873000Y-117238690D01*
X41873000Y-131069310D01*
X41856320Y-131094273D01*
X41748147Y-131355426D01*
X41693000Y-131632665D01*
X41693000Y-131915335D01*
X41748147Y-132192574D01*
X41856320Y-132453727D01*
X41873000Y-132478690D01*
X41873000Y-133000000D01*
X41878350Y-133036472D01*
X46303000Y-147794627D01*
X46303000Y-154873000D01*
X37127000Y-154873000D01*
X37127000Y-139100000D01*
X38461928Y-139100000D01*
X38461928Y-140900000D01*
X38474188Y-141024482D01*
X38510498Y-141144180D01*
X38569463Y-141254494D01*
X38648815Y-141351185D01*
X38745506Y-141430537D01*
X38855820Y-141489502D01*
X38975518Y-141525812D01*
X39100000Y-141538072D01*
X40900000Y-141538072D01*
X41024482Y-141525812D01*
X41144180Y-141489502D01*
X41254494Y-141430537D01*
X41351185Y-141351185D01*
X41430537Y-141254494D01*
X41489502Y-141144180D01*
X41525812Y-141024482D01*
X41538072Y-140900000D01*
X41538072Y-139100000D01*
X41525812Y-138975518D01*
X41489502Y-138855820D01*
X41430537Y-138745506D01*
X41351185Y-138648815D01*
X41254494Y-138569463D01*
X41144180Y-138510498D01*
X41125873Y-138504944D01*
X41192312Y-138438505D01*
X41360299Y-138187095D01*
X41476011Y-137907743D01*
X41535000Y-137611184D01*
X41535000Y-137308816D01*
X41476011Y-137012257D01*
X41360299Y-136732905D01*
X41192312Y-136481495D01*
X40978505Y-136267688D01*
X40727095Y-136099701D01*
X40447743Y-135983989D01*
X40151184Y-135925000D01*
X39848816Y-135925000D01*
X39552257Y-135983989D01*
X39272905Y-136099701D01*
X39021495Y-136267688D01*
X38807688Y-136481495D01*
X38639701Y-136732905D01*
X38523989Y-137012257D01*
X38465000Y-137308816D01*
X38465000Y-137611184D01*
X38523989Y-137907743D01*
X38639701Y-138187095D01*
X38807688Y-138438505D01*
X38874127Y-138504944D01*
X38855820Y-138510498D01*
X38745506Y-138569463D01*
X38648815Y-138648815D01*
X38569463Y-138745506D01*
X38510498Y-138855820D01*
X38474188Y-138975518D01*
X38461928Y-139100000D01*
X37127000Y-139100000D01*
X37127000Y-52127000D01*
X41873000Y-52127000D01*
X41873000Y-115829310D01*
G36*
X73735000Y-77746727D02*
G01*
X73735000Y-80705985D01*
X73709939Y-80701000D01*
X73506061Y-80701000D01*
X73306102Y-80740774D01*
X73117744Y-80818795D01*
X72948226Y-80932063D01*
X72804063Y-81076226D01*
X72690795Y-81245744D01*
X72612774Y-81434102D01*
X72573000Y-81634061D01*
X72573000Y-81837939D01*
X72612774Y-82037898D01*
X72690795Y-82226256D01*
X72804063Y-82395774D01*
X72948226Y-82539937D01*
X73117744Y-82653205D01*
X73306102Y-82731226D01*
X73506061Y-82771000D01*
X73709939Y-82771000D01*
X73735000Y-82766015D01*
X73735000Y-99090280D01*
X73639701Y-99232905D01*
X73523989Y-99512257D01*
X73465000Y-99808816D01*
X73465000Y-100111184D01*
X73523989Y-100407743D01*
X73639701Y-100687095D01*
X73735000Y-100829720D01*
X73735000Y-101078085D01*
X73648815Y-101148815D01*
X73569463Y-101245506D01*
X73510498Y-101355820D01*
X73474188Y-101475518D01*
X73461928Y-101600000D01*
X73461928Y-103400000D01*
X73474188Y-103524482D01*
X73510498Y-103644180D01*
X73569463Y-103754494D01*
X73648815Y-103851185D01*
X73735000Y-103921915D01*
X73735000Y-106247000D01*
X67891710Y-106247000D01*
X67638993Y-81480704D01*
X67636300Y-81455954D01*
X67628831Y-81432205D01*
X67616871Y-81410369D01*
X67600882Y-81391286D01*
X67588200Y-81380400D01*
X67488072Y-81305304D01*
X67488072Y-81000000D01*
X67475812Y-80875518D01*
X67439502Y-80755820D01*
X67380537Y-80645506D01*
X67301185Y-80548815D01*
X67204494Y-80469463D01*
X67094180Y-80410498D01*
X66974482Y-80374188D01*
X66850000Y-80361928D01*
X64350000Y-80361928D01*
X64225518Y-80374188D01*
X64105820Y-80410498D01*
X63995506Y-80469463D01*
X63898815Y-80548815D01*
X63862553Y-80593000D01*
X56137447Y-80593000D01*
X56101185Y-80548815D01*
X56004494Y-80469463D01*
X55894180Y-80410498D01*
X55774482Y-80374188D01*
X55650000Y-80361928D01*
X53923000Y-80361928D01*
X53923000Y-76529000D01*
X71543091Y-76529000D01*
X73735000Y-77746727D01*
G37*
X73735000Y-77746727D02*
X73735000Y-80705985D01*
X73709939Y-80701000D01*
X73506061Y-80701000D01*
X73306102Y-80740774D01*
X73117744Y-80818795D01*
X72948226Y-80932063D01*
X72804063Y-81076226D01*
X72690795Y-81245744D01*
X72612774Y-81434102D01*
X72573000Y-81634061D01*
X72573000Y-81837939D01*
X72612774Y-82037898D01*
X72690795Y-82226256D01*
X72804063Y-82395774D01*
X72948226Y-82539937D01*
X73117744Y-82653205D01*
X73306102Y-82731226D01*
X73506061Y-82771000D01*
X73709939Y-82771000D01*
X73735000Y-82766015D01*
X73735000Y-99090280D01*
X73639701Y-99232905D01*
X73523989Y-99512257D01*
X73465000Y-99808816D01*
X73465000Y-100111184D01*
X73523989Y-100407743D01*
X73639701Y-100687095D01*
X73735000Y-100829720D01*
X73735000Y-101078085D01*
X73648815Y-101148815D01*
X73569463Y-101245506D01*
X73510498Y-101355820D01*
X73474188Y-101475518D01*
X73461928Y-101600000D01*
X73461928Y-103400000D01*
X73474188Y-103524482D01*
X73510498Y-103644180D01*
X73569463Y-103754494D01*
X73648815Y-103851185D01*
X73735000Y-103921915D01*
X73735000Y-106247000D01*
X67891710Y-106247000D01*
X67638993Y-81480704D01*
X67636300Y-81455954D01*
X67628831Y-81432205D01*
X67616871Y-81410369D01*
X67600882Y-81391286D01*
X67588200Y-81380400D01*
X67488072Y-81305304D01*
X67488072Y-81000000D01*
X67475812Y-80875518D01*
X67439502Y-80755820D01*
X67380537Y-80645506D01*
X67301185Y-80548815D01*
X67204494Y-80469463D01*
X67094180Y-80410498D01*
X66974482Y-80374188D01*
X66850000Y-80361928D01*
X64350000Y-80361928D01*
X64225518Y-80374188D01*
X64105820Y-80410498D01*
X63995506Y-80469463D01*
X63898815Y-80548815D01*
X63862553Y-80593000D01*
X56137447Y-80593000D01*
X56101185Y-80548815D01*
X56004494Y-80469463D01*
X55894180Y-80410498D01*
X55774482Y-80374188D01*
X55650000Y-80361928D01*
X53923000Y-80361928D01*
X53923000Y-76529000D01*
X71543091Y-76529000D01*
X73735000Y-77746727D01*
M02*
