M48
; DRILL file {KiCad (5.1.5)-3} date 22.06.2020 20:22:32
; FORMAT={-:-/ absolute / inch / decimal}
; #@! TF.CreationDate,2020-06-22T20:22:32+02:00
; #@! TF.GenerationSoftware,Kicad,Pcbnew,(5.1.5)-3
; #@! TF.FileFunction,Plated,1,2,PTH
FMAT,2
INCH
T1C0.0157
T2C0.0197
T3C0.0315
T4C0.0354
T5C0.0394
T6C0.0433
T7C0.0787
T8C0.1260
%
G90
G05
T1
X1.6142Y-2.0866
X1.628Y-4.728
X1.638Y-3.028
X1.638Y-3.088
X1.638Y-3.158
X1.6845Y-5.0047
X1.788Y-1.968
X1.798Y-5.838
X1.798Y-5.838
X1.798Y-5.9222
X1.798Y-5.968
X1.8898Y-2.5197
X1.8898Y-4.9213
X1.918Y-5.478
X1.9291Y-2.6772
X1.968Y-2.758
X1.998Y-2.188
X2.0079Y-4.9213
X2.018Y-5.498
X2.048Y-2.788
X2.048Y-2.188
X2.0807Y-2.8175
X2.088Y-3.828
X2.138Y-3.8384
X2.158Y-3.028
X2.158Y-3.088
X2.158Y-3.148
X2.1654Y-5.7087
X2.1728Y-5.068
X2.198Y-4.788
X2.198Y-4.948
X2.218Y-4.718
X2.2441Y-1.8898
X2.2441Y-2.0472
X2.2835Y-2.7559
X2.288Y-3.778
X2.298Y-5.298
X2.3622Y-2.2441
X2.378Y-5.538
X2.478Y-5.938
X2.4803Y-4.7638
X2.548Y-5.868
X2.5591Y-6.063
X2.618Y-5.788
X2.638Y-4.448
X2.688Y-4.798
X2.7165Y-2.9528
X2.738Y-4.838
X2.8346Y-2.1654
X2.898Y-3.218
X2.958Y-3.578
X2.968Y-4.418
X2.988Y-3.688
X2.998Y-2.038
X2.998Y-3.458
X2.998Y-4.918
X3.008Y-3.178
X3.028Y-3.628
X3.0315Y-2.7559
X3.038Y-4.748
X3.048Y-4.858
X3.088Y-3.288
X3.098Y-4.888
X3.1496Y-3.1102
X3.158Y-3.578
X3.188Y-3.498
X3.198Y-5.088
X3.218Y-3.528
T2
X1.4803Y-6.2992
X1.508Y-6.2324
X1.508Y-6.366
X1.5748Y-6.2047
X1.5748Y-6.3937
X1.6416Y-6.2324
X1.6416Y-6.366
X1.6693Y-6.2992
X3.0551Y-6.2992
X3.0828Y-6.2324
X3.0828Y-6.366
X3.1496Y-6.2047
X3.1496Y-6.3937
X3.2164Y-6.2324
X3.2164Y-6.366
X3.2441Y-6.2992
X1.4803Y-1.5748
X1.508Y-1.508
X1.508Y-1.6416
X1.5748Y-1.4803
X1.5748Y-1.6693
X1.6416Y-1.508
X1.6416Y-1.6416
X1.6693Y-1.5748
X3.0551Y-1.5748
X3.0828Y-1.508
X3.0828Y-1.6416
X3.1496Y-1.4803
X3.1496Y-1.6693
X3.2164Y-1.508
X3.2164Y-1.6416
X3.2441Y-1.5748
T3
X1.698Y-4.588
X1.698Y-5.188
X1.798Y-4.588
X1.798Y-5.188
X1.898Y-4.588
X1.898Y-5.188
X1.998Y-4.588
X1.998Y-5.188
X2.098Y-4.588
X2.098Y-5.188
X2.198Y-4.588
X2.198Y-5.188
X2.298Y-4.588
X2.298Y-5.188
X2.398Y-4.588
X2.398Y-5.188
X2.498Y-4.588
X2.498Y-5.188
X2.598Y-4.588
X2.598Y-5.188
X2.698Y-4.588
X2.698Y-5.188
X2.798Y-4.588
X2.798Y-5.188
X2.898Y-4.588
X2.898Y-5.188
X2.998Y-4.588
X2.998Y-5.188
X3.098Y-4.588
X3.098Y-5.188
T4
X3.1496Y-1.8685
X3.1496Y-1.9685
X1.5748Y-5.4118
X1.5748Y-5.5118
X1.5748Y-1.8685
X1.5748Y-1.9685
X2.9528Y-3.9354
X2.9528Y-4.0354
X3.1496Y-5.4118
X3.1496Y-5.5118
X2.3622Y-3.9354
X2.3622Y-4.0354
X1.7717Y-3.937
X1.7717Y-4.037
T5
X2.2638Y-3.5433
X2.3622Y-3.5433
X2.4606Y-3.5433
T6
X2.1575Y-6.2992
X2.2575Y-6.2992
X2.3575Y-6.2992
X2.4575Y-6.2992
X2.5575Y-6.2992
X2.6575Y-6.2992
T8
X1.5748Y-6.2992
X3.1496Y-6.2992
X1.5748Y-1.5748
X3.1496Y-1.5748
T7
G00X2.1417Y-3.2579
M15
G01X2.1417Y-3.2382
M16
G05
G00X2.5827Y-3.2579
M15
G01X2.5827Y-3.2382
M16
G05
T0
M30
