G04 #@! TF.GenerationSoftware,KiCad,Pcbnew,(5.1.5)-3*
G04 #@! TF.CreationDate,2020-06-22T20:22:27+02:00*
G04 #@! TF.ProjectId,Mupi,4d757069-2e6b-4696-9361-645f70636258,rev?*
G04 #@! TF.SameCoordinates,Original*
G04 #@! TF.FileFunction,Soldermask,Top*
G04 #@! TF.FilePolarity,Negative*
%FSLAX46Y46*%
G04 Gerber Fmt 4.6, Leading zero omitted, Abs format (unit mm)*
G04 Created by KiCad (PCBNEW (5.1.5)-3) date 2020-06-22 20:22:27*
%MOMM*%
%LPD*%
G04 APERTURE LIST*
%ADD10C,0.100000*%
G04 APERTURE END LIST*
D10*
G36*
X80634239Y-156811467D02*
G01*
X80948282Y-156873934D01*
X81539926Y-157119001D01*
X82072392Y-157474784D01*
X82525216Y-157927608D01*
X82880999Y-158460074D01*
X83096358Y-158979997D01*
X83126066Y-159051719D01*
X83251000Y-159679803D01*
X83251000Y-160320197D01*
X83206244Y-160545201D01*
X83126066Y-160948282D01*
X82880999Y-161539926D01*
X82525216Y-162072392D01*
X82072392Y-162525216D01*
X81539926Y-162880999D01*
X80948282Y-163126066D01*
X80634239Y-163188533D01*
X80320197Y-163251000D01*
X79679803Y-163251000D01*
X79365761Y-163188533D01*
X79051718Y-163126066D01*
X78460074Y-162880999D01*
X77927608Y-162525216D01*
X77474784Y-162072392D01*
X77119001Y-161539926D01*
X76873934Y-160948282D01*
X76793756Y-160545201D01*
X76749000Y-160320197D01*
X76749000Y-159679803D01*
X76873934Y-159051719D01*
X76903642Y-158979997D01*
X77119001Y-158460074D01*
X77474784Y-157927608D01*
X77927608Y-157474784D01*
X78460074Y-157119001D01*
X79051718Y-156873934D01*
X79365761Y-156811467D01*
X79679803Y-156749000D01*
X80320197Y-156749000D01*
X80634239Y-156811467D01*
G37*
G36*
X40634239Y-156811467D02*
G01*
X40948282Y-156873934D01*
X41539926Y-157119001D01*
X42072392Y-157474784D01*
X42525216Y-157927608D01*
X42880999Y-158460074D01*
X43096358Y-158979997D01*
X43126066Y-159051719D01*
X43251000Y-159679803D01*
X43251000Y-160320197D01*
X43206244Y-160545201D01*
X43126066Y-160948282D01*
X42880999Y-161539926D01*
X42525216Y-162072392D01*
X42072392Y-162525216D01*
X41539926Y-162880999D01*
X40948282Y-163126066D01*
X40634239Y-163188533D01*
X40320197Y-163251000D01*
X39679803Y-163251000D01*
X39365761Y-163188533D01*
X39051718Y-163126066D01*
X38460074Y-162880999D01*
X37927608Y-162525216D01*
X37474784Y-162072392D01*
X37119001Y-161539926D01*
X36873934Y-160948282D01*
X36793756Y-160545201D01*
X36749000Y-160320197D01*
X36749000Y-159679803D01*
X36873934Y-159051719D01*
X36903642Y-158979997D01*
X37119001Y-158460074D01*
X37474784Y-157927608D01*
X37927608Y-157474784D01*
X38460074Y-157119001D01*
X39051718Y-156873934D01*
X39365761Y-156811467D01*
X39679803Y-156749000D01*
X40320197Y-156749000D01*
X40634239Y-156811467D01*
G37*
G36*
X55024549Y-158871116D02*
G01*
X55135734Y-158893232D01*
X55345203Y-158979997D01*
X55533720Y-159105960D01*
X55694040Y-159266280D01*
X55820003Y-159454797D01*
X55900729Y-159649686D01*
X55906768Y-159664267D01*
X55947403Y-159868552D01*
X55954516Y-159892001D01*
X55966067Y-159913612D01*
X55981612Y-159932554D01*
X56000554Y-159948099D01*
X56022165Y-159959650D01*
X56045614Y-159966763D01*
X56070000Y-159969165D01*
X56094386Y-159966763D01*
X56117835Y-159959650D01*
X56139446Y-159948099D01*
X56158388Y-159932554D01*
X56173933Y-159913612D01*
X56185484Y-159892001D01*
X56192597Y-159868552D01*
X56233232Y-159664267D01*
X56239272Y-159649686D01*
X56319997Y-159454797D01*
X56445960Y-159266280D01*
X56606280Y-159105960D01*
X56794797Y-158979997D01*
X57004266Y-158893232D01*
X57115451Y-158871116D01*
X57226635Y-158849000D01*
X57453365Y-158849000D01*
X57564549Y-158871116D01*
X57675734Y-158893232D01*
X57885203Y-158979997D01*
X58073720Y-159105960D01*
X58234040Y-159266280D01*
X58360003Y-159454797D01*
X58440729Y-159649686D01*
X58446768Y-159664267D01*
X58487403Y-159868552D01*
X58494516Y-159892001D01*
X58506067Y-159913612D01*
X58521612Y-159932554D01*
X58540554Y-159948099D01*
X58562165Y-159959650D01*
X58585614Y-159966763D01*
X58610000Y-159969165D01*
X58634386Y-159966763D01*
X58657835Y-159959650D01*
X58679446Y-159948099D01*
X58698388Y-159932554D01*
X58713933Y-159913612D01*
X58725484Y-159892001D01*
X58732597Y-159868552D01*
X58773232Y-159664267D01*
X58779272Y-159649686D01*
X58859997Y-159454797D01*
X58985960Y-159266280D01*
X59146280Y-159105960D01*
X59334797Y-158979997D01*
X59544266Y-158893232D01*
X59655451Y-158871116D01*
X59766635Y-158849000D01*
X59993365Y-158849000D01*
X60104549Y-158871116D01*
X60215734Y-158893232D01*
X60425203Y-158979997D01*
X60613720Y-159105960D01*
X60774040Y-159266280D01*
X60900003Y-159454797D01*
X60980729Y-159649686D01*
X60986768Y-159664267D01*
X61027403Y-159868552D01*
X61034516Y-159892001D01*
X61046067Y-159913612D01*
X61061612Y-159932554D01*
X61080554Y-159948099D01*
X61102165Y-159959650D01*
X61125614Y-159966763D01*
X61150000Y-159969165D01*
X61174386Y-159966763D01*
X61197835Y-159959650D01*
X61219446Y-159948099D01*
X61238388Y-159932554D01*
X61253933Y-159913612D01*
X61265484Y-159892001D01*
X61272597Y-159868552D01*
X61313232Y-159664267D01*
X61319272Y-159649686D01*
X61399997Y-159454797D01*
X61525960Y-159266280D01*
X61686280Y-159105960D01*
X61874797Y-158979997D01*
X62084266Y-158893232D01*
X62195451Y-158871116D01*
X62306635Y-158849000D01*
X62533365Y-158849000D01*
X62644549Y-158871116D01*
X62755734Y-158893232D01*
X62965203Y-158979997D01*
X63153720Y-159105960D01*
X63314040Y-159266280D01*
X63440003Y-159454797D01*
X63520729Y-159649686D01*
X63526768Y-159664267D01*
X63567403Y-159868552D01*
X63574516Y-159892001D01*
X63586067Y-159913612D01*
X63601612Y-159932554D01*
X63620554Y-159948099D01*
X63642165Y-159959650D01*
X63665614Y-159966763D01*
X63690000Y-159969165D01*
X63714386Y-159966763D01*
X63737835Y-159959650D01*
X63759446Y-159948099D01*
X63778388Y-159932554D01*
X63793933Y-159913612D01*
X63805484Y-159892001D01*
X63812597Y-159868552D01*
X63853232Y-159664267D01*
X63859272Y-159649686D01*
X63939997Y-159454797D01*
X64065960Y-159266280D01*
X64226280Y-159105960D01*
X64414797Y-158979997D01*
X64624266Y-158893232D01*
X64735451Y-158871116D01*
X64846635Y-158849000D01*
X65073365Y-158849000D01*
X65184549Y-158871116D01*
X65295734Y-158893232D01*
X65505203Y-158979997D01*
X65693720Y-159105960D01*
X65854040Y-159266280D01*
X65980003Y-159454797D01*
X66060729Y-159649686D01*
X66066768Y-159664267D01*
X66101404Y-159838393D01*
X66108517Y-159861842D01*
X66120068Y-159883453D01*
X66135613Y-159902395D01*
X66154555Y-159917940D01*
X66176166Y-159929491D01*
X66199615Y-159936604D01*
X66224001Y-159939006D01*
X66248387Y-159936604D01*
X66271836Y-159929491D01*
X66293447Y-159917940D01*
X66312389Y-159902395D01*
X66327934Y-159883453D01*
X66339485Y-159861842D01*
X66346598Y-159838393D01*
X66349000Y-159814007D01*
X66349000Y-158849000D01*
X68651000Y-158849000D01*
X68651000Y-161151000D01*
X66349000Y-161151000D01*
X66349000Y-160185993D01*
X66346598Y-160161607D01*
X66339485Y-160138158D01*
X66327934Y-160116547D01*
X66312389Y-160097605D01*
X66293447Y-160082060D01*
X66271836Y-160070509D01*
X66248387Y-160063396D01*
X66224001Y-160060994D01*
X66199615Y-160063396D01*
X66176166Y-160070509D01*
X66154555Y-160082060D01*
X66135613Y-160097605D01*
X66120068Y-160116547D01*
X66108517Y-160138158D01*
X66101404Y-160161607D01*
X66066768Y-160335734D01*
X65980003Y-160545203D01*
X65854040Y-160733720D01*
X65693720Y-160894040D01*
X65505203Y-161020003D01*
X65295734Y-161106768D01*
X65184549Y-161128884D01*
X65073365Y-161151000D01*
X64846635Y-161151000D01*
X64735451Y-161128884D01*
X64624266Y-161106768D01*
X64414797Y-161020003D01*
X64226280Y-160894040D01*
X64065960Y-160733720D01*
X63939997Y-160545203D01*
X63853232Y-160335734D01*
X63812597Y-160131448D01*
X63805484Y-160107999D01*
X63793933Y-160086388D01*
X63778388Y-160067446D01*
X63759446Y-160051901D01*
X63737835Y-160040350D01*
X63714386Y-160033237D01*
X63690000Y-160030835D01*
X63665614Y-160033237D01*
X63642165Y-160040350D01*
X63620554Y-160051901D01*
X63601612Y-160067446D01*
X63586067Y-160086388D01*
X63574516Y-160107999D01*
X63567403Y-160131448D01*
X63526768Y-160335734D01*
X63440003Y-160545203D01*
X63314040Y-160733720D01*
X63153720Y-160894040D01*
X62965203Y-161020003D01*
X62755734Y-161106768D01*
X62644549Y-161128884D01*
X62533365Y-161151000D01*
X62306635Y-161151000D01*
X62195451Y-161128884D01*
X62084266Y-161106768D01*
X61874797Y-161020003D01*
X61686280Y-160894040D01*
X61525960Y-160733720D01*
X61399997Y-160545203D01*
X61313232Y-160335734D01*
X61272597Y-160131448D01*
X61265484Y-160107999D01*
X61253933Y-160086388D01*
X61238388Y-160067446D01*
X61219446Y-160051901D01*
X61197835Y-160040350D01*
X61174386Y-160033237D01*
X61150000Y-160030835D01*
X61125614Y-160033237D01*
X61102165Y-160040350D01*
X61080554Y-160051901D01*
X61061612Y-160067446D01*
X61046067Y-160086388D01*
X61034516Y-160107999D01*
X61027403Y-160131448D01*
X60986768Y-160335734D01*
X60900003Y-160545203D01*
X60774040Y-160733720D01*
X60613720Y-160894040D01*
X60425203Y-161020003D01*
X60215734Y-161106768D01*
X60104549Y-161128884D01*
X59993365Y-161151000D01*
X59766635Y-161151000D01*
X59655451Y-161128884D01*
X59544266Y-161106768D01*
X59334797Y-161020003D01*
X59146280Y-160894040D01*
X58985960Y-160733720D01*
X58859997Y-160545203D01*
X58773232Y-160335734D01*
X58732597Y-160131448D01*
X58725484Y-160107999D01*
X58713933Y-160086388D01*
X58698388Y-160067446D01*
X58679446Y-160051901D01*
X58657835Y-160040350D01*
X58634386Y-160033237D01*
X58610000Y-160030835D01*
X58585614Y-160033237D01*
X58562165Y-160040350D01*
X58540554Y-160051901D01*
X58521612Y-160067446D01*
X58506067Y-160086388D01*
X58494516Y-160107999D01*
X58487403Y-160131448D01*
X58446768Y-160335734D01*
X58360003Y-160545203D01*
X58234040Y-160733720D01*
X58073720Y-160894040D01*
X57885203Y-161020003D01*
X57675734Y-161106768D01*
X57564549Y-161128884D01*
X57453365Y-161151000D01*
X57226635Y-161151000D01*
X57115451Y-161128884D01*
X57004266Y-161106768D01*
X56794797Y-161020003D01*
X56606280Y-160894040D01*
X56445960Y-160733720D01*
X56319997Y-160545203D01*
X56233232Y-160335734D01*
X56192597Y-160131448D01*
X56185484Y-160107999D01*
X56173933Y-160086388D01*
X56158388Y-160067446D01*
X56139446Y-160051901D01*
X56117835Y-160040350D01*
X56094386Y-160033237D01*
X56070000Y-160030835D01*
X56045614Y-160033237D01*
X56022165Y-160040350D01*
X56000554Y-160051901D01*
X55981612Y-160067446D01*
X55966067Y-160086388D01*
X55954516Y-160107999D01*
X55947403Y-160131448D01*
X55906768Y-160335734D01*
X55820003Y-160545203D01*
X55694040Y-160733720D01*
X55533720Y-160894040D01*
X55345203Y-161020003D01*
X55135734Y-161106768D01*
X55024549Y-161128884D01*
X54913365Y-161151000D01*
X54686635Y-161151000D01*
X54575451Y-161128884D01*
X54464266Y-161106768D01*
X54254797Y-161020003D01*
X54066280Y-160894040D01*
X53905960Y-160733720D01*
X53779997Y-160545203D01*
X53693232Y-160335734D01*
X53649000Y-160113364D01*
X53649000Y-159886636D01*
X53693232Y-159664266D01*
X53779997Y-159454797D01*
X53905960Y-159266280D01*
X54066280Y-159105960D01*
X54254797Y-158979997D01*
X54464266Y-158893232D01*
X54575451Y-158871116D01*
X54686635Y-158849000D01*
X54913365Y-158849000D01*
X55024549Y-158871116D01*
G37*
G36*
X54051000Y-157451000D02*
G01*
X52249000Y-157451000D01*
X52249000Y-156349000D01*
X54051000Y-156349000D01*
X54051000Y-157451000D01*
G37*
G36*
X74051000Y-157451000D02*
G01*
X72249000Y-157451000D01*
X72249000Y-156349000D01*
X74051000Y-156349000D01*
X74051000Y-157451000D01*
G37*
G36*
X67751000Y-157451000D02*
G01*
X65949000Y-157451000D01*
X65949000Y-156349000D01*
X67751000Y-156349000D01*
X67751000Y-157451000D01*
G37*
G36*
X47751000Y-157451000D02*
G01*
X45949000Y-157451000D01*
X45949000Y-156349000D01*
X47751000Y-156349000D01*
X47751000Y-157451000D01*
G37*
G36*
X61488674Y-153253465D02*
G01*
X61526367Y-153264899D01*
X61561103Y-153283466D01*
X61591548Y-153308452D01*
X61616534Y-153338897D01*
X61635101Y-153373633D01*
X61646535Y-153411326D01*
X61651000Y-153456661D01*
X61651000Y-154543339D01*
X61646535Y-154588674D01*
X61635101Y-154626367D01*
X61616534Y-154661103D01*
X61591548Y-154691548D01*
X61561103Y-154716534D01*
X61526367Y-154735101D01*
X61488674Y-154746535D01*
X61443339Y-154751000D01*
X60606661Y-154751000D01*
X60561326Y-154746535D01*
X60523633Y-154735101D01*
X60488897Y-154716534D01*
X60458452Y-154691548D01*
X60433466Y-154661103D01*
X60414899Y-154626367D01*
X60403465Y-154588674D01*
X60399000Y-154543339D01*
X60399000Y-153456661D01*
X60403465Y-153411326D01*
X60414899Y-153373633D01*
X60433466Y-153338897D01*
X60458452Y-153308452D01*
X60488897Y-153283466D01*
X60523633Y-153264899D01*
X60561326Y-153253465D01*
X60606661Y-153249000D01*
X61443339Y-153249000D01*
X61488674Y-153253465D01*
G37*
G36*
X59438674Y-153253465D02*
G01*
X59476367Y-153264899D01*
X59511103Y-153283466D01*
X59541548Y-153308452D01*
X59566534Y-153338897D01*
X59585101Y-153373633D01*
X59596535Y-153411326D01*
X59601000Y-153456661D01*
X59601000Y-154543339D01*
X59596535Y-154588674D01*
X59585101Y-154626367D01*
X59566534Y-154661103D01*
X59541548Y-154691548D01*
X59511103Y-154716534D01*
X59476367Y-154735101D01*
X59438674Y-154746535D01*
X59393339Y-154751000D01*
X58556661Y-154751000D01*
X58511326Y-154746535D01*
X58473633Y-154735101D01*
X58438897Y-154716534D01*
X58408452Y-154691548D01*
X58383466Y-154661103D01*
X58364899Y-154626367D01*
X58353465Y-154588674D01*
X58349000Y-154543339D01*
X58349000Y-153456661D01*
X58353465Y-153411326D01*
X58364899Y-153373633D01*
X58383466Y-153338897D01*
X58408452Y-153308452D01*
X58438897Y-153283466D01*
X58473633Y-153264899D01*
X58511326Y-153253465D01*
X58556661Y-153249000D01*
X59393339Y-153249000D01*
X59438674Y-153253465D01*
G37*
G36*
X63584468Y-153403565D02*
G01*
X63623138Y-153415296D01*
X63658777Y-153434346D01*
X63690017Y-153459983D01*
X63715654Y-153491223D01*
X63734704Y-153526862D01*
X63746435Y-153565532D01*
X63751000Y-153611888D01*
X63751000Y-154263112D01*
X63746435Y-154309468D01*
X63734704Y-154348138D01*
X63715654Y-154383777D01*
X63690017Y-154415017D01*
X63658777Y-154440654D01*
X63623138Y-154459704D01*
X63584468Y-154471435D01*
X63538112Y-154476000D01*
X62461888Y-154476000D01*
X62415532Y-154471435D01*
X62376862Y-154459704D01*
X62341223Y-154440654D01*
X62309983Y-154415017D01*
X62284346Y-154383777D01*
X62265296Y-154348138D01*
X62253565Y-154309468D01*
X62249000Y-154263112D01*
X62249000Y-153611888D01*
X62253565Y-153565532D01*
X62265296Y-153526862D01*
X62284346Y-153491223D01*
X62309983Y-153459983D01*
X62341223Y-153434346D01*
X62376862Y-153415296D01*
X62415532Y-153403565D01*
X62461888Y-153399000D01*
X63538112Y-153399000D01*
X63584468Y-153403565D01*
G37*
G36*
X54051000Y-153651000D02*
G01*
X52249000Y-153651000D01*
X52249000Y-152549000D01*
X54051000Y-152549000D01*
X54051000Y-153651000D01*
G37*
G36*
X47751000Y-153651000D02*
G01*
X45949000Y-153651000D01*
X45949000Y-152549000D01*
X47751000Y-152549000D01*
X47751000Y-153651000D01*
G37*
G36*
X80588674Y-152403465D02*
G01*
X80626367Y-152414899D01*
X80661103Y-152433466D01*
X80691548Y-152458452D01*
X80716534Y-152488897D01*
X80735101Y-152523633D01*
X80746535Y-152561326D01*
X80751000Y-152606661D01*
X80751000Y-153443339D01*
X80746535Y-153488674D01*
X80735101Y-153526367D01*
X80716534Y-153561103D01*
X80691548Y-153591548D01*
X80661103Y-153616534D01*
X80626367Y-153635101D01*
X80588674Y-153646535D01*
X80543339Y-153651000D01*
X79456661Y-153651000D01*
X79411326Y-153646535D01*
X79373633Y-153635101D01*
X79338897Y-153616534D01*
X79308452Y-153591548D01*
X79283466Y-153561103D01*
X79264899Y-153526367D01*
X79253465Y-153488674D01*
X79249000Y-153443339D01*
X79249000Y-152606661D01*
X79253465Y-152561326D01*
X79264899Y-152523633D01*
X79283466Y-152488897D01*
X79308452Y-152458452D01*
X79338897Y-152433466D01*
X79373633Y-152414899D01*
X79411326Y-152403465D01*
X79456661Y-152399000D01*
X80543339Y-152399000D01*
X80588674Y-152403465D01*
G37*
G36*
X78588674Y-152403465D02*
G01*
X78626367Y-152414899D01*
X78661103Y-152433466D01*
X78691548Y-152458452D01*
X78716534Y-152488897D01*
X78735101Y-152523633D01*
X78746535Y-152561326D01*
X78751000Y-152606661D01*
X78751000Y-153443339D01*
X78746535Y-153488674D01*
X78735101Y-153526367D01*
X78716534Y-153561103D01*
X78691548Y-153591548D01*
X78661103Y-153616534D01*
X78626367Y-153635101D01*
X78588674Y-153646535D01*
X78543339Y-153651000D01*
X77456661Y-153651000D01*
X77411326Y-153646535D01*
X77373633Y-153635101D01*
X77338897Y-153616534D01*
X77308452Y-153591548D01*
X77283466Y-153561103D01*
X77264899Y-153526367D01*
X77253465Y-153488674D01*
X77249000Y-153443339D01*
X77249000Y-152606661D01*
X77253465Y-152561326D01*
X77264899Y-152523633D01*
X77283466Y-152488897D01*
X77308452Y-152458452D01*
X77338897Y-152433466D01*
X77373633Y-152414899D01*
X77411326Y-152403465D01*
X77456661Y-152399000D01*
X78543339Y-152399000D01*
X78588674Y-152403465D01*
G37*
G36*
X43588674Y-152403465D02*
G01*
X43626367Y-152414899D01*
X43661103Y-152433466D01*
X43691548Y-152458452D01*
X43716534Y-152488897D01*
X43735101Y-152523633D01*
X43746535Y-152561326D01*
X43751000Y-152606661D01*
X43751000Y-153443339D01*
X43746535Y-153488674D01*
X43735101Y-153526367D01*
X43716534Y-153561103D01*
X43691548Y-153591548D01*
X43661103Y-153616534D01*
X43626367Y-153635101D01*
X43588674Y-153646535D01*
X43543339Y-153651000D01*
X42456661Y-153651000D01*
X42411326Y-153646535D01*
X42373633Y-153635101D01*
X42338897Y-153616534D01*
X42308452Y-153591548D01*
X42283466Y-153561103D01*
X42264899Y-153526367D01*
X42253465Y-153488674D01*
X42249000Y-153443339D01*
X42249000Y-152606661D01*
X42253465Y-152561326D01*
X42264899Y-152523633D01*
X42283466Y-152488897D01*
X42308452Y-152458452D01*
X42338897Y-152433466D01*
X42373633Y-152414899D01*
X42411326Y-152403465D01*
X42456661Y-152399000D01*
X43543339Y-152399000D01*
X43588674Y-152403465D01*
G37*
G36*
X41588674Y-152403465D02*
G01*
X41626367Y-152414899D01*
X41661103Y-152433466D01*
X41691548Y-152458452D01*
X41716534Y-152488897D01*
X41735101Y-152523633D01*
X41746535Y-152561326D01*
X41751000Y-152606661D01*
X41751000Y-153443339D01*
X41746535Y-153488674D01*
X41735101Y-153526367D01*
X41716534Y-153561103D01*
X41691548Y-153591548D01*
X41661103Y-153616534D01*
X41626367Y-153635101D01*
X41588674Y-153646535D01*
X41543339Y-153651000D01*
X40456661Y-153651000D01*
X40411326Y-153646535D01*
X40373633Y-153635101D01*
X40338897Y-153616534D01*
X40308452Y-153591548D01*
X40283466Y-153561103D01*
X40264899Y-153526367D01*
X40253465Y-153488674D01*
X40249000Y-153443339D01*
X40249000Y-152606661D01*
X40253465Y-152561326D01*
X40264899Y-152523633D01*
X40283466Y-152488897D01*
X40308452Y-152458452D01*
X40338897Y-152433466D01*
X40373633Y-152414899D01*
X40411326Y-152403465D01*
X40456661Y-152399000D01*
X41543339Y-152399000D01*
X41588674Y-152403465D01*
G37*
G36*
X76588674Y-152403465D02*
G01*
X76626367Y-152414899D01*
X76661103Y-152433466D01*
X76691548Y-152458452D01*
X76716534Y-152488897D01*
X76735101Y-152523633D01*
X76746535Y-152561326D01*
X76751000Y-152606661D01*
X76751000Y-153443339D01*
X76746535Y-153488674D01*
X76735101Y-153526367D01*
X76716534Y-153561103D01*
X76691548Y-153591548D01*
X76661103Y-153616534D01*
X76626367Y-153635101D01*
X76588674Y-153646535D01*
X76543339Y-153651000D01*
X75456661Y-153651000D01*
X75411326Y-153646535D01*
X75373633Y-153635101D01*
X75338897Y-153616534D01*
X75308452Y-153591548D01*
X75283466Y-153561103D01*
X75264899Y-153526367D01*
X75253465Y-153488674D01*
X75249000Y-153443339D01*
X75249000Y-152606661D01*
X75253465Y-152561326D01*
X75264899Y-152523633D01*
X75283466Y-152488897D01*
X75308452Y-152458452D01*
X75338897Y-152433466D01*
X75373633Y-152414899D01*
X75411326Y-152403465D01*
X75456661Y-152399000D01*
X76543339Y-152399000D01*
X76588674Y-152403465D01*
G37*
G36*
X74051000Y-153651000D02*
G01*
X72249000Y-153651000D01*
X72249000Y-152549000D01*
X74051000Y-152549000D01*
X74051000Y-153651000D01*
G37*
G36*
X67751000Y-153651000D02*
G01*
X65949000Y-153651000D01*
X65949000Y-152549000D01*
X67751000Y-152549000D01*
X67751000Y-153651000D01*
G37*
G36*
X39588674Y-152378465D02*
G01*
X39626367Y-152389899D01*
X39661103Y-152408466D01*
X39691548Y-152433452D01*
X39716534Y-152463897D01*
X39735101Y-152498633D01*
X39746535Y-152536326D01*
X39751000Y-152581661D01*
X39751000Y-153418339D01*
X39746535Y-153463674D01*
X39735101Y-153501367D01*
X39716534Y-153536103D01*
X39691548Y-153566548D01*
X39661103Y-153591534D01*
X39626367Y-153610101D01*
X39588674Y-153621535D01*
X39543339Y-153626000D01*
X38456661Y-153626000D01*
X38411326Y-153621535D01*
X38373633Y-153610101D01*
X38338897Y-153591534D01*
X38308452Y-153566548D01*
X38283466Y-153536103D01*
X38264899Y-153501367D01*
X38253465Y-153463674D01*
X38249000Y-153418339D01*
X38249000Y-152581661D01*
X38253465Y-152536326D01*
X38264899Y-152498633D01*
X38283466Y-152463897D01*
X38308452Y-152433452D01*
X38338897Y-152408466D01*
X38373633Y-152389899D01*
X38411326Y-152378465D01*
X38456661Y-152374000D01*
X39543339Y-152374000D01*
X39588674Y-152378465D01*
G37*
G36*
X63584468Y-151528565D02*
G01*
X63623138Y-151540296D01*
X63658777Y-151559346D01*
X63690017Y-151584983D01*
X63715654Y-151616223D01*
X63734704Y-151651862D01*
X63746435Y-151690532D01*
X63751000Y-151736888D01*
X63751000Y-152388112D01*
X63746435Y-152434468D01*
X63734704Y-152473138D01*
X63715654Y-152508777D01*
X63690017Y-152540017D01*
X63658777Y-152565654D01*
X63623138Y-152584704D01*
X63584468Y-152596435D01*
X63538112Y-152601000D01*
X62461888Y-152601000D01*
X62415532Y-152596435D01*
X62376862Y-152584704D01*
X62341223Y-152565654D01*
X62309983Y-152540017D01*
X62284346Y-152508777D01*
X62265296Y-152473138D01*
X62253565Y-152434468D01*
X62249000Y-152388112D01*
X62249000Y-151736888D01*
X62253565Y-151690532D01*
X62265296Y-151651862D01*
X62284346Y-151616223D01*
X62309983Y-151584983D01*
X62341223Y-151559346D01*
X62376862Y-151540296D01*
X62415532Y-151528565D01*
X62461888Y-151524000D01*
X63538112Y-151524000D01*
X63584468Y-151528565D01*
G37*
G36*
X43588674Y-150353465D02*
G01*
X43626367Y-150364899D01*
X43661103Y-150383466D01*
X43691548Y-150408452D01*
X43716534Y-150438897D01*
X43735101Y-150473633D01*
X43746535Y-150511326D01*
X43751000Y-150556661D01*
X43751000Y-151393339D01*
X43746535Y-151438674D01*
X43735101Y-151476367D01*
X43716534Y-151511103D01*
X43691548Y-151541548D01*
X43661103Y-151566534D01*
X43626367Y-151585101D01*
X43588674Y-151596535D01*
X43543339Y-151601000D01*
X42456661Y-151601000D01*
X42411326Y-151596535D01*
X42373633Y-151585101D01*
X42338897Y-151566534D01*
X42308452Y-151541548D01*
X42283466Y-151511103D01*
X42264899Y-151476367D01*
X42253465Y-151438674D01*
X42249000Y-151393339D01*
X42249000Y-150556661D01*
X42253465Y-150511326D01*
X42264899Y-150473633D01*
X42283466Y-150438897D01*
X42308452Y-150408452D01*
X42338897Y-150383466D01*
X42373633Y-150364899D01*
X42411326Y-150353465D01*
X42456661Y-150349000D01*
X43543339Y-150349000D01*
X43588674Y-150353465D01*
G37*
G36*
X76588674Y-150353465D02*
G01*
X76626367Y-150364899D01*
X76661103Y-150383466D01*
X76691548Y-150408452D01*
X76716534Y-150438897D01*
X76735101Y-150473633D01*
X76746535Y-150511326D01*
X76751000Y-150556661D01*
X76751000Y-151393339D01*
X76746535Y-151438674D01*
X76735101Y-151476367D01*
X76716534Y-151511103D01*
X76691548Y-151541548D01*
X76661103Y-151566534D01*
X76626367Y-151585101D01*
X76588674Y-151596535D01*
X76543339Y-151601000D01*
X75456661Y-151601000D01*
X75411326Y-151596535D01*
X75373633Y-151585101D01*
X75338897Y-151566534D01*
X75308452Y-151541548D01*
X75283466Y-151511103D01*
X75264899Y-151476367D01*
X75253465Y-151438674D01*
X75249000Y-151393339D01*
X75249000Y-150556661D01*
X75253465Y-150511326D01*
X75264899Y-150473633D01*
X75283466Y-150438897D01*
X75308452Y-150408452D01*
X75338897Y-150383466D01*
X75373633Y-150364899D01*
X75411326Y-150353465D01*
X75456661Y-150349000D01*
X76543339Y-150349000D01*
X76588674Y-150353465D01*
G37*
G36*
X80588674Y-150353465D02*
G01*
X80626367Y-150364899D01*
X80661103Y-150383466D01*
X80691548Y-150408452D01*
X80716534Y-150438897D01*
X80735101Y-150473633D01*
X80746535Y-150511326D01*
X80751000Y-150556661D01*
X80751000Y-151393339D01*
X80746535Y-151438674D01*
X80735101Y-151476367D01*
X80716534Y-151511103D01*
X80691548Y-151541548D01*
X80661103Y-151566534D01*
X80626367Y-151585101D01*
X80588674Y-151596535D01*
X80543339Y-151601000D01*
X79456661Y-151601000D01*
X79411326Y-151596535D01*
X79373633Y-151585101D01*
X79338897Y-151566534D01*
X79308452Y-151541548D01*
X79283466Y-151511103D01*
X79264899Y-151476367D01*
X79253465Y-151438674D01*
X79249000Y-151393339D01*
X79249000Y-150556661D01*
X79253465Y-150511326D01*
X79264899Y-150473633D01*
X79283466Y-150438897D01*
X79308452Y-150408452D01*
X79338897Y-150383466D01*
X79373633Y-150364899D01*
X79411326Y-150353465D01*
X79456661Y-150349000D01*
X80543339Y-150349000D01*
X80588674Y-150353465D01*
G37*
G36*
X41588674Y-150353465D02*
G01*
X41626367Y-150364899D01*
X41661103Y-150383466D01*
X41691548Y-150408452D01*
X41716534Y-150438897D01*
X41735101Y-150473633D01*
X41746535Y-150511326D01*
X41751000Y-150556661D01*
X41751000Y-151393339D01*
X41746535Y-151438674D01*
X41735101Y-151476367D01*
X41716534Y-151511103D01*
X41691548Y-151541548D01*
X41661103Y-151566534D01*
X41626367Y-151585101D01*
X41588674Y-151596535D01*
X41543339Y-151601000D01*
X40456661Y-151601000D01*
X40411326Y-151596535D01*
X40373633Y-151585101D01*
X40338897Y-151566534D01*
X40308452Y-151541548D01*
X40283466Y-151511103D01*
X40264899Y-151476367D01*
X40253465Y-151438674D01*
X40249000Y-151393339D01*
X40249000Y-150556661D01*
X40253465Y-150511326D01*
X40264899Y-150473633D01*
X40283466Y-150438897D01*
X40308452Y-150408452D01*
X40338897Y-150383466D01*
X40373633Y-150364899D01*
X40411326Y-150353465D01*
X40456661Y-150349000D01*
X41543339Y-150349000D01*
X41588674Y-150353465D01*
G37*
G36*
X78588674Y-150353465D02*
G01*
X78626367Y-150364899D01*
X78661103Y-150383466D01*
X78691548Y-150408452D01*
X78716534Y-150438897D01*
X78735101Y-150473633D01*
X78746535Y-150511326D01*
X78751000Y-150556661D01*
X78751000Y-151393339D01*
X78746535Y-151438674D01*
X78735101Y-151476367D01*
X78716534Y-151511103D01*
X78691548Y-151541548D01*
X78661103Y-151566534D01*
X78626367Y-151585101D01*
X78588674Y-151596535D01*
X78543339Y-151601000D01*
X77456661Y-151601000D01*
X77411326Y-151596535D01*
X77373633Y-151585101D01*
X77338897Y-151566534D01*
X77308452Y-151541548D01*
X77283466Y-151511103D01*
X77264899Y-151476367D01*
X77253465Y-151438674D01*
X77249000Y-151393339D01*
X77249000Y-150556661D01*
X77253465Y-150511326D01*
X77264899Y-150473633D01*
X77283466Y-150438897D01*
X77308452Y-150408452D01*
X77338897Y-150383466D01*
X77373633Y-150364899D01*
X77411326Y-150353465D01*
X77456661Y-150349000D01*
X78543339Y-150349000D01*
X78588674Y-150353465D01*
G37*
G36*
X39588674Y-150328465D02*
G01*
X39626367Y-150339899D01*
X39661103Y-150358466D01*
X39691548Y-150383452D01*
X39716534Y-150413897D01*
X39735101Y-150448633D01*
X39746535Y-150486326D01*
X39751000Y-150531661D01*
X39751000Y-151368339D01*
X39746535Y-151413674D01*
X39735101Y-151451367D01*
X39716534Y-151486103D01*
X39691548Y-151516548D01*
X39661103Y-151541534D01*
X39626367Y-151560101D01*
X39588674Y-151571535D01*
X39543339Y-151576000D01*
X38456661Y-151576000D01*
X38411326Y-151571535D01*
X38373633Y-151560101D01*
X38338897Y-151541534D01*
X38308452Y-151516548D01*
X38283466Y-151486103D01*
X38264899Y-151451367D01*
X38253465Y-151413674D01*
X38249000Y-151368339D01*
X38249000Y-150531661D01*
X38253465Y-150486326D01*
X38264899Y-150448633D01*
X38283466Y-150413897D01*
X38308452Y-150383452D01*
X38338897Y-150358466D01*
X38373633Y-150339899D01*
X38411326Y-150328465D01*
X38456661Y-150324000D01*
X39543339Y-150324000D01*
X39588674Y-150328465D01*
G37*
G36*
X72588674Y-146403465D02*
G01*
X72626367Y-146414899D01*
X72661103Y-146433466D01*
X72691548Y-146458452D01*
X72716534Y-146488897D01*
X72735101Y-146523633D01*
X72746535Y-146561326D01*
X72751000Y-146606661D01*
X72751000Y-147443339D01*
X72746535Y-147488674D01*
X72735101Y-147526367D01*
X72716534Y-147561103D01*
X72691548Y-147591548D01*
X72661103Y-147616534D01*
X72626367Y-147635101D01*
X72588674Y-147646535D01*
X72543339Y-147651000D01*
X71456661Y-147651000D01*
X71411326Y-147646535D01*
X71373633Y-147635101D01*
X71338897Y-147616534D01*
X71308452Y-147591548D01*
X71283466Y-147561103D01*
X71264899Y-147526367D01*
X71253465Y-147488674D01*
X71249000Y-147443339D01*
X71249000Y-146606661D01*
X71253465Y-146561326D01*
X71264899Y-146523633D01*
X71283466Y-146488897D01*
X71308452Y-146458452D01*
X71338897Y-146433466D01*
X71373633Y-146414899D01*
X71411326Y-146403465D01*
X71456661Y-146399000D01*
X72543339Y-146399000D01*
X72588674Y-146403465D01*
G37*
G36*
X70588674Y-146403465D02*
G01*
X70626367Y-146414899D01*
X70661103Y-146433466D01*
X70691548Y-146458452D01*
X70716534Y-146488897D01*
X70735101Y-146523633D01*
X70746535Y-146561326D01*
X70751000Y-146606661D01*
X70751000Y-147443339D01*
X70746535Y-147488674D01*
X70735101Y-147526367D01*
X70716534Y-147561103D01*
X70691548Y-147591548D01*
X70661103Y-147616534D01*
X70626367Y-147635101D01*
X70588674Y-147646535D01*
X70543339Y-147651000D01*
X69456661Y-147651000D01*
X69411326Y-147646535D01*
X69373633Y-147635101D01*
X69338897Y-147616534D01*
X69308452Y-147591548D01*
X69283466Y-147561103D01*
X69264899Y-147526367D01*
X69253465Y-147488674D01*
X69249000Y-147443339D01*
X69249000Y-146606661D01*
X69253465Y-146561326D01*
X69264899Y-146523633D01*
X69283466Y-146488897D01*
X69308452Y-146458452D01*
X69338897Y-146433466D01*
X69373633Y-146414899D01*
X69411326Y-146403465D01*
X69456661Y-146399000D01*
X70543339Y-146399000D01*
X70588674Y-146403465D01*
G37*
G36*
X68588674Y-146403465D02*
G01*
X68626367Y-146414899D01*
X68661103Y-146433466D01*
X68691548Y-146458452D01*
X68716534Y-146488897D01*
X68735101Y-146523633D01*
X68746535Y-146561326D01*
X68751000Y-146606661D01*
X68751000Y-147443339D01*
X68746535Y-147488674D01*
X68735101Y-147526367D01*
X68716534Y-147561103D01*
X68691548Y-147591548D01*
X68661103Y-147616534D01*
X68626367Y-147635101D01*
X68588674Y-147646535D01*
X68543339Y-147651000D01*
X67456661Y-147651000D01*
X67411326Y-147646535D01*
X67373633Y-147635101D01*
X67338897Y-147616534D01*
X67308452Y-147591548D01*
X67283466Y-147561103D01*
X67264899Y-147526367D01*
X67253465Y-147488674D01*
X67249000Y-147443339D01*
X67249000Y-146606661D01*
X67253465Y-146561326D01*
X67264899Y-146523633D01*
X67283466Y-146488897D01*
X67308452Y-146458452D01*
X67338897Y-146433466D01*
X67373633Y-146414899D01*
X67411326Y-146403465D01*
X67456661Y-146399000D01*
X68543339Y-146399000D01*
X68588674Y-146403465D01*
G37*
G36*
X53588674Y-146403465D02*
G01*
X53626367Y-146414899D01*
X53661103Y-146433466D01*
X53691548Y-146458452D01*
X53716534Y-146488897D01*
X53735101Y-146523633D01*
X53746535Y-146561326D01*
X53751000Y-146606661D01*
X53751000Y-147443339D01*
X53746535Y-147488674D01*
X53735101Y-147526367D01*
X53716534Y-147561103D01*
X53691548Y-147591548D01*
X53661103Y-147616534D01*
X53626367Y-147635101D01*
X53588674Y-147646535D01*
X53543339Y-147651000D01*
X52456661Y-147651000D01*
X52411326Y-147646535D01*
X52373633Y-147635101D01*
X52338897Y-147616534D01*
X52308452Y-147591548D01*
X52283466Y-147561103D01*
X52264899Y-147526367D01*
X52253465Y-147488674D01*
X52249000Y-147443339D01*
X52249000Y-146606661D01*
X52253465Y-146561326D01*
X52264899Y-146523633D01*
X52283466Y-146488897D01*
X52308452Y-146458452D01*
X52338897Y-146433466D01*
X52373633Y-146414899D01*
X52411326Y-146403465D01*
X52456661Y-146399000D01*
X53543339Y-146399000D01*
X53588674Y-146403465D01*
G37*
G36*
X51588674Y-146403465D02*
G01*
X51626367Y-146414899D01*
X51661103Y-146433466D01*
X51691548Y-146458452D01*
X51716534Y-146488897D01*
X51735101Y-146523633D01*
X51746535Y-146561326D01*
X51751000Y-146606661D01*
X51751000Y-147443339D01*
X51746535Y-147488674D01*
X51735101Y-147526367D01*
X51716534Y-147561103D01*
X51691548Y-147591548D01*
X51661103Y-147616534D01*
X51626367Y-147635101D01*
X51588674Y-147646535D01*
X51543339Y-147651000D01*
X50456661Y-147651000D01*
X50411326Y-147646535D01*
X50373633Y-147635101D01*
X50338897Y-147616534D01*
X50308452Y-147591548D01*
X50283466Y-147561103D01*
X50264899Y-147526367D01*
X50253465Y-147488674D01*
X50249000Y-147443339D01*
X50249000Y-146606661D01*
X50253465Y-146561326D01*
X50264899Y-146523633D01*
X50283466Y-146488897D01*
X50308452Y-146458452D01*
X50338897Y-146433466D01*
X50373633Y-146414899D01*
X50411326Y-146403465D01*
X50456661Y-146399000D01*
X51543339Y-146399000D01*
X51588674Y-146403465D01*
G37*
G36*
X49588674Y-146403465D02*
G01*
X49626367Y-146414899D01*
X49661103Y-146433466D01*
X49691548Y-146458452D01*
X49716534Y-146488897D01*
X49735101Y-146523633D01*
X49746535Y-146561326D01*
X49751000Y-146606661D01*
X49751000Y-147443339D01*
X49746535Y-147488674D01*
X49735101Y-147526367D01*
X49716534Y-147561103D01*
X49691548Y-147591548D01*
X49661103Y-147616534D01*
X49626367Y-147635101D01*
X49588674Y-147646535D01*
X49543339Y-147651000D01*
X48456661Y-147651000D01*
X48411326Y-147646535D01*
X48373633Y-147635101D01*
X48338897Y-147616534D01*
X48308452Y-147591548D01*
X48283466Y-147561103D01*
X48264899Y-147526367D01*
X48253465Y-147488674D01*
X48249000Y-147443339D01*
X48249000Y-146606661D01*
X48253465Y-146561326D01*
X48264899Y-146523633D01*
X48283466Y-146488897D01*
X48308452Y-146458452D01*
X48338897Y-146433466D01*
X48373633Y-146414899D01*
X48411326Y-146403465D01*
X48456661Y-146399000D01*
X49543339Y-146399000D01*
X49588674Y-146403465D01*
G37*
G36*
X53588674Y-144353465D02*
G01*
X53626367Y-144364899D01*
X53661103Y-144383466D01*
X53691548Y-144408452D01*
X53716534Y-144438897D01*
X53735101Y-144473633D01*
X53746535Y-144511326D01*
X53751000Y-144556661D01*
X53751000Y-145393339D01*
X53746535Y-145438674D01*
X53735101Y-145476367D01*
X53716534Y-145511103D01*
X53691548Y-145541548D01*
X53661103Y-145566534D01*
X53626367Y-145585101D01*
X53588674Y-145596535D01*
X53543339Y-145601000D01*
X52456661Y-145601000D01*
X52411326Y-145596535D01*
X52373633Y-145585101D01*
X52338897Y-145566534D01*
X52308452Y-145541548D01*
X52283466Y-145511103D01*
X52264899Y-145476367D01*
X52253465Y-145438674D01*
X52249000Y-145393339D01*
X52249000Y-144556661D01*
X52253465Y-144511326D01*
X52264899Y-144473633D01*
X52283466Y-144438897D01*
X52308452Y-144408452D01*
X52338897Y-144383466D01*
X52373633Y-144364899D01*
X52411326Y-144353465D01*
X52456661Y-144349000D01*
X53543339Y-144349000D01*
X53588674Y-144353465D01*
G37*
G36*
X72588674Y-144353465D02*
G01*
X72626367Y-144364899D01*
X72661103Y-144383466D01*
X72691548Y-144408452D01*
X72716534Y-144438897D01*
X72735101Y-144473633D01*
X72746535Y-144511326D01*
X72751000Y-144556661D01*
X72751000Y-145393339D01*
X72746535Y-145438674D01*
X72735101Y-145476367D01*
X72716534Y-145511103D01*
X72691548Y-145541548D01*
X72661103Y-145566534D01*
X72626367Y-145585101D01*
X72588674Y-145596535D01*
X72543339Y-145601000D01*
X71456661Y-145601000D01*
X71411326Y-145596535D01*
X71373633Y-145585101D01*
X71338897Y-145566534D01*
X71308452Y-145541548D01*
X71283466Y-145511103D01*
X71264899Y-145476367D01*
X71253465Y-145438674D01*
X71249000Y-145393339D01*
X71249000Y-144556661D01*
X71253465Y-144511326D01*
X71264899Y-144473633D01*
X71283466Y-144438897D01*
X71308452Y-144408452D01*
X71338897Y-144383466D01*
X71373633Y-144364899D01*
X71411326Y-144353465D01*
X71456661Y-144349000D01*
X72543339Y-144349000D01*
X72588674Y-144353465D01*
G37*
G36*
X70588674Y-144353465D02*
G01*
X70626367Y-144364899D01*
X70661103Y-144383466D01*
X70691548Y-144408452D01*
X70716534Y-144438897D01*
X70735101Y-144473633D01*
X70746535Y-144511326D01*
X70751000Y-144556661D01*
X70751000Y-145393339D01*
X70746535Y-145438674D01*
X70735101Y-145476367D01*
X70716534Y-145511103D01*
X70691548Y-145541548D01*
X70661103Y-145566534D01*
X70626367Y-145585101D01*
X70588674Y-145596535D01*
X70543339Y-145601000D01*
X69456661Y-145601000D01*
X69411326Y-145596535D01*
X69373633Y-145585101D01*
X69338897Y-145566534D01*
X69308452Y-145541548D01*
X69283466Y-145511103D01*
X69264899Y-145476367D01*
X69253465Y-145438674D01*
X69249000Y-145393339D01*
X69249000Y-144556661D01*
X69253465Y-144511326D01*
X69264899Y-144473633D01*
X69283466Y-144438897D01*
X69308452Y-144408452D01*
X69338897Y-144383466D01*
X69373633Y-144364899D01*
X69411326Y-144353465D01*
X69456661Y-144349000D01*
X70543339Y-144349000D01*
X70588674Y-144353465D01*
G37*
G36*
X68588674Y-144353465D02*
G01*
X68626367Y-144364899D01*
X68661103Y-144383466D01*
X68691548Y-144408452D01*
X68716534Y-144438897D01*
X68735101Y-144473633D01*
X68746535Y-144511326D01*
X68751000Y-144556661D01*
X68751000Y-145393339D01*
X68746535Y-145438674D01*
X68735101Y-145476367D01*
X68716534Y-145511103D01*
X68691548Y-145541548D01*
X68661103Y-145566534D01*
X68626367Y-145585101D01*
X68588674Y-145596535D01*
X68543339Y-145601000D01*
X67456661Y-145601000D01*
X67411326Y-145596535D01*
X67373633Y-145585101D01*
X67338897Y-145566534D01*
X67308452Y-145541548D01*
X67283466Y-145511103D01*
X67264899Y-145476367D01*
X67253465Y-145438674D01*
X67249000Y-145393339D01*
X67249000Y-144556661D01*
X67253465Y-144511326D01*
X67264899Y-144473633D01*
X67283466Y-144438897D01*
X67308452Y-144408452D01*
X67338897Y-144383466D01*
X67373633Y-144364899D01*
X67411326Y-144353465D01*
X67456661Y-144349000D01*
X68543339Y-144349000D01*
X68588674Y-144353465D01*
G37*
G36*
X51588674Y-144353465D02*
G01*
X51626367Y-144364899D01*
X51661103Y-144383466D01*
X51691548Y-144408452D01*
X51716534Y-144438897D01*
X51735101Y-144473633D01*
X51746535Y-144511326D01*
X51751000Y-144556661D01*
X51751000Y-145393339D01*
X51746535Y-145438674D01*
X51735101Y-145476367D01*
X51716534Y-145511103D01*
X51691548Y-145541548D01*
X51661103Y-145566534D01*
X51626367Y-145585101D01*
X51588674Y-145596535D01*
X51543339Y-145601000D01*
X50456661Y-145601000D01*
X50411326Y-145596535D01*
X50373633Y-145585101D01*
X50338897Y-145566534D01*
X50308452Y-145541548D01*
X50283466Y-145511103D01*
X50264899Y-145476367D01*
X50253465Y-145438674D01*
X50249000Y-145393339D01*
X50249000Y-144556661D01*
X50253465Y-144511326D01*
X50264899Y-144473633D01*
X50283466Y-144438897D01*
X50308452Y-144408452D01*
X50338897Y-144383466D01*
X50373633Y-144364899D01*
X50411326Y-144353465D01*
X50456661Y-144349000D01*
X51543339Y-144349000D01*
X51588674Y-144353465D01*
G37*
G36*
X49588674Y-144353465D02*
G01*
X49626367Y-144364899D01*
X49661103Y-144383466D01*
X49691548Y-144408452D01*
X49716534Y-144438897D01*
X49735101Y-144473633D01*
X49746535Y-144511326D01*
X49751000Y-144556661D01*
X49751000Y-145393339D01*
X49746535Y-145438674D01*
X49735101Y-145476367D01*
X49716534Y-145511103D01*
X49691548Y-145541548D01*
X49661103Y-145566534D01*
X49626367Y-145585101D01*
X49588674Y-145596535D01*
X49543339Y-145601000D01*
X48456661Y-145601000D01*
X48411326Y-145596535D01*
X48373633Y-145585101D01*
X48338897Y-145566534D01*
X48308452Y-145541548D01*
X48283466Y-145511103D01*
X48264899Y-145476367D01*
X48253465Y-145438674D01*
X48249000Y-145393339D01*
X48249000Y-144556661D01*
X48253465Y-144511326D01*
X48264899Y-144473633D01*
X48283466Y-144438897D01*
X48308452Y-144408452D01*
X48338897Y-144383466D01*
X48373633Y-144364899D01*
X48411326Y-144353465D01*
X48456661Y-144349000D01*
X49543339Y-144349000D01*
X49588674Y-144353465D01*
G37*
G36*
X47751000Y-142451000D02*
G01*
X45949000Y-142451000D01*
X45949000Y-141349000D01*
X47751000Y-141349000D01*
X47751000Y-142451000D01*
G37*
G36*
X54051000Y-142451000D02*
G01*
X52249000Y-142451000D01*
X52249000Y-141349000D01*
X54051000Y-141349000D01*
X54051000Y-142451000D01*
G37*
G36*
X74051000Y-142451000D02*
G01*
X72249000Y-142451000D01*
X72249000Y-141349000D01*
X74051000Y-141349000D01*
X74051000Y-142451000D01*
G37*
G36*
X67751000Y-142451000D02*
G01*
X65949000Y-142451000D01*
X65949000Y-141349000D01*
X67751000Y-141349000D01*
X67751000Y-142451000D01*
G37*
G36*
X80951000Y-140951000D02*
G01*
X79049000Y-140951000D01*
X79049000Y-139049000D01*
X80951000Y-139049000D01*
X80951000Y-140951000D01*
G37*
G36*
X40951000Y-140951000D02*
G01*
X39049000Y-140951000D01*
X39049000Y-139049000D01*
X40951000Y-139049000D01*
X40951000Y-140951000D01*
G37*
G36*
X44588674Y-138403465D02*
G01*
X44626367Y-138414899D01*
X44661103Y-138433466D01*
X44691548Y-138458452D01*
X44716534Y-138488897D01*
X44735101Y-138523633D01*
X44746535Y-138561326D01*
X44751000Y-138606661D01*
X44751000Y-139443339D01*
X44746535Y-139488674D01*
X44735101Y-139526367D01*
X44716534Y-139561103D01*
X44691548Y-139591548D01*
X44661103Y-139616534D01*
X44626367Y-139635101D01*
X44588674Y-139646535D01*
X44543339Y-139651000D01*
X43456661Y-139651000D01*
X43411326Y-139646535D01*
X43373633Y-139635101D01*
X43338897Y-139616534D01*
X43308452Y-139591548D01*
X43283466Y-139561103D01*
X43264899Y-139526367D01*
X43253465Y-139488674D01*
X43249000Y-139443339D01*
X43249000Y-138606661D01*
X43253465Y-138561326D01*
X43264899Y-138523633D01*
X43283466Y-138488897D01*
X43308452Y-138458452D01*
X43338897Y-138433466D01*
X43373633Y-138414899D01*
X43411326Y-138403465D01*
X43456661Y-138399000D01*
X44543339Y-138399000D01*
X44588674Y-138403465D01*
G37*
G36*
X67751000Y-138651000D02*
G01*
X65949000Y-138651000D01*
X65949000Y-137549000D01*
X67751000Y-137549000D01*
X67751000Y-138651000D01*
G37*
G36*
X74051000Y-138651000D02*
G01*
X72249000Y-138651000D01*
X72249000Y-137549000D01*
X74051000Y-137549000D01*
X74051000Y-138651000D01*
G37*
G36*
X76588674Y-137403465D02*
G01*
X76626367Y-137414899D01*
X76661103Y-137433466D01*
X76691548Y-137458452D01*
X76716534Y-137488897D01*
X76735101Y-137523633D01*
X76746535Y-137561326D01*
X76751000Y-137606661D01*
X76751000Y-138443339D01*
X76746535Y-138488674D01*
X76735101Y-138526367D01*
X76716534Y-138561103D01*
X76691548Y-138591548D01*
X76661103Y-138616534D01*
X76626367Y-138635101D01*
X76588674Y-138646535D01*
X76543339Y-138651000D01*
X75456661Y-138651000D01*
X75411326Y-138646535D01*
X75373633Y-138635101D01*
X75338897Y-138616534D01*
X75308452Y-138591548D01*
X75283466Y-138561103D01*
X75264899Y-138526367D01*
X75253465Y-138488674D01*
X75249000Y-138443339D01*
X75249000Y-137606661D01*
X75253465Y-137561326D01*
X75264899Y-137523633D01*
X75283466Y-137488897D01*
X75308452Y-137458452D01*
X75338897Y-137433466D01*
X75373633Y-137414899D01*
X75411326Y-137403465D01*
X75456661Y-137399000D01*
X76543339Y-137399000D01*
X76588674Y-137403465D01*
G37*
G36*
X54051000Y-138651000D02*
G01*
X52249000Y-138651000D01*
X52249000Y-137549000D01*
X54051000Y-137549000D01*
X54051000Y-138651000D01*
G37*
G36*
X47751000Y-138651000D02*
G01*
X45949000Y-138651000D01*
X45949000Y-137549000D01*
X47751000Y-137549000D01*
X47751000Y-138651000D01*
G37*
G36*
X80277395Y-136545546D02*
G01*
X80450466Y-136617234D01*
X80450467Y-136617235D01*
X80606227Y-136721310D01*
X80738690Y-136853773D01*
X80738691Y-136853775D01*
X80842766Y-137009534D01*
X80914454Y-137182605D01*
X80951000Y-137366333D01*
X80951000Y-137553667D01*
X80914454Y-137737395D01*
X80842766Y-137910466D01*
X80842765Y-137910467D01*
X80738690Y-138066227D01*
X80606227Y-138198690D01*
X80527818Y-138251081D01*
X80450466Y-138302766D01*
X80277395Y-138374454D01*
X80093667Y-138411000D01*
X79906333Y-138411000D01*
X79722605Y-138374454D01*
X79549534Y-138302766D01*
X79472182Y-138251081D01*
X79393773Y-138198690D01*
X79261310Y-138066227D01*
X79157235Y-137910467D01*
X79157234Y-137910466D01*
X79085546Y-137737395D01*
X79049000Y-137553667D01*
X79049000Y-137366333D01*
X79085546Y-137182605D01*
X79157234Y-137009534D01*
X79261309Y-136853775D01*
X79261310Y-136853773D01*
X79393773Y-136721310D01*
X79549533Y-136617235D01*
X79549534Y-136617234D01*
X79722605Y-136545546D01*
X79906333Y-136509000D01*
X80093667Y-136509000D01*
X80277395Y-136545546D01*
G37*
G36*
X40277395Y-136545546D02*
G01*
X40450466Y-136617234D01*
X40450467Y-136617235D01*
X40606227Y-136721310D01*
X40738690Y-136853773D01*
X40738691Y-136853775D01*
X40842766Y-137009534D01*
X40914454Y-137182605D01*
X40951000Y-137366333D01*
X40951000Y-137553667D01*
X40914454Y-137737395D01*
X40842766Y-137910466D01*
X40842765Y-137910467D01*
X40738690Y-138066227D01*
X40606227Y-138198690D01*
X40527818Y-138251081D01*
X40450466Y-138302766D01*
X40277395Y-138374454D01*
X40093667Y-138411000D01*
X39906333Y-138411000D01*
X39722605Y-138374454D01*
X39549534Y-138302766D01*
X39472182Y-138251081D01*
X39393773Y-138198690D01*
X39261310Y-138066227D01*
X39157235Y-137910467D01*
X39157234Y-137910466D01*
X39085546Y-137737395D01*
X39049000Y-137553667D01*
X39049000Y-137366333D01*
X39085546Y-137182605D01*
X39157234Y-137009534D01*
X39261309Y-136853775D01*
X39261310Y-136853773D01*
X39393773Y-136721310D01*
X39549533Y-136617235D01*
X39549534Y-136617234D01*
X39722605Y-136545546D01*
X39906333Y-136509000D01*
X40093667Y-136509000D01*
X40277395Y-136545546D01*
G37*
G36*
X44588674Y-136353465D02*
G01*
X44626367Y-136364899D01*
X44661103Y-136383466D01*
X44691548Y-136408452D01*
X44716534Y-136438897D01*
X44735101Y-136473633D01*
X44746535Y-136511326D01*
X44751000Y-136556661D01*
X44751000Y-137393339D01*
X44746535Y-137438674D01*
X44735101Y-137476367D01*
X44716534Y-137511103D01*
X44691548Y-137541548D01*
X44661103Y-137566534D01*
X44626367Y-137585101D01*
X44588674Y-137596535D01*
X44543339Y-137601000D01*
X43456661Y-137601000D01*
X43411326Y-137596535D01*
X43373633Y-137585101D01*
X43338897Y-137566534D01*
X43308452Y-137541548D01*
X43283466Y-137511103D01*
X43264899Y-137476367D01*
X43253465Y-137438674D01*
X43249000Y-137393339D01*
X43249000Y-136556661D01*
X43253465Y-136511326D01*
X43264899Y-136473633D01*
X43283466Y-136438897D01*
X43308452Y-136408452D01*
X43338897Y-136383466D01*
X43373633Y-136364899D01*
X43411326Y-136353465D01*
X43456661Y-136349000D01*
X44543339Y-136349000D01*
X44588674Y-136353465D01*
G37*
G36*
X76588674Y-135353465D02*
G01*
X76626367Y-135364899D01*
X76661103Y-135383466D01*
X76691548Y-135408452D01*
X76716534Y-135438897D01*
X76735101Y-135473633D01*
X76746535Y-135511326D01*
X76751000Y-135556661D01*
X76751000Y-136393339D01*
X76746535Y-136438674D01*
X76735101Y-136476367D01*
X76716534Y-136511103D01*
X76691548Y-136541548D01*
X76661103Y-136566534D01*
X76626367Y-136585101D01*
X76588674Y-136596535D01*
X76543339Y-136601000D01*
X75456661Y-136601000D01*
X75411326Y-136596535D01*
X75373633Y-136585101D01*
X75338897Y-136566534D01*
X75308452Y-136541548D01*
X75283466Y-136511103D01*
X75264899Y-136476367D01*
X75253465Y-136438674D01*
X75249000Y-136393339D01*
X75249000Y-135556661D01*
X75253465Y-135511326D01*
X75264899Y-135473633D01*
X75283466Y-135438897D01*
X75308452Y-135408452D01*
X75338897Y-135383466D01*
X75373633Y-135364899D01*
X75411326Y-135353465D01*
X75456661Y-135349000D01*
X76543339Y-135349000D01*
X76588674Y-135353465D01*
G37*
G36*
X63696228Y-130955703D02*
G01*
X63851100Y-131019853D01*
X63990481Y-131112985D01*
X64109015Y-131231519D01*
X64202147Y-131370900D01*
X64266297Y-131525772D01*
X64299000Y-131690184D01*
X64299000Y-131857816D01*
X64266297Y-132022228D01*
X64202147Y-132177100D01*
X64109015Y-132316481D01*
X63990481Y-132435015D01*
X63851100Y-132528147D01*
X63696228Y-132592297D01*
X63531816Y-132625000D01*
X63364184Y-132625000D01*
X63199772Y-132592297D01*
X63044900Y-132528147D01*
X62905519Y-132435015D01*
X62786985Y-132316481D01*
X62693853Y-132177100D01*
X62629703Y-132022228D01*
X62597000Y-131857816D01*
X62597000Y-131690184D01*
X62629703Y-131525772D01*
X62693853Y-131370900D01*
X62786985Y-131231519D01*
X62905519Y-131112985D01*
X63044900Y-131019853D01*
X63199772Y-130955703D01*
X63364184Y-130923000D01*
X63531816Y-130923000D01*
X63696228Y-130955703D01*
G37*
G36*
X76396228Y-130955703D02*
G01*
X76551100Y-131019853D01*
X76690481Y-131112985D01*
X76809015Y-131231519D01*
X76902147Y-131370900D01*
X76966297Y-131525772D01*
X76999000Y-131690184D01*
X76999000Y-131857816D01*
X76966297Y-132022228D01*
X76902147Y-132177100D01*
X76809015Y-132316481D01*
X76690481Y-132435015D01*
X76551100Y-132528147D01*
X76396228Y-132592297D01*
X76231816Y-132625000D01*
X76064184Y-132625000D01*
X75899772Y-132592297D01*
X75744900Y-132528147D01*
X75605519Y-132435015D01*
X75486985Y-132316481D01*
X75393853Y-132177100D01*
X75329703Y-132022228D01*
X75297000Y-131857816D01*
X75297000Y-131690184D01*
X75329703Y-131525772D01*
X75393853Y-131370900D01*
X75486985Y-131231519D01*
X75605519Y-131112985D01*
X75744900Y-131019853D01*
X75899772Y-130955703D01*
X76064184Y-130923000D01*
X76231816Y-130923000D01*
X76396228Y-130955703D01*
G37*
G36*
X73856228Y-130955703D02*
G01*
X74011100Y-131019853D01*
X74150481Y-131112985D01*
X74269015Y-131231519D01*
X74362147Y-131370900D01*
X74426297Y-131525772D01*
X74459000Y-131690184D01*
X74459000Y-131857816D01*
X74426297Y-132022228D01*
X74362147Y-132177100D01*
X74269015Y-132316481D01*
X74150481Y-132435015D01*
X74011100Y-132528147D01*
X73856228Y-132592297D01*
X73691816Y-132625000D01*
X73524184Y-132625000D01*
X73359772Y-132592297D01*
X73204900Y-132528147D01*
X73065519Y-132435015D01*
X72946985Y-132316481D01*
X72853853Y-132177100D01*
X72789703Y-132022228D01*
X72757000Y-131857816D01*
X72757000Y-131690184D01*
X72789703Y-131525772D01*
X72853853Y-131370900D01*
X72946985Y-131231519D01*
X73065519Y-131112985D01*
X73204900Y-131019853D01*
X73359772Y-130955703D01*
X73524184Y-130923000D01*
X73691816Y-130923000D01*
X73856228Y-130955703D01*
G37*
G36*
X79539000Y-132625000D02*
G01*
X77837000Y-132625000D01*
X77837000Y-130923000D01*
X79539000Y-130923000D01*
X79539000Y-132625000D01*
G37*
G36*
X71316228Y-130955703D02*
G01*
X71471100Y-131019853D01*
X71610481Y-131112985D01*
X71729015Y-131231519D01*
X71822147Y-131370900D01*
X71886297Y-131525772D01*
X71919000Y-131690184D01*
X71919000Y-131857816D01*
X71886297Y-132022228D01*
X71822147Y-132177100D01*
X71729015Y-132316481D01*
X71610481Y-132435015D01*
X71471100Y-132528147D01*
X71316228Y-132592297D01*
X71151816Y-132625000D01*
X70984184Y-132625000D01*
X70819772Y-132592297D01*
X70664900Y-132528147D01*
X70525519Y-132435015D01*
X70406985Y-132316481D01*
X70313853Y-132177100D01*
X70249703Y-132022228D01*
X70217000Y-131857816D01*
X70217000Y-131690184D01*
X70249703Y-131525772D01*
X70313853Y-131370900D01*
X70406985Y-131231519D01*
X70525519Y-131112985D01*
X70664900Y-131019853D01*
X70819772Y-130955703D01*
X70984184Y-130923000D01*
X71151816Y-130923000D01*
X71316228Y-130955703D01*
G37*
G36*
X68776228Y-130955703D02*
G01*
X68931100Y-131019853D01*
X69070481Y-131112985D01*
X69189015Y-131231519D01*
X69282147Y-131370900D01*
X69346297Y-131525772D01*
X69379000Y-131690184D01*
X69379000Y-131857816D01*
X69346297Y-132022228D01*
X69282147Y-132177100D01*
X69189015Y-132316481D01*
X69070481Y-132435015D01*
X68931100Y-132528147D01*
X68776228Y-132592297D01*
X68611816Y-132625000D01*
X68444184Y-132625000D01*
X68279772Y-132592297D01*
X68124900Y-132528147D01*
X67985519Y-132435015D01*
X67866985Y-132316481D01*
X67773853Y-132177100D01*
X67709703Y-132022228D01*
X67677000Y-131857816D01*
X67677000Y-131690184D01*
X67709703Y-131525772D01*
X67773853Y-131370900D01*
X67866985Y-131231519D01*
X67985519Y-131112985D01*
X68124900Y-131019853D01*
X68279772Y-130955703D01*
X68444184Y-130923000D01*
X68611816Y-130923000D01*
X68776228Y-130955703D01*
G37*
G36*
X66236228Y-130955703D02*
G01*
X66391100Y-131019853D01*
X66530481Y-131112985D01*
X66649015Y-131231519D01*
X66742147Y-131370900D01*
X66806297Y-131525772D01*
X66839000Y-131690184D01*
X66839000Y-131857816D01*
X66806297Y-132022228D01*
X66742147Y-132177100D01*
X66649015Y-132316481D01*
X66530481Y-132435015D01*
X66391100Y-132528147D01*
X66236228Y-132592297D01*
X66071816Y-132625000D01*
X65904184Y-132625000D01*
X65739772Y-132592297D01*
X65584900Y-132528147D01*
X65445519Y-132435015D01*
X65326985Y-132316481D01*
X65233853Y-132177100D01*
X65169703Y-132022228D01*
X65137000Y-131857816D01*
X65137000Y-131690184D01*
X65169703Y-131525772D01*
X65233853Y-131370900D01*
X65326985Y-131231519D01*
X65445519Y-131112985D01*
X65584900Y-131019853D01*
X65739772Y-130955703D01*
X65904184Y-130923000D01*
X66071816Y-130923000D01*
X66236228Y-130955703D01*
G37*
G36*
X61156228Y-130955703D02*
G01*
X61311100Y-131019853D01*
X61450481Y-131112985D01*
X61569015Y-131231519D01*
X61662147Y-131370900D01*
X61726297Y-131525772D01*
X61759000Y-131690184D01*
X61759000Y-131857816D01*
X61726297Y-132022228D01*
X61662147Y-132177100D01*
X61569015Y-132316481D01*
X61450481Y-132435015D01*
X61311100Y-132528147D01*
X61156228Y-132592297D01*
X60991816Y-132625000D01*
X60824184Y-132625000D01*
X60659772Y-132592297D01*
X60504900Y-132528147D01*
X60365519Y-132435015D01*
X60246985Y-132316481D01*
X60153853Y-132177100D01*
X60089703Y-132022228D01*
X60057000Y-131857816D01*
X60057000Y-131690184D01*
X60089703Y-131525772D01*
X60153853Y-131370900D01*
X60246985Y-131231519D01*
X60365519Y-131112985D01*
X60504900Y-131019853D01*
X60659772Y-130955703D01*
X60824184Y-130923000D01*
X60991816Y-130923000D01*
X61156228Y-130955703D01*
G37*
G36*
X56076228Y-130955703D02*
G01*
X56231100Y-131019853D01*
X56370481Y-131112985D01*
X56489015Y-131231519D01*
X56582147Y-131370900D01*
X56646297Y-131525772D01*
X56679000Y-131690184D01*
X56679000Y-131857816D01*
X56646297Y-132022228D01*
X56582147Y-132177100D01*
X56489015Y-132316481D01*
X56370481Y-132435015D01*
X56231100Y-132528147D01*
X56076228Y-132592297D01*
X55911816Y-132625000D01*
X55744184Y-132625000D01*
X55579772Y-132592297D01*
X55424900Y-132528147D01*
X55285519Y-132435015D01*
X55166985Y-132316481D01*
X55073853Y-132177100D01*
X55009703Y-132022228D01*
X54977000Y-131857816D01*
X54977000Y-131690184D01*
X55009703Y-131525772D01*
X55073853Y-131370900D01*
X55166985Y-131231519D01*
X55285519Y-131112985D01*
X55424900Y-131019853D01*
X55579772Y-130955703D01*
X55744184Y-130923000D01*
X55911816Y-130923000D01*
X56076228Y-130955703D01*
G37*
G36*
X53536228Y-130955703D02*
G01*
X53691100Y-131019853D01*
X53830481Y-131112985D01*
X53949015Y-131231519D01*
X54042147Y-131370900D01*
X54106297Y-131525772D01*
X54139000Y-131690184D01*
X54139000Y-131857816D01*
X54106297Y-132022228D01*
X54042147Y-132177100D01*
X53949015Y-132316481D01*
X53830481Y-132435015D01*
X53691100Y-132528147D01*
X53536228Y-132592297D01*
X53371816Y-132625000D01*
X53204184Y-132625000D01*
X53039772Y-132592297D01*
X52884900Y-132528147D01*
X52745519Y-132435015D01*
X52626985Y-132316481D01*
X52533853Y-132177100D01*
X52469703Y-132022228D01*
X52437000Y-131857816D01*
X52437000Y-131690184D01*
X52469703Y-131525772D01*
X52533853Y-131370900D01*
X52626985Y-131231519D01*
X52745519Y-131112985D01*
X52884900Y-131019853D01*
X53039772Y-130955703D01*
X53204184Y-130923000D01*
X53371816Y-130923000D01*
X53536228Y-130955703D01*
G37*
G36*
X50996228Y-130955703D02*
G01*
X51151100Y-131019853D01*
X51290481Y-131112985D01*
X51409015Y-131231519D01*
X51502147Y-131370900D01*
X51566297Y-131525772D01*
X51599000Y-131690184D01*
X51599000Y-131857816D01*
X51566297Y-132022228D01*
X51502147Y-132177100D01*
X51409015Y-132316481D01*
X51290481Y-132435015D01*
X51151100Y-132528147D01*
X50996228Y-132592297D01*
X50831816Y-132625000D01*
X50664184Y-132625000D01*
X50499772Y-132592297D01*
X50344900Y-132528147D01*
X50205519Y-132435015D01*
X50086985Y-132316481D01*
X49993853Y-132177100D01*
X49929703Y-132022228D01*
X49897000Y-131857816D01*
X49897000Y-131690184D01*
X49929703Y-131525772D01*
X49993853Y-131370900D01*
X50086985Y-131231519D01*
X50205519Y-131112985D01*
X50344900Y-131019853D01*
X50499772Y-130955703D01*
X50664184Y-130923000D01*
X50831816Y-130923000D01*
X50996228Y-130955703D01*
G37*
G36*
X48456228Y-130955703D02*
G01*
X48611100Y-131019853D01*
X48750481Y-131112985D01*
X48869015Y-131231519D01*
X48962147Y-131370900D01*
X49026297Y-131525772D01*
X49059000Y-131690184D01*
X49059000Y-131857816D01*
X49026297Y-132022228D01*
X48962147Y-132177100D01*
X48869015Y-132316481D01*
X48750481Y-132435015D01*
X48611100Y-132528147D01*
X48456228Y-132592297D01*
X48291816Y-132625000D01*
X48124184Y-132625000D01*
X47959772Y-132592297D01*
X47804900Y-132528147D01*
X47665519Y-132435015D01*
X47546985Y-132316481D01*
X47453853Y-132177100D01*
X47389703Y-132022228D01*
X47357000Y-131857816D01*
X47357000Y-131690184D01*
X47389703Y-131525772D01*
X47453853Y-131370900D01*
X47546985Y-131231519D01*
X47665519Y-131112985D01*
X47804900Y-131019853D01*
X47959772Y-130955703D01*
X48124184Y-130923000D01*
X48291816Y-130923000D01*
X48456228Y-130955703D01*
G37*
G36*
X45916228Y-130955703D02*
G01*
X46071100Y-131019853D01*
X46210481Y-131112985D01*
X46329015Y-131231519D01*
X46422147Y-131370900D01*
X46486297Y-131525772D01*
X46519000Y-131690184D01*
X46519000Y-131857816D01*
X46486297Y-132022228D01*
X46422147Y-132177100D01*
X46329015Y-132316481D01*
X46210481Y-132435015D01*
X46071100Y-132528147D01*
X45916228Y-132592297D01*
X45751816Y-132625000D01*
X45584184Y-132625000D01*
X45419772Y-132592297D01*
X45264900Y-132528147D01*
X45125519Y-132435015D01*
X45006985Y-132316481D01*
X44913853Y-132177100D01*
X44849703Y-132022228D01*
X44817000Y-131857816D01*
X44817000Y-131690184D01*
X44849703Y-131525772D01*
X44913853Y-131370900D01*
X45006985Y-131231519D01*
X45125519Y-131112985D01*
X45264900Y-131019853D01*
X45419772Y-130955703D01*
X45584184Y-130923000D01*
X45751816Y-130923000D01*
X45916228Y-130955703D01*
G37*
G36*
X43376228Y-130955703D02*
G01*
X43531100Y-131019853D01*
X43670481Y-131112985D01*
X43789015Y-131231519D01*
X43882147Y-131370900D01*
X43946297Y-131525772D01*
X43979000Y-131690184D01*
X43979000Y-131857816D01*
X43946297Y-132022228D01*
X43882147Y-132177100D01*
X43789015Y-132316481D01*
X43670481Y-132435015D01*
X43531100Y-132528147D01*
X43376228Y-132592297D01*
X43211816Y-132625000D01*
X43044184Y-132625000D01*
X42879772Y-132592297D01*
X42724900Y-132528147D01*
X42585519Y-132435015D01*
X42466985Y-132316481D01*
X42373853Y-132177100D01*
X42309703Y-132022228D01*
X42277000Y-131857816D01*
X42277000Y-131690184D01*
X42309703Y-131525772D01*
X42373853Y-131370900D01*
X42466985Y-131231519D01*
X42585519Y-131112985D01*
X42724900Y-131019853D01*
X42879772Y-130955703D01*
X43044184Y-130923000D01*
X43211816Y-130923000D01*
X43376228Y-130955703D01*
G37*
G36*
X58616228Y-130955703D02*
G01*
X58771100Y-131019853D01*
X58910481Y-131112985D01*
X59029015Y-131231519D01*
X59122147Y-131370900D01*
X59186297Y-131525772D01*
X59219000Y-131690184D01*
X59219000Y-131857816D01*
X59186297Y-132022228D01*
X59122147Y-132177100D01*
X59029015Y-132316481D01*
X58910481Y-132435015D01*
X58771100Y-132528147D01*
X58616228Y-132592297D01*
X58451816Y-132625000D01*
X58284184Y-132625000D01*
X58119772Y-132592297D01*
X57964900Y-132528147D01*
X57825519Y-132435015D01*
X57706985Y-132316481D01*
X57613853Y-132177100D01*
X57549703Y-132022228D01*
X57517000Y-131857816D01*
X57517000Y-131690184D01*
X57549703Y-131525772D01*
X57613853Y-131370900D01*
X57706985Y-131231519D01*
X57825519Y-131112985D01*
X57964900Y-131019853D01*
X58119772Y-130955703D01*
X58284184Y-130923000D01*
X58451816Y-130923000D01*
X58616228Y-130955703D01*
G37*
G36*
X74051000Y-127451000D02*
G01*
X72249000Y-127451000D01*
X72249000Y-126349000D01*
X74051000Y-126349000D01*
X74051000Y-127451000D01*
G37*
G36*
X67751000Y-127451000D02*
G01*
X65949000Y-127451000D01*
X65949000Y-126349000D01*
X67751000Y-126349000D01*
X67751000Y-127451000D01*
G37*
G36*
X54051000Y-127451000D02*
G01*
X52249000Y-127451000D01*
X52249000Y-126349000D01*
X54051000Y-126349000D01*
X54051000Y-127451000D01*
G37*
G36*
X47751000Y-127451000D02*
G01*
X45949000Y-127451000D01*
X45949000Y-126349000D01*
X47751000Y-126349000D01*
X47751000Y-127451000D01*
G37*
G36*
X59588674Y-125403465D02*
G01*
X59626367Y-125414899D01*
X59661103Y-125433466D01*
X59691548Y-125458452D01*
X59716534Y-125488897D01*
X59735101Y-125523633D01*
X59746535Y-125561326D01*
X59751000Y-125606661D01*
X59751000Y-126443339D01*
X59746535Y-126488674D01*
X59735101Y-126526367D01*
X59716534Y-126561103D01*
X59691548Y-126591548D01*
X59661103Y-126616534D01*
X59626367Y-126635101D01*
X59588674Y-126646535D01*
X59543339Y-126651000D01*
X58456661Y-126651000D01*
X58411326Y-126646535D01*
X58373633Y-126635101D01*
X58338897Y-126616534D01*
X58308452Y-126591548D01*
X58283466Y-126561103D01*
X58264899Y-126526367D01*
X58253465Y-126488674D01*
X58249000Y-126443339D01*
X58249000Y-125606661D01*
X58253465Y-125561326D01*
X58264899Y-125523633D01*
X58283466Y-125488897D01*
X58308452Y-125458452D01*
X58338897Y-125433466D01*
X58373633Y-125414899D01*
X58411326Y-125403465D01*
X58456661Y-125399000D01*
X59543339Y-125399000D01*
X59588674Y-125403465D01*
G37*
G36*
X61588674Y-125403465D02*
G01*
X61626367Y-125414899D01*
X61661103Y-125433466D01*
X61691548Y-125458452D01*
X61716534Y-125488897D01*
X61735101Y-125523633D01*
X61746535Y-125561326D01*
X61751000Y-125606661D01*
X61751000Y-126443339D01*
X61746535Y-126488674D01*
X61735101Y-126526367D01*
X61716534Y-126561103D01*
X61691548Y-126591548D01*
X61661103Y-126616534D01*
X61626367Y-126635101D01*
X61588674Y-126646535D01*
X61543339Y-126651000D01*
X60456661Y-126651000D01*
X60411326Y-126646535D01*
X60373633Y-126635101D01*
X60338897Y-126616534D01*
X60308452Y-126591548D01*
X60283466Y-126561103D01*
X60264899Y-126526367D01*
X60253465Y-126488674D01*
X60249000Y-126443339D01*
X60249000Y-125606661D01*
X60253465Y-125561326D01*
X60264899Y-125523633D01*
X60283466Y-125488897D01*
X60308452Y-125458452D01*
X60338897Y-125433466D01*
X60373633Y-125414899D01*
X60411326Y-125403465D01*
X60456661Y-125399000D01*
X61543339Y-125399000D01*
X61588674Y-125403465D01*
G37*
G36*
X39588674Y-125403465D02*
G01*
X39626367Y-125414899D01*
X39661103Y-125433466D01*
X39691548Y-125458452D01*
X39716534Y-125488897D01*
X39735101Y-125523633D01*
X39746535Y-125561326D01*
X39751000Y-125606661D01*
X39751000Y-126443339D01*
X39746535Y-126488674D01*
X39735101Y-126526367D01*
X39716534Y-126561103D01*
X39691548Y-126591548D01*
X39661103Y-126616534D01*
X39626367Y-126635101D01*
X39588674Y-126646535D01*
X39543339Y-126651000D01*
X38456661Y-126651000D01*
X38411326Y-126646535D01*
X38373633Y-126635101D01*
X38338897Y-126616534D01*
X38308452Y-126591548D01*
X38283466Y-126561103D01*
X38264899Y-126526367D01*
X38253465Y-126488674D01*
X38249000Y-126443339D01*
X38249000Y-125606661D01*
X38253465Y-125561326D01*
X38264899Y-125523633D01*
X38283466Y-125488897D01*
X38308452Y-125458452D01*
X38338897Y-125433466D01*
X38373633Y-125414899D01*
X38411326Y-125403465D01*
X38456661Y-125399000D01*
X39543339Y-125399000D01*
X39588674Y-125403465D01*
G37*
G36*
X41588674Y-125403465D02*
G01*
X41626367Y-125414899D01*
X41661103Y-125433466D01*
X41691548Y-125458452D01*
X41716534Y-125488897D01*
X41735101Y-125523633D01*
X41746535Y-125561326D01*
X41751000Y-125606661D01*
X41751000Y-126443339D01*
X41746535Y-126488674D01*
X41735101Y-126526367D01*
X41716534Y-126561103D01*
X41691548Y-126591548D01*
X41661103Y-126616534D01*
X41626367Y-126635101D01*
X41588674Y-126646535D01*
X41543339Y-126651000D01*
X40456661Y-126651000D01*
X40411326Y-126646535D01*
X40373633Y-126635101D01*
X40338897Y-126616534D01*
X40308452Y-126591548D01*
X40283466Y-126561103D01*
X40264899Y-126526367D01*
X40253465Y-126488674D01*
X40249000Y-126443339D01*
X40249000Y-125606661D01*
X40253465Y-125561326D01*
X40264899Y-125523633D01*
X40283466Y-125488897D01*
X40308452Y-125458452D01*
X40338897Y-125433466D01*
X40373633Y-125414899D01*
X40411326Y-125403465D01*
X40456661Y-125399000D01*
X41543339Y-125399000D01*
X41588674Y-125403465D01*
G37*
G36*
X43588674Y-125403465D02*
G01*
X43626367Y-125414899D01*
X43661103Y-125433466D01*
X43691548Y-125458452D01*
X43716534Y-125488897D01*
X43735101Y-125523633D01*
X43746535Y-125561326D01*
X43751000Y-125606661D01*
X43751000Y-126443339D01*
X43746535Y-126488674D01*
X43735101Y-126526367D01*
X43716534Y-126561103D01*
X43691548Y-126591548D01*
X43661103Y-126616534D01*
X43626367Y-126635101D01*
X43588674Y-126646535D01*
X43543339Y-126651000D01*
X42456661Y-126651000D01*
X42411326Y-126646535D01*
X42373633Y-126635101D01*
X42338897Y-126616534D01*
X42308452Y-126591548D01*
X42283466Y-126561103D01*
X42264899Y-126526367D01*
X42253465Y-126488674D01*
X42249000Y-126443339D01*
X42249000Y-125606661D01*
X42253465Y-125561326D01*
X42264899Y-125523633D01*
X42283466Y-125488897D01*
X42308452Y-125458452D01*
X42338897Y-125433466D01*
X42373633Y-125414899D01*
X42411326Y-125403465D01*
X42456661Y-125399000D01*
X43543339Y-125399000D01*
X43588674Y-125403465D01*
G37*
G36*
X63588674Y-125403465D02*
G01*
X63626367Y-125414899D01*
X63661103Y-125433466D01*
X63691548Y-125458452D01*
X63716534Y-125488897D01*
X63735101Y-125523633D01*
X63746535Y-125561326D01*
X63751000Y-125606661D01*
X63751000Y-126443339D01*
X63746535Y-126488674D01*
X63735101Y-126526367D01*
X63716534Y-126561103D01*
X63691548Y-126591548D01*
X63661103Y-126616534D01*
X63626367Y-126635101D01*
X63588674Y-126646535D01*
X63543339Y-126651000D01*
X62456661Y-126651000D01*
X62411326Y-126646535D01*
X62373633Y-126635101D01*
X62338897Y-126616534D01*
X62308452Y-126591548D01*
X62283466Y-126561103D01*
X62264899Y-126526367D01*
X62253465Y-126488674D01*
X62249000Y-126443339D01*
X62249000Y-125606661D01*
X62253465Y-125561326D01*
X62264899Y-125523633D01*
X62283466Y-125488897D01*
X62308452Y-125458452D01*
X62338897Y-125433466D01*
X62373633Y-125414899D01*
X62411326Y-125403465D01*
X62456661Y-125399000D01*
X63543339Y-125399000D01*
X63588674Y-125403465D01*
G37*
G36*
X59588674Y-123353465D02*
G01*
X59626367Y-123364899D01*
X59661103Y-123383466D01*
X59691548Y-123408452D01*
X59716534Y-123438897D01*
X59735101Y-123473633D01*
X59746535Y-123511326D01*
X59751000Y-123556661D01*
X59751000Y-124393339D01*
X59746535Y-124438674D01*
X59735101Y-124476367D01*
X59716534Y-124511103D01*
X59691548Y-124541548D01*
X59661103Y-124566534D01*
X59626367Y-124585101D01*
X59588674Y-124596535D01*
X59543339Y-124601000D01*
X58456661Y-124601000D01*
X58411326Y-124596535D01*
X58373633Y-124585101D01*
X58338897Y-124566534D01*
X58308452Y-124541548D01*
X58283466Y-124511103D01*
X58264899Y-124476367D01*
X58253465Y-124438674D01*
X58249000Y-124393339D01*
X58249000Y-123556661D01*
X58253465Y-123511326D01*
X58264899Y-123473633D01*
X58283466Y-123438897D01*
X58308452Y-123408452D01*
X58338897Y-123383466D01*
X58373633Y-123364899D01*
X58411326Y-123353465D01*
X58456661Y-123349000D01*
X59543339Y-123349000D01*
X59588674Y-123353465D01*
G37*
G36*
X39588674Y-123353465D02*
G01*
X39626367Y-123364899D01*
X39661103Y-123383466D01*
X39691548Y-123408452D01*
X39716534Y-123438897D01*
X39735101Y-123473633D01*
X39746535Y-123511326D01*
X39751000Y-123556661D01*
X39751000Y-124393339D01*
X39746535Y-124438674D01*
X39735101Y-124476367D01*
X39716534Y-124511103D01*
X39691548Y-124541548D01*
X39661103Y-124566534D01*
X39626367Y-124585101D01*
X39588674Y-124596535D01*
X39543339Y-124601000D01*
X38456661Y-124601000D01*
X38411326Y-124596535D01*
X38373633Y-124585101D01*
X38338897Y-124566534D01*
X38308452Y-124541548D01*
X38283466Y-124511103D01*
X38264899Y-124476367D01*
X38253465Y-124438674D01*
X38249000Y-124393339D01*
X38249000Y-123556661D01*
X38253465Y-123511326D01*
X38264899Y-123473633D01*
X38283466Y-123438897D01*
X38308452Y-123408452D01*
X38338897Y-123383466D01*
X38373633Y-123364899D01*
X38411326Y-123353465D01*
X38456661Y-123349000D01*
X39543339Y-123349000D01*
X39588674Y-123353465D01*
G37*
G36*
X41588674Y-123353465D02*
G01*
X41626367Y-123364899D01*
X41661103Y-123383466D01*
X41691548Y-123408452D01*
X41716534Y-123438897D01*
X41735101Y-123473633D01*
X41746535Y-123511326D01*
X41751000Y-123556661D01*
X41751000Y-124393339D01*
X41746535Y-124438674D01*
X41735101Y-124476367D01*
X41716534Y-124511103D01*
X41691548Y-124541548D01*
X41661103Y-124566534D01*
X41626367Y-124585101D01*
X41588674Y-124596535D01*
X41543339Y-124601000D01*
X40456661Y-124601000D01*
X40411326Y-124596535D01*
X40373633Y-124585101D01*
X40338897Y-124566534D01*
X40308452Y-124541548D01*
X40283466Y-124511103D01*
X40264899Y-124476367D01*
X40253465Y-124438674D01*
X40249000Y-124393339D01*
X40249000Y-123556661D01*
X40253465Y-123511326D01*
X40264899Y-123473633D01*
X40283466Y-123438897D01*
X40308452Y-123408452D01*
X40338897Y-123383466D01*
X40373633Y-123364899D01*
X40411326Y-123353465D01*
X40456661Y-123349000D01*
X41543339Y-123349000D01*
X41588674Y-123353465D01*
G37*
G36*
X43588674Y-123353465D02*
G01*
X43626367Y-123364899D01*
X43661103Y-123383466D01*
X43691548Y-123408452D01*
X43716534Y-123438897D01*
X43735101Y-123473633D01*
X43746535Y-123511326D01*
X43751000Y-123556661D01*
X43751000Y-124393339D01*
X43746535Y-124438674D01*
X43735101Y-124476367D01*
X43716534Y-124511103D01*
X43691548Y-124541548D01*
X43661103Y-124566534D01*
X43626367Y-124585101D01*
X43588674Y-124596535D01*
X43543339Y-124601000D01*
X42456661Y-124601000D01*
X42411326Y-124596535D01*
X42373633Y-124585101D01*
X42338897Y-124566534D01*
X42308452Y-124541548D01*
X42283466Y-124511103D01*
X42264899Y-124476367D01*
X42253465Y-124438674D01*
X42249000Y-124393339D01*
X42249000Y-123556661D01*
X42253465Y-123511326D01*
X42264899Y-123473633D01*
X42283466Y-123438897D01*
X42308452Y-123408452D01*
X42338897Y-123383466D01*
X42373633Y-123364899D01*
X42411326Y-123353465D01*
X42456661Y-123349000D01*
X43543339Y-123349000D01*
X43588674Y-123353465D01*
G37*
G36*
X63588674Y-123353465D02*
G01*
X63626367Y-123364899D01*
X63661103Y-123383466D01*
X63691548Y-123408452D01*
X63716534Y-123438897D01*
X63735101Y-123473633D01*
X63746535Y-123511326D01*
X63751000Y-123556661D01*
X63751000Y-124393339D01*
X63746535Y-124438674D01*
X63735101Y-124476367D01*
X63716534Y-124511103D01*
X63691548Y-124541548D01*
X63661103Y-124566534D01*
X63626367Y-124585101D01*
X63588674Y-124596535D01*
X63543339Y-124601000D01*
X62456661Y-124601000D01*
X62411326Y-124596535D01*
X62373633Y-124585101D01*
X62338897Y-124566534D01*
X62308452Y-124541548D01*
X62283466Y-124511103D01*
X62264899Y-124476367D01*
X62253465Y-124438674D01*
X62249000Y-124393339D01*
X62249000Y-123556661D01*
X62253465Y-123511326D01*
X62264899Y-123473633D01*
X62283466Y-123438897D01*
X62308452Y-123408452D01*
X62338897Y-123383466D01*
X62373633Y-123364899D01*
X62411326Y-123353465D01*
X62456661Y-123349000D01*
X63543339Y-123349000D01*
X63588674Y-123353465D01*
G37*
G36*
X61588674Y-123353465D02*
G01*
X61626367Y-123364899D01*
X61661103Y-123383466D01*
X61691548Y-123408452D01*
X61716534Y-123438897D01*
X61735101Y-123473633D01*
X61746535Y-123511326D01*
X61751000Y-123556661D01*
X61751000Y-124393339D01*
X61746535Y-124438674D01*
X61735101Y-124476367D01*
X61716534Y-124511103D01*
X61691548Y-124541548D01*
X61661103Y-124566534D01*
X61626367Y-124585101D01*
X61588674Y-124596535D01*
X61543339Y-124601000D01*
X60456661Y-124601000D01*
X60411326Y-124596535D01*
X60373633Y-124585101D01*
X60338897Y-124566534D01*
X60308452Y-124541548D01*
X60283466Y-124511103D01*
X60264899Y-124476367D01*
X60253465Y-124438674D01*
X60249000Y-124393339D01*
X60249000Y-123556661D01*
X60253465Y-123511326D01*
X60264899Y-123473633D01*
X60283466Y-123438897D01*
X60308452Y-123408452D01*
X60338897Y-123383466D01*
X60373633Y-123364899D01*
X60411326Y-123353465D01*
X60456661Y-123349000D01*
X61543339Y-123349000D01*
X61588674Y-123353465D01*
G37*
G36*
X54051000Y-123651000D02*
G01*
X52249000Y-123651000D01*
X52249000Y-122549000D01*
X54051000Y-122549000D01*
X54051000Y-123651000D01*
G37*
G36*
X47751000Y-123651000D02*
G01*
X45949000Y-123651000D01*
X45949000Y-122549000D01*
X47751000Y-122549000D01*
X47751000Y-123651000D01*
G37*
G36*
X74051000Y-123651000D02*
G01*
X72249000Y-123651000D01*
X72249000Y-122549000D01*
X74051000Y-122549000D01*
X74051000Y-123651000D01*
G37*
G36*
X67751000Y-123651000D02*
G01*
X65949000Y-123651000D01*
X65949000Y-122549000D01*
X67751000Y-122549000D01*
X67751000Y-123651000D01*
G37*
G36*
X71438674Y-119253465D02*
G01*
X71476367Y-119264899D01*
X71511103Y-119283466D01*
X71541548Y-119308452D01*
X71566534Y-119338897D01*
X71585101Y-119373633D01*
X71596535Y-119411326D01*
X71601000Y-119456661D01*
X71601000Y-120543339D01*
X71596535Y-120588674D01*
X71585101Y-120626367D01*
X71566534Y-120661103D01*
X71541548Y-120691548D01*
X71511103Y-120716534D01*
X71476367Y-120735101D01*
X71438674Y-120746535D01*
X71393339Y-120751000D01*
X70556661Y-120751000D01*
X70511326Y-120746535D01*
X70473633Y-120735101D01*
X70438897Y-120716534D01*
X70408452Y-120691548D01*
X70383466Y-120661103D01*
X70364899Y-120626367D01*
X70353465Y-120588674D01*
X70349000Y-120543339D01*
X70349000Y-119456661D01*
X70353465Y-119411326D01*
X70364899Y-119373633D01*
X70383466Y-119338897D01*
X70408452Y-119308452D01*
X70438897Y-119283466D01*
X70473633Y-119264899D01*
X70511326Y-119253465D01*
X70556661Y-119249000D01*
X71393339Y-119249000D01*
X71438674Y-119253465D01*
G37*
G36*
X48916674Y-119253465D02*
G01*
X48954367Y-119264899D01*
X48989103Y-119283466D01*
X49019548Y-119308452D01*
X49044534Y-119338897D01*
X49063101Y-119373633D01*
X49074535Y-119411326D01*
X49079000Y-119456661D01*
X49079000Y-120543339D01*
X49074535Y-120588674D01*
X49063101Y-120626367D01*
X49044534Y-120661103D01*
X49019548Y-120691548D01*
X48989103Y-120716534D01*
X48954367Y-120735101D01*
X48916674Y-120746535D01*
X48871339Y-120751000D01*
X48034661Y-120751000D01*
X47989326Y-120746535D01*
X47951633Y-120735101D01*
X47916897Y-120716534D01*
X47886452Y-120691548D01*
X47861466Y-120661103D01*
X47842899Y-120626367D01*
X47831465Y-120588674D01*
X47827000Y-120543339D01*
X47827000Y-119456661D01*
X47831465Y-119411326D01*
X47842899Y-119373633D01*
X47861466Y-119338897D01*
X47886452Y-119308452D01*
X47916897Y-119283466D01*
X47951633Y-119264899D01*
X47989326Y-119253465D01*
X48034661Y-119249000D01*
X48871339Y-119249000D01*
X48916674Y-119253465D01*
G37*
G36*
X73488674Y-119253465D02*
G01*
X73526367Y-119264899D01*
X73561103Y-119283466D01*
X73591548Y-119308452D01*
X73616534Y-119338897D01*
X73635101Y-119373633D01*
X73646535Y-119411326D01*
X73651000Y-119456661D01*
X73651000Y-120543339D01*
X73646535Y-120588674D01*
X73635101Y-120626367D01*
X73616534Y-120661103D01*
X73591548Y-120691548D01*
X73561103Y-120716534D01*
X73526367Y-120735101D01*
X73488674Y-120746535D01*
X73443339Y-120751000D01*
X72606661Y-120751000D01*
X72561326Y-120746535D01*
X72523633Y-120735101D01*
X72488897Y-120716534D01*
X72458452Y-120691548D01*
X72433466Y-120661103D01*
X72414899Y-120626367D01*
X72403465Y-120588674D01*
X72399000Y-120543339D01*
X72399000Y-119456661D01*
X72403465Y-119411326D01*
X72414899Y-119373633D01*
X72433466Y-119338897D01*
X72458452Y-119308452D01*
X72488897Y-119283466D01*
X72523633Y-119264899D01*
X72561326Y-119253465D01*
X72606661Y-119249000D01*
X73443339Y-119249000D01*
X73488674Y-119253465D01*
G37*
G36*
X50966674Y-119253465D02*
G01*
X51004367Y-119264899D01*
X51039103Y-119283466D01*
X51069548Y-119308452D01*
X51094534Y-119338897D01*
X51113101Y-119373633D01*
X51124535Y-119411326D01*
X51129000Y-119456661D01*
X51129000Y-120543339D01*
X51124535Y-120588674D01*
X51113101Y-120626367D01*
X51094534Y-120661103D01*
X51069548Y-120691548D01*
X51039103Y-120716534D01*
X51004367Y-120735101D01*
X50966674Y-120746535D01*
X50921339Y-120751000D01*
X50084661Y-120751000D01*
X50039326Y-120746535D01*
X50001633Y-120735101D01*
X49966897Y-120716534D01*
X49936452Y-120691548D01*
X49911466Y-120661103D01*
X49892899Y-120626367D01*
X49881465Y-120588674D01*
X49877000Y-120543339D01*
X49877000Y-119456661D01*
X49881465Y-119411326D01*
X49892899Y-119373633D01*
X49911466Y-119338897D01*
X49936452Y-119308452D01*
X49966897Y-119283466D01*
X50001633Y-119264899D01*
X50039326Y-119253465D01*
X50084661Y-119249000D01*
X50921339Y-119249000D01*
X50966674Y-119253465D01*
G37*
G36*
X50996228Y-115715703D02*
G01*
X51151100Y-115779853D01*
X51290481Y-115872985D01*
X51409015Y-115991519D01*
X51502147Y-116130900D01*
X51566297Y-116285772D01*
X51599000Y-116450184D01*
X51599000Y-116617816D01*
X51566297Y-116782228D01*
X51502147Y-116937100D01*
X51409015Y-117076481D01*
X51290481Y-117195015D01*
X51151100Y-117288147D01*
X50996228Y-117352297D01*
X50831816Y-117385000D01*
X50664184Y-117385000D01*
X50499772Y-117352297D01*
X50344900Y-117288147D01*
X50205519Y-117195015D01*
X50086985Y-117076481D01*
X49993853Y-116937100D01*
X49929703Y-116782228D01*
X49897000Y-116617816D01*
X49897000Y-116450184D01*
X49929703Y-116285772D01*
X49993853Y-116130900D01*
X50086985Y-115991519D01*
X50205519Y-115872985D01*
X50344900Y-115779853D01*
X50499772Y-115715703D01*
X50664184Y-115683000D01*
X50831816Y-115683000D01*
X50996228Y-115715703D01*
G37*
G36*
X61156228Y-115715703D02*
G01*
X61311100Y-115779853D01*
X61450481Y-115872985D01*
X61569015Y-115991519D01*
X61662147Y-116130900D01*
X61726297Y-116285772D01*
X61759000Y-116450184D01*
X61759000Y-116617816D01*
X61726297Y-116782228D01*
X61662147Y-116937100D01*
X61569015Y-117076481D01*
X61450481Y-117195015D01*
X61311100Y-117288147D01*
X61156228Y-117352297D01*
X60991816Y-117385000D01*
X60824184Y-117385000D01*
X60659772Y-117352297D01*
X60504900Y-117288147D01*
X60365519Y-117195015D01*
X60246985Y-117076481D01*
X60153853Y-116937100D01*
X60089703Y-116782228D01*
X60057000Y-116617816D01*
X60057000Y-116450184D01*
X60089703Y-116285772D01*
X60153853Y-116130900D01*
X60246985Y-115991519D01*
X60365519Y-115872985D01*
X60504900Y-115779853D01*
X60659772Y-115715703D01*
X60824184Y-115683000D01*
X60991816Y-115683000D01*
X61156228Y-115715703D01*
G37*
G36*
X63696228Y-115715703D02*
G01*
X63851100Y-115779853D01*
X63990481Y-115872985D01*
X64109015Y-115991519D01*
X64202147Y-116130900D01*
X64266297Y-116285772D01*
X64299000Y-116450184D01*
X64299000Y-116617816D01*
X64266297Y-116782228D01*
X64202147Y-116937100D01*
X64109015Y-117076481D01*
X63990481Y-117195015D01*
X63851100Y-117288147D01*
X63696228Y-117352297D01*
X63531816Y-117385000D01*
X63364184Y-117385000D01*
X63199772Y-117352297D01*
X63044900Y-117288147D01*
X62905519Y-117195015D01*
X62786985Y-117076481D01*
X62693853Y-116937100D01*
X62629703Y-116782228D01*
X62597000Y-116617816D01*
X62597000Y-116450184D01*
X62629703Y-116285772D01*
X62693853Y-116130900D01*
X62786985Y-115991519D01*
X62905519Y-115872985D01*
X63044900Y-115779853D01*
X63199772Y-115715703D01*
X63364184Y-115683000D01*
X63531816Y-115683000D01*
X63696228Y-115715703D01*
G37*
G36*
X58616228Y-115715703D02*
G01*
X58771100Y-115779853D01*
X58910481Y-115872985D01*
X59029015Y-115991519D01*
X59122147Y-116130900D01*
X59186297Y-116285772D01*
X59219000Y-116450184D01*
X59219000Y-116617816D01*
X59186297Y-116782228D01*
X59122147Y-116937100D01*
X59029015Y-117076481D01*
X58910481Y-117195015D01*
X58771100Y-117288147D01*
X58616228Y-117352297D01*
X58451816Y-117385000D01*
X58284184Y-117385000D01*
X58119772Y-117352297D01*
X57964900Y-117288147D01*
X57825519Y-117195015D01*
X57706985Y-117076481D01*
X57613853Y-116937100D01*
X57549703Y-116782228D01*
X57517000Y-116617816D01*
X57517000Y-116450184D01*
X57549703Y-116285772D01*
X57613853Y-116130900D01*
X57706985Y-115991519D01*
X57825519Y-115872985D01*
X57964900Y-115779853D01*
X58119772Y-115715703D01*
X58284184Y-115683000D01*
X58451816Y-115683000D01*
X58616228Y-115715703D01*
G37*
G36*
X66236228Y-115715703D02*
G01*
X66391100Y-115779853D01*
X66530481Y-115872985D01*
X66649015Y-115991519D01*
X66742147Y-116130900D01*
X66806297Y-116285772D01*
X66839000Y-116450184D01*
X66839000Y-116617816D01*
X66806297Y-116782228D01*
X66742147Y-116937100D01*
X66649015Y-117076481D01*
X66530481Y-117195015D01*
X66391100Y-117288147D01*
X66236228Y-117352297D01*
X66071816Y-117385000D01*
X65904184Y-117385000D01*
X65739772Y-117352297D01*
X65584900Y-117288147D01*
X65445519Y-117195015D01*
X65326985Y-117076481D01*
X65233853Y-116937100D01*
X65169703Y-116782228D01*
X65137000Y-116617816D01*
X65137000Y-116450184D01*
X65169703Y-116285772D01*
X65233853Y-116130900D01*
X65326985Y-115991519D01*
X65445519Y-115872985D01*
X65584900Y-115779853D01*
X65739772Y-115715703D01*
X65904184Y-115683000D01*
X66071816Y-115683000D01*
X66236228Y-115715703D01*
G37*
G36*
X56076228Y-115715703D02*
G01*
X56231100Y-115779853D01*
X56370481Y-115872985D01*
X56489015Y-115991519D01*
X56582147Y-116130900D01*
X56646297Y-116285772D01*
X56679000Y-116450184D01*
X56679000Y-116617816D01*
X56646297Y-116782228D01*
X56582147Y-116937100D01*
X56489015Y-117076481D01*
X56370481Y-117195015D01*
X56231100Y-117288147D01*
X56076228Y-117352297D01*
X55911816Y-117385000D01*
X55744184Y-117385000D01*
X55579772Y-117352297D01*
X55424900Y-117288147D01*
X55285519Y-117195015D01*
X55166985Y-117076481D01*
X55073853Y-116937100D01*
X55009703Y-116782228D01*
X54977000Y-116617816D01*
X54977000Y-116450184D01*
X55009703Y-116285772D01*
X55073853Y-116130900D01*
X55166985Y-115991519D01*
X55285519Y-115872985D01*
X55424900Y-115779853D01*
X55579772Y-115715703D01*
X55744184Y-115683000D01*
X55911816Y-115683000D01*
X56076228Y-115715703D01*
G37*
G36*
X68776228Y-115715703D02*
G01*
X68931100Y-115779853D01*
X69070481Y-115872985D01*
X69189015Y-115991519D01*
X69282147Y-116130900D01*
X69346297Y-116285772D01*
X69379000Y-116450184D01*
X69379000Y-116617816D01*
X69346297Y-116782228D01*
X69282147Y-116937100D01*
X69189015Y-117076481D01*
X69070481Y-117195015D01*
X68931100Y-117288147D01*
X68776228Y-117352297D01*
X68611816Y-117385000D01*
X68444184Y-117385000D01*
X68279772Y-117352297D01*
X68124900Y-117288147D01*
X67985519Y-117195015D01*
X67866985Y-117076481D01*
X67773853Y-116937100D01*
X67709703Y-116782228D01*
X67677000Y-116617816D01*
X67677000Y-116450184D01*
X67709703Y-116285772D01*
X67773853Y-116130900D01*
X67866985Y-115991519D01*
X67985519Y-115872985D01*
X68124900Y-115779853D01*
X68279772Y-115715703D01*
X68444184Y-115683000D01*
X68611816Y-115683000D01*
X68776228Y-115715703D01*
G37*
G36*
X71316228Y-115715703D02*
G01*
X71471100Y-115779853D01*
X71610481Y-115872985D01*
X71729015Y-115991519D01*
X71822147Y-116130900D01*
X71886297Y-116285772D01*
X71919000Y-116450184D01*
X71919000Y-116617816D01*
X71886297Y-116782228D01*
X71822147Y-116937100D01*
X71729015Y-117076481D01*
X71610481Y-117195015D01*
X71471100Y-117288147D01*
X71316228Y-117352297D01*
X71151816Y-117385000D01*
X70984184Y-117385000D01*
X70819772Y-117352297D01*
X70664900Y-117288147D01*
X70525519Y-117195015D01*
X70406985Y-117076481D01*
X70313853Y-116937100D01*
X70249703Y-116782228D01*
X70217000Y-116617816D01*
X70217000Y-116450184D01*
X70249703Y-116285772D01*
X70313853Y-116130900D01*
X70406985Y-115991519D01*
X70525519Y-115872985D01*
X70664900Y-115779853D01*
X70819772Y-115715703D01*
X70984184Y-115683000D01*
X71151816Y-115683000D01*
X71316228Y-115715703D01*
G37*
G36*
X78936228Y-115715703D02*
G01*
X79091100Y-115779853D01*
X79230481Y-115872985D01*
X79349015Y-115991519D01*
X79442147Y-116130900D01*
X79506297Y-116285772D01*
X79539000Y-116450184D01*
X79539000Y-116617816D01*
X79506297Y-116782228D01*
X79442147Y-116937100D01*
X79349015Y-117076481D01*
X79230481Y-117195015D01*
X79091100Y-117288147D01*
X78936228Y-117352297D01*
X78771816Y-117385000D01*
X78604184Y-117385000D01*
X78439772Y-117352297D01*
X78284900Y-117288147D01*
X78145519Y-117195015D01*
X78026985Y-117076481D01*
X77933853Y-116937100D01*
X77869703Y-116782228D01*
X77837000Y-116617816D01*
X77837000Y-116450184D01*
X77869703Y-116285772D01*
X77933853Y-116130900D01*
X78026985Y-115991519D01*
X78145519Y-115872985D01*
X78284900Y-115779853D01*
X78439772Y-115715703D01*
X78604184Y-115683000D01*
X78771816Y-115683000D01*
X78936228Y-115715703D01*
G37*
G36*
X53536228Y-115715703D02*
G01*
X53691100Y-115779853D01*
X53830481Y-115872985D01*
X53949015Y-115991519D01*
X54042147Y-116130900D01*
X54106297Y-116285772D01*
X54139000Y-116450184D01*
X54139000Y-116617816D01*
X54106297Y-116782228D01*
X54042147Y-116937100D01*
X53949015Y-117076481D01*
X53830481Y-117195015D01*
X53691100Y-117288147D01*
X53536228Y-117352297D01*
X53371816Y-117385000D01*
X53204184Y-117385000D01*
X53039772Y-117352297D01*
X52884900Y-117288147D01*
X52745519Y-117195015D01*
X52626985Y-117076481D01*
X52533853Y-116937100D01*
X52469703Y-116782228D01*
X52437000Y-116617816D01*
X52437000Y-116450184D01*
X52469703Y-116285772D01*
X52533853Y-116130900D01*
X52626985Y-115991519D01*
X52745519Y-115872985D01*
X52884900Y-115779853D01*
X53039772Y-115715703D01*
X53204184Y-115683000D01*
X53371816Y-115683000D01*
X53536228Y-115715703D01*
G37*
G36*
X43376228Y-115715703D02*
G01*
X43531100Y-115779853D01*
X43670481Y-115872985D01*
X43789015Y-115991519D01*
X43882147Y-116130900D01*
X43946297Y-116285772D01*
X43979000Y-116450184D01*
X43979000Y-116617816D01*
X43946297Y-116782228D01*
X43882147Y-116937100D01*
X43789015Y-117076481D01*
X43670481Y-117195015D01*
X43531100Y-117288147D01*
X43376228Y-117352297D01*
X43211816Y-117385000D01*
X43044184Y-117385000D01*
X42879772Y-117352297D01*
X42724900Y-117288147D01*
X42585519Y-117195015D01*
X42466985Y-117076481D01*
X42373853Y-116937100D01*
X42309703Y-116782228D01*
X42277000Y-116617816D01*
X42277000Y-116450184D01*
X42309703Y-116285772D01*
X42373853Y-116130900D01*
X42466985Y-115991519D01*
X42585519Y-115872985D01*
X42724900Y-115779853D01*
X42879772Y-115715703D01*
X43044184Y-115683000D01*
X43211816Y-115683000D01*
X43376228Y-115715703D01*
G37*
G36*
X48456228Y-115715703D02*
G01*
X48611100Y-115779853D01*
X48750481Y-115872985D01*
X48869015Y-115991519D01*
X48962147Y-116130900D01*
X49026297Y-116285772D01*
X49059000Y-116450184D01*
X49059000Y-116617816D01*
X49026297Y-116782228D01*
X48962147Y-116937100D01*
X48869015Y-117076481D01*
X48750481Y-117195015D01*
X48611100Y-117288147D01*
X48456228Y-117352297D01*
X48291816Y-117385000D01*
X48124184Y-117385000D01*
X47959772Y-117352297D01*
X47804900Y-117288147D01*
X47665519Y-117195015D01*
X47546985Y-117076481D01*
X47453853Y-116937100D01*
X47389703Y-116782228D01*
X47357000Y-116617816D01*
X47357000Y-116450184D01*
X47389703Y-116285772D01*
X47453853Y-116130900D01*
X47546985Y-115991519D01*
X47665519Y-115872985D01*
X47804900Y-115779853D01*
X47959772Y-115715703D01*
X48124184Y-115683000D01*
X48291816Y-115683000D01*
X48456228Y-115715703D01*
G37*
G36*
X76396228Y-115715703D02*
G01*
X76551100Y-115779853D01*
X76690481Y-115872985D01*
X76809015Y-115991519D01*
X76902147Y-116130900D01*
X76966297Y-116285772D01*
X76999000Y-116450184D01*
X76999000Y-116617816D01*
X76966297Y-116782228D01*
X76902147Y-116937100D01*
X76809015Y-117076481D01*
X76690481Y-117195015D01*
X76551100Y-117288147D01*
X76396228Y-117352297D01*
X76231816Y-117385000D01*
X76064184Y-117385000D01*
X75899772Y-117352297D01*
X75744900Y-117288147D01*
X75605519Y-117195015D01*
X75486985Y-117076481D01*
X75393853Y-116937100D01*
X75329703Y-116782228D01*
X75297000Y-116617816D01*
X75297000Y-116450184D01*
X75329703Y-116285772D01*
X75393853Y-116130900D01*
X75486985Y-115991519D01*
X75605519Y-115872985D01*
X75744900Y-115779853D01*
X75899772Y-115715703D01*
X76064184Y-115683000D01*
X76231816Y-115683000D01*
X76396228Y-115715703D01*
G37*
G36*
X73856228Y-115715703D02*
G01*
X74011100Y-115779853D01*
X74150481Y-115872985D01*
X74269015Y-115991519D01*
X74362147Y-116130900D01*
X74426297Y-116285772D01*
X74459000Y-116450184D01*
X74459000Y-116617816D01*
X74426297Y-116782228D01*
X74362147Y-116937100D01*
X74269015Y-117076481D01*
X74150481Y-117195015D01*
X74011100Y-117288147D01*
X73856228Y-117352297D01*
X73691816Y-117385000D01*
X73524184Y-117385000D01*
X73359772Y-117352297D01*
X73204900Y-117288147D01*
X73065519Y-117195015D01*
X72946985Y-117076481D01*
X72853853Y-116937100D01*
X72789703Y-116782228D01*
X72757000Y-116617816D01*
X72757000Y-116450184D01*
X72789703Y-116285772D01*
X72853853Y-116130900D01*
X72946985Y-115991519D01*
X73065519Y-115872985D01*
X73204900Y-115779853D01*
X73359772Y-115715703D01*
X73524184Y-115683000D01*
X73691816Y-115683000D01*
X73856228Y-115715703D01*
G37*
G36*
X45916228Y-115715703D02*
G01*
X46071100Y-115779853D01*
X46210481Y-115872985D01*
X46329015Y-115991519D01*
X46422147Y-116130900D01*
X46486297Y-116285772D01*
X46519000Y-116450184D01*
X46519000Y-116617816D01*
X46486297Y-116782228D01*
X46422147Y-116937100D01*
X46329015Y-117076481D01*
X46210481Y-117195015D01*
X46071100Y-117288147D01*
X45916228Y-117352297D01*
X45751816Y-117385000D01*
X45584184Y-117385000D01*
X45419772Y-117352297D01*
X45264900Y-117288147D01*
X45125519Y-117195015D01*
X45006985Y-117076481D01*
X44913853Y-116937100D01*
X44849703Y-116782228D01*
X44817000Y-116617816D01*
X44817000Y-116450184D01*
X44849703Y-116285772D01*
X44913853Y-116130900D01*
X45006985Y-115991519D01*
X45125519Y-115872985D01*
X45264900Y-115779853D01*
X45419772Y-115715703D01*
X45584184Y-115683000D01*
X45751816Y-115683000D01*
X45916228Y-115715703D01*
G37*
G36*
X69488674Y-111253465D02*
G01*
X69526367Y-111264899D01*
X69561103Y-111283466D01*
X69591548Y-111308452D01*
X69616534Y-111338897D01*
X69635101Y-111373633D01*
X69646535Y-111411326D01*
X69651000Y-111456661D01*
X69651000Y-112543339D01*
X69646535Y-112588674D01*
X69635101Y-112626367D01*
X69616534Y-112661103D01*
X69591548Y-112691548D01*
X69561103Y-112716534D01*
X69526367Y-112735101D01*
X69488674Y-112746535D01*
X69443339Y-112751000D01*
X68606661Y-112751000D01*
X68561326Y-112746535D01*
X68523633Y-112735101D01*
X68488897Y-112716534D01*
X68458452Y-112691548D01*
X68433466Y-112661103D01*
X68414899Y-112626367D01*
X68403465Y-112588674D01*
X68399000Y-112543339D01*
X68399000Y-111456661D01*
X68403465Y-111411326D01*
X68414899Y-111373633D01*
X68433466Y-111338897D01*
X68458452Y-111308452D01*
X68488897Y-111283466D01*
X68523633Y-111264899D01*
X68561326Y-111253465D01*
X68606661Y-111249000D01*
X69443339Y-111249000D01*
X69488674Y-111253465D01*
G37*
G36*
X67438674Y-111253465D02*
G01*
X67476367Y-111264899D01*
X67511103Y-111283466D01*
X67541548Y-111308452D01*
X67566534Y-111338897D01*
X67585101Y-111373633D01*
X67596535Y-111411326D01*
X67601000Y-111456661D01*
X67601000Y-112543339D01*
X67596535Y-112588674D01*
X67585101Y-112626367D01*
X67566534Y-112661103D01*
X67541548Y-112691548D01*
X67511103Y-112716534D01*
X67476367Y-112735101D01*
X67438674Y-112746535D01*
X67393339Y-112751000D01*
X66556661Y-112751000D01*
X66511326Y-112746535D01*
X66473633Y-112735101D01*
X66438897Y-112716534D01*
X66408452Y-112691548D01*
X66383466Y-112661103D01*
X66364899Y-112626367D01*
X66353465Y-112588674D01*
X66349000Y-112543339D01*
X66349000Y-111456661D01*
X66353465Y-111411326D01*
X66364899Y-111373633D01*
X66383466Y-111338897D01*
X66408452Y-111308452D01*
X66438897Y-111283466D01*
X66473633Y-111264899D01*
X66511326Y-111253465D01*
X66556661Y-111249000D01*
X67393339Y-111249000D01*
X67438674Y-111253465D01*
G37*
G36*
X42751000Y-112451000D02*
G01*
X40949000Y-112451000D01*
X40949000Y-111349000D01*
X42751000Y-111349000D01*
X42751000Y-112451000D01*
G37*
G36*
X57751000Y-112451000D02*
G01*
X55949000Y-112451000D01*
X55949000Y-111349000D01*
X57751000Y-111349000D01*
X57751000Y-112451000D01*
G37*
G36*
X79051000Y-112451000D02*
G01*
X77249000Y-112451000D01*
X77249000Y-111349000D01*
X79051000Y-111349000D01*
X79051000Y-112451000D01*
G37*
G36*
X72751000Y-112451000D02*
G01*
X70949000Y-112451000D01*
X70949000Y-111349000D01*
X72751000Y-111349000D01*
X72751000Y-112451000D01*
G37*
G36*
X64051000Y-112451000D02*
G01*
X62249000Y-112451000D01*
X62249000Y-111349000D01*
X64051000Y-111349000D01*
X64051000Y-112451000D01*
G37*
G36*
X49051000Y-112451000D02*
G01*
X47249000Y-112451000D01*
X47249000Y-111349000D01*
X49051000Y-111349000D01*
X49051000Y-112451000D01*
G37*
G36*
X67438674Y-109253465D02*
G01*
X67476367Y-109264899D01*
X67511103Y-109283466D01*
X67541548Y-109308452D01*
X67566534Y-109338897D01*
X67585101Y-109373633D01*
X67596535Y-109411326D01*
X67601000Y-109456661D01*
X67601000Y-110543339D01*
X67596535Y-110588674D01*
X67585101Y-110626367D01*
X67566534Y-110661103D01*
X67541548Y-110691548D01*
X67511103Y-110716534D01*
X67476367Y-110735101D01*
X67438674Y-110746535D01*
X67393339Y-110751000D01*
X66556661Y-110751000D01*
X66511326Y-110746535D01*
X66473633Y-110735101D01*
X66438897Y-110716534D01*
X66408452Y-110691548D01*
X66383466Y-110661103D01*
X66364899Y-110626367D01*
X66353465Y-110588674D01*
X66349000Y-110543339D01*
X66349000Y-109456661D01*
X66353465Y-109411326D01*
X66364899Y-109373633D01*
X66383466Y-109338897D01*
X66408452Y-109308452D01*
X66438897Y-109283466D01*
X66473633Y-109264899D01*
X66511326Y-109253465D01*
X66556661Y-109249000D01*
X67393339Y-109249000D01*
X67438674Y-109253465D01*
G37*
G36*
X69488674Y-109253465D02*
G01*
X69526367Y-109264899D01*
X69561103Y-109283466D01*
X69591548Y-109308452D01*
X69616534Y-109338897D01*
X69635101Y-109373633D01*
X69646535Y-109411326D01*
X69651000Y-109456661D01*
X69651000Y-110543339D01*
X69646535Y-110588674D01*
X69635101Y-110626367D01*
X69616534Y-110661103D01*
X69591548Y-110691548D01*
X69561103Y-110716534D01*
X69526367Y-110735101D01*
X69488674Y-110746535D01*
X69443339Y-110751000D01*
X68606661Y-110751000D01*
X68561326Y-110746535D01*
X68523633Y-110735101D01*
X68488897Y-110716534D01*
X68458452Y-110691548D01*
X68433466Y-110661103D01*
X68414899Y-110626367D01*
X68403465Y-110588674D01*
X68399000Y-110543339D01*
X68399000Y-109456661D01*
X68403465Y-109411326D01*
X68414899Y-109373633D01*
X68433466Y-109338897D01*
X68458452Y-109308452D01*
X68488897Y-109283466D01*
X68523633Y-109264899D01*
X68561326Y-109253465D01*
X68606661Y-109249000D01*
X69443339Y-109249000D01*
X69488674Y-109253465D01*
G37*
G36*
X69488674Y-107253465D02*
G01*
X69526367Y-107264899D01*
X69561103Y-107283466D01*
X69591548Y-107308452D01*
X69616534Y-107338897D01*
X69635101Y-107373633D01*
X69646535Y-107411326D01*
X69651000Y-107456661D01*
X69651000Y-108543339D01*
X69646535Y-108588674D01*
X69635101Y-108626367D01*
X69616534Y-108661103D01*
X69591548Y-108691548D01*
X69561103Y-108716534D01*
X69526367Y-108735101D01*
X69488674Y-108746535D01*
X69443339Y-108751000D01*
X68606661Y-108751000D01*
X68561326Y-108746535D01*
X68523633Y-108735101D01*
X68488897Y-108716534D01*
X68458452Y-108691548D01*
X68433466Y-108661103D01*
X68414899Y-108626367D01*
X68403465Y-108588674D01*
X68399000Y-108543339D01*
X68399000Y-107456661D01*
X68403465Y-107411326D01*
X68414899Y-107373633D01*
X68433466Y-107338897D01*
X68458452Y-107308452D01*
X68488897Y-107283466D01*
X68523633Y-107264899D01*
X68561326Y-107253465D01*
X68606661Y-107249000D01*
X69443339Y-107249000D01*
X69488674Y-107253465D01*
G37*
G36*
X67438674Y-107253465D02*
G01*
X67476367Y-107264899D01*
X67511103Y-107283466D01*
X67541548Y-107308452D01*
X67566534Y-107338897D01*
X67585101Y-107373633D01*
X67596535Y-107411326D01*
X67601000Y-107456661D01*
X67601000Y-108543339D01*
X67596535Y-108588674D01*
X67585101Y-108626367D01*
X67566534Y-108661103D01*
X67541548Y-108691548D01*
X67511103Y-108716534D01*
X67476367Y-108735101D01*
X67438674Y-108746535D01*
X67393339Y-108751000D01*
X66556661Y-108751000D01*
X66511326Y-108746535D01*
X66473633Y-108735101D01*
X66438897Y-108716534D01*
X66408452Y-108691548D01*
X66383466Y-108661103D01*
X66364899Y-108626367D01*
X66353465Y-108588674D01*
X66349000Y-108543339D01*
X66349000Y-107456661D01*
X66353465Y-107411326D01*
X66364899Y-107373633D01*
X66383466Y-107338897D01*
X66408452Y-107308452D01*
X66438897Y-107283466D01*
X66473633Y-107264899D01*
X66511326Y-107253465D01*
X66556661Y-107249000D01*
X67393339Y-107249000D01*
X67438674Y-107253465D01*
G37*
G36*
X64051000Y-108651000D02*
G01*
X62249000Y-108651000D01*
X62249000Y-107549000D01*
X64051000Y-107549000D01*
X64051000Y-108651000D01*
G37*
G36*
X57751000Y-108651000D02*
G01*
X55949000Y-108651000D01*
X55949000Y-107549000D01*
X57751000Y-107549000D01*
X57751000Y-108651000D01*
G37*
G36*
X42751000Y-108651000D02*
G01*
X40949000Y-108651000D01*
X40949000Y-107549000D01*
X42751000Y-107549000D01*
X42751000Y-108651000D01*
G37*
G36*
X49051000Y-108651000D02*
G01*
X47249000Y-108651000D01*
X47249000Y-107549000D01*
X49051000Y-107549000D01*
X49051000Y-108651000D01*
G37*
G36*
X79051000Y-108651000D02*
G01*
X77249000Y-108651000D01*
X77249000Y-107549000D01*
X79051000Y-107549000D01*
X79051000Y-108651000D01*
G37*
G36*
X72751000Y-108651000D02*
G01*
X70949000Y-108651000D01*
X70949000Y-107549000D01*
X72751000Y-107549000D01*
X72751000Y-108651000D01*
G37*
G36*
X45951000Y-103491000D02*
G01*
X44049000Y-103491000D01*
X44049000Y-101589000D01*
X45951000Y-101589000D01*
X45951000Y-103491000D01*
G37*
G36*
X75951000Y-103451000D02*
G01*
X74049000Y-103451000D01*
X74049000Y-101549000D01*
X75951000Y-101549000D01*
X75951000Y-103451000D01*
G37*
G36*
X60951000Y-103451000D02*
G01*
X59049000Y-103451000D01*
X59049000Y-101549000D01*
X60951000Y-101549000D01*
X60951000Y-103451000D01*
G37*
G36*
X64588674Y-101403465D02*
G01*
X64626367Y-101414899D01*
X64661103Y-101433466D01*
X64691548Y-101458452D01*
X64716534Y-101488897D01*
X64735101Y-101523633D01*
X64746535Y-101561326D01*
X64751000Y-101606661D01*
X64751000Y-102443339D01*
X64746535Y-102488674D01*
X64735101Y-102526367D01*
X64716534Y-102561103D01*
X64691548Y-102591548D01*
X64661103Y-102616534D01*
X64626367Y-102635101D01*
X64588674Y-102646535D01*
X64543339Y-102651000D01*
X63456661Y-102651000D01*
X63411326Y-102646535D01*
X63373633Y-102635101D01*
X63338897Y-102616534D01*
X63308452Y-102591548D01*
X63283466Y-102561103D01*
X63264899Y-102526367D01*
X63253465Y-102488674D01*
X63249000Y-102443339D01*
X63249000Y-101606661D01*
X63253465Y-101561326D01*
X63264899Y-101523633D01*
X63283466Y-101488897D01*
X63308452Y-101458452D01*
X63338897Y-101433466D01*
X63373633Y-101414899D01*
X63411326Y-101403465D01*
X63456661Y-101399000D01*
X64543339Y-101399000D01*
X64588674Y-101403465D01*
G37*
G36*
X71588674Y-101403465D02*
G01*
X71626367Y-101414899D01*
X71661103Y-101433466D01*
X71691548Y-101458452D01*
X71716534Y-101488897D01*
X71735101Y-101523633D01*
X71746535Y-101561326D01*
X71751000Y-101606661D01*
X71751000Y-102443339D01*
X71746535Y-102488674D01*
X71735101Y-102526367D01*
X71716534Y-102561103D01*
X71691548Y-102591548D01*
X71661103Y-102616534D01*
X71626367Y-102635101D01*
X71588674Y-102646535D01*
X71543339Y-102651000D01*
X70456661Y-102651000D01*
X70411326Y-102646535D01*
X70373633Y-102635101D01*
X70338897Y-102616534D01*
X70308452Y-102591548D01*
X70283466Y-102561103D01*
X70264899Y-102526367D01*
X70253465Y-102488674D01*
X70249000Y-102443339D01*
X70249000Y-101606661D01*
X70253465Y-101561326D01*
X70264899Y-101523633D01*
X70283466Y-101488897D01*
X70308452Y-101458452D01*
X70338897Y-101433466D01*
X70373633Y-101414899D01*
X70411326Y-101403465D01*
X70456661Y-101399000D01*
X71543339Y-101399000D01*
X71588674Y-101403465D01*
G37*
G36*
X49588674Y-101378465D02*
G01*
X49626367Y-101389899D01*
X49661103Y-101408466D01*
X49691548Y-101433452D01*
X49716534Y-101463897D01*
X49735101Y-101498633D01*
X49746535Y-101536326D01*
X49751000Y-101581661D01*
X49751000Y-102418339D01*
X49746535Y-102463674D01*
X49735101Y-102501367D01*
X49716534Y-102536103D01*
X49691548Y-102566548D01*
X49661103Y-102591534D01*
X49626367Y-102610101D01*
X49588674Y-102621535D01*
X49543339Y-102626000D01*
X48456661Y-102626000D01*
X48411326Y-102621535D01*
X48373633Y-102610101D01*
X48338897Y-102591534D01*
X48308452Y-102566548D01*
X48283466Y-102536103D01*
X48264899Y-102501367D01*
X48253465Y-102463674D01*
X48249000Y-102418339D01*
X48249000Y-101581661D01*
X48253465Y-101536326D01*
X48264899Y-101498633D01*
X48283466Y-101463897D01*
X48308452Y-101433452D01*
X48338897Y-101408466D01*
X48373633Y-101389899D01*
X48411326Y-101378465D01*
X48456661Y-101374000D01*
X49543339Y-101374000D01*
X49588674Y-101378465D01*
G37*
G36*
X45277395Y-99085546D02*
G01*
X45450466Y-99157234D01*
X45450467Y-99157235D01*
X45606227Y-99261310D01*
X45738690Y-99393773D01*
X45738691Y-99393775D01*
X45842766Y-99549534D01*
X45914454Y-99722605D01*
X45951000Y-99906333D01*
X45951000Y-100093667D01*
X45914454Y-100277395D01*
X45842766Y-100450466D01*
X45818954Y-100486103D01*
X45738690Y-100606227D01*
X45606227Y-100738690D01*
X45527818Y-100791081D01*
X45450466Y-100842766D01*
X45277395Y-100914454D01*
X45093667Y-100951000D01*
X44906333Y-100951000D01*
X44722605Y-100914454D01*
X44549534Y-100842766D01*
X44472182Y-100791081D01*
X44393773Y-100738690D01*
X44261310Y-100606227D01*
X44181046Y-100486103D01*
X44157234Y-100450466D01*
X44085546Y-100277395D01*
X44049000Y-100093667D01*
X44049000Y-99906333D01*
X44085546Y-99722605D01*
X44157234Y-99549534D01*
X44261309Y-99393775D01*
X44261310Y-99393773D01*
X44393773Y-99261310D01*
X44549533Y-99157235D01*
X44549534Y-99157234D01*
X44722605Y-99085546D01*
X44906333Y-99049000D01*
X45093667Y-99049000D01*
X45277395Y-99085546D01*
G37*
G36*
X75277395Y-99045546D02*
G01*
X75450466Y-99117234D01*
X75450467Y-99117235D01*
X75606227Y-99221310D01*
X75738690Y-99353773D01*
X75746124Y-99364899D01*
X75842766Y-99509534D01*
X75914454Y-99682605D01*
X75951000Y-99866333D01*
X75951000Y-100053667D01*
X75914454Y-100237395D01*
X75842766Y-100410466D01*
X75823918Y-100438674D01*
X75738690Y-100566227D01*
X75606227Y-100698690D01*
X75546362Y-100738690D01*
X75450466Y-100802766D01*
X75277395Y-100874454D01*
X75093667Y-100911000D01*
X74906333Y-100911000D01*
X74722605Y-100874454D01*
X74549534Y-100802766D01*
X74453638Y-100738690D01*
X74393773Y-100698690D01*
X74261310Y-100566227D01*
X74176082Y-100438674D01*
X74157234Y-100410466D01*
X74085546Y-100237395D01*
X74049000Y-100053667D01*
X74049000Y-99866333D01*
X74085546Y-99682605D01*
X74157234Y-99509534D01*
X74253876Y-99364899D01*
X74261310Y-99353773D01*
X74393773Y-99221310D01*
X74549533Y-99117235D01*
X74549534Y-99117234D01*
X74722605Y-99045546D01*
X74906333Y-99009000D01*
X75093667Y-99009000D01*
X75277395Y-99045546D01*
G37*
G36*
X60277395Y-99045546D02*
G01*
X60450466Y-99117234D01*
X60450467Y-99117235D01*
X60606227Y-99221310D01*
X60738690Y-99353773D01*
X60746124Y-99364899D01*
X60842766Y-99509534D01*
X60914454Y-99682605D01*
X60951000Y-99866333D01*
X60951000Y-100053667D01*
X60914454Y-100237395D01*
X60842766Y-100410466D01*
X60823918Y-100438674D01*
X60738690Y-100566227D01*
X60606227Y-100698690D01*
X60546362Y-100738690D01*
X60450466Y-100802766D01*
X60277395Y-100874454D01*
X60093667Y-100911000D01*
X59906333Y-100911000D01*
X59722605Y-100874454D01*
X59549534Y-100802766D01*
X59453638Y-100738690D01*
X59393773Y-100698690D01*
X59261310Y-100566227D01*
X59176082Y-100438674D01*
X59157234Y-100410466D01*
X59085546Y-100237395D01*
X59049000Y-100053667D01*
X59049000Y-99866333D01*
X59085546Y-99682605D01*
X59157234Y-99509534D01*
X59253876Y-99364899D01*
X59261310Y-99353773D01*
X59393773Y-99221310D01*
X59549533Y-99117235D01*
X59549534Y-99117234D01*
X59722605Y-99045546D01*
X59906333Y-99009000D01*
X60093667Y-99009000D01*
X60277395Y-99045546D01*
G37*
G36*
X71588674Y-99353465D02*
G01*
X71626367Y-99364899D01*
X71661103Y-99383466D01*
X71691548Y-99408452D01*
X71716534Y-99438897D01*
X71735101Y-99473633D01*
X71746535Y-99511326D01*
X71751000Y-99556661D01*
X71751000Y-100393339D01*
X71746535Y-100438674D01*
X71735101Y-100476367D01*
X71716534Y-100511103D01*
X71691548Y-100541548D01*
X71661103Y-100566534D01*
X71626367Y-100585101D01*
X71588674Y-100596535D01*
X71543339Y-100601000D01*
X70456661Y-100601000D01*
X70411326Y-100596535D01*
X70373633Y-100585101D01*
X70338897Y-100566534D01*
X70308452Y-100541548D01*
X70283466Y-100511103D01*
X70264899Y-100476367D01*
X70253465Y-100438674D01*
X70249000Y-100393339D01*
X70249000Y-99556661D01*
X70253465Y-99511326D01*
X70264899Y-99473633D01*
X70283466Y-99438897D01*
X70308452Y-99408452D01*
X70338897Y-99383466D01*
X70373633Y-99364899D01*
X70411326Y-99353465D01*
X70456661Y-99349000D01*
X71543339Y-99349000D01*
X71588674Y-99353465D01*
G37*
G36*
X64588674Y-99353465D02*
G01*
X64626367Y-99364899D01*
X64661103Y-99383466D01*
X64691548Y-99408452D01*
X64716534Y-99438897D01*
X64735101Y-99473633D01*
X64746535Y-99511326D01*
X64751000Y-99556661D01*
X64751000Y-100393339D01*
X64746535Y-100438674D01*
X64735101Y-100476367D01*
X64716534Y-100511103D01*
X64691548Y-100541548D01*
X64661103Y-100566534D01*
X64626367Y-100585101D01*
X64588674Y-100596535D01*
X64543339Y-100601000D01*
X63456661Y-100601000D01*
X63411326Y-100596535D01*
X63373633Y-100585101D01*
X63338897Y-100566534D01*
X63308452Y-100541548D01*
X63283466Y-100511103D01*
X63264899Y-100476367D01*
X63253465Y-100438674D01*
X63249000Y-100393339D01*
X63249000Y-99556661D01*
X63253465Y-99511326D01*
X63264899Y-99473633D01*
X63283466Y-99438897D01*
X63308452Y-99408452D01*
X63338897Y-99383466D01*
X63373633Y-99364899D01*
X63411326Y-99353465D01*
X63456661Y-99349000D01*
X64543339Y-99349000D01*
X64588674Y-99353465D01*
G37*
G36*
X49588674Y-99328465D02*
G01*
X49626367Y-99339899D01*
X49661103Y-99358466D01*
X49691548Y-99383452D01*
X49716534Y-99413897D01*
X49735101Y-99448633D01*
X49746535Y-99486326D01*
X49751000Y-99531661D01*
X49751000Y-100368339D01*
X49746535Y-100413674D01*
X49735101Y-100451367D01*
X49716534Y-100486103D01*
X49691548Y-100516548D01*
X49661103Y-100541534D01*
X49626367Y-100560101D01*
X49588674Y-100571535D01*
X49543339Y-100576000D01*
X48456661Y-100576000D01*
X48411326Y-100571535D01*
X48373633Y-100560101D01*
X48338897Y-100541534D01*
X48308452Y-100516548D01*
X48283466Y-100486103D01*
X48264899Y-100451367D01*
X48253465Y-100413674D01*
X48249000Y-100368339D01*
X48249000Y-99531661D01*
X48253465Y-99486326D01*
X48264899Y-99448633D01*
X48283466Y-99413897D01*
X48308452Y-99383452D01*
X48338897Y-99358466D01*
X48373633Y-99339899D01*
X48411326Y-99328465D01*
X48456661Y-99324000D01*
X49543339Y-99324000D01*
X49588674Y-99328465D01*
G37*
G36*
X75488674Y-95253465D02*
G01*
X75526367Y-95264899D01*
X75561103Y-95283466D01*
X75591548Y-95308452D01*
X75616534Y-95338897D01*
X75635101Y-95373633D01*
X75646535Y-95411326D01*
X75651000Y-95456661D01*
X75651000Y-96543339D01*
X75646535Y-96588674D01*
X75635101Y-96626367D01*
X75616534Y-96661103D01*
X75591548Y-96691548D01*
X75561103Y-96716534D01*
X75526367Y-96735101D01*
X75488674Y-96746535D01*
X75443339Y-96751000D01*
X74606661Y-96751000D01*
X74561326Y-96746535D01*
X74523633Y-96735101D01*
X74488897Y-96716534D01*
X74458452Y-96691548D01*
X74433466Y-96661103D01*
X74414899Y-96626367D01*
X74403465Y-96588674D01*
X74399000Y-96543339D01*
X74399000Y-95456661D01*
X74403465Y-95411326D01*
X74414899Y-95373633D01*
X74433466Y-95338897D01*
X74458452Y-95308452D01*
X74488897Y-95283466D01*
X74523633Y-95264899D01*
X74561326Y-95253465D01*
X74606661Y-95249000D01*
X75443339Y-95249000D01*
X75488674Y-95253465D01*
G37*
G36*
X73438674Y-95253465D02*
G01*
X73476367Y-95264899D01*
X73511103Y-95283466D01*
X73541548Y-95308452D01*
X73566534Y-95338897D01*
X73585101Y-95373633D01*
X73596535Y-95411326D01*
X73601000Y-95456661D01*
X73601000Y-96543339D01*
X73596535Y-96588674D01*
X73585101Y-96626367D01*
X73566534Y-96661103D01*
X73541548Y-96691548D01*
X73511103Y-96716534D01*
X73476367Y-96735101D01*
X73438674Y-96746535D01*
X73393339Y-96751000D01*
X72556661Y-96751000D01*
X72511326Y-96746535D01*
X72473633Y-96735101D01*
X72438897Y-96716534D01*
X72408452Y-96691548D01*
X72383466Y-96661103D01*
X72364899Y-96626367D01*
X72353465Y-96588674D01*
X72349000Y-96543339D01*
X72349000Y-95456661D01*
X72353465Y-95411326D01*
X72364899Y-95373633D01*
X72383466Y-95338897D01*
X72408452Y-95308452D01*
X72438897Y-95283466D01*
X72473633Y-95264899D01*
X72511326Y-95253465D01*
X72556661Y-95249000D01*
X73393339Y-95249000D01*
X73438674Y-95253465D01*
G37*
G36*
X63588674Y-95403465D02*
G01*
X63626367Y-95414899D01*
X63661103Y-95433466D01*
X63691548Y-95458452D01*
X63716534Y-95488897D01*
X63735101Y-95523633D01*
X63746535Y-95561326D01*
X63751000Y-95606661D01*
X63751000Y-96443339D01*
X63746535Y-96488674D01*
X63735101Y-96526367D01*
X63716534Y-96561103D01*
X63691548Y-96591548D01*
X63661103Y-96616534D01*
X63626367Y-96635101D01*
X63588674Y-96646535D01*
X63543339Y-96651000D01*
X62456661Y-96651000D01*
X62411326Y-96646535D01*
X62373633Y-96635101D01*
X62338897Y-96616534D01*
X62308452Y-96591548D01*
X62283466Y-96561103D01*
X62264899Y-96526367D01*
X62253465Y-96488674D01*
X62249000Y-96443339D01*
X62249000Y-95606661D01*
X62253465Y-95561326D01*
X62264899Y-95523633D01*
X62283466Y-95488897D01*
X62308452Y-95458452D01*
X62338897Y-95433466D01*
X62373633Y-95414899D01*
X62411326Y-95403465D01*
X62456661Y-95399000D01*
X63543339Y-95399000D01*
X63588674Y-95403465D01*
G37*
G36*
X59588674Y-95403465D02*
G01*
X59626367Y-95414899D01*
X59661103Y-95433466D01*
X59691548Y-95458452D01*
X59716534Y-95488897D01*
X59735101Y-95523633D01*
X59746535Y-95561326D01*
X59751000Y-95606661D01*
X59751000Y-96443339D01*
X59746535Y-96488674D01*
X59735101Y-96526367D01*
X59716534Y-96561103D01*
X59691548Y-96591548D01*
X59661103Y-96616534D01*
X59626367Y-96635101D01*
X59588674Y-96646535D01*
X59543339Y-96651000D01*
X58456661Y-96651000D01*
X58411326Y-96646535D01*
X58373633Y-96635101D01*
X58338897Y-96616534D01*
X58308452Y-96591548D01*
X58283466Y-96561103D01*
X58264899Y-96526367D01*
X58253465Y-96488674D01*
X58249000Y-96443339D01*
X58249000Y-95606661D01*
X58253465Y-95561326D01*
X58264899Y-95523633D01*
X58283466Y-95488897D01*
X58308452Y-95458452D01*
X58338897Y-95433466D01*
X58373633Y-95414899D01*
X58411326Y-95403465D01*
X58456661Y-95399000D01*
X59543339Y-95399000D01*
X59588674Y-95403465D01*
G37*
G36*
X53588674Y-95403465D02*
G01*
X53626367Y-95414899D01*
X53661103Y-95433466D01*
X53691548Y-95458452D01*
X53716534Y-95488897D01*
X53735101Y-95523633D01*
X53746535Y-95561326D01*
X53751000Y-95606661D01*
X53751000Y-96443339D01*
X53746535Y-96488674D01*
X53735101Y-96526367D01*
X53716534Y-96561103D01*
X53691548Y-96591548D01*
X53661103Y-96616534D01*
X53626367Y-96635101D01*
X53588674Y-96646535D01*
X53543339Y-96651000D01*
X52456661Y-96651000D01*
X52411326Y-96646535D01*
X52373633Y-96635101D01*
X52338897Y-96616534D01*
X52308452Y-96591548D01*
X52283466Y-96561103D01*
X52264899Y-96526367D01*
X52253465Y-96488674D01*
X52249000Y-96443339D01*
X52249000Y-95606661D01*
X52253465Y-95561326D01*
X52264899Y-95523633D01*
X52283466Y-95488897D01*
X52308452Y-95458452D01*
X52338897Y-95433466D01*
X52373633Y-95414899D01*
X52411326Y-95403465D01*
X52456661Y-95399000D01*
X53543339Y-95399000D01*
X53588674Y-95403465D01*
G37*
G36*
X55588674Y-95403465D02*
G01*
X55626367Y-95414899D01*
X55661103Y-95433466D01*
X55691548Y-95458452D01*
X55716534Y-95488897D01*
X55735101Y-95523633D01*
X55746535Y-95561326D01*
X55751000Y-95606661D01*
X55751000Y-96443339D01*
X55746535Y-96488674D01*
X55735101Y-96526367D01*
X55716534Y-96561103D01*
X55691548Y-96591548D01*
X55661103Y-96616534D01*
X55626367Y-96635101D01*
X55588674Y-96646535D01*
X55543339Y-96651000D01*
X54456661Y-96651000D01*
X54411326Y-96646535D01*
X54373633Y-96635101D01*
X54338897Y-96616534D01*
X54308452Y-96591548D01*
X54283466Y-96561103D01*
X54264899Y-96526367D01*
X54253465Y-96488674D01*
X54249000Y-96443339D01*
X54249000Y-95606661D01*
X54253465Y-95561326D01*
X54264899Y-95523633D01*
X54283466Y-95488897D01*
X54308452Y-95458452D01*
X54338897Y-95433466D01*
X54373633Y-95414899D01*
X54411326Y-95403465D01*
X54456661Y-95399000D01*
X55543339Y-95399000D01*
X55588674Y-95403465D01*
G37*
G36*
X61588674Y-95403465D02*
G01*
X61626367Y-95414899D01*
X61661103Y-95433466D01*
X61691548Y-95458452D01*
X61716534Y-95488897D01*
X61735101Y-95523633D01*
X61746535Y-95561326D01*
X61751000Y-95606661D01*
X61751000Y-96443339D01*
X61746535Y-96488674D01*
X61735101Y-96526367D01*
X61716534Y-96561103D01*
X61691548Y-96591548D01*
X61661103Y-96616534D01*
X61626367Y-96635101D01*
X61588674Y-96646535D01*
X61543339Y-96651000D01*
X60456661Y-96651000D01*
X60411326Y-96646535D01*
X60373633Y-96635101D01*
X60338897Y-96616534D01*
X60308452Y-96591548D01*
X60283466Y-96561103D01*
X60264899Y-96526367D01*
X60253465Y-96488674D01*
X60249000Y-96443339D01*
X60249000Y-95606661D01*
X60253465Y-95561326D01*
X60264899Y-95523633D01*
X60283466Y-95488897D01*
X60308452Y-95458452D01*
X60338897Y-95433466D01*
X60373633Y-95414899D01*
X60411326Y-95403465D01*
X60456661Y-95399000D01*
X61543339Y-95399000D01*
X61588674Y-95403465D01*
G37*
G36*
X57588674Y-95403465D02*
G01*
X57626367Y-95414899D01*
X57661103Y-95433466D01*
X57691548Y-95458452D01*
X57716534Y-95488897D01*
X57735101Y-95523633D01*
X57746535Y-95561326D01*
X57751000Y-95606661D01*
X57751000Y-96443339D01*
X57746535Y-96488674D01*
X57735101Y-96526367D01*
X57716534Y-96561103D01*
X57691548Y-96591548D01*
X57661103Y-96616534D01*
X57626367Y-96635101D01*
X57588674Y-96646535D01*
X57543339Y-96651000D01*
X56456661Y-96651000D01*
X56411326Y-96646535D01*
X56373633Y-96635101D01*
X56338897Y-96616534D01*
X56308452Y-96591548D01*
X56283466Y-96561103D01*
X56264899Y-96526367D01*
X56253465Y-96488674D01*
X56249000Y-96443339D01*
X56249000Y-95606661D01*
X56253465Y-95561326D01*
X56264899Y-95523633D01*
X56283466Y-95488897D01*
X56308452Y-95458452D01*
X56338897Y-95433466D01*
X56373633Y-95414899D01*
X56411326Y-95403465D01*
X56456661Y-95399000D01*
X57543339Y-95399000D01*
X57588674Y-95403465D01*
G37*
G36*
X79129591Y-95478085D02*
G01*
X79163569Y-95488393D01*
X79194890Y-95505134D01*
X79222339Y-95527661D01*
X79244866Y-95555110D01*
X79261607Y-95586431D01*
X79271915Y-95620409D01*
X79276000Y-95661890D01*
X79276000Y-96338110D01*
X79271915Y-96379591D01*
X79261607Y-96413569D01*
X79244866Y-96444890D01*
X79222339Y-96472339D01*
X79194890Y-96494866D01*
X79163569Y-96511607D01*
X79129591Y-96521915D01*
X79088110Y-96526000D01*
X78486890Y-96526000D01*
X78445409Y-96521915D01*
X78411431Y-96511607D01*
X78380110Y-96494866D01*
X78352661Y-96472339D01*
X78330134Y-96444890D01*
X78313393Y-96413569D01*
X78303085Y-96379591D01*
X78299000Y-96338110D01*
X78299000Y-95661890D01*
X78303085Y-95620409D01*
X78313393Y-95586431D01*
X78330134Y-95555110D01*
X78352661Y-95527661D01*
X78380110Y-95505134D01*
X78411431Y-95488393D01*
X78445409Y-95478085D01*
X78486890Y-95474000D01*
X79088110Y-95474000D01*
X79129591Y-95478085D01*
G37*
G36*
X77554591Y-95478085D02*
G01*
X77588569Y-95488393D01*
X77619890Y-95505134D01*
X77647339Y-95527661D01*
X77669866Y-95555110D01*
X77686607Y-95586431D01*
X77696915Y-95620409D01*
X77701000Y-95661890D01*
X77701000Y-96338110D01*
X77696915Y-96379591D01*
X77686607Y-96413569D01*
X77669866Y-96444890D01*
X77647339Y-96472339D01*
X77619890Y-96494866D01*
X77588569Y-96511607D01*
X77554591Y-96521915D01*
X77513110Y-96526000D01*
X76911890Y-96526000D01*
X76870409Y-96521915D01*
X76836431Y-96511607D01*
X76805110Y-96494866D01*
X76777661Y-96472339D01*
X76755134Y-96444890D01*
X76738393Y-96413569D01*
X76728085Y-96379591D01*
X76724000Y-96338110D01*
X76724000Y-95661890D01*
X76728085Y-95620409D01*
X76738393Y-95586431D01*
X76755134Y-95555110D01*
X76777661Y-95527661D01*
X76805110Y-95505134D01*
X76836431Y-95488393D01*
X76870409Y-95478085D01*
X76911890Y-95474000D01*
X77513110Y-95474000D01*
X77554591Y-95478085D01*
G37*
G36*
X55588674Y-93353465D02*
G01*
X55626367Y-93364899D01*
X55661103Y-93383466D01*
X55691548Y-93408452D01*
X55716534Y-93438897D01*
X55735101Y-93473633D01*
X55746535Y-93511326D01*
X55751000Y-93556661D01*
X55751000Y-94393339D01*
X55746535Y-94438674D01*
X55735101Y-94476367D01*
X55716534Y-94511103D01*
X55691548Y-94541548D01*
X55661103Y-94566534D01*
X55626367Y-94585101D01*
X55588674Y-94596535D01*
X55543339Y-94601000D01*
X54456661Y-94601000D01*
X54411326Y-94596535D01*
X54373633Y-94585101D01*
X54338897Y-94566534D01*
X54308452Y-94541548D01*
X54283466Y-94511103D01*
X54264899Y-94476367D01*
X54253465Y-94438674D01*
X54249000Y-94393339D01*
X54249000Y-93556661D01*
X54253465Y-93511326D01*
X54264899Y-93473633D01*
X54283466Y-93438897D01*
X54308452Y-93408452D01*
X54338897Y-93383466D01*
X54373633Y-93364899D01*
X54411326Y-93353465D01*
X54456661Y-93349000D01*
X55543339Y-93349000D01*
X55588674Y-93353465D01*
G37*
G36*
X59588674Y-93353465D02*
G01*
X59626367Y-93364899D01*
X59661103Y-93383466D01*
X59691548Y-93408452D01*
X59716534Y-93438897D01*
X59735101Y-93473633D01*
X59746535Y-93511326D01*
X59751000Y-93556661D01*
X59751000Y-94393339D01*
X59746535Y-94438674D01*
X59735101Y-94476367D01*
X59716534Y-94511103D01*
X59691548Y-94541548D01*
X59661103Y-94566534D01*
X59626367Y-94585101D01*
X59588674Y-94596535D01*
X59543339Y-94601000D01*
X58456661Y-94601000D01*
X58411326Y-94596535D01*
X58373633Y-94585101D01*
X58338897Y-94566534D01*
X58308452Y-94541548D01*
X58283466Y-94511103D01*
X58264899Y-94476367D01*
X58253465Y-94438674D01*
X58249000Y-94393339D01*
X58249000Y-93556661D01*
X58253465Y-93511326D01*
X58264899Y-93473633D01*
X58283466Y-93438897D01*
X58308452Y-93408452D01*
X58338897Y-93383466D01*
X58373633Y-93364899D01*
X58411326Y-93353465D01*
X58456661Y-93349000D01*
X59543339Y-93349000D01*
X59588674Y-93353465D01*
G37*
G36*
X61588674Y-93353465D02*
G01*
X61626367Y-93364899D01*
X61661103Y-93383466D01*
X61691548Y-93408452D01*
X61716534Y-93438897D01*
X61735101Y-93473633D01*
X61746535Y-93511326D01*
X61751000Y-93556661D01*
X61751000Y-94393339D01*
X61746535Y-94438674D01*
X61735101Y-94476367D01*
X61716534Y-94511103D01*
X61691548Y-94541548D01*
X61661103Y-94566534D01*
X61626367Y-94585101D01*
X61588674Y-94596535D01*
X61543339Y-94601000D01*
X60456661Y-94601000D01*
X60411326Y-94596535D01*
X60373633Y-94585101D01*
X60338897Y-94566534D01*
X60308452Y-94541548D01*
X60283466Y-94511103D01*
X60264899Y-94476367D01*
X60253465Y-94438674D01*
X60249000Y-94393339D01*
X60249000Y-93556661D01*
X60253465Y-93511326D01*
X60264899Y-93473633D01*
X60283466Y-93438897D01*
X60308452Y-93408452D01*
X60338897Y-93383466D01*
X60373633Y-93364899D01*
X60411326Y-93353465D01*
X60456661Y-93349000D01*
X61543339Y-93349000D01*
X61588674Y-93353465D01*
G37*
G36*
X57588674Y-93353465D02*
G01*
X57626367Y-93364899D01*
X57661103Y-93383466D01*
X57691548Y-93408452D01*
X57716534Y-93438897D01*
X57735101Y-93473633D01*
X57746535Y-93511326D01*
X57751000Y-93556661D01*
X57751000Y-94393339D01*
X57746535Y-94438674D01*
X57735101Y-94476367D01*
X57716534Y-94511103D01*
X57691548Y-94541548D01*
X57661103Y-94566534D01*
X57626367Y-94585101D01*
X57588674Y-94596535D01*
X57543339Y-94601000D01*
X56456661Y-94601000D01*
X56411326Y-94596535D01*
X56373633Y-94585101D01*
X56338897Y-94566534D01*
X56308452Y-94541548D01*
X56283466Y-94511103D01*
X56264899Y-94476367D01*
X56253465Y-94438674D01*
X56249000Y-94393339D01*
X56249000Y-93556661D01*
X56253465Y-93511326D01*
X56264899Y-93473633D01*
X56283466Y-93438897D01*
X56308452Y-93408452D01*
X56338897Y-93383466D01*
X56373633Y-93364899D01*
X56411326Y-93353465D01*
X56456661Y-93349000D01*
X57543339Y-93349000D01*
X57588674Y-93353465D01*
G37*
G36*
X63588674Y-93353465D02*
G01*
X63626367Y-93364899D01*
X63661103Y-93383466D01*
X63691548Y-93408452D01*
X63716534Y-93438897D01*
X63735101Y-93473633D01*
X63746535Y-93511326D01*
X63751000Y-93556661D01*
X63751000Y-94393339D01*
X63746535Y-94438674D01*
X63735101Y-94476367D01*
X63716534Y-94511103D01*
X63691548Y-94541548D01*
X63661103Y-94566534D01*
X63626367Y-94585101D01*
X63588674Y-94596535D01*
X63543339Y-94601000D01*
X62456661Y-94601000D01*
X62411326Y-94596535D01*
X62373633Y-94585101D01*
X62338897Y-94566534D01*
X62308452Y-94541548D01*
X62283466Y-94511103D01*
X62264899Y-94476367D01*
X62253465Y-94438674D01*
X62249000Y-94393339D01*
X62249000Y-93556661D01*
X62253465Y-93511326D01*
X62264899Y-93473633D01*
X62283466Y-93438897D01*
X62308452Y-93408452D01*
X62338897Y-93383466D01*
X62373633Y-93364899D01*
X62411326Y-93353465D01*
X62456661Y-93349000D01*
X63543339Y-93349000D01*
X63588674Y-93353465D01*
G37*
G36*
X53588674Y-93353465D02*
G01*
X53626367Y-93364899D01*
X53661103Y-93383466D01*
X53691548Y-93408452D01*
X53716534Y-93438897D01*
X53735101Y-93473633D01*
X53746535Y-93511326D01*
X53751000Y-93556661D01*
X53751000Y-94393339D01*
X53746535Y-94438674D01*
X53735101Y-94476367D01*
X53716534Y-94511103D01*
X53691548Y-94541548D01*
X53661103Y-94566534D01*
X53626367Y-94585101D01*
X53588674Y-94596535D01*
X53543339Y-94601000D01*
X52456661Y-94601000D01*
X52411326Y-94596535D01*
X52373633Y-94585101D01*
X52338897Y-94566534D01*
X52308452Y-94541548D01*
X52283466Y-94511103D01*
X52264899Y-94476367D01*
X52253465Y-94438674D01*
X52249000Y-94393339D01*
X52249000Y-93556661D01*
X52253465Y-93511326D01*
X52264899Y-93473633D01*
X52283466Y-93438897D01*
X52308452Y-93408452D01*
X52338897Y-93383466D01*
X52373633Y-93364899D01*
X52411326Y-93353465D01*
X52456661Y-93349000D01*
X53543339Y-93349000D01*
X53588674Y-93353465D01*
G37*
G36*
X79409928Y-93096764D02*
G01*
X79431009Y-93103160D01*
X79450445Y-93113548D01*
X79467476Y-93127524D01*
X79481452Y-93144555D01*
X79491840Y-93163991D01*
X79498236Y-93185072D01*
X79501000Y-93213140D01*
X79501000Y-93676860D01*
X79498236Y-93704928D01*
X79491840Y-93726009D01*
X79481452Y-93745445D01*
X79467476Y-93762476D01*
X79450445Y-93776452D01*
X79431009Y-93786840D01*
X79409928Y-93793236D01*
X79381860Y-93796000D01*
X77568140Y-93796000D01*
X77540072Y-93793236D01*
X77518991Y-93786840D01*
X77499555Y-93776452D01*
X77482524Y-93762476D01*
X77468548Y-93745445D01*
X77458160Y-93726009D01*
X77451764Y-93704928D01*
X77449000Y-93676860D01*
X77449000Y-93213140D01*
X77451764Y-93185072D01*
X77458160Y-93163991D01*
X77468548Y-93144555D01*
X77482524Y-93127524D01*
X77499555Y-93113548D01*
X77518991Y-93103160D01*
X77540072Y-93096764D01*
X77568140Y-93094000D01*
X79381860Y-93094000D01*
X79409928Y-93096764D01*
G37*
G36*
X74459928Y-93096764D02*
G01*
X74481009Y-93103160D01*
X74500445Y-93113548D01*
X74517476Y-93127524D01*
X74531452Y-93144555D01*
X74541840Y-93163991D01*
X74548236Y-93185072D01*
X74551000Y-93213140D01*
X74551000Y-93676860D01*
X74548236Y-93704928D01*
X74541840Y-93726009D01*
X74531452Y-93745445D01*
X74517476Y-93762476D01*
X74500445Y-93776452D01*
X74481009Y-93786840D01*
X74459928Y-93793236D01*
X74431860Y-93796000D01*
X72618140Y-93796000D01*
X72590072Y-93793236D01*
X72568991Y-93786840D01*
X72549555Y-93776452D01*
X72532524Y-93762476D01*
X72518548Y-93745445D01*
X72508160Y-93726009D01*
X72501764Y-93704928D01*
X72499000Y-93676860D01*
X72499000Y-93213140D01*
X72501764Y-93185072D01*
X72508160Y-93163991D01*
X72518548Y-93144555D01*
X72532524Y-93127524D01*
X72549555Y-93113548D01*
X72568991Y-93103160D01*
X72590072Y-93096764D01*
X72618140Y-93094000D01*
X74431860Y-93094000D01*
X74459928Y-93096764D01*
G37*
G36*
X79409928Y-91826764D02*
G01*
X79431009Y-91833160D01*
X79450445Y-91843548D01*
X79467476Y-91857524D01*
X79481452Y-91874555D01*
X79491840Y-91893991D01*
X79498236Y-91915072D01*
X79501000Y-91943140D01*
X79501000Y-92406860D01*
X79498236Y-92434928D01*
X79491840Y-92456009D01*
X79481452Y-92475445D01*
X79467476Y-92492476D01*
X79450445Y-92506452D01*
X79431009Y-92516840D01*
X79409928Y-92523236D01*
X79381860Y-92526000D01*
X77568140Y-92526000D01*
X77540072Y-92523236D01*
X77518991Y-92516840D01*
X77499555Y-92506452D01*
X77482524Y-92492476D01*
X77468548Y-92475445D01*
X77458160Y-92456009D01*
X77451764Y-92434928D01*
X77449000Y-92406860D01*
X77449000Y-91943140D01*
X77451764Y-91915072D01*
X77458160Y-91893991D01*
X77468548Y-91874555D01*
X77482524Y-91857524D01*
X77499555Y-91843548D01*
X77518991Y-91833160D01*
X77540072Y-91826764D01*
X77568140Y-91824000D01*
X79381860Y-91824000D01*
X79409928Y-91826764D01*
G37*
G36*
X74459928Y-91826764D02*
G01*
X74481009Y-91833160D01*
X74500445Y-91843548D01*
X74517476Y-91857524D01*
X74531452Y-91874555D01*
X74541840Y-91893991D01*
X74548236Y-91915072D01*
X74551000Y-91943140D01*
X74551000Y-92406860D01*
X74548236Y-92434928D01*
X74541840Y-92456009D01*
X74531452Y-92475445D01*
X74517476Y-92492476D01*
X74500445Y-92506452D01*
X74481009Y-92516840D01*
X74459928Y-92523236D01*
X74431860Y-92526000D01*
X72618140Y-92526000D01*
X72590072Y-92523236D01*
X72568991Y-92516840D01*
X72549555Y-92506452D01*
X72532524Y-92492476D01*
X72518548Y-92475445D01*
X72508160Y-92456009D01*
X72501764Y-92434928D01*
X72499000Y-92406860D01*
X72499000Y-91943140D01*
X72501764Y-91915072D01*
X72508160Y-91893991D01*
X72518548Y-91874555D01*
X72532524Y-91857524D01*
X72549555Y-91843548D01*
X72568991Y-91833160D01*
X72590072Y-91826764D01*
X72618140Y-91824000D01*
X74431860Y-91824000D01*
X74459928Y-91826764D01*
G37*
G36*
X79409928Y-90556764D02*
G01*
X79431009Y-90563160D01*
X79450445Y-90573548D01*
X79467476Y-90587524D01*
X79481452Y-90604555D01*
X79491840Y-90623991D01*
X79498236Y-90645072D01*
X79501000Y-90673140D01*
X79501000Y-91136860D01*
X79498236Y-91164928D01*
X79491840Y-91186009D01*
X79481452Y-91205445D01*
X79467476Y-91222476D01*
X79450445Y-91236452D01*
X79431009Y-91246840D01*
X79409928Y-91253236D01*
X79381860Y-91256000D01*
X77568140Y-91256000D01*
X77540072Y-91253236D01*
X77518991Y-91246840D01*
X77499555Y-91236452D01*
X77482524Y-91222476D01*
X77468548Y-91205445D01*
X77458160Y-91186009D01*
X77451764Y-91164928D01*
X77449000Y-91136860D01*
X77449000Y-90673140D01*
X77451764Y-90645072D01*
X77458160Y-90623991D01*
X77468548Y-90604555D01*
X77482524Y-90587524D01*
X77499555Y-90573548D01*
X77518991Y-90563160D01*
X77540072Y-90556764D01*
X77568140Y-90554000D01*
X79381860Y-90554000D01*
X79409928Y-90556764D01*
G37*
G36*
X74459928Y-90556764D02*
G01*
X74481009Y-90563160D01*
X74500445Y-90573548D01*
X74517476Y-90587524D01*
X74531452Y-90604555D01*
X74541840Y-90623991D01*
X74548236Y-90645072D01*
X74551000Y-90673140D01*
X74551000Y-91136860D01*
X74548236Y-91164928D01*
X74541840Y-91186009D01*
X74531452Y-91205445D01*
X74517476Y-91222476D01*
X74500445Y-91236452D01*
X74481009Y-91246840D01*
X74459928Y-91253236D01*
X74431860Y-91256000D01*
X72618140Y-91256000D01*
X72590072Y-91253236D01*
X72568991Y-91246840D01*
X72549555Y-91236452D01*
X72532524Y-91222476D01*
X72518548Y-91205445D01*
X72508160Y-91186009D01*
X72501764Y-91164928D01*
X72499000Y-91136860D01*
X72499000Y-90673140D01*
X72501764Y-90645072D01*
X72508160Y-90623991D01*
X72518548Y-90604555D01*
X72532524Y-90587524D01*
X72549555Y-90573548D01*
X72568991Y-90563160D01*
X72590072Y-90556764D01*
X72618140Y-90554000D01*
X74431860Y-90554000D01*
X74459928Y-90556764D01*
G37*
G36*
X62806564Y-88989389D02*
G01*
X62997833Y-89068615D01*
X62997835Y-89068616D01*
X63169973Y-89183635D01*
X63316365Y-89330027D01*
X63365218Y-89403140D01*
X63431385Y-89502167D01*
X63510611Y-89693436D01*
X63551000Y-89896484D01*
X63551000Y-90103516D01*
X63510611Y-90306564D01*
X63431385Y-90497833D01*
X63431384Y-90497835D01*
X63316365Y-90669973D01*
X63169973Y-90816365D01*
X62997835Y-90931384D01*
X62997834Y-90931385D01*
X62997833Y-90931385D01*
X62806564Y-91010611D01*
X62603516Y-91051000D01*
X62396484Y-91051000D01*
X62193436Y-91010611D01*
X62002167Y-90931385D01*
X62002166Y-90931385D01*
X62002165Y-90931384D01*
X61830027Y-90816365D01*
X61683635Y-90669973D01*
X61568616Y-90497835D01*
X61568615Y-90497833D01*
X61489389Y-90306564D01*
X61449000Y-90103516D01*
X61449000Y-89896484D01*
X61489389Y-89693436D01*
X61568615Y-89502167D01*
X61634783Y-89403140D01*
X61683635Y-89330027D01*
X61830027Y-89183635D01*
X62002165Y-89068616D01*
X62002167Y-89068615D01*
X62193436Y-88989389D01*
X62396484Y-88949000D01*
X62603516Y-88949000D01*
X62806564Y-88989389D01*
G37*
G36*
X60306564Y-88989389D02*
G01*
X60497833Y-89068615D01*
X60497835Y-89068616D01*
X60669973Y-89183635D01*
X60816365Y-89330027D01*
X60865218Y-89403140D01*
X60931385Y-89502167D01*
X61010611Y-89693436D01*
X61051000Y-89896484D01*
X61051000Y-90103516D01*
X61010611Y-90306564D01*
X60931385Y-90497833D01*
X60931384Y-90497835D01*
X60816365Y-90669973D01*
X60669973Y-90816365D01*
X60497835Y-90931384D01*
X60497834Y-90931385D01*
X60497833Y-90931385D01*
X60306564Y-91010611D01*
X60103516Y-91051000D01*
X59896484Y-91051000D01*
X59693436Y-91010611D01*
X59502167Y-90931385D01*
X59502166Y-90931385D01*
X59502165Y-90931384D01*
X59330027Y-90816365D01*
X59183635Y-90669973D01*
X59068616Y-90497835D01*
X59068615Y-90497833D01*
X58989389Y-90306564D01*
X58949000Y-90103516D01*
X58949000Y-89896484D01*
X58989389Y-89693436D01*
X59068615Y-89502167D01*
X59134783Y-89403140D01*
X59183635Y-89330027D01*
X59330027Y-89183635D01*
X59502165Y-89068616D01*
X59502167Y-89068615D01*
X59693436Y-88989389D01*
X59896484Y-88949000D01*
X60103516Y-88949000D01*
X60306564Y-88989389D01*
G37*
G36*
X58551000Y-91051000D02*
G01*
X56449000Y-91051000D01*
X56449000Y-88949000D01*
X58551000Y-88949000D01*
X58551000Y-91051000D01*
G37*
G36*
X74459928Y-89286764D02*
G01*
X74481009Y-89293160D01*
X74500445Y-89303548D01*
X74517476Y-89317524D01*
X74531452Y-89334555D01*
X74541840Y-89353991D01*
X74548236Y-89375072D01*
X74551000Y-89403140D01*
X74551000Y-89866860D01*
X74548236Y-89894928D01*
X74541840Y-89916009D01*
X74531452Y-89935445D01*
X74517476Y-89952476D01*
X74500445Y-89966452D01*
X74481009Y-89976840D01*
X74459928Y-89983236D01*
X74431860Y-89986000D01*
X72618140Y-89986000D01*
X72590072Y-89983236D01*
X72568991Y-89976840D01*
X72549555Y-89966452D01*
X72532524Y-89952476D01*
X72518548Y-89935445D01*
X72508160Y-89916009D01*
X72501764Y-89894928D01*
X72499000Y-89866860D01*
X72499000Y-89403140D01*
X72501764Y-89375072D01*
X72508160Y-89353991D01*
X72518548Y-89334555D01*
X72532524Y-89317524D01*
X72549555Y-89303548D01*
X72568991Y-89293160D01*
X72590072Y-89286764D01*
X72618140Y-89284000D01*
X74431860Y-89284000D01*
X74459928Y-89286764D01*
G37*
G36*
X79409928Y-89286764D02*
G01*
X79431009Y-89293160D01*
X79450445Y-89303548D01*
X79467476Y-89317524D01*
X79481452Y-89334555D01*
X79491840Y-89353991D01*
X79498236Y-89375072D01*
X79501000Y-89403140D01*
X79501000Y-89866860D01*
X79498236Y-89894928D01*
X79491840Y-89916009D01*
X79481452Y-89935445D01*
X79467476Y-89952476D01*
X79450445Y-89966452D01*
X79431009Y-89976840D01*
X79409928Y-89983236D01*
X79381860Y-89986000D01*
X77568140Y-89986000D01*
X77540072Y-89983236D01*
X77518991Y-89976840D01*
X77499555Y-89966452D01*
X77482524Y-89952476D01*
X77468548Y-89935445D01*
X77458160Y-89916009D01*
X77451764Y-89894928D01*
X77449000Y-89866860D01*
X77449000Y-89403140D01*
X77451764Y-89375072D01*
X77458160Y-89353991D01*
X77468548Y-89334555D01*
X77482524Y-89317524D01*
X77499555Y-89303548D01*
X77518991Y-89293160D01*
X77540072Y-89286764D01*
X77568140Y-89284000D01*
X79381860Y-89284000D01*
X79409928Y-89286764D01*
G37*
G36*
X79409928Y-88016764D02*
G01*
X79431009Y-88023160D01*
X79450445Y-88033548D01*
X79467476Y-88047524D01*
X79481452Y-88064555D01*
X79491840Y-88083991D01*
X79498236Y-88105072D01*
X79501000Y-88133140D01*
X79501000Y-88596860D01*
X79498236Y-88624928D01*
X79491840Y-88646009D01*
X79481452Y-88665445D01*
X79467476Y-88682476D01*
X79450445Y-88696452D01*
X79431009Y-88706840D01*
X79409928Y-88713236D01*
X79381860Y-88716000D01*
X77568140Y-88716000D01*
X77540072Y-88713236D01*
X77518991Y-88706840D01*
X77499555Y-88696452D01*
X77482524Y-88682476D01*
X77468548Y-88665445D01*
X77458160Y-88646009D01*
X77451764Y-88624928D01*
X77449000Y-88596860D01*
X77449000Y-88133140D01*
X77451764Y-88105072D01*
X77458160Y-88083991D01*
X77468548Y-88064555D01*
X77482524Y-88047524D01*
X77499555Y-88033548D01*
X77518991Y-88023160D01*
X77540072Y-88016764D01*
X77568140Y-88014000D01*
X79381860Y-88014000D01*
X79409928Y-88016764D01*
G37*
G36*
X74459928Y-88016764D02*
G01*
X74481009Y-88023160D01*
X74500445Y-88033548D01*
X74517476Y-88047524D01*
X74531452Y-88064555D01*
X74541840Y-88083991D01*
X74548236Y-88105072D01*
X74551000Y-88133140D01*
X74551000Y-88596860D01*
X74548236Y-88624928D01*
X74541840Y-88646009D01*
X74531452Y-88665445D01*
X74517476Y-88682476D01*
X74500445Y-88696452D01*
X74481009Y-88706840D01*
X74459928Y-88713236D01*
X74431860Y-88716000D01*
X72618140Y-88716000D01*
X72590072Y-88713236D01*
X72568991Y-88706840D01*
X72549555Y-88696452D01*
X72532524Y-88682476D01*
X72518548Y-88665445D01*
X72508160Y-88646009D01*
X72501764Y-88624928D01*
X72499000Y-88596860D01*
X72499000Y-88133140D01*
X72501764Y-88105072D01*
X72508160Y-88083991D01*
X72518548Y-88064555D01*
X72532524Y-88047524D01*
X72549555Y-88033548D01*
X72568991Y-88023160D01*
X72590072Y-88016764D01*
X72618140Y-88014000D01*
X74431860Y-88014000D01*
X74459928Y-88016764D01*
G37*
G36*
X79409928Y-86746764D02*
G01*
X79431009Y-86753160D01*
X79450445Y-86763548D01*
X79467476Y-86777524D01*
X79481452Y-86794555D01*
X79491840Y-86813991D01*
X79498236Y-86835072D01*
X79501000Y-86863140D01*
X79501000Y-87326860D01*
X79498236Y-87354928D01*
X79491840Y-87376009D01*
X79481452Y-87395445D01*
X79467476Y-87412476D01*
X79450445Y-87426452D01*
X79431009Y-87436840D01*
X79409928Y-87443236D01*
X79381860Y-87446000D01*
X77568140Y-87446000D01*
X77540072Y-87443236D01*
X77518991Y-87436840D01*
X77499555Y-87426452D01*
X77482524Y-87412476D01*
X77468548Y-87395445D01*
X77458160Y-87376009D01*
X77451764Y-87354928D01*
X77449000Y-87326860D01*
X77449000Y-86863140D01*
X77451764Y-86835072D01*
X77458160Y-86813991D01*
X77468548Y-86794555D01*
X77482524Y-86777524D01*
X77499555Y-86763548D01*
X77518991Y-86753160D01*
X77540072Y-86746764D01*
X77568140Y-86744000D01*
X79381860Y-86744000D01*
X79409928Y-86746764D01*
G37*
G36*
X74459928Y-86746764D02*
G01*
X74481009Y-86753160D01*
X74500445Y-86763548D01*
X74517476Y-86777524D01*
X74531452Y-86794555D01*
X74541840Y-86813991D01*
X74548236Y-86835072D01*
X74551000Y-86863140D01*
X74551000Y-87326860D01*
X74548236Y-87354928D01*
X74541840Y-87376009D01*
X74531452Y-87395445D01*
X74517476Y-87412476D01*
X74500445Y-87426452D01*
X74481009Y-87436840D01*
X74459928Y-87443236D01*
X74431860Y-87446000D01*
X72618140Y-87446000D01*
X72590072Y-87443236D01*
X72568991Y-87436840D01*
X72549555Y-87426452D01*
X72532524Y-87412476D01*
X72518548Y-87395445D01*
X72508160Y-87376009D01*
X72501764Y-87354928D01*
X72499000Y-87326860D01*
X72499000Y-86863140D01*
X72501764Y-86835072D01*
X72508160Y-86813991D01*
X72518548Y-86794555D01*
X72532524Y-86777524D01*
X72549555Y-86763548D01*
X72568991Y-86753160D01*
X72590072Y-86746764D01*
X72618140Y-86744000D01*
X74431860Y-86744000D01*
X74459928Y-86746764D01*
G37*
G36*
X74459928Y-85476764D02*
G01*
X74481009Y-85483160D01*
X74500445Y-85493548D01*
X74517476Y-85507524D01*
X74531452Y-85524555D01*
X74541840Y-85543991D01*
X74548236Y-85565072D01*
X74551000Y-85593140D01*
X74551000Y-86056860D01*
X74548236Y-86084928D01*
X74541840Y-86106009D01*
X74531452Y-86125445D01*
X74517476Y-86142476D01*
X74500445Y-86156452D01*
X74481009Y-86166840D01*
X74459928Y-86173236D01*
X74431860Y-86176000D01*
X72618140Y-86176000D01*
X72590072Y-86173236D01*
X72568991Y-86166840D01*
X72549555Y-86156452D01*
X72532524Y-86142476D01*
X72518548Y-86125445D01*
X72508160Y-86106009D01*
X72501764Y-86084928D01*
X72499000Y-86056860D01*
X72499000Y-85593140D01*
X72501764Y-85565072D01*
X72508160Y-85543991D01*
X72518548Y-85524555D01*
X72532524Y-85507524D01*
X72549555Y-85493548D01*
X72568991Y-85483160D01*
X72590072Y-85476764D01*
X72618140Y-85474000D01*
X74431860Y-85474000D01*
X74459928Y-85476764D01*
G37*
G36*
X79409928Y-85476764D02*
G01*
X79431009Y-85483160D01*
X79450445Y-85493548D01*
X79467476Y-85507524D01*
X79481452Y-85524555D01*
X79491840Y-85543991D01*
X79498236Y-85565072D01*
X79501000Y-85593140D01*
X79501000Y-86056860D01*
X79498236Y-86084928D01*
X79491840Y-86106009D01*
X79481452Y-86125445D01*
X79467476Y-86142476D01*
X79450445Y-86156452D01*
X79431009Y-86166840D01*
X79409928Y-86173236D01*
X79381860Y-86176000D01*
X77568140Y-86176000D01*
X77540072Y-86173236D01*
X77518991Y-86166840D01*
X77499555Y-86156452D01*
X77482524Y-86142476D01*
X77468548Y-86125445D01*
X77458160Y-86106009D01*
X77451764Y-86084928D01*
X77449000Y-86056860D01*
X77449000Y-85593140D01*
X77451764Y-85565072D01*
X77458160Y-85543991D01*
X77468548Y-85524555D01*
X77482524Y-85507524D01*
X77499555Y-85493548D01*
X77518991Y-85483160D01*
X77540072Y-85476764D01*
X77568140Y-85474000D01*
X79381860Y-85474000D01*
X79409928Y-85476764D01*
G37*
G36*
X74459928Y-84206764D02*
G01*
X74481009Y-84213160D01*
X74500445Y-84223548D01*
X74517476Y-84237524D01*
X74531452Y-84254555D01*
X74541840Y-84273991D01*
X74548236Y-84295072D01*
X74551000Y-84323140D01*
X74551000Y-84786860D01*
X74548236Y-84814928D01*
X74541840Y-84836009D01*
X74531452Y-84855445D01*
X74517476Y-84872476D01*
X74500445Y-84886452D01*
X74481009Y-84896840D01*
X74459928Y-84903236D01*
X74431860Y-84906000D01*
X72618140Y-84906000D01*
X72590072Y-84903236D01*
X72568991Y-84896840D01*
X72549555Y-84886452D01*
X72532524Y-84872476D01*
X72518548Y-84855445D01*
X72508160Y-84836009D01*
X72501764Y-84814928D01*
X72499000Y-84786860D01*
X72499000Y-84323140D01*
X72501764Y-84295072D01*
X72508160Y-84273991D01*
X72518548Y-84254555D01*
X72532524Y-84237524D01*
X72549555Y-84223548D01*
X72568991Y-84213160D01*
X72590072Y-84206764D01*
X72618140Y-84204000D01*
X74431860Y-84204000D01*
X74459928Y-84206764D01*
G37*
G36*
X79409928Y-84206764D02*
G01*
X79431009Y-84213160D01*
X79450445Y-84223548D01*
X79467476Y-84237524D01*
X79481452Y-84254555D01*
X79491840Y-84273991D01*
X79498236Y-84295072D01*
X79501000Y-84323140D01*
X79501000Y-84786860D01*
X79498236Y-84814928D01*
X79491840Y-84836009D01*
X79481452Y-84855445D01*
X79467476Y-84872476D01*
X79450445Y-84886452D01*
X79431009Y-84896840D01*
X79409928Y-84903236D01*
X79381860Y-84906000D01*
X77568140Y-84906000D01*
X77540072Y-84903236D01*
X77518991Y-84896840D01*
X77499555Y-84886452D01*
X77482524Y-84872476D01*
X77468548Y-84855445D01*
X77458160Y-84836009D01*
X77451764Y-84814928D01*
X77449000Y-84786860D01*
X77449000Y-84323140D01*
X77451764Y-84295072D01*
X77458160Y-84273991D01*
X77468548Y-84254555D01*
X77482524Y-84237524D01*
X77499555Y-84223548D01*
X77518991Y-84213160D01*
X77540072Y-84206764D01*
X77568140Y-84204000D01*
X79381860Y-84204000D01*
X79409928Y-84206764D01*
G37*
G36*
X55701000Y-84051000D02*
G01*
X53099000Y-84051000D01*
X53099000Y-80949000D01*
X55701000Y-80949000D01*
X55701000Y-84051000D01*
G37*
G36*
X66901000Y-84051000D02*
G01*
X64299000Y-84051000D01*
X64299000Y-80949000D01*
X66901000Y-80949000D01*
X66901000Y-84051000D01*
G37*
G36*
X43588674Y-67403465D02*
G01*
X43626367Y-67414899D01*
X43661103Y-67433466D01*
X43691548Y-67458452D01*
X43716534Y-67488897D01*
X43735101Y-67523633D01*
X43746535Y-67561326D01*
X43751000Y-67606661D01*
X43751000Y-68443339D01*
X43746535Y-68488674D01*
X43735101Y-68526367D01*
X43716534Y-68561103D01*
X43691548Y-68591548D01*
X43661103Y-68616534D01*
X43626367Y-68635101D01*
X43588674Y-68646535D01*
X43543339Y-68651000D01*
X42456661Y-68651000D01*
X42411326Y-68646535D01*
X42373633Y-68635101D01*
X42338897Y-68616534D01*
X42308452Y-68591548D01*
X42283466Y-68561103D01*
X42264899Y-68526367D01*
X42253465Y-68488674D01*
X42249000Y-68443339D01*
X42249000Y-67606661D01*
X42253465Y-67561326D01*
X42264899Y-67523633D01*
X42283466Y-67488897D01*
X42308452Y-67458452D01*
X42338897Y-67433466D01*
X42373633Y-67414899D01*
X42411326Y-67403465D01*
X42456661Y-67399000D01*
X43543339Y-67399000D01*
X43588674Y-67403465D01*
G37*
G36*
X62588674Y-67403465D02*
G01*
X62626367Y-67414899D01*
X62661103Y-67433466D01*
X62691548Y-67458452D01*
X62716534Y-67488897D01*
X62735101Y-67523633D01*
X62746535Y-67561326D01*
X62751000Y-67606661D01*
X62751000Y-68443339D01*
X62746535Y-68488674D01*
X62735101Y-68526367D01*
X62716534Y-68561103D01*
X62691548Y-68591548D01*
X62661103Y-68616534D01*
X62626367Y-68635101D01*
X62588674Y-68646535D01*
X62543339Y-68651000D01*
X61456661Y-68651000D01*
X61411326Y-68646535D01*
X61373633Y-68635101D01*
X61338897Y-68616534D01*
X61308452Y-68591548D01*
X61283466Y-68561103D01*
X61264899Y-68526367D01*
X61253465Y-68488674D01*
X61249000Y-68443339D01*
X61249000Y-67606661D01*
X61253465Y-67561326D01*
X61264899Y-67523633D01*
X61283466Y-67488897D01*
X61308452Y-67458452D01*
X61338897Y-67433466D01*
X61373633Y-67414899D01*
X61411326Y-67403465D01*
X61456661Y-67399000D01*
X62543339Y-67399000D01*
X62588674Y-67403465D01*
G37*
G36*
X45588674Y-67403465D02*
G01*
X45626367Y-67414899D01*
X45661103Y-67433466D01*
X45691548Y-67458452D01*
X45716534Y-67488897D01*
X45735101Y-67523633D01*
X45746535Y-67561326D01*
X45751000Y-67606661D01*
X45751000Y-68443339D01*
X45746535Y-68488674D01*
X45735101Y-68526367D01*
X45716534Y-68561103D01*
X45691548Y-68591548D01*
X45661103Y-68616534D01*
X45626367Y-68635101D01*
X45588674Y-68646535D01*
X45543339Y-68651000D01*
X44456661Y-68651000D01*
X44411326Y-68646535D01*
X44373633Y-68635101D01*
X44338897Y-68616534D01*
X44308452Y-68591548D01*
X44283466Y-68561103D01*
X44264899Y-68526367D01*
X44253465Y-68488674D01*
X44249000Y-68443339D01*
X44249000Y-67606661D01*
X44253465Y-67561326D01*
X44264899Y-67523633D01*
X44283466Y-67488897D01*
X44308452Y-67458452D01*
X44338897Y-67433466D01*
X44373633Y-67414899D01*
X44411326Y-67403465D01*
X44456661Y-67399000D01*
X45543339Y-67399000D01*
X45588674Y-67403465D01*
G37*
G36*
X73588674Y-67403465D02*
G01*
X73626367Y-67414899D01*
X73661103Y-67433466D01*
X73691548Y-67458452D01*
X73716534Y-67488897D01*
X73735101Y-67523633D01*
X73746535Y-67561326D01*
X73751000Y-67606661D01*
X73751000Y-68443339D01*
X73746535Y-68488674D01*
X73735101Y-68526367D01*
X73716534Y-68561103D01*
X73691548Y-68591548D01*
X73661103Y-68616534D01*
X73626367Y-68635101D01*
X73588674Y-68646535D01*
X73543339Y-68651000D01*
X72456661Y-68651000D01*
X72411326Y-68646535D01*
X72373633Y-68635101D01*
X72338897Y-68616534D01*
X72308452Y-68591548D01*
X72283466Y-68561103D01*
X72264899Y-68526367D01*
X72253465Y-68488674D01*
X72249000Y-68443339D01*
X72249000Y-67606661D01*
X72253465Y-67561326D01*
X72264899Y-67523633D01*
X72283466Y-67488897D01*
X72308452Y-67458452D01*
X72338897Y-67433466D01*
X72373633Y-67414899D01*
X72411326Y-67403465D01*
X72456661Y-67399000D01*
X73543339Y-67399000D01*
X73588674Y-67403465D01*
G37*
G36*
X47588674Y-67403465D02*
G01*
X47626367Y-67414899D01*
X47661103Y-67433466D01*
X47691548Y-67458452D01*
X47716534Y-67488897D01*
X47735101Y-67523633D01*
X47746535Y-67561326D01*
X47751000Y-67606661D01*
X47751000Y-68443339D01*
X47746535Y-68488674D01*
X47735101Y-68526367D01*
X47716534Y-68561103D01*
X47691548Y-68591548D01*
X47661103Y-68616534D01*
X47626367Y-68635101D01*
X47588674Y-68646535D01*
X47543339Y-68651000D01*
X46456661Y-68651000D01*
X46411326Y-68646535D01*
X46373633Y-68635101D01*
X46338897Y-68616534D01*
X46308452Y-68591548D01*
X46283466Y-68561103D01*
X46264899Y-68526367D01*
X46253465Y-68488674D01*
X46249000Y-68443339D01*
X46249000Y-67606661D01*
X46253465Y-67561326D01*
X46264899Y-67523633D01*
X46283466Y-67488897D01*
X46308452Y-67458452D01*
X46338897Y-67433466D01*
X46373633Y-67414899D01*
X46411326Y-67403465D01*
X46456661Y-67399000D01*
X47543339Y-67399000D01*
X47588674Y-67403465D01*
G37*
G36*
X58588674Y-67403465D02*
G01*
X58626367Y-67414899D01*
X58661103Y-67433466D01*
X58691548Y-67458452D01*
X58716534Y-67488897D01*
X58735101Y-67523633D01*
X58746535Y-67561326D01*
X58751000Y-67606661D01*
X58751000Y-68443339D01*
X58746535Y-68488674D01*
X58735101Y-68526367D01*
X58716534Y-68561103D01*
X58691548Y-68591548D01*
X58661103Y-68616534D01*
X58626367Y-68635101D01*
X58588674Y-68646535D01*
X58543339Y-68651000D01*
X57456661Y-68651000D01*
X57411326Y-68646535D01*
X57373633Y-68635101D01*
X57338897Y-68616534D01*
X57308452Y-68591548D01*
X57283466Y-68561103D01*
X57264899Y-68526367D01*
X57253465Y-68488674D01*
X57249000Y-68443339D01*
X57249000Y-67606661D01*
X57253465Y-67561326D01*
X57264899Y-67523633D01*
X57283466Y-67488897D01*
X57308452Y-67458452D01*
X57338897Y-67433466D01*
X57373633Y-67414899D01*
X57411326Y-67403465D01*
X57456661Y-67399000D01*
X58543339Y-67399000D01*
X58588674Y-67403465D01*
G37*
G36*
X60588674Y-67403465D02*
G01*
X60626367Y-67414899D01*
X60661103Y-67433466D01*
X60691548Y-67458452D01*
X60716534Y-67488897D01*
X60735101Y-67523633D01*
X60746535Y-67561326D01*
X60751000Y-67606661D01*
X60751000Y-68443339D01*
X60746535Y-68488674D01*
X60735101Y-68526367D01*
X60716534Y-68561103D01*
X60691548Y-68591548D01*
X60661103Y-68616534D01*
X60626367Y-68635101D01*
X60588674Y-68646535D01*
X60543339Y-68651000D01*
X59456661Y-68651000D01*
X59411326Y-68646535D01*
X59373633Y-68635101D01*
X59338897Y-68616534D01*
X59308452Y-68591548D01*
X59283466Y-68561103D01*
X59264899Y-68526367D01*
X59253465Y-68488674D01*
X59249000Y-68443339D01*
X59249000Y-67606661D01*
X59253465Y-67561326D01*
X59264899Y-67523633D01*
X59283466Y-67488897D01*
X59308452Y-67458452D01*
X59338897Y-67433466D01*
X59373633Y-67414899D01*
X59411326Y-67403465D01*
X59456661Y-67399000D01*
X60543339Y-67399000D01*
X60588674Y-67403465D01*
G37*
G36*
X77588674Y-67403465D02*
G01*
X77626367Y-67414899D01*
X77661103Y-67433466D01*
X77691548Y-67458452D01*
X77716534Y-67488897D01*
X77735101Y-67523633D01*
X77746535Y-67561326D01*
X77751000Y-67606661D01*
X77751000Y-68443339D01*
X77746535Y-68488674D01*
X77735101Y-68526367D01*
X77716534Y-68561103D01*
X77691548Y-68591548D01*
X77661103Y-68616534D01*
X77626367Y-68635101D01*
X77588674Y-68646535D01*
X77543339Y-68651000D01*
X76456661Y-68651000D01*
X76411326Y-68646535D01*
X76373633Y-68635101D01*
X76338897Y-68616534D01*
X76308452Y-68591548D01*
X76283466Y-68561103D01*
X76264899Y-68526367D01*
X76253465Y-68488674D01*
X76249000Y-68443339D01*
X76249000Y-67606661D01*
X76253465Y-67561326D01*
X76264899Y-67523633D01*
X76283466Y-67488897D01*
X76308452Y-67458452D01*
X76338897Y-67433466D01*
X76373633Y-67414899D01*
X76411326Y-67403465D01*
X76456661Y-67399000D01*
X77543339Y-67399000D01*
X77588674Y-67403465D01*
G37*
G36*
X75588674Y-67403465D02*
G01*
X75626367Y-67414899D01*
X75661103Y-67433466D01*
X75691548Y-67458452D01*
X75716534Y-67488897D01*
X75735101Y-67523633D01*
X75746535Y-67561326D01*
X75751000Y-67606661D01*
X75751000Y-68443339D01*
X75746535Y-68488674D01*
X75735101Y-68526367D01*
X75716534Y-68561103D01*
X75691548Y-68591548D01*
X75661103Y-68616534D01*
X75626367Y-68635101D01*
X75588674Y-68646535D01*
X75543339Y-68651000D01*
X74456661Y-68651000D01*
X74411326Y-68646535D01*
X74373633Y-68635101D01*
X74338897Y-68616534D01*
X74308452Y-68591548D01*
X74283466Y-68561103D01*
X74264899Y-68526367D01*
X74253465Y-68488674D01*
X74249000Y-68443339D01*
X74249000Y-67606661D01*
X74253465Y-67561326D01*
X74264899Y-67523633D01*
X74283466Y-67488897D01*
X74308452Y-67458452D01*
X74338897Y-67433466D01*
X74373633Y-67414899D01*
X74411326Y-67403465D01*
X74456661Y-67399000D01*
X75543339Y-67399000D01*
X75588674Y-67403465D01*
G37*
G36*
X45588674Y-65353465D02*
G01*
X45626367Y-65364899D01*
X45661103Y-65383466D01*
X45691548Y-65408452D01*
X45716534Y-65438897D01*
X45735101Y-65473633D01*
X45746535Y-65511326D01*
X45751000Y-65556661D01*
X45751000Y-66393339D01*
X45746535Y-66438674D01*
X45735101Y-66476367D01*
X45716534Y-66511103D01*
X45691548Y-66541548D01*
X45661103Y-66566534D01*
X45626367Y-66585101D01*
X45588674Y-66596535D01*
X45543339Y-66601000D01*
X44456661Y-66601000D01*
X44411326Y-66596535D01*
X44373633Y-66585101D01*
X44338897Y-66566534D01*
X44308452Y-66541548D01*
X44283466Y-66511103D01*
X44264899Y-66476367D01*
X44253465Y-66438674D01*
X44249000Y-66393339D01*
X44249000Y-65556661D01*
X44253465Y-65511326D01*
X44264899Y-65473633D01*
X44283466Y-65438897D01*
X44308452Y-65408452D01*
X44338897Y-65383466D01*
X44373633Y-65364899D01*
X44411326Y-65353465D01*
X44456661Y-65349000D01*
X45543339Y-65349000D01*
X45588674Y-65353465D01*
G37*
G36*
X73588674Y-65353465D02*
G01*
X73626367Y-65364899D01*
X73661103Y-65383466D01*
X73691548Y-65408452D01*
X73716534Y-65438897D01*
X73735101Y-65473633D01*
X73746535Y-65511326D01*
X73751000Y-65556661D01*
X73751000Y-66393339D01*
X73746535Y-66438674D01*
X73735101Y-66476367D01*
X73716534Y-66511103D01*
X73691548Y-66541548D01*
X73661103Y-66566534D01*
X73626367Y-66585101D01*
X73588674Y-66596535D01*
X73543339Y-66601000D01*
X72456661Y-66601000D01*
X72411326Y-66596535D01*
X72373633Y-66585101D01*
X72338897Y-66566534D01*
X72308452Y-66541548D01*
X72283466Y-66511103D01*
X72264899Y-66476367D01*
X72253465Y-66438674D01*
X72249000Y-66393339D01*
X72249000Y-65556661D01*
X72253465Y-65511326D01*
X72264899Y-65473633D01*
X72283466Y-65438897D01*
X72308452Y-65408452D01*
X72338897Y-65383466D01*
X72373633Y-65364899D01*
X72411326Y-65353465D01*
X72456661Y-65349000D01*
X73543339Y-65349000D01*
X73588674Y-65353465D01*
G37*
G36*
X75588674Y-65353465D02*
G01*
X75626367Y-65364899D01*
X75661103Y-65383466D01*
X75691548Y-65408452D01*
X75716534Y-65438897D01*
X75735101Y-65473633D01*
X75746535Y-65511326D01*
X75751000Y-65556661D01*
X75751000Y-66393339D01*
X75746535Y-66438674D01*
X75735101Y-66476367D01*
X75716534Y-66511103D01*
X75691548Y-66541548D01*
X75661103Y-66566534D01*
X75626367Y-66585101D01*
X75588674Y-66596535D01*
X75543339Y-66601000D01*
X74456661Y-66601000D01*
X74411326Y-66596535D01*
X74373633Y-66585101D01*
X74338897Y-66566534D01*
X74308452Y-66541548D01*
X74283466Y-66511103D01*
X74264899Y-66476367D01*
X74253465Y-66438674D01*
X74249000Y-66393339D01*
X74249000Y-65556661D01*
X74253465Y-65511326D01*
X74264899Y-65473633D01*
X74283466Y-65438897D01*
X74308452Y-65408452D01*
X74338897Y-65383466D01*
X74373633Y-65364899D01*
X74411326Y-65353465D01*
X74456661Y-65349000D01*
X75543339Y-65349000D01*
X75588674Y-65353465D01*
G37*
G36*
X77588674Y-65353465D02*
G01*
X77626367Y-65364899D01*
X77661103Y-65383466D01*
X77691548Y-65408452D01*
X77716534Y-65438897D01*
X77735101Y-65473633D01*
X77746535Y-65511326D01*
X77751000Y-65556661D01*
X77751000Y-66393339D01*
X77746535Y-66438674D01*
X77735101Y-66476367D01*
X77716534Y-66511103D01*
X77691548Y-66541548D01*
X77661103Y-66566534D01*
X77626367Y-66585101D01*
X77588674Y-66596535D01*
X77543339Y-66601000D01*
X76456661Y-66601000D01*
X76411326Y-66596535D01*
X76373633Y-66585101D01*
X76338897Y-66566534D01*
X76308452Y-66541548D01*
X76283466Y-66511103D01*
X76264899Y-66476367D01*
X76253465Y-66438674D01*
X76249000Y-66393339D01*
X76249000Y-65556661D01*
X76253465Y-65511326D01*
X76264899Y-65473633D01*
X76283466Y-65438897D01*
X76308452Y-65408452D01*
X76338897Y-65383466D01*
X76373633Y-65364899D01*
X76411326Y-65353465D01*
X76456661Y-65349000D01*
X77543339Y-65349000D01*
X77588674Y-65353465D01*
G37*
G36*
X43588674Y-65353465D02*
G01*
X43626367Y-65364899D01*
X43661103Y-65383466D01*
X43691548Y-65408452D01*
X43716534Y-65438897D01*
X43735101Y-65473633D01*
X43746535Y-65511326D01*
X43751000Y-65556661D01*
X43751000Y-66393339D01*
X43746535Y-66438674D01*
X43735101Y-66476367D01*
X43716534Y-66511103D01*
X43691548Y-66541548D01*
X43661103Y-66566534D01*
X43626367Y-66585101D01*
X43588674Y-66596535D01*
X43543339Y-66601000D01*
X42456661Y-66601000D01*
X42411326Y-66596535D01*
X42373633Y-66585101D01*
X42338897Y-66566534D01*
X42308452Y-66541548D01*
X42283466Y-66511103D01*
X42264899Y-66476367D01*
X42253465Y-66438674D01*
X42249000Y-66393339D01*
X42249000Y-65556661D01*
X42253465Y-65511326D01*
X42264899Y-65473633D01*
X42283466Y-65438897D01*
X42308452Y-65408452D01*
X42338897Y-65383466D01*
X42373633Y-65364899D01*
X42411326Y-65353465D01*
X42456661Y-65349000D01*
X43543339Y-65349000D01*
X43588674Y-65353465D01*
G37*
G36*
X47588674Y-65353465D02*
G01*
X47626367Y-65364899D01*
X47661103Y-65383466D01*
X47691548Y-65408452D01*
X47716534Y-65438897D01*
X47735101Y-65473633D01*
X47746535Y-65511326D01*
X47751000Y-65556661D01*
X47751000Y-66393339D01*
X47746535Y-66438674D01*
X47735101Y-66476367D01*
X47716534Y-66511103D01*
X47691548Y-66541548D01*
X47661103Y-66566534D01*
X47626367Y-66585101D01*
X47588674Y-66596535D01*
X47543339Y-66601000D01*
X46456661Y-66601000D01*
X46411326Y-66596535D01*
X46373633Y-66585101D01*
X46338897Y-66566534D01*
X46308452Y-66541548D01*
X46283466Y-66511103D01*
X46264899Y-66476367D01*
X46253465Y-66438674D01*
X46249000Y-66393339D01*
X46249000Y-65556661D01*
X46253465Y-65511326D01*
X46264899Y-65473633D01*
X46283466Y-65438897D01*
X46308452Y-65408452D01*
X46338897Y-65383466D01*
X46373633Y-65364899D01*
X46411326Y-65353465D01*
X46456661Y-65349000D01*
X47543339Y-65349000D01*
X47588674Y-65353465D01*
G37*
G36*
X58588674Y-65353465D02*
G01*
X58626367Y-65364899D01*
X58661103Y-65383466D01*
X58691548Y-65408452D01*
X58716534Y-65438897D01*
X58735101Y-65473633D01*
X58746535Y-65511326D01*
X58751000Y-65556661D01*
X58751000Y-66393339D01*
X58746535Y-66438674D01*
X58735101Y-66476367D01*
X58716534Y-66511103D01*
X58691548Y-66541548D01*
X58661103Y-66566534D01*
X58626367Y-66585101D01*
X58588674Y-66596535D01*
X58543339Y-66601000D01*
X57456661Y-66601000D01*
X57411326Y-66596535D01*
X57373633Y-66585101D01*
X57338897Y-66566534D01*
X57308452Y-66541548D01*
X57283466Y-66511103D01*
X57264899Y-66476367D01*
X57253465Y-66438674D01*
X57249000Y-66393339D01*
X57249000Y-65556661D01*
X57253465Y-65511326D01*
X57264899Y-65473633D01*
X57283466Y-65438897D01*
X57308452Y-65408452D01*
X57338897Y-65383466D01*
X57373633Y-65364899D01*
X57411326Y-65353465D01*
X57456661Y-65349000D01*
X58543339Y-65349000D01*
X58588674Y-65353465D01*
G37*
G36*
X60588674Y-65353465D02*
G01*
X60626367Y-65364899D01*
X60661103Y-65383466D01*
X60691548Y-65408452D01*
X60716534Y-65438897D01*
X60735101Y-65473633D01*
X60746535Y-65511326D01*
X60751000Y-65556661D01*
X60751000Y-66393339D01*
X60746535Y-66438674D01*
X60735101Y-66476367D01*
X60716534Y-66511103D01*
X60691548Y-66541548D01*
X60661103Y-66566534D01*
X60626367Y-66585101D01*
X60588674Y-66596535D01*
X60543339Y-66601000D01*
X59456661Y-66601000D01*
X59411326Y-66596535D01*
X59373633Y-66585101D01*
X59338897Y-66566534D01*
X59308452Y-66541548D01*
X59283466Y-66511103D01*
X59264899Y-66476367D01*
X59253465Y-66438674D01*
X59249000Y-66393339D01*
X59249000Y-65556661D01*
X59253465Y-65511326D01*
X59264899Y-65473633D01*
X59283466Y-65438897D01*
X59308452Y-65408452D01*
X59338897Y-65383466D01*
X59373633Y-65364899D01*
X59411326Y-65353465D01*
X59456661Y-65349000D01*
X60543339Y-65349000D01*
X60588674Y-65353465D01*
G37*
G36*
X62588674Y-65353465D02*
G01*
X62626367Y-65364899D01*
X62661103Y-65383466D01*
X62691548Y-65408452D01*
X62716534Y-65438897D01*
X62735101Y-65473633D01*
X62746535Y-65511326D01*
X62751000Y-65556661D01*
X62751000Y-66393339D01*
X62746535Y-66438674D01*
X62735101Y-66476367D01*
X62716534Y-66511103D01*
X62691548Y-66541548D01*
X62661103Y-66566534D01*
X62626367Y-66585101D01*
X62588674Y-66596535D01*
X62543339Y-66601000D01*
X61456661Y-66601000D01*
X61411326Y-66596535D01*
X61373633Y-66585101D01*
X61338897Y-66566534D01*
X61308452Y-66541548D01*
X61283466Y-66511103D01*
X61264899Y-66476367D01*
X61253465Y-66438674D01*
X61249000Y-66393339D01*
X61249000Y-65556661D01*
X61253465Y-65511326D01*
X61264899Y-65473633D01*
X61283466Y-65438897D01*
X61308452Y-65408452D01*
X61338897Y-65383466D01*
X61373633Y-65364899D01*
X61411326Y-65353465D01*
X61456661Y-65349000D01*
X62543339Y-65349000D01*
X62588674Y-65353465D01*
G37*
G36*
X79051000Y-62451000D02*
G01*
X77249000Y-62451000D01*
X77249000Y-61349000D01*
X79051000Y-61349000D01*
X79051000Y-62451000D01*
G37*
G36*
X72751000Y-62451000D02*
G01*
X70949000Y-62451000D01*
X70949000Y-61349000D01*
X72751000Y-61349000D01*
X72751000Y-62451000D01*
G37*
G36*
X42751000Y-62451000D02*
G01*
X40949000Y-62451000D01*
X40949000Y-61349000D01*
X42751000Y-61349000D01*
X42751000Y-62451000D01*
G37*
G36*
X64051000Y-62451000D02*
G01*
X62249000Y-62451000D01*
X62249000Y-61349000D01*
X64051000Y-61349000D01*
X64051000Y-62451000D01*
G37*
G36*
X57751000Y-62451000D02*
G01*
X55949000Y-62451000D01*
X55949000Y-61349000D01*
X57751000Y-61349000D01*
X57751000Y-62451000D01*
G37*
G36*
X49051000Y-62451000D02*
G01*
X47249000Y-62451000D01*
X47249000Y-61349000D01*
X49051000Y-61349000D01*
X49051000Y-62451000D01*
G37*
G36*
X42751000Y-58651000D02*
G01*
X40949000Y-58651000D01*
X40949000Y-57549000D01*
X42751000Y-57549000D01*
X42751000Y-58651000D01*
G37*
G36*
X72751000Y-58651000D02*
G01*
X70949000Y-58651000D01*
X70949000Y-57549000D01*
X72751000Y-57549000D01*
X72751000Y-58651000D01*
G37*
G36*
X79051000Y-58651000D02*
G01*
X77249000Y-58651000D01*
X77249000Y-57549000D01*
X79051000Y-57549000D01*
X79051000Y-58651000D01*
G37*
G36*
X64051000Y-58651000D02*
G01*
X62249000Y-58651000D01*
X62249000Y-57549000D01*
X64051000Y-57549000D01*
X64051000Y-58651000D01*
G37*
G36*
X49051000Y-58651000D02*
G01*
X47249000Y-58651000D01*
X47249000Y-57549000D01*
X49051000Y-57549000D01*
X49051000Y-58651000D01*
G37*
G36*
X57751000Y-58651000D02*
G01*
X55949000Y-58651000D01*
X55949000Y-57549000D01*
X57751000Y-57549000D01*
X57751000Y-58651000D01*
G37*
G36*
X70588674Y-52403465D02*
G01*
X70626367Y-52414899D01*
X70661103Y-52433466D01*
X70691548Y-52458452D01*
X70716534Y-52488897D01*
X70735101Y-52523633D01*
X70746535Y-52561326D01*
X70751000Y-52606661D01*
X70751000Y-53443339D01*
X70746535Y-53488674D01*
X70735101Y-53526367D01*
X70716534Y-53561103D01*
X70691548Y-53591548D01*
X70661103Y-53616534D01*
X70626367Y-53635101D01*
X70588674Y-53646535D01*
X70543339Y-53651000D01*
X69456661Y-53651000D01*
X69411326Y-53646535D01*
X69373633Y-53635101D01*
X69338897Y-53616534D01*
X69308452Y-53591548D01*
X69283466Y-53561103D01*
X69264899Y-53526367D01*
X69253465Y-53488674D01*
X69249000Y-53443339D01*
X69249000Y-52606661D01*
X69253465Y-52561326D01*
X69264899Y-52523633D01*
X69283466Y-52488897D01*
X69308452Y-52458452D01*
X69338897Y-52433466D01*
X69373633Y-52414899D01*
X69411326Y-52403465D01*
X69456661Y-52399000D01*
X70543339Y-52399000D01*
X70588674Y-52403465D01*
G37*
G36*
X50588674Y-52403465D02*
G01*
X50626367Y-52414899D01*
X50661103Y-52433466D01*
X50691548Y-52458452D01*
X50716534Y-52488897D01*
X50735101Y-52523633D01*
X50746535Y-52561326D01*
X50751000Y-52606661D01*
X50751000Y-53443339D01*
X50746535Y-53488674D01*
X50735101Y-53526367D01*
X50716534Y-53561103D01*
X50691548Y-53591548D01*
X50661103Y-53616534D01*
X50626367Y-53635101D01*
X50588674Y-53646535D01*
X50543339Y-53651000D01*
X49456661Y-53651000D01*
X49411326Y-53646535D01*
X49373633Y-53635101D01*
X49338897Y-53616534D01*
X49308452Y-53591548D01*
X49283466Y-53561103D01*
X49264899Y-53526367D01*
X49253465Y-53488674D01*
X49249000Y-53443339D01*
X49249000Y-52606661D01*
X49253465Y-52561326D01*
X49264899Y-52523633D01*
X49283466Y-52488897D01*
X49308452Y-52458452D01*
X49338897Y-52433466D01*
X49373633Y-52414899D01*
X49411326Y-52403465D01*
X49456661Y-52399000D01*
X50543339Y-52399000D01*
X50588674Y-52403465D01*
G37*
G36*
X52588674Y-52403465D02*
G01*
X52626367Y-52414899D01*
X52661103Y-52433466D01*
X52691548Y-52458452D01*
X52716534Y-52488897D01*
X52735101Y-52523633D01*
X52746535Y-52561326D01*
X52751000Y-52606661D01*
X52751000Y-53443339D01*
X52746535Y-53488674D01*
X52735101Y-53526367D01*
X52716534Y-53561103D01*
X52691548Y-53591548D01*
X52661103Y-53616534D01*
X52626367Y-53635101D01*
X52588674Y-53646535D01*
X52543339Y-53651000D01*
X51456661Y-53651000D01*
X51411326Y-53646535D01*
X51373633Y-53635101D01*
X51338897Y-53616534D01*
X51308452Y-53591548D01*
X51283466Y-53561103D01*
X51264899Y-53526367D01*
X51253465Y-53488674D01*
X51249000Y-53443339D01*
X51249000Y-52606661D01*
X51253465Y-52561326D01*
X51264899Y-52523633D01*
X51283466Y-52488897D01*
X51308452Y-52458452D01*
X51338897Y-52433466D01*
X51373633Y-52414899D01*
X51411326Y-52403465D01*
X51456661Y-52399000D01*
X52543339Y-52399000D01*
X52588674Y-52403465D01*
G37*
G36*
X68588674Y-52403465D02*
G01*
X68626367Y-52414899D01*
X68661103Y-52433466D01*
X68691548Y-52458452D01*
X68716534Y-52488897D01*
X68735101Y-52523633D01*
X68746535Y-52561326D01*
X68751000Y-52606661D01*
X68751000Y-53443339D01*
X68746535Y-53488674D01*
X68735101Y-53526367D01*
X68716534Y-53561103D01*
X68691548Y-53591548D01*
X68661103Y-53616534D01*
X68626367Y-53635101D01*
X68588674Y-53646535D01*
X68543339Y-53651000D01*
X67456661Y-53651000D01*
X67411326Y-53646535D01*
X67373633Y-53635101D01*
X67338897Y-53616534D01*
X67308452Y-53591548D01*
X67283466Y-53561103D01*
X67264899Y-53526367D01*
X67253465Y-53488674D01*
X67249000Y-53443339D01*
X67249000Y-52606661D01*
X67253465Y-52561326D01*
X67264899Y-52523633D01*
X67283466Y-52488897D01*
X67308452Y-52458452D01*
X67338897Y-52433466D01*
X67373633Y-52414899D01*
X67411326Y-52403465D01*
X67456661Y-52399000D01*
X68543339Y-52399000D01*
X68588674Y-52403465D01*
G37*
G36*
X48588674Y-52403465D02*
G01*
X48626367Y-52414899D01*
X48661103Y-52433466D01*
X48691548Y-52458452D01*
X48716534Y-52488897D01*
X48735101Y-52523633D01*
X48746535Y-52561326D01*
X48751000Y-52606661D01*
X48751000Y-53443339D01*
X48746535Y-53488674D01*
X48735101Y-53526367D01*
X48716534Y-53561103D01*
X48691548Y-53591548D01*
X48661103Y-53616534D01*
X48626367Y-53635101D01*
X48588674Y-53646535D01*
X48543339Y-53651000D01*
X47456661Y-53651000D01*
X47411326Y-53646535D01*
X47373633Y-53635101D01*
X47338897Y-53616534D01*
X47308452Y-53591548D01*
X47283466Y-53561103D01*
X47264899Y-53526367D01*
X47253465Y-53488674D01*
X47249000Y-53443339D01*
X47249000Y-52606661D01*
X47253465Y-52561326D01*
X47264899Y-52523633D01*
X47283466Y-52488897D01*
X47308452Y-52458452D01*
X47338897Y-52433466D01*
X47373633Y-52414899D01*
X47411326Y-52403465D01*
X47456661Y-52399000D01*
X48543339Y-52399000D01*
X48588674Y-52403465D01*
G37*
G36*
X72588674Y-52403465D02*
G01*
X72626367Y-52414899D01*
X72661103Y-52433466D01*
X72691548Y-52458452D01*
X72716534Y-52488897D01*
X72735101Y-52523633D01*
X72746535Y-52561326D01*
X72751000Y-52606661D01*
X72751000Y-53443339D01*
X72746535Y-53488674D01*
X72735101Y-53526367D01*
X72716534Y-53561103D01*
X72691548Y-53591548D01*
X72661103Y-53616534D01*
X72626367Y-53635101D01*
X72588674Y-53646535D01*
X72543339Y-53651000D01*
X71456661Y-53651000D01*
X71411326Y-53646535D01*
X71373633Y-53635101D01*
X71338897Y-53616534D01*
X71308452Y-53591548D01*
X71283466Y-53561103D01*
X71264899Y-53526367D01*
X71253465Y-53488674D01*
X71249000Y-53443339D01*
X71249000Y-52606661D01*
X71253465Y-52561326D01*
X71264899Y-52523633D01*
X71283466Y-52488897D01*
X71308452Y-52458452D01*
X71338897Y-52433466D01*
X71373633Y-52414899D01*
X71411326Y-52403465D01*
X71456661Y-52399000D01*
X72543339Y-52399000D01*
X72588674Y-52403465D01*
G37*
G36*
X48588674Y-50353465D02*
G01*
X48626367Y-50364899D01*
X48661103Y-50383466D01*
X48691548Y-50408452D01*
X48716534Y-50438897D01*
X48735101Y-50473633D01*
X48746535Y-50511326D01*
X48751000Y-50556661D01*
X48751000Y-51393339D01*
X48746535Y-51438674D01*
X48735101Y-51476367D01*
X48716534Y-51511103D01*
X48691548Y-51541548D01*
X48661103Y-51566534D01*
X48626367Y-51585101D01*
X48588674Y-51596535D01*
X48543339Y-51601000D01*
X47456661Y-51601000D01*
X47411326Y-51596535D01*
X47373633Y-51585101D01*
X47338897Y-51566534D01*
X47308452Y-51541548D01*
X47283466Y-51511103D01*
X47264899Y-51476367D01*
X47253465Y-51438674D01*
X47249000Y-51393339D01*
X47249000Y-50556661D01*
X47253465Y-50511326D01*
X47264899Y-50473633D01*
X47283466Y-50438897D01*
X47308452Y-50408452D01*
X47338897Y-50383466D01*
X47373633Y-50364899D01*
X47411326Y-50353465D01*
X47456661Y-50349000D01*
X48543339Y-50349000D01*
X48588674Y-50353465D01*
G37*
G36*
X68588674Y-50353465D02*
G01*
X68626367Y-50364899D01*
X68661103Y-50383466D01*
X68691548Y-50408452D01*
X68716534Y-50438897D01*
X68735101Y-50473633D01*
X68746535Y-50511326D01*
X68751000Y-50556661D01*
X68751000Y-51393339D01*
X68746535Y-51438674D01*
X68735101Y-51476367D01*
X68716534Y-51511103D01*
X68691548Y-51541548D01*
X68661103Y-51566534D01*
X68626367Y-51585101D01*
X68588674Y-51596535D01*
X68543339Y-51601000D01*
X67456661Y-51601000D01*
X67411326Y-51596535D01*
X67373633Y-51585101D01*
X67338897Y-51566534D01*
X67308452Y-51541548D01*
X67283466Y-51511103D01*
X67264899Y-51476367D01*
X67253465Y-51438674D01*
X67249000Y-51393339D01*
X67249000Y-50556661D01*
X67253465Y-50511326D01*
X67264899Y-50473633D01*
X67283466Y-50438897D01*
X67308452Y-50408452D01*
X67338897Y-50383466D01*
X67373633Y-50364899D01*
X67411326Y-50353465D01*
X67456661Y-50349000D01*
X68543339Y-50349000D01*
X68588674Y-50353465D01*
G37*
G36*
X72588674Y-50353465D02*
G01*
X72626367Y-50364899D01*
X72661103Y-50383466D01*
X72691548Y-50408452D01*
X72716534Y-50438897D01*
X72735101Y-50473633D01*
X72746535Y-50511326D01*
X72751000Y-50556661D01*
X72751000Y-51393339D01*
X72746535Y-51438674D01*
X72735101Y-51476367D01*
X72716534Y-51511103D01*
X72691548Y-51541548D01*
X72661103Y-51566534D01*
X72626367Y-51585101D01*
X72588674Y-51596535D01*
X72543339Y-51601000D01*
X71456661Y-51601000D01*
X71411326Y-51596535D01*
X71373633Y-51585101D01*
X71338897Y-51566534D01*
X71308452Y-51541548D01*
X71283466Y-51511103D01*
X71264899Y-51476367D01*
X71253465Y-51438674D01*
X71249000Y-51393339D01*
X71249000Y-50556661D01*
X71253465Y-50511326D01*
X71264899Y-50473633D01*
X71283466Y-50438897D01*
X71308452Y-50408452D01*
X71338897Y-50383466D01*
X71373633Y-50364899D01*
X71411326Y-50353465D01*
X71456661Y-50349000D01*
X72543339Y-50349000D01*
X72588674Y-50353465D01*
G37*
G36*
X52588674Y-50353465D02*
G01*
X52626367Y-50364899D01*
X52661103Y-50383466D01*
X52691548Y-50408452D01*
X52716534Y-50438897D01*
X52735101Y-50473633D01*
X52746535Y-50511326D01*
X52751000Y-50556661D01*
X52751000Y-51393339D01*
X52746535Y-51438674D01*
X52735101Y-51476367D01*
X52716534Y-51511103D01*
X52691548Y-51541548D01*
X52661103Y-51566534D01*
X52626367Y-51585101D01*
X52588674Y-51596535D01*
X52543339Y-51601000D01*
X51456661Y-51601000D01*
X51411326Y-51596535D01*
X51373633Y-51585101D01*
X51338897Y-51566534D01*
X51308452Y-51541548D01*
X51283466Y-51511103D01*
X51264899Y-51476367D01*
X51253465Y-51438674D01*
X51249000Y-51393339D01*
X51249000Y-50556661D01*
X51253465Y-50511326D01*
X51264899Y-50473633D01*
X51283466Y-50438897D01*
X51308452Y-50408452D01*
X51338897Y-50383466D01*
X51373633Y-50364899D01*
X51411326Y-50353465D01*
X51456661Y-50349000D01*
X52543339Y-50349000D01*
X52588674Y-50353465D01*
G37*
G36*
X50588674Y-50353465D02*
G01*
X50626367Y-50364899D01*
X50661103Y-50383466D01*
X50691548Y-50408452D01*
X50716534Y-50438897D01*
X50735101Y-50473633D01*
X50746535Y-50511326D01*
X50751000Y-50556661D01*
X50751000Y-51393339D01*
X50746535Y-51438674D01*
X50735101Y-51476367D01*
X50716534Y-51511103D01*
X50691548Y-51541548D01*
X50661103Y-51566534D01*
X50626367Y-51585101D01*
X50588674Y-51596535D01*
X50543339Y-51601000D01*
X49456661Y-51601000D01*
X49411326Y-51596535D01*
X49373633Y-51585101D01*
X49338897Y-51566534D01*
X49308452Y-51541548D01*
X49283466Y-51511103D01*
X49264899Y-51476367D01*
X49253465Y-51438674D01*
X49249000Y-51393339D01*
X49249000Y-50556661D01*
X49253465Y-50511326D01*
X49264899Y-50473633D01*
X49283466Y-50438897D01*
X49308452Y-50408452D01*
X49338897Y-50383466D01*
X49373633Y-50364899D01*
X49411326Y-50353465D01*
X49456661Y-50349000D01*
X50543339Y-50349000D01*
X50588674Y-50353465D01*
G37*
G36*
X70588674Y-50353465D02*
G01*
X70626367Y-50364899D01*
X70661103Y-50383466D01*
X70691548Y-50408452D01*
X70716534Y-50438897D01*
X70735101Y-50473633D01*
X70746535Y-50511326D01*
X70751000Y-50556661D01*
X70751000Y-51393339D01*
X70746535Y-51438674D01*
X70735101Y-51476367D01*
X70716534Y-51511103D01*
X70691548Y-51541548D01*
X70661103Y-51566534D01*
X70626367Y-51585101D01*
X70588674Y-51596535D01*
X70543339Y-51601000D01*
X69456661Y-51601000D01*
X69411326Y-51596535D01*
X69373633Y-51585101D01*
X69338897Y-51566534D01*
X69308452Y-51541548D01*
X69283466Y-51511103D01*
X69264899Y-51476367D01*
X69253465Y-51438674D01*
X69249000Y-51393339D01*
X69249000Y-50556661D01*
X69253465Y-50511326D01*
X69264899Y-50473633D01*
X69283466Y-50438897D01*
X69308452Y-50408452D01*
X69338897Y-50383466D01*
X69373633Y-50364899D01*
X69411326Y-50353465D01*
X69456661Y-50349000D01*
X70543339Y-50349000D01*
X70588674Y-50353465D01*
G37*
G36*
X80951000Y-50951000D02*
G01*
X79049000Y-50951000D01*
X79049000Y-49049000D01*
X80951000Y-49049000D01*
X80951000Y-50951000D01*
G37*
G36*
X40951000Y-50951000D02*
G01*
X39049000Y-50951000D01*
X39049000Y-49049000D01*
X40951000Y-49049000D01*
X40951000Y-50951000D01*
G37*
G36*
X76588674Y-49403465D02*
G01*
X76626367Y-49414899D01*
X76661103Y-49433466D01*
X76691548Y-49458452D01*
X76716534Y-49488897D01*
X76735101Y-49523633D01*
X76746535Y-49561326D01*
X76751000Y-49606661D01*
X76751000Y-50443339D01*
X76746535Y-50488674D01*
X76735101Y-50526367D01*
X76716534Y-50561103D01*
X76691548Y-50591548D01*
X76661103Y-50616534D01*
X76626367Y-50635101D01*
X76588674Y-50646535D01*
X76543339Y-50651000D01*
X75456661Y-50651000D01*
X75411326Y-50646535D01*
X75373633Y-50635101D01*
X75338897Y-50616534D01*
X75308452Y-50591548D01*
X75283466Y-50561103D01*
X75264899Y-50526367D01*
X75253465Y-50488674D01*
X75249000Y-50443339D01*
X75249000Y-49606661D01*
X75253465Y-49561326D01*
X75264899Y-49523633D01*
X75283466Y-49488897D01*
X75308452Y-49458452D01*
X75338897Y-49433466D01*
X75373633Y-49414899D01*
X75411326Y-49403465D01*
X75456661Y-49399000D01*
X76543339Y-49399000D01*
X76588674Y-49403465D01*
G37*
G36*
X44588674Y-49403465D02*
G01*
X44626367Y-49414899D01*
X44661103Y-49433466D01*
X44691548Y-49458452D01*
X44716534Y-49488897D01*
X44735101Y-49523633D01*
X44746535Y-49561326D01*
X44751000Y-49606661D01*
X44751000Y-50443339D01*
X44746535Y-50488674D01*
X44735101Y-50526367D01*
X44716534Y-50561103D01*
X44691548Y-50591548D01*
X44661103Y-50616534D01*
X44626367Y-50635101D01*
X44588674Y-50646535D01*
X44543339Y-50651000D01*
X43456661Y-50651000D01*
X43411326Y-50646535D01*
X43373633Y-50635101D01*
X43338897Y-50616534D01*
X43308452Y-50591548D01*
X43283466Y-50561103D01*
X43264899Y-50526367D01*
X43253465Y-50488674D01*
X43249000Y-50443339D01*
X43249000Y-49606661D01*
X43253465Y-49561326D01*
X43264899Y-49523633D01*
X43283466Y-49488897D01*
X43308452Y-49458452D01*
X43338897Y-49433466D01*
X43373633Y-49414899D01*
X43411326Y-49403465D01*
X43456661Y-49399000D01*
X44543339Y-49399000D01*
X44588674Y-49403465D01*
G37*
G36*
X76588674Y-47353465D02*
G01*
X76626367Y-47364899D01*
X76661103Y-47383466D01*
X76691548Y-47408452D01*
X76716534Y-47438897D01*
X76735101Y-47473633D01*
X76746535Y-47511326D01*
X76751000Y-47556661D01*
X76751000Y-48393339D01*
X76746535Y-48438674D01*
X76735101Y-48476367D01*
X76716534Y-48511103D01*
X76691548Y-48541548D01*
X76661103Y-48566534D01*
X76626367Y-48585101D01*
X76588674Y-48596535D01*
X76543339Y-48601000D01*
X75456661Y-48601000D01*
X75411326Y-48596535D01*
X75373633Y-48585101D01*
X75338897Y-48566534D01*
X75308452Y-48541548D01*
X75283466Y-48511103D01*
X75264899Y-48476367D01*
X75253465Y-48438674D01*
X75249000Y-48393339D01*
X75249000Y-47556661D01*
X75253465Y-47511326D01*
X75264899Y-47473633D01*
X75283466Y-47438897D01*
X75308452Y-47408452D01*
X75338897Y-47383466D01*
X75373633Y-47364899D01*
X75411326Y-47353465D01*
X75456661Y-47349000D01*
X76543339Y-47349000D01*
X76588674Y-47353465D01*
G37*
G36*
X44588674Y-47353465D02*
G01*
X44626367Y-47364899D01*
X44661103Y-47383466D01*
X44691548Y-47408452D01*
X44716534Y-47438897D01*
X44735101Y-47473633D01*
X44746535Y-47511326D01*
X44751000Y-47556661D01*
X44751000Y-48393339D01*
X44746535Y-48438674D01*
X44735101Y-48476367D01*
X44716534Y-48511103D01*
X44691548Y-48541548D01*
X44661103Y-48566534D01*
X44626367Y-48585101D01*
X44588674Y-48596535D01*
X44543339Y-48601000D01*
X43456661Y-48601000D01*
X43411326Y-48596535D01*
X43373633Y-48585101D01*
X43338897Y-48566534D01*
X43308452Y-48541548D01*
X43283466Y-48511103D01*
X43264899Y-48476367D01*
X43253465Y-48438674D01*
X43249000Y-48393339D01*
X43249000Y-47556661D01*
X43253465Y-47511326D01*
X43264899Y-47473633D01*
X43283466Y-47438897D01*
X43308452Y-47408452D01*
X43338897Y-47383466D01*
X43373633Y-47364899D01*
X43411326Y-47353465D01*
X43456661Y-47349000D01*
X44543339Y-47349000D01*
X44588674Y-47353465D01*
G37*
G36*
X80277395Y-46545546D02*
G01*
X80450466Y-46617234D01*
X80450467Y-46617235D01*
X80606227Y-46721310D01*
X80738690Y-46853773D01*
X80738691Y-46853775D01*
X80842766Y-47009534D01*
X80914454Y-47182605D01*
X80951000Y-47366333D01*
X80951000Y-47553667D01*
X80914454Y-47737395D01*
X80842766Y-47910466D01*
X80842765Y-47910467D01*
X80738690Y-48066227D01*
X80606227Y-48198690D01*
X80527818Y-48251081D01*
X80450466Y-48302766D01*
X80277395Y-48374454D01*
X80093667Y-48411000D01*
X79906333Y-48411000D01*
X79722605Y-48374454D01*
X79549534Y-48302766D01*
X79472182Y-48251081D01*
X79393773Y-48198690D01*
X79261310Y-48066227D01*
X79157235Y-47910467D01*
X79157234Y-47910466D01*
X79085546Y-47737395D01*
X79049000Y-47553667D01*
X79049000Y-47366333D01*
X79085546Y-47182605D01*
X79157234Y-47009534D01*
X79261309Y-46853775D01*
X79261310Y-46853773D01*
X79393773Y-46721310D01*
X79549533Y-46617235D01*
X79549534Y-46617234D01*
X79722605Y-46545546D01*
X79906333Y-46509000D01*
X80093667Y-46509000D01*
X80277395Y-46545546D01*
G37*
G36*
X40277395Y-46545546D02*
G01*
X40450466Y-46617234D01*
X40450467Y-46617235D01*
X40606227Y-46721310D01*
X40738690Y-46853773D01*
X40738691Y-46853775D01*
X40842766Y-47009534D01*
X40914454Y-47182605D01*
X40951000Y-47366333D01*
X40951000Y-47553667D01*
X40914454Y-47737395D01*
X40842766Y-47910466D01*
X40842765Y-47910467D01*
X40738690Y-48066227D01*
X40606227Y-48198690D01*
X40527818Y-48251081D01*
X40450466Y-48302766D01*
X40277395Y-48374454D01*
X40093667Y-48411000D01*
X39906333Y-48411000D01*
X39722605Y-48374454D01*
X39549534Y-48302766D01*
X39472182Y-48251081D01*
X39393773Y-48198690D01*
X39261310Y-48066227D01*
X39157235Y-47910467D01*
X39157234Y-47910466D01*
X39085546Y-47737395D01*
X39049000Y-47553667D01*
X39049000Y-47366333D01*
X39085546Y-47182605D01*
X39157234Y-47009534D01*
X39261309Y-46853775D01*
X39261310Y-46853773D01*
X39393773Y-46721310D01*
X39549533Y-46617235D01*
X39549534Y-46617234D01*
X39722605Y-46545546D01*
X39906333Y-46509000D01*
X40093667Y-46509000D01*
X40277395Y-46545546D01*
G37*
G36*
X47751000Y-47451000D02*
G01*
X45949000Y-47451000D01*
X45949000Y-46349000D01*
X47751000Y-46349000D01*
X47751000Y-47451000D01*
G37*
G36*
X74051000Y-47451000D02*
G01*
X72249000Y-47451000D01*
X72249000Y-46349000D01*
X74051000Y-46349000D01*
X74051000Y-47451000D01*
G37*
G36*
X54051000Y-47451000D02*
G01*
X52249000Y-47451000D01*
X52249000Y-46349000D01*
X54051000Y-46349000D01*
X54051000Y-47451000D01*
G37*
G36*
X67751000Y-47451000D02*
G01*
X65949000Y-47451000D01*
X65949000Y-46349000D01*
X67751000Y-46349000D01*
X67751000Y-47451000D01*
G37*
G36*
X47751000Y-43651000D02*
G01*
X45949000Y-43651000D01*
X45949000Y-42549000D01*
X47751000Y-42549000D01*
X47751000Y-43651000D01*
G37*
G36*
X54051000Y-43651000D02*
G01*
X52249000Y-43651000D01*
X52249000Y-42549000D01*
X54051000Y-42549000D01*
X54051000Y-43651000D01*
G37*
G36*
X67751000Y-43651000D02*
G01*
X65949000Y-43651000D01*
X65949000Y-42549000D01*
X67751000Y-42549000D01*
X67751000Y-43651000D01*
G37*
G36*
X74051000Y-43651000D02*
G01*
X72249000Y-43651000D01*
X72249000Y-42549000D01*
X74051000Y-42549000D01*
X74051000Y-43651000D01*
G37*
G36*
X40634239Y-36811467D02*
G01*
X40948282Y-36873934D01*
X41539926Y-37119001D01*
X42072392Y-37474784D01*
X42525216Y-37927608D01*
X42880999Y-38460074D01*
X43126066Y-39051718D01*
X43126066Y-39051719D01*
X43251000Y-39679803D01*
X43251000Y-40320197D01*
X43188533Y-40634239D01*
X43126066Y-40948282D01*
X42880999Y-41539926D01*
X42525216Y-42072392D01*
X42072392Y-42525216D01*
X41539926Y-42880999D01*
X40948282Y-43126066D01*
X40634239Y-43188533D01*
X40320197Y-43251000D01*
X39679803Y-43251000D01*
X39365761Y-43188533D01*
X39051718Y-43126066D01*
X38460074Y-42880999D01*
X37927608Y-42525216D01*
X37474784Y-42072392D01*
X37119001Y-41539926D01*
X36873934Y-40948282D01*
X36811467Y-40634239D01*
X36749000Y-40320197D01*
X36749000Y-39679803D01*
X36873934Y-39051719D01*
X36873934Y-39051718D01*
X37119001Y-38460074D01*
X37474784Y-37927608D01*
X37927608Y-37474784D01*
X38460074Y-37119001D01*
X39051718Y-36873934D01*
X39365761Y-36811467D01*
X39679803Y-36749000D01*
X40320197Y-36749000D01*
X40634239Y-36811467D01*
G37*
G36*
X80634239Y-36811467D02*
G01*
X80948282Y-36873934D01*
X81539926Y-37119001D01*
X82072392Y-37474784D01*
X82525216Y-37927608D01*
X82880999Y-38460074D01*
X83126066Y-39051718D01*
X83126066Y-39051719D01*
X83251000Y-39679803D01*
X83251000Y-40320197D01*
X83188533Y-40634239D01*
X83126066Y-40948282D01*
X82880999Y-41539926D01*
X82525216Y-42072392D01*
X82072392Y-42525216D01*
X81539926Y-42880999D01*
X80948282Y-43126066D01*
X80634239Y-43188533D01*
X80320197Y-43251000D01*
X79679803Y-43251000D01*
X79365761Y-43188533D01*
X79051718Y-43126066D01*
X78460074Y-42880999D01*
X77927608Y-42525216D01*
X77474784Y-42072392D01*
X77119001Y-41539926D01*
X76873934Y-40948282D01*
X76811467Y-40634239D01*
X76749000Y-40320197D01*
X76749000Y-39679803D01*
X76873934Y-39051719D01*
X76873934Y-39051718D01*
X77119001Y-38460074D01*
X77474784Y-37927608D01*
X77927608Y-37474784D01*
X78460074Y-37119001D01*
X79051718Y-36873934D01*
X79365761Y-36811467D01*
X79679803Y-36749000D01*
X80320197Y-36749000D01*
X80634239Y-36811467D01*
G37*
M02*
