G04 #@! TF.GenerationSoftware,KiCad,Pcbnew,(5.1.5)-3*
G04 #@! TF.CreationDate,2020-06-22T20:22:27+02:00*
G04 #@! TF.ProjectId,Mupi,4d757069-2e6b-4696-9361-645f70636258,rev?*
G04 #@! TF.SameCoordinates,Original*
G04 #@! TF.FileFunction,Legend,Bot*
G04 #@! TF.FilePolarity,Positive*
%FSLAX46Y46*%
G04 Gerber Fmt 4.6, Leading zero omitted, Abs format (unit mm)*
G04 Created by KiCad (PCBNEW (5.1.5)-3) date 2020-06-22 20:22:27*
%MOMM*%
%LPD*%
G04 APERTURE LIST*
%ADD10C,0.300000*%
%ADD11C,0.120000*%
%ADD12C,0.150000*%
G04 APERTURE END LIST*
D10*
X41096428Y-153607142D02*
X41096428Y-152678571D01*
X40525000Y-153178571D01*
X40525000Y-152964285D01*
X40453571Y-152821428D01*
X40382142Y-152750000D01*
X40239285Y-152678571D01*
X39882142Y-152678571D01*
X39739285Y-152750000D01*
X39667857Y-152821428D01*
X39596428Y-152964285D01*
X39596428Y-153392857D01*
X39667857Y-153535714D01*
X39739285Y-153607142D01*
X39596428Y-152035714D02*
X41096428Y-152035714D01*
X41096428Y-151678571D01*
X41025000Y-151464285D01*
X40882142Y-151321428D01*
X40739285Y-151250000D01*
X40453571Y-151178571D01*
X40239285Y-151178571D01*
X39953571Y-151250000D01*
X39810714Y-151321428D01*
X39667857Y-151464285D01*
X39596428Y-151678571D01*
X39596428Y-152035714D01*
X39596428Y-149392857D02*
X41096428Y-149392857D01*
X41096428Y-148821428D01*
X41025000Y-148678571D01*
X40953571Y-148607142D01*
X40810714Y-148535714D01*
X40596428Y-148535714D01*
X40453571Y-148607142D01*
X40382142Y-148678571D01*
X40310714Y-148821428D01*
X40310714Y-149392857D01*
X39596428Y-147892857D02*
X40596428Y-147892857D01*
X40310714Y-147892857D02*
X40453571Y-147821428D01*
X40525000Y-147750000D01*
X40596428Y-147607142D01*
X40596428Y-147464285D01*
X39596428Y-146964285D02*
X40596428Y-146964285D01*
X41096428Y-146964285D02*
X41025000Y-147035714D01*
X40953571Y-146964285D01*
X41025000Y-146892857D01*
X41096428Y-146964285D01*
X40953571Y-146964285D01*
X40596428Y-146250000D02*
X39596428Y-146250000D01*
X40453571Y-146250000D02*
X40525000Y-146178571D01*
X40596428Y-146035714D01*
X40596428Y-145821428D01*
X40525000Y-145678571D01*
X40382142Y-145607142D01*
X39596428Y-145607142D01*
X40596428Y-145107142D02*
X40596428Y-144535714D01*
X41096428Y-144892857D02*
X39810714Y-144892857D01*
X39667857Y-144821428D01*
X39596428Y-144678571D01*
X39596428Y-144535714D01*
X39667857Y-143464285D02*
X39596428Y-143607142D01*
X39596428Y-143892857D01*
X39667857Y-144035714D01*
X39810714Y-144107142D01*
X40382142Y-144107142D01*
X40525000Y-144035714D01*
X40596428Y-143892857D01*
X40596428Y-143607142D01*
X40525000Y-143464285D01*
X40382142Y-143392857D01*
X40239285Y-143392857D01*
X40096428Y-144107142D01*
X39596428Y-142750000D02*
X40596428Y-142750000D01*
X40310714Y-142750000D02*
X40453571Y-142678571D01*
X40525000Y-142607142D01*
X40596428Y-142464285D01*
X40596428Y-142321428D01*
X37046428Y-153392857D02*
X38546428Y-153392857D01*
X37475000Y-152892857D01*
X38546428Y-152392857D01*
X37046428Y-152392857D01*
X38546428Y-151678571D02*
X37332142Y-151678571D01*
X37189285Y-151607142D01*
X37117857Y-151535714D01*
X37046428Y-151392857D01*
X37046428Y-151107142D01*
X37117857Y-150964285D01*
X37189285Y-150892857D01*
X37332142Y-150821428D01*
X38546428Y-150821428D01*
X37046428Y-150107142D02*
X38546428Y-150107142D01*
X38546428Y-149535714D01*
X38475000Y-149392857D01*
X38403571Y-149321428D01*
X38260714Y-149250000D01*
X38046428Y-149250000D01*
X37903571Y-149321428D01*
X37832142Y-149392857D01*
X37760714Y-149535714D01*
X37760714Y-150107142D01*
X37046428Y-148607142D02*
X38546428Y-148607142D01*
X38546428Y-146964285D02*
X37046428Y-146464285D01*
X38546428Y-145964285D01*
X37046428Y-144678571D02*
X37046428Y-145535714D01*
X37046428Y-145107142D02*
X38546428Y-145107142D01*
X38332142Y-145250000D01*
X38189285Y-145392857D01*
X38117857Y-145535714D01*
X37189285Y-144035714D02*
X37117857Y-143964285D01*
X37046428Y-144035714D01*
X37117857Y-144107142D01*
X37189285Y-144035714D01*
X37046428Y-144035714D01*
X38546428Y-143035714D02*
X38546428Y-142892857D01*
X38475000Y-142750000D01*
X38403571Y-142678571D01*
X38260714Y-142607142D01*
X37975000Y-142535714D01*
X37617857Y-142535714D01*
X37332142Y-142607142D01*
X37189285Y-142678571D01*
X37117857Y-142750000D01*
X37046428Y-142892857D01*
X37046428Y-143035714D01*
X37117857Y-143178571D01*
X37189285Y-143250000D01*
X37332142Y-143321428D01*
X37617857Y-143392857D01*
X37975000Y-143392857D01*
X38260714Y-143321428D01*
X38403571Y-143250000D01*
X38475000Y-143178571D01*
X38546428Y-143035714D01*
D11*
X77418000Y-130504000D02*
X79958000Y-130504000D01*
X79958000Y-130504000D02*
X79958000Y-133174000D01*
X77418000Y-133174000D02*
X39188000Y-133174000D01*
X82628000Y-133174000D02*
X79958000Y-133174000D01*
X79958000Y-117804000D02*
X79958000Y-115134000D01*
X79958000Y-117804000D02*
X41858000Y-117804000D01*
X41858000Y-117804000D02*
X41858000Y-115134000D01*
X77418000Y-130504000D02*
X77418000Y-133174000D01*
X77418000Y-130504000D02*
X41858000Y-130504000D01*
X41858000Y-130504000D02*
X41858000Y-133174000D01*
X39188000Y-133174000D02*
X39188000Y-115134000D01*
X39188000Y-115134000D02*
X82628000Y-115134000D01*
X82628000Y-115134000D02*
X82628000Y-133174000D01*
X69060000Y-162600000D02*
X53240000Y-162600000D01*
X69060000Y-157300000D02*
X53240000Y-157300000D01*
X69060000Y-156840000D02*
X53240000Y-156840000D01*
X69060000Y-163160000D02*
X53240000Y-163160000D01*
X69060000Y-156840000D02*
X69060000Y-163160000D01*
X53240000Y-156840000D02*
X53240000Y-163160000D01*
X69300000Y-162660000D02*
X69300000Y-163400000D01*
X69300000Y-163400000D02*
X68800000Y-163400000D01*
D12*
X83934666Y-122487333D02*
X83934666Y-122963523D01*
X84220380Y-122392095D02*
X83220380Y-122725428D01*
X84220380Y-123058761D01*
X84220380Y-123915904D02*
X84220380Y-123344476D01*
X84220380Y-123630190D02*
X83220380Y-123630190D01*
X83363238Y-123534952D01*
X83458476Y-123439714D01*
X83506095Y-123344476D01*
X83220380Y-124534952D02*
X83220380Y-124630190D01*
X83268000Y-124725428D01*
X83315619Y-124773047D01*
X83410857Y-124820666D01*
X83601333Y-124868285D01*
X83839428Y-124868285D01*
X84029904Y-124820666D01*
X84125142Y-124773047D01*
X84172761Y-124725428D01*
X84220380Y-124630190D01*
X84220380Y-124534952D01*
X84172761Y-124439714D01*
X84125142Y-124392095D01*
X84029904Y-124344476D01*
X83839428Y-124296857D01*
X83601333Y-124296857D01*
X83410857Y-124344476D01*
X83315619Y-124392095D01*
X83268000Y-124439714D01*
X83220380Y-124534952D01*
X84220380Y-125820666D02*
X84220380Y-125249238D01*
X84220380Y-125534952D02*
X83220380Y-125534952D01*
X83363238Y-125439714D01*
X83458476Y-125344476D01*
X83506095Y-125249238D01*
X62435714Y-155292380D02*
X62435714Y-156006666D01*
X62483333Y-156149523D01*
X62578571Y-156244761D01*
X62721428Y-156292380D01*
X62816666Y-156292380D01*
X61435714Y-156292380D02*
X62007142Y-156292380D01*
X61721428Y-156292380D02*
X61721428Y-155292380D01*
X61816666Y-155435238D01*
X61911904Y-155530476D01*
X62007142Y-155578095D01*
X60816666Y-155292380D02*
X60721428Y-155292380D01*
X60626190Y-155340000D01*
X60578571Y-155387619D01*
X60530952Y-155482857D01*
X60483333Y-155673333D01*
X60483333Y-155911428D01*
X60530952Y-156101904D01*
X60578571Y-156197142D01*
X60626190Y-156244761D01*
X60721428Y-156292380D01*
X60816666Y-156292380D01*
X60911904Y-156244761D01*
X60959523Y-156197142D01*
X61007142Y-156101904D01*
X61054761Y-155911428D01*
X61054761Y-155673333D01*
X61007142Y-155482857D01*
X60959523Y-155387619D01*
X60911904Y-155340000D01*
X60816666Y-155292380D01*
X59530952Y-156292380D02*
X60102380Y-156292380D01*
X59816666Y-156292380D02*
X59816666Y-155292380D01*
X59911904Y-155435238D01*
X60007142Y-155530476D01*
X60102380Y-155578095D01*
M02*
