M48
; DRILL file {KiCad (5.1.5)-3} date 23.06.2020 00:23:05
; FORMAT={-:-/ absolute / inch / decimal}
; #@! TF.CreationDate,2020-06-23T00:23:05+02:00
; #@! TF.GenerationSoftware,Kicad,Pcbnew,(5.1.5)-3
; #@! TF.FileFunction,Plated,1,2,PTH
FMAT,2
INCH
T1C0.0079
T2C0.0118
T3C0.0157
T4C0.0236
T5C0.0394
T6C0.0433
T7C0.0472
T8C0.0512
T9C0.0551
T10C0.1693
%
G90
G05
T1
X1.758Y-2.278
X1.778Y-2.408
X1.848Y-4.618
X1.848Y-4.688
X1.848Y-4.758
X1.958Y-2.338
X2.003Y-5.268
X2.06Y-5.15
X2.078Y-2.018
X2.078Y-2.238
X2.225Y-5.05
X2.268Y-4.728
X2.268Y-4.798
X2.453Y-5.303
X2.4803Y-3.3071
X2.5011Y-3.628
X2.5348Y-3.278
X2.5348Y-3.6448
X2.553Y-3.603
X2.558Y-2.818
X2.578Y-3.663
X2.5807Y-4.378
X2.593Y-3.688
X2.6Y-5.44
X2.608Y-3.878
X2.648Y-3.548
X2.728Y-5.3
X2.773Y-2.533
X2.81Y-4.5
X2.848Y-5.258
X2.848Y-5.338
X2.878Y-5.303
X2.9Y-5.44
X2.9134Y-3.5433
X3.003Y-2.453
X3.0315Y-3.0709
X3.068Y-3.438
X3.0709Y-2.6772
X3.0709Y-2.9921
X3.093Y-2.513
X3.123Y-2.4998
X3.148Y-2.4911
X3.168Y-2.4698
X3.198Y-3.518
X3.218Y-5.128
X3.223Y-3.553
X3.228Y-3.438
X3.2439Y-3.653
X3.248Y-5.048
X3.258Y-3.258
X3.268Y-3.718
X3.288Y-3.6898
X3.29Y-4.67
X3.308Y-2.818
X3.31Y-3.76
X3.36Y-3.76
X3.438Y-3.388
X3.4465Y-3.5312
X3.458Y-3.553
X3.488Y-2.818
X3.498Y-3.628
X3.498Y-3.673
X3.5Y-4.65
X3.5Y-4.85
X3.548Y-3.333
X3.558Y-3.248
X3.5775Y-3.3921
X3.578Y-3.808
X3.583Y-3.963
X3.598Y-3.448
X3.608Y-3.718
X3.608Y-3.958
X3.6111Y-4.048
X3.618Y-3.513
X3.6261Y-3.543
X3.633Y-3.353
X3.638Y-4.008
X3.648Y-3.328
X3.6583Y-4.0248
X3.668Y-4.0598
X3.673Y-3.343
X3.678Y-3.788
X3.7027Y-5.0432
X3.708Y-3.658
X3.718Y-3.988
X3.738Y-5.058
X3.743Y-4.043
X3.753Y-3.348
X3.7559Y-3.9016
X3.758Y-5.288
X3.768Y-5.128
X3.768Y-5.208
X3.7711Y-3.558
X3.7756Y-3.9213
X3.778Y-5.078
X3.778Y-5.328
X3.79Y-3.63
X3.798Y-3.728
X3.798Y-5.418
X3.813Y-3.9381
X3.8145Y-3.4632
X3.828Y-3.963
X3.833Y-3.5567
X3.843Y-3.523
X3.85Y-3.65
X3.8511Y-3.9748
X3.869Y-3.9888
X3.873Y-3.518
X3.8743Y-3.548
X3.878Y-2.473
X3.878Y-3.353
X3.8911Y-3.4961
X3.898Y-3.788
X3.9Y-4.35
X3.9Y-4.5
X3.9Y-5.28
X3.928Y-3.363
X3.9348Y-3.598
X3.948Y-3.653
X3.95Y-2.9
X3.9514Y-3.3064
X3.953Y-3.753
X3.9548Y-3.578
X4.003Y-2.473
X4.013Y-4.118
X4.053Y-3.9598
X4.063Y-3.618
X4.068Y-3.778
X4.0777Y-3.943
X4.078Y-4.913
X4.093Y-3.6407
X4.098Y-4.948
X4.118Y-3.678
X4.128Y-4.9286
X4.1448Y-3.9044
X4.168Y-3.928
X4.168Y-4.668
X4.168Y-4.9286
X4.2Y-3.55
X4.2132Y-4.988
X4.233Y-5.128
X4.2428Y-4.9588
X4.243Y-5.063
X4.2463Y-4.9363
X4.2621Y-4.9073
X4.27Y-4.3
X4.278Y-4.758
X4.308Y-2.498
X4.308Y-5.518
X4.348Y-4.758
X4.36Y-4.8031
X4.58Y-2.7
X4.58Y-2.98
X4.658Y-5.238
X4.71Y-3.48
X4.769Y-4.3269
X4.813Y-4.5472
X4.98Y-3.48
X4.988Y-2.473
X5.018Y-2.498
X5.313Y-4.5898
X5.35Y-4.59
X5.518Y-5.078
X5.518Y-5.148
X5.548Y-4.358
X5.548Y-4.418
X5.858Y-4.668
X6.08Y-4.875
X6.1417Y-3.7303
T2
X4.0675Y-5.11
T3
X1.848Y-5.068
X1.938Y-5.068
X2.093Y-4.893
X2.348Y-3.038
X2.518Y-4.568
X2.573Y-2.703
X2.593Y-4.688
X2.598Y-4.488
X2.618Y-4.118
X2.75Y-5.2362
X2.988Y-5.258
X3.028Y-5.278
X3.0365Y-5.138
X3.068Y-4.9678
X3.068Y-5.338
X3.1365Y-3.948
X3.328Y-3.218
X3.338Y-3.388
X3.338Y-3.908
X3.623Y-4.758
X3.638Y-3.218
X3.668Y-5.378
X3.798Y-4.758
X3.898Y-4.088
X3.998Y-3.378
X4.0455Y-4.018
X4.0722Y-3.428
X4.1339Y-2.5197
X4.148Y-5.1624
X4.158Y-2.418
X4.198Y-3.068
X4.218Y-3.378
X4.2377Y-4.8819
X4.2518Y-2.6097
X4.2518Y-2.9
X4.318Y-5.098
X4.348Y-2.608
X4.348Y-4.888
X4.358Y-3.458
X4.378Y-4.218
X4.488Y-4.748
X4.488Y-4.8645
X4.578Y-5.228
X4.588Y-4.078
X4.728Y-2.4264
X4.778Y-2.538
X5.013Y-4.328
X5.078Y-4.768
X5.178Y-2.588
X5.2362Y-3.2283
X5.388Y-5.338
X5.458Y-3.088
X5.458Y-3.128
X5.458Y-3.168
X5.588Y-2.708
X5.628Y-2.708
X5.638Y-5.293
X5.668Y-2.708
X5.698Y-4.738
X5.708Y-5.188
X5.758Y-5.188
X5.758Y-5.368
T4
X4.14Y-5.05
X1.5463Y-5.3543
X1.5834Y-5.2646
X1.5834Y-5.4441
X1.6732Y-5.2274
X1.6732Y-5.4813
X1.763Y-5.2646
X1.763Y-5.4441
X1.8002Y-5.3543
X6.0738Y-5.3543
X6.111Y-5.2646
X6.111Y-5.4441
X6.2008Y-5.2274
X6.2008Y-5.4813
X6.2906Y-5.2646
X6.2906Y-5.4441
X6.3278Y-5.3543
X6.0738Y-1.7323
X6.111Y-1.6425
X6.111Y-1.8221
X6.2008Y-1.6053
X6.2008Y-1.8593
X6.2906Y-1.6425
X6.2906Y-1.8221
X6.3278Y-1.7323
X1.5463Y-1.7323
X1.5834Y-1.6425
X1.5834Y-1.8221
X1.6732Y-1.6053
X1.6732Y-1.8593
X1.763Y-1.6425
X1.763Y-1.8221
X1.8002Y-1.7323
T5
X3.658Y-3.018
X3.658Y-3.118
X4.098Y-3.258
X4.198Y-3.258
X2.078Y-1.878
X2.078Y-2.378
X2.178Y-1.878
X2.178Y-2.378
X2.278Y-1.878
X2.278Y-2.378
X2.378Y-1.878
X2.378Y-2.378
X2.478Y-1.878
X2.478Y-2.378
X2.578Y-1.878
X2.578Y-2.378
X2.678Y-1.878
X2.678Y-2.378
X2.778Y-1.878
X2.778Y-2.378
X2.878Y-1.878
X2.878Y-2.378
X1.928Y-2.778
X1.928Y-2.878
X1.928Y-2.978
X1.928Y-3.078
X1.928Y-3.178
X1.928Y-3.278
X1.928Y-3.378
X1.928Y-3.478
X1.928Y-3.578
X2.428Y-2.778
X2.428Y-2.878
X2.428Y-2.978
X2.428Y-3.078
X2.428Y-3.178
X2.428Y-3.278
X2.428Y-3.378
X2.428Y-3.478
X2.428Y-3.578
X4.578Y-4.838
X4.578Y-4.938
X1.928Y-3.878
X1.928Y-3.978
X1.928Y-4.078
X1.928Y-4.178
X1.928Y-4.278
X1.928Y-4.378
X1.928Y-4.478
X1.928Y-4.578
X1.928Y-4.678
X2.428Y-3.878
X2.428Y-3.978
X2.428Y-4.078
X2.428Y-4.178
X2.428Y-4.278
X2.428Y-4.378
X2.428Y-4.478
X2.428Y-4.578
X2.428Y-4.678
X5.428Y-2.053
X5.428Y-2.153
X5.428Y-2.253
X5.428Y-2.353
X5.428Y-2.453
X5.428Y-2.553
X5.428Y-2.653
X5.428Y-2.753
X5.428Y-2.853
X5.928Y-2.053
X5.928Y-2.153
X5.928Y-2.253
X5.928Y-2.353
X5.928Y-2.453
X5.928Y-2.553
X5.928Y-2.653
X5.928Y-2.753
X5.928Y-2.853
X4.278Y-1.878
X4.278Y-2.378
X4.378Y-1.878
X4.378Y-2.378
X4.478Y-1.878
X4.478Y-2.378
X4.578Y-1.878
X4.578Y-2.378
X4.678Y-1.878
X4.678Y-2.378
X4.778Y-1.878
X4.778Y-2.378
X4.878Y-1.878
X4.878Y-2.378
X4.978Y-1.878
X4.978Y-2.378
X5.078Y-1.878
X5.078Y-2.378
X4.278Y-3.618
X4.278Y-3.718
X4.278Y-3.818
X4.278Y-3.918
X4.278Y-4.018
X4.278Y-4.118
X3.678Y-5.138
X3.678Y-5.238
X3.178Y-1.893
X3.178Y-2.393
X3.278Y-1.893
X3.278Y-2.393
X3.378Y-1.893
X3.378Y-2.393
X3.478Y-1.893
X3.478Y-2.393
X3.578Y-1.893
X3.578Y-2.393
X3.678Y-1.893
X3.678Y-2.393
X3.778Y-1.893
X3.778Y-2.393
X3.878Y-1.893
X3.878Y-2.393
X3.978Y-1.893
X3.978Y-2.393
T6
X6.228Y-4.778
X6.228Y-4.878
X6.228Y-4.978
X1.528Y-2.078
X1.528Y-2.178
X1.978Y-5.528
X2.078Y-5.528
X6.328Y-3.078
X6.328Y-3.178
X6.328Y-2.778
X6.328Y-2.878
X2.428Y-5.528
X2.528Y-5.528
X2.728Y-5.528
X2.828Y-5.528
X5.278Y-5.528
X5.378Y-5.528
X5.478Y-5.528
X5.578Y-5.528
X4.578Y-5.528
X4.678Y-5.528
X4.778Y-5.528
X4.878Y-5.528
X4.978Y-5.528
X5.078Y-5.528
X1.528Y-2.578
X1.528Y-2.678
X3.028Y-5.528
X3.128Y-5.528
X5.778Y-5.528
X5.878Y-5.528
X1.528Y-4.928
X1.528Y-5.028
T7
X1.528Y-4.078
X1.528Y-4.178
X1.528Y-4.278
X1.528Y-4.378
X4.878Y-1.528
X4.978Y-1.528
X5.078Y-1.528
X5.178Y-1.528
X3.4254Y-5.6347
X3.7305Y-5.6347
X4.128Y-1.528
X4.228Y-1.528
X4.328Y-1.528
X4.428Y-1.528
X1.528Y-3.078
X1.528Y-3.178
X1.528Y-3.278
X1.528Y-3.378
X2.888Y-5.078
X2.988Y-5.078
X2.278Y-1.528
X2.378Y-1.528
X2.478Y-1.528
X2.578Y-1.528
X2.368Y-5.078
X2.468Y-5.078
X3.378Y-1.528
X3.478Y-1.528
X3.578Y-1.528
X3.678Y-1.528
X2.628Y-5.078
X2.728Y-5.078
X6.328Y-2.253
X6.328Y-2.353
X6.328Y-2.453
X6.328Y-2.553
X6.278Y-3.378
X6.278Y-3.5157
X5.328Y-1.528
X5.428Y-1.528
X5.528Y-1.528
X5.628Y-1.528
T8
X5.878Y-4.0031
X6.178Y-4.378
X3.078Y-4.298
X3.278Y-4.298
T9
X3.4313Y-5.4851
X3.7246Y-5.4851
T10
X1.6732Y-5.3543
X6.2008Y-5.3543
X6.2008Y-1.7323
X1.6732Y-1.7323
T0
M30
