M48
; DRILL file {KiCad (5.1.5)-3} date 23.06.2020 00:23:05
; FORMAT={-:-/ absolute / inch / decimal}
; #@! TF.CreationDate,2020-06-23T00:23:05+02:00
; #@! TF.GenerationSoftware,Kicad,Pcbnew,(5.1.5)-3
; #@! TF.FileFunction,NonPlated,1,2,NPTH
FMAT,2
INCH
T1C0.0315
T2C0.0433
%
G90
G05
T1
X3.4795Y-5.5265
X3.6764Y-5.5265
T2
X1.428Y-2.578
X1.428Y-2.678
X3.028Y-5.628
X3.128Y-5.628
X5.778Y-5.628
X5.878Y-5.628
X1.428Y-4.928
X1.428Y-5.028
X6.328Y-4.778
X6.328Y-4.878
X6.328Y-4.978
X1.428Y-2.078
X1.428Y-2.178
X1.978Y-5.628
X2.078Y-5.628
X6.428Y-3.078
X6.428Y-3.178
X6.428Y-2.778
X6.428Y-2.878
X2.428Y-5.628
X2.528Y-5.628
X2.728Y-5.628
X2.828Y-5.628
T0
M30
