G04 #@! TF.GenerationSoftware,KiCad,Pcbnew,(5.1.5)-3*
G04 #@! TF.CreationDate,2020-06-23T00:22:59+02:00*
G04 #@! TF.ProjectId,3D_Printer_Mainboard_STM32,33445f50-7269-46e7-9465-725f4d61696e,rev?*
G04 #@! TF.SameCoordinates,Original*
G04 #@! TF.FileFunction,Legend,Bot*
G04 #@! TF.FilePolarity,Positive*
%FSLAX46Y46*%
G04 Gerber Fmt 4.6, Leading zero omitted, Abs format (unit mm)*
G04 Created by KiCad (PCBNEW (5.1.5)-3) date 2020-06-23 00:22:59*
%MOMM*%
%LPD*%
G04 APERTURE LIST*
%ADD10C,0.300000*%
%ADD11C,0.100000*%
%ADD12C,0.200000*%
%ADD13C,0.254000*%
G04 APERTURE END LIST*
D10*
X160178571Y-110714285D02*
X161678571Y-111214285D01*
X160178571Y-111714285D01*
X161678571Y-113000000D02*
X161678571Y-112142857D01*
X161678571Y-112571428D02*
X160178571Y-112571428D01*
X160392857Y-112428571D01*
X160535714Y-112285714D01*
X160607142Y-112142857D01*
X161535714Y-113642857D02*
X161607142Y-113714285D01*
X161678571Y-113642857D01*
X161607142Y-113571428D01*
X161535714Y-113642857D01*
X161678571Y-113642857D01*
X161678571Y-115142857D02*
X161678571Y-114285714D01*
X161678571Y-114714285D02*
X160178571Y-114714285D01*
X160392857Y-114571428D01*
X160535714Y-114428571D01*
X160607142Y-114285714D01*
X157903571Y-97392857D02*
X157903571Y-98321428D01*
X158475000Y-97821428D01*
X158475000Y-98035714D01*
X158546428Y-98178571D01*
X158617857Y-98250000D01*
X158760714Y-98321428D01*
X159117857Y-98321428D01*
X159260714Y-98250000D01*
X159332142Y-98178571D01*
X159403571Y-98035714D01*
X159403571Y-97607142D01*
X159332142Y-97464285D01*
X159260714Y-97392857D01*
X159403571Y-98964285D02*
X157903571Y-98964285D01*
X157903571Y-99321428D01*
X157975000Y-99535714D01*
X158117857Y-99678571D01*
X158260714Y-99750000D01*
X158546428Y-99821428D01*
X158760714Y-99821428D01*
X159046428Y-99750000D01*
X159189285Y-99678571D01*
X159332142Y-99535714D01*
X159403571Y-99321428D01*
X159403571Y-98964285D01*
X159403571Y-101607142D02*
X157903571Y-101607142D01*
X157903571Y-102178571D01*
X157975000Y-102321428D01*
X158046428Y-102392857D01*
X158189285Y-102464285D01*
X158403571Y-102464285D01*
X158546428Y-102392857D01*
X158617857Y-102321428D01*
X158689285Y-102178571D01*
X158689285Y-101607142D01*
X159403571Y-103107142D02*
X158403571Y-103107142D01*
X158689285Y-103107142D02*
X158546428Y-103178571D01*
X158475000Y-103250000D01*
X158403571Y-103392857D01*
X158403571Y-103535714D01*
X159403571Y-104035714D02*
X158403571Y-104035714D01*
X157903571Y-104035714D02*
X157975000Y-103964285D01*
X158046428Y-104035714D01*
X157975000Y-104107142D01*
X157903571Y-104035714D01*
X158046428Y-104035714D01*
X158403571Y-104750000D02*
X159403571Y-104750000D01*
X158546428Y-104750000D02*
X158475000Y-104821428D01*
X158403571Y-104964285D01*
X158403571Y-105178571D01*
X158475000Y-105321428D01*
X158617857Y-105392857D01*
X159403571Y-105392857D01*
X158403571Y-105892857D02*
X158403571Y-106464285D01*
X157903571Y-106107142D02*
X159189285Y-106107142D01*
X159332142Y-106178571D01*
X159403571Y-106321428D01*
X159403571Y-106464285D01*
X159332142Y-107535714D02*
X159403571Y-107392857D01*
X159403571Y-107107142D01*
X159332142Y-106964285D01*
X159189285Y-106892857D01*
X158617857Y-106892857D01*
X158475000Y-106964285D01*
X158403571Y-107107142D01*
X158403571Y-107392857D01*
X158475000Y-107535714D01*
X158617857Y-107607142D01*
X158760714Y-107607142D01*
X158903571Y-106892857D01*
X159403571Y-108250000D02*
X158403571Y-108250000D01*
X158689285Y-108250000D02*
X158546428Y-108321428D01*
X158475000Y-108392857D01*
X158403571Y-108535714D01*
X158403571Y-108678571D01*
X161953571Y-97607142D02*
X160453571Y-97607142D01*
X161525000Y-98107142D01*
X160453571Y-98607142D01*
X161953571Y-98607142D01*
X161953571Y-99964285D02*
X161167857Y-99964285D01*
X161025000Y-99892857D01*
X160953571Y-99750000D01*
X160953571Y-99464285D01*
X161025000Y-99321428D01*
X161882142Y-99964285D02*
X161953571Y-99821428D01*
X161953571Y-99464285D01*
X161882142Y-99321428D01*
X161739285Y-99250000D01*
X161596428Y-99250000D01*
X161453571Y-99321428D01*
X161382142Y-99464285D01*
X161382142Y-99821428D01*
X161310714Y-99964285D01*
X161953571Y-100678571D02*
X160953571Y-100678571D01*
X160453571Y-100678571D02*
X160525000Y-100607142D01*
X160596428Y-100678571D01*
X160525000Y-100750000D01*
X160453571Y-100678571D01*
X160596428Y-100678571D01*
X160953571Y-101392857D02*
X161953571Y-101392857D01*
X161096428Y-101392857D02*
X161025000Y-101464285D01*
X160953571Y-101607142D01*
X160953571Y-101821428D01*
X161025000Y-101964285D01*
X161167857Y-102035714D01*
X161953571Y-102035714D01*
X161953571Y-102750000D02*
X160453571Y-102750000D01*
X161025000Y-102750000D02*
X160953571Y-102892857D01*
X160953571Y-103178571D01*
X161025000Y-103321428D01*
X161096428Y-103392857D01*
X161239285Y-103464285D01*
X161667857Y-103464285D01*
X161810714Y-103392857D01*
X161882142Y-103321428D01*
X161953571Y-103178571D01*
X161953571Y-102892857D01*
X161882142Y-102750000D01*
X161953571Y-104321428D02*
X161882142Y-104178571D01*
X161810714Y-104107142D01*
X161667857Y-104035714D01*
X161239285Y-104035714D01*
X161096428Y-104107142D01*
X161025000Y-104178571D01*
X160953571Y-104321428D01*
X160953571Y-104535714D01*
X161025000Y-104678571D01*
X161096428Y-104750000D01*
X161239285Y-104821428D01*
X161667857Y-104821428D01*
X161810714Y-104750000D01*
X161882142Y-104678571D01*
X161953571Y-104535714D01*
X161953571Y-104321428D01*
X161953571Y-106107142D02*
X161167857Y-106107142D01*
X161025000Y-106035714D01*
X160953571Y-105892857D01*
X160953571Y-105607142D01*
X161025000Y-105464285D01*
X161882142Y-106107142D02*
X161953571Y-105964285D01*
X161953571Y-105607142D01*
X161882142Y-105464285D01*
X161739285Y-105392857D01*
X161596428Y-105392857D01*
X161453571Y-105464285D01*
X161382142Y-105607142D01*
X161382142Y-105964285D01*
X161310714Y-106107142D01*
X161953571Y-106821428D02*
X160953571Y-106821428D01*
X161239285Y-106821428D02*
X161096428Y-106892857D01*
X161025000Y-106964285D01*
X160953571Y-107107142D01*
X160953571Y-107250000D01*
X161953571Y-108392857D02*
X160453571Y-108392857D01*
X161882142Y-108392857D02*
X161953571Y-108250000D01*
X161953571Y-107964285D01*
X161882142Y-107821428D01*
X161810714Y-107750000D01*
X161667857Y-107678571D01*
X161239285Y-107678571D01*
X161096428Y-107750000D01*
X161025000Y-107821428D01*
X160953571Y-107964285D01*
X160953571Y-108250000D01*
X161025000Y-108392857D01*
D11*
X97485000Y-136629000D02*
X97485000Y-144125000D01*
X97485000Y-144125000D02*
X112215000Y-144125000D01*
X112215000Y-144125000D02*
X112215000Y-138661000D01*
X97485000Y-124437000D02*
X97485000Y-122405000D01*
X112215000Y-123421000D02*
X112215000Y-122405000D01*
X112215000Y-122405000D02*
X111199000Y-122405000D01*
D12*
X113615000Y-125205000D02*
X113615000Y-125205000D01*
X113615000Y-125005000D02*
X113615000Y-125005000D01*
X113615000Y-125005000D02*
G75*
G03X113615000Y-125205000I0J-100000D01*
G01*
X113615000Y-125205000D02*
G75*
G03X113615000Y-125005000I0J100000D01*
G01*
D13*
X107299285Y-133364523D02*
X107299285Y-132094523D01*
X105968809Y-133243571D02*
X106029285Y-133304047D01*
X106210714Y-133364523D01*
X106331666Y-133364523D01*
X106513095Y-133304047D01*
X106634047Y-133183095D01*
X106694523Y-133062142D01*
X106755000Y-132820238D01*
X106755000Y-132638809D01*
X106694523Y-132396904D01*
X106634047Y-132275952D01*
X106513095Y-132155000D01*
X106331666Y-132094523D01*
X106210714Y-132094523D01*
X106029285Y-132155000D01*
X105968809Y-132215476D01*
X104880238Y-132517857D02*
X104880238Y-133364523D01*
X105182619Y-132034047D02*
X105485000Y-132941190D01*
X104698809Y-132941190D01*
X103973095Y-132094523D02*
X103852142Y-132094523D01*
X103731190Y-132155000D01*
X103670714Y-132215476D01*
X103610238Y-132336428D01*
X103549761Y-132578333D01*
X103549761Y-132880714D01*
X103610238Y-133122619D01*
X103670714Y-133243571D01*
X103731190Y-133304047D01*
X103852142Y-133364523D01*
X103973095Y-133364523D01*
X104094047Y-133304047D01*
X104154523Y-133243571D01*
X104215000Y-133122619D01*
X104275476Y-132880714D01*
X104275476Y-132578333D01*
X104215000Y-132336428D01*
X104154523Y-132215476D01*
X104094047Y-132155000D01*
X103973095Y-132094523D01*
X102340238Y-133364523D02*
X103065952Y-133364523D01*
X102703095Y-133364523D02*
X102703095Y-132094523D01*
X102824047Y-132275952D01*
X102945000Y-132396904D01*
X103065952Y-132457380D01*
M02*
