M48
; DRILL file {KiCad (5.1.5)-3} date 13.05.2020 09:52:36
; FORMAT={-:-/ absolute / inch / decimal}
; #@! TF.CreationDate,2020-05-13T09:52:36+02:00
; #@! TF.GenerationSoftware,Kicad,Pcbnew,(5.1.5)-3
; #@! TF.FileFunction,Plated,1,2,PTH
FMAT,2
INCH
T1C0.0079
T2C0.0157
T3C0.0394
%
G90
G05
T1
X0.81Y-1.065
X0.825Y-1.43
X0.835Y-1.35
X0.87Y-1.455
X0.9376Y-1.3374
X0.95Y-1.365
X0.96Y-1.295
X0.9775Y-1.485
X1.0079Y-1.4835
X1.01Y-1.4485
X1.015Y-1.25
X1.02Y-1.4
X1.028Y-1.2766
X1.03Y-1.565
X1.0375Y-1.3775
X1.0641Y-1.2
X1.065Y-1.41
X1.065Y-1.5027
X1.07Y-1.17
X1.12Y-1.72
X1.14Y-1.1699
X1.145Y-1.095
X1.17Y-1.17
X1.195Y-1.72
X1.21Y-0.92
X1.24Y-0.92
X1.27Y-0.92
X1.285Y-1.665
X1.3Y-0.92
X1.315Y-1.675
X1.33Y-0.92
X1.345Y-1.675
X1.51Y-0.925
X1.1024Y-1.2579
X1.1024Y-1.2972
X1.1024Y-1.3366
X1.1417Y-1.2579
X1.1417Y-1.2972
X1.1417Y-1.3366
X1.1811Y-1.2579
X1.1811Y-1.2972
X1.1811Y-1.3366
T2
X0.9525Y-1.63
X0.96Y-1.055
X0.965Y-0.865
X0.965Y-0.945
X1.09Y-1.61
X1.15Y-0.855
X1.15Y-0.9
X1.21Y-1.67
X1.22Y-1.395
X1.225Y-1.2
X1.25Y-1.67
T3
X1.4Y-0.9
X1.4Y-1.0
X1.4Y-1.1
X1.4Y-1.2
X1.4Y-1.3
X1.4Y-1.4
X1.4Y-1.5
X1.4Y-1.6
X1.4Y-1.7
X0.9Y-0.9
X0.9Y-1.0
X0.9Y-1.1
X0.9Y-1.2
X0.9Y-1.3
X0.9Y-1.4
X0.9Y-1.5
X0.9Y-1.6
X0.9Y-1.7
T0
M30
