G04 #@! TF.GenerationSoftware,KiCad,Pcbnew,(5.1.5)-3*
G04 #@! TF.CreationDate,2020-05-13T09:52:28+02:00*
G04 #@! TF.ProjectId,3D_Printer_Stepper_TMC2209,33445f50-7269-46e7-9465-725f53746570,rev?*
G04 #@! TF.SameCoordinates,Original*
G04 #@! TF.FileFunction,Copper,L2,Bot*
G04 #@! TF.FilePolarity,Positive*
%FSLAX46Y46*%
G04 Gerber Fmt 4.6, Leading zero omitted, Abs format (unit mm)*
G04 Created by KiCad (PCBNEW (5.1.5)-3) date 2020-05-13 09:52:28*
%MOMM*%
%LPD*%
G04 APERTURE LIST*
%ADD10C,0.500000*%
%ADD11C,0.100000*%
%ADD12O,1.700000X1.700000*%
%ADD13R,1.700000X1.700000*%
%ADD14C,0.450000*%
%ADD15C,0.800000*%
%ADD16C,0.200000*%
%ADD17C,0.254000*%
%ADD18C,0.127000*%
G04 APERTURE END LIST*
D10*
X30000000Y-31950000D03*
X30000000Y-32950000D03*
X30000000Y-33950000D03*
X29000000Y-31950000D03*
X29000000Y-32950000D03*
X29000000Y-33950000D03*
X28000000Y-31950000D03*
X28000000Y-32950000D03*
X28000000Y-33950000D03*
G04 #@! TA.AperFunction,Conductor*
D11*
G36*
X30024504Y-31701204D02*
G01*
X30048773Y-31704804D01*
X30072571Y-31710765D01*
X30095671Y-31719030D01*
X30117849Y-31729520D01*
X30138893Y-31742133D01*
X30158598Y-31756747D01*
X30176777Y-31773223D01*
X30193253Y-31791402D01*
X30207867Y-31811107D01*
X30220480Y-31832151D01*
X30230970Y-31854329D01*
X30239235Y-31877429D01*
X30245196Y-31901227D01*
X30248796Y-31925496D01*
X30250000Y-31950000D01*
X30250000Y-33950000D01*
X30248796Y-33974504D01*
X30245196Y-33998773D01*
X30239235Y-34022571D01*
X30230970Y-34045671D01*
X30220480Y-34067849D01*
X30207867Y-34088893D01*
X30193253Y-34108598D01*
X30176777Y-34126777D01*
X30158598Y-34143253D01*
X30138893Y-34157867D01*
X30117849Y-34170480D01*
X30095671Y-34180970D01*
X30072571Y-34189235D01*
X30048773Y-34195196D01*
X30024504Y-34198796D01*
X30000000Y-34200000D01*
X28000000Y-34200000D01*
X27975496Y-34198796D01*
X27951227Y-34195196D01*
X27927429Y-34189235D01*
X27904329Y-34180970D01*
X27882151Y-34170480D01*
X27861107Y-34157867D01*
X27841402Y-34143253D01*
X27823223Y-34126777D01*
X27806747Y-34108598D01*
X27792133Y-34088893D01*
X27779520Y-34067849D01*
X27769030Y-34045671D01*
X27760765Y-34022571D01*
X27754804Y-33998773D01*
X27751204Y-33974504D01*
X27750000Y-33950000D01*
X27750000Y-31950000D01*
X27751204Y-31925496D01*
X27754804Y-31901227D01*
X27760765Y-31877429D01*
X27769030Y-31854329D01*
X27779520Y-31832151D01*
X27792133Y-31811107D01*
X27806747Y-31791402D01*
X27823223Y-31773223D01*
X27841402Y-31756747D01*
X27861107Y-31742133D01*
X27882151Y-31729520D01*
X27904329Y-31719030D01*
X27927429Y-31710765D01*
X27951227Y-31704804D01*
X27975496Y-31701204D01*
X28000000Y-31700000D01*
X30000000Y-31700000D01*
X30024504Y-31701204D01*
G37*
G04 #@! TD.AperFunction*
D12*
X22860000Y-43180000D03*
X22860000Y-40640000D03*
X22860000Y-38100000D03*
X22860000Y-35560000D03*
X22860000Y-33020000D03*
X22860000Y-30480000D03*
X22860000Y-27940000D03*
X22860000Y-25400000D03*
D13*
X22860000Y-22860000D03*
X35560000Y-22860000D03*
D12*
X35560000Y-25400000D03*
X35560000Y-27940000D03*
X35560000Y-30480000D03*
X35560000Y-33020000D03*
X35560000Y-35560000D03*
X35560000Y-38100000D03*
X35560000Y-40640000D03*
X35560000Y-43180000D03*
D14*
X29083000Y-27813000D03*
X28956000Y-29715598D03*
X30353000Y-43688000D03*
X28448000Y-43688000D03*
X24384000Y-32893000D03*
D15*
X24511000Y-24003000D03*
X24511000Y-21971000D03*
X27686000Y-40894000D03*
X24193500Y-41402000D03*
D14*
X26162000Y-39751000D03*
D15*
X24384000Y-26797000D03*
X29210000Y-22860000D03*
X29210000Y-21717000D03*
D14*
X30734000Y-23368000D03*
X31496000Y-23368000D03*
X32258000Y-23368000D03*
X33020000Y-23368000D03*
X33782000Y-23368000D03*
X34163000Y-42545000D03*
D15*
X30734000Y-42418000D03*
X31750000Y-42418000D03*
D14*
X20955000Y-36322000D03*
X27178000Y-29718000D03*
X33401000Y-42545000D03*
X24828500Y-37719000D03*
X27051000Y-38167412D03*
X32639000Y-42291000D03*
X38354000Y-23495000D03*
X27051000Y-35814000D03*
X25600000Y-37680033D03*
X25908000Y-35560000D03*
X29718000Y-29718000D03*
X21209000Y-34290000D03*
X25781000Y-31750000D03*
X23814613Y-33970387D03*
X26110502Y-32425947D03*
X27027000Y-30480000D03*
X24130000Y-34671000D03*
X22098004Y-36957000D03*
X20574000Y-27051000D03*
X25654000Y-36791022D03*
D15*
X30988000Y-35433000D03*
X31115000Y-30480000D03*
D14*
X26352500Y-34988500D03*
D16*
X29083000Y-29646591D02*
X29013993Y-29715598D01*
X29083000Y-29715598D02*
X29083000Y-27813000D01*
X28956000Y-34669000D02*
X28956000Y-34798000D01*
X28956000Y-34798000D02*
X29083000Y-34925000D01*
X27051000Y-37849214D02*
X27051000Y-35814000D01*
X27051000Y-38167412D02*
X27051000Y-37849214D01*
X28515412Y-38167412D02*
X32639000Y-42291000D01*
X27051000Y-38167412D02*
X28515412Y-38167412D01*
X35560000Y-25400000D02*
X37338000Y-25400000D01*
X38354000Y-24384000D02*
X38354000Y-23495000D01*
X37338000Y-25400000D02*
X38354000Y-24384000D01*
X25276912Y-38167412D02*
X27051000Y-38167412D01*
X24828500Y-37719000D02*
X25276912Y-38167412D01*
X26416000Y-36864033D02*
X26416000Y-36068000D01*
X25600000Y-37680033D02*
X26416000Y-36864033D01*
X26416000Y-36830000D02*
X26416000Y-36068000D01*
X25908000Y-35560000D02*
X26144014Y-35769746D01*
X26416000Y-36041732D02*
X26416000Y-36068000D01*
X26144014Y-35769746D02*
X26416000Y-36041732D01*
X29718000Y-30226000D02*
X29718000Y-29718000D01*
X29591000Y-30353000D02*
X29718000Y-30226000D01*
X21209000Y-29972000D02*
X22134622Y-29046378D01*
X28702000Y-30353000D02*
X29591000Y-30353000D01*
X21209000Y-34290000D02*
X21209000Y-29972000D01*
X22134622Y-29046378D02*
X27395378Y-29046378D01*
X27395378Y-29046378D02*
X28702000Y-30353000D01*
X25781000Y-31750000D02*
X25556001Y-31974999D01*
X25556001Y-31974999D02*
X25556001Y-33498999D01*
X25084613Y-33970387D02*
X23814613Y-33970387D01*
X25556001Y-33498999D02*
X25084613Y-33970387D01*
X24671962Y-35560000D02*
X25306962Y-34925000D01*
X22860000Y-35560000D02*
X24671962Y-35560000D01*
X25306962Y-34925000D02*
X26110502Y-34121460D01*
X26110502Y-34121460D02*
X26110502Y-32425947D01*
X23709999Y-32170001D02*
X23709999Y-31662001D01*
X22860000Y-33020000D02*
X23709999Y-32170001D01*
X23709999Y-31662001D02*
X24892000Y-30480000D01*
X24892000Y-30480000D02*
X27027000Y-30480000D01*
X21590000Y-33909000D02*
X21971000Y-34290000D01*
X22860000Y-30480000D02*
X21590000Y-31750000D01*
X21590000Y-31750000D02*
X21590000Y-33909000D01*
X22127001Y-34446001D02*
X21971000Y-34290000D01*
X23905001Y-34446001D02*
X22127001Y-34446001D01*
X24130000Y-34671000D02*
X23905001Y-34446001D01*
X19939000Y-36195000D02*
X20701000Y-36957000D01*
X19939000Y-26289000D02*
X19939000Y-36195000D01*
X22860000Y-25400000D02*
X20828000Y-25400000D01*
X20701000Y-36957000D02*
X22098004Y-36957000D01*
X20828000Y-25400000D02*
X19939000Y-26289000D01*
X20574000Y-35145038D02*
X20574000Y-27051000D01*
X21933959Y-36504997D02*
X20574000Y-35145038D01*
X22314961Y-36504997D02*
X21933959Y-36504997D01*
X25654000Y-36791022D02*
X22600986Y-36791022D01*
X22600986Y-36791022D02*
X22314961Y-36504997D01*
X26217990Y-34925000D02*
X26281490Y-34988500D01*
X27368500Y-34988500D02*
X27431233Y-35051233D01*
X26281490Y-34988500D02*
X27368500Y-34988500D01*
X27686000Y-35306000D02*
X27368500Y-34988500D01*
X27686000Y-36322000D02*
X27686000Y-35306000D01*
X32131000Y-40767000D02*
X27686000Y-36322000D01*
X35560000Y-43180000D02*
X33147000Y-40767000D01*
X33147000Y-40767000D02*
X32131000Y-40767000D01*
D17*
G36*
X37545984Y-29090856D02*
G01*
X37568859Y-29106141D01*
X37584144Y-29129016D01*
X37592000Y-29168509D01*
X37592000Y-35960363D01*
X37582294Y-36003969D01*
X37555005Y-36039346D01*
X36939822Y-36551999D01*
X36908779Y-36569816D01*
X36873534Y-36576000D01*
X34629509Y-36576000D01*
X34590016Y-36568144D01*
X34567141Y-36552859D01*
X34551856Y-36529984D01*
X34544000Y-36490491D01*
X34544000Y-34502509D01*
X34551856Y-34463016D01*
X34567141Y-34440141D01*
X34590016Y-34424856D01*
X34629509Y-34417000D01*
X36630000Y-34417000D01*
X36654776Y-34414560D01*
X36731313Y-34399336D01*
X36755138Y-34392109D01*
X36777095Y-34380372D01*
X36841979Y-34337017D01*
X36861224Y-34321223D01*
X36877017Y-34301979D01*
X36920372Y-34237095D01*
X36932108Y-34215139D01*
X36939336Y-34191313D01*
X36954560Y-34114776D01*
X36957000Y-34090000D01*
X36957000Y-32077000D01*
X36954560Y-32052224D01*
X36939336Y-31975687D01*
X36932109Y-31951862D01*
X36920372Y-31929905D01*
X36877017Y-31865021D01*
X36861223Y-31845776D01*
X36841979Y-31829983D01*
X36777095Y-31786628D01*
X36755139Y-31774892D01*
X36731313Y-31767664D01*
X36654776Y-31752440D01*
X36630000Y-31750000D01*
X34385352Y-31750000D01*
X34345858Y-31742144D01*
X34312382Y-31719776D01*
X33549382Y-30956776D01*
X33530137Y-30940983D01*
X33465252Y-30897628D01*
X33443295Y-30885891D01*
X33419470Y-30878664D01*
X33342933Y-30863440D01*
X33318157Y-30861000D01*
X30946509Y-30861000D01*
X30907016Y-30853144D01*
X30884141Y-30837859D01*
X30868856Y-30814984D01*
X30861000Y-30775491D01*
X30861000Y-30371265D01*
X34456000Y-30371265D01*
X34456000Y-30588735D01*
X34498426Y-30802025D01*
X34581648Y-31002940D01*
X34702467Y-31183759D01*
X34856241Y-31337533D01*
X35037060Y-31458352D01*
X35237975Y-31541574D01*
X35451265Y-31584000D01*
X35668735Y-31584000D01*
X35882025Y-31541574D01*
X36082940Y-31458352D01*
X36263759Y-31337533D01*
X36417533Y-31183759D01*
X36538352Y-31002940D01*
X36621574Y-30802025D01*
X36664000Y-30588735D01*
X36664000Y-30371265D01*
X36621574Y-30157975D01*
X36538352Y-29957060D01*
X36417533Y-29776241D01*
X36263759Y-29622467D01*
X36082940Y-29501648D01*
X35882025Y-29418426D01*
X35668735Y-29376000D01*
X35451265Y-29376000D01*
X35237975Y-29418426D01*
X35037060Y-29501648D01*
X34856241Y-29622467D01*
X34702467Y-29776241D01*
X34581648Y-29957060D01*
X34498426Y-30157975D01*
X34456000Y-30371265D01*
X30861000Y-30371265D01*
X30861000Y-29803509D01*
X30868856Y-29764016D01*
X30884141Y-29741141D01*
X30907016Y-29725856D01*
X30946509Y-29718000D01*
X33572157Y-29718000D01*
X33596933Y-29715560D01*
X33673470Y-29700336D01*
X33697295Y-29693109D01*
X33719252Y-29681372D01*
X33784137Y-29638017D01*
X33803382Y-29622224D01*
X34312382Y-29113224D01*
X34345858Y-29090856D01*
X34385352Y-29083000D01*
X37506491Y-29083000D01*
X37545984Y-29090856D01*
G37*
X37545984Y-29090856D02*
X37568859Y-29106141D01*
X37584144Y-29129016D01*
X37592000Y-29168509D01*
X37592000Y-35960363D01*
X37582294Y-36003969D01*
X37555005Y-36039346D01*
X36939822Y-36551999D01*
X36908779Y-36569816D01*
X36873534Y-36576000D01*
X34629509Y-36576000D01*
X34590016Y-36568144D01*
X34567141Y-36552859D01*
X34551856Y-36529984D01*
X34544000Y-36490491D01*
X34544000Y-34502509D01*
X34551856Y-34463016D01*
X34567141Y-34440141D01*
X34590016Y-34424856D01*
X34629509Y-34417000D01*
X36630000Y-34417000D01*
X36654776Y-34414560D01*
X36731313Y-34399336D01*
X36755138Y-34392109D01*
X36777095Y-34380372D01*
X36841979Y-34337017D01*
X36861224Y-34321223D01*
X36877017Y-34301979D01*
X36920372Y-34237095D01*
X36932108Y-34215139D01*
X36939336Y-34191313D01*
X36954560Y-34114776D01*
X36957000Y-34090000D01*
X36957000Y-32077000D01*
X36954560Y-32052224D01*
X36939336Y-31975687D01*
X36932109Y-31951862D01*
X36920372Y-31929905D01*
X36877017Y-31865021D01*
X36861223Y-31845776D01*
X36841979Y-31829983D01*
X36777095Y-31786628D01*
X36755139Y-31774892D01*
X36731313Y-31767664D01*
X36654776Y-31752440D01*
X36630000Y-31750000D01*
X34385352Y-31750000D01*
X34345858Y-31742144D01*
X34312382Y-31719776D01*
X33549382Y-30956776D01*
X33530137Y-30940983D01*
X33465252Y-30897628D01*
X33443295Y-30885891D01*
X33419470Y-30878664D01*
X33342933Y-30863440D01*
X33318157Y-30861000D01*
X30946509Y-30861000D01*
X30907016Y-30853144D01*
X30884141Y-30837859D01*
X30868856Y-30814984D01*
X30861000Y-30775491D01*
X30861000Y-30371265D01*
X34456000Y-30371265D01*
X34456000Y-30588735D01*
X34498426Y-30802025D01*
X34581648Y-31002940D01*
X34702467Y-31183759D01*
X34856241Y-31337533D01*
X35037060Y-31458352D01*
X35237975Y-31541574D01*
X35451265Y-31584000D01*
X35668735Y-31584000D01*
X35882025Y-31541574D01*
X36082940Y-31458352D01*
X36263759Y-31337533D01*
X36417533Y-31183759D01*
X36538352Y-31002940D01*
X36621574Y-30802025D01*
X36664000Y-30588735D01*
X36664000Y-30371265D01*
X36621574Y-30157975D01*
X36538352Y-29957060D01*
X36417533Y-29776241D01*
X36263759Y-29622467D01*
X36082940Y-29501648D01*
X35882025Y-29418426D01*
X35668735Y-29376000D01*
X35451265Y-29376000D01*
X35237975Y-29418426D01*
X35037060Y-29501648D01*
X34856241Y-29622467D01*
X34702467Y-29776241D01*
X34581648Y-29957060D01*
X34498426Y-30157975D01*
X34456000Y-30371265D01*
X30861000Y-30371265D01*
X30861000Y-29803509D01*
X30868856Y-29764016D01*
X30884141Y-29741141D01*
X30907016Y-29725856D01*
X30946509Y-29718000D01*
X33572157Y-29718000D01*
X33596933Y-29715560D01*
X33673470Y-29700336D01*
X33697295Y-29693109D01*
X33719252Y-29681372D01*
X33784137Y-29638017D01*
X33803382Y-29622224D01*
X34312382Y-29113224D01*
X34345858Y-29090856D01*
X34385352Y-29083000D01*
X37506491Y-29083000D01*
X37545984Y-29090856D01*
G36*
X36529984Y-32138856D02*
G01*
X36552859Y-32154141D01*
X36568144Y-32177016D01*
X36576000Y-32216509D01*
X36576000Y-33823491D01*
X36568144Y-33862984D01*
X36552859Y-33885859D01*
X36529984Y-33901144D01*
X36490491Y-33909000D01*
X34363000Y-33909000D01*
X34338224Y-33911440D01*
X34261687Y-33926664D01*
X34237862Y-33933891D01*
X34215905Y-33945628D01*
X34151021Y-33988983D01*
X34131776Y-34004777D01*
X34115983Y-34024021D01*
X34072628Y-34088905D01*
X34060892Y-34110861D01*
X34053664Y-34134687D01*
X34038440Y-34211224D01*
X34036000Y-34236000D01*
X34036000Y-35855491D01*
X34028144Y-35894984D01*
X34012859Y-35917859D01*
X33989984Y-35933144D01*
X33950491Y-35941000D01*
X30692509Y-35941000D01*
X30653016Y-35933144D01*
X30630141Y-35917859D01*
X30614856Y-35894984D01*
X30607000Y-35855491D01*
X30607000Y-35010509D01*
X30614856Y-34971016D01*
X30630141Y-34948141D01*
X30653016Y-34932856D01*
X30692509Y-34925000D01*
X31413157Y-34925000D01*
X31437933Y-34922560D01*
X31514470Y-34907336D01*
X31538295Y-34900109D01*
X31560252Y-34888372D01*
X31625137Y-34845017D01*
X31644382Y-34829224D01*
X34312382Y-32161224D01*
X34345858Y-32138856D01*
X34385352Y-32131000D01*
X36490491Y-32131000D01*
X36529984Y-32138856D01*
G37*
X36529984Y-32138856D02*
X36552859Y-32154141D01*
X36568144Y-32177016D01*
X36576000Y-32216509D01*
X36576000Y-33823491D01*
X36568144Y-33862984D01*
X36552859Y-33885859D01*
X36529984Y-33901144D01*
X36490491Y-33909000D01*
X34363000Y-33909000D01*
X34338224Y-33911440D01*
X34261687Y-33926664D01*
X34237862Y-33933891D01*
X34215905Y-33945628D01*
X34151021Y-33988983D01*
X34131776Y-34004777D01*
X34115983Y-34024021D01*
X34072628Y-34088905D01*
X34060892Y-34110861D01*
X34053664Y-34134687D01*
X34038440Y-34211224D01*
X34036000Y-34236000D01*
X34036000Y-35855491D01*
X34028144Y-35894984D01*
X34012859Y-35917859D01*
X33989984Y-35933144D01*
X33950491Y-35941000D01*
X30692509Y-35941000D01*
X30653016Y-35933144D01*
X30630141Y-35917859D01*
X30614856Y-35894984D01*
X30607000Y-35855491D01*
X30607000Y-35010509D01*
X30614856Y-34971016D01*
X30630141Y-34948141D01*
X30653016Y-34932856D01*
X30692509Y-34925000D01*
X31413157Y-34925000D01*
X31437933Y-34922560D01*
X31514470Y-34907336D01*
X31538295Y-34900109D01*
X31560252Y-34888372D01*
X31625137Y-34845017D01*
X31644382Y-34829224D01*
X34312382Y-32161224D01*
X34345858Y-32138856D01*
X34385352Y-32131000D01*
X36490491Y-32131000D01*
X36529984Y-32138856D01*
D18*
G36*
X39784501Y-44784500D02*
G01*
X19215500Y-44784500D01*
X19215500Y-43077520D01*
X21819500Y-43077520D01*
X21819500Y-43282480D01*
X21859485Y-43483503D01*
X21937920Y-43672862D01*
X22051791Y-43843280D01*
X22196720Y-43988209D01*
X22367138Y-44102080D01*
X22556497Y-44180515D01*
X22757520Y-44220500D01*
X22962480Y-44220500D01*
X23163503Y-44180515D01*
X23352862Y-44102080D01*
X23523280Y-43988209D01*
X23668209Y-43843280D01*
X23782080Y-43672862D01*
X23860515Y-43483503D01*
X23900500Y-43282480D01*
X23900500Y-43077520D01*
X23860515Y-42876497D01*
X23782080Y-42687138D01*
X23668209Y-42516720D01*
X23523280Y-42371791D01*
X23352862Y-42257920D01*
X23163503Y-42179485D01*
X22962480Y-42139500D01*
X22757520Y-42139500D01*
X22556497Y-42179485D01*
X22367138Y-42257920D01*
X22196720Y-42371791D01*
X22051791Y-42516720D01*
X21937920Y-42687138D01*
X21859485Y-42876497D01*
X21819500Y-43077520D01*
X19215500Y-43077520D01*
X19215500Y-40537520D01*
X21819500Y-40537520D01*
X21819500Y-40742480D01*
X21859485Y-40943503D01*
X21937920Y-41132862D01*
X22051791Y-41303280D01*
X22196720Y-41448209D01*
X22367138Y-41562080D01*
X22556497Y-41640515D01*
X22757520Y-41680500D01*
X22962480Y-41680500D01*
X23163503Y-41640515D01*
X23352862Y-41562080D01*
X23523280Y-41448209D01*
X23668209Y-41303280D01*
X23782080Y-41132862D01*
X23860515Y-40943503D01*
X23900500Y-40742480D01*
X23900500Y-40537520D01*
X23860515Y-40336497D01*
X23782080Y-40147138D01*
X23668209Y-39976720D01*
X23523280Y-39831791D01*
X23352862Y-39717920D01*
X23163503Y-39639485D01*
X22962480Y-39599500D01*
X22757520Y-39599500D01*
X22556497Y-39639485D01*
X22367138Y-39717920D01*
X22196720Y-39831791D01*
X22051791Y-39976720D01*
X21937920Y-40147138D01*
X21859485Y-40336497D01*
X21819500Y-40537520D01*
X19215500Y-40537520D01*
X19215500Y-26289000D01*
X19647096Y-26289000D01*
X19648500Y-26303257D01*
X19648501Y-36180733D01*
X19647096Y-36195000D01*
X19652704Y-36251947D01*
X19669316Y-36306707D01*
X19696290Y-36357173D01*
X19723499Y-36390327D01*
X19732593Y-36401408D01*
X19743674Y-36410502D01*
X20485498Y-37152327D01*
X20494592Y-37163408D01*
X20505672Y-37172501D01*
X20538826Y-37199710D01*
X20589292Y-37226685D01*
X20644052Y-37243296D01*
X20701000Y-37248905D01*
X20715265Y-37247500D01*
X21800898Y-37247500D01*
X21833138Y-37279740D01*
X21901191Y-37325211D01*
X21976807Y-37356532D01*
X22057081Y-37372500D01*
X22116011Y-37372500D01*
X22051791Y-37436720D01*
X21937920Y-37607138D01*
X21859485Y-37796497D01*
X21819500Y-37997520D01*
X21819500Y-38202480D01*
X21859485Y-38403503D01*
X21937920Y-38592862D01*
X22051791Y-38763280D01*
X22196720Y-38908209D01*
X22367138Y-39022080D01*
X22556497Y-39100515D01*
X22757520Y-39140500D01*
X22962480Y-39140500D01*
X23163503Y-39100515D01*
X23352862Y-39022080D01*
X23523280Y-38908209D01*
X23668209Y-38763280D01*
X23782080Y-38592862D01*
X23860515Y-38403503D01*
X23900500Y-38202480D01*
X23900500Y-37997520D01*
X23860515Y-37796497D01*
X23782080Y-37607138D01*
X23668209Y-37436720D01*
X23523280Y-37291791D01*
X23352862Y-37177920D01*
X23163503Y-37099485D01*
X23073195Y-37081522D01*
X25356894Y-37081522D01*
X25389134Y-37113762D01*
X25457187Y-37159233D01*
X25532803Y-37190554D01*
X25613077Y-37206522D01*
X25662683Y-37206522D01*
X25604672Y-37264533D01*
X25559077Y-37264533D01*
X25478803Y-37280501D01*
X25403187Y-37311822D01*
X25335134Y-37357293D01*
X25277260Y-37415167D01*
X25231789Y-37483220D01*
X25206180Y-37545047D01*
X25196711Y-37522187D01*
X25151240Y-37454134D01*
X25093366Y-37396260D01*
X25025313Y-37350789D01*
X24949697Y-37319468D01*
X24869423Y-37303500D01*
X24787577Y-37303500D01*
X24707303Y-37319468D01*
X24631687Y-37350789D01*
X24563634Y-37396260D01*
X24505760Y-37454134D01*
X24460289Y-37522187D01*
X24428968Y-37597803D01*
X24413000Y-37678077D01*
X24413000Y-37759923D01*
X24428968Y-37840197D01*
X24460289Y-37915813D01*
X24505760Y-37983866D01*
X24563634Y-38041740D01*
X24631687Y-38087211D01*
X24707303Y-38118532D01*
X24787577Y-38134500D01*
X24833172Y-38134500D01*
X25061410Y-38362739D01*
X25070504Y-38373820D01*
X25114738Y-38410122D01*
X25165205Y-38437097D01*
X25219964Y-38453708D01*
X25262647Y-38457912D01*
X25262656Y-38457912D01*
X25276911Y-38459316D01*
X25291166Y-38457912D01*
X26753894Y-38457912D01*
X26786134Y-38490152D01*
X26854187Y-38535623D01*
X26929803Y-38566944D01*
X27010077Y-38582912D01*
X27091923Y-38582912D01*
X27172197Y-38566944D01*
X27247813Y-38535623D01*
X27315866Y-38490152D01*
X27348106Y-38457912D01*
X28395084Y-38457912D01*
X32223500Y-42286329D01*
X32223500Y-42331923D01*
X32239468Y-42412197D01*
X32270789Y-42487813D01*
X32316260Y-42555866D01*
X32374134Y-42613740D01*
X32442187Y-42659211D01*
X32517803Y-42690532D01*
X32598077Y-42706500D01*
X32679923Y-42706500D01*
X32760197Y-42690532D01*
X32835813Y-42659211D01*
X32903866Y-42613740D01*
X32961740Y-42555866D01*
X33007211Y-42487813D01*
X33038532Y-42412197D01*
X33054500Y-42331923D01*
X33054500Y-42250077D01*
X33038532Y-42169803D01*
X33007211Y-42094187D01*
X32961740Y-42026134D01*
X32903866Y-41968260D01*
X32835813Y-41922789D01*
X32760197Y-41891468D01*
X32679923Y-41875500D01*
X32634329Y-41875500D01*
X28730918Y-37972090D01*
X28721820Y-37961004D01*
X28677586Y-37924702D01*
X28627119Y-37897727D01*
X28572360Y-37881116D01*
X28529677Y-37876912D01*
X28529669Y-37876912D01*
X28515412Y-37875508D01*
X28501155Y-37876912D01*
X27348106Y-37876912D01*
X27341500Y-37870306D01*
X27341500Y-36111106D01*
X27373740Y-36078866D01*
X27395500Y-36046299D01*
X27395500Y-36307743D01*
X27394096Y-36322000D01*
X27395500Y-36336257D01*
X27395500Y-36336264D01*
X27399704Y-36378947D01*
X27416315Y-36433706D01*
X27443290Y-36484173D01*
X27479592Y-36528408D01*
X27490678Y-36537506D01*
X31915498Y-40962327D01*
X31924592Y-40973408D01*
X31968826Y-41009710D01*
X32019293Y-41036685D01*
X32074052Y-41053296D01*
X32116735Y-41057500D01*
X32116742Y-41057500D01*
X32130999Y-41058904D01*
X32145256Y-41057500D01*
X33026672Y-41057500D01*
X34645286Y-42676114D01*
X34637920Y-42687138D01*
X34559485Y-42876497D01*
X34519500Y-43077520D01*
X34519500Y-43282480D01*
X34559485Y-43483503D01*
X34637920Y-43672862D01*
X34751791Y-43843280D01*
X34896720Y-43988209D01*
X35067138Y-44102080D01*
X35256497Y-44180515D01*
X35457520Y-44220500D01*
X35662480Y-44220500D01*
X35863503Y-44180515D01*
X36052862Y-44102080D01*
X36223280Y-43988209D01*
X36368209Y-43843280D01*
X36482080Y-43672862D01*
X36560515Y-43483503D01*
X36600500Y-43282480D01*
X36600500Y-43077520D01*
X36560515Y-42876497D01*
X36482080Y-42687138D01*
X36368209Y-42516720D01*
X36223280Y-42371791D01*
X36052862Y-42257920D01*
X35863503Y-42179485D01*
X35662480Y-42139500D01*
X35457520Y-42139500D01*
X35256497Y-42179485D01*
X35067138Y-42257920D01*
X35056114Y-42265286D01*
X33362506Y-40571678D01*
X33353408Y-40560592D01*
X33325295Y-40537520D01*
X34519500Y-40537520D01*
X34519500Y-40742480D01*
X34559485Y-40943503D01*
X34637920Y-41132862D01*
X34751791Y-41303280D01*
X34896720Y-41448209D01*
X35067138Y-41562080D01*
X35256497Y-41640515D01*
X35457520Y-41680500D01*
X35662480Y-41680500D01*
X35863503Y-41640515D01*
X36052862Y-41562080D01*
X36223280Y-41448209D01*
X36368209Y-41303280D01*
X36482080Y-41132862D01*
X36560515Y-40943503D01*
X36600500Y-40742480D01*
X36600500Y-40537520D01*
X36560515Y-40336497D01*
X36482080Y-40147138D01*
X36368209Y-39976720D01*
X36223280Y-39831791D01*
X36052862Y-39717920D01*
X35863503Y-39639485D01*
X35662480Y-39599500D01*
X35457520Y-39599500D01*
X35256497Y-39639485D01*
X35067138Y-39717920D01*
X34896720Y-39831791D01*
X34751791Y-39976720D01*
X34637920Y-40147138D01*
X34559485Y-40336497D01*
X34519500Y-40537520D01*
X33325295Y-40537520D01*
X33309174Y-40524290D01*
X33258707Y-40497315D01*
X33203948Y-40480704D01*
X33161265Y-40476500D01*
X33161257Y-40476500D01*
X33147000Y-40475096D01*
X33132743Y-40476500D01*
X32251329Y-40476500D01*
X30311329Y-38536500D01*
X34668222Y-38536500D01*
X34695397Y-38678881D01*
X34823558Y-38835080D01*
X34981115Y-38964628D01*
X35123500Y-38996916D01*
X35123500Y-38536500D01*
X35996500Y-38536500D01*
X35996500Y-38996916D01*
X36138885Y-38964628D01*
X36296442Y-38835080D01*
X36424603Y-38678881D01*
X36451778Y-38536500D01*
X35996500Y-38536500D01*
X35123500Y-38536500D01*
X34668222Y-38536500D01*
X30311329Y-38536500D01*
X29438329Y-37663500D01*
X34668222Y-37663500D01*
X35123500Y-37663500D01*
X35996500Y-37663500D01*
X36451778Y-37663500D01*
X36424603Y-37521119D01*
X36296442Y-37364920D01*
X36138885Y-37235372D01*
X35996500Y-37203084D01*
X35996500Y-37663500D01*
X35123500Y-37663500D01*
X35123500Y-37203084D01*
X34981115Y-37235372D01*
X34823558Y-37364920D01*
X34695397Y-37521119D01*
X34668222Y-37663500D01*
X29438329Y-37663500D01*
X27976500Y-36201672D01*
X27976500Y-35320265D01*
X27977905Y-35306000D01*
X27972296Y-35249052D01*
X27955685Y-35194292D01*
X27928710Y-35143826D01*
X27901501Y-35110672D01*
X27892408Y-35099592D01*
X27881327Y-35090498D01*
X27788829Y-34998000D01*
X30289500Y-34998000D01*
X30289500Y-35868000D01*
X30293160Y-35905164D01*
X30308384Y-35981701D01*
X30319226Y-36017440D01*
X30336830Y-36050375D01*
X30380185Y-36115259D01*
X30403874Y-36144124D01*
X30432741Y-36167815D01*
X30497625Y-36211170D01*
X30530562Y-36228775D01*
X30566299Y-36239616D01*
X30642836Y-36254840D01*
X30680000Y-36258500D01*
X33963000Y-36258500D01*
X34000164Y-36254840D01*
X34076701Y-36239616D01*
X34112440Y-36228774D01*
X34145375Y-36211170D01*
X34210259Y-36167815D01*
X34226500Y-36154486D01*
X34226500Y-36503000D01*
X34230160Y-36540164D01*
X34245384Y-36616701D01*
X34256226Y-36652440D01*
X34273830Y-36685375D01*
X34317185Y-36750259D01*
X34340874Y-36779124D01*
X34369741Y-36802815D01*
X34434625Y-36846170D01*
X34467562Y-36863775D01*
X34503299Y-36874616D01*
X34579836Y-36889840D01*
X34617000Y-36893500D01*
X36884590Y-36893500D01*
X36917512Y-36890634D01*
X36985597Y-36878688D01*
X37013450Y-36871600D01*
X37047504Y-36856274D01*
X37107456Y-36821864D01*
X37134582Y-36802990D01*
X37768992Y-36274315D01*
X37797875Y-36244323D01*
X37850956Y-36175510D01*
X37874420Y-36136027D01*
X37886067Y-36100545D01*
X37904949Y-36015714D01*
X37909500Y-35974325D01*
X37909500Y-29156000D01*
X37905840Y-29118836D01*
X37890616Y-29042299D01*
X37879774Y-29006560D01*
X37862170Y-28973625D01*
X37818815Y-28908741D01*
X37795126Y-28879876D01*
X37766259Y-28856185D01*
X37701375Y-28812830D01*
X37668438Y-28795225D01*
X37632701Y-28784384D01*
X37556164Y-28769160D01*
X37519000Y-28765500D01*
X36197402Y-28765500D01*
X36223280Y-28748209D01*
X36368209Y-28603280D01*
X36482080Y-28432862D01*
X36560515Y-28243503D01*
X36600500Y-28042480D01*
X36600500Y-27837520D01*
X36560515Y-27636497D01*
X36482080Y-27447138D01*
X36368209Y-27276720D01*
X36223280Y-27131791D01*
X36052862Y-27017920D01*
X35863503Y-26939485D01*
X35662480Y-26899500D01*
X35457520Y-26899500D01*
X35256497Y-26939485D01*
X35067138Y-27017920D01*
X34896720Y-27131791D01*
X34751791Y-27276720D01*
X34637920Y-27447138D01*
X34559485Y-27636497D01*
X34519500Y-27837520D01*
X34519500Y-28042480D01*
X34559485Y-28243503D01*
X34637920Y-28432862D01*
X34751791Y-28603280D01*
X34896720Y-28748209D01*
X34922598Y-28765500D01*
X34372843Y-28765500D01*
X34335679Y-28769160D01*
X34259142Y-28784384D01*
X34223404Y-28795225D01*
X34190469Y-28812829D01*
X34125584Y-28856184D01*
X34096717Y-28879875D01*
X33592143Y-29384449D01*
X33574364Y-29396329D01*
X33553393Y-29400500D01*
X30934000Y-29400500D01*
X30896836Y-29404160D01*
X30820299Y-29419384D01*
X30784560Y-29430226D01*
X30751625Y-29447830D01*
X30686741Y-29491185D01*
X30657876Y-29514874D01*
X30634185Y-29543741D01*
X30590830Y-29608625D01*
X30573225Y-29641562D01*
X30562384Y-29677299D01*
X30547160Y-29753836D01*
X30543500Y-29791000D01*
X30543500Y-30326324D01*
X30524500Y-30421841D01*
X30524500Y-30538159D01*
X30543500Y-30633676D01*
X30543500Y-30788000D01*
X30547160Y-30825164D01*
X30562384Y-30901701D01*
X30573226Y-30937440D01*
X30590830Y-30970375D01*
X30634185Y-31035259D01*
X30657874Y-31064124D01*
X30686741Y-31087815D01*
X30751625Y-31131170D01*
X30784562Y-31148775D01*
X30820299Y-31159616D01*
X30896836Y-31174840D01*
X30934000Y-31178500D01*
X33299393Y-31178500D01*
X33320364Y-31182671D01*
X33338143Y-31194551D01*
X34084092Y-31940500D01*
X31433143Y-34591449D01*
X31415364Y-34603329D01*
X31394393Y-34607500D01*
X30680000Y-34607500D01*
X30642836Y-34611160D01*
X30566299Y-34626384D01*
X30530560Y-34637226D01*
X30497625Y-34654830D01*
X30432741Y-34698185D01*
X30403876Y-34721874D01*
X30380185Y-34750741D01*
X30336830Y-34815625D01*
X30319225Y-34848562D01*
X30308384Y-34884299D01*
X30293160Y-34960836D01*
X30289500Y-34998000D01*
X27788829Y-34998000D01*
X27584006Y-34793178D01*
X27574908Y-34782092D01*
X27530674Y-34745790D01*
X27480207Y-34718815D01*
X27425448Y-34702204D01*
X27382765Y-34698000D01*
X27382757Y-34698000D01*
X27368500Y-34696596D01*
X27354243Y-34698000D01*
X26649606Y-34698000D01*
X26617366Y-34665760D01*
X26549313Y-34620289D01*
X26473697Y-34588968D01*
X26393423Y-34573000D01*
X26311577Y-34573000D01*
X26231303Y-34588968D01*
X26155687Y-34620289D01*
X26091196Y-34663380D01*
X26055817Y-34682290D01*
X26011582Y-34718592D01*
X25975280Y-34762827D01*
X25948306Y-34813293D01*
X25931694Y-34868053D01*
X25926086Y-34925000D01*
X25931694Y-34981947D01*
X25937000Y-34999438D01*
X25937000Y-35029423D01*
X25952968Y-35109697D01*
X25969041Y-35148502D01*
X25948923Y-35144500D01*
X25867077Y-35144500D01*
X25786803Y-35160468D01*
X25711187Y-35191789D01*
X25643134Y-35237260D01*
X25585260Y-35295134D01*
X25539789Y-35363187D01*
X25508468Y-35438803D01*
X25492500Y-35519077D01*
X25492500Y-35600923D01*
X25508468Y-35681197D01*
X25539789Y-35756813D01*
X25585260Y-35824866D01*
X25643134Y-35882740D01*
X25711187Y-35928211D01*
X25786803Y-35959532D01*
X25867077Y-35975500D01*
X25938225Y-35975500D01*
X25944648Y-35981208D01*
X26125501Y-36162062D01*
X26125501Y-36464685D01*
X26125500Y-36743704D01*
X26069500Y-36799704D01*
X26069500Y-36750099D01*
X26053532Y-36669825D01*
X26022211Y-36594209D01*
X25976740Y-36526156D01*
X25918866Y-36468282D01*
X25850813Y-36422811D01*
X25775197Y-36391490D01*
X25694923Y-36375522D01*
X25613077Y-36375522D01*
X25532803Y-36391490D01*
X25457187Y-36422811D01*
X25389134Y-36468282D01*
X25356894Y-36500522D01*
X23308339Y-36500522D01*
X23352862Y-36482080D01*
X23523280Y-36368209D01*
X23668209Y-36223280D01*
X23782080Y-36052862D01*
X23860515Y-35863503D01*
X23863101Y-35850500D01*
X24657705Y-35850500D01*
X24671962Y-35851904D01*
X24686219Y-35850500D01*
X24686227Y-35850500D01*
X24728910Y-35846296D01*
X24783669Y-35829685D01*
X24834136Y-35802710D01*
X24878370Y-35766408D01*
X24887468Y-35755322D01*
X25522463Y-35120328D01*
X25522467Y-35120323D01*
X26305830Y-34336961D01*
X26316634Y-34328094D01*
X27885657Y-34328094D01*
X27914932Y-34384379D01*
X28001310Y-34392629D01*
X28085068Y-34384379D01*
X28114343Y-34328094D01*
X28885657Y-34328094D01*
X28914932Y-34384379D01*
X29001310Y-34392629D01*
X29085068Y-34384379D01*
X29114343Y-34328094D01*
X29885657Y-34328094D01*
X29914932Y-34384379D01*
X30001310Y-34392629D01*
X30085068Y-34384379D01*
X30114343Y-34328094D01*
X30000000Y-34213751D01*
X29885657Y-34328094D01*
X29114343Y-34328094D01*
X29000000Y-34213751D01*
X28885657Y-34328094D01*
X28114343Y-34328094D01*
X28000000Y-34213751D01*
X27885657Y-34328094D01*
X26316634Y-34328094D01*
X26316910Y-34327868D01*
X26353212Y-34283634D01*
X26380187Y-34233167D01*
X26396798Y-34178408D01*
X26401002Y-34135725D01*
X26401002Y-34135718D01*
X26402406Y-34121461D01*
X26401002Y-34107204D01*
X26401002Y-33951310D01*
X27557371Y-33951310D01*
X27565621Y-34035068D01*
X27621906Y-34064343D01*
X27736249Y-33950000D01*
X28263751Y-33950000D01*
X28378094Y-34064343D01*
X28434379Y-34035068D01*
X28442378Y-33951310D01*
X28557371Y-33951310D01*
X28565621Y-34035068D01*
X28621906Y-34064343D01*
X28736249Y-33950000D01*
X29263751Y-33950000D01*
X29378094Y-34064343D01*
X29434379Y-34035068D01*
X29442378Y-33951310D01*
X29557371Y-33951310D01*
X29565621Y-34035068D01*
X29621906Y-34064343D01*
X29736249Y-33950000D01*
X30263751Y-33950000D01*
X30378094Y-34064343D01*
X30434379Y-34035068D01*
X30442629Y-33948690D01*
X30434379Y-33864932D01*
X30378094Y-33835657D01*
X30263751Y-33950000D01*
X29736249Y-33950000D01*
X29621906Y-33835657D01*
X29565621Y-33864932D01*
X29557371Y-33951310D01*
X29442378Y-33951310D01*
X29442629Y-33948690D01*
X29434379Y-33864932D01*
X29378094Y-33835657D01*
X29263751Y-33950000D01*
X28736249Y-33950000D01*
X28621906Y-33835657D01*
X28565621Y-33864932D01*
X28557371Y-33951310D01*
X28442378Y-33951310D01*
X28442629Y-33948690D01*
X28434379Y-33864932D01*
X28378094Y-33835657D01*
X28263751Y-33950000D01*
X27736249Y-33950000D01*
X27621906Y-33835657D01*
X27565621Y-33864932D01*
X27557371Y-33951310D01*
X26401002Y-33951310D01*
X26401002Y-33571906D01*
X27885657Y-33571906D01*
X28000000Y-33686249D01*
X28114343Y-33571906D01*
X28885657Y-33571906D01*
X29000000Y-33686249D01*
X29114343Y-33571906D01*
X29885657Y-33571906D01*
X30000000Y-33686249D01*
X30114343Y-33571906D01*
X30085068Y-33515621D01*
X29998690Y-33507371D01*
X29914932Y-33515621D01*
X29885657Y-33571906D01*
X29114343Y-33571906D01*
X29085068Y-33515621D01*
X28998690Y-33507371D01*
X28914932Y-33515621D01*
X28885657Y-33571906D01*
X28114343Y-33571906D01*
X28085068Y-33515621D01*
X27998690Y-33507371D01*
X27914932Y-33515621D01*
X27885657Y-33571906D01*
X26401002Y-33571906D01*
X26401002Y-33328094D01*
X27885657Y-33328094D01*
X27914932Y-33384379D01*
X28001310Y-33392629D01*
X28085068Y-33384379D01*
X28114343Y-33328094D01*
X28885657Y-33328094D01*
X28914932Y-33384379D01*
X29001310Y-33392629D01*
X29085068Y-33384379D01*
X29114343Y-33328094D01*
X29885657Y-33328094D01*
X29914932Y-33384379D01*
X30001310Y-33392629D01*
X30085068Y-33384379D01*
X30114343Y-33328094D01*
X30000000Y-33213751D01*
X29885657Y-33328094D01*
X29114343Y-33328094D01*
X29000000Y-33213751D01*
X28885657Y-33328094D01*
X28114343Y-33328094D01*
X28000000Y-33213751D01*
X27885657Y-33328094D01*
X26401002Y-33328094D01*
X26401002Y-32951310D01*
X27557371Y-32951310D01*
X27565621Y-33035068D01*
X27621906Y-33064343D01*
X27736249Y-32950000D01*
X28263751Y-32950000D01*
X28378094Y-33064343D01*
X28434379Y-33035068D01*
X28442378Y-32951310D01*
X28557371Y-32951310D01*
X28565621Y-33035068D01*
X28621906Y-33064343D01*
X28736249Y-32950000D01*
X29263751Y-32950000D01*
X29378094Y-33064343D01*
X29434379Y-33035068D01*
X29442378Y-32951310D01*
X29557371Y-32951310D01*
X29565621Y-33035068D01*
X29621906Y-33064343D01*
X29736249Y-32950000D01*
X30263751Y-32950000D01*
X30378094Y-33064343D01*
X30434379Y-33035068D01*
X30442629Y-32948690D01*
X30434379Y-32864932D01*
X30378094Y-32835657D01*
X30263751Y-32950000D01*
X29736249Y-32950000D01*
X29621906Y-32835657D01*
X29565621Y-32864932D01*
X29557371Y-32951310D01*
X29442378Y-32951310D01*
X29442629Y-32948690D01*
X29434379Y-32864932D01*
X29378094Y-32835657D01*
X29263751Y-32950000D01*
X28736249Y-32950000D01*
X28621906Y-32835657D01*
X28565621Y-32864932D01*
X28557371Y-32951310D01*
X28442378Y-32951310D01*
X28442629Y-32948690D01*
X28434379Y-32864932D01*
X28378094Y-32835657D01*
X28263751Y-32950000D01*
X27736249Y-32950000D01*
X27621906Y-32835657D01*
X27565621Y-32864932D01*
X27557371Y-32951310D01*
X26401002Y-32951310D01*
X26401002Y-32723053D01*
X26433242Y-32690813D01*
X26478713Y-32622760D01*
X26499777Y-32571906D01*
X27885657Y-32571906D01*
X28000000Y-32686249D01*
X28114343Y-32571906D01*
X28885657Y-32571906D01*
X29000000Y-32686249D01*
X29114343Y-32571906D01*
X29885657Y-32571906D01*
X30000000Y-32686249D01*
X30114343Y-32571906D01*
X30085068Y-32515621D01*
X29998690Y-32507371D01*
X29914932Y-32515621D01*
X29885657Y-32571906D01*
X29114343Y-32571906D01*
X29085068Y-32515621D01*
X28998690Y-32507371D01*
X28914932Y-32515621D01*
X28885657Y-32571906D01*
X28114343Y-32571906D01*
X28085068Y-32515621D01*
X27998690Y-32507371D01*
X27914932Y-32515621D01*
X27885657Y-32571906D01*
X26499777Y-32571906D01*
X26510034Y-32547144D01*
X26526002Y-32466870D01*
X26526002Y-32385024D01*
X26514678Y-32328094D01*
X27885657Y-32328094D01*
X27914932Y-32384379D01*
X28001310Y-32392629D01*
X28085068Y-32384379D01*
X28114343Y-32328094D01*
X28885657Y-32328094D01*
X28914932Y-32384379D01*
X29001310Y-32392629D01*
X29085068Y-32384379D01*
X29114343Y-32328094D01*
X29885657Y-32328094D01*
X29914932Y-32384379D01*
X30001310Y-32392629D01*
X30085068Y-32384379D01*
X30114343Y-32328094D01*
X30000000Y-32213751D01*
X29885657Y-32328094D01*
X29114343Y-32328094D01*
X29000000Y-32213751D01*
X28885657Y-32328094D01*
X28114343Y-32328094D01*
X28000000Y-32213751D01*
X27885657Y-32328094D01*
X26514678Y-32328094D01*
X26510034Y-32304750D01*
X26478713Y-32229134D01*
X26433242Y-32161081D01*
X26375368Y-32103207D01*
X26307315Y-32057736D01*
X26231699Y-32026415D01*
X26151425Y-32010447D01*
X26106693Y-32010447D01*
X26146206Y-31951310D01*
X27557371Y-31951310D01*
X27565621Y-32035068D01*
X27621906Y-32064343D01*
X27736249Y-31950000D01*
X28263751Y-31950000D01*
X28378094Y-32064343D01*
X28434379Y-32035068D01*
X28442378Y-31951310D01*
X28557371Y-31951310D01*
X28565621Y-32035068D01*
X28621906Y-32064343D01*
X28736249Y-31950000D01*
X29263751Y-31950000D01*
X29378094Y-32064343D01*
X29434379Y-32035068D01*
X29442378Y-31951310D01*
X29557371Y-31951310D01*
X29565621Y-32035068D01*
X29621906Y-32064343D01*
X29736249Y-31950000D01*
X30263751Y-31950000D01*
X30378094Y-32064343D01*
X30434379Y-32035068D01*
X30442629Y-31948690D01*
X30434379Y-31864932D01*
X30378094Y-31835657D01*
X30263751Y-31950000D01*
X29736249Y-31950000D01*
X29621906Y-31835657D01*
X29565621Y-31864932D01*
X29557371Y-31951310D01*
X29442378Y-31951310D01*
X29442629Y-31948690D01*
X29434379Y-31864932D01*
X29378094Y-31835657D01*
X29263751Y-31950000D01*
X28736249Y-31950000D01*
X28621906Y-31835657D01*
X28565621Y-31864932D01*
X28557371Y-31951310D01*
X28442378Y-31951310D01*
X28442629Y-31948690D01*
X28434379Y-31864932D01*
X28378094Y-31835657D01*
X28263751Y-31950000D01*
X27736249Y-31950000D01*
X27621906Y-31835657D01*
X27565621Y-31864932D01*
X27557371Y-31951310D01*
X26146206Y-31951310D01*
X26149211Y-31946813D01*
X26180532Y-31871197D01*
X26196500Y-31790923D01*
X26196500Y-31709077D01*
X26180532Y-31628803D01*
X26156965Y-31571906D01*
X27885657Y-31571906D01*
X28000000Y-31686249D01*
X28114343Y-31571906D01*
X28885657Y-31571906D01*
X29000000Y-31686249D01*
X29114343Y-31571906D01*
X29885657Y-31571906D01*
X30000000Y-31686249D01*
X30114343Y-31571906D01*
X30085068Y-31515621D01*
X29998690Y-31507371D01*
X29914932Y-31515621D01*
X29885657Y-31571906D01*
X29114343Y-31571906D01*
X29085068Y-31515621D01*
X28998690Y-31507371D01*
X28914932Y-31515621D01*
X28885657Y-31571906D01*
X28114343Y-31571906D01*
X28085068Y-31515621D01*
X27998690Y-31507371D01*
X27914932Y-31515621D01*
X27885657Y-31571906D01*
X26156965Y-31571906D01*
X26149211Y-31553187D01*
X26103740Y-31485134D01*
X26045866Y-31427260D01*
X25977813Y-31381789D01*
X25902197Y-31350468D01*
X25821923Y-31334500D01*
X25740077Y-31334500D01*
X25659803Y-31350468D01*
X25584187Y-31381789D01*
X25516134Y-31427260D01*
X25458260Y-31485134D01*
X25412789Y-31553187D01*
X25381468Y-31628803D01*
X25365500Y-31709077D01*
X25365500Y-31754672D01*
X25360679Y-31759493D01*
X25349593Y-31768591D01*
X25313291Y-31812826D01*
X25286316Y-31863293D01*
X25269705Y-31918052D01*
X25265501Y-31960735D01*
X25265501Y-31960742D01*
X25264097Y-31974999D01*
X25265501Y-31989256D01*
X25265502Y-33378669D01*
X24964285Y-33679887D01*
X24111719Y-33679887D01*
X24079479Y-33647647D01*
X24011426Y-33602176D01*
X23935810Y-33570855D01*
X23855536Y-33554887D01*
X23773690Y-33554887D01*
X23750981Y-33559404D01*
X23782080Y-33512862D01*
X23860515Y-33323503D01*
X23900500Y-33122480D01*
X23900500Y-32917520D01*
X23860515Y-32716497D01*
X23782080Y-32527138D01*
X23774714Y-32516115D01*
X23905327Y-32385502D01*
X23916407Y-32376409D01*
X23952709Y-32332175D01*
X23979684Y-32281708D01*
X23996295Y-32226949D01*
X24000499Y-32184266D01*
X24000499Y-32184259D01*
X24001903Y-32170002D01*
X24000499Y-32155745D01*
X24000499Y-31782329D01*
X25012329Y-30770500D01*
X26729894Y-30770500D01*
X26762134Y-30802740D01*
X26830187Y-30848211D01*
X26905803Y-30879532D01*
X26986077Y-30895500D01*
X27067923Y-30895500D01*
X27148197Y-30879532D01*
X27223813Y-30848211D01*
X27291866Y-30802740D01*
X27349740Y-30744866D01*
X27395211Y-30676813D01*
X27426532Y-30601197D01*
X27442500Y-30520923D01*
X27442500Y-30439077D01*
X27426532Y-30358803D01*
X27395211Y-30283187D01*
X27349740Y-30215134D01*
X27291866Y-30157260D01*
X27223813Y-30111789D01*
X27148197Y-30080468D01*
X27067923Y-30064500D01*
X26986077Y-30064500D01*
X26905803Y-30080468D01*
X26830187Y-30111789D01*
X26762134Y-30157260D01*
X26729894Y-30189500D01*
X24906265Y-30189500D01*
X24892000Y-30188095D01*
X24877735Y-30189500D01*
X24835052Y-30193704D01*
X24780293Y-30210315D01*
X24729826Y-30237290D01*
X24685592Y-30273592D01*
X24676498Y-30284673D01*
X23514673Y-31446499D01*
X23503592Y-31455593D01*
X23494498Y-31466674D01*
X23467289Y-31499828D01*
X23440315Y-31550294D01*
X23423703Y-31605054D01*
X23418095Y-31662001D01*
X23419500Y-31676268D01*
X23419499Y-32049672D01*
X23363885Y-32105286D01*
X23352862Y-32097920D01*
X23163503Y-32019485D01*
X22962480Y-31979500D01*
X22757520Y-31979500D01*
X22556497Y-32019485D01*
X22367138Y-32097920D01*
X22196720Y-32211791D01*
X22051791Y-32356720D01*
X21937920Y-32527138D01*
X21880500Y-32665762D01*
X21880500Y-31870328D01*
X22356114Y-31394714D01*
X22367138Y-31402080D01*
X22556497Y-31480515D01*
X22757520Y-31520500D01*
X22962480Y-31520500D01*
X23163503Y-31480515D01*
X23352862Y-31402080D01*
X23523280Y-31288209D01*
X23668209Y-31143280D01*
X23782080Y-30972862D01*
X23860515Y-30783503D01*
X23900500Y-30582480D01*
X23900500Y-30377520D01*
X23860515Y-30176497D01*
X23782080Y-29987138D01*
X23668209Y-29816720D01*
X23523280Y-29671791D01*
X23352862Y-29557920D01*
X23163503Y-29479485D01*
X22962480Y-29439500D01*
X22757520Y-29439500D01*
X22556497Y-29479485D01*
X22367138Y-29557920D01*
X22196720Y-29671791D01*
X22051791Y-29816720D01*
X21937920Y-29987138D01*
X21859485Y-30176497D01*
X21819500Y-30377520D01*
X21819500Y-30582480D01*
X21859485Y-30783503D01*
X21937920Y-30972862D01*
X21945286Y-30983886D01*
X21499500Y-31429672D01*
X21499500Y-30092328D01*
X22254951Y-29336878D01*
X27275050Y-29336878D01*
X28486498Y-30548327D01*
X28495592Y-30559408D01*
X28506672Y-30568501D01*
X28539826Y-30595710D01*
X28590293Y-30622685D01*
X28645052Y-30639296D01*
X28702000Y-30644905D01*
X28716265Y-30643500D01*
X29576743Y-30643500D01*
X29591000Y-30644904D01*
X29605257Y-30643500D01*
X29605265Y-30643500D01*
X29647948Y-30639296D01*
X29702707Y-30622685D01*
X29753174Y-30595710D01*
X29797408Y-30559408D01*
X29806506Y-30548322D01*
X29913323Y-30441505D01*
X29924408Y-30432408D01*
X29960710Y-30388174D01*
X29987685Y-30337707D01*
X30004296Y-30282948D01*
X30008500Y-30240265D01*
X30008500Y-30240258D01*
X30009904Y-30226001D01*
X30008500Y-30211744D01*
X30008500Y-30015106D01*
X30040740Y-29982866D01*
X30086211Y-29914813D01*
X30117532Y-29839197D01*
X30133500Y-29758923D01*
X30133500Y-29677077D01*
X30117532Y-29596803D01*
X30086211Y-29521187D01*
X30040740Y-29453134D01*
X29982866Y-29395260D01*
X29914813Y-29349789D01*
X29839197Y-29318468D01*
X29758923Y-29302500D01*
X29677077Y-29302500D01*
X29596803Y-29318468D01*
X29521187Y-29349789D01*
X29453134Y-29395260D01*
X29395260Y-29453134D01*
X29373500Y-29485701D01*
X29373500Y-28110106D01*
X29405740Y-28077866D01*
X29451211Y-28009813D01*
X29482532Y-27934197D01*
X29498500Y-27853923D01*
X29498500Y-27772077D01*
X29482532Y-27691803D01*
X29451211Y-27616187D01*
X29405740Y-27548134D01*
X29347866Y-27490260D01*
X29279813Y-27444789D01*
X29204197Y-27413468D01*
X29123923Y-27397500D01*
X29042077Y-27397500D01*
X28961803Y-27413468D01*
X28886187Y-27444789D01*
X28818134Y-27490260D01*
X28760260Y-27548134D01*
X28714789Y-27616187D01*
X28683468Y-27691803D01*
X28667500Y-27772077D01*
X28667500Y-27853923D01*
X28683468Y-27934197D01*
X28714789Y-28009813D01*
X28760260Y-28077866D01*
X28792501Y-28110107D01*
X28792500Y-29333588D01*
X28759187Y-29347387D01*
X28691134Y-29392858D01*
X28633260Y-29450732D01*
X28587789Y-29518785D01*
X28556468Y-29594401D01*
X28540500Y-29674675D01*
X28540500Y-29756521D01*
X28546497Y-29786668D01*
X27610884Y-28851056D01*
X27601786Y-28839970D01*
X27557552Y-28803668D01*
X27507085Y-28776693D01*
X27452326Y-28760082D01*
X27409643Y-28755878D01*
X27409635Y-28755878D01*
X27395378Y-28754474D01*
X27381121Y-28755878D01*
X23511803Y-28755878D01*
X23523280Y-28748209D01*
X23668209Y-28603280D01*
X23782080Y-28432862D01*
X23860515Y-28243503D01*
X23900500Y-28042480D01*
X23900500Y-27837520D01*
X23860515Y-27636497D01*
X23782080Y-27447138D01*
X23668209Y-27276720D01*
X23523280Y-27131791D01*
X23352862Y-27017920D01*
X23163503Y-26939485D01*
X22962480Y-26899500D01*
X22757520Y-26899500D01*
X22556497Y-26939485D01*
X22367138Y-27017920D01*
X22196720Y-27131791D01*
X22051791Y-27276720D01*
X21937920Y-27447138D01*
X21859485Y-27636497D01*
X21819500Y-27837520D01*
X21819500Y-28042480D01*
X21859485Y-28243503D01*
X21937920Y-28432862D01*
X22051791Y-28603280D01*
X22196720Y-28748209D01*
X22208197Y-28755878D01*
X22148878Y-28755878D01*
X22134621Y-28754474D01*
X22120364Y-28755878D01*
X22120357Y-28755878D01*
X22077674Y-28760082D01*
X22022915Y-28776693D01*
X21972448Y-28803668D01*
X21928214Y-28839970D01*
X21919120Y-28851051D01*
X21013674Y-29756498D01*
X21002593Y-29765592D01*
X20993499Y-29776673D01*
X20966290Y-29809827D01*
X20939316Y-29860293D01*
X20922704Y-29915053D01*
X20917096Y-29972000D01*
X20918501Y-29986267D01*
X20918500Y-33992894D01*
X20886260Y-34025134D01*
X20864500Y-34057701D01*
X20864500Y-27348106D01*
X20896740Y-27315866D01*
X20942211Y-27247813D01*
X20973532Y-27172197D01*
X20989500Y-27091923D01*
X20989500Y-27010077D01*
X20973532Y-26929803D01*
X20942211Y-26854187D01*
X20896740Y-26786134D01*
X20838866Y-26728260D01*
X20770813Y-26682789D01*
X20695197Y-26651468D01*
X20614923Y-26635500D01*
X20533077Y-26635500D01*
X20452803Y-26651468D01*
X20377187Y-26682789D01*
X20309134Y-26728260D01*
X20251260Y-26786134D01*
X20229500Y-26818701D01*
X20229500Y-26409328D01*
X20948329Y-25690500D01*
X21856899Y-25690500D01*
X21859485Y-25703503D01*
X21937920Y-25892862D01*
X22051791Y-26063280D01*
X22196720Y-26208209D01*
X22367138Y-26322080D01*
X22556497Y-26400515D01*
X22757520Y-26440500D01*
X22962480Y-26440500D01*
X23163503Y-26400515D01*
X23352862Y-26322080D01*
X23523280Y-26208209D01*
X23668209Y-26063280D01*
X23782080Y-25892862D01*
X23860515Y-25703503D01*
X23900500Y-25502480D01*
X23900500Y-25297520D01*
X34519500Y-25297520D01*
X34519500Y-25502480D01*
X34559485Y-25703503D01*
X34637920Y-25892862D01*
X34751791Y-26063280D01*
X34896720Y-26208209D01*
X35067138Y-26322080D01*
X35256497Y-26400515D01*
X35457520Y-26440500D01*
X35662480Y-26440500D01*
X35863503Y-26400515D01*
X36052862Y-26322080D01*
X36223280Y-26208209D01*
X36368209Y-26063280D01*
X36482080Y-25892862D01*
X36560515Y-25703503D01*
X36563101Y-25690500D01*
X37323743Y-25690500D01*
X37338000Y-25691904D01*
X37352257Y-25690500D01*
X37352265Y-25690500D01*
X37394948Y-25686296D01*
X37449707Y-25669685D01*
X37500174Y-25642710D01*
X37544408Y-25606408D01*
X37553506Y-25595322D01*
X38549328Y-24599501D01*
X38560408Y-24590408D01*
X38596710Y-24546174D01*
X38623685Y-24495707D01*
X38640296Y-24440948D01*
X38644500Y-24398265D01*
X38644500Y-24398264D01*
X38645905Y-24384000D01*
X38644500Y-24369735D01*
X38644500Y-23792106D01*
X38676740Y-23759866D01*
X38722211Y-23691813D01*
X38753532Y-23616197D01*
X38769500Y-23535923D01*
X38769500Y-23454077D01*
X38753532Y-23373803D01*
X38722211Y-23298187D01*
X38676740Y-23230134D01*
X38618866Y-23172260D01*
X38550813Y-23126789D01*
X38475197Y-23095468D01*
X38394923Y-23079500D01*
X38313077Y-23079500D01*
X38232803Y-23095468D01*
X38157187Y-23126789D01*
X38089134Y-23172260D01*
X38031260Y-23230134D01*
X37985789Y-23298187D01*
X37954468Y-23373803D01*
X37938500Y-23454077D01*
X37938500Y-23535923D01*
X37954468Y-23616197D01*
X37985789Y-23691813D01*
X38031260Y-23759866D01*
X38063501Y-23792107D01*
X38063500Y-24263671D01*
X37217672Y-25109500D01*
X36563101Y-25109500D01*
X36560515Y-25096497D01*
X36482080Y-24907138D01*
X36368209Y-24736720D01*
X36223280Y-24591791D01*
X36052862Y-24477920D01*
X35863503Y-24399485D01*
X35662480Y-24359500D01*
X35457520Y-24359500D01*
X35256497Y-24399485D01*
X35067138Y-24477920D01*
X34896720Y-24591791D01*
X34751791Y-24736720D01*
X34637920Y-24907138D01*
X34559485Y-25096497D01*
X34519500Y-25297520D01*
X23900500Y-25297520D01*
X23860515Y-25096497D01*
X23782080Y-24907138D01*
X23668209Y-24736720D01*
X23523280Y-24591791D01*
X23352862Y-24477920D01*
X23163503Y-24399485D01*
X22962480Y-24359500D01*
X22757520Y-24359500D01*
X22556497Y-24399485D01*
X22367138Y-24477920D01*
X22196720Y-24591791D01*
X22051791Y-24736720D01*
X21937920Y-24907138D01*
X21859485Y-25096497D01*
X21856899Y-25109500D01*
X20842265Y-25109500D01*
X20828000Y-25108095D01*
X20813735Y-25109500D01*
X20771052Y-25113704D01*
X20716293Y-25130315D01*
X20665826Y-25157290D01*
X20621592Y-25193592D01*
X20612498Y-25204673D01*
X19743678Y-26073494D01*
X19732592Y-26082592D01*
X19696290Y-26126827D01*
X19669315Y-26177294D01*
X19652704Y-26232053D01*
X19648500Y-26274736D01*
X19648500Y-26274743D01*
X19647096Y-26289000D01*
X19215500Y-26289000D01*
X19215500Y-22010000D01*
X21818579Y-22010000D01*
X21818579Y-23710000D01*
X21822257Y-23747344D01*
X21833150Y-23783254D01*
X21850839Y-23816348D01*
X21874645Y-23845355D01*
X21903652Y-23869161D01*
X21936746Y-23886850D01*
X21972656Y-23897743D01*
X22010000Y-23901421D01*
X23710000Y-23901421D01*
X23747344Y-23897743D01*
X23783254Y-23886850D01*
X23816348Y-23869161D01*
X23845355Y-23845355D01*
X23869161Y-23816348D01*
X23886850Y-23783254D01*
X23897743Y-23747344D01*
X23901421Y-23710000D01*
X34518578Y-23710000D01*
X34522256Y-23747345D01*
X34533149Y-23783254D01*
X34550838Y-23816348D01*
X34574644Y-23845356D01*
X34603652Y-23869162D01*
X34636746Y-23886851D01*
X34672655Y-23897744D01*
X34710000Y-23901422D01*
X35075875Y-23900500D01*
X35123500Y-23852875D01*
X35123500Y-23296500D01*
X35996500Y-23296500D01*
X35996500Y-23852875D01*
X36044125Y-23900500D01*
X36410000Y-23901422D01*
X36447345Y-23897744D01*
X36483254Y-23886851D01*
X36516348Y-23869162D01*
X36545356Y-23845356D01*
X36569162Y-23816348D01*
X36586851Y-23783254D01*
X36597744Y-23747345D01*
X36601422Y-23710000D01*
X36600500Y-23344125D01*
X36552875Y-23296500D01*
X35996500Y-23296500D01*
X35123500Y-23296500D01*
X34567125Y-23296500D01*
X34519500Y-23344125D01*
X34518578Y-23710000D01*
X23901421Y-23710000D01*
X23901421Y-22010000D01*
X34518578Y-22010000D01*
X34519500Y-22375875D01*
X34567125Y-22423500D01*
X35123500Y-22423500D01*
X35123500Y-21867125D01*
X35996500Y-21867125D01*
X35996500Y-22423500D01*
X36552875Y-22423500D01*
X36600500Y-22375875D01*
X36601422Y-22010000D01*
X36597744Y-21972655D01*
X36586851Y-21936746D01*
X36569162Y-21903652D01*
X36545356Y-21874644D01*
X36516348Y-21850838D01*
X36483254Y-21833149D01*
X36447345Y-21822256D01*
X36410000Y-21818578D01*
X36044125Y-21819500D01*
X35996500Y-21867125D01*
X35123500Y-21867125D01*
X35075875Y-21819500D01*
X34710000Y-21818578D01*
X34672655Y-21822256D01*
X34636746Y-21833149D01*
X34603652Y-21850838D01*
X34574644Y-21874644D01*
X34550838Y-21903652D01*
X34533149Y-21936746D01*
X34522256Y-21972655D01*
X34518578Y-22010000D01*
X23901421Y-22010000D01*
X23897743Y-21972656D01*
X23886850Y-21936746D01*
X23869161Y-21903652D01*
X23845355Y-21874645D01*
X23816348Y-21850839D01*
X23783254Y-21833150D01*
X23747344Y-21822257D01*
X23710000Y-21818579D01*
X22010000Y-21818579D01*
X21972656Y-21822257D01*
X21936746Y-21833150D01*
X21903652Y-21850839D01*
X21874645Y-21874645D01*
X21850839Y-21903652D01*
X21833150Y-21936746D01*
X21822257Y-21972656D01*
X21818579Y-22010000D01*
X19215500Y-22010000D01*
X19215500Y-21215500D01*
X39784500Y-21215500D01*
X39784501Y-44784500D01*
G37*
X39784501Y-44784500D02*
X19215500Y-44784500D01*
X19215500Y-43077520D01*
X21819500Y-43077520D01*
X21819500Y-43282480D01*
X21859485Y-43483503D01*
X21937920Y-43672862D01*
X22051791Y-43843280D01*
X22196720Y-43988209D01*
X22367138Y-44102080D01*
X22556497Y-44180515D01*
X22757520Y-44220500D01*
X22962480Y-44220500D01*
X23163503Y-44180515D01*
X23352862Y-44102080D01*
X23523280Y-43988209D01*
X23668209Y-43843280D01*
X23782080Y-43672862D01*
X23860515Y-43483503D01*
X23900500Y-43282480D01*
X23900500Y-43077520D01*
X23860515Y-42876497D01*
X23782080Y-42687138D01*
X23668209Y-42516720D01*
X23523280Y-42371791D01*
X23352862Y-42257920D01*
X23163503Y-42179485D01*
X22962480Y-42139500D01*
X22757520Y-42139500D01*
X22556497Y-42179485D01*
X22367138Y-42257920D01*
X22196720Y-42371791D01*
X22051791Y-42516720D01*
X21937920Y-42687138D01*
X21859485Y-42876497D01*
X21819500Y-43077520D01*
X19215500Y-43077520D01*
X19215500Y-40537520D01*
X21819500Y-40537520D01*
X21819500Y-40742480D01*
X21859485Y-40943503D01*
X21937920Y-41132862D01*
X22051791Y-41303280D01*
X22196720Y-41448209D01*
X22367138Y-41562080D01*
X22556497Y-41640515D01*
X22757520Y-41680500D01*
X22962480Y-41680500D01*
X23163503Y-41640515D01*
X23352862Y-41562080D01*
X23523280Y-41448209D01*
X23668209Y-41303280D01*
X23782080Y-41132862D01*
X23860515Y-40943503D01*
X23900500Y-40742480D01*
X23900500Y-40537520D01*
X23860515Y-40336497D01*
X23782080Y-40147138D01*
X23668209Y-39976720D01*
X23523280Y-39831791D01*
X23352862Y-39717920D01*
X23163503Y-39639485D01*
X22962480Y-39599500D01*
X22757520Y-39599500D01*
X22556497Y-39639485D01*
X22367138Y-39717920D01*
X22196720Y-39831791D01*
X22051791Y-39976720D01*
X21937920Y-40147138D01*
X21859485Y-40336497D01*
X21819500Y-40537520D01*
X19215500Y-40537520D01*
X19215500Y-26289000D01*
X19647096Y-26289000D01*
X19648500Y-26303257D01*
X19648501Y-36180733D01*
X19647096Y-36195000D01*
X19652704Y-36251947D01*
X19669316Y-36306707D01*
X19696290Y-36357173D01*
X19723499Y-36390327D01*
X19732593Y-36401408D01*
X19743674Y-36410502D01*
X20485498Y-37152327D01*
X20494592Y-37163408D01*
X20505672Y-37172501D01*
X20538826Y-37199710D01*
X20589292Y-37226685D01*
X20644052Y-37243296D01*
X20701000Y-37248905D01*
X20715265Y-37247500D01*
X21800898Y-37247500D01*
X21833138Y-37279740D01*
X21901191Y-37325211D01*
X21976807Y-37356532D01*
X22057081Y-37372500D01*
X22116011Y-37372500D01*
X22051791Y-37436720D01*
X21937920Y-37607138D01*
X21859485Y-37796497D01*
X21819500Y-37997520D01*
X21819500Y-38202480D01*
X21859485Y-38403503D01*
X21937920Y-38592862D01*
X22051791Y-38763280D01*
X22196720Y-38908209D01*
X22367138Y-39022080D01*
X22556497Y-39100515D01*
X22757520Y-39140500D01*
X22962480Y-39140500D01*
X23163503Y-39100515D01*
X23352862Y-39022080D01*
X23523280Y-38908209D01*
X23668209Y-38763280D01*
X23782080Y-38592862D01*
X23860515Y-38403503D01*
X23900500Y-38202480D01*
X23900500Y-37997520D01*
X23860515Y-37796497D01*
X23782080Y-37607138D01*
X23668209Y-37436720D01*
X23523280Y-37291791D01*
X23352862Y-37177920D01*
X23163503Y-37099485D01*
X23073195Y-37081522D01*
X25356894Y-37081522D01*
X25389134Y-37113762D01*
X25457187Y-37159233D01*
X25532803Y-37190554D01*
X25613077Y-37206522D01*
X25662683Y-37206522D01*
X25604672Y-37264533D01*
X25559077Y-37264533D01*
X25478803Y-37280501D01*
X25403187Y-37311822D01*
X25335134Y-37357293D01*
X25277260Y-37415167D01*
X25231789Y-37483220D01*
X25206180Y-37545047D01*
X25196711Y-37522187D01*
X25151240Y-37454134D01*
X25093366Y-37396260D01*
X25025313Y-37350789D01*
X24949697Y-37319468D01*
X24869423Y-37303500D01*
X24787577Y-37303500D01*
X24707303Y-37319468D01*
X24631687Y-37350789D01*
X24563634Y-37396260D01*
X24505760Y-37454134D01*
X24460289Y-37522187D01*
X24428968Y-37597803D01*
X24413000Y-37678077D01*
X24413000Y-37759923D01*
X24428968Y-37840197D01*
X24460289Y-37915813D01*
X24505760Y-37983866D01*
X24563634Y-38041740D01*
X24631687Y-38087211D01*
X24707303Y-38118532D01*
X24787577Y-38134500D01*
X24833172Y-38134500D01*
X25061410Y-38362739D01*
X25070504Y-38373820D01*
X25114738Y-38410122D01*
X25165205Y-38437097D01*
X25219964Y-38453708D01*
X25262647Y-38457912D01*
X25262656Y-38457912D01*
X25276911Y-38459316D01*
X25291166Y-38457912D01*
X26753894Y-38457912D01*
X26786134Y-38490152D01*
X26854187Y-38535623D01*
X26929803Y-38566944D01*
X27010077Y-38582912D01*
X27091923Y-38582912D01*
X27172197Y-38566944D01*
X27247813Y-38535623D01*
X27315866Y-38490152D01*
X27348106Y-38457912D01*
X28395084Y-38457912D01*
X32223500Y-42286329D01*
X32223500Y-42331923D01*
X32239468Y-42412197D01*
X32270789Y-42487813D01*
X32316260Y-42555866D01*
X32374134Y-42613740D01*
X32442187Y-42659211D01*
X32517803Y-42690532D01*
X32598077Y-42706500D01*
X32679923Y-42706500D01*
X32760197Y-42690532D01*
X32835813Y-42659211D01*
X32903866Y-42613740D01*
X32961740Y-42555866D01*
X33007211Y-42487813D01*
X33038532Y-42412197D01*
X33054500Y-42331923D01*
X33054500Y-42250077D01*
X33038532Y-42169803D01*
X33007211Y-42094187D01*
X32961740Y-42026134D01*
X32903866Y-41968260D01*
X32835813Y-41922789D01*
X32760197Y-41891468D01*
X32679923Y-41875500D01*
X32634329Y-41875500D01*
X28730918Y-37972090D01*
X28721820Y-37961004D01*
X28677586Y-37924702D01*
X28627119Y-37897727D01*
X28572360Y-37881116D01*
X28529677Y-37876912D01*
X28529669Y-37876912D01*
X28515412Y-37875508D01*
X28501155Y-37876912D01*
X27348106Y-37876912D01*
X27341500Y-37870306D01*
X27341500Y-36111106D01*
X27373740Y-36078866D01*
X27395500Y-36046299D01*
X27395500Y-36307743D01*
X27394096Y-36322000D01*
X27395500Y-36336257D01*
X27395500Y-36336264D01*
X27399704Y-36378947D01*
X27416315Y-36433706D01*
X27443290Y-36484173D01*
X27479592Y-36528408D01*
X27490678Y-36537506D01*
X31915498Y-40962327D01*
X31924592Y-40973408D01*
X31968826Y-41009710D01*
X32019293Y-41036685D01*
X32074052Y-41053296D01*
X32116735Y-41057500D01*
X32116742Y-41057500D01*
X32130999Y-41058904D01*
X32145256Y-41057500D01*
X33026672Y-41057500D01*
X34645286Y-42676114D01*
X34637920Y-42687138D01*
X34559485Y-42876497D01*
X34519500Y-43077520D01*
X34519500Y-43282480D01*
X34559485Y-43483503D01*
X34637920Y-43672862D01*
X34751791Y-43843280D01*
X34896720Y-43988209D01*
X35067138Y-44102080D01*
X35256497Y-44180515D01*
X35457520Y-44220500D01*
X35662480Y-44220500D01*
X35863503Y-44180515D01*
X36052862Y-44102080D01*
X36223280Y-43988209D01*
X36368209Y-43843280D01*
X36482080Y-43672862D01*
X36560515Y-43483503D01*
X36600500Y-43282480D01*
X36600500Y-43077520D01*
X36560515Y-42876497D01*
X36482080Y-42687138D01*
X36368209Y-42516720D01*
X36223280Y-42371791D01*
X36052862Y-42257920D01*
X35863503Y-42179485D01*
X35662480Y-42139500D01*
X35457520Y-42139500D01*
X35256497Y-42179485D01*
X35067138Y-42257920D01*
X35056114Y-42265286D01*
X33362506Y-40571678D01*
X33353408Y-40560592D01*
X33325295Y-40537520D01*
X34519500Y-40537520D01*
X34519500Y-40742480D01*
X34559485Y-40943503D01*
X34637920Y-41132862D01*
X34751791Y-41303280D01*
X34896720Y-41448209D01*
X35067138Y-41562080D01*
X35256497Y-41640515D01*
X35457520Y-41680500D01*
X35662480Y-41680500D01*
X35863503Y-41640515D01*
X36052862Y-41562080D01*
X36223280Y-41448209D01*
X36368209Y-41303280D01*
X36482080Y-41132862D01*
X36560515Y-40943503D01*
X36600500Y-40742480D01*
X36600500Y-40537520D01*
X36560515Y-40336497D01*
X36482080Y-40147138D01*
X36368209Y-39976720D01*
X36223280Y-39831791D01*
X36052862Y-39717920D01*
X35863503Y-39639485D01*
X35662480Y-39599500D01*
X35457520Y-39599500D01*
X35256497Y-39639485D01*
X35067138Y-39717920D01*
X34896720Y-39831791D01*
X34751791Y-39976720D01*
X34637920Y-40147138D01*
X34559485Y-40336497D01*
X34519500Y-40537520D01*
X33325295Y-40537520D01*
X33309174Y-40524290D01*
X33258707Y-40497315D01*
X33203948Y-40480704D01*
X33161265Y-40476500D01*
X33161257Y-40476500D01*
X33147000Y-40475096D01*
X33132743Y-40476500D01*
X32251329Y-40476500D01*
X30311329Y-38536500D01*
X34668222Y-38536500D01*
X34695397Y-38678881D01*
X34823558Y-38835080D01*
X34981115Y-38964628D01*
X35123500Y-38996916D01*
X35123500Y-38536500D01*
X35996500Y-38536500D01*
X35996500Y-38996916D01*
X36138885Y-38964628D01*
X36296442Y-38835080D01*
X36424603Y-38678881D01*
X36451778Y-38536500D01*
X35996500Y-38536500D01*
X35123500Y-38536500D01*
X34668222Y-38536500D01*
X30311329Y-38536500D01*
X29438329Y-37663500D01*
X34668222Y-37663500D01*
X35123500Y-37663500D01*
X35996500Y-37663500D01*
X36451778Y-37663500D01*
X36424603Y-37521119D01*
X36296442Y-37364920D01*
X36138885Y-37235372D01*
X35996500Y-37203084D01*
X35996500Y-37663500D01*
X35123500Y-37663500D01*
X35123500Y-37203084D01*
X34981115Y-37235372D01*
X34823558Y-37364920D01*
X34695397Y-37521119D01*
X34668222Y-37663500D01*
X29438329Y-37663500D01*
X27976500Y-36201672D01*
X27976500Y-35320265D01*
X27977905Y-35306000D01*
X27972296Y-35249052D01*
X27955685Y-35194292D01*
X27928710Y-35143826D01*
X27901501Y-35110672D01*
X27892408Y-35099592D01*
X27881327Y-35090498D01*
X27788829Y-34998000D01*
X30289500Y-34998000D01*
X30289500Y-35868000D01*
X30293160Y-35905164D01*
X30308384Y-35981701D01*
X30319226Y-36017440D01*
X30336830Y-36050375D01*
X30380185Y-36115259D01*
X30403874Y-36144124D01*
X30432741Y-36167815D01*
X30497625Y-36211170D01*
X30530562Y-36228775D01*
X30566299Y-36239616D01*
X30642836Y-36254840D01*
X30680000Y-36258500D01*
X33963000Y-36258500D01*
X34000164Y-36254840D01*
X34076701Y-36239616D01*
X34112440Y-36228774D01*
X34145375Y-36211170D01*
X34210259Y-36167815D01*
X34226500Y-36154486D01*
X34226500Y-36503000D01*
X34230160Y-36540164D01*
X34245384Y-36616701D01*
X34256226Y-36652440D01*
X34273830Y-36685375D01*
X34317185Y-36750259D01*
X34340874Y-36779124D01*
X34369741Y-36802815D01*
X34434625Y-36846170D01*
X34467562Y-36863775D01*
X34503299Y-36874616D01*
X34579836Y-36889840D01*
X34617000Y-36893500D01*
X36884590Y-36893500D01*
X36917512Y-36890634D01*
X36985597Y-36878688D01*
X37013450Y-36871600D01*
X37047504Y-36856274D01*
X37107456Y-36821864D01*
X37134582Y-36802990D01*
X37768992Y-36274315D01*
X37797875Y-36244323D01*
X37850956Y-36175510D01*
X37874420Y-36136027D01*
X37886067Y-36100545D01*
X37904949Y-36015714D01*
X37909500Y-35974325D01*
X37909500Y-29156000D01*
X37905840Y-29118836D01*
X37890616Y-29042299D01*
X37879774Y-29006560D01*
X37862170Y-28973625D01*
X37818815Y-28908741D01*
X37795126Y-28879876D01*
X37766259Y-28856185D01*
X37701375Y-28812830D01*
X37668438Y-28795225D01*
X37632701Y-28784384D01*
X37556164Y-28769160D01*
X37519000Y-28765500D01*
X36197402Y-28765500D01*
X36223280Y-28748209D01*
X36368209Y-28603280D01*
X36482080Y-28432862D01*
X36560515Y-28243503D01*
X36600500Y-28042480D01*
X36600500Y-27837520D01*
X36560515Y-27636497D01*
X36482080Y-27447138D01*
X36368209Y-27276720D01*
X36223280Y-27131791D01*
X36052862Y-27017920D01*
X35863503Y-26939485D01*
X35662480Y-26899500D01*
X35457520Y-26899500D01*
X35256497Y-26939485D01*
X35067138Y-27017920D01*
X34896720Y-27131791D01*
X34751791Y-27276720D01*
X34637920Y-27447138D01*
X34559485Y-27636497D01*
X34519500Y-27837520D01*
X34519500Y-28042480D01*
X34559485Y-28243503D01*
X34637920Y-28432862D01*
X34751791Y-28603280D01*
X34896720Y-28748209D01*
X34922598Y-28765500D01*
X34372843Y-28765500D01*
X34335679Y-28769160D01*
X34259142Y-28784384D01*
X34223404Y-28795225D01*
X34190469Y-28812829D01*
X34125584Y-28856184D01*
X34096717Y-28879875D01*
X33592143Y-29384449D01*
X33574364Y-29396329D01*
X33553393Y-29400500D01*
X30934000Y-29400500D01*
X30896836Y-29404160D01*
X30820299Y-29419384D01*
X30784560Y-29430226D01*
X30751625Y-29447830D01*
X30686741Y-29491185D01*
X30657876Y-29514874D01*
X30634185Y-29543741D01*
X30590830Y-29608625D01*
X30573225Y-29641562D01*
X30562384Y-29677299D01*
X30547160Y-29753836D01*
X30543500Y-29791000D01*
X30543500Y-30326324D01*
X30524500Y-30421841D01*
X30524500Y-30538159D01*
X30543500Y-30633676D01*
X30543500Y-30788000D01*
X30547160Y-30825164D01*
X30562384Y-30901701D01*
X30573226Y-30937440D01*
X30590830Y-30970375D01*
X30634185Y-31035259D01*
X30657874Y-31064124D01*
X30686741Y-31087815D01*
X30751625Y-31131170D01*
X30784562Y-31148775D01*
X30820299Y-31159616D01*
X30896836Y-31174840D01*
X30934000Y-31178500D01*
X33299393Y-31178500D01*
X33320364Y-31182671D01*
X33338143Y-31194551D01*
X34084092Y-31940500D01*
X31433143Y-34591449D01*
X31415364Y-34603329D01*
X31394393Y-34607500D01*
X30680000Y-34607500D01*
X30642836Y-34611160D01*
X30566299Y-34626384D01*
X30530560Y-34637226D01*
X30497625Y-34654830D01*
X30432741Y-34698185D01*
X30403876Y-34721874D01*
X30380185Y-34750741D01*
X30336830Y-34815625D01*
X30319225Y-34848562D01*
X30308384Y-34884299D01*
X30293160Y-34960836D01*
X30289500Y-34998000D01*
X27788829Y-34998000D01*
X27584006Y-34793178D01*
X27574908Y-34782092D01*
X27530674Y-34745790D01*
X27480207Y-34718815D01*
X27425448Y-34702204D01*
X27382765Y-34698000D01*
X27382757Y-34698000D01*
X27368500Y-34696596D01*
X27354243Y-34698000D01*
X26649606Y-34698000D01*
X26617366Y-34665760D01*
X26549313Y-34620289D01*
X26473697Y-34588968D01*
X26393423Y-34573000D01*
X26311577Y-34573000D01*
X26231303Y-34588968D01*
X26155687Y-34620289D01*
X26091196Y-34663380D01*
X26055817Y-34682290D01*
X26011582Y-34718592D01*
X25975280Y-34762827D01*
X25948306Y-34813293D01*
X25931694Y-34868053D01*
X25926086Y-34925000D01*
X25931694Y-34981947D01*
X25937000Y-34999438D01*
X25937000Y-35029423D01*
X25952968Y-35109697D01*
X25969041Y-35148502D01*
X25948923Y-35144500D01*
X25867077Y-35144500D01*
X25786803Y-35160468D01*
X25711187Y-35191789D01*
X25643134Y-35237260D01*
X25585260Y-35295134D01*
X25539789Y-35363187D01*
X25508468Y-35438803D01*
X25492500Y-35519077D01*
X25492500Y-35600923D01*
X25508468Y-35681197D01*
X25539789Y-35756813D01*
X25585260Y-35824866D01*
X25643134Y-35882740D01*
X25711187Y-35928211D01*
X25786803Y-35959532D01*
X25867077Y-35975500D01*
X25938225Y-35975500D01*
X25944648Y-35981208D01*
X26125501Y-36162062D01*
X26125501Y-36464685D01*
X26125500Y-36743704D01*
X26069500Y-36799704D01*
X26069500Y-36750099D01*
X26053532Y-36669825D01*
X26022211Y-36594209D01*
X25976740Y-36526156D01*
X25918866Y-36468282D01*
X25850813Y-36422811D01*
X25775197Y-36391490D01*
X25694923Y-36375522D01*
X25613077Y-36375522D01*
X25532803Y-36391490D01*
X25457187Y-36422811D01*
X25389134Y-36468282D01*
X25356894Y-36500522D01*
X23308339Y-36500522D01*
X23352862Y-36482080D01*
X23523280Y-36368209D01*
X23668209Y-36223280D01*
X23782080Y-36052862D01*
X23860515Y-35863503D01*
X23863101Y-35850500D01*
X24657705Y-35850500D01*
X24671962Y-35851904D01*
X24686219Y-35850500D01*
X24686227Y-35850500D01*
X24728910Y-35846296D01*
X24783669Y-35829685D01*
X24834136Y-35802710D01*
X24878370Y-35766408D01*
X24887468Y-35755322D01*
X25522463Y-35120328D01*
X25522467Y-35120323D01*
X26305830Y-34336961D01*
X26316634Y-34328094D01*
X27885657Y-34328094D01*
X27914932Y-34384379D01*
X28001310Y-34392629D01*
X28085068Y-34384379D01*
X28114343Y-34328094D01*
X28885657Y-34328094D01*
X28914932Y-34384379D01*
X29001310Y-34392629D01*
X29085068Y-34384379D01*
X29114343Y-34328094D01*
X29885657Y-34328094D01*
X29914932Y-34384379D01*
X30001310Y-34392629D01*
X30085068Y-34384379D01*
X30114343Y-34328094D01*
X30000000Y-34213751D01*
X29885657Y-34328094D01*
X29114343Y-34328094D01*
X29000000Y-34213751D01*
X28885657Y-34328094D01*
X28114343Y-34328094D01*
X28000000Y-34213751D01*
X27885657Y-34328094D01*
X26316634Y-34328094D01*
X26316910Y-34327868D01*
X26353212Y-34283634D01*
X26380187Y-34233167D01*
X26396798Y-34178408D01*
X26401002Y-34135725D01*
X26401002Y-34135718D01*
X26402406Y-34121461D01*
X26401002Y-34107204D01*
X26401002Y-33951310D01*
X27557371Y-33951310D01*
X27565621Y-34035068D01*
X27621906Y-34064343D01*
X27736249Y-33950000D01*
X28263751Y-33950000D01*
X28378094Y-34064343D01*
X28434379Y-34035068D01*
X28442378Y-33951310D01*
X28557371Y-33951310D01*
X28565621Y-34035068D01*
X28621906Y-34064343D01*
X28736249Y-33950000D01*
X29263751Y-33950000D01*
X29378094Y-34064343D01*
X29434379Y-34035068D01*
X29442378Y-33951310D01*
X29557371Y-33951310D01*
X29565621Y-34035068D01*
X29621906Y-34064343D01*
X29736249Y-33950000D01*
X30263751Y-33950000D01*
X30378094Y-34064343D01*
X30434379Y-34035068D01*
X30442629Y-33948690D01*
X30434379Y-33864932D01*
X30378094Y-33835657D01*
X30263751Y-33950000D01*
X29736249Y-33950000D01*
X29621906Y-33835657D01*
X29565621Y-33864932D01*
X29557371Y-33951310D01*
X29442378Y-33951310D01*
X29442629Y-33948690D01*
X29434379Y-33864932D01*
X29378094Y-33835657D01*
X29263751Y-33950000D01*
X28736249Y-33950000D01*
X28621906Y-33835657D01*
X28565621Y-33864932D01*
X28557371Y-33951310D01*
X28442378Y-33951310D01*
X28442629Y-33948690D01*
X28434379Y-33864932D01*
X28378094Y-33835657D01*
X28263751Y-33950000D01*
X27736249Y-33950000D01*
X27621906Y-33835657D01*
X27565621Y-33864932D01*
X27557371Y-33951310D01*
X26401002Y-33951310D01*
X26401002Y-33571906D01*
X27885657Y-33571906D01*
X28000000Y-33686249D01*
X28114343Y-33571906D01*
X28885657Y-33571906D01*
X29000000Y-33686249D01*
X29114343Y-33571906D01*
X29885657Y-33571906D01*
X30000000Y-33686249D01*
X30114343Y-33571906D01*
X30085068Y-33515621D01*
X29998690Y-33507371D01*
X29914932Y-33515621D01*
X29885657Y-33571906D01*
X29114343Y-33571906D01*
X29085068Y-33515621D01*
X28998690Y-33507371D01*
X28914932Y-33515621D01*
X28885657Y-33571906D01*
X28114343Y-33571906D01*
X28085068Y-33515621D01*
X27998690Y-33507371D01*
X27914932Y-33515621D01*
X27885657Y-33571906D01*
X26401002Y-33571906D01*
X26401002Y-33328094D01*
X27885657Y-33328094D01*
X27914932Y-33384379D01*
X28001310Y-33392629D01*
X28085068Y-33384379D01*
X28114343Y-33328094D01*
X28885657Y-33328094D01*
X28914932Y-33384379D01*
X29001310Y-33392629D01*
X29085068Y-33384379D01*
X29114343Y-33328094D01*
X29885657Y-33328094D01*
X29914932Y-33384379D01*
X30001310Y-33392629D01*
X30085068Y-33384379D01*
X30114343Y-33328094D01*
X30000000Y-33213751D01*
X29885657Y-33328094D01*
X29114343Y-33328094D01*
X29000000Y-33213751D01*
X28885657Y-33328094D01*
X28114343Y-33328094D01*
X28000000Y-33213751D01*
X27885657Y-33328094D01*
X26401002Y-33328094D01*
X26401002Y-32951310D01*
X27557371Y-32951310D01*
X27565621Y-33035068D01*
X27621906Y-33064343D01*
X27736249Y-32950000D01*
X28263751Y-32950000D01*
X28378094Y-33064343D01*
X28434379Y-33035068D01*
X28442378Y-32951310D01*
X28557371Y-32951310D01*
X28565621Y-33035068D01*
X28621906Y-33064343D01*
X28736249Y-32950000D01*
X29263751Y-32950000D01*
X29378094Y-33064343D01*
X29434379Y-33035068D01*
X29442378Y-32951310D01*
X29557371Y-32951310D01*
X29565621Y-33035068D01*
X29621906Y-33064343D01*
X29736249Y-32950000D01*
X30263751Y-32950000D01*
X30378094Y-33064343D01*
X30434379Y-33035068D01*
X30442629Y-32948690D01*
X30434379Y-32864932D01*
X30378094Y-32835657D01*
X30263751Y-32950000D01*
X29736249Y-32950000D01*
X29621906Y-32835657D01*
X29565621Y-32864932D01*
X29557371Y-32951310D01*
X29442378Y-32951310D01*
X29442629Y-32948690D01*
X29434379Y-32864932D01*
X29378094Y-32835657D01*
X29263751Y-32950000D01*
X28736249Y-32950000D01*
X28621906Y-32835657D01*
X28565621Y-32864932D01*
X28557371Y-32951310D01*
X28442378Y-32951310D01*
X28442629Y-32948690D01*
X28434379Y-32864932D01*
X28378094Y-32835657D01*
X28263751Y-32950000D01*
X27736249Y-32950000D01*
X27621906Y-32835657D01*
X27565621Y-32864932D01*
X27557371Y-32951310D01*
X26401002Y-32951310D01*
X26401002Y-32723053D01*
X26433242Y-32690813D01*
X26478713Y-32622760D01*
X26499777Y-32571906D01*
X27885657Y-32571906D01*
X28000000Y-32686249D01*
X28114343Y-32571906D01*
X28885657Y-32571906D01*
X29000000Y-32686249D01*
X29114343Y-32571906D01*
X29885657Y-32571906D01*
X30000000Y-32686249D01*
X30114343Y-32571906D01*
X30085068Y-32515621D01*
X29998690Y-32507371D01*
X29914932Y-32515621D01*
X29885657Y-32571906D01*
X29114343Y-32571906D01*
X29085068Y-32515621D01*
X28998690Y-32507371D01*
X28914932Y-32515621D01*
X28885657Y-32571906D01*
X28114343Y-32571906D01*
X28085068Y-32515621D01*
X27998690Y-32507371D01*
X27914932Y-32515621D01*
X27885657Y-32571906D01*
X26499777Y-32571906D01*
X26510034Y-32547144D01*
X26526002Y-32466870D01*
X26526002Y-32385024D01*
X26514678Y-32328094D01*
X27885657Y-32328094D01*
X27914932Y-32384379D01*
X28001310Y-32392629D01*
X28085068Y-32384379D01*
X28114343Y-32328094D01*
X28885657Y-32328094D01*
X28914932Y-32384379D01*
X29001310Y-32392629D01*
X29085068Y-32384379D01*
X29114343Y-32328094D01*
X29885657Y-32328094D01*
X29914932Y-32384379D01*
X30001310Y-32392629D01*
X30085068Y-32384379D01*
X30114343Y-32328094D01*
X30000000Y-32213751D01*
X29885657Y-32328094D01*
X29114343Y-32328094D01*
X29000000Y-32213751D01*
X28885657Y-32328094D01*
X28114343Y-32328094D01*
X28000000Y-32213751D01*
X27885657Y-32328094D01*
X26514678Y-32328094D01*
X26510034Y-32304750D01*
X26478713Y-32229134D01*
X26433242Y-32161081D01*
X26375368Y-32103207D01*
X26307315Y-32057736D01*
X26231699Y-32026415D01*
X26151425Y-32010447D01*
X26106693Y-32010447D01*
X26146206Y-31951310D01*
X27557371Y-31951310D01*
X27565621Y-32035068D01*
X27621906Y-32064343D01*
X27736249Y-31950000D01*
X28263751Y-31950000D01*
X28378094Y-32064343D01*
X28434379Y-32035068D01*
X28442378Y-31951310D01*
X28557371Y-31951310D01*
X28565621Y-32035068D01*
X28621906Y-32064343D01*
X28736249Y-31950000D01*
X29263751Y-31950000D01*
X29378094Y-32064343D01*
X29434379Y-32035068D01*
X29442378Y-31951310D01*
X29557371Y-31951310D01*
X29565621Y-32035068D01*
X29621906Y-32064343D01*
X29736249Y-31950000D01*
X30263751Y-31950000D01*
X30378094Y-32064343D01*
X30434379Y-32035068D01*
X30442629Y-31948690D01*
X30434379Y-31864932D01*
X30378094Y-31835657D01*
X30263751Y-31950000D01*
X29736249Y-31950000D01*
X29621906Y-31835657D01*
X29565621Y-31864932D01*
X29557371Y-31951310D01*
X29442378Y-31951310D01*
X29442629Y-31948690D01*
X29434379Y-31864932D01*
X29378094Y-31835657D01*
X29263751Y-31950000D01*
X28736249Y-31950000D01*
X28621906Y-31835657D01*
X28565621Y-31864932D01*
X28557371Y-31951310D01*
X28442378Y-31951310D01*
X28442629Y-31948690D01*
X28434379Y-31864932D01*
X28378094Y-31835657D01*
X28263751Y-31950000D01*
X27736249Y-31950000D01*
X27621906Y-31835657D01*
X27565621Y-31864932D01*
X27557371Y-31951310D01*
X26146206Y-31951310D01*
X26149211Y-31946813D01*
X26180532Y-31871197D01*
X26196500Y-31790923D01*
X26196500Y-31709077D01*
X26180532Y-31628803D01*
X26156965Y-31571906D01*
X27885657Y-31571906D01*
X28000000Y-31686249D01*
X28114343Y-31571906D01*
X28885657Y-31571906D01*
X29000000Y-31686249D01*
X29114343Y-31571906D01*
X29885657Y-31571906D01*
X30000000Y-31686249D01*
X30114343Y-31571906D01*
X30085068Y-31515621D01*
X29998690Y-31507371D01*
X29914932Y-31515621D01*
X29885657Y-31571906D01*
X29114343Y-31571906D01*
X29085068Y-31515621D01*
X28998690Y-31507371D01*
X28914932Y-31515621D01*
X28885657Y-31571906D01*
X28114343Y-31571906D01*
X28085068Y-31515621D01*
X27998690Y-31507371D01*
X27914932Y-31515621D01*
X27885657Y-31571906D01*
X26156965Y-31571906D01*
X26149211Y-31553187D01*
X26103740Y-31485134D01*
X26045866Y-31427260D01*
X25977813Y-31381789D01*
X25902197Y-31350468D01*
X25821923Y-31334500D01*
X25740077Y-31334500D01*
X25659803Y-31350468D01*
X25584187Y-31381789D01*
X25516134Y-31427260D01*
X25458260Y-31485134D01*
X25412789Y-31553187D01*
X25381468Y-31628803D01*
X25365500Y-31709077D01*
X25365500Y-31754672D01*
X25360679Y-31759493D01*
X25349593Y-31768591D01*
X25313291Y-31812826D01*
X25286316Y-31863293D01*
X25269705Y-31918052D01*
X25265501Y-31960735D01*
X25265501Y-31960742D01*
X25264097Y-31974999D01*
X25265501Y-31989256D01*
X25265502Y-33378669D01*
X24964285Y-33679887D01*
X24111719Y-33679887D01*
X24079479Y-33647647D01*
X24011426Y-33602176D01*
X23935810Y-33570855D01*
X23855536Y-33554887D01*
X23773690Y-33554887D01*
X23750981Y-33559404D01*
X23782080Y-33512862D01*
X23860515Y-33323503D01*
X23900500Y-33122480D01*
X23900500Y-32917520D01*
X23860515Y-32716497D01*
X23782080Y-32527138D01*
X23774714Y-32516115D01*
X23905327Y-32385502D01*
X23916407Y-32376409D01*
X23952709Y-32332175D01*
X23979684Y-32281708D01*
X23996295Y-32226949D01*
X24000499Y-32184266D01*
X24000499Y-32184259D01*
X24001903Y-32170002D01*
X24000499Y-32155745D01*
X24000499Y-31782329D01*
X25012329Y-30770500D01*
X26729894Y-30770500D01*
X26762134Y-30802740D01*
X26830187Y-30848211D01*
X26905803Y-30879532D01*
X26986077Y-30895500D01*
X27067923Y-30895500D01*
X27148197Y-30879532D01*
X27223813Y-30848211D01*
X27291866Y-30802740D01*
X27349740Y-30744866D01*
X27395211Y-30676813D01*
X27426532Y-30601197D01*
X27442500Y-30520923D01*
X27442500Y-30439077D01*
X27426532Y-30358803D01*
X27395211Y-30283187D01*
X27349740Y-30215134D01*
X27291866Y-30157260D01*
X27223813Y-30111789D01*
X27148197Y-30080468D01*
X27067923Y-30064500D01*
X26986077Y-30064500D01*
X26905803Y-30080468D01*
X26830187Y-30111789D01*
X26762134Y-30157260D01*
X26729894Y-30189500D01*
X24906265Y-30189500D01*
X24892000Y-30188095D01*
X24877735Y-30189500D01*
X24835052Y-30193704D01*
X24780293Y-30210315D01*
X24729826Y-30237290D01*
X24685592Y-30273592D01*
X24676498Y-30284673D01*
X23514673Y-31446499D01*
X23503592Y-31455593D01*
X23494498Y-31466674D01*
X23467289Y-31499828D01*
X23440315Y-31550294D01*
X23423703Y-31605054D01*
X23418095Y-31662001D01*
X23419500Y-31676268D01*
X23419499Y-32049672D01*
X23363885Y-32105286D01*
X23352862Y-32097920D01*
X23163503Y-32019485D01*
X22962480Y-31979500D01*
X22757520Y-31979500D01*
X22556497Y-32019485D01*
X22367138Y-32097920D01*
X22196720Y-32211791D01*
X22051791Y-32356720D01*
X21937920Y-32527138D01*
X21880500Y-32665762D01*
X21880500Y-31870328D01*
X22356114Y-31394714D01*
X22367138Y-31402080D01*
X22556497Y-31480515D01*
X22757520Y-31520500D01*
X22962480Y-31520500D01*
X23163503Y-31480515D01*
X23352862Y-31402080D01*
X23523280Y-31288209D01*
X23668209Y-31143280D01*
X23782080Y-30972862D01*
X23860515Y-30783503D01*
X23900500Y-30582480D01*
X23900500Y-30377520D01*
X23860515Y-30176497D01*
X23782080Y-29987138D01*
X23668209Y-29816720D01*
X23523280Y-29671791D01*
X23352862Y-29557920D01*
X23163503Y-29479485D01*
X22962480Y-29439500D01*
X22757520Y-29439500D01*
X22556497Y-29479485D01*
X22367138Y-29557920D01*
X22196720Y-29671791D01*
X22051791Y-29816720D01*
X21937920Y-29987138D01*
X21859485Y-30176497D01*
X21819500Y-30377520D01*
X21819500Y-30582480D01*
X21859485Y-30783503D01*
X21937920Y-30972862D01*
X21945286Y-30983886D01*
X21499500Y-31429672D01*
X21499500Y-30092328D01*
X22254951Y-29336878D01*
X27275050Y-29336878D01*
X28486498Y-30548327D01*
X28495592Y-30559408D01*
X28506672Y-30568501D01*
X28539826Y-30595710D01*
X28590293Y-30622685D01*
X28645052Y-30639296D01*
X28702000Y-30644905D01*
X28716265Y-30643500D01*
X29576743Y-30643500D01*
X29591000Y-30644904D01*
X29605257Y-30643500D01*
X29605265Y-30643500D01*
X29647948Y-30639296D01*
X29702707Y-30622685D01*
X29753174Y-30595710D01*
X29797408Y-30559408D01*
X29806506Y-30548322D01*
X29913323Y-30441505D01*
X29924408Y-30432408D01*
X29960710Y-30388174D01*
X29987685Y-30337707D01*
X30004296Y-30282948D01*
X30008500Y-30240265D01*
X30008500Y-30240258D01*
X30009904Y-30226001D01*
X30008500Y-30211744D01*
X30008500Y-30015106D01*
X30040740Y-29982866D01*
X30086211Y-29914813D01*
X30117532Y-29839197D01*
X30133500Y-29758923D01*
X30133500Y-29677077D01*
X30117532Y-29596803D01*
X30086211Y-29521187D01*
X30040740Y-29453134D01*
X29982866Y-29395260D01*
X29914813Y-29349789D01*
X29839197Y-29318468D01*
X29758923Y-29302500D01*
X29677077Y-29302500D01*
X29596803Y-29318468D01*
X29521187Y-29349789D01*
X29453134Y-29395260D01*
X29395260Y-29453134D01*
X29373500Y-29485701D01*
X29373500Y-28110106D01*
X29405740Y-28077866D01*
X29451211Y-28009813D01*
X29482532Y-27934197D01*
X29498500Y-27853923D01*
X29498500Y-27772077D01*
X29482532Y-27691803D01*
X29451211Y-27616187D01*
X29405740Y-27548134D01*
X29347866Y-27490260D01*
X29279813Y-27444789D01*
X29204197Y-27413468D01*
X29123923Y-27397500D01*
X29042077Y-27397500D01*
X28961803Y-27413468D01*
X28886187Y-27444789D01*
X28818134Y-27490260D01*
X28760260Y-27548134D01*
X28714789Y-27616187D01*
X28683468Y-27691803D01*
X28667500Y-27772077D01*
X28667500Y-27853923D01*
X28683468Y-27934197D01*
X28714789Y-28009813D01*
X28760260Y-28077866D01*
X28792501Y-28110107D01*
X28792500Y-29333588D01*
X28759187Y-29347387D01*
X28691134Y-29392858D01*
X28633260Y-29450732D01*
X28587789Y-29518785D01*
X28556468Y-29594401D01*
X28540500Y-29674675D01*
X28540500Y-29756521D01*
X28546497Y-29786668D01*
X27610884Y-28851056D01*
X27601786Y-28839970D01*
X27557552Y-28803668D01*
X27507085Y-28776693D01*
X27452326Y-28760082D01*
X27409643Y-28755878D01*
X27409635Y-28755878D01*
X27395378Y-28754474D01*
X27381121Y-28755878D01*
X23511803Y-28755878D01*
X23523280Y-28748209D01*
X23668209Y-28603280D01*
X23782080Y-28432862D01*
X23860515Y-28243503D01*
X23900500Y-28042480D01*
X23900500Y-27837520D01*
X23860515Y-27636497D01*
X23782080Y-27447138D01*
X23668209Y-27276720D01*
X23523280Y-27131791D01*
X23352862Y-27017920D01*
X23163503Y-26939485D01*
X22962480Y-26899500D01*
X22757520Y-26899500D01*
X22556497Y-26939485D01*
X22367138Y-27017920D01*
X22196720Y-27131791D01*
X22051791Y-27276720D01*
X21937920Y-27447138D01*
X21859485Y-27636497D01*
X21819500Y-27837520D01*
X21819500Y-28042480D01*
X21859485Y-28243503D01*
X21937920Y-28432862D01*
X22051791Y-28603280D01*
X22196720Y-28748209D01*
X22208197Y-28755878D01*
X22148878Y-28755878D01*
X22134621Y-28754474D01*
X22120364Y-28755878D01*
X22120357Y-28755878D01*
X22077674Y-28760082D01*
X22022915Y-28776693D01*
X21972448Y-28803668D01*
X21928214Y-28839970D01*
X21919120Y-28851051D01*
X21013674Y-29756498D01*
X21002593Y-29765592D01*
X20993499Y-29776673D01*
X20966290Y-29809827D01*
X20939316Y-29860293D01*
X20922704Y-29915053D01*
X20917096Y-29972000D01*
X20918501Y-29986267D01*
X20918500Y-33992894D01*
X20886260Y-34025134D01*
X20864500Y-34057701D01*
X20864500Y-27348106D01*
X20896740Y-27315866D01*
X20942211Y-27247813D01*
X20973532Y-27172197D01*
X20989500Y-27091923D01*
X20989500Y-27010077D01*
X20973532Y-26929803D01*
X20942211Y-26854187D01*
X20896740Y-26786134D01*
X20838866Y-26728260D01*
X20770813Y-26682789D01*
X20695197Y-26651468D01*
X20614923Y-26635500D01*
X20533077Y-26635500D01*
X20452803Y-26651468D01*
X20377187Y-26682789D01*
X20309134Y-26728260D01*
X20251260Y-26786134D01*
X20229500Y-26818701D01*
X20229500Y-26409328D01*
X20948329Y-25690500D01*
X21856899Y-25690500D01*
X21859485Y-25703503D01*
X21937920Y-25892862D01*
X22051791Y-26063280D01*
X22196720Y-26208209D01*
X22367138Y-26322080D01*
X22556497Y-26400515D01*
X22757520Y-26440500D01*
X22962480Y-26440500D01*
X23163503Y-26400515D01*
X23352862Y-26322080D01*
X23523280Y-26208209D01*
X23668209Y-26063280D01*
X23782080Y-25892862D01*
X23860515Y-25703503D01*
X23900500Y-25502480D01*
X23900500Y-25297520D01*
X34519500Y-25297520D01*
X34519500Y-25502480D01*
X34559485Y-25703503D01*
X34637920Y-25892862D01*
X34751791Y-26063280D01*
X34896720Y-26208209D01*
X35067138Y-26322080D01*
X35256497Y-26400515D01*
X35457520Y-26440500D01*
X35662480Y-26440500D01*
X35863503Y-26400515D01*
X36052862Y-26322080D01*
X36223280Y-26208209D01*
X36368209Y-26063280D01*
X36482080Y-25892862D01*
X36560515Y-25703503D01*
X36563101Y-25690500D01*
X37323743Y-25690500D01*
X37338000Y-25691904D01*
X37352257Y-25690500D01*
X37352265Y-25690500D01*
X37394948Y-25686296D01*
X37449707Y-25669685D01*
X37500174Y-25642710D01*
X37544408Y-25606408D01*
X37553506Y-25595322D01*
X38549328Y-24599501D01*
X38560408Y-24590408D01*
X38596710Y-24546174D01*
X38623685Y-24495707D01*
X38640296Y-24440948D01*
X38644500Y-24398265D01*
X38644500Y-24398264D01*
X38645905Y-24384000D01*
X38644500Y-24369735D01*
X38644500Y-23792106D01*
X38676740Y-23759866D01*
X38722211Y-23691813D01*
X38753532Y-23616197D01*
X38769500Y-23535923D01*
X38769500Y-23454077D01*
X38753532Y-23373803D01*
X38722211Y-23298187D01*
X38676740Y-23230134D01*
X38618866Y-23172260D01*
X38550813Y-23126789D01*
X38475197Y-23095468D01*
X38394923Y-23079500D01*
X38313077Y-23079500D01*
X38232803Y-23095468D01*
X38157187Y-23126789D01*
X38089134Y-23172260D01*
X38031260Y-23230134D01*
X37985789Y-23298187D01*
X37954468Y-23373803D01*
X37938500Y-23454077D01*
X37938500Y-23535923D01*
X37954468Y-23616197D01*
X37985789Y-23691813D01*
X38031260Y-23759866D01*
X38063501Y-23792107D01*
X38063500Y-24263671D01*
X37217672Y-25109500D01*
X36563101Y-25109500D01*
X36560515Y-25096497D01*
X36482080Y-24907138D01*
X36368209Y-24736720D01*
X36223280Y-24591791D01*
X36052862Y-24477920D01*
X35863503Y-24399485D01*
X35662480Y-24359500D01*
X35457520Y-24359500D01*
X35256497Y-24399485D01*
X35067138Y-24477920D01*
X34896720Y-24591791D01*
X34751791Y-24736720D01*
X34637920Y-24907138D01*
X34559485Y-25096497D01*
X34519500Y-25297520D01*
X23900500Y-25297520D01*
X23860515Y-25096497D01*
X23782080Y-24907138D01*
X23668209Y-24736720D01*
X23523280Y-24591791D01*
X23352862Y-24477920D01*
X23163503Y-24399485D01*
X22962480Y-24359500D01*
X22757520Y-24359500D01*
X22556497Y-24399485D01*
X22367138Y-24477920D01*
X22196720Y-24591791D01*
X22051791Y-24736720D01*
X21937920Y-24907138D01*
X21859485Y-25096497D01*
X21856899Y-25109500D01*
X20842265Y-25109500D01*
X20828000Y-25108095D01*
X20813735Y-25109500D01*
X20771052Y-25113704D01*
X20716293Y-25130315D01*
X20665826Y-25157290D01*
X20621592Y-25193592D01*
X20612498Y-25204673D01*
X19743678Y-26073494D01*
X19732592Y-26082592D01*
X19696290Y-26126827D01*
X19669315Y-26177294D01*
X19652704Y-26232053D01*
X19648500Y-26274736D01*
X19648500Y-26274743D01*
X19647096Y-26289000D01*
X19215500Y-26289000D01*
X19215500Y-22010000D01*
X21818579Y-22010000D01*
X21818579Y-23710000D01*
X21822257Y-23747344D01*
X21833150Y-23783254D01*
X21850839Y-23816348D01*
X21874645Y-23845355D01*
X21903652Y-23869161D01*
X21936746Y-23886850D01*
X21972656Y-23897743D01*
X22010000Y-23901421D01*
X23710000Y-23901421D01*
X23747344Y-23897743D01*
X23783254Y-23886850D01*
X23816348Y-23869161D01*
X23845355Y-23845355D01*
X23869161Y-23816348D01*
X23886850Y-23783254D01*
X23897743Y-23747344D01*
X23901421Y-23710000D01*
X34518578Y-23710000D01*
X34522256Y-23747345D01*
X34533149Y-23783254D01*
X34550838Y-23816348D01*
X34574644Y-23845356D01*
X34603652Y-23869162D01*
X34636746Y-23886851D01*
X34672655Y-23897744D01*
X34710000Y-23901422D01*
X35075875Y-23900500D01*
X35123500Y-23852875D01*
X35123500Y-23296500D01*
X35996500Y-23296500D01*
X35996500Y-23852875D01*
X36044125Y-23900500D01*
X36410000Y-23901422D01*
X36447345Y-23897744D01*
X36483254Y-23886851D01*
X36516348Y-23869162D01*
X36545356Y-23845356D01*
X36569162Y-23816348D01*
X36586851Y-23783254D01*
X36597744Y-23747345D01*
X36601422Y-23710000D01*
X36600500Y-23344125D01*
X36552875Y-23296500D01*
X35996500Y-23296500D01*
X35123500Y-23296500D01*
X34567125Y-23296500D01*
X34519500Y-23344125D01*
X34518578Y-23710000D01*
X23901421Y-23710000D01*
X23901421Y-22010000D01*
X34518578Y-22010000D01*
X34519500Y-22375875D01*
X34567125Y-22423500D01*
X35123500Y-22423500D01*
X35123500Y-21867125D01*
X35996500Y-21867125D01*
X35996500Y-22423500D01*
X36552875Y-22423500D01*
X36600500Y-22375875D01*
X36601422Y-22010000D01*
X36597744Y-21972655D01*
X36586851Y-21936746D01*
X36569162Y-21903652D01*
X36545356Y-21874644D01*
X36516348Y-21850838D01*
X36483254Y-21833149D01*
X36447345Y-21822256D01*
X36410000Y-21818578D01*
X36044125Y-21819500D01*
X35996500Y-21867125D01*
X35123500Y-21867125D01*
X35075875Y-21819500D01*
X34710000Y-21818578D01*
X34672655Y-21822256D01*
X34636746Y-21833149D01*
X34603652Y-21850838D01*
X34574644Y-21874644D01*
X34550838Y-21903652D01*
X34533149Y-21936746D01*
X34522256Y-21972655D01*
X34518578Y-22010000D01*
X23901421Y-22010000D01*
X23897743Y-21972656D01*
X23886850Y-21936746D01*
X23869161Y-21903652D01*
X23845355Y-21874645D01*
X23816348Y-21850839D01*
X23783254Y-21833150D01*
X23747344Y-21822257D01*
X23710000Y-21818579D01*
X22010000Y-21818579D01*
X21972656Y-21822257D01*
X21936746Y-21833150D01*
X21903652Y-21850839D01*
X21874645Y-21874645D01*
X21850839Y-21903652D01*
X21833150Y-21936746D01*
X21822257Y-21972656D01*
X21818579Y-22010000D01*
X19215500Y-22010000D01*
X19215500Y-21215500D01*
X39784500Y-21215500D01*
X39784501Y-44784500D01*
G36*
X20251260Y-27315866D02*
G01*
X20283501Y-27348107D01*
X20283500Y-35130781D01*
X20282096Y-35145038D01*
X20283500Y-35159295D01*
X20283500Y-35159302D01*
X20287704Y-35201985D01*
X20304315Y-35256744D01*
X20331290Y-35307211D01*
X20367592Y-35351446D01*
X20378678Y-35360544D01*
X21684633Y-36666500D01*
X20821329Y-36666500D01*
X20229500Y-36074672D01*
X20229500Y-27283299D01*
X20251260Y-27315866D01*
G37*
X20251260Y-27315866D02*
X20283501Y-27348107D01*
X20283500Y-35130781D01*
X20282096Y-35145038D01*
X20283500Y-35159295D01*
X20283500Y-35159302D01*
X20287704Y-35201985D01*
X20304315Y-35256744D01*
X20331290Y-35307211D01*
X20367592Y-35351446D01*
X20378678Y-35360544D01*
X21684633Y-36666500D01*
X20821329Y-36666500D01*
X20229500Y-36074672D01*
X20229500Y-27283299D01*
X20251260Y-27315866D01*
M02*
