G04 #@! TF.GenerationSoftware,KiCad,Pcbnew,(5.1.5)-3*
G04 #@! TF.CreationDate,2020-05-13T09:52:28+02:00*
G04 #@! TF.ProjectId,3D_Printer_Stepper_TMC2209,33445f50-7269-46e7-9465-725f53746570,rev?*
G04 #@! TF.SameCoordinates,Original*
G04 #@! TF.FileFunction,Soldermask,Top*
G04 #@! TF.FilePolarity,Negative*
%FSLAX46Y46*%
G04 Gerber Fmt 4.6, Leading zero omitted, Abs format (unit mm)*
G04 Created by KiCad (PCBNEW (5.1.5)-3) date 2020-05-13 09:52:28*
%MOMM*%
%LPD*%
G04 APERTURE LIST*
%ADD10C,0.100000*%
G04 APERTURE END LIST*
D10*
G36*
X33972798Y-42828247D02*
G01*
X34008367Y-42839037D01*
X34041139Y-42856554D01*
X34069869Y-42880131D01*
X34093446Y-42908861D01*
X34110963Y-42941633D01*
X34121753Y-42977202D01*
X34126000Y-43020325D01*
X34126000Y-44079675D01*
X34121753Y-44122798D01*
X34110963Y-44158367D01*
X34093446Y-44191139D01*
X34069869Y-44219869D01*
X34041139Y-44243446D01*
X34008367Y-44260963D01*
X33972798Y-44271753D01*
X33929675Y-44276000D01*
X30870325Y-44276000D01*
X30827202Y-44271753D01*
X30791633Y-44260963D01*
X30758861Y-44243446D01*
X30730131Y-44219869D01*
X30706554Y-44191139D01*
X30689037Y-44158367D01*
X30678247Y-44122798D01*
X30674000Y-44079675D01*
X30674000Y-43020325D01*
X30678247Y-42977202D01*
X30689037Y-42941633D01*
X30706554Y-42908861D01*
X30730131Y-42880131D01*
X30758861Y-42856554D01*
X30791633Y-42839037D01*
X30827202Y-42828247D01*
X30870325Y-42824000D01*
X33929675Y-42824000D01*
X33972798Y-42828247D01*
G37*
G36*
X27779591Y-43290585D02*
G01*
X27813569Y-43300893D01*
X27844890Y-43317634D01*
X27872339Y-43340161D01*
X27894866Y-43367610D01*
X27911607Y-43398931D01*
X27921915Y-43432909D01*
X27926000Y-43474390D01*
X27926000Y-44075610D01*
X27921915Y-44117091D01*
X27911607Y-44151069D01*
X27894866Y-44182390D01*
X27872339Y-44209839D01*
X27844890Y-44232366D01*
X27813569Y-44249107D01*
X27779591Y-44259415D01*
X27738110Y-44263500D01*
X27061890Y-44263500D01*
X27020409Y-44259415D01*
X26986431Y-44249107D01*
X26955110Y-44232366D01*
X26927661Y-44209839D01*
X26905134Y-44182390D01*
X26888393Y-44151069D01*
X26878085Y-44117091D01*
X26874000Y-44075610D01*
X26874000Y-43474390D01*
X26878085Y-43432909D01*
X26888393Y-43398931D01*
X26905134Y-43367610D01*
X26927661Y-43340161D01*
X26955110Y-43317634D01*
X26986431Y-43300893D01*
X27020409Y-43290585D01*
X27061890Y-43286500D01*
X27738110Y-43286500D01*
X27779591Y-43290585D01*
G37*
G36*
X25979591Y-43290585D02*
G01*
X26013569Y-43300893D01*
X26044890Y-43317634D01*
X26072339Y-43340161D01*
X26094866Y-43367610D01*
X26111607Y-43398931D01*
X26121915Y-43432909D01*
X26126000Y-43474390D01*
X26126000Y-44075610D01*
X26121915Y-44117091D01*
X26111607Y-44151069D01*
X26094866Y-44182390D01*
X26072339Y-44209839D01*
X26044890Y-44232366D01*
X26013569Y-44249107D01*
X25979591Y-44259415D01*
X25938110Y-44263500D01*
X25261890Y-44263500D01*
X25220409Y-44259415D01*
X25186431Y-44249107D01*
X25155110Y-44232366D01*
X25127661Y-44209839D01*
X25105134Y-44182390D01*
X25088393Y-44151069D01*
X25078085Y-44117091D01*
X25074000Y-44075610D01*
X25074000Y-43474390D01*
X25078085Y-43432909D01*
X25088393Y-43398931D01*
X25105134Y-43367610D01*
X25127661Y-43340161D01*
X25155110Y-43317634D01*
X25186431Y-43300893D01*
X25220409Y-43290585D01*
X25261890Y-43286500D01*
X25938110Y-43286500D01*
X25979591Y-43290585D01*
G37*
G36*
X29984468Y-43141065D02*
G01*
X30023138Y-43152796D01*
X30058777Y-43171846D01*
X30090017Y-43197483D01*
X30115654Y-43228723D01*
X30134704Y-43264362D01*
X30146435Y-43303032D01*
X30151000Y-43349388D01*
X30151000Y-44000612D01*
X30146435Y-44046968D01*
X30134704Y-44085638D01*
X30115654Y-44121277D01*
X30090017Y-44152517D01*
X30058777Y-44178154D01*
X30023138Y-44197204D01*
X29984468Y-44208935D01*
X29938112Y-44213500D01*
X28861888Y-44213500D01*
X28815532Y-44208935D01*
X28776862Y-44197204D01*
X28741223Y-44178154D01*
X28709983Y-44152517D01*
X28684346Y-44121277D01*
X28665296Y-44085638D01*
X28653565Y-44046968D01*
X28649000Y-44000612D01*
X28649000Y-43349388D01*
X28653565Y-43303032D01*
X28665296Y-43264362D01*
X28684346Y-43228723D01*
X28709983Y-43197483D01*
X28741223Y-43171846D01*
X28776862Y-43152796D01*
X28815532Y-43141065D01*
X28861888Y-43136500D01*
X29938112Y-43136500D01*
X29984468Y-43141065D01*
G37*
G36*
X35673512Y-42283927D02*
G01*
X35822812Y-42313624D01*
X35986784Y-42381544D01*
X36134354Y-42480147D01*
X36259853Y-42605646D01*
X36358456Y-42753216D01*
X36426376Y-42917188D01*
X36461000Y-43091259D01*
X36461000Y-43268741D01*
X36426376Y-43442812D01*
X36358456Y-43606784D01*
X36259853Y-43754354D01*
X36134354Y-43879853D01*
X35986784Y-43978456D01*
X35822812Y-44046376D01*
X35675839Y-44075610D01*
X35648742Y-44081000D01*
X35471258Y-44081000D01*
X35444161Y-44075610D01*
X35297188Y-44046376D01*
X35133216Y-43978456D01*
X34985646Y-43879853D01*
X34860147Y-43754354D01*
X34761544Y-43606784D01*
X34693624Y-43442812D01*
X34659000Y-43268741D01*
X34659000Y-43091259D01*
X34693624Y-42917188D01*
X34761544Y-42753216D01*
X34860147Y-42605646D01*
X34985646Y-42480147D01*
X35133216Y-42381544D01*
X35297188Y-42313624D01*
X35446488Y-42283927D01*
X35471258Y-42279000D01*
X35648742Y-42279000D01*
X35673512Y-42283927D01*
G37*
G36*
X22973512Y-42283927D02*
G01*
X23122812Y-42313624D01*
X23286784Y-42381544D01*
X23434354Y-42480147D01*
X23559853Y-42605646D01*
X23658456Y-42753216D01*
X23726376Y-42917188D01*
X23761000Y-43091259D01*
X23761000Y-43268741D01*
X23726376Y-43442812D01*
X23658456Y-43606784D01*
X23559853Y-43754354D01*
X23434354Y-43879853D01*
X23286784Y-43978456D01*
X23122812Y-44046376D01*
X22975839Y-44075610D01*
X22948742Y-44081000D01*
X22771258Y-44081000D01*
X22744161Y-44075610D01*
X22597188Y-44046376D01*
X22433216Y-43978456D01*
X22285646Y-43879853D01*
X22160147Y-43754354D01*
X22061544Y-43606784D01*
X21993624Y-43442812D01*
X21959000Y-43268741D01*
X21959000Y-43091259D01*
X21993624Y-42917188D01*
X22061544Y-42753216D01*
X22160147Y-42605646D01*
X22285646Y-42480147D01*
X22433216Y-42381544D01*
X22597188Y-42313624D01*
X22746488Y-42283927D01*
X22771258Y-42279000D01*
X22948742Y-42279000D01*
X22973512Y-42283927D01*
G37*
G36*
X27779591Y-41715585D02*
G01*
X27813569Y-41725893D01*
X27844890Y-41742634D01*
X27872339Y-41765161D01*
X27894866Y-41792610D01*
X27911607Y-41823931D01*
X27921915Y-41857909D01*
X27926000Y-41899390D01*
X27926000Y-42500610D01*
X27921915Y-42542091D01*
X27911607Y-42576069D01*
X27894866Y-42607390D01*
X27872339Y-42634839D01*
X27844890Y-42657366D01*
X27813569Y-42674107D01*
X27779591Y-42684415D01*
X27738110Y-42688500D01*
X27061890Y-42688500D01*
X27020409Y-42684415D01*
X26986431Y-42674107D01*
X26955110Y-42657366D01*
X26927661Y-42634839D01*
X26905134Y-42607390D01*
X26888393Y-42576069D01*
X26878085Y-42542091D01*
X26874000Y-42500610D01*
X26874000Y-41899390D01*
X26878085Y-41857909D01*
X26888393Y-41823931D01*
X26905134Y-41792610D01*
X26927661Y-41765161D01*
X26955110Y-41742634D01*
X26986431Y-41725893D01*
X27020409Y-41715585D01*
X27061890Y-41711500D01*
X27738110Y-41711500D01*
X27779591Y-41715585D01*
G37*
G36*
X25979591Y-41715585D02*
G01*
X26013569Y-41725893D01*
X26044890Y-41742634D01*
X26072339Y-41765161D01*
X26094866Y-41792610D01*
X26111607Y-41823931D01*
X26121915Y-41857909D01*
X26126000Y-41899390D01*
X26126000Y-42500610D01*
X26121915Y-42542091D01*
X26111607Y-42576069D01*
X26094866Y-42607390D01*
X26072339Y-42634839D01*
X26044890Y-42657366D01*
X26013569Y-42674107D01*
X25979591Y-42684415D01*
X25938110Y-42688500D01*
X25261890Y-42688500D01*
X25220409Y-42684415D01*
X25186431Y-42674107D01*
X25155110Y-42657366D01*
X25127661Y-42634839D01*
X25105134Y-42607390D01*
X25088393Y-42576069D01*
X25078085Y-42542091D01*
X25074000Y-42500610D01*
X25074000Y-41899390D01*
X25078085Y-41857909D01*
X25088393Y-41823931D01*
X25105134Y-41792610D01*
X25127661Y-41765161D01*
X25155110Y-41742634D01*
X25186431Y-41725893D01*
X25220409Y-41715585D01*
X25261890Y-41711500D01*
X25938110Y-41711500D01*
X25979591Y-41715585D01*
G37*
G36*
X29984468Y-41266065D02*
G01*
X30023138Y-41277796D01*
X30058777Y-41296846D01*
X30090017Y-41322483D01*
X30115654Y-41353723D01*
X30134704Y-41389362D01*
X30146435Y-41428032D01*
X30151000Y-41474388D01*
X30151000Y-42125612D01*
X30146435Y-42171968D01*
X30134704Y-42210638D01*
X30115654Y-42246277D01*
X30090017Y-42277517D01*
X30058777Y-42303154D01*
X30023138Y-42322204D01*
X29984468Y-42333935D01*
X29938112Y-42338500D01*
X28861888Y-42338500D01*
X28815532Y-42333935D01*
X28776862Y-42322204D01*
X28741223Y-42303154D01*
X28709983Y-42277517D01*
X28684346Y-42246277D01*
X28665296Y-42210638D01*
X28653565Y-42171968D01*
X28649000Y-42125612D01*
X28649000Y-41474388D01*
X28653565Y-41428032D01*
X28665296Y-41389362D01*
X28684346Y-41353723D01*
X28709983Y-41322483D01*
X28741223Y-41296846D01*
X28776862Y-41277796D01*
X28815532Y-41266065D01*
X28861888Y-41261500D01*
X29938112Y-41261500D01*
X29984468Y-41266065D01*
G37*
G36*
X35671018Y-39743431D02*
G01*
X35822812Y-39773624D01*
X35986784Y-39841544D01*
X36134354Y-39940147D01*
X36259853Y-40065646D01*
X36358456Y-40213216D01*
X36426376Y-40377188D01*
X36461000Y-40551259D01*
X36461000Y-40728741D01*
X36426376Y-40902812D01*
X36358456Y-41066784D01*
X36259853Y-41214354D01*
X36134354Y-41339853D01*
X35986784Y-41438456D01*
X35822812Y-41506376D01*
X35673512Y-41536073D01*
X35648742Y-41541000D01*
X35471258Y-41541000D01*
X35446488Y-41536073D01*
X35297188Y-41506376D01*
X35133216Y-41438456D01*
X34985646Y-41339853D01*
X34860147Y-41214354D01*
X34761544Y-41066784D01*
X34693624Y-40902812D01*
X34659000Y-40728741D01*
X34659000Y-40551259D01*
X34693624Y-40377188D01*
X34761544Y-40213216D01*
X34860147Y-40065646D01*
X34985646Y-39940147D01*
X35133216Y-39841544D01*
X35297188Y-39773624D01*
X35448982Y-39743431D01*
X35471258Y-39739000D01*
X35648742Y-39739000D01*
X35671018Y-39743431D01*
G37*
G36*
X22971018Y-39743431D02*
G01*
X23122812Y-39773624D01*
X23286784Y-39841544D01*
X23434354Y-39940147D01*
X23559853Y-40065646D01*
X23658456Y-40213216D01*
X23726376Y-40377188D01*
X23761000Y-40551259D01*
X23761000Y-40728741D01*
X23726376Y-40902812D01*
X23658456Y-41066784D01*
X23559853Y-41214354D01*
X23434354Y-41339853D01*
X23286784Y-41438456D01*
X23122812Y-41506376D01*
X22973512Y-41536073D01*
X22948742Y-41541000D01*
X22771258Y-41541000D01*
X22746488Y-41536073D01*
X22597188Y-41506376D01*
X22433216Y-41438456D01*
X22285646Y-41339853D01*
X22160147Y-41214354D01*
X22061544Y-41066784D01*
X21993624Y-40902812D01*
X21959000Y-40728741D01*
X21959000Y-40551259D01*
X21993624Y-40377188D01*
X22061544Y-40213216D01*
X22160147Y-40065646D01*
X22285646Y-39940147D01*
X22433216Y-39841544D01*
X22597188Y-39773624D01*
X22748982Y-39743431D01*
X22771258Y-39739000D01*
X22948742Y-39739000D01*
X22971018Y-39743431D01*
G37*
G36*
X25179591Y-39635085D02*
G01*
X25213569Y-39645393D01*
X25244890Y-39662134D01*
X25272339Y-39684661D01*
X25294866Y-39712110D01*
X25311607Y-39743431D01*
X25321915Y-39777409D01*
X25326000Y-39818890D01*
X25326000Y-40420110D01*
X25321915Y-40461591D01*
X25311607Y-40495569D01*
X25294866Y-40526890D01*
X25272339Y-40554339D01*
X25244890Y-40576866D01*
X25213569Y-40593607D01*
X25179591Y-40603915D01*
X25138110Y-40608000D01*
X24461890Y-40608000D01*
X24420409Y-40603915D01*
X24386431Y-40593607D01*
X24355110Y-40576866D01*
X24327661Y-40554339D01*
X24305134Y-40526890D01*
X24288393Y-40495569D01*
X24278085Y-40461591D01*
X24274000Y-40420110D01*
X24274000Y-39818890D01*
X24278085Y-39777409D01*
X24288393Y-39743431D01*
X24305134Y-39712110D01*
X24327661Y-39684661D01*
X24355110Y-39662134D01*
X24386431Y-39645393D01*
X24420409Y-39635085D01*
X24461890Y-39631000D01*
X25138110Y-39631000D01*
X25179591Y-39635085D01*
G37*
G36*
X29971968Y-38877565D02*
G01*
X30010638Y-38889296D01*
X30046277Y-38908346D01*
X30077517Y-38933983D01*
X30103154Y-38965223D01*
X30122204Y-39000862D01*
X30133935Y-39039532D01*
X30138500Y-39085888D01*
X30138500Y-40162112D01*
X30133935Y-40208468D01*
X30122204Y-40247138D01*
X30103154Y-40282777D01*
X30077517Y-40314017D01*
X30046277Y-40339654D01*
X30010638Y-40358704D01*
X29971968Y-40370435D01*
X29925612Y-40375000D01*
X29274388Y-40375000D01*
X29228032Y-40370435D01*
X29189362Y-40358704D01*
X29153723Y-40339654D01*
X29122483Y-40314017D01*
X29096846Y-40282777D01*
X29077796Y-40247138D01*
X29066065Y-40208468D01*
X29061500Y-40162112D01*
X29061500Y-39085888D01*
X29066065Y-39039532D01*
X29077796Y-39000862D01*
X29096846Y-38965223D01*
X29122483Y-38933983D01*
X29153723Y-38908346D01*
X29189362Y-38889296D01*
X29228032Y-38877565D01*
X29274388Y-38873000D01*
X29925612Y-38873000D01*
X29971968Y-38877565D01*
G37*
G36*
X28096968Y-38877565D02*
G01*
X28135638Y-38889296D01*
X28171277Y-38908346D01*
X28202517Y-38933983D01*
X28228154Y-38965223D01*
X28247204Y-39000862D01*
X28258935Y-39039532D01*
X28263500Y-39085888D01*
X28263500Y-40162112D01*
X28258935Y-40208468D01*
X28247204Y-40247138D01*
X28228154Y-40282777D01*
X28202517Y-40314017D01*
X28171277Y-40339654D01*
X28135638Y-40358704D01*
X28096968Y-40370435D01*
X28050612Y-40375000D01*
X27399388Y-40375000D01*
X27353032Y-40370435D01*
X27314362Y-40358704D01*
X27278723Y-40339654D01*
X27247483Y-40314017D01*
X27221846Y-40282777D01*
X27202796Y-40247138D01*
X27191065Y-40208468D01*
X27186500Y-40162112D01*
X27186500Y-39085888D01*
X27191065Y-39039532D01*
X27202796Y-39000862D01*
X27221846Y-38965223D01*
X27247483Y-38933983D01*
X27278723Y-38908346D01*
X27314362Y-38889296D01*
X27353032Y-38877565D01*
X27399388Y-38873000D01*
X28050612Y-38873000D01*
X28096968Y-38877565D01*
G37*
G36*
X26481938Y-38826716D02*
G01*
X26502557Y-38832971D01*
X26521553Y-38843124D01*
X26538208Y-38856792D01*
X26551876Y-38873447D01*
X26562029Y-38892443D01*
X26568284Y-38913062D01*
X26571000Y-38940640D01*
X26571000Y-39399360D01*
X26568284Y-39426938D01*
X26562029Y-39447557D01*
X26551876Y-39466553D01*
X26538208Y-39483208D01*
X26521553Y-39496876D01*
X26502557Y-39507029D01*
X26481938Y-39513284D01*
X26454360Y-39516000D01*
X25945640Y-39516000D01*
X25918062Y-39513284D01*
X25897443Y-39507029D01*
X25878447Y-39496876D01*
X25861792Y-39483208D01*
X25848124Y-39466553D01*
X25837971Y-39447557D01*
X25831716Y-39426938D01*
X25829000Y-39399360D01*
X25829000Y-38940640D01*
X25831716Y-38913062D01*
X25837971Y-38892443D01*
X25848124Y-38873447D01*
X25861792Y-38856792D01*
X25878447Y-38843124D01*
X25897443Y-38832971D01*
X25918062Y-38826716D01*
X25945640Y-38824000D01*
X26454360Y-38824000D01*
X26481938Y-38826716D01*
G37*
G36*
X25179591Y-38060085D02*
G01*
X25213569Y-38070393D01*
X25244890Y-38087134D01*
X25272339Y-38109661D01*
X25294866Y-38137110D01*
X25311607Y-38168431D01*
X25321915Y-38202409D01*
X25326000Y-38243890D01*
X25326000Y-38845110D01*
X25321915Y-38886591D01*
X25311607Y-38920569D01*
X25294866Y-38951890D01*
X25272339Y-38979339D01*
X25244890Y-39001866D01*
X25213569Y-39018607D01*
X25179591Y-39028915D01*
X25138110Y-39033000D01*
X24461890Y-39033000D01*
X24420409Y-39028915D01*
X24386431Y-39018607D01*
X24355110Y-39001866D01*
X24327661Y-38979339D01*
X24305134Y-38951890D01*
X24288393Y-38920569D01*
X24278085Y-38886591D01*
X24274000Y-38845110D01*
X24274000Y-38243890D01*
X24278085Y-38202409D01*
X24288393Y-38168431D01*
X24305134Y-38137110D01*
X24327661Y-38109661D01*
X24355110Y-38087134D01*
X24386431Y-38070393D01*
X24420409Y-38060085D01*
X24461890Y-38056000D01*
X25138110Y-38056000D01*
X25179591Y-38060085D01*
G37*
G36*
X22973512Y-37203927D02*
G01*
X23122812Y-37233624D01*
X23286784Y-37301544D01*
X23434354Y-37400147D01*
X23559853Y-37525646D01*
X23658456Y-37673216D01*
X23726376Y-37837188D01*
X23761000Y-38011259D01*
X23761000Y-38188741D01*
X23726376Y-38362812D01*
X23658456Y-38526784D01*
X23559853Y-38674354D01*
X23434354Y-38799853D01*
X23286784Y-38898456D01*
X23122812Y-38966376D01*
X22973512Y-38996073D01*
X22948742Y-39001000D01*
X22771258Y-39001000D01*
X22746488Y-38996073D01*
X22597188Y-38966376D01*
X22433216Y-38898456D01*
X22285646Y-38799853D01*
X22160147Y-38674354D01*
X22061544Y-38526784D01*
X21993624Y-38362812D01*
X21959000Y-38188741D01*
X21959000Y-38011259D01*
X21993624Y-37837188D01*
X22061544Y-37673216D01*
X22160147Y-37525646D01*
X22285646Y-37400147D01*
X22433216Y-37301544D01*
X22597188Y-37233624D01*
X22746488Y-37203927D01*
X22771258Y-37199000D01*
X22948742Y-37199000D01*
X22973512Y-37203927D01*
G37*
G36*
X35673512Y-37203927D02*
G01*
X35822812Y-37233624D01*
X35986784Y-37301544D01*
X36134354Y-37400147D01*
X36259853Y-37525646D01*
X36358456Y-37673216D01*
X36426376Y-37837188D01*
X36461000Y-38011259D01*
X36461000Y-38188741D01*
X36426376Y-38362812D01*
X36358456Y-38526784D01*
X36259853Y-38674354D01*
X36134354Y-38799853D01*
X35986784Y-38898456D01*
X35822812Y-38966376D01*
X35673512Y-38996073D01*
X35648742Y-39001000D01*
X35471258Y-39001000D01*
X35446488Y-38996073D01*
X35297188Y-38966376D01*
X35133216Y-38898456D01*
X34985646Y-38799853D01*
X34860147Y-38674354D01*
X34761544Y-38526784D01*
X34693624Y-38362812D01*
X34659000Y-38188741D01*
X34659000Y-38011259D01*
X34693624Y-37837188D01*
X34761544Y-37673216D01*
X34860147Y-37525646D01*
X34985646Y-37400147D01*
X35133216Y-37301544D01*
X35297188Y-37233624D01*
X35446488Y-37203927D01*
X35471258Y-37199000D01*
X35648742Y-37199000D01*
X35673512Y-37203927D01*
G37*
G36*
X26481938Y-37856716D02*
G01*
X26502557Y-37862971D01*
X26521553Y-37873124D01*
X26538208Y-37886792D01*
X26551876Y-37903447D01*
X26562029Y-37922443D01*
X26568284Y-37943062D01*
X26571000Y-37970640D01*
X26571000Y-38429360D01*
X26568284Y-38456938D01*
X26562029Y-38477557D01*
X26551876Y-38496553D01*
X26538208Y-38513208D01*
X26521553Y-38526876D01*
X26502557Y-38537029D01*
X26481938Y-38543284D01*
X26454360Y-38546000D01*
X25945640Y-38546000D01*
X25918062Y-38543284D01*
X25897443Y-38537029D01*
X25878447Y-38526876D01*
X25861792Y-38513208D01*
X25848124Y-38496553D01*
X25837971Y-38477557D01*
X25831716Y-38456938D01*
X25829000Y-38429360D01*
X25829000Y-37970640D01*
X25831716Y-37943062D01*
X25837971Y-37922443D01*
X25848124Y-37903447D01*
X25861792Y-37886792D01*
X25878447Y-37873124D01*
X25897443Y-37862971D01*
X25918062Y-37856716D01*
X25945640Y-37854000D01*
X26454360Y-37854000D01*
X26481938Y-37856716D01*
G37*
G36*
X33972798Y-37028247D02*
G01*
X34008367Y-37039037D01*
X34041139Y-37056554D01*
X34069869Y-37080131D01*
X34093446Y-37108861D01*
X34110963Y-37141633D01*
X34121753Y-37177202D01*
X34126000Y-37220325D01*
X34126000Y-38279675D01*
X34121753Y-38322798D01*
X34110963Y-38358367D01*
X34093446Y-38391139D01*
X34069869Y-38419869D01*
X34041139Y-38443446D01*
X34008367Y-38460963D01*
X33972798Y-38471753D01*
X33929675Y-38476000D01*
X30870325Y-38476000D01*
X30827202Y-38471753D01*
X30791633Y-38460963D01*
X30758861Y-38443446D01*
X30730131Y-38419869D01*
X30706554Y-38391139D01*
X30689037Y-38358367D01*
X30678247Y-38322798D01*
X30674000Y-38279675D01*
X30674000Y-37220325D01*
X30678247Y-37177202D01*
X30689037Y-37141633D01*
X30706554Y-37108861D01*
X30730131Y-37080131D01*
X30758861Y-37056554D01*
X30791633Y-37039037D01*
X30827202Y-37028247D01*
X30870325Y-37024000D01*
X33929675Y-37024000D01*
X33972798Y-37028247D01*
G37*
G36*
X29942091Y-37324085D02*
G01*
X29976069Y-37334393D01*
X30007390Y-37351134D01*
X30034839Y-37373661D01*
X30057366Y-37401110D01*
X30074107Y-37432431D01*
X30084415Y-37466409D01*
X30088500Y-37507890D01*
X30088500Y-38184110D01*
X30084415Y-38225591D01*
X30074107Y-38259569D01*
X30057366Y-38290890D01*
X30034839Y-38318339D01*
X30007390Y-38340866D01*
X29976069Y-38357607D01*
X29942091Y-38367915D01*
X29900610Y-38372000D01*
X29299390Y-38372000D01*
X29257909Y-38367915D01*
X29223931Y-38357607D01*
X29192610Y-38340866D01*
X29165161Y-38318339D01*
X29142634Y-38290890D01*
X29125893Y-38259569D01*
X29115585Y-38225591D01*
X29111500Y-38184110D01*
X29111500Y-37507890D01*
X29115585Y-37466409D01*
X29125893Y-37432431D01*
X29142634Y-37401110D01*
X29165161Y-37373661D01*
X29192610Y-37351134D01*
X29223931Y-37334393D01*
X29257909Y-37324085D01*
X29299390Y-37320000D01*
X29900610Y-37320000D01*
X29942091Y-37324085D01*
G37*
G36*
X28367091Y-37324085D02*
G01*
X28401069Y-37334393D01*
X28432390Y-37351134D01*
X28459839Y-37373661D01*
X28482366Y-37401110D01*
X28499107Y-37432431D01*
X28509415Y-37466409D01*
X28513500Y-37507890D01*
X28513500Y-38184110D01*
X28509415Y-38225591D01*
X28499107Y-38259569D01*
X28482366Y-38290890D01*
X28459839Y-38318339D01*
X28432390Y-38340866D01*
X28401069Y-38357607D01*
X28367091Y-38367915D01*
X28325610Y-38372000D01*
X27724390Y-38372000D01*
X27682909Y-38367915D01*
X27648931Y-38357607D01*
X27617610Y-38340866D01*
X27590161Y-38318339D01*
X27567634Y-38290890D01*
X27550893Y-38259569D01*
X27540585Y-38225591D01*
X27536500Y-38184110D01*
X27536500Y-37507890D01*
X27540585Y-37466409D01*
X27550893Y-37432431D01*
X27567634Y-37401110D01*
X27590161Y-37373661D01*
X27617610Y-37351134D01*
X27648931Y-37334393D01*
X27682909Y-37324085D01*
X27724390Y-37320000D01*
X28325610Y-37320000D01*
X28367091Y-37324085D01*
G37*
G36*
X35673512Y-34663927D02*
G01*
X35822812Y-34693624D01*
X35986784Y-34761544D01*
X36134354Y-34860147D01*
X36259853Y-34985646D01*
X36358456Y-35133216D01*
X36426376Y-35297188D01*
X36461000Y-35471259D01*
X36461000Y-35648741D01*
X36426376Y-35822812D01*
X36358456Y-35986784D01*
X36259853Y-36134354D01*
X36134354Y-36259853D01*
X35986784Y-36358456D01*
X35822812Y-36426376D01*
X35673512Y-36456073D01*
X35648742Y-36461000D01*
X35471258Y-36461000D01*
X35446488Y-36456073D01*
X35297188Y-36426376D01*
X35133216Y-36358456D01*
X34985646Y-36259853D01*
X34860147Y-36134354D01*
X34761544Y-35986784D01*
X34693624Y-35822812D01*
X34659000Y-35648741D01*
X34659000Y-35471259D01*
X34693624Y-35297188D01*
X34761544Y-35133216D01*
X34860147Y-34985646D01*
X34985646Y-34860147D01*
X35133216Y-34761544D01*
X35297188Y-34693624D01*
X35446488Y-34663927D01*
X35471258Y-34659000D01*
X35648742Y-34659000D01*
X35673512Y-34663927D01*
G37*
G36*
X22973512Y-34663927D02*
G01*
X23122812Y-34693624D01*
X23286784Y-34761544D01*
X23434354Y-34860147D01*
X23559853Y-34985646D01*
X23658456Y-35133216D01*
X23726376Y-35297188D01*
X23761000Y-35471259D01*
X23761000Y-35648741D01*
X23726376Y-35822812D01*
X23658456Y-35986784D01*
X23559853Y-36134354D01*
X23434354Y-36259853D01*
X23286784Y-36358456D01*
X23122812Y-36426376D01*
X22973512Y-36456073D01*
X22948742Y-36461000D01*
X22771258Y-36461000D01*
X22746488Y-36456073D01*
X22597188Y-36426376D01*
X22433216Y-36358456D01*
X22285646Y-36259853D01*
X22160147Y-36134354D01*
X22061544Y-35986784D01*
X21993624Y-35822812D01*
X21959000Y-35648741D01*
X21959000Y-35471259D01*
X21993624Y-35297188D01*
X22061544Y-35133216D01*
X22160147Y-34985646D01*
X22285646Y-34860147D01*
X22433216Y-34761544D01*
X22597188Y-34693624D01*
X22746488Y-34663927D01*
X22771258Y-34659000D01*
X22948742Y-34659000D01*
X22973512Y-34663927D01*
G37*
G36*
X25129499Y-34978445D02*
G01*
X25166995Y-34989820D01*
X25201554Y-35008292D01*
X25231847Y-35033153D01*
X25256708Y-35063446D01*
X25275180Y-35098005D01*
X25286555Y-35135501D01*
X25291000Y-35180638D01*
X25291000Y-35919362D01*
X25286555Y-35964499D01*
X25275180Y-36001995D01*
X25256708Y-36036554D01*
X25231847Y-36066847D01*
X25201554Y-36091708D01*
X25166995Y-36110180D01*
X25129499Y-36121555D01*
X25084362Y-36126000D01*
X24445638Y-36126000D01*
X24400501Y-36121555D01*
X24363005Y-36110180D01*
X24328446Y-36091708D01*
X24298153Y-36066847D01*
X24273292Y-36036554D01*
X24254820Y-36001995D01*
X24243445Y-35964499D01*
X24239000Y-35919362D01*
X24239000Y-35180638D01*
X24243445Y-35135501D01*
X24254820Y-35098005D01*
X24273292Y-35063446D01*
X24298153Y-35033153D01*
X24328446Y-35008292D01*
X24363005Y-34989820D01*
X24400501Y-34978445D01*
X24445638Y-34974000D01*
X25084362Y-34974000D01*
X25129499Y-34978445D01*
G37*
G36*
X27655355Y-34950083D02*
G01*
X27660029Y-34951501D01*
X27664330Y-34953800D01*
X27670702Y-34959029D01*
X27691076Y-34972643D01*
X27713715Y-34982020D01*
X27737749Y-34986800D01*
X27762253Y-34986800D01*
X27786286Y-34982019D01*
X27808925Y-34972642D01*
X27829298Y-34959029D01*
X27835670Y-34953800D01*
X27839971Y-34951501D01*
X27844645Y-34950083D01*
X27855641Y-34949000D01*
X28144359Y-34949000D01*
X28155355Y-34950083D01*
X28160029Y-34951501D01*
X28164330Y-34953800D01*
X28170702Y-34959029D01*
X28191076Y-34972643D01*
X28213715Y-34982020D01*
X28237749Y-34986800D01*
X28262253Y-34986800D01*
X28286286Y-34982019D01*
X28308925Y-34972642D01*
X28329298Y-34959029D01*
X28335670Y-34953800D01*
X28339971Y-34951501D01*
X28344645Y-34950083D01*
X28355641Y-34949000D01*
X28644359Y-34949000D01*
X28655355Y-34950083D01*
X28660029Y-34951501D01*
X28664330Y-34953800D01*
X28670702Y-34959029D01*
X28691076Y-34972643D01*
X28713715Y-34982020D01*
X28737749Y-34986800D01*
X28762253Y-34986800D01*
X28786286Y-34982019D01*
X28808925Y-34972642D01*
X28829298Y-34959029D01*
X28835670Y-34953800D01*
X28839971Y-34951501D01*
X28844645Y-34950083D01*
X28855641Y-34949000D01*
X29144359Y-34949000D01*
X29155355Y-34950083D01*
X29160029Y-34951501D01*
X29164330Y-34953800D01*
X29170702Y-34959029D01*
X29191076Y-34972643D01*
X29213715Y-34982020D01*
X29237749Y-34986800D01*
X29262253Y-34986800D01*
X29286286Y-34982019D01*
X29308925Y-34972642D01*
X29329298Y-34959029D01*
X29335670Y-34953800D01*
X29339971Y-34951501D01*
X29344645Y-34950083D01*
X29355641Y-34949000D01*
X29644359Y-34949000D01*
X29655355Y-34950083D01*
X29660029Y-34951501D01*
X29664330Y-34953800D01*
X29670702Y-34959029D01*
X29691076Y-34972643D01*
X29713715Y-34982020D01*
X29737749Y-34986800D01*
X29762253Y-34986800D01*
X29786286Y-34982019D01*
X29808925Y-34972642D01*
X29829298Y-34959029D01*
X29835670Y-34953800D01*
X29839971Y-34951501D01*
X29844645Y-34950083D01*
X29855641Y-34949000D01*
X30144359Y-34949000D01*
X30155355Y-34950083D01*
X30160029Y-34951501D01*
X30164330Y-34953800D01*
X30170702Y-34959029D01*
X30191076Y-34972643D01*
X30213715Y-34982020D01*
X30237749Y-34986800D01*
X30262253Y-34986800D01*
X30286286Y-34982019D01*
X30308925Y-34972642D01*
X30329298Y-34959029D01*
X30335670Y-34953800D01*
X30339971Y-34951501D01*
X30344645Y-34950083D01*
X30355641Y-34949000D01*
X30644359Y-34949000D01*
X30655355Y-34950083D01*
X30660029Y-34951501D01*
X30664331Y-34953800D01*
X30668104Y-34956896D01*
X30671200Y-34960669D01*
X30673499Y-34964971D01*
X30674917Y-34969645D01*
X30676000Y-34980641D01*
X30676000Y-35819359D01*
X30674917Y-35830355D01*
X30673499Y-35835029D01*
X30671200Y-35839331D01*
X30668104Y-35843104D01*
X30664331Y-35846200D01*
X30660029Y-35848499D01*
X30655355Y-35849917D01*
X30644359Y-35851000D01*
X30355641Y-35851000D01*
X30344645Y-35849917D01*
X30339971Y-35848499D01*
X30335670Y-35846200D01*
X30329298Y-35840971D01*
X30308924Y-35827357D01*
X30286285Y-35817980D01*
X30262251Y-35813200D01*
X30237747Y-35813200D01*
X30213714Y-35817981D01*
X30191075Y-35827358D01*
X30170702Y-35840971D01*
X30164330Y-35846200D01*
X30160029Y-35848499D01*
X30155355Y-35849917D01*
X30144359Y-35851000D01*
X29855641Y-35851000D01*
X29844645Y-35849917D01*
X29839971Y-35848499D01*
X29835670Y-35846200D01*
X29829298Y-35840971D01*
X29808924Y-35827357D01*
X29786285Y-35817980D01*
X29762251Y-35813200D01*
X29737747Y-35813200D01*
X29713714Y-35817981D01*
X29691075Y-35827358D01*
X29670702Y-35840971D01*
X29664330Y-35846200D01*
X29660029Y-35848499D01*
X29655355Y-35849917D01*
X29644359Y-35851000D01*
X29355641Y-35851000D01*
X29344645Y-35849917D01*
X29339971Y-35848499D01*
X29335670Y-35846200D01*
X29329298Y-35840971D01*
X29308924Y-35827357D01*
X29286285Y-35817980D01*
X29262251Y-35813200D01*
X29237747Y-35813200D01*
X29213714Y-35817981D01*
X29191075Y-35827358D01*
X29170702Y-35840971D01*
X29164330Y-35846200D01*
X29160029Y-35848499D01*
X29155355Y-35849917D01*
X29144359Y-35851000D01*
X28855641Y-35851000D01*
X28844645Y-35849917D01*
X28839971Y-35848499D01*
X28835670Y-35846200D01*
X28829298Y-35840971D01*
X28808924Y-35827357D01*
X28786285Y-35817980D01*
X28762251Y-35813200D01*
X28737747Y-35813200D01*
X28713714Y-35817981D01*
X28691075Y-35827358D01*
X28670702Y-35840971D01*
X28664330Y-35846200D01*
X28660029Y-35848499D01*
X28655355Y-35849917D01*
X28644359Y-35851000D01*
X28355641Y-35851000D01*
X28344645Y-35849917D01*
X28339971Y-35848499D01*
X28335670Y-35846200D01*
X28329298Y-35840971D01*
X28308924Y-35827357D01*
X28286285Y-35817980D01*
X28262251Y-35813200D01*
X28237747Y-35813200D01*
X28213714Y-35817981D01*
X28191075Y-35827358D01*
X28170702Y-35840971D01*
X28164330Y-35846200D01*
X28160029Y-35848499D01*
X28155355Y-35849917D01*
X28144359Y-35851000D01*
X27855641Y-35851000D01*
X27844645Y-35849917D01*
X27839971Y-35848499D01*
X27835670Y-35846200D01*
X27829298Y-35840971D01*
X27808924Y-35827357D01*
X27786285Y-35817980D01*
X27762251Y-35813200D01*
X27737747Y-35813200D01*
X27713714Y-35817981D01*
X27691075Y-35827358D01*
X27670702Y-35840971D01*
X27664330Y-35846200D01*
X27660029Y-35848499D01*
X27655355Y-35849917D01*
X27644359Y-35851000D01*
X27355641Y-35851000D01*
X27344645Y-35849917D01*
X27339971Y-35848499D01*
X27335669Y-35846200D01*
X27331896Y-35843104D01*
X27328800Y-35839331D01*
X27326501Y-35835029D01*
X27325083Y-35830355D01*
X27324000Y-35819359D01*
X27324000Y-34980641D01*
X27325083Y-34969645D01*
X27326501Y-34964971D01*
X27328800Y-34960669D01*
X27331896Y-34956896D01*
X27335669Y-34953800D01*
X27339971Y-34951501D01*
X27344645Y-34950083D01*
X27355641Y-34949000D01*
X27644359Y-34949000D01*
X27655355Y-34950083D01*
G37*
G36*
X30604124Y-31227499D02*
G01*
X30632387Y-31236073D01*
X30658434Y-31249996D01*
X30681267Y-31268733D01*
X30700004Y-31291566D01*
X30713927Y-31317613D01*
X30722501Y-31345876D01*
X30726000Y-31381408D01*
X30726000Y-34518592D01*
X30722501Y-34554124D01*
X30713927Y-34582387D01*
X30700004Y-34608434D01*
X30681267Y-34631267D01*
X30658434Y-34650004D01*
X30632387Y-34663927D01*
X30604124Y-34672501D01*
X30568592Y-34676000D01*
X27431408Y-34676000D01*
X27395876Y-34672501D01*
X27367613Y-34663927D01*
X27341566Y-34650004D01*
X27318733Y-34631267D01*
X27299996Y-34608434D01*
X27286073Y-34582387D01*
X27277499Y-34554124D01*
X27274000Y-34518592D01*
X27274000Y-31381408D01*
X27277499Y-31345876D01*
X27286073Y-31317613D01*
X27299996Y-31291566D01*
X27318733Y-31268733D01*
X27341566Y-31249996D01*
X27367613Y-31236073D01*
X27395876Y-31227499D01*
X27431408Y-31224000D01*
X30568592Y-31224000D01*
X30604124Y-31227499D01*
G37*
G36*
X26980355Y-31275083D02*
G01*
X26985029Y-31276501D01*
X26989331Y-31278800D01*
X26993104Y-31281896D01*
X26996200Y-31285669D01*
X26998499Y-31289971D01*
X26999917Y-31294645D01*
X27001000Y-31305641D01*
X27001000Y-31594359D01*
X26999917Y-31605355D01*
X26998499Y-31610029D01*
X26996200Y-31614330D01*
X26990971Y-31620702D01*
X26977357Y-31641076D01*
X26967980Y-31663715D01*
X26963200Y-31687749D01*
X26963200Y-31712253D01*
X26967981Y-31736286D01*
X26977358Y-31758925D01*
X26990971Y-31779298D01*
X26996200Y-31785670D01*
X26998499Y-31789971D01*
X26999917Y-31794645D01*
X27001000Y-31805641D01*
X27001000Y-32094359D01*
X26999917Y-32105355D01*
X26998499Y-32110029D01*
X26996200Y-32114330D01*
X26990971Y-32120702D01*
X26977357Y-32141076D01*
X26967980Y-32163715D01*
X26963200Y-32187749D01*
X26963200Y-32212253D01*
X26967981Y-32236286D01*
X26977358Y-32258925D01*
X26990971Y-32279298D01*
X26996200Y-32285670D01*
X26998499Y-32289971D01*
X26999917Y-32294645D01*
X27001000Y-32305641D01*
X27001000Y-32594359D01*
X26999917Y-32605355D01*
X26998499Y-32610029D01*
X26996200Y-32614330D01*
X26990971Y-32620702D01*
X26977357Y-32641076D01*
X26967980Y-32663715D01*
X26963200Y-32687749D01*
X26963200Y-32712253D01*
X26967981Y-32736286D01*
X26977358Y-32758925D01*
X26990971Y-32779298D01*
X26996200Y-32785670D01*
X26998499Y-32789971D01*
X26999917Y-32794645D01*
X27001000Y-32805641D01*
X27001000Y-33094359D01*
X26999917Y-33105355D01*
X26998499Y-33110029D01*
X26996200Y-33114330D01*
X26990971Y-33120702D01*
X26977357Y-33141076D01*
X26967980Y-33163715D01*
X26963200Y-33187749D01*
X26963200Y-33212253D01*
X26967981Y-33236286D01*
X26977358Y-33258925D01*
X26990971Y-33279298D01*
X26996200Y-33285670D01*
X26998499Y-33289971D01*
X26999917Y-33294645D01*
X27001000Y-33305641D01*
X27001000Y-33594359D01*
X26999917Y-33605355D01*
X26998499Y-33610029D01*
X26996200Y-33614330D01*
X26990971Y-33620702D01*
X26977357Y-33641076D01*
X26967980Y-33663715D01*
X26963200Y-33687749D01*
X26963200Y-33712253D01*
X26967981Y-33736286D01*
X26977358Y-33758925D01*
X26990971Y-33779298D01*
X26996200Y-33785670D01*
X26998499Y-33789971D01*
X26999917Y-33794645D01*
X27001000Y-33805641D01*
X27001000Y-34094359D01*
X26999917Y-34105355D01*
X26998499Y-34110029D01*
X26996200Y-34114330D01*
X26990971Y-34120702D01*
X26977357Y-34141076D01*
X26967980Y-34163715D01*
X26963200Y-34187749D01*
X26963200Y-34212253D01*
X26967981Y-34236286D01*
X26977358Y-34258925D01*
X26990971Y-34279298D01*
X26996200Y-34285670D01*
X26998499Y-34289971D01*
X26999917Y-34294645D01*
X27001000Y-34305641D01*
X27001000Y-34594359D01*
X26999917Y-34605355D01*
X26998499Y-34610029D01*
X26996200Y-34614331D01*
X26993104Y-34618104D01*
X26989331Y-34621200D01*
X26985029Y-34623499D01*
X26980355Y-34624917D01*
X26969359Y-34626000D01*
X26130641Y-34626000D01*
X26119645Y-34624917D01*
X26114971Y-34623499D01*
X26110669Y-34621200D01*
X26106896Y-34618104D01*
X26103800Y-34614331D01*
X26101501Y-34610029D01*
X26100083Y-34605355D01*
X26099000Y-34594359D01*
X26099000Y-34305641D01*
X26100083Y-34294645D01*
X26101501Y-34289971D01*
X26103800Y-34285670D01*
X26109029Y-34279298D01*
X26122643Y-34258924D01*
X26132020Y-34236285D01*
X26136800Y-34212251D01*
X26136800Y-34187747D01*
X26132019Y-34163714D01*
X26122642Y-34141075D01*
X26109029Y-34120702D01*
X26103800Y-34114330D01*
X26101501Y-34110029D01*
X26100083Y-34105355D01*
X26099000Y-34094359D01*
X26099000Y-33805641D01*
X26100083Y-33794645D01*
X26101501Y-33789971D01*
X26103800Y-33785670D01*
X26109029Y-33779298D01*
X26122643Y-33758924D01*
X26132020Y-33736285D01*
X26136800Y-33712251D01*
X26136800Y-33687747D01*
X26132019Y-33663714D01*
X26122642Y-33641075D01*
X26109029Y-33620702D01*
X26103800Y-33614330D01*
X26101501Y-33610029D01*
X26100083Y-33605355D01*
X26099000Y-33594359D01*
X26099000Y-33305641D01*
X26100083Y-33294645D01*
X26101501Y-33289971D01*
X26103800Y-33285670D01*
X26109029Y-33279298D01*
X26122643Y-33258924D01*
X26132020Y-33236285D01*
X26136800Y-33212251D01*
X26136800Y-33187747D01*
X26132019Y-33163714D01*
X26122642Y-33141075D01*
X26109029Y-33120702D01*
X26103800Y-33114330D01*
X26101501Y-33110029D01*
X26100083Y-33105355D01*
X26099000Y-33094359D01*
X26099000Y-32805641D01*
X26100083Y-32794645D01*
X26101501Y-32789971D01*
X26103800Y-32785670D01*
X26109029Y-32779298D01*
X26122643Y-32758924D01*
X26132020Y-32736285D01*
X26136800Y-32712251D01*
X26136800Y-32687747D01*
X26132019Y-32663714D01*
X26122642Y-32641075D01*
X26109029Y-32620702D01*
X26103800Y-32614330D01*
X26101501Y-32610029D01*
X26100083Y-32605355D01*
X26099000Y-32594359D01*
X26099000Y-32305641D01*
X26100083Y-32294645D01*
X26101501Y-32289971D01*
X26103800Y-32285670D01*
X26109029Y-32279298D01*
X26122643Y-32258924D01*
X26132020Y-32236285D01*
X26136800Y-32212251D01*
X26136800Y-32187747D01*
X26132019Y-32163714D01*
X26122642Y-32141075D01*
X26109029Y-32120702D01*
X26103800Y-32114330D01*
X26101501Y-32110029D01*
X26100083Y-32105355D01*
X26099000Y-32094359D01*
X26099000Y-31805641D01*
X26100083Y-31794645D01*
X26101501Y-31789971D01*
X26103800Y-31785670D01*
X26109029Y-31779298D01*
X26122643Y-31758924D01*
X26132020Y-31736285D01*
X26136800Y-31712251D01*
X26136800Y-31687747D01*
X26132019Y-31663714D01*
X26122642Y-31641075D01*
X26109029Y-31620702D01*
X26103800Y-31614330D01*
X26101501Y-31610029D01*
X26100083Y-31605355D01*
X26099000Y-31594359D01*
X26099000Y-31305641D01*
X26100083Y-31294645D01*
X26101501Y-31289971D01*
X26103800Y-31285669D01*
X26106896Y-31281896D01*
X26110669Y-31278800D01*
X26114971Y-31276501D01*
X26119645Y-31275083D01*
X26130641Y-31274000D01*
X26969359Y-31274000D01*
X26980355Y-31275083D01*
G37*
G36*
X31880355Y-31275083D02*
G01*
X31885029Y-31276501D01*
X31889331Y-31278800D01*
X31893104Y-31281896D01*
X31896200Y-31285669D01*
X31898499Y-31289971D01*
X31899917Y-31294645D01*
X31901000Y-31305641D01*
X31901000Y-31594359D01*
X31899917Y-31605355D01*
X31898499Y-31610029D01*
X31896200Y-31614330D01*
X31890971Y-31620702D01*
X31877357Y-31641076D01*
X31867980Y-31663715D01*
X31863200Y-31687749D01*
X31863200Y-31712253D01*
X31867981Y-31736286D01*
X31877358Y-31758925D01*
X31890971Y-31779298D01*
X31896200Y-31785670D01*
X31898499Y-31789971D01*
X31899917Y-31794645D01*
X31901000Y-31805641D01*
X31901000Y-32094359D01*
X31899917Y-32105355D01*
X31898499Y-32110029D01*
X31896200Y-32114330D01*
X31890971Y-32120702D01*
X31877357Y-32141076D01*
X31867980Y-32163715D01*
X31863200Y-32187749D01*
X31863200Y-32212253D01*
X31867981Y-32236286D01*
X31877358Y-32258925D01*
X31890971Y-32279298D01*
X31896200Y-32285670D01*
X31898499Y-32289971D01*
X31899917Y-32294645D01*
X31901000Y-32305641D01*
X31901000Y-32594359D01*
X31899917Y-32605355D01*
X31898499Y-32610029D01*
X31896200Y-32614330D01*
X31890971Y-32620702D01*
X31877357Y-32641076D01*
X31867980Y-32663715D01*
X31863200Y-32687749D01*
X31863200Y-32712253D01*
X31867981Y-32736286D01*
X31877358Y-32758925D01*
X31890971Y-32779298D01*
X31896200Y-32785670D01*
X31898499Y-32789971D01*
X31899917Y-32794645D01*
X31901000Y-32805641D01*
X31901000Y-33094359D01*
X31899917Y-33105355D01*
X31898499Y-33110029D01*
X31896200Y-33114330D01*
X31890971Y-33120702D01*
X31877357Y-33141076D01*
X31867980Y-33163715D01*
X31863200Y-33187749D01*
X31863200Y-33212253D01*
X31867981Y-33236286D01*
X31877358Y-33258925D01*
X31890971Y-33279298D01*
X31896200Y-33285670D01*
X31898499Y-33289971D01*
X31899917Y-33294645D01*
X31901000Y-33305641D01*
X31901000Y-33594359D01*
X31899917Y-33605355D01*
X31898499Y-33610029D01*
X31896200Y-33614330D01*
X31890971Y-33620702D01*
X31877357Y-33641076D01*
X31867980Y-33663715D01*
X31863200Y-33687749D01*
X31863200Y-33712253D01*
X31867981Y-33736286D01*
X31877358Y-33758925D01*
X31890971Y-33779298D01*
X31896200Y-33785670D01*
X31898499Y-33789971D01*
X31899917Y-33794645D01*
X31901000Y-33805641D01*
X31901000Y-34094359D01*
X31899917Y-34105355D01*
X31898499Y-34110029D01*
X31896200Y-34114330D01*
X31890971Y-34120702D01*
X31877357Y-34141076D01*
X31867980Y-34163715D01*
X31863200Y-34187749D01*
X31863200Y-34212253D01*
X31867981Y-34236286D01*
X31877358Y-34258925D01*
X31890971Y-34279298D01*
X31896200Y-34285670D01*
X31898499Y-34289971D01*
X31899917Y-34294645D01*
X31901000Y-34305641D01*
X31901000Y-34594359D01*
X31899917Y-34605355D01*
X31898499Y-34610029D01*
X31896200Y-34614331D01*
X31893104Y-34618104D01*
X31889331Y-34621200D01*
X31885029Y-34623499D01*
X31880355Y-34624917D01*
X31869359Y-34626000D01*
X31030641Y-34626000D01*
X31019645Y-34624917D01*
X31014971Y-34623499D01*
X31010669Y-34621200D01*
X31006896Y-34618104D01*
X31003800Y-34614331D01*
X31001501Y-34610029D01*
X31000083Y-34605355D01*
X30999000Y-34594359D01*
X30999000Y-34305641D01*
X31000083Y-34294645D01*
X31001501Y-34289971D01*
X31003800Y-34285670D01*
X31009029Y-34279298D01*
X31022643Y-34258924D01*
X31032020Y-34236285D01*
X31036800Y-34212251D01*
X31036800Y-34187747D01*
X31032019Y-34163714D01*
X31022642Y-34141075D01*
X31009029Y-34120702D01*
X31003800Y-34114330D01*
X31001501Y-34110029D01*
X31000083Y-34105355D01*
X30999000Y-34094359D01*
X30999000Y-33805641D01*
X31000083Y-33794645D01*
X31001501Y-33789971D01*
X31003800Y-33785670D01*
X31009029Y-33779298D01*
X31022643Y-33758924D01*
X31032020Y-33736285D01*
X31036800Y-33712251D01*
X31036800Y-33687747D01*
X31032019Y-33663714D01*
X31022642Y-33641075D01*
X31009029Y-33620702D01*
X31003800Y-33614330D01*
X31001501Y-33610029D01*
X31000083Y-33605355D01*
X30999000Y-33594359D01*
X30999000Y-33305641D01*
X31000083Y-33294645D01*
X31001501Y-33289971D01*
X31003800Y-33285670D01*
X31009029Y-33279298D01*
X31022643Y-33258924D01*
X31032020Y-33236285D01*
X31036800Y-33212251D01*
X31036800Y-33187747D01*
X31032019Y-33163714D01*
X31022642Y-33141075D01*
X31009029Y-33120702D01*
X31003800Y-33114330D01*
X31001501Y-33110029D01*
X31000083Y-33105355D01*
X30999000Y-33094359D01*
X30999000Y-32805641D01*
X31000083Y-32794645D01*
X31001501Y-32789971D01*
X31003800Y-32785670D01*
X31009029Y-32779298D01*
X31022643Y-32758924D01*
X31032020Y-32736285D01*
X31036800Y-32712251D01*
X31036800Y-32687747D01*
X31032019Y-32663714D01*
X31022642Y-32641075D01*
X31009029Y-32620702D01*
X31003800Y-32614330D01*
X31001501Y-32610029D01*
X31000083Y-32605355D01*
X30999000Y-32594359D01*
X30999000Y-32305641D01*
X31000083Y-32294645D01*
X31001501Y-32289971D01*
X31003800Y-32285670D01*
X31009029Y-32279298D01*
X31022643Y-32258924D01*
X31032020Y-32236285D01*
X31036800Y-32212251D01*
X31036800Y-32187747D01*
X31032019Y-32163714D01*
X31022642Y-32141075D01*
X31009029Y-32120702D01*
X31003800Y-32114330D01*
X31001501Y-32110029D01*
X31000083Y-32105355D01*
X30999000Y-32094359D01*
X30999000Y-31805641D01*
X31000083Y-31794645D01*
X31001501Y-31789971D01*
X31003800Y-31785670D01*
X31009029Y-31779298D01*
X31022643Y-31758924D01*
X31032020Y-31736285D01*
X31036800Y-31712251D01*
X31036800Y-31687747D01*
X31032019Y-31663714D01*
X31022642Y-31641075D01*
X31009029Y-31620702D01*
X31003800Y-31614330D01*
X31001501Y-31610029D01*
X31000083Y-31605355D01*
X30999000Y-31594359D01*
X30999000Y-31305641D01*
X31000083Y-31294645D01*
X31001501Y-31289971D01*
X31003800Y-31285669D01*
X31006896Y-31281896D01*
X31010669Y-31278800D01*
X31014971Y-31276501D01*
X31019645Y-31275083D01*
X31030641Y-31274000D01*
X31869359Y-31274000D01*
X31880355Y-31275083D01*
G37*
G36*
X25129499Y-33228445D02*
G01*
X25166995Y-33239820D01*
X25201554Y-33258292D01*
X25231847Y-33283153D01*
X25256708Y-33313446D01*
X25275180Y-33348005D01*
X25286555Y-33385501D01*
X25291000Y-33430638D01*
X25291000Y-34169362D01*
X25286555Y-34214499D01*
X25275180Y-34251995D01*
X25256708Y-34286554D01*
X25231847Y-34316847D01*
X25201554Y-34341708D01*
X25166995Y-34360180D01*
X25129499Y-34371555D01*
X25084362Y-34376000D01*
X24445638Y-34376000D01*
X24400501Y-34371555D01*
X24363005Y-34360180D01*
X24328446Y-34341708D01*
X24298153Y-34316847D01*
X24273292Y-34286554D01*
X24254820Y-34251995D01*
X24243445Y-34214499D01*
X24239000Y-34169362D01*
X24239000Y-33430638D01*
X24243445Y-33385501D01*
X24254820Y-33348005D01*
X24273292Y-33313446D01*
X24298153Y-33283153D01*
X24328446Y-33258292D01*
X24363005Y-33239820D01*
X24400501Y-33228445D01*
X24445638Y-33224000D01*
X25084362Y-33224000D01*
X25129499Y-33228445D01*
G37*
G36*
X35657298Y-32120702D02*
G01*
X35822812Y-32153624D01*
X35986784Y-32221544D01*
X36134354Y-32320147D01*
X36259853Y-32445646D01*
X36358456Y-32593216D01*
X36426376Y-32757188D01*
X36461000Y-32931259D01*
X36461000Y-33108741D01*
X36426376Y-33282812D01*
X36358456Y-33446784D01*
X36259853Y-33594354D01*
X36134354Y-33719853D01*
X35986784Y-33818456D01*
X35822812Y-33886376D01*
X35673512Y-33916073D01*
X35648742Y-33921000D01*
X35471258Y-33921000D01*
X35446488Y-33916073D01*
X35297188Y-33886376D01*
X35133216Y-33818456D01*
X34985646Y-33719853D01*
X34860147Y-33594354D01*
X34761544Y-33446784D01*
X34693624Y-33282812D01*
X34659000Y-33108741D01*
X34659000Y-32931259D01*
X34693624Y-32757188D01*
X34761544Y-32593216D01*
X34860147Y-32445646D01*
X34985646Y-32320147D01*
X35133216Y-32221544D01*
X35297188Y-32153624D01*
X35462702Y-32120702D01*
X35471258Y-32119000D01*
X35648742Y-32119000D01*
X35657298Y-32120702D01*
G37*
G36*
X22957298Y-32120702D02*
G01*
X23122812Y-32153624D01*
X23286784Y-32221544D01*
X23434354Y-32320147D01*
X23559853Y-32445646D01*
X23658456Y-32593216D01*
X23726376Y-32757188D01*
X23761000Y-32931259D01*
X23761000Y-33108741D01*
X23726376Y-33282812D01*
X23658456Y-33446784D01*
X23559853Y-33594354D01*
X23434354Y-33719853D01*
X23286784Y-33818456D01*
X23122812Y-33886376D01*
X22973512Y-33916073D01*
X22948742Y-33921000D01*
X22771258Y-33921000D01*
X22746488Y-33916073D01*
X22597188Y-33886376D01*
X22433216Y-33818456D01*
X22285646Y-33719853D01*
X22160147Y-33594354D01*
X22061544Y-33446784D01*
X21993624Y-33282812D01*
X21959000Y-33108741D01*
X21959000Y-32931259D01*
X21993624Y-32757188D01*
X22061544Y-32593216D01*
X22160147Y-32445646D01*
X22285646Y-32320147D01*
X22433216Y-32221544D01*
X22597188Y-32153624D01*
X22762702Y-32120702D01*
X22771258Y-32119000D01*
X22948742Y-32119000D01*
X22957298Y-32120702D01*
G37*
G36*
X25656938Y-32031716D02*
G01*
X25677557Y-32037971D01*
X25696553Y-32048124D01*
X25713208Y-32061792D01*
X25726876Y-32078447D01*
X25737029Y-32097443D01*
X25743284Y-32118062D01*
X25746000Y-32145640D01*
X25746000Y-32654360D01*
X25743284Y-32681938D01*
X25737029Y-32702557D01*
X25726876Y-32721553D01*
X25713208Y-32738208D01*
X25696553Y-32751876D01*
X25677557Y-32762029D01*
X25656938Y-32768284D01*
X25629360Y-32771000D01*
X25170640Y-32771000D01*
X25143062Y-32768284D01*
X25122443Y-32762029D01*
X25103447Y-32751876D01*
X25086792Y-32738208D01*
X25073124Y-32721553D01*
X25062971Y-32702557D01*
X25056716Y-32681938D01*
X25054000Y-32654360D01*
X25054000Y-32145640D01*
X25056716Y-32118062D01*
X25062971Y-32097443D01*
X25073124Y-32078447D01*
X25086792Y-32061792D01*
X25103447Y-32048124D01*
X25122443Y-32037971D01*
X25143062Y-32031716D01*
X25170640Y-32029000D01*
X25629360Y-32029000D01*
X25656938Y-32031716D01*
G37*
G36*
X24686938Y-32031716D02*
G01*
X24707557Y-32037971D01*
X24726553Y-32048124D01*
X24743208Y-32061792D01*
X24756876Y-32078447D01*
X24767029Y-32097443D01*
X24773284Y-32118062D01*
X24776000Y-32145640D01*
X24776000Y-32654360D01*
X24773284Y-32681938D01*
X24767029Y-32702557D01*
X24756876Y-32721553D01*
X24743208Y-32738208D01*
X24726553Y-32751876D01*
X24707557Y-32762029D01*
X24686938Y-32768284D01*
X24659360Y-32771000D01*
X24200640Y-32771000D01*
X24173062Y-32768284D01*
X24152443Y-32762029D01*
X24133447Y-32751876D01*
X24116792Y-32738208D01*
X24103124Y-32721553D01*
X24092971Y-32702557D01*
X24086716Y-32681938D01*
X24084000Y-32654360D01*
X24084000Y-32145640D01*
X24086716Y-32118062D01*
X24092971Y-32097443D01*
X24103124Y-32078447D01*
X24116792Y-32061792D01*
X24133447Y-32048124D01*
X24152443Y-32037971D01*
X24173062Y-32031716D01*
X24200640Y-32029000D01*
X24659360Y-32029000D01*
X24686938Y-32031716D01*
G37*
G36*
X25364499Y-30378445D02*
G01*
X25401995Y-30389820D01*
X25436554Y-30408292D01*
X25466847Y-30433153D01*
X25491708Y-30463446D01*
X25510180Y-30498005D01*
X25521555Y-30535501D01*
X25526000Y-30580638D01*
X25526000Y-31319362D01*
X25521555Y-31364499D01*
X25510180Y-31401995D01*
X25491708Y-31436554D01*
X25466847Y-31466847D01*
X25436554Y-31491708D01*
X25401995Y-31510180D01*
X25364499Y-31521555D01*
X25319362Y-31526000D01*
X24680638Y-31526000D01*
X24635501Y-31521555D01*
X24598005Y-31510180D01*
X24563446Y-31491708D01*
X24533153Y-31466847D01*
X24508292Y-31436554D01*
X24489820Y-31401995D01*
X24478445Y-31364499D01*
X24474000Y-31319362D01*
X24474000Y-30580638D01*
X24478445Y-30535501D01*
X24489820Y-30498005D01*
X24508292Y-30463446D01*
X24533153Y-30433153D01*
X24563446Y-30408292D01*
X24598005Y-30389820D01*
X24635501Y-30378445D01*
X24680638Y-30374000D01*
X25319362Y-30374000D01*
X25364499Y-30378445D01*
G37*
G36*
X22973512Y-29583927D02*
G01*
X23122812Y-29613624D01*
X23286784Y-29681544D01*
X23434354Y-29780147D01*
X23559853Y-29905646D01*
X23658456Y-30053216D01*
X23726376Y-30217188D01*
X23761000Y-30391259D01*
X23761000Y-30568741D01*
X23726376Y-30742812D01*
X23658456Y-30906784D01*
X23559853Y-31054354D01*
X23434354Y-31179853D01*
X23286784Y-31278456D01*
X23122812Y-31346376D01*
X22973512Y-31376073D01*
X22948742Y-31381000D01*
X22771258Y-31381000D01*
X22746488Y-31376073D01*
X22597188Y-31346376D01*
X22433216Y-31278456D01*
X22285646Y-31179853D01*
X22160147Y-31054354D01*
X22061544Y-30906784D01*
X21993624Y-30742812D01*
X21959000Y-30568741D01*
X21959000Y-30391259D01*
X21993624Y-30217188D01*
X22061544Y-30053216D01*
X22160147Y-29905646D01*
X22285646Y-29780147D01*
X22433216Y-29681544D01*
X22597188Y-29613624D01*
X22746488Y-29583927D01*
X22771258Y-29579000D01*
X22948742Y-29579000D01*
X22973512Y-29583927D01*
G37*
G36*
X35673512Y-29583927D02*
G01*
X35822812Y-29613624D01*
X35986784Y-29681544D01*
X36134354Y-29780147D01*
X36259853Y-29905646D01*
X36358456Y-30053216D01*
X36426376Y-30217188D01*
X36461000Y-30391259D01*
X36461000Y-30568741D01*
X36426376Y-30742812D01*
X36358456Y-30906784D01*
X36259853Y-31054354D01*
X36134354Y-31179853D01*
X35986784Y-31278456D01*
X35822812Y-31346376D01*
X35673512Y-31376073D01*
X35648742Y-31381000D01*
X35471258Y-31381000D01*
X35446488Y-31376073D01*
X35297188Y-31346376D01*
X35133216Y-31278456D01*
X34985646Y-31179853D01*
X34860147Y-31054354D01*
X34761544Y-30906784D01*
X34693624Y-30742812D01*
X34659000Y-30568741D01*
X34659000Y-30391259D01*
X34693624Y-30217188D01*
X34761544Y-30053216D01*
X34860147Y-29905646D01*
X34985646Y-29780147D01*
X35133216Y-29681544D01*
X35297188Y-29613624D01*
X35446488Y-29583927D01*
X35471258Y-29579000D01*
X35648742Y-29579000D01*
X35673512Y-29583927D01*
G37*
G36*
X27655355Y-30050083D02*
G01*
X27660029Y-30051501D01*
X27664330Y-30053800D01*
X27670702Y-30059029D01*
X27691076Y-30072643D01*
X27713715Y-30082020D01*
X27737749Y-30086800D01*
X27762253Y-30086800D01*
X27786286Y-30082019D01*
X27808925Y-30072642D01*
X27829298Y-30059029D01*
X27835670Y-30053800D01*
X27839971Y-30051501D01*
X27844645Y-30050083D01*
X27855641Y-30049000D01*
X28144359Y-30049000D01*
X28155355Y-30050083D01*
X28160029Y-30051501D01*
X28164330Y-30053800D01*
X28170702Y-30059029D01*
X28191076Y-30072643D01*
X28213715Y-30082020D01*
X28237749Y-30086800D01*
X28262253Y-30086800D01*
X28286286Y-30082019D01*
X28308925Y-30072642D01*
X28329298Y-30059029D01*
X28335670Y-30053800D01*
X28339971Y-30051501D01*
X28344645Y-30050083D01*
X28355641Y-30049000D01*
X28644359Y-30049000D01*
X28655355Y-30050083D01*
X28660029Y-30051501D01*
X28664330Y-30053800D01*
X28670702Y-30059029D01*
X28691076Y-30072643D01*
X28713715Y-30082020D01*
X28737749Y-30086800D01*
X28762253Y-30086800D01*
X28786286Y-30082019D01*
X28808925Y-30072642D01*
X28829298Y-30059029D01*
X28835670Y-30053800D01*
X28839971Y-30051501D01*
X28844645Y-30050083D01*
X28855641Y-30049000D01*
X29144359Y-30049000D01*
X29155355Y-30050083D01*
X29160029Y-30051501D01*
X29164330Y-30053800D01*
X29170702Y-30059029D01*
X29191076Y-30072643D01*
X29213715Y-30082020D01*
X29237749Y-30086800D01*
X29262253Y-30086800D01*
X29286286Y-30082019D01*
X29308925Y-30072642D01*
X29329298Y-30059029D01*
X29335670Y-30053800D01*
X29339971Y-30051501D01*
X29344645Y-30050083D01*
X29355641Y-30049000D01*
X29644359Y-30049000D01*
X29655355Y-30050083D01*
X29660029Y-30051501D01*
X29664330Y-30053800D01*
X29670702Y-30059029D01*
X29691076Y-30072643D01*
X29713715Y-30082020D01*
X29737749Y-30086800D01*
X29762253Y-30086800D01*
X29786286Y-30082019D01*
X29808925Y-30072642D01*
X29829298Y-30059029D01*
X29835670Y-30053800D01*
X29839971Y-30051501D01*
X29844645Y-30050083D01*
X29855641Y-30049000D01*
X30144359Y-30049000D01*
X30155355Y-30050083D01*
X30160029Y-30051501D01*
X30164330Y-30053800D01*
X30170702Y-30059029D01*
X30191076Y-30072643D01*
X30213715Y-30082020D01*
X30237749Y-30086800D01*
X30262253Y-30086800D01*
X30286286Y-30082019D01*
X30308925Y-30072642D01*
X30329298Y-30059029D01*
X30335670Y-30053800D01*
X30339971Y-30051501D01*
X30344645Y-30050083D01*
X30355641Y-30049000D01*
X30644359Y-30049000D01*
X30655355Y-30050083D01*
X30660029Y-30051501D01*
X30664331Y-30053800D01*
X30668104Y-30056896D01*
X30671200Y-30060669D01*
X30673499Y-30064971D01*
X30674917Y-30069645D01*
X30676000Y-30080641D01*
X30676000Y-30919359D01*
X30674917Y-30930355D01*
X30673499Y-30935029D01*
X30671200Y-30939331D01*
X30668104Y-30943104D01*
X30664331Y-30946200D01*
X30660029Y-30948499D01*
X30655355Y-30949917D01*
X30644359Y-30951000D01*
X30355641Y-30951000D01*
X30344645Y-30949917D01*
X30339971Y-30948499D01*
X30335670Y-30946200D01*
X30329298Y-30940971D01*
X30308924Y-30927357D01*
X30286285Y-30917980D01*
X30262251Y-30913200D01*
X30237747Y-30913200D01*
X30213714Y-30917981D01*
X30191075Y-30927358D01*
X30170702Y-30940971D01*
X30164330Y-30946200D01*
X30160029Y-30948499D01*
X30155355Y-30949917D01*
X30144359Y-30951000D01*
X29855641Y-30951000D01*
X29844645Y-30949917D01*
X29839971Y-30948499D01*
X29835670Y-30946200D01*
X29829298Y-30940971D01*
X29808924Y-30927357D01*
X29786285Y-30917980D01*
X29762251Y-30913200D01*
X29737747Y-30913200D01*
X29713714Y-30917981D01*
X29691075Y-30927358D01*
X29670702Y-30940971D01*
X29664330Y-30946200D01*
X29660029Y-30948499D01*
X29655355Y-30949917D01*
X29644359Y-30951000D01*
X29355641Y-30951000D01*
X29344645Y-30949917D01*
X29339971Y-30948499D01*
X29335670Y-30946200D01*
X29329298Y-30940971D01*
X29308924Y-30927357D01*
X29286285Y-30917980D01*
X29262251Y-30913200D01*
X29237747Y-30913200D01*
X29213714Y-30917981D01*
X29191075Y-30927358D01*
X29170702Y-30940971D01*
X29164330Y-30946200D01*
X29160029Y-30948499D01*
X29155355Y-30949917D01*
X29144359Y-30951000D01*
X28855641Y-30951000D01*
X28844645Y-30949917D01*
X28839971Y-30948499D01*
X28835670Y-30946200D01*
X28829298Y-30940971D01*
X28808924Y-30927357D01*
X28786285Y-30917980D01*
X28762251Y-30913200D01*
X28737747Y-30913200D01*
X28713714Y-30917981D01*
X28691075Y-30927358D01*
X28670702Y-30940971D01*
X28664330Y-30946200D01*
X28660029Y-30948499D01*
X28655355Y-30949917D01*
X28644359Y-30951000D01*
X28355641Y-30951000D01*
X28344645Y-30949917D01*
X28339971Y-30948499D01*
X28335670Y-30946200D01*
X28329298Y-30940971D01*
X28308924Y-30927357D01*
X28286285Y-30917980D01*
X28262251Y-30913200D01*
X28237747Y-30913200D01*
X28213714Y-30917981D01*
X28191075Y-30927358D01*
X28170702Y-30940971D01*
X28164330Y-30946200D01*
X28160029Y-30948499D01*
X28155355Y-30949917D01*
X28144359Y-30951000D01*
X27855641Y-30951000D01*
X27844645Y-30949917D01*
X27839971Y-30948499D01*
X27835670Y-30946200D01*
X27829298Y-30940971D01*
X27808924Y-30927357D01*
X27786285Y-30917980D01*
X27762251Y-30913200D01*
X27737747Y-30913200D01*
X27713714Y-30917981D01*
X27691075Y-30927358D01*
X27670702Y-30940971D01*
X27664330Y-30946200D01*
X27660029Y-30948499D01*
X27655355Y-30949917D01*
X27644359Y-30951000D01*
X27355641Y-30951000D01*
X27344645Y-30949917D01*
X27339971Y-30948499D01*
X27335669Y-30946200D01*
X27331896Y-30943104D01*
X27328800Y-30939331D01*
X27326501Y-30935029D01*
X27325083Y-30930355D01*
X27324000Y-30919359D01*
X27324000Y-30080641D01*
X27325083Y-30069645D01*
X27326501Y-30064971D01*
X27328800Y-30060669D01*
X27331896Y-30056896D01*
X27335669Y-30053800D01*
X27339971Y-30051501D01*
X27344645Y-30050083D01*
X27355641Y-30049000D01*
X27644359Y-30049000D01*
X27655355Y-30050083D01*
G37*
G36*
X25364499Y-28628445D02*
G01*
X25401995Y-28639820D01*
X25436554Y-28658292D01*
X25466847Y-28683153D01*
X25491708Y-28713446D01*
X25510180Y-28748005D01*
X25521555Y-28785501D01*
X25526000Y-28830638D01*
X25526000Y-29569362D01*
X25521555Y-29614499D01*
X25510180Y-29651995D01*
X25491708Y-29686554D01*
X25466847Y-29716847D01*
X25436554Y-29741708D01*
X25401995Y-29760180D01*
X25364499Y-29771555D01*
X25319362Y-29776000D01*
X24680638Y-29776000D01*
X24635501Y-29771555D01*
X24598005Y-29760180D01*
X24563446Y-29741708D01*
X24533153Y-29716847D01*
X24508292Y-29686554D01*
X24489820Y-29651995D01*
X24478445Y-29614499D01*
X24474000Y-29569362D01*
X24474000Y-28830638D01*
X24478445Y-28785501D01*
X24489820Y-28748005D01*
X24508292Y-28713446D01*
X24533153Y-28683153D01*
X24563446Y-28658292D01*
X24598005Y-28639820D01*
X24635501Y-28628445D01*
X24680638Y-28624000D01*
X25319362Y-28624000D01*
X25364499Y-28628445D01*
G37*
G36*
X29584468Y-28266065D02*
G01*
X29623138Y-28277796D01*
X29658777Y-28296846D01*
X29690017Y-28322483D01*
X29715654Y-28353723D01*
X29734704Y-28389362D01*
X29746435Y-28428032D01*
X29751000Y-28474388D01*
X29751000Y-29125612D01*
X29746435Y-29171968D01*
X29734704Y-29210638D01*
X29715654Y-29246277D01*
X29690017Y-29277517D01*
X29658777Y-29303154D01*
X29623138Y-29322204D01*
X29584468Y-29333935D01*
X29538112Y-29338500D01*
X28461888Y-29338500D01*
X28415532Y-29333935D01*
X28376862Y-29322204D01*
X28341223Y-29303154D01*
X28309983Y-29277517D01*
X28284346Y-29246277D01*
X28265296Y-29210638D01*
X28253565Y-29171968D01*
X28249000Y-29125612D01*
X28249000Y-28474388D01*
X28253565Y-28428032D01*
X28265296Y-28389362D01*
X28284346Y-28353723D01*
X28309983Y-28322483D01*
X28341223Y-28296846D01*
X28376862Y-28277796D01*
X28415532Y-28266065D01*
X28461888Y-28261500D01*
X29538112Y-28261500D01*
X29584468Y-28266065D01*
G37*
G36*
X33772798Y-27430247D02*
G01*
X33808367Y-27441037D01*
X33841139Y-27458554D01*
X33869869Y-27482131D01*
X33893446Y-27510861D01*
X33910963Y-27543633D01*
X33921753Y-27579202D01*
X33926000Y-27622325D01*
X33926000Y-28681675D01*
X33921753Y-28724798D01*
X33910963Y-28760367D01*
X33893446Y-28793139D01*
X33869869Y-28821869D01*
X33841139Y-28845446D01*
X33808367Y-28862963D01*
X33772798Y-28873753D01*
X33729675Y-28878000D01*
X30670325Y-28878000D01*
X30627202Y-28873753D01*
X30591633Y-28862963D01*
X30558861Y-28845446D01*
X30530131Y-28821869D01*
X30506554Y-28793139D01*
X30489037Y-28760367D01*
X30478247Y-28724798D01*
X30474000Y-28681675D01*
X30474000Y-27622325D01*
X30478247Y-27579202D01*
X30489037Y-27543633D01*
X30506554Y-27510861D01*
X30530131Y-27482131D01*
X30558861Y-27458554D01*
X30591633Y-27441037D01*
X30627202Y-27430247D01*
X30670325Y-27426000D01*
X33729675Y-27426000D01*
X33772798Y-27430247D01*
G37*
G36*
X35673512Y-27043927D02*
G01*
X35822812Y-27073624D01*
X35986784Y-27141544D01*
X36134354Y-27240147D01*
X36259853Y-27365646D01*
X36358456Y-27513216D01*
X36426376Y-27677188D01*
X36461000Y-27851259D01*
X36461000Y-28028741D01*
X36426376Y-28202812D01*
X36358456Y-28366784D01*
X36259853Y-28514354D01*
X36134354Y-28639853D01*
X35986784Y-28738456D01*
X35822812Y-28806376D01*
X35690549Y-28832684D01*
X35648742Y-28841000D01*
X35471258Y-28841000D01*
X35429451Y-28832684D01*
X35297188Y-28806376D01*
X35133216Y-28738456D01*
X34985646Y-28639853D01*
X34860147Y-28514354D01*
X34761544Y-28366784D01*
X34693624Y-28202812D01*
X34659000Y-28028741D01*
X34659000Y-27851259D01*
X34693624Y-27677188D01*
X34761544Y-27513216D01*
X34860147Y-27365646D01*
X34985646Y-27240147D01*
X35133216Y-27141544D01*
X35297188Y-27073624D01*
X35446488Y-27043927D01*
X35471258Y-27039000D01*
X35648742Y-27039000D01*
X35673512Y-27043927D01*
G37*
G36*
X22973512Y-27043927D02*
G01*
X23122812Y-27073624D01*
X23286784Y-27141544D01*
X23434354Y-27240147D01*
X23559853Y-27365646D01*
X23658456Y-27513216D01*
X23726376Y-27677188D01*
X23761000Y-27851259D01*
X23761000Y-28028741D01*
X23726376Y-28202812D01*
X23658456Y-28366784D01*
X23559853Y-28514354D01*
X23434354Y-28639853D01*
X23286784Y-28738456D01*
X23122812Y-28806376D01*
X22990549Y-28832684D01*
X22948742Y-28841000D01*
X22771258Y-28841000D01*
X22729451Y-28832684D01*
X22597188Y-28806376D01*
X22433216Y-28738456D01*
X22285646Y-28639853D01*
X22160147Y-28514354D01*
X22061544Y-28366784D01*
X21993624Y-28202812D01*
X21959000Y-28028741D01*
X21959000Y-27851259D01*
X21993624Y-27677188D01*
X22061544Y-27513216D01*
X22160147Y-27365646D01*
X22285646Y-27240147D01*
X22433216Y-27141544D01*
X22597188Y-27073624D01*
X22746488Y-27043927D01*
X22771258Y-27039000D01*
X22948742Y-27039000D01*
X22973512Y-27043927D01*
G37*
G36*
X25954591Y-27078085D02*
G01*
X25988569Y-27088393D01*
X26019890Y-27105134D01*
X26047339Y-27127661D01*
X26069866Y-27155110D01*
X26086607Y-27186431D01*
X26096915Y-27220409D01*
X26101000Y-27261890D01*
X26101000Y-27938110D01*
X26096915Y-27979591D01*
X26086607Y-28013569D01*
X26069866Y-28044890D01*
X26047339Y-28072339D01*
X26019890Y-28094866D01*
X25988569Y-28111607D01*
X25954591Y-28121915D01*
X25913110Y-28126000D01*
X25311890Y-28126000D01*
X25270409Y-28121915D01*
X25236431Y-28111607D01*
X25205110Y-28094866D01*
X25177661Y-28072339D01*
X25155134Y-28044890D01*
X25138393Y-28013569D01*
X25128085Y-27979591D01*
X25124000Y-27938110D01*
X25124000Y-27261890D01*
X25128085Y-27220409D01*
X25138393Y-27186431D01*
X25155134Y-27155110D01*
X25177661Y-27127661D01*
X25205110Y-27105134D01*
X25236431Y-27088393D01*
X25270409Y-27078085D01*
X25311890Y-27074000D01*
X25913110Y-27074000D01*
X25954591Y-27078085D01*
G37*
G36*
X27529591Y-27078085D02*
G01*
X27563569Y-27088393D01*
X27594890Y-27105134D01*
X27622339Y-27127661D01*
X27644866Y-27155110D01*
X27661607Y-27186431D01*
X27671915Y-27220409D01*
X27676000Y-27261890D01*
X27676000Y-27938110D01*
X27671915Y-27979591D01*
X27661607Y-28013569D01*
X27644866Y-28044890D01*
X27622339Y-28072339D01*
X27594890Y-28094866D01*
X27563569Y-28111607D01*
X27529591Y-28121915D01*
X27488110Y-28126000D01*
X26886890Y-28126000D01*
X26845409Y-28121915D01*
X26811431Y-28111607D01*
X26780110Y-28094866D01*
X26752661Y-28072339D01*
X26730134Y-28044890D01*
X26713393Y-28013569D01*
X26703085Y-27979591D01*
X26699000Y-27938110D01*
X26699000Y-27261890D01*
X26703085Y-27220409D01*
X26713393Y-27186431D01*
X26730134Y-27155110D01*
X26752661Y-27127661D01*
X26780110Y-27105134D01*
X26811431Y-27088393D01*
X26845409Y-27078085D01*
X26886890Y-27074000D01*
X27488110Y-27074000D01*
X27529591Y-27078085D01*
G37*
G36*
X29584468Y-26391065D02*
G01*
X29623138Y-26402796D01*
X29658777Y-26421846D01*
X29690017Y-26447483D01*
X29715654Y-26478723D01*
X29734704Y-26514362D01*
X29746435Y-26553032D01*
X29751000Y-26599388D01*
X29751000Y-27250612D01*
X29746435Y-27296968D01*
X29734704Y-27335638D01*
X29715654Y-27371277D01*
X29690017Y-27402517D01*
X29658777Y-27428154D01*
X29623138Y-27447204D01*
X29584468Y-27458935D01*
X29538112Y-27463500D01*
X28461888Y-27463500D01*
X28415532Y-27458935D01*
X28376862Y-27447204D01*
X28341223Y-27428154D01*
X28309983Y-27402517D01*
X28284346Y-27371277D01*
X28265296Y-27335638D01*
X28253565Y-27296968D01*
X28249000Y-27250612D01*
X28249000Y-26599388D01*
X28253565Y-26553032D01*
X28265296Y-26514362D01*
X28284346Y-26478723D01*
X28309983Y-26447483D01*
X28341223Y-26421846D01*
X28376862Y-26402796D01*
X28415532Y-26391065D01*
X28461888Y-26386500D01*
X29538112Y-26386500D01*
X29584468Y-26391065D01*
G37*
G36*
X27542091Y-25478085D02*
G01*
X27576069Y-25488393D01*
X27607390Y-25505134D01*
X27634839Y-25527661D01*
X27657366Y-25555110D01*
X27674107Y-25586431D01*
X27684415Y-25620409D01*
X27688500Y-25661890D01*
X27688500Y-26338110D01*
X27684415Y-26379591D01*
X27674107Y-26413569D01*
X27657366Y-26444890D01*
X27634839Y-26472339D01*
X27607390Y-26494866D01*
X27576069Y-26511607D01*
X27542091Y-26521915D01*
X27500610Y-26526000D01*
X26899390Y-26526000D01*
X26857909Y-26521915D01*
X26823931Y-26511607D01*
X26792610Y-26494866D01*
X26765161Y-26472339D01*
X26742634Y-26444890D01*
X26725893Y-26413569D01*
X26715585Y-26379591D01*
X26711500Y-26338110D01*
X26711500Y-25661890D01*
X26715585Y-25620409D01*
X26725893Y-25586431D01*
X26742634Y-25555110D01*
X26765161Y-25527661D01*
X26792610Y-25505134D01*
X26823931Y-25488393D01*
X26857909Y-25478085D01*
X26899390Y-25474000D01*
X27500610Y-25474000D01*
X27542091Y-25478085D01*
G37*
G36*
X25967091Y-25478085D02*
G01*
X26001069Y-25488393D01*
X26032390Y-25505134D01*
X26059839Y-25527661D01*
X26082366Y-25555110D01*
X26099107Y-25586431D01*
X26109415Y-25620409D01*
X26113500Y-25661890D01*
X26113500Y-26338110D01*
X26109415Y-26379591D01*
X26099107Y-26413569D01*
X26082366Y-26444890D01*
X26059839Y-26472339D01*
X26032390Y-26494866D01*
X26001069Y-26511607D01*
X25967091Y-26521915D01*
X25925610Y-26526000D01*
X25324390Y-26526000D01*
X25282909Y-26521915D01*
X25248931Y-26511607D01*
X25217610Y-26494866D01*
X25190161Y-26472339D01*
X25167634Y-26444890D01*
X25150893Y-26413569D01*
X25140585Y-26379591D01*
X25136500Y-26338110D01*
X25136500Y-25661890D01*
X25140585Y-25620409D01*
X25150893Y-25586431D01*
X25167634Y-25555110D01*
X25190161Y-25527661D01*
X25217610Y-25505134D01*
X25248931Y-25488393D01*
X25282909Y-25478085D01*
X25324390Y-25474000D01*
X25925610Y-25474000D01*
X25967091Y-25478085D01*
G37*
G36*
X22973512Y-24503927D02*
G01*
X23122812Y-24533624D01*
X23286784Y-24601544D01*
X23434354Y-24700147D01*
X23559853Y-24825646D01*
X23658456Y-24973216D01*
X23726376Y-25137188D01*
X23761000Y-25311259D01*
X23761000Y-25488741D01*
X23726376Y-25662812D01*
X23658456Y-25826784D01*
X23559853Y-25974354D01*
X23434354Y-26099853D01*
X23286784Y-26198456D01*
X23122812Y-26266376D01*
X22973512Y-26296073D01*
X22948742Y-26301000D01*
X22771258Y-26301000D01*
X22746488Y-26296073D01*
X22597188Y-26266376D01*
X22433216Y-26198456D01*
X22285646Y-26099853D01*
X22160147Y-25974354D01*
X22061544Y-25826784D01*
X21993624Y-25662812D01*
X21959000Y-25488741D01*
X21959000Y-25311259D01*
X21993624Y-25137188D01*
X22061544Y-24973216D01*
X22160147Y-24825646D01*
X22285646Y-24700147D01*
X22433216Y-24601544D01*
X22597188Y-24533624D01*
X22746488Y-24503927D01*
X22771258Y-24499000D01*
X22948742Y-24499000D01*
X22973512Y-24503927D01*
G37*
G36*
X35673512Y-24503927D02*
G01*
X35822812Y-24533624D01*
X35986784Y-24601544D01*
X36134354Y-24700147D01*
X36259853Y-24825646D01*
X36358456Y-24973216D01*
X36426376Y-25137188D01*
X36461000Y-25311259D01*
X36461000Y-25488741D01*
X36426376Y-25662812D01*
X36358456Y-25826784D01*
X36259853Y-25974354D01*
X36134354Y-26099853D01*
X35986784Y-26198456D01*
X35822812Y-26266376D01*
X35673512Y-26296073D01*
X35648742Y-26301000D01*
X35471258Y-26301000D01*
X35446488Y-26296073D01*
X35297188Y-26266376D01*
X35133216Y-26198456D01*
X34985646Y-26099853D01*
X34860147Y-25974354D01*
X34761544Y-25826784D01*
X34693624Y-25662812D01*
X34659000Y-25488741D01*
X34659000Y-25311259D01*
X34693624Y-25137188D01*
X34761544Y-24973216D01*
X34860147Y-24825646D01*
X34985646Y-24700147D01*
X35133216Y-24601544D01*
X35297188Y-24533624D01*
X35446488Y-24503927D01*
X35471258Y-24499000D01*
X35648742Y-24499000D01*
X35673512Y-24503927D01*
G37*
G36*
X29579591Y-24915585D02*
G01*
X29613569Y-24925893D01*
X29644890Y-24942634D01*
X29672339Y-24965161D01*
X29694866Y-24992610D01*
X29711607Y-25023931D01*
X29721915Y-25057909D01*
X29726000Y-25099390D01*
X29726000Y-25700610D01*
X29721915Y-25742091D01*
X29711607Y-25776069D01*
X29694866Y-25807390D01*
X29672339Y-25834839D01*
X29644890Y-25857366D01*
X29613569Y-25874107D01*
X29579591Y-25884415D01*
X29538110Y-25888500D01*
X28861890Y-25888500D01*
X28820409Y-25884415D01*
X28786431Y-25874107D01*
X28755110Y-25857366D01*
X28727661Y-25834839D01*
X28705134Y-25807390D01*
X28688393Y-25776069D01*
X28678085Y-25742091D01*
X28674000Y-25700610D01*
X28674000Y-25099390D01*
X28678085Y-25057909D01*
X28688393Y-25023931D01*
X28705134Y-24992610D01*
X28727661Y-24965161D01*
X28755110Y-24942634D01*
X28786431Y-24925893D01*
X28820409Y-24915585D01*
X28861890Y-24911500D01*
X29538110Y-24911500D01*
X29579591Y-24915585D01*
G37*
G36*
X25996968Y-23453565D02*
G01*
X26035638Y-23465296D01*
X26071277Y-23484346D01*
X26102517Y-23509983D01*
X26128154Y-23541223D01*
X26147204Y-23576862D01*
X26158935Y-23615532D01*
X26163500Y-23661888D01*
X26163500Y-24738112D01*
X26158935Y-24784468D01*
X26147204Y-24823138D01*
X26128154Y-24858777D01*
X26102517Y-24890017D01*
X26071277Y-24915654D01*
X26035638Y-24934704D01*
X25996968Y-24946435D01*
X25950612Y-24951000D01*
X25299388Y-24951000D01*
X25253032Y-24946435D01*
X25214362Y-24934704D01*
X25178723Y-24915654D01*
X25147483Y-24890017D01*
X25121846Y-24858777D01*
X25102796Y-24823138D01*
X25091065Y-24784468D01*
X25086500Y-24738112D01*
X25086500Y-23661888D01*
X25091065Y-23615532D01*
X25102796Y-23576862D01*
X25121846Y-23541223D01*
X25147483Y-23509983D01*
X25178723Y-23484346D01*
X25214362Y-23465296D01*
X25253032Y-23453565D01*
X25299388Y-23449000D01*
X25950612Y-23449000D01*
X25996968Y-23453565D01*
G37*
G36*
X27871968Y-23453565D02*
G01*
X27910638Y-23465296D01*
X27946277Y-23484346D01*
X27977517Y-23509983D01*
X28003154Y-23541223D01*
X28022204Y-23576862D01*
X28033935Y-23615532D01*
X28038500Y-23661888D01*
X28038500Y-24738112D01*
X28033935Y-24784468D01*
X28022204Y-24823138D01*
X28003154Y-24858777D01*
X27977517Y-24890017D01*
X27946277Y-24915654D01*
X27910638Y-24934704D01*
X27871968Y-24946435D01*
X27825612Y-24951000D01*
X27174388Y-24951000D01*
X27128032Y-24946435D01*
X27089362Y-24934704D01*
X27053723Y-24915654D01*
X27022483Y-24890017D01*
X26996846Y-24858777D01*
X26977796Y-24823138D01*
X26966065Y-24784468D01*
X26961500Y-24738112D01*
X26961500Y-23661888D01*
X26966065Y-23615532D01*
X26977796Y-23576862D01*
X26996846Y-23541223D01*
X27022483Y-23509983D01*
X27053723Y-23484346D01*
X27089362Y-23465296D01*
X27128032Y-23453565D01*
X27174388Y-23449000D01*
X27825612Y-23449000D01*
X27871968Y-23453565D01*
G37*
G36*
X29579591Y-23340585D02*
G01*
X29613569Y-23350893D01*
X29644890Y-23367634D01*
X29672339Y-23390161D01*
X29694866Y-23417610D01*
X29711607Y-23448931D01*
X29721915Y-23482909D01*
X29726000Y-23524390D01*
X29726000Y-24125610D01*
X29721915Y-24167091D01*
X29711607Y-24201069D01*
X29694866Y-24232390D01*
X29672339Y-24259839D01*
X29644890Y-24282366D01*
X29613569Y-24299107D01*
X29579591Y-24309415D01*
X29538110Y-24313500D01*
X28861890Y-24313500D01*
X28820409Y-24309415D01*
X28786431Y-24299107D01*
X28755110Y-24282366D01*
X28727661Y-24259839D01*
X28705134Y-24232390D01*
X28688393Y-24201069D01*
X28678085Y-24167091D01*
X28674000Y-24125610D01*
X28674000Y-23524390D01*
X28678085Y-23482909D01*
X28688393Y-23448931D01*
X28705134Y-23417610D01*
X28727661Y-23390161D01*
X28755110Y-23367634D01*
X28786431Y-23350893D01*
X28820409Y-23340585D01*
X28861890Y-23336500D01*
X29538110Y-23336500D01*
X29579591Y-23340585D01*
G37*
G36*
X36461000Y-23761000D02*
G01*
X34659000Y-23761000D01*
X34659000Y-21959000D01*
X36461000Y-21959000D01*
X36461000Y-23761000D01*
G37*
G36*
X23761000Y-23761000D02*
G01*
X21959000Y-23761000D01*
X21959000Y-21959000D01*
X23761000Y-21959000D01*
X23761000Y-23761000D01*
G37*
G36*
X33772798Y-21630247D02*
G01*
X33808367Y-21641037D01*
X33841139Y-21658554D01*
X33869869Y-21682131D01*
X33893446Y-21710861D01*
X33910963Y-21743633D01*
X33921753Y-21779202D01*
X33926000Y-21822325D01*
X33926000Y-22881675D01*
X33921753Y-22924798D01*
X33910963Y-22960367D01*
X33893446Y-22993139D01*
X33869869Y-23021869D01*
X33841139Y-23045446D01*
X33808367Y-23062963D01*
X33772798Y-23073753D01*
X33729675Y-23078000D01*
X30670325Y-23078000D01*
X30627202Y-23073753D01*
X30591633Y-23062963D01*
X30558861Y-23045446D01*
X30530131Y-23021869D01*
X30506554Y-22993139D01*
X30489037Y-22960367D01*
X30478247Y-22924798D01*
X30474000Y-22881675D01*
X30474000Y-21822325D01*
X30478247Y-21779202D01*
X30489037Y-21743633D01*
X30506554Y-21710861D01*
X30530131Y-21682131D01*
X30558861Y-21658554D01*
X30591633Y-21641037D01*
X30627202Y-21630247D01*
X30670325Y-21626000D01*
X33729675Y-21626000D01*
X33772798Y-21630247D01*
G37*
G36*
X25996968Y-21453565D02*
G01*
X26035638Y-21465296D01*
X26071277Y-21484346D01*
X26102517Y-21509983D01*
X26128154Y-21541223D01*
X26147204Y-21576862D01*
X26158935Y-21615532D01*
X26163500Y-21661888D01*
X26163500Y-22738112D01*
X26158935Y-22784468D01*
X26147204Y-22823138D01*
X26128154Y-22858777D01*
X26102517Y-22890017D01*
X26071277Y-22915654D01*
X26035638Y-22934704D01*
X25996968Y-22946435D01*
X25950612Y-22951000D01*
X25299388Y-22951000D01*
X25253032Y-22946435D01*
X25214362Y-22934704D01*
X25178723Y-22915654D01*
X25147483Y-22890017D01*
X25121846Y-22858777D01*
X25102796Y-22823138D01*
X25091065Y-22784468D01*
X25086500Y-22738112D01*
X25086500Y-21661888D01*
X25091065Y-21615532D01*
X25102796Y-21576862D01*
X25121846Y-21541223D01*
X25147483Y-21509983D01*
X25178723Y-21484346D01*
X25214362Y-21465296D01*
X25253032Y-21453565D01*
X25299388Y-21449000D01*
X25950612Y-21449000D01*
X25996968Y-21453565D01*
G37*
G36*
X27871968Y-21453565D02*
G01*
X27910638Y-21465296D01*
X27946277Y-21484346D01*
X27977517Y-21509983D01*
X28003154Y-21541223D01*
X28022204Y-21576862D01*
X28033935Y-21615532D01*
X28038500Y-21661888D01*
X28038500Y-22738112D01*
X28033935Y-22784468D01*
X28022204Y-22823138D01*
X28003154Y-22858777D01*
X27977517Y-22890017D01*
X27946277Y-22915654D01*
X27910638Y-22934704D01*
X27871968Y-22946435D01*
X27825612Y-22951000D01*
X27174388Y-22951000D01*
X27128032Y-22946435D01*
X27089362Y-22934704D01*
X27053723Y-22915654D01*
X27022483Y-22890017D01*
X26996846Y-22858777D01*
X26977796Y-22823138D01*
X26966065Y-22784468D01*
X26961500Y-22738112D01*
X26961500Y-21661888D01*
X26966065Y-21615532D01*
X26977796Y-21576862D01*
X26996846Y-21541223D01*
X27022483Y-21509983D01*
X27053723Y-21484346D01*
X27089362Y-21465296D01*
X27128032Y-21453565D01*
X27174388Y-21449000D01*
X27825612Y-21449000D01*
X27871968Y-21453565D01*
G37*
M02*
